G04*
G04 #@! TF.GenerationSoftware,Altium Limited,Altium Designer,20.0.13 (296)*
G04*
G04 Layer_Color=8388736*
%FSLAX24Y24*%
%MOIN*%
G70*
G01*
G75*
%ADD32R,0.1205X0.1256*%
%ADD33C,0.0433*%
%ADD34R,0.0276X0.0256*%
G04:AMPARAMS|DCode=35|XSize=25.6mil|YSize=27.6mil|CornerRadius=0mil|HoleSize=0mil|Usage=FLASHONLY|Rotation=315.000|XOffset=0mil|YOffset=0mil|HoleType=Round|Shape=Rectangle|*
%AMROTATEDRECTD35*
4,1,4,-0.0188,-0.0007,0.0007,0.0188,0.0188,0.0007,-0.0007,-0.0188,-0.0188,-0.0007,0.0*
%
%ADD35ROTATEDRECTD35*%

%ADD36R,0.0256X0.0276*%
G04:AMPARAMS|DCode=37|XSize=25.6mil|YSize=27.6mil|CornerRadius=0mil|HoleSize=0mil|Usage=FLASHONLY|Rotation=45.000|XOffset=0mil|YOffset=0mil|HoleType=Round|Shape=Rectangle|*
%AMROTATEDRECTD37*
4,1,4,0.0007,-0.0188,-0.0188,0.0007,-0.0007,0.0188,0.0188,-0.0007,0.0007,-0.0188,0.0*
%
%ADD37ROTATEDRECTD37*%

%ADD38R,0.0295X0.0236*%
G04:AMPARAMS|DCode=39|XSize=23.6mil|YSize=29.5mil|CornerRadius=0mil|HoleSize=0mil|Usage=FLASHONLY|Rotation=315.000|XOffset=0mil|YOffset=0mil|HoleType=Round|Shape=Rectangle|*
%AMROTATEDRECTD39*
4,1,4,-0.0188,-0.0021,0.0021,0.0188,0.0188,0.0021,-0.0021,-0.0188,-0.0188,-0.0021,0.0*
%
%ADD39ROTATEDRECTD39*%

G04:AMPARAMS|DCode=40|XSize=23.6mil|YSize=27.6mil|CornerRadius=0mil|HoleSize=0mil|Usage=FLASHONLY|Rotation=135.000|XOffset=0mil|YOffset=0mil|HoleType=Round|Shape=Rectangle|*
%AMROTATEDRECTD40*
4,1,4,0.0181,0.0014,-0.0014,-0.0181,-0.0181,-0.0014,0.0014,0.0181,0.0181,0.0014,0.0*
%
%ADD40ROTATEDRECTD40*%

G04:AMPARAMS|DCode=41|XSize=23.6mil|YSize=29.5mil|CornerRadius=0mil|HoleSize=0mil|Usage=FLASHONLY|Rotation=45.000|XOffset=0mil|YOffset=0mil|HoleType=Round|Shape=Rectangle|*
%AMROTATEDRECTD41*
4,1,4,0.0021,-0.0188,-0.0188,0.0021,-0.0021,0.0188,0.0188,-0.0021,0.0021,-0.0188,0.0*
%
%ADD41ROTATEDRECTD41*%

G04:AMPARAMS|DCode=42|XSize=23.6mil|YSize=27.6mil|CornerRadius=0mil|HoleSize=0mil|Usage=FLASHONLY|Rotation=45.000|XOffset=0mil|YOffset=0mil|HoleType=Round|Shape=Rectangle|*
%AMROTATEDRECTD42*
4,1,4,0.0014,-0.0181,-0.0181,0.0014,-0.0014,0.0181,0.0181,-0.0014,0.0014,-0.0181,0.0*
%
%ADD42ROTATEDRECTD42*%

%ADD43R,0.1122X0.0591*%
G04:AMPARAMS|DCode=44|XSize=112.2mil|YSize=112.2mil|CornerRadius=7.4mil|HoleSize=0mil|Usage=FLASHONLY|Rotation=225.000|XOffset=0mil|YOffset=0mil|HoleType=Round|Shape=RoundedRectangle|*
%AMROUNDEDRECTD44*
21,1,0.1122,0.0974,0,0,225.0*
21,1,0.0974,0.1122,0,0,225.0*
1,1,0.0148,-0.0689,0.0000*
1,1,0.0148,0.0000,0.0689*
1,1,0.0148,0.0689,0.0000*
1,1,0.0148,0.0000,-0.0689*
%
%ADD44ROUNDEDRECTD44*%
G04:AMPARAMS|DCode=45|XSize=15.7mil|YSize=27.6mil|CornerRadius=4.9mil|HoleSize=0mil|Usage=FLASHONLY|Rotation=225.000|XOffset=0mil|YOffset=0mil|HoleType=Round|Shape=RoundedRectangle|*
%AMROUNDEDRECTD45*
21,1,0.0157,0.0177,0,0,225.0*
21,1,0.0059,0.0276,0,0,225.0*
1,1,0.0098,-0.0084,0.0042*
1,1,0.0098,-0.0042,0.0084*
1,1,0.0098,0.0084,-0.0042*
1,1,0.0098,0.0042,-0.0084*
%
%ADD45ROUNDEDRECTD45*%
G04:AMPARAMS|DCode=46|XSize=27.6mil|YSize=15.7mil|CornerRadius=4.9mil|HoleSize=0mil|Usage=FLASHONLY|Rotation=225.000|XOffset=0mil|YOffset=0mil|HoleType=Round|Shape=RoundedRectangle|*
%AMROUNDEDRECTD46*
21,1,0.0276,0.0059,0,0,225.0*
21,1,0.0177,0.0157,0,0,225.0*
1,1,0.0098,-0.0084,-0.0042*
1,1,0.0098,0.0042,0.0084*
1,1,0.0098,0.0084,0.0042*
1,1,0.0098,-0.0042,-0.0084*
%
%ADD46ROUNDEDRECTD46*%
%ADD47R,0.0339X0.0359*%
G04:AMPARAMS|DCode=48|XSize=112.2mil|YSize=112.2mil|CornerRadius=7.4mil|HoleSize=0mil|Usage=FLASHONLY|Rotation=0.000|XOffset=0mil|YOffset=0mil|HoleType=Round|Shape=RoundedRectangle|*
%AMROUNDEDRECTD48*
21,1,0.1122,0.0974,0,0,0.0*
21,1,0.0974,0.1122,0,0,0.0*
1,1,0.0148,0.0487,-0.0487*
1,1,0.0148,-0.0487,-0.0487*
1,1,0.0148,-0.0487,0.0487*
1,1,0.0148,0.0487,0.0487*
%
%ADD48ROUNDEDRECTD48*%
G04:AMPARAMS|DCode=49|XSize=15.7mil|YSize=27.6mil|CornerRadius=4.9mil|HoleSize=0mil|Usage=FLASHONLY|Rotation=0.000|XOffset=0mil|YOffset=0mil|HoleType=Round|Shape=RoundedRectangle|*
%AMROUNDEDRECTD49*
21,1,0.0157,0.0177,0,0,0.0*
21,1,0.0059,0.0276,0,0,0.0*
1,1,0.0098,0.0030,-0.0089*
1,1,0.0098,-0.0030,-0.0089*
1,1,0.0098,-0.0030,0.0089*
1,1,0.0098,0.0030,0.0089*
%
%ADD49ROUNDEDRECTD49*%
G04:AMPARAMS|DCode=50|XSize=27.6mil|YSize=15.7mil|CornerRadius=4.9mil|HoleSize=0mil|Usage=FLASHONLY|Rotation=0.000|XOffset=0mil|YOffset=0mil|HoleType=Round|Shape=RoundedRectangle|*
%AMROUNDEDRECTD50*
21,1,0.0276,0.0059,0,0,0.0*
21,1,0.0177,0.0157,0,0,0.0*
1,1,0.0098,0.0089,-0.0030*
1,1,0.0098,-0.0089,-0.0030*
1,1,0.0098,-0.0089,0.0030*
1,1,0.0098,0.0089,0.0030*
%
%ADD50ROUNDEDRECTD50*%
G04:AMPARAMS|DCode=51|XSize=112.2mil|YSize=112.2mil|CornerRadius=7.4mil|HoleSize=0mil|Usage=FLASHONLY|Rotation=135.000|XOffset=0mil|YOffset=0mil|HoleType=Round|Shape=RoundedRectangle|*
%AMROUNDEDRECTD51*
21,1,0.1122,0.0974,0,0,135.0*
21,1,0.0974,0.1122,0,0,135.0*
1,1,0.0148,0.0000,0.0689*
1,1,0.0148,0.0689,0.0000*
1,1,0.0148,0.0000,-0.0689*
1,1,0.0148,-0.0689,0.0000*
%
%ADD51ROUNDEDRECTD51*%
G04:AMPARAMS|DCode=52|XSize=15.7mil|YSize=27.6mil|CornerRadius=4.9mil|HoleSize=0mil|Usage=FLASHONLY|Rotation=135.000|XOffset=0mil|YOffset=0mil|HoleType=Round|Shape=RoundedRectangle|*
%AMROUNDEDRECTD52*
21,1,0.0157,0.0177,0,0,135.0*
21,1,0.0059,0.0276,0,0,135.0*
1,1,0.0098,0.0042,0.0084*
1,1,0.0098,0.0084,0.0042*
1,1,0.0098,-0.0042,-0.0084*
1,1,0.0098,-0.0084,-0.0042*
%
%ADD52ROUNDEDRECTD52*%
G04:AMPARAMS|DCode=53|XSize=27.6mil|YSize=15.7mil|CornerRadius=4.9mil|HoleSize=0mil|Usage=FLASHONLY|Rotation=135.000|XOffset=0mil|YOffset=0mil|HoleType=Round|Shape=RoundedRectangle|*
%AMROUNDEDRECTD53*
21,1,0.0276,0.0059,0,0,135.0*
21,1,0.0177,0.0157,0,0,135.0*
1,1,0.0098,-0.0042,0.0084*
1,1,0.0098,0.0084,-0.0042*
1,1,0.0098,0.0042,-0.0084*
1,1,0.0098,-0.0084,0.0042*
%
%ADD53ROUNDEDRECTD53*%
%ADD54R,0.0236X0.0276*%
%ADD55C,0.0787*%
%ADD56C,0.0866*%
%ADD57C,0.1732*%
%ADD58C,0.1417*%
%ADD59C,0.0118*%
G36*
X13911Y36417D02*
X13941Y36416D01*
X13971Y36414D01*
X14000Y36411D01*
X14004Y36411D01*
X14030Y36408D01*
X14044Y36406D01*
X14060Y36404D01*
X14089Y36399D01*
X14119Y36393D01*
X14148Y36387D01*
X14177Y36380D01*
X14206Y36372D01*
X14234Y36363D01*
X14263Y36354D01*
X14291Y36344D01*
X14319Y36333D01*
X14330Y36328D01*
X14347Y36322D01*
X14374Y36310D01*
X14401Y36297D01*
X14428Y36283D01*
X14454Y36269D01*
X14480Y36254D01*
X14506Y36239D01*
X14531Y36222D01*
X14556Y36206D01*
X14580Y36188D01*
X14604Y36170D01*
X14614Y36162D01*
X14627Y36152D01*
X14650Y36132D01*
X14673Y36113D01*
X14674Y36111D01*
X14695Y36092D01*
X14705Y36082D01*
X14716Y36071D01*
X16386Y34401D01*
X16407Y34380D01*
X16428Y34358D01*
X16447Y34335D01*
X16451Y34332D01*
X16467Y34312D01*
X16475Y34302D01*
X16485Y34289D01*
X16496Y34275D01*
X16503Y34265D01*
X16516Y34248D01*
X16521Y34241D01*
X16526Y34233D01*
X16537Y34216D01*
X16544Y34206D01*
X16554Y34191D01*
X16569Y34165D01*
X16575Y34154D01*
X16584Y34139D01*
X16589Y34130D01*
X16598Y34113D01*
X16607Y34095D01*
X16612Y34086D01*
X16618Y34073D01*
X16624Y34059D01*
X16637Y34032D01*
X16648Y34004D01*
X16659Y33976D01*
X16662Y33966D01*
X16669Y33948D01*
X16675Y33929D01*
X16678Y33919D01*
X16681Y33911D01*
X16687Y33891D01*
X16693Y33870D01*
X16695Y33862D01*
X16702Y33833D01*
X16703Y33826D01*
X16708Y33804D01*
X16714Y33774D01*
X16719Y33745D01*
X16723Y33715D01*
X16726Y33685D01*
X16729Y33656D01*
X16731Y33626D01*
X16732Y33596D01*
X16732Y33566D01*
Y23819D01*
X16732Y23789D01*
X16731Y23759D01*
X16729Y23729D01*
X16726Y23699D01*
X16723Y23670D01*
X16719Y23640D01*
X16714Y23611D01*
X16708Y23581D01*
X16702Y23552D01*
X16695Y23523D01*
X16687Y23494D01*
X16678Y23465D01*
X16669Y23437D01*
X16659Y23409D01*
X16648Y23381D01*
X16637Y23353D01*
X16624Y23326D01*
X16612Y23299D01*
X16598Y23272D01*
X16584Y23246D01*
X16569Y23220D01*
X16554Y23194D01*
X16537Y23169D01*
X16521Y23144D01*
X16503Y23120D01*
X16485Y23096D01*
X16467Y23072D01*
X16447Y23049D01*
X16428Y23027D01*
X16407Y23005D01*
X16386Y22984D01*
X16365Y22963D01*
X16343Y22942D01*
X16321Y22923D01*
X16298Y22903D01*
X16274Y22885D01*
X16250Y22867D01*
X16226Y22849D01*
X16201Y22833D01*
X16176Y22816D01*
X16150Y22801D01*
X16124Y22786D01*
X16098Y22772D01*
X16071Y22758D01*
X16044Y22746D01*
X16017Y22733D01*
X15989Y22722D01*
X15961Y22711D01*
X15933Y22701D01*
X15905Y22692D01*
X15876Y22683D01*
X15847Y22675D01*
X15818Y22668D01*
X15789Y22662D01*
X15760Y22656D01*
X15730Y22651D01*
X15700Y22647D01*
X15671Y22644D01*
X15641Y22641D01*
X15611Y22639D01*
X15581Y22638D01*
X15551Y22638D01*
X5804D01*
X5774Y22638D01*
X5744Y22639D01*
X5714Y22641D01*
X5712Y22641D01*
X5685Y22644D01*
X5655Y22647D01*
X5625Y22651D01*
X5596Y22656D01*
X5566Y22662D01*
X5544Y22667D01*
X5537Y22668D01*
X5508Y22675D01*
X5500Y22678D01*
X5479Y22683D01*
X5459Y22689D01*
X5451Y22692D01*
X5441Y22695D01*
X5422Y22701D01*
X5404Y22708D01*
X5394Y22711D01*
X5366Y22722D01*
X5338Y22733D01*
X5311Y22746D01*
X5297Y22752D01*
X5284Y22758D01*
X5275Y22763D01*
X5257Y22772D01*
X5240Y22781D01*
X5231Y22786D01*
X5216Y22795D01*
X5205Y22801D01*
X5179Y22816D01*
X5164Y22826D01*
X5154Y22833D01*
X5129Y22849D01*
X5105Y22867D01*
X5095Y22875D01*
X5081Y22885D01*
X5068Y22895D01*
X5058Y22903D01*
X5035Y22923D01*
X5012Y22942D01*
X4990Y22963D01*
X4969Y22984D01*
X3299Y24654D01*
X3278Y24675D01*
X3257Y24697D01*
X3238Y24720D01*
X3218Y24743D01*
X3200Y24766D01*
X3182Y24790D01*
X3164Y24814D01*
X3148Y24839D01*
X3138Y24855D01*
X3131Y24864D01*
X3116Y24890D01*
X3101Y24916D01*
X3092Y24933D01*
X3087Y24942D01*
X3080Y24956D01*
X3073Y24969D01*
X3067Y24983D01*
X3061Y24996D01*
X3055Y25008D01*
X3048Y25023D01*
X3042Y25040D01*
X3037Y25051D01*
X3026Y25079D01*
X3016Y25107D01*
X3013Y25117D01*
X3007Y25136D01*
X3001Y25156D01*
X2998Y25164D01*
X2990Y25193D01*
X2983Y25222D01*
X2978Y25245D01*
X2977Y25251D01*
X2971Y25281D01*
X2966Y25310D01*
X2966Y25315D01*
X2962Y25340D01*
X2959Y25366D01*
X2959Y25370D01*
X2956Y25400D01*
X2954Y25429D01*
X2953Y25459D01*
X2953Y25489D01*
Y35236D01*
X2953Y35266D01*
X2954Y35296D01*
X2956Y35326D01*
X2959Y35356D01*
X2962Y35385D01*
X2966Y35415D01*
X2971Y35445D01*
X2977Y35474D01*
X2983Y35503D01*
X2990Y35532D01*
X2998Y35561D01*
X3007Y35590D01*
X3016Y35618D01*
X3026Y35646D01*
X3037Y35674D01*
X3048Y35702D01*
X3061Y35729D01*
X3073Y35756D01*
X3087Y35783D01*
X3101Y35809D01*
X3116Y35835D01*
X3131Y35861D01*
X3148Y35886D01*
X3164Y35911D01*
X3182Y35935D01*
X3200Y35959D01*
X3218Y35983D01*
X3238Y36006D01*
X3257Y36028D01*
X3278Y36050D01*
X3299Y36071D01*
X3320Y36092D01*
X3342Y36113D01*
X3364Y36132D01*
X3387Y36152D01*
X3411Y36170D01*
X3435Y36188D01*
X3459Y36206D01*
X3484Y36222D01*
X3509Y36239D01*
X3535Y36254D01*
X3561Y36269D01*
X3587Y36283D01*
X3614Y36297D01*
X3641Y36310D01*
X3668Y36322D01*
X3696Y36333D01*
X3724Y36344D01*
X3752Y36354D01*
X3780Y36363D01*
X3809Y36372D01*
X3838Y36380D01*
X3867Y36387D01*
X3896Y36393D01*
X3925Y36399D01*
X3955Y36404D01*
X3985Y36408D01*
X4014Y36411D01*
X4044Y36414D01*
X4074Y36416D01*
X4104Y36417D01*
X4134Y36417D01*
X13881D01*
X13911Y36417D01*
D02*
G37*
G36*
X13911Y16732D02*
X13941Y16731D01*
X13971Y16729D01*
X13973Y16729D01*
X14000Y16726D01*
X14030Y16723D01*
X14060Y16719D01*
X14089Y16714D01*
X14119Y16708D01*
X14141Y16703D01*
X14148Y16702D01*
X14177Y16695D01*
X14185Y16693D01*
X14206Y16687D01*
X14226Y16681D01*
X14234Y16678D01*
X14244Y16675D01*
X14263Y16669D01*
X14281Y16662D01*
X14291Y16659D01*
X14319Y16648D01*
X14347Y16637D01*
X14374Y16624D01*
X14388Y16618D01*
X14401Y16612D01*
X14410Y16607D01*
X14428Y16598D01*
X14445Y16589D01*
X14454Y16584D01*
X14469Y16575D01*
X14480Y16569D01*
X14506Y16554D01*
X14521Y16544D01*
X14531Y16537D01*
X14556Y16521D01*
X14580Y16503D01*
X14590Y16496D01*
X14604Y16485D01*
X14617Y16475D01*
X14627Y16467D01*
X14650Y16447D01*
X14673Y16428D01*
X14695Y16407D01*
X14716Y16386D01*
X16386Y14716D01*
X16407Y14695D01*
X16428Y14673D01*
X16447Y14650D01*
X16467Y14627D01*
X16485Y14604D01*
X16503Y14580D01*
X16521Y14556D01*
X16537Y14531D01*
X16547Y14516D01*
X16554Y14506D01*
X16569Y14480D01*
X16584Y14454D01*
X16593Y14437D01*
X16598Y14428D01*
X16605Y14414D01*
X16612Y14401D01*
X16618Y14387D01*
X16624Y14374D01*
X16630Y14362D01*
X16637Y14347D01*
X16643Y14330D01*
X16648Y14319D01*
X16659Y14291D01*
X16669Y14263D01*
X16672Y14254D01*
X16678Y14234D01*
X16684Y14214D01*
X16687Y14206D01*
X16695Y14177D01*
X16702Y14148D01*
X16707Y14125D01*
X16708Y14119D01*
X16714Y14089D01*
X16719Y14060D01*
X16719Y14056D01*
X16723Y14030D01*
X16726Y14004D01*
X16726Y14000D01*
X16729Y13971D01*
X16731Y13941D01*
X16732Y13911D01*
X16732Y13881D01*
Y4134D01*
X16732Y4104D01*
X16731Y4074D01*
X16729Y4044D01*
X16726Y4014D01*
X16723Y3985D01*
X16719Y3955D01*
X16714Y3925D01*
X16708Y3896D01*
X16702Y3867D01*
X16695Y3838D01*
X16687Y3809D01*
X16678Y3780D01*
X16669Y3752D01*
X16659Y3724D01*
X16648Y3696D01*
X16637Y3668D01*
X16624Y3641D01*
X16612Y3614D01*
X16598Y3587D01*
X16584Y3561D01*
X16569Y3535D01*
X16554Y3509D01*
X16537Y3484D01*
X16521Y3459D01*
X16503Y3435D01*
X16485Y3411D01*
X16467Y3387D01*
X16447Y3364D01*
X16428Y3342D01*
X16407Y3320D01*
X16386Y3299D01*
X16365Y3278D01*
X16343Y3257D01*
X16321Y3238D01*
X16298Y3218D01*
X16274Y3200D01*
X16250Y3182D01*
X16226Y3164D01*
X16201Y3148D01*
X16176Y3131D01*
X16150Y3116D01*
X16124Y3101D01*
X16098Y3087D01*
X16071Y3073D01*
X16044Y3061D01*
X16017Y3048D01*
X15989Y3037D01*
X15961Y3026D01*
X15933Y3016D01*
X15905Y3007D01*
X15876Y2998D01*
X15847Y2990D01*
X15818Y2983D01*
X15789Y2977D01*
X15760Y2971D01*
X15730Y2966D01*
X15700Y2962D01*
X15671Y2959D01*
X15641Y2956D01*
X15611Y2954D01*
X15581Y2953D01*
X15551Y2953D01*
X5804D01*
X5774Y2953D01*
X5744Y2954D01*
X5714Y2956D01*
X5685Y2959D01*
X5681Y2959D01*
X5655Y2962D01*
X5641Y2964D01*
X5625Y2966D01*
X5596Y2971D01*
X5566Y2977D01*
X5537Y2983D01*
X5508Y2990D01*
X5479Y2998D01*
X5451Y3007D01*
X5422Y3016D01*
X5394Y3026D01*
X5366Y3037D01*
X5355Y3042D01*
X5338Y3048D01*
X5311Y3061D01*
X5284Y3073D01*
X5257Y3087D01*
X5231Y3101D01*
X5205Y3116D01*
X5179Y3131D01*
X5154Y3148D01*
X5129Y3164D01*
X5105Y3182D01*
X5081Y3200D01*
X5071Y3208D01*
X5058Y3218D01*
X5035Y3238D01*
X5012Y3257D01*
X5011Y3259D01*
X4990Y3278D01*
X4980Y3288D01*
X4969Y3299D01*
X3299Y4969D01*
X3278Y4990D01*
X3257Y5012D01*
X3238Y5035D01*
X3234Y5039D01*
X3218Y5058D01*
X3210Y5068D01*
X3200Y5081D01*
X3190Y5095D01*
X3182Y5105D01*
X3169Y5122D01*
X3164Y5129D01*
X3159Y5137D01*
X3148Y5154D01*
X3141Y5164D01*
X3131Y5179D01*
X3116Y5205D01*
X3110Y5216D01*
X3101Y5231D01*
X3096Y5240D01*
X3087Y5257D01*
X3078Y5275D01*
X3073Y5284D01*
X3067Y5297D01*
X3061Y5311D01*
X3048Y5338D01*
X3037Y5366D01*
X3026Y5394D01*
X3023Y5404D01*
X3016Y5422D01*
X3010Y5441D01*
X3007Y5451D01*
X3004Y5459D01*
X2998Y5479D01*
X2993Y5500D01*
X2990Y5508D01*
X2983Y5537D01*
X2982Y5544D01*
X2977Y5566D01*
X2971Y5596D01*
X2966Y5625D01*
X2962Y5655D01*
X2959Y5685D01*
X2956Y5714D01*
X2954Y5744D01*
X2953Y5774D01*
X2953Y5804D01*
Y15551D01*
X2953Y15581D01*
X2954Y15611D01*
X2956Y15641D01*
X2959Y15671D01*
X2962Y15700D01*
X2966Y15730D01*
X2971Y15760D01*
X2977Y15789D01*
X2983Y15818D01*
X2990Y15847D01*
X2998Y15876D01*
X3007Y15905D01*
X3016Y15933D01*
X3026Y15961D01*
X3037Y15989D01*
X3048Y16017D01*
X3061Y16044D01*
X3073Y16071D01*
X3087Y16098D01*
X3101Y16124D01*
X3116Y16150D01*
X3131Y16176D01*
X3148Y16201D01*
X3164Y16226D01*
X3182Y16250D01*
X3200Y16274D01*
X3218Y16298D01*
X3238Y16321D01*
X3257Y16343D01*
X3278Y16365D01*
X3299Y16386D01*
X3320Y16407D01*
X3342Y16428D01*
X3364Y16447D01*
X3387Y16467D01*
X3411Y16485D01*
X3435Y16503D01*
X3459Y16521D01*
X3484Y16537D01*
X3509Y16554D01*
X3535Y16569D01*
X3561Y16584D01*
X3587Y16598D01*
X3614Y16612D01*
X3641Y16624D01*
X3668Y16637D01*
X3696Y16648D01*
X3724Y16659D01*
X3752Y16669D01*
X3780Y16678D01*
X3809Y16687D01*
X3838Y16695D01*
X3867Y16702D01*
X3896Y16708D01*
X3925Y16714D01*
X3955Y16719D01*
X3985Y16723D01*
X4014Y16726D01*
X4044Y16729D01*
X4074Y16731D01*
X4104Y16732D01*
X4134Y16732D01*
X13881D01*
X13911Y16732D01*
D02*
G37*
G36*
X33596D02*
X33626Y16731D01*
X33656Y16729D01*
X33658Y16729D01*
X33685Y16726D01*
X33715Y16723D01*
X33745Y16719D01*
X33774Y16714D01*
X33804Y16708D01*
X33826Y16703D01*
X33833Y16702D01*
X33862Y16695D01*
X33870Y16693D01*
X33891Y16687D01*
X33911Y16681D01*
X33919Y16678D01*
X33929Y16675D01*
X33948Y16669D01*
X33966Y16662D01*
X33976Y16659D01*
X34004Y16648D01*
X34032Y16637D01*
X34059Y16624D01*
X34073Y16618D01*
X34086Y16612D01*
X34095Y16607D01*
X34113Y16598D01*
X34130Y16589D01*
X34139Y16584D01*
X34154Y16575D01*
X34165Y16569D01*
X34191Y16554D01*
X34206Y16544D01*
X34216Y16537D01*
X34241Y16521D01*
X34265Y16503D01*
X34275Y16496D01*
X34289Y16485D01*
X34302Y16475D01*
X34312Y16467D01*
X34335Y16447D01*
X34358Y16428D01*
X34380Y16407D01*
X34401Y16386D01*
X36071Y14716D01*
X36092Y14695D01*
X36113Y14673D01*
X36132Y14650D01*
X36152Y14627D01*
X36170Y14604D01*
X36188Y14580D01*
X36206Y14556D01*
X36222Y14531D01*
X36232Y14516D01*
X36239Y14506D01*
X36254Y14480D01*
X36269Y14454D01*
X36278Y14437D01*
X36283Y14428D01*
X36290Y14414D01*
X36297Y14401D01*
X36303Y14387D01*
X36310Y14374D01*
X36315Y14362D01*
X36322Y14347D01*
X36328Y14330D01*
X36333Y14319D01*
X36344Y14291D01*
X36354Y14263D01*
X36357Y14254D01*
X36363Y14234D01*
X36369Y14214D01*
X36372Y14206D01*
X36380Y14177D01*
X36387Y14148D01*
X36392Y14125D01*
X36393Y14119D01*
X36399Y14089D01*
X36404Y14060D01*
X36404Y14056D01*
X36408Y14030D01*
X36411Y14004D01*
X36411Y14000D01*
X36414Y13971D01*
X36416Y13941D01*
X36417Y13911D01*
X36417Y13881D01*
Y4134D01*
X36417Y4104D01*
X36416Y4074D01*
X36414Y4044D01*
X36411Y4014D01*
X36408Y3985D01*
X36404Y3955D01*
X36399Y3925D01*
X36393Y3896D01*
X36387Y3867D01*
X36380Y3838D01*
X36372Y3809D01*
X36363Y3780D01*
X36354Y3752D01*
X36344Y3724D01*
X36333Y3696D01*
X36322Y3668D01*
X36310Y3641D01*
X36297Y3614D01*
X36283Y3587D01*
X36269Y3561D01*
X36254Y3535D01*
X36239Y3509D01*
X36222Y3484D01*
X36206Y3459D01*
X36188Y3435D01*
X36170Y3411D01*
X36152Y3387D01*
X36132Y3364D01*
X36113Y3342D01*
X36092Y3320D01*
X36071Y3299D01*
X36050Y3278D01*
X36028Y3257D01*
X36006Y3238D01*
X35983Y3218D01*
X35959Y3200D01*
X35935Y3182D01*
X35911Y3164D01*
X35886Y3148D01*
X35861Y3131D01*
X35835Y3116D01*
X35809Y3101D01*
X35783Y3087D01*
X35756Y3073D01*
X35729Y3061D01*
X35702Y3048D01*
X35674Y3037D01*
X35646Y3026D01*
X35618Y3016D01*
X35590Y3007D01*
X35561Y2998D01*
X35532Y2990D01*
X35503Y2983D01*
X35474Y2977D01*
X35445Y2971D01*
X35415Y2966D01*
X35385Y2962D01*
X35356Y2959D01*
X35326Y2956D01*
X35296Y2954D01*
X35266Y2953D01*
X35236Y2953D01*
X25489D01*
X25459Y2953D01*
X25429Y2954D01*
X25400Y2956D01*
X25370Y2959D01*
X25366Y2959D01*
X25340Y2962D01*
X25326Y2964D01*
X25310Y2966D01*
X25281Y2971D01*
X25251Y2977D01*
X25222Y2983D01*
X25193Y2990D01*
X25164Y2998D01*
X25136Y3007D01*
X25107Y3016D01*
X25079Y3026D01*
X25051Y3037D01*
X25040Y3042D01*
X25023Y3048D01*
X24996Y3061D01*
X24969Y3073D01*
X24942Y3087D01*
X24916Y3101D01*
X24890Y3116D01*
X24864Y3131D01*
X24839Y3148D01*
X24814Y3164D01*
X24790Y3182D01*
X24766Y3200D01*
X24756Y3208D01*
X24743Y3218D01*
X24720Y3238D01*
X24697Y3257D01*
X24696Y3259D01*
X24675Y3278D01*
X24665Y3288D01*
X24654Y3299D01*
X22984Y4969D01*
X22963Y4990D01*
X22942Y5012D01*
X22923Y5035D01*
X22920Y5039D01*
X22903Y5058D01*
X22895Y5068D01*
X22885Y5081D01*
X22875Y5095D01*
X22867Y5105D01*
X22854Y5122D01*
X22849Y5129D01*
X22844Y5137D01*
X22833Y5154D01*
X22826Y5164D01*
X22816Y5179D01*
X22801Y5205D01*
X22795Y5216D01*
X22786Y5231D01*
X22781Y5240D01*
X22772Y5257D01*
X22763Y5275D01*
X22758Y5284D01*
X22752Y5297D01*
X22746Y5311D01*
X22733Y5338D01*
X22722Y5366D01*
X22711Y5394D01*
X22708Y5404D01*
X22701Y5422D01*
X22695Y5441D01*
X22692Y5451D01*
X22689Y5459D01*
X22683Y5479D01*
X22678Y5500D01*
X22675Y5508D01*
X22668Y5537D01*
X22667Y5544D01*
X22662Y5566D01*
X22656Y5596D01*
X22651Y5625D01*
X22647Y5655D01*
X22644Y5685D01*
X22641Y5714D01*
X22639Y5744D01*
X22638Y5774D01*
X22638Y5804D01*
Y15551D01*
X22638Y15581D01*
X22639Y15611D01*
X22641Y15641D01*
X22644Y15671D01*
X22647Y15700D01*
X22651Y15730D01*
X22656Y15760D01*
X22662Y15789D01*
X22668Y15818D01*
X22675Y15847D01*
X22683Y15876D01*
X22692Y15905D01*
X22701Y15933D01*
X22711Y15961D01*
X22722Y15989D01*
X22733Y16017D01*
X22746Y16044D01*
X22758Y16071D01*
X22772Y16098D01*
X22786Y16124D01*
X22801Y16150D01*
X22816Y16176D01*
X22833Y16201D01*
X22849Y16226D01*
X22867Y16250D01*
X22885Y16274D01*
X22903Y16298D01*
X22923Y16321D01*
X22942Y16343D01*
X22963Y16365D01*
X22984Y16386D01*
X23005Y16407D01*
X23027Y16428D01*
X23049Y16447D01*
X23072Y16467D01*
X23096Y16485D01*
X23120Y16503D01*
X23144Y16521D01*
X23169Y16537D01*
X23194Y16554D01*
X23220Y16569D01*
X23246Y16584D01*
X23272Y16598D01*
X23299Y16612D01*
X23326Y16624D01*
X23353Y16637D01*
X23381Y16648D01*
X23409Y16659D01*
X23437Y16669D01*
X23465Y16678D01*
X23494Y16687D01*
X23523Y16695D01*
X23552Y16702D01*
X23581Y16708D01*
X23611Y16714D01*
X23640Y16719D01*
X23670Y16723D01*
X23699Y16726D01*
X23729Y16729D01*
X23759Y16731D01*
X23789Y16732D01*
X23819Y16732D01*
X33566D01*
X33596Y16732D01*
D02*
G37*
G36*
X13911Y56102D02*
X13941Y56101D01*
X13971Y56099D01*
X14000Y56096D01*
X14004Y56096D01*
X14030Y56093D01*
X14044Y56091D01*
X14060Y56089D01*
X14089Y56084D01*
X14119Y56078D01*
X14148Y56072D01*
X14177Y56065D01*
X14206Y56057D01*
X14234Y56048D01*
X14263Y56039D01*
X14291Y56029D01*
X14319Y56018D01*
X14330Y56013D01*
X14347Y56007D01*
X14374Y55995D01*
X14401Y55982D01*
X14428Y55968D01*
X14454Y55954D01*
X14480Y55939D01*
X14506Y55924D01*
X14531Y55908D01*
X14556Y55891D01*
X14580Y55873D01*
X14604Y55855D01*
X14614Y55847D01*
X14627Y55837D01*
X14650Y55817D01*
X14673Y55798D01*
X14674Y55796D01*
X14695Y55777D01*
X14705Y55767D01*
X14716Y55756D01*
X16386Y54086D01*
X16407Y54065D01*
X16428Y54043D01*
X16447Y54020D01*
X16451Y54017D01*
X16467Y53997D01*
X16475Y53987D01*
X16485Y53974D01*
X16496Y53960D01*
X16503Y53950D01*
X16516Y53933D01*
X16521Y53926D01*
X16526Y53918D01*
X16537Y53901D01*
X16544Y53891D01*
X16554Y53876D01*
X16569Y53850D01*
X16575Y53839D01*
X16584Y53824D01*
X16589Y53815D01*
X16598Y53798D01*
X16607Y53780D01*
X16612Y53771D01*
X16618Y53758D01*
X16624Y53744D01*
X16637Y53717D01*
X16648Y53689D01*
X16659Y53661D01*
X16662Y53651D01*
X16669Y53633D01*
X16675Y53614D01*
X16678Y53605D01*
X16681Y53596D01*
X16687Y53576D01*
X16693Y53555D01*
X16695Y53547D01*
X16702Y53518D01*
X16703Y53512D01*
X16708Y53489D01*
X16714Y53459D01*
X16719Y53430D01*
X16723Y53400D01*
X16726Y53370D01*
X16729Y53341D01*
X16731Y53311D01*
X16732Y53281D01*
X16732Y53251D01*
Y43504D01*
X16732Y43474D01*
X16731Y43444D01*
X16729Y43414D01*
X16726Y43384D01*
X16723Y43355D01*
X16719Y43325D01*
X16714Y43296D01*
X16708Y43266D01*
X16702Y43237D01*
X16695Y43208D01*
X16687Y43179D01*
X16678Y43150D01*
X16669Y43122D01*
X16659Y43094D01*
X16648Y43066D01*
X16637Y43038D01*
X16624Y43011D01*
X16612Y42984D01*
X16598Y42957D01*
X16584Y42931D01*
X16569Y42905D01*
X16554Y42879D01*
X16537Y42854D01*
X16521Y42829D01*
X16503Y42805D01*
X16485Y42781D01*
X16467Y42757D01*
X16447Y42735D01*
X16428Y42712D01*
X16407Y42690D01*
X16386Y42669D01*
X16365Y42648D01*
X16343Y42627D01*
X16321Y42608D01*
X16298Y42588D01*
X16274Y42570D01*
X16250Y42552D01*
X16226Y42534D01*
X16201Y42518D01*
X16176Y42502D01*
X16150Y42486D01*
X16124Y42471D01*
X16098Y42457D01*
X16071Y42443D01*
X16044Y42431D01*
X16017Y42418D01*
X15989Y42407D01*
X15961Y42396D01*
X15933Y42386D01*
X15905Y42377D01*
X15876Y42368D01*
X15847Y42360D01*
X15818Y42353D01*
X15789Y42347D01*
X15760Y42341D01*
X15730Y42336D01*
X15700Y42332D01*
X15671Y42329D01*
X15641Y42326D01*
X15611Y42324D01*
X15581Y42323D01*
X15551Y42323D01*
X5804D01*
X5774Y42323D01*
X5744Y42324D01*
X5714Y42326D01*
X5712Y42326D01*
X5685Y42329D01*
X5655Y42332D01*
X5625Y42336D01*
X5596Y42341D01*
X5566Y42347D01*
X5544Y42352D01*
X5537Y42353D01*
X5508Y42360D01*
X5500Y42363D01*
X5479Y42368D01*
X5459Y42374D01*
X5451Y42377D01*
X5441Y42380D01*
X5422Y42386D01*
X5404Y42393D01*
X5394Y42396D01*
X5366Y42407D01*
X5338Y42418D01*
X5311Y42431D01*
X5297Y42437D01*
X5284Y42443D01*
X5275Y42448D01*
X5257Y42457D01*
X5240Y42466D01*
X5231Y42471D01*
X5216Y42480D01*
X5205Y42486D01*
X5179Y42502D01*
X5164Y42511D01*
X5154Y42518D01*
X5129Y42534D01*
X5105Y42552D01*
X5095Y42560D01*
X5081Y42570D01*
X5068Y42580D01*
X5058Y42588D01*
X5035Y42608D01*
X5012Y42627D01*
X4990Y42648D01*
X4969Y42669D01*
X3299Y44339D01*
X3278Y44360D01*
X3257Y44382D01*
X3238Y44405D01*
X3218Y44428D01*
X3200Y44451D01*
X3182Y44475D01*
X3164Y44499D01*
X3148Y44524D01*
X3138Y44540D01*
X3131Y44549D01*
X3116Y44575D01*
X3101Y44601D01*
X3092Y44618D01*
X3087Y44627D01*
X3080Y44641D01*
X3073Y44654D01*
X3067Y44668D01*
X3061Y44681D01*
X3055Y44693D01*
X3048Y44708D01*
X3042Y44725D01*
X3037Y44736D01*
X3026Y44764D01*
X3016Y44792D01*
X3013Y44802D01*
X3007Y44821D01*
X3001Y44841D01*
X2998Y44849D01*
X2990Y44878D01*
X2983Y44907D01*
X2978Y44930D01*
X2977Y44936D01*
X2971Y44966D01*
X2966Y44995D01*
X2966Y45000D01*
X2962Y45025D01*
X2959Y45051D01*
X2959Y45055D01*
X2956Y45085D01*
X2954Y45114D01*
X2953Y45144D01*
X2953Y45174D01*
Y54921D01*
X2953Y54951D01*
X2954Y54981D01*
X2956Y55011D01*
X2959Y55041D01*
X2962Y55070D01*
X2966Y55100D01*
X2971Y55130D01*
X2977Y55159D01*
X2983Y55188D01*
X2990Y55217D01*
X2998Y55246D01*
X3007Y55275D01*
X3016Y55303D01*
X3026Y55332D01*
X3037Y55359D01*
X3048Y55387D01*
X3061Y55414D01*
X3073Y55441D01*
X3087Y55468D01*
X3101Y55494D01*
X3116Y55520D01*
X3131Y55546D01*
X3148Y55571D01*
X3164Y55596D01*
X3182Y55620D01*
X3200Y55644D01*
X3218Y55668D01*
X3238Y55691D01*
X3257Y55713D01*
X3278Y55735D01*
X3299Y55756D01*
X3320Y55777D01*
X3342Y55798D01*
X3364Y55817D01*
X3387Y55837D01*
X3411Y55855D01*
X3435Y55873D01*
X3459Y55891D01*
X3484Y55908D01*
X3509Y55924D01*
X3535Y55939D01*
X3561Y55954D01*
X3587Y55968D01*
X3614Y55982D01*
X3641Y55995D01*
X3668Y56007D01*
X3696Y56018D01*
X3724Y56029D01*
X3752Y56039D01*
X3780Y56048D01*
X3809Y56057D01*
X3838Y56065D01*
X3867Y56072D01*
X3896Y56078D01*
X3925Y56084D01*
X3955Y56089D01*
X3985Y56093D01*
X4014Y56096D01*
X4044Y56099D01*
X4074Y56101D01*
X4104Y56102D01*
X4134Y56102D01*
X13881D01*
X13911Y56102D01*
D02*
G37*
G36*
X13911Y75787D02*
X13941Y75786D01*
X13971Y75784D01*
X13973Y75784D01*
X14000Y75781D01*
X14030Y75778D01*
X14060Y75774D01*
X14089Y75769D01*
X14119Y75763D01*
X14141Y75758D01*
X14148Y75757D01*
X14177Y75750D01*
X14185Y75748D01*
X14206Y75742D01*
X14226Y75736D01*
X14234Y75733D01*
X14244Y75730D01*
X14263Y75724D01*
X14281Y75718D01*
X14291Y75714D01*
X14319Y75703D01*
X14347Y75692D01*
X14374Y75680D01*
X14388Y75673D01*
X14401Y75667D01*
X14410Y75662D01*
X14428Y75653D01*
X14445Y75644D01*
X14454Y75639D01*
X14469Y75631D01*
X14480Y75624D01*
X14506Y75609D01*
X14521Y75599D01*
X14531Y75593D01*
X14556Y75576D01*
X14580Y75558D01*
X14590Y75551D01*
X14604Y75540D01*
X14617Y75530D01*
X14627Y75522D01*
X14650Y75503D01*
X14673Y75483D01*
X14695Y75462D01*
X14716Y75442D01*
X16386Y73771D01*
X16407Y73750D01*
X16428Y73728D01*
X16447Y73705D01*
X16467Y73682D01*
X16485Y73659D01*
X16503Y73635D01*
X16521Y73611D01*
X16537Y73586D01*
X16547Y73571D01*
X16554Y73561D01*
X16569Y73535D01*
X16584Y73509D01*
X16593Y73492D01*
X16598Y73483D01*
X16605Y73469D01*
X16612Y73456D01*
X16618Y73442D01*
X16624Y73429D01*
X16630Y73417D01*
X16637Y73402D01*
X16643Y73386D01*
X16648Y73374D01*
X16659Y73346D01*
X16669Y73318D01*
X16672Y73309D01*
X16678Y73290D01*
X16684Y73270D01*
X16687Y73261D01*
X16695Y73232D01*
X16702Y73203D01*
X16707Y73180D01*
X16708Y73174D01*
X16714Y73144D01*
X16719Y73115D01*
X16719Y73111D01*
X16723Y73085D01*
X16726Y73059D01*
X16726Y73055D01*
X16729Y73026D01*
X16731Y72996D01*
X16732Y72966D01*
X16732Y72936D01*
Y63189D01*
X16732Y63159D01*
X16731Y63129D01*
X16729Y63099D01*
X16726Y63069D01*
X16723Y63040D01*
X16719Y63010D01*
X16714Y62981D01*
X16708Y62951D01*
X16702Y62922D01*
X16695Y62893D01*
X16687Y62864D01*
X16678Y62835D01*
X16669Y62807D01*
X16659Y62779D01*
X16648Y62751D01*
X16637Y62723D01*
X16624Y62696D01*
X16612Y62669D01*
X16598Y62642D01*
X16584Y62616D01*
X16569Y62590D01*
X16554Y62564D01*
X16537Y62539D01*
X16521Y62514D01*
X16503Y62490D01*
X16485Y62466D01*
X16467Y62443D01*
X16447Y62420D01*
X16428Y62397D01*
X16407Y62375D01*
X16386Y62354D01*
X16365Y62333D01*
X16343Y62313D01*
X16321Y62293D01*
X16298Y62274D01*
X16274Y62255D01*
X16250Y62237D01*
X16226Y62219D01*
X16201Y62203D01*
X16176Y62187D01*
X16150Y62171D01*
X16124Y62156D01*
X16098Y62142D01*
X16071Y62128D01*
X16044Y62116D01*
X16017Y62104D01*
X15989Y62092D01*
X15961Y62081D01*
X15933Y62071D01*
X15905Y62062D01*
X15876Y62053D01*
X15847Y62045D01*
X15818Y62038D01*
X15789Y62032D01*
X15760Y62026D01*
X15730Y62021D01*
X15700Y62017D01*
X15671Y62014D01*
X15641Y62011D01*
X15611Y62009D01*
X15581Y62008D01*
X15551Y62008D01*
X5804D01*
X5774Y62008D01*
X5744Y62009D01*
X5714Y62011D01*
X5685Y62014D01*
X5681Y62014D01*
X5655Y62017D01*
X5641Y62019D01*
X5625Y62021D01*
X5596Y62026D01*
X5566Y62032D01*
X5537Y62038D01*
X5508Y62045D01*
X5479Y62053D01*
X5451Y62062D01*
X5422Y62071D01*
X5394Y62081D01*
X5366Y62092D01*
X5355Y62097D01*
X5338Y62104D01*
X5311Y62116D01*
X5284Y62128D01*
X5257Y62142D01*
X5231Y62156D01*
X5205Y62171D01*
X5179Y62187D01*
X5154Y62203D01*
X5129Y62219D01*
X5105Y62237D01*
X5081Y62255D01*
X5071Y62263D01*
X5058Y62274D01*
X5035Y62293D01*
X5012Y62313D01*
X5011Y62314D01*
X4990Y62333D01*
X4980Y62343D01*
X4969Y62354D01*
X3299Y64024D01*
X3278Y64046D01*
X3257Y64067D01*
X3238Y64090D01*
X3234Y64094D01*
X3218Y64113D01*
X3210Y64123D01*
X3200Y64136D01*
X3190Y64150D01*
X3182Y64160D01*
X3169Y64178D01*
X3164Y64185D01*
X3159Y64193D01*
X3148Y64209D01*
X3141Y64219D01*
X3131Y64234D01*
X3116Y64260D01*
X3110Y64271D01*
X3101Y64286D01*
X3096Y64295D01*
X3087Y64312D01*
X3078Y64330D01*
X3073Y64339D01*
X3067Y64352D01*
X3061Y64366D01*
X3048Y64394D01*
X3037Y64421D01*
X3026Y64449D01*
X3023Y64459D01*
X3016Y64477D01*
X3010Y64496D01*
X3007Y64506D01*
X3004Y64514D01*
X2998Y64534D01*
X2993Y64555D01*
X2990Y64563D01*
X2983Y64592D01*
X2982Y64599D01*
X2977Y64622D01*
X2971Y64651D01*
X2966Y64680D01*
X2962Y64710D01*
X2959Y64740D01*
X2956Y64770D01*
X2954Y64799D01*
X2953Y64829D01*
X2953Y64859D01*
Y74606D01*
X2953Y74636D01*
X2954Y74666D01*
X2956Y74696D01*
X2959Y74726D01*
X2962Y74756D01*
X2966Y74785D01*
X2971Y74815D01*
X2977Y74844D01*
X2983Y74873D01*
X2990Y74902D01*
X2998Y74931D01*
X3007Y74960D01*
X3016Y74988D01*
X3026Y75017D01*
X3037Y75044D01*
X3048Y75072D01*
X3061Y75099D01*
X3073Y75126D01*
X3087Y75153D01*
X3101Y75180D01*
X3116Y75206D01*
X3131Y75231D01*
X3148Y75256D01*
X3164Y75281D01*
X3182Y75305D01*
X3200Y75329D01*
X3218Y75353D01*
X3238Y75376D01*
X3257Y75398D01*
X3278Y75420D01*
X3299Y75442D01*
X3320Y75462D01*
X3342Y75483D01*
X3364Y75503D01*
X3387Y75522D01*
X3411Y75540D01*
X3435Y75558D01*
X3459Y75576D01*
X3484Y75593D01*
X3509Y75609D01*
X3535Y75624D01*
X3561Y75639D01*
X3587Y75653D01*
X3614Y75667D01*
X3641Y75680D01*
X3668Y75692D01*
X3696Y75703D01*
X3724Y75714D01*
X3752Y75724D01*
X3780Y75733D01*
X3809Y75742D01*
X3838Y75750D01*
X3867Y75757D01*
X3896Y75763D01*
X3925Y75769D01*
X3955Y75774D01*
X3985Y75778D01*
X4014Y75781D01*
X4044Y75784D01*
X4074Y75786D01*
X4104Y75787D01*
X4134Y75788D01*
X13881D01*
X13911Y75787D01*
D02*
G37*
G36*
X33596Y75787D02*
X33626Y75786D01*
X33656Y75784D01*
X33658Y75784D01*
X33685Y75781D01*
X33715Y75778D01*
X33745Y75774D01*
X33774Y75769D01*
X33804Y75763D01*
X33826Y75758D01*
X33833Y75757D01*
X33862Y75750D01*
X33870Y75748D01*
X33891Y75742D01*
X33911Y75736D01*
X33919Y75733D01*
X33929Y75730D01*
X33948Y75724D01*
X33966Y75718D01*
X33976Y75714D01*
X34004Y75703D01*
X34032Y75692D01*
X34059Y75680D01*
X34073Y75673D01*
X34086Y75667D01*
X34095Y75662D01*
X34113Y75653D01*
X34130Y75644D01*
X34139Y75639D01*
X34154Y75631D01*
X34165Y75624D01*
X34191Y75609D01*
X34206Y75599D01*
X34216Y75593D01*
X34241Y75576D01*
X34265Y75558D01*
X34275Y75551D01*
X34289Y75540D01*
X34302Y75530D01*
X34312Y75522D01*
X34335Y75503D01*
X34358Y75483D01*
X34380Y75462D01*
X34401Y75442D01*
X36071Y73771D01*
X36092Y73750D01*
X36113Y73728D01*
X36132Y73705D01*
X36152Y73682D01*
X36170Y73659D01*
X36188Y73635D01*
X36206Y73611D01*
X36222Y73586D01*
X36232Y73571D01*
X36239Y73561D01*
X36254Y73535D01*
X36269Y73509D01*
X36278Y73492D01*
X36283Y73483D01*
X36290Y73469D01*
X36297Y73456D01*
X36303Y73442D01*
X36310Y73429D01*
X36315Y73417D01*
X36322Y73402D01*
X36328Y73386D01*
X36333Y73374D01*
X36344Y73346D01*
X36354Y73318D01*
X36357Y73309D01*
X36363Y73290D01*
X36369Y73270D01*
X36372Y73261D01*
X36380Y73232D01*
X36387Y73203D01*
X36392Y73180D01*
X36393Y73174D01*
X36399Y73144D01*
X36404Y73115D01*
X36404Y73111D01*
X36408Y73085D01*
X36411Y73059D01*
X36411Y73055D01*
X36414Y73026D01*
X36416Y72996D01*
X36417Y72966D01*
X36417Y72936D01*
Y63189D01*
X36417Y63159D01*
X36416Y63129D01*
X36414Y63099D01*
X36411Y63069D01*
X36408Y63040D01*
X36404Y63010D01*
X36399Y62981D01*
X36393Y62951D01*
X36387Y62922D01*
X36380Y62893D01*
X36372Y62864D01*
X36363Y62835D01*
X36354Y62807D01*
X36344Y62779D01*
X36333Y62751D01*
X36322Y62723D01*
X36310Y62696D01*
X36297Y62669D01*
X36283Y62642D01*
X36269Y62616D01*
X36254Y62590D01*
X36239Y62564D01*
X36222Y62539D01*
X36206Y62514D01*
X36188Y62490D01*
X36170Y62466D01*
X36152Y62443D01*
X36132Y62420D01*
X36113Y62397D01*
X36092Y62375D01*
X36071Y62354D01*
X36050Y62333D01*
X36028Y62313D01*
X36006Y62293D01*
X35983Y62274D01*
X35959Y62255D01*
X35935Y62237D01*
X35911Y62219D01*
X35886Y62203D01*
X35861Y62187D01*
X35835Y62171D01*
X35809Y62156D01*
X35783Y62142D01*
X35756Y62128D01*
X35729Y62116D01*
X35702Y62104D01*
X35674Y62092D01*
X35646Y62081D01*
X35618Y62071D01*
X35590Y62062D01*
X35561Y62053D01*
X35532Y62045D01*
X35503Y62038D01*
X35474Y62032D01*
X35445Y62026D01*
X35415Y62021D01*
X35385Y62017D01*
X35356Y62014D01*
X35326Y62011D01*
X35296Y62009D01*
X35266Y62008D01*
X35236Y62008D01*
X25489D01*
X25459Y62008D01*
X25429Y62009D01*
X25400Y62011D01*
X25370Y62014D01*
X25366Y62014D01*
X25340Y62017D01*
X25326Y62019D01*
X25310Y62021D01*
X25281Y62026D01*
X25251Y62032D01*
X25222Y62038D01*
X25193Y62045D01*
X25164Y62053D01*
X25136Y62062D01*
X25107Y62071D01*
X25079Y62081D01*
X25051Y62092D01*
X25040Y62097D01*
X25023Y62104D01*
X24996Y62116D01*
X24969Y62128D01*
X24942Y62142D01*
X24916Y62156D01*
X24890Y62171D01*
X24864Y62187D01*
X24839Y62203D01*
X24814Y62219D01*
X24790Y62237D01*
X24766Y62255D01*
X24756Y62263D01*
X24743Y62274D01*
X24720Y62293D01*
X24697Y62313D01*
X24696Y62314D01*
X24675Y62333D01*
X24665Y62343D01*
X24654Y62354D01*
X22984Y64024D01*
X22963Y64046D01*
X22942Y64067D01*
X22923Y64090D01*
X22920Y64094D01*
X22903Y64113D01*
X22895Y64123D01*
X22885Y64136D01*
X22875Y64150D01*
X22867Y64160D01*
X22854Y64178D01*
X22849Y64185D01*
X22844Y64193D01*
X22833Y64209D01*
X22826Y64219D01*
X22816Y64234D01*
X22801Y64260D01*
X22795Y64271D01*
X22786Y64286D01*
X22781Y64295D01*
X22772Y64312D01*
X22763Y64330D01*
X22758Y64339D01*
X22752Y64352D01*
X22746Y64366D01*
X22733Y64394D01*
X22722Y64421D01*
X22711Y64449D01*
X22708Y64459D01*
X22701Y64477D01*
X22695Y64496D01*
X22692Y64506D01*
X22689Y64514D01*
X22683Y64534D01*
X22678Y64555D01*
X22675Y64563D01*
X22668Y64592D01*
X22667Y64599D01*
X22662Y64622D01*
X22656Y64651D01*
X22651Y64680D01*
X22647Y64710D01*
X22644Y64740D01*
X22641Y64770D01*
X22639Y64799D01*
X22638Y64829D01*
X22638Y64859D01*
Y74606D01*
X22638Y74636D01*
X22639Y74666D01*
X22641Y74696D01*
X22644Y74726D01*
X22647Y74756D01*
X22651Y74785D01*
X22656Y74815D01*
X22662Y74844D01*
X22668Y74873D01*
X22675Y74902D01*
X22683Y74931D01*
X22692Y74960D01*
X22701Y74988D01*
X22711Y75017D01*
X22722Y75044D01*
X22733Y75072D01*
X22746Y75099D01*
X22758Y75126D01*
X22772Y75153D01*
X22786Y75180D01*
X22801Y75206D01*
X22816Y75231D01*
X22833Y75256D01*
X22849Y75281D01*
X22867Y75305D01*
X22885Y75329D01*
X22903Y75353D01*
X22923Y75376D01*
X22942Y75398D01*
X22963Y75420D01*
X22984Y75442D01*
X23005Y75462D01*
X23027Y75483D01*
X23049Y75503D01*
X23072Y75522D01*
X23096Y75540D01*
X23120Y75558D01*
X23144Y75576D01*
X23169Y75593D01*
X23194Y75609D01*
X23220Y75624D01*
X23246Y75639D01*
X23272Y75653D01*
X23299Y75667D01*
X23326Y75680D01*
X23353Y75692D01*
X23381Y75703D01*
X23409Y75714D01*
X23437Y75724D01*
X23465Y75733D01*
X23494Y75742D01*
X23523Y75750D01*
X23552Y75757D01*
X23581Y75763D01*
X23611Y75769D01*
X23640Y75774D01*
X23670Y75778D01*
X23699Y75781D01*
X23729Y75784D01*
X23759Y75786D01*
X23789Y75787D01*
X23819Y75788D01*
X33566D01*
X33596Y75787D01*
D02*
G37*
G36*
X53281Y16732D02*
X53311Y16731D01*
X53341Y16729D01*
X53343Y16729D01*
X53370Y16726D01*
X53400Y16723D01*
X53430Y16719D01*
X53459Y16714D01*
X53489Y16708D01*
X53512Y16703D01*
X53518Y16702D01*
X53547Y16695D01*
X53555Y16693D01*
X53576Y16687D01*
X53596Y16681D01*
X53605Y16678D01*
X53614Y16675D01*
X53633Y16669D01*
X53651Y16662D01*
X53661Y16659D01*
X53689Y16648D01*
X53717Y16637D01*
X53744Y16624D01*
X53758Y16618D01*
X53771Y16612D01*
X53780Y16607D01*
X53798Y16598D01*
X53815Y16589D01*
X53824Y16584D01*
X53839Y16575D01*
X53850Y16569D01*
X53876Y16554D01*
X53891Y16544D01*
X53901Y16537D01*
X53926Y16521D01*
X53950Y16503D01*
X53960Y16496D01*
X53974Y16485D01*
X53987Y16475D01*
X53997Y16467D01*
X54020Y16447D01*
X54043Y16428D01*
X54065Y16407D01*
X54086Y16386D01*
X55756Y14716D01*
X55777Y14695D01*
X55798Y14673D01*
X55818Y14650D01*
X55837Y14627D01*
X55855Y14604D01*
X55873Y14580D01*
X55891Y14556D01*
X55908Y14531D01*
X55917Y14516D01*
X55924Y14506D01*
X55939Y14480D01*
X55954Y14454D01*
X55963Y14437D01*
X55968Y14428D01*
X55975Y14414D01*
X55982Y14401D01*
X55988Y14387D01*
X55995Y14374D01*
X56000Y14362D01*
X56007Y14347D01*
X56013Y14330D01*
X56018Y14319D01*
X56029Y14291D01*
X56039Y14263D01*
X56042Y14254D01*
X56048Y14234D01*
X56054Y14214D01*
X56057Y14206D01*
X56065Y14177D01*
X56072Y14148D01*
X56077Y14125D01*
X56078Y14119D01*
X56084Y14089D01*
X56089Y14060D01*
X56089Y14056D01*
X56093Y14030D01*
X56096Y14004D01*
X56096Y14000D01*
X56099Y13971D01*
X56101Y13941D01*
X56102Y13911D01*
X56102Y13881D01*
Y4134D01*
X56102Y4104D01*
X56101Y4074D01*
X56099Y4044D01*
X56096Y4014D01*
X56093Y3985D01*
X56089Y3955D01*
X56084Y3925D01*
X56078Y3896D01*
X56072Y3867D01*
X56065Y3838D01*
X56057Y3809D01*
X56048Y3780D01*
X56039Y3752D01*
X56029Y3724D01*
X56018Y3696D01*
X56007Y3668D01*
X55995Y3641D01*
X55982Y3614D01*
X55968Y3587D01*
X55954Y3561D01*
X55939Y3535D01*
X55924Y3509D01*
X55908Y3484D01*
X55891Y3459D01*
X55873Y3435D01*
X55855Y3411D01*
X55837Y3387D01*
X55817Y3364D01*
X55798Y3342D01*
X55777Y3320D01*
X55756Y3299D01*
X55735Y3278D01*
X55713Y3257D01*
X55691Y3238D01*
X55668Y3218D01*
X55644Y3200D01*
X55620Y3182D01*
X55596Y3164D01*
X55571Y3148D01*
X55546Y3131D01*
X55520Y3116D01*
X55494Y3101D01*
X55468Y3087D01*
X55441Y3073D01*
X55414Y3061D01*
X55387Y3048D01*
X55359Y3037D01*
X55332Y3026D01*
X55303Y3016D01*
X55275Y3007D01*
X55246Y2998D01*
X55217Y2990D01*
X55188Y2983D01*
X55159Y2977D01*
X55130Y2971D01*
X55100Y2966D01*
X55070Y2962D01*
X55041Y2959D01*
X55011Y2956D01*
X54981Y2954D01*
X54951Y2953D01*
X54921Y2953D01*
X45174D01*
X45144Y2953D01*
X45114Y2954D01*
X45085Y2956D01*
X45055Y2959D01*
X45051Y2959D01*
X45025Y2962D01*
X45011Y2964D01*
X44995Y2966D01*
X44966Y2971D01*
X44936Y2977D01*
X44907Y2983D01*
X44878Y2990D01*
X44849Y2998D01*
X44821Y3007D01*
X44792Y3016D01*
X44764Y3026D01*
X44736Y3037D01*
X44725Y3042D01*
X44708Y3048D01*
X44681Y3061D01*
X44654Y3073D01*
X44627Y3087D01*
X44601Y3101D01*
X44575Y3116D01*
X44549Y3131D01*
X44524Y3148D01*
X44499Y3164D01*
X44475Y3182D01*
X44451Y3200D01*
X44441Y3208D01*
X44428Y3218D01*
X44405Y3238D01*
X44382Y3257D01*
X44381Y3259D01*
X44360Y3278D01*
X44350Y3288D01*
X44339Y3299D01*
X42669Y4969D01*
X42648Y4990D01*
X42627Y5012D01*
X42608Y5035D01*
X42605Y5039D01*
X42588Y5058D01*
X42580Y5068D01*
X42570Y5081D01*
X42560Y5095D01*
X42552Y5105D01*
X42539Y5122D01*
X42534Y5129D01*
X42529Y5137D01*
X42518Y5154D01*
X42511Y5164D01*
X42502Y5179D01*
X42486Y5205D01*
X42480Y5216D01*
X42471Y5231D01*
X42466Y5240D01*
X42457Y5257D01*
X42448Y5275D01*
X42443Y5284D01*
X42437Y5297D01*
X42431Y5311D01*
X42418Y5338D01*
X42407Y5366D01*
X42396Y5394D01*
X42393Y5404D01*
X42386Y5422D01*
X42380Y5441D01*
X42377Y5451D01*
X42374Y5459D01*
X42368Y5479D01*
X42363Y5500D01*
X42360Y5508D01*
X42353Y5537D01*
X42352Y5544D01*
X42347Y5566D01*
X42341Y5596D01*
X42336Y5625D01*
X42332Y5655D01*
X42329Y5685D01*
X42326Y5714D01*
X42324Y5744D01*
X42323Y5774D01*
X42323Y5804D01*
Y15551D01*
X42323Y15581D01*
X42324Y15611D01*
X42326Y15641D01*
X42329Y15671D01*
X42332Y15700D01*
X42336Y15730D01*
X42341Y15760D01*
X42347Y15789D01*
X42353Y15818D01*
X42360Y15847D01*
X42368Y15876D01*
X42377Y15905D01*
X42386Y15933D01*
X42396Y15961D01*
X42407Y15989D01*
X42418Y16017D01*
X42431Y16044D01*
X42443Y16071D01*
X42457Y16098D01*
X42471Y16124D01*
X42486Y16150D01*
X42502Y16176D01*
X42518Y16201D01*
X42534Y16226D01*
X42552Y16250D01*
X42570Y16274D01*
X42588Y16298D01*
X42608Y16321D01*
X42627Y16343D01*
X42648Y16365D01*
X42669Y16386D01*
X42690Y16407D01*
X42712Y16428D01*
X42735Y16447D01*
X42757Y16467D01*
X42781Y16485D01*
X42805Y16503D01*
X42829Y16521D01*
X42854Y16537D01*
X42879Y16554D01*
X42905Y16569D01*
X42931Y16584D01*
X42957Y16598D01*
X42984Y16612D01*
X43011Y16624D01*
X43038Y16637D01*
X43066Y16648D01*
X43094Y16659D01*
X43122Y16669D01*
X43150Y16678D01*
X43179Y16687D01*
X43208Y16695D01*
X43237Y16702D01*
X43266Y16708D01*
X43296Y16714D01*
X43325Y16719D01*
X43355Y16723D01*
X43384Y16726D01*
X43414Y16729D01*
X43444Y16731D01*
X43474Y16732D01*
X43504Y16732D01*
X53251D01*
X53281Y16732D01*
D02*
G37*
G36*
X72966Y16732D02*
X72996Y16731D01*
X73026Y16729D01*
X73028Y16729D01*
X73055Y16726D01*
X73085Y16723D01*
X73115Y16719D01*
X73144Y16714D01*
X73174Y16708D01*
X73197Y16703D01*
X73203Y16702D01*
X73232Y16695D01*
X73240Y16693D01*
X73261Y16687D01*
X73281Y16681D01*
X73290Y16678D01*
X73299Y16675D01*
X73318Y16669D01*
X73336Y16663D01*
X73346Y16659D01*
X73374Y16648D01*
X73402Y16637D01*
X73429Y16625D01*
X73443Y16618D01*
X73456Y16612D01*
X73465Y16607D01*
X73483Y16598D01*
X73500Y16589D01*
X73509Y16584D01*
X73524Y16576D01*
X73535Y16569D01*
X73561Y16554D01*
X73576Y16544D01*
X73586Y16538D01*
X73611Y16521D01*
X73635Y16503D01*
X73645Y16496D01*
X73659Y16485D01*
X73672Y16475D01*
X73682Y16467D01*
X73705Y16448D01*
X73728Y16428D01*
X73750Y16407D01*
X73771Y16387D01*
X75442Y14716D01*
X75462Y14695D01*
X75483Y14673D01*
X75503Y14650D01*
X75522Y14627D01*
X75540Y14604D01*
X75558Y14580D01*
X75576Y14556D01*
X75593Y14531D01*
X75602Y14516D01*
X75609Y14506D01*
X75624Y14480D01*
X75639Y14454D01*
X75648Y14437D01*
X75653Y14428D01*
X75660Y14414D01*
X75667Y14401D01*
X75674Y14387D01*
X75680Y14374D01*
X75685Y14362D01*
X75692Y14347D01*
X75698Y14331D01*
X75703Y14319D01*
X75714Y14291D01*
X75724Y14263D01*
X75727Y14254D01*
X75733Y14235D01*
X75739Y14215D01*
X75742Y14206D01*
X75750Y14177D01*
X75757Y14148D01*
X75762Y14125D01*
X75763Y14119D01*
X75769Y14089D01*
X75774Y14060D01*
X75774Y14056D01*
X75778Y14030D01*
X75781Y14004D01*
X75781Y14001D01*
X75784Y13971D01*
X75786Y13941D01*
X75787Y13911D01*
X75788Y13881D01*
Y4134D01*
X75787Y4104D01*
X75786Y4074D01*
X75784Y4044D01*
X75781Y4015D01*
X75778Y3985D01*
X75774Y3955D01*
X75769Y3926D01*
X75763Y3896D01*
X75757Y3867D01*
X75750Y3838D01*
X75742Y3809D01*
X75733Y3780D01*
X75724Y3752D01*
X75714Y3724D01*
X75703Y3696D01*
X75692Y3668D01*
X75680Y3641D01*
X75667Y3614D01*
X75653Y3587D01*
X75639Y3561D01*
X75624Y3535D01*
X75609Y3509D01*
X75593Y3484D01*
X75576Y3459D01*
X75558Y3435D01*
X75540Y3411D01*
X75522Y3388D01*
X75503Y3365D01*
X75483Y3342D01*
X75462Y3320D01*
X75442Y3299D01*
X75420Y3278D01*
X75398Y3258D01*
X75376Y3238D01*
X75353Y3219D01*
X75329Y3200D01*
X75305Y3182D01*
X75281Y3165D01*
X75256Y3148D01*
X75231Y3132D01*
X75206Y3116D01*
X75180Y3101D01*
X75153Y3087D01*
X75126Y3074D01*
X75099Y3061D01*
X75072Y3049D01*
X75044Y3037D01*
X75017Y3026D01*
X74988Y3016D01*
X74960Y3007D01*
X74931Y2998D01*
X74902Y2991D01*
X74873Y2983D01*
X74844Y2977D01*
X74815Y2971D01*
X74785Y2966D01*
X74756Y2962D01*
X74726Y2959D01*
X74696Y2956D01*
X74666Y2954D01*
X74636Y2953D01*
X74606Y2953D01*
X64859D01*
X64829Y2953D01*
X64799Y2954D01*
X64770Y2956D01*
X64740Y2959D01*
X64736Y2959D01*
X64710Y2962D01*
X64696Y2964D01*
X64680Y2966D01*
X64651Y2971D01*
X64622Y2977D01*
X64592Y2983D01*
X64563Y2991D01*
X64534Y2998D01*
X64506Y3007D01*
X64477Y3016D01*
X64449Y3026D01*
X64421Y3037D01*
X64410Y3042D01*
X64394Y3049D01*
X64366Y3061D01*
X64339Y3074D01*
X64312Y3087D01*
X64286Y3101D01*
X64260Y3116D01*
X64234Y3132D01*
X64209Y3148D01*
X64185Y3165D01*
X64160Y3182D01*
X64136Y3200D01*
X64126Y3208D01*
X64113Y3219D01*
X64090Y3238D01*
X64067Y3258D01*
X64066Y3259D01*
X64046Y3278D01*
X64035Y3288D01*
X64024Y3299D01*
X62354Y4969D01*
X62333Y4991D01*
X62313Y5012D01*
X62293Y5035D01*
X62290Y5039D01*
X62274Y5058D01*
X62265Y5068D01*
X62255Y5081D01*
X62245Y5095D01*
X62237Y5105D01*
X62224Y5123D01*
X62219Y5130D01*
X62214Y5138D01*
X62203Y5154D01*
X62196Y5164D01*
X62187Y5180D01*
X62171Y5205D01*
X62165Y5216D01*
X62156Y5231D01*
X62151Y5240D01*
X62142Y5257D01*
X62133Y5275D01*
X62128Y5284D01*
X62122Y5297D01*
X62116Y5311D01*
X62104Y5339D01*
X62092Y5366D01*
X62081Y5394D01*
X62078Y5404D01*
X62071Y5422D01*
X62065Y5441D01*
X62062Y5451D01*
X62059Y5459D01*
X62053Y5479D01*
X62048Y5500D01*
X62045Y5508D01*
X62038Y5537D01*
X62037Y5544D01*
X62032Y5567D01*
X62026Y5596D01*
X62021Y5625D01*
X62017Y5655D01*
X62014Y5685D01*
X62011Y5715D01*
X62009Y5745D01*
X62008Y5774D01*
X62008Y5804D01*
Y15551D01*
X62008Y15581D01*
X62009Y15611D01*
X62011Y15641D01*
X62014Y15671D01*
X62017Y15701D01*
X62021Y15730D01*
X62026Y15760D01*
X62032Y15789D01*
X62038Y15818D01*
X62045Y15847D01*
X62053Y15876D01*
X62062Y15905D01*
X62071Y15933D01*
X62081Y15962D01*
X62092Y15989D01*
X62104Y16017D01*
X62116Y16044D01*
X62128Y16072D01*
X62142Y16098D01*
X62156Y16125D01*
X62171Y16151D01*
X62187Y16176D01*
X62203Y16201D01*
X62219Y16226D01*
X62237Y16250D01*
X62255Y16274D01*
X62274Y16298D01*
X62293Y16321D01*
X62313Y16343D01*
X62333Y16365D01*
X62354Y16387D01*
X62375Y16407D01*
X62397Y16428D01*
X62420Y16448D01*
X62443Y16467D01*
X62466Y16485D01*
X62490Y16503D01*
X62514Y16521D01*
X62539Y16538D01*
X62564Y16554D01*
X62590Y16569D01*
X62616Y16584D01*
X62642Y16598D01*
X62669Y16612D01*
X62696Y16625D01*
X62723Y16637D01*
X62751Y16648D01*
X62779Y16659D01*
X62807Y16669D01*
X62835Y16678D01*
X62864Y16687D01*
X62893Y16695D01*
X62922Y16702D01*
X62951Y16708D01*
X62981Y16714D01*
X63010Y16719D01*
X63040Y16723D01*
X63069Y16726D01*
X63099Y16729D01*
X63129Y16731D01*
X63159Y16732D01*
X63189Y16733D01*
X72936D01*
X72966Y16732D01*
D02*
G37*
G36*
X72966Y36417D02*
X72996Y36416D01*
X73026Y36414D01*
X73055Y36411D01*
X73059Y36411D01*
X73085Y36408D01*
X73099Y36406D01*
X73115Y36403D01*
X73144Y36398D01*
X73174Y36393D01*
X73203Y36386D01*
X73232Y36379D01*
X73261Y36371D01*
X73290Y36363D01*
X73318Y36354D01*
X73346Y36344D01*
X73374Y36333D01*
X73386Y36328D01*
X73402Y36321D01*
X73429Y36309D01*
X73456Y36296D01*
X73483Y36283D01*
X73509Y36269D01*
X73535Y36254D01*
X73561Y36238D01*
X73586Y36222D01*
X73611Y36205D01*
X73635Y36188D01*
X73659Y36170D01*
X73669Y36162D01*
X73682Y36151D01*
X73705Y36132D01*
X73728Y36112D01*
X73729Y36111D01*
X73750Y36092D01*
X73760Y36082D01*
X73771Y36071D01*
X75442Y34401D01*
X75462Y34379D01*
X75483Y34357D01*
X75503Y34335D01*
X75506Y34331D01*
X75522Y34312D01*
X75530Y34302D01*
X75540Y34289D01*
X75551Y34275D01*
X75558Y34265D01*
X75571Y34247D01*
X75576Y34240D01*
X75581Y34232D01*
X75593Y34216D01*
X75599Y34206D01*
X75609Y34190D01*
X75624Y34165D01*
X75631Y34154D01*
X75639Y34139D01*
X75644Y34130D01*
X75653Y34112D01*
X75662Y34095D01*
X75667Y34086D01*
X75673Y34073D01*
X75680Y34059D01*
X75692Y34031D01*
X75703Y34004D01*
X75714Y33976D01*
X75718Y33966D01*
X75724Y33948D01*
X75730Y33928D01*
X75733Y33919D01*
X75736Y33911D01*
X75742Y33890D01*
X75748Y33869D01*
X75750Y33862D01*
X75757Y33832D01*
X75758Y33826D01*
X75763Y33803D01*
X75769Y33774D01*
X75774Y33744D01*
X75778Y33715D01*
X75781Y33685D01*
X75784Y33655D01*
X75786Y33625D01*
X75787Y33595D01*
X75788Y33565D01*
Y23819D01*
X75787Y23789D01*
X75786Y23759D01*
X75784Y23729D01*
X75781Y23699D01*
X75778Y23669D01*
X75774Y23640D01*
X75769Y23610D01*
X75763Y23581D01*
X75757Y23551D01*
X75750Y23522D01*
X75742Y23494D01*
X75733Y23465D01*
X75724Y23436D01*
X75714Y23408D01*
X75703Y23380D01*
X75692Y23353D01*
X75680Y23325D01*
X75667Y23298D01*
X75653Y23272D01*
X75639Y23245D01*
X75624Y23219D01*
X75609Y23194D01*
X75593Y23168D01*
X75576Y23144D01*
X75558Y23119D01*
X75540Y23095D01*
X75522Y23072D01*
X75503Y23049D01*
X75483Y23027D01*
X75462Y23005D01*
X75442Y22983D01*
X75420Y22962D01*
X75398Y22942D01*
X75376Y22922D01*
X75353Y22903D01*
X75329Y22884D01*
X75305Y22866D01*
X75281Y22849D01*
X75256Y22832D01*
X75231Y22816D01*
X75206Y22801D01*
X75180Y22786D01*
X75153Y22772D01*
X75126Y22758D01*
X75099Y22745D01*
X75072Y22733D01*
X75044Y22722D01*
X75017Y22711D01*
X74988Y22701D01*
X74960Y22691D01*
X74931Y22683D01*
X74902Y22675D01*
X74873Y22668D01*
X74844Y22661D01*
X74815Y22656D01*
X74785Y22651D01*
X74756Y22647D01*
X74726Y22643D01*
X74696Y22641D01*
X74666Y22639D01*
X74636Y22638D01*
X74606Y22637D01*
X64859D01*
X64829Y22638D01*
X64799Y22639D01*
X64770Y22641D01*
X64767Y22641D01*
X64740Y22643D01*
X64710Y22647D01*
X64680Y22651D01*
X64651Y22656D01*
X64622Y22661D01*
X64599Y22666D01*
X64592Y22668D01*
X64563Y22675D01*
X64555Y22677D01*
X64534Y22683D01*
X64514Y22689D01*
X64506Y22691D01*
X64496Y22695D01*
X64477Y22701D01*
X64459Y22707D01*
X64449Y22711D01*
X64421Y22722D01*
X64394Y22733D01*
X64366Y22745D01*
X64352Y22752D01*
X64339Y22758D01*
X64330Y22763D01*
X64312Y22772D01*
X64295Y22781D01*
X64286Y22786D01*
X64271Y22794D01*
X64260Y22801D01*
X64234Y22816D01*
X64219Y22826D01*
X64209Y22832D01*
X64185Y22849D01*
X64160Y22866D01*
X64150Y22874D01*
X64136Y22884D01*
X64123Y22895D01*
X64113Y22903D01*
X64090Y22922D01*
X64067Y22942D01*
X64046Y22962D01*
X64024Y22983D01*
X62354Y24654D01*
X62333Y24675D01*
X62313Y24697D01*
X62293Y24719D01*
X62274Y24742D01*
X62255Y24766D01*
X62237Y24790D01*
X62219Y24814D01*
X62203Y24839D01*
X62193Y24854D01*
X62187Y24864D01*
X62171Y24890D01*
X62156Y24916D01*
X62147Y24933D01*
X62142Y24942D01*
X62135Y24955D01*
X62128Y24969D01*
X62122Y24983D01*
X62116Y24996D01*
X62110Y25008D01*
X62104Y25023D01*
X62097Y25039D01*
X62092Y25051D01*
X62081Y25079D01*
X62071Y25107D01*
X62068Y25116D01*
X62062Y25135D01*
X62056Y25155D01*
X62053Y25164D01*
X62045Y25193D01*
X62038Y25222D01*
X62033Y25245D01*
X62032Y25251D01*
X62026Y25280D01*
X62021Y25310D01*
X62021Y25314D01*
X62017Y25340D01*
X62014Y25366D01*
X62014Y25369D01*
X62011Y25399D01*
X62009Y25429D01*
X62008Y25459D01*
X62008Y25489D01*
Y35236D01*
X62008Y35266D01*
X62009Y35296D01*
X62011Y35326D01*
X62014Y35355D01*
X62017Y35385D01*
X62021Y35415D01*
X62026Y35444D01*
X62032Y35474D01*
X62038Y35503D01*
X62045Y35532D01*
X62053Y35561D01*
X62062Y35589D01*
X62071Y35618D01*
X62081Y35646D01*
X62092Y35674D01*
X62104Y35702D01*
X62116Y35729D01*
X62128Y35756D01*
X62142Y35783D01*
X62156Y35809D01*
X62171Y35835D01*
X62187Y35861D01*
X62203Y35886D01*
X62219Y35911D01*
X62237Y35935D01*
X62255Y35959D01*
X62274Y35982D01*
X62293Y36005D01*
X62313Y36028D01*
X62333Y36050D01*
X62354Y36071D01*
X62375Y36092D01*
X62397Y36112D01*
X62420Y36132D01*
X62443Y36151D01*
X62466Y36170D01*
X62490Y36188D01*
X62514Y36205D01*
X62539Y36222D01*
X62564Y36238D01*
X62590Y36254D01*
X62616Y36269D01*
X62642Y36283D01*
X62669Y36296D01*
X62696Y36309D01*
X62723Y36321D01*
X62751Y36333D01*
X62779Y36344D01*
X62807Y36354D01*
X62835Y36363D01*
X62864Y36371D01*
X62893Y36379D01*
X62922Y36386D01*
X62951Y36393D01*
X62981Y36398D01*
X63010Y36403D01*
X63040Y36408D01*
X63069Y36411D01*
X63099Y36414D01*
X63129Y36416D01*
X63159Y36417D01*
X63189Y36417D01*
X72936D01*
X72966Y36417D01*
D02*
G37*
G36*
X53281Y75787D02*
X53311Y75786D01*
X53341Y75784D01*
X53343Y75784D01*
X53370Y75781D01*
X53400Y75778D01*
X53430Y75774D01*
X53459Y75769D01*
X53489Y75763D01*
X53512Y75758D01*
X53518Y75757D01*
X53547Y75750D01*
X53555Y75748D01*
X53576Y75742D01*
X53596Y75736D01*
X53605Y75733D01*
X53614Y75730D01*
X53633Y75724D01*
X53651Y75718D01*
X53661Y75714D01*
X53689Y75703D01*
X53717Y75692D01*
X53744Y75680D01*
X53758Y75673D01*
X53771Y75667D01*
X53780Y75662D01*
X53798Y75653D01*
X53815Y75644D01*
X53824Y75639D01*
X53839Y75631D01*
X53850Y75624D01*
X53876Y75609D01*
X53891Y75599D01*
X53901Y75593D01*
X53926Y75576D01*
X53950Y75558D01*
X53960Y75551D01*
X53974Y75540D01*
X53987Y75530D01*
X53997Y75522D01*
X54020Y75503D01*
X54043Y75483D01*
X54065Y75462D01*
X54086Y75442D01*
X55756Y73771D01*
X55777Y73750D01*
X55798Y73728D01*
X55817Y73705D01*
X55837Y73682D01*
X55855Y73659D01*
X55873Y73635D01*
X55891Y73611D01*
X55908Y73586D01*
X55917Y73571D01*
X55924Y73561D01*
X55939Y73535D01*
X55954Y73509D01*
X55963Y73492D01*
X55968Y73483D01*
X55975Y73469D01*
X55982Y73456D01*
X55988Y73442D01*
X55995Y73429D01*
X56000Y73417D01*
X56007Y73402D01*
X56013Y73386D01*
X56018Y73374D01*
X56029Y73346D01*
X56039Y73318D01*
X56042Y73309D01*
X56048Y73290D01*
X56054Y73270D01*
X56057Y73261D01*
X56065Y73232D01*
X56072Y73203D01*
X56077Y73180D01*
X56078Y73174D01*
X56084Y73144D01*
X56089Y73115D01*
X56089Y73111D01*
X56093Y73085D01*
X56096Y73059D01*
X56096Y73055D01*
X56099Y73026D01*
X56101Y72996D01*
X56102Y72966D01*
X56102Y72936D01*
Y63189D01*
X56102Y63159D01*
X56101Y63129D01*
X56099Y63099D01*
X56096Y63069D01*
X56093Y63040D01*
X56089Y63010D01*
X56084Y62981D01*
X56078Y62951D01*
X56072Y62922D01*
X56065Y62893D01*
X56057Y62864D01*
X56048Y62835D01*
X56039Y62807D01*
X56029Y62779D01*
X56018Y62751D01*
X56007Y62723D01*
X55995Y62696D01*
X55982Y62669D01*
X55968Y62642D01*
X55954Y62616D01*
X55939Y62590D01*
X55924Y62564D01*
X55908Y62539D01*
X55891Y62514D01*
X55873Y62490D01*
X55855Y62466D01*
X55837Y62443D01*
X55817Y62420D01*
X55798Y62397D01*
X55777Y62375D01*
X55756Y62354D01*
X55735Y62333D01*
X55713Y62313D01*
X55691Y62293D01*
X55668Y62274D01*
X55644Y62255D01*
X55620Y62237D01*
X55596Y62219D01*
X55571Y62203D01*
X55546Y62187D01*
X55520Y62171D01*
X55494Y62156D01*
X55468Y62142D01*
X55441Y62128D01*
X55414Y62116D01*
X55387Y62104D01*
X55359Y62092D01*
X55332Y62081D01*
X55303Y62071D01*
X55275Y62062D01*
X55246Y62053D01*
X55217Y62045D01*
X55188Y62038D01*
X55159Y62032D01*
X55130Y62026D01*
X55100Y62021D01*
X55070Y62017D01*
X55041Y62014D01*
X55011Y62011D01*
X54981Y62009D01*
X54951Y62008D01*
X54921Y62008D01*
X45174D01*
X45144Y62008D01*
X45114Y62009D01*
X45085Y62011D01*
X45055Y62014D01*
X45051Y62014D01*
X45025Y62017D01*
X45011Y62019D01*
X44995Y62021D01*
X44966Y62026D01*
X44936Y62032D01*
X44907Y62038D01*
X44878Y62045D01*
X44849Y62053D01*
X44821Y62062D01*
X44792Y62071D01*
X44764Y62081D01*
X44736Y62092D01*
X44725Y62097D01*
X44708Y62104D01*
X44681Y62116D01*
X44654Y62128D01*
X44627Y62142D01*
X44601Y62156D01*
X44575Y62171D01*
X44549Y62187D01*
X44524Y62203D01*
X44499Y62219D01*
X44475Y62237D01*
X44451Y62255D01*
X44441Y62263D01*
X44428Y62274D01*
X44405Y62293D01*
X44382Y62313D01*
X44381Y62314D01*
X44360Y62333D01*
X44350Y62343D01*
X44339Y62354D01*
X42669Y64024D01*
X42648Y64046D01*
X42627Y64067D01*
X42608Y64090D01*
X42605Y64094D01*
X42588Y64113D01*
X42580Y64123D01*
X42570Y64136D01*
X42560Y64150D01*
X42552Y64160D01*
X42539Y64178D01*
X42534Y64185D01*
X42529Y64193D01*
X42518Y64209D01*
X42511Y64219D01*
X42502Y64234D01*
X42486Y64260D01*
X42480Y64271D01*
X42471Y64286D01*
X42466Y64295D01*
X42457Y64312D01*
X42448Y64330D01*
X42443Y64339D01*
X42437Y64352D01*
X42431Y64366D01*
X42418Y64394D01*
X42407Y64421D01*
X42396Y64449D01*
X42393Y64459D01*
X42386Y64477D01*
X42380Y64496D01*
X42377Y64506D01*
X42374Y64514D01*
X42368Y64534D01*
X42363Y64555D01*
X42360Y64563D01*
X42353Y64592D01*
X42352Y64599D01*
X42347Y64622D01*
X42341Y64651D01*
X42336Y64680D01*
X42332Y64710D01*
X42329Y64740D01*
X42326Y64770D01*
X42324Y64799D01*
X42323Y64829D01*
X42323Y64859D01*
Y74606D01*
X42323Y74636D01*
X42324Y74666D01*
X42326Y74696D01*
X42329Y74726D01*
X42332Y74756D01*
X42336Y74785D01*
X42341Y74815D01*
X42347Y74844D01*
X42353Y74873D01*
X42360Y74902D01*
X42368Y74931D01*
X42377Y74960D01*
X42386Y74988D01*
X42396Y75017D01*
X42407Y75044D01*
X42418Y75072D01*
X42431Y75099D01*
X42443Y75126D01*
X42457Y75153D01*
X42471Y75180D01*
X42486Y75206D01*
X42502Y75231D01*
X42518Y75256D01*
X42534Y75281D01*
X42552Y75305D01*
X42570Y75329D01*
X42588Y75353D01*
X42608Y75376D01*
X42627Y75398D01*
X42648Y75420D01*
X42669Y75442D01*
X42690Y75462D01*
X42712Y75483D01*
X42735Y75503D01*
X42757Y75522D01*
X42781Y75540D01*
X42805Y75558D01*
X42829Y75576D01*
X42854Y75593D01*
X42879Y75609D01*
X42905Y75624D01*
X42931Y75639D01*
X42957Y75653D01*
X42984Y75667D01*
X43011Y75680D01*
X43038Y75692D01*
X43066Y75703D01*
X43094Y75714D01*
X43122Y75724D01*
X43150Y75733D01*
X43179Y75742D01*
X43208Y75750D01*
X43237Y75757D01*
X43266Y75763D01*
X43296Y75769D01*
X43325Y75774D01*
X43355Y75778D01*
X43384Y75781D01*
X43414Y75784D01*
X43444Y75786D01*
X43474Y75787D01*
X43504Y75788D01*
X53251D01*
X53281Y75787D01*
D02*
G37*
G36*
X72966D02*
X72996Y75786D01*
X73026Y75784D01*
X73028Y75784D01*
X73055Y75781D01*
X73085Y75778D01*
X73115Y75774D01*
X73144Y75769D01*
X73174Y75763D01*
X73197Y75758D01*
X73203Y75757D01*
X73232Y75750D01*
X73240Y75748D01*
X73261Y75742D01*
X73281Y75736D01*
X73290Y75733D01*
X73299Y75730D01*
X73318Y75724D01*
X73336Y75718D01*
X73346Y75714D01*
X73374Y75703D01*
X73402Y75692D01*
X73429Y75680D01*
X73443Y75673D01*
X73456Y75667D01*
X73465Y75662D01*
X73483Y75653D01*
X73500Y75644D01*
X73509Y75639D01*
X73524Y75631D01*
X73535Y75624D01*
X73561Y75609D01*
X73576Y75599D01*
X73586Y75593D01*
X73611Y75576D01*
X73635Y75558D01*
X73645Y75551D01*
X73659Y75540D01*
X73672Y75530D01*
X73682Y75522D01*
X73705Y75503D01*
X73728Y75483D01*
X73750Y75462D01*
X73771Y75442D01*
X75442Y73771D01*
X75462Y73750D01*
X75483Y73728D01*
X75503Y73705D01*
X75522Y73682D01*
X75540Y73659D01*
X75558Y73635D01*
X75576Y73611D01*
X75593Y73586D01*
X75602Y73571D01*
X75609Y73561D01*
X75624Y73535D01*
X75639Y73509D01*
X75648Y73492D01*
X75653Y73483D01*
X75660Y73469D01*
X75667Y73456D01*
X75674Y73442D01*
X75680Y73429D01*
X75685Y73417D01*
X75692Y73402D01*
X75698Y73386D01*
X75703Y73374D01*
X75714Y73346D01*
X75724Y73318D01*
X75727Y73309D01*
X75733Y73290D01*
X75739Y73270D01*
X75742Y73261D01*
X75750Y73232D01*
X75757Y73203D01*
X75762Y73180D01*
X75763Y73174D01*
X75769Y73144D01*
X75774Y73115D01*
X75774Y73111D01*
X75778Y73085D01*
X75781Y73059D01*
X75781Y73055D01*
X75784Y73026D01*
X75786Y72996D01*
X75787Y72966D01*
X75788Y72936D01*
Y63189D01*
X75787Y63159D01*
X75786Y63129D01*
X75784Y63099D01*
X75781Y63069D01*
X75778Y63040D01*
X75774Y63010D01*
X75769Y62981D01*
X75763Y62951D01*
X75757Y62922D01*
X75750Y62893D01*
X75742Y62864D01*
X75733Y62835D01*
X75724Y62807D01*
X75714Y62779D01*
X75703Y62751D01*
X75692Y62723D01*
X75680Y62696D01*
X75667Y62669D01*
X75653Y62642D01*
X75639Y62616D01*
X75624Y62590D01*
X75609Y62564D01*
X75593Y62539D01*
X75576Y62514D01*
X75558Y62490D01*
X75540Y62466D01*
X75522Y62443D01*
X75503Y62420D01*
X75483Y62397D01*
X75462Y62375D01*
X75442Y62354D01*
X75420Y62333D01*
X75398Y62313D01*
X75376Y62293D01*
X75353Y62274D01*
X75329Y62255D01*
X75305Y62237D01*
X75281Y62219D01*
X75256Y62203D01*
X75231Y62187D01*
X75206Y62171D01*
X75180Y62156D01*
X75153Y62142D01*
X75126Y62128D01*
X75099Y62116D01*
X75072Y62104D01*
X75044Y62092D01*
X75017Y62081D01*
X74988Y62071D01*
X74960Y62062D01*
X74931Y62053D01*
X74902Y62045D01*
X74873Y62038D01*
X74844Y62032D01*
X74815Y62026D01*
X74785Y62021D01*
X74756Y62017D01*
X74726Y62014D01*
X74696Y62011D01*
X74666Y62009D01*
X74636Y62008D01*
X74606Y62008D01*
X64859D01*
X64829Y62008D01*
X64799Y62009D01*
X64770Y62011D01*
X64740Y62014D01*
X64736Y62014D01*
X64710Y62017D01*
X64696Y62019D01*
X64680Y62021D01*
X64651Y62026D01*
X64622Y62032D01*
X64592Y62038D01*
X64563Y62045D01*
X64534Y62053D01*
X64506Y62062D01*
X64477Y62071D01*
X64449Y62081D01*
X64421Y62092D01*
X64410Y62097D01*
X64394Y62104D01*
X64366Y62116D01*
X64339Y62128D01*
X64312Y62142D01*
X64286Y62156D01*
X64260Y62171D01*
X64234Y62187D01*
X64209Y62203D01*
X64185Y62219D01*
X64160Y62237D01*
X64136Y62255D01*
X64126Y62263D01*
X64113Y62274D01*
X64090Y62293D01*
X64067Y62313D01*
X64066Y62314D01*
X64046Y62333D01*
X64035Y62343D01*
X64024Y62354D01*
X62354Y64024D01*
X62333Y64046D01*
X62313Y64067D01*
X62293Y64090D01*
X62290Y64094D01*
X62274Y64113D01*
X62265Y64123D01*
X62255Y64136D01*
X62245Y64150D01*
X62237Y64160D01*
X62224Y64178D01*
X62219Y64185D01*
X62214Y64193D01*
X62203Y64209D01*
X62196Y64219D01*
X62187Y64234D01*
X62171Y64260D01*
X62165Y64271D01*
X62156Y64286D01*
X62151Y64295D01*
X62142Y64312D01*
X62133Y64330D01*
X62128Y64339D01*
X62122Y64352D01*
X62116Y64366D01*
X62104Y64394D01*
X62092Y64421D01*
X62081Y64449D01*
X62078Y64459D01*
X62071Y64477D01*
X62065Y64496D01*
X62062Y64506D01*
X62059Y64514D01*
X62053Y64534D01*
X62048Y64555D01*
X62045Y64563D01*
X62038Y64592D01*
X62037Y64599D01*
X62032Y64622D01*
X62026Y64651D01*
X62021Y64680D01*
X62017Y64710D01*
X62014Y64740D01*
X62011Y64770D01*
X62009Y64799D01*
X62008Y64829D01*
X62008Y64859D01*
Y74606D01*
X62008Y74636D01*
X62009Y74666D01*
X62011Y74696D01*
X62014Y74726D01*
X62017Y74756D01*
X62021Y74785D01*
X62026Y74815D01*
X62032Y74844D01*
X62038Y74873D01*
X62045Y74902D01*
X62053Y74931D01*
X62062Y74960D01*
X62071Y74988D01*
X62081Y75017D01*
X62092Y75044D01*
X62104Y75072D01*
X62116Y75099D01*
X62128Y75126D01*
X62142Y75153D01*
X62156Y75180D01*
X62171Y75206D01*
X62187Y75231D01*
X62203Y75256D01*
X62219Y75281D01*
X62237Y75305D01*
X62255Y75329D01*
X62274Y75353D01*
X62293Y75376D01*
X62313Y75398D01*
X62333Y75420D01*
X62354Y75442D01*
X62375Y75462D01*
X62397Y75483D01*
X62420Y75503D01*
X62443Y75522D01*
X62466Y75540D01*
X62490Y75558D01*
X62514Y75576D01*
X62539Y75593D01*
X62564Y75609D01*
X62590Y75624D01*
X62616Y75639D01*
X62642Y75653D01*
X62669Y75667D01*
X62696Y75680D01*
X62723Y75692D01*
X62751Y75703D01*
X62779Y75714D01*
X62807Y75724D01*
X62835Y75733D01*
X62864Y75742D01*
X62893Y75750D01*
X62922Y75757D01*
X62951Y75763D01*
X62981Y75769D01*
X63010Y75774D01*
X63040Y75778D01*
X63069Y75781D01*
X63099Y75784D01*
X63129Y75786D01*
X63159Y75787D01*
X63189Y75788D01*
X72936D01*
X72966Y75787D01*
D02*
G37*
G36*
X72966Y56102D02*
X72996Y56101D01*
X73026Y56099D01*
X73055Y56096D01*
X73059Y56096D01*
X73085Y56093D01*
X73099Y56091D01*
X73115Y56089D01*
X73144Y56084D01*
X73174Y56078D01*
X73203Y56072D01*
X73232Y56065D01*
X73261Y56057D01*
X73290Y56048D01*
X73318Y56039D01*
X73346Y56029D01*
X73374Y56018D01*
X73386Y56013D01*
X73402Y56007D01*
X73429Y55995D01*
X73456Y55982D01*
X73483Y55968D01*
X73509Y55954D01*
X73535Y55939D01*
X73561Y55924D01*
X73586Y55908D01*
X73611Y55891D01*
X73635Y55873D01*
X73659Y55855D01*
X73669Y55847D01*
X73682Y55837D01*
X73705Y55817D01*
X73728Y55798D01*
X73729Y55796D01*
X73750Y55777D01*
X73760Y55767D01*
X73771Y55756D01*
X75442Y54086D01*
X75462Y54065D01*
X75483Y54043D01*
X75503Y54020D01*
X75506Y54017D01*
X75522Y53997D01*
X75530Y53987D01*
X75540Y53974D01*
X75551Y53960D01*
X75558Y53950D01*
X75571Y53933D01*
X75576Y53926D01*
X75581Y53918D01*
X75593Y53901D01*
X75599Y53891D01*
X75609Y53876D01*
X75624Y53850D01*
X75631Y53839D01*
X75639Y53824D01*
X75644Y53815D01*
X75653Y53798D01*
X75662Y53780D01*
X75667Y53771D01*
X75673Y53758D01*
X75680Y53744D01*
X75692Y53717D01*
X75703Y53689D01*
X75714Y53661D01*
X75718Y53651D01*
X75724Y53633D01*
X75730Y53614D01*
X75733Y53605D01*
X75736Y53596D01*
X75742Y53576D01*
X75748Y53555D01*
X75750Y53547D01*
X75757Y53518D01*
X75758Y53512D01*
X75763Y53489D01*
X75769Y53459D01*
X75774Y53430D01*
X75778Y53400D01*
X75781Y53370D01*
X75784Y53341D01*
X75786Y53311D01*
X75787Y53281D01*
X75788Y53251D01*
Y43504D01*
X75787Y43474D01*
X75786Y43444D01*
X75784Y43414D01*
X75781Y43384D01*
X75778Y43355D01*
X75774Y43325D01*
X75769Y43296D01*
X75763Y43266D01*
X75757Y43237D01*
X75750Y43208D01*
X75742Y43179D01*
X75733Y43150D01*
X75724Y43122D01*
X75714Y43094D01*
X75703Y43066D01*
X75692Y43038D01*
X75680Y43011D01*
X75667Y42984D01*
X75653Y42957D01*
X75639Y42931D01*
X75624Y42905D01*
X75609Y42879D01*
X75593Y42854D01*
X75576Y42829D01*
X75558Y42805D01*
X75540Y42781D01*
X75522Y42757D01*
X75503Y42735D01*
X75483Y42712D01*
X75462Y42690D01*
X75442Y42669D01*
X75420Y42648D01*
X75398Y42627D01*
X75376Y42608D01*
X75353Y42588D01*
X75329Y42570D01*
X75305Y42552D01*
X75281Y42534D01*
X75256Y42518D01*
X75231Y42502D01*
X75206Y42486D01*
X75180Y42471D01*
X75153Y42457D01*
X75126Y42443D01*
X75099Y42431D01*
X75072Y42418D01*
X75044Y42407D01*
X75017Y42396D01*
X74988Y42386D01*
X74960Y42377D01*
X74931Y42368D01*
X74902Y42360D01*
X74873Y42353D01*
X74844Y42347D01*
X74815Y42341D01*
X74785Y42336D01*
X74756Y42332D01*
X74726Y42329D01*
X74696Y42326D01*
X74666Y42324D01*
X74636Y42323D01*
X74606Y42323D01*
X64859D01*
X64829Y42323D01*
X64799Y42324D01*
X64770Y42326D01*
X64767Y42326D01*
X64740Y42329D01*
X64710Y42332D01*
X64680Y42336D01*
X64651Y42341D01*
X64622Y42347D01*
X64599Y42352D01*
X64592Y42353D01*
X64563Y42360D01*
X64555Y42363D01*
X64534Y42368D01*
X64514Y42374D01*
X64506Y42377D01*
X64496Y42380D01*
X64477Y42386D01*
X64459Y42393D01*
X64449Y42396D01*
X64421Y42407D01*
X64394Y42418D01*
X64366Y42431D01*
X64352Y42437D01*
X64339Y42443D01*
X64330Y42448D01*
X64312Y42457D01*
X64295Y42466D01*
X64286Y42471D01*
X64271Y42480D01*
X64260Y42486D01*
X64234Y42502D01*
X64219Y42511D01*
X64209Y42518D01*
X64185Y42534D01*
X64160Y42552D01*
X64150Y42560D01*
X64136Y42570D01*
X64123Y42580D01*
X64113Y42588D01*
X64090Y42608D01*
X64067Y42627D01*
X64046Y42648D01*
X64024Y42669D01*
X62354Y44339D01*
X62333Y44360D01*
X62313Y44382D01*
X62293Y44405D01*
X62274Y44428D01*
X62255Y44451D01*
X62237Y44475D01*
X62219Y44499D01*
X62203Y44524D01*
X62193Y44540D01*
X62187Y44549D01*
X62171Y44575D01*
X62156Y44601D01*
X62147Y44618D01*
X62142Y44627D01*
X62135Y44641D01*
X62128Y44654D01*
X62122Y44668D01*
X62116Y44681D01*
X62110Y44693D01*
X62104Y44708D01*
X62097Y44725D01*
X62092Y44736D01*
X62081Y44764D01*
X62071Y44792D01*
X62068Y44802D01*
X62062Y44821D01*
X62056Y44841D01*
X62053Y44849D01*
X62045Y44878D01*
X62038Y44907D01*
X62033Y44930D01*
X62032Y44936D01*
X62026Y44966D01*
X62021Y44995D01*
X62021Y45000D01*
X62017Y45025D01*
X62014Y45051D01*
X62014Y45055D01*
X62011Y45085D01*
X62009Y45114D01*
X62008Y45144D01*
X62008Y45174D01*
Y54921D01*
X62008Y54951D01*
X62009Y54981D01*
X62011Y55011D01*
X62014Y55041D01*
X62017Y55070D01*
X62021Y55100D01*
X62026Y55130D01*
X62032Y55159D01*
X62038Y55188D01*
X62045Y55217D01*
X62053Y55246D01*
X62062Y55275D01*
X62071Y55303D01*
X62081Y55332D01*
X62092Y55359D01*
X62104Y55387D01*
X62116Y55414D01*
X62128Y55441D01*
X62142Y55468D01*
X62156Y55494D01*
X62171Y55520D01*
X62187Y55546D01*
X62203Y55571D01*
X62219Y55596D01*
X62237Y55620D01*
X62255Y55644D01*
X62274Y55668D01*
X62293Y55691D01*
X62313Y55713D01*
X62333Y55735D01*
X62354Y55756D01*
X62375Y55777D01*
X62397Y55798D01*
X62420Y55817D01*
X62443Y55837D01*
X62466Y55855D01*
X62490Y55873D01*
X62514Y55891D01*
X62539Y55908D01*
X62564Y55924D01*
X62590Y55939D01*
X62616Y55954D01*
X62642Y55968D01*
X62669Y55982D01*
X62696Y55995D01*
X62723Y56007D01*
X62751Y56018D01*
X62779Y56029D01*
X62807Y56039D01*
X62835Y56048D01*
X62864Y56057D01*
X62893Y56065D01*
X62922Y56072D01*
X62951Y56078D01*
X62981Y56084D01*
X63010Y56089D01*
X63040Y56093D01*
X63069Y56096D01*
X63099Y56099D01*
X63129Y56101D01*
X63159Y56102D01*
X63189Y56102D01*
X72936D01*
X72966Y56102D01*
D02*
G37*
D32*
X75186Y3588D02*
D03*
X3554Y75152D02*
D03*
D33*
X35933Y32353D02*
D03*
X41839Y25332D02*
D03*
X49213Y66063D02*
D03*
X68898D02*
D03*
X68898Y46378D02*
D03*
Y26693D02*
D03*
X68898Y7008D02*
D03*
X49213Y7008D02*
D03*
X29528Y7008D02*
D03*
X9843D02*
D03*
Y26693D02*
D03*
X9843Y46378D02*
D03*
X9843Y66063D02*
D03*
X29528Y66063D02*
D03*
X38846Y27590D02*
D03*
X37941D02*
D03*
X36839Y32353D02*
D03*
X40264Y26999D02*
D03*
X47508Y33416D02*
D03*
X45870Y27983D02*
D03*
X41878Y27983D02*
D03*
D34*
X38886Y40661D02*
D03*
X39280D02*
D03*
X38886Y41763D02*
D03*
X39280D02*
D03*
X38650Y38220D02*
D03*
X39043D02*
D03*
X40067D02*
D03*
X39673D02*
D03*
X38886Y54204D02*
D03*
X39280D02*
D03*
X40650Y26481D02*
D03*
X40256D02*
D03*
D35*
X24734Y54697D02*
D03*
X24455Y54419D02*
D03*
X53983Y24065D02*
D03*
X54261Y24343D02*
D03*
X23042Y56417D02*
D03*
X23320Y56696D02*
D03*
X55698Y22323D02*
D03*
X55420Y22044D02*
D03*
X22142Y55513D02*
D03*
X22421Y55791D02*
D03*
X22752Y24243D02*
D03*
X22474Y23964D02*
D03*
X23679Y22140D02*
D03*
X23958Y22418D02*
D03*
X56598Y23227D02*
D03*
X56319Y22949D02*
D03*
X55988Y54498D02*
D03*
X56266Y54776D02*
D03*
X55061Y56601D02*
D03*
X54783Y56322D02*
D03*
X20117Y58665D02*
D03*
X19839Y58387D02*
D03*
X20159Y26822D02*
D03*
X19881Y26543D02*
D03*
X26832Y20114D02*
D03*
X26554Y19836D02*
D03*
X58623Y20075D02*
D03*
X58901Y20353D02*
D03*
X58581Y51918D02*
D03*
X58859Y52197D02*
D03*
X51901Y58619D02*
D03*
X52180Y58897D02*
D03*
X56014Y56542D02*
D03*
X56292Y56821D02*
D03*
X54556Y22254D02*
D03*
X54278Y21976D02*
D03*
X56545Y24180D02*
D03*
X56823Y24459D02*
D03*
X22448Y21920D02*
D03*
X22726Y22198D02*
D03*
X24184Y56486D02*
D03*
X24462Y56765D02*
D03*
X22195Y54560D02*
D03*
X21917Y54282D02*
D03*
D36*
X38217Y38692D02*
D03*
Y39086D02*
D03*
X40500Y38692D02*
D03*
Y39086D02*
D03*
X39280Y41015D02*
D03*
Y41409D02*
D03*
D37*
X24062Y24737D02*
D03*
X24340Y24458D02*
D03*
X54694Y53986D02*
D03*
X54416Y54264D02*
D03*
X22323Y23042D02*
D03*
X22044Y23320D02*
D03*
X56417Y55698D02*
D03*
X56696Y55420D02*
D03*
X24243Y55988D02*
D03*
X23964Y56266D02*
D03*
X22140Y55061D02*
D03*
X22418Y54783D02*
D03*
X23227Y22142D02*
D03*
X22949Y22421D02*
D03*
X54498Y22752D02*
D03*
X54776Y22474D02*
D03*
X56601Y23679D02*
D03*
X56322Y23958D02*
D03*
X55513Y56598D02*
D03*
X55791Y56319D02*
D03*
X26822Y58581D02*
D03*
X26543Y58859D02*
D03*
X20114Y51908D02*
D03*
X19836Y52187D02*
D03*
X20075Y20117D02*
D03*
X20353Y19839D02*
D03*
X51918Y20159D02*
D03*
X52197Y19881D02*
D03*
X58626Y26832D02*
D03*
X58904Y26554D02*
D03*
X58665Y58623D02*
D03*
X58387Y58901D02*
D03*
X54560Y56545D02*
D03*
X54282Y56823D02*
D03*
X56486Y54556D02*
D03*
X56765Y54278D02*
D03*
X56542Y22726D02*
D03*
X56821Y22448D02*
D03*
X21976Y24462D02*
D03*
X22254Y24184D02*
D03*
X24459Y21917D02*
D03*
X24180Y22195D02*
D03*
X22198Y56014D02*
D03*
X21920Y56292D02*
D03*
D38*
X38896Y52865D02*
D03*
X39270D02*
D03*
D39*
X54066Y57053D02*
D03*
X54330Y57317D02*
D03*
X56980Y54048D02*
D03*
X56716Y53784D02*
D03*
X57050Y22232D02*
D03*
X57315Y22497D02*
D03*
X24674Y21687D02*
D03*
X24410Y21423D02*
D03*
X21760Y24692D02*
D03*
X22024Y24957D02*
D03*
X21690Y56508D02*
D03*
X21425Y56243D02*
D03*
X54176Y54021D02*
D03*
X53911Y53757D02*
D03*
X24884Y25005D02*
D03*
X24620Y24741D02*
D03*
D40*
X57885Y58398D02*
D03*
X58163Y58677D02*
D03*
X58388Y26039D02*
D03*
X58667Y26318D02*
D03*
X52721Y20412D02*
D03*
X52443Y20133D02*
D03*
X20855Y20342D02*
D03*
X20577Y20063D02*
D03*
X20352Y52701D02*
D03*
X20073Y52422D02*
D03*
X26019Y58328D02*
D03*
X26298Y58607D02*
D03*
D41*
X56508Y57050D02*
D03*
X56243Y57315D02*
D03*
X57053Y24674D02*
D03*
X57317Y24410D02*
D03*
X54048Y21760D02*
D03*
X53784Y22024D02*
D03*
X22232Y21690D02*
D03*
X22497Y21425D02*
D03*
X21687Y54066D02*
D03*
X21423Y54330D02*
D03*
X24692Y56980D02*
D03*
X24957Y56716D02*
D03*
X53979Y24623D02*
D03*
X53714Y24887D02*
D03*
X25002Y53875D02*
D03*
X24738Y54139D02*
D03*
D42*
X58328Y52721D02*
D03*
X58607Y52443D02*
D03*
X58398Y20855D02*
D03*
X58677Y20577D02*
D03*
X26039Y20352D02*
D03*
X26318Y20073D02*
D03*
X20412Y26019D02*
D03*
X20133Y26298D02*
D03*
X20342Y57885D02*
D03*
X20063Y58163D02*
D03*
X52694Y58398D02*
D03*
X52416Y58676D02*
D03*
D43*
X40708Y23759D02*
D03*
Y25334D02*
D03*
X38051Y23759D02*
D03*
Y25334D02*
D03*
D44*
X23443Y55297D02*
D03*
X55297Y23443D02*
D03*
D45*
X24320Y55116D02*
D03*
X24181Y54977D02*
D03*
X24042Y54838D02*
D03*
X23903Y54698D02*
D03*
X23763Y54559D02*
D03*
X23624Y54420D02*
D03*
X22566Y55478D02*
D03*
X22706Y55617D02*
D03*
X22845Y55756D02*
D03*
X22984Y55895D02*
D03*
X23123Y56035D02*
D03*
X23262Y56174D02*
D03*
X54420Y23624D02*
D03*
X54559Y23763D02*
D03*
X54698Y23903D02*
D03*
X54838Y24042D02*
D03*
X54977Y24181D02*
D03*
X55116Y24320D02*
D03*
X56174Y23262D02*
D03*
X56035Y23123D02*
D03*
X55895Y22984D02*
D03*
X55756Y22845D02*
D03*
X55617Y22706D02*
D03*
X55478Y22566D02*
D03*
D46*
X23262Y54420D02*
D03*
X23123Y54559D02*
D03*
X22984Y54698D02*
D03*
X22845Y54838D02*
D03*
X22706Y54977D02*
D03*
X22566Y55116D02*
D03*
X23624Y56174D02*
D03*
X23763Y56035D02*
D03*
X23903Y55895D02*
D03*
X24042Y55756D02*
D03*
X24181Y55617D02*
D03*
X24320Y55478D02*
D03*
X55478Y24320D02*
D03*
X55617Y24181D02*
D03*
X55756Y24042D02*
D03*
X55895Y23903D02*
D03*
X56035Y23763D02*
D03*
X56174Y23624D02*
D03*
X55116Y22566D02*
D03*
X54977Y22706D02*
D03*
X54838Y22845D02*
D03*
X54698Y22984D02*
D03*
X54559Y23123D02*
D03*
X54420Y23262D02*
D03*
D47*
X39705Y26490D02*
D03*
X39155D02*
D03*
D48*
X39370Y39377D02*
D03*
D49*
X38878Y40125D02*
D03*
X39075D02*
D03*
X39272D02*
D03*
X39469D02*
D03*
X39665D02*
D03*
X39862D02*
D03*
Y38629D02*
D03*
X39665D02*
D03*
X39469D02*
D03*
X39272D02*
D03*
X39075D02*
D03*
X38878D02*
D03*
D50*
X40118Y39869D02*
D03*
Y39672D02*
D03*
Y39475D02*
D03*
Y39279D02*
D03*
Y39082D02*
D03*
Y38885D02*
D03*
X38622D02*
D03*
Y39082D02*
D03*
Y39279D02*
D03*
Y39475D02*
D03*
Y39672D02*
D03*
Y39869D02*
D03*
D51*
X55297Y55297D02*
D03*
X23443Y23443D02*
D03*
D52*
X55116Y54420D02*
D03*
X54977Y54559D02*
D03*
X54838Y54698D02*
D03*
X54698Y54838D02*
D03*
X54559Y54977D02*
D03*
X54420Y55116D02*
D03*
X55478Y56174D02*
D03*
X55617Y56035D02*
D03*
X55756Y55895D02*
D03*
X55895Y55756D02*
D03*
X56035Y55617D02*
D03*
X56174Y55478D02*
D03*
X22566Y23262D02*
D03*
X22706Y23123D02*
D03*
X22845Y22984D02*
D03*
X22984Y22845D02*
D03*
X23123Y22706D02*
D03*
X23262Y22566D02*
D03*
X24320Y23624D02*
D03*
X24181Y23763D02*
D03*
X24042Y23903D02*
D03*
X23903Y24042D02*
D03*
X23763Y24181D02*
D03*
X23624Y24320D02*
D03*
D53*
X54420Y55478D02*
D03*
X54559Y55617D02*
D03*
X54698Y55756D02*
D03*
X54838Y55895D02*
D03*
X54977Y56035D02*
D03*
X55116Y56174D02*
D03*
X56174Y55116D02*
D03*
X56035Y54977D02*
D03*
X55895Y54838D02*
D03*
X55756Y54698D02*
D03*
X55617Y54559D02*
D03*
X55478Y54420D02*
D03*
X23262Y24320D02*
D03*
X23123Y24181D02*
D03*
X22984Y24042D02*
D03*
X22845Y23903D02*
D03*
X22706Y23763D02*
D03*
X22566Y23624D02*
D03*
X23624Y22566D02*
D03*
X23763Y22706D02*
D03*
X23903Y22845D02*
D03*
X24042Y22984D02*
D03*
X24181Y23123D02*
D03*
X24320Y23262D02*
D03*
D54*
X39280Y53731D02*
D03*
Y53338D02*
D03*
D55*
X39276Y55902D02*
D03*
D56*
X40276Y56902D02*
D03*
X38276D02*
D03*
Y54902D02*
D03*
X40276D02*
D03*
D57*
X2756Y2756D02*
D03*
X75984D02*
D03*
Y75984D02*
D03*
X2756D02*
D03*
D58*
X32870Y31884D02*
D03*
Y42884D02*
D03*
X53370Y29884D02*
D03*
X52870Y48884D02*
D03*
X20870Y29884D02*
D03*
D59*
X39370Y39377D02*
D03*
X55343Y23398D02*
D03*
X39802Y39380D02*
D03*
X39373Y39804D02*
D03*
X38938Y39374D02*
D03*
X39373Y38945D02*
D03*
X23443Y55297D02*
D03*
X23751Y54993D02*
D03*
X23136Y55600D02*
D03*
X23140Y54990D02*
D03*
X23747Y55604D02*
D03*
X23443Y23443D02*
D03*
X23747Y23751D02*
D03*
X23140Y23136D02*
D03*
X23751Y23140D02*
D03*
X23136Y23747D02*
D03*
X54990Y23747D02*
D03*
X55604Y23140D02*
D03*
X55600Y23751D02*
D03*
X54993Y23136D02*
D03*
X55604Y54993D02*
D03*
X54990Y55600D02*
D03*
X55600Y55604D02*
D03*
X54993Y54990D02*
D03*
X55297Y55297D02*
D03*
M02*
