G04*
G04 #@! TF.GenerationSoftware,Altium Limited,Altium Designer,20.0.13 (296)*
G04*
G04 Layer_Physical_Order=4*
G04 Layer_Color=16711680*
%FSLAX24Y24*%
%MOIN*%
G70*
G01*
G75*
%ADD10C,0.0059*%
%ADD11C,0.0060*%
%ADD14R,0.0236X0.0217*%
G04:AMPARAMS|DCode=20|XSize=19.7mil|YSize=23.6mil|CornerRadius=0mil|HoleSize=0mil|Usage=FLASHONLY|Rotation=135.000|XOffset=0mil|YOffset=0mil|HoleType=Round|Shape=Rectangle|*
%AMROTATEDRECTD20*
4,1,4,0.0153,0.0014,-0.0014,-0.0153,-0.0153,-0.0014,0.0014,0.0153,0.0153,0.0014,0.0*
%
%ADD20ROTATEDRECTD20*%

G04:AMPARAMS|DCode=22|XSize=19.7mil|YSize=23.6mil|CornerRadius=0mil|HoleSize=0mil|Usage=FLASHONLY|Rotation=45.000|XOffset=0mil|YOffset=0mil|HoleType=Round|Shape=Rectangle|*
%AMROTATEDRECTD22*
4,1,4,0.0014,-0.0153,-0.0153,0.0014,-0.0014,0.0153,0.0153,-0.0014,0.0014,-0.0153,0.0*
%
%ADD22ROTATEDRECTD22*%

%ADD64C,0.0098*%
%ADD66C,0.0197*%
%ADD67C,0.0157*%
%ADD68C,0.0118*%
%ADD70C,0.0748*%
%ADD71C,0.0827*%
%ADD72C,0.0157*%
%ADD73C,0.1260*%
%ADD74C,0.0197*%
%ADD75C,0.0236*%
%ADD77C,0.0100*%
%ADD78R,0.0236X0.0197*%
G04:AMPARAMS|DCode=79|XSize=11.8mil|YSize=21.7mil|CornerRadius=3mil|HoleSize=0mil|Usage=FLASHONLY|Rotation=270.000|XOffset=0mil|YOffset=0mil|HoleType=Round|Shape=RoundedRectangle|*
%AMROUNDEDRECTD79*
21,1,0.0118,0.0157,0,0,270.0*
21,1,0.0059,0.0217,0,0,270.0*
1,1,0.0059,-0.0079,-0.0030*
1,1,0.0059,-0.0079,0.0030*
1,1,0.0059,0.0079,0.0030*
1,1,0.0059,0.0079,-0.0030*
%
%ADD79ROUNDEDRECTD79*%
G04:AMPARAMS|DCode=80|XSize=63mil|YSize=33.5mil|CornerRadius=8.4mil|HoleSize=0mil|Usage=FLASHONLY|Rotation=270.000|XOffset=0mil|YOffset=0mil|HoleType=Round|Shape=RoundedRectangle|*
%AMROUNDEDRECTD80*
21,1,0.0630,0.0167,0,0,270.0*
21,1,0.0463,0.0335,0,0,270.0*
1,1,0.0167,-0.0084,-0.0231*
1,1,0.0167,-0.0084,0.0231*
1,1,0.0167,0.0084,0.0231*
1,1,0.0167,0.0084,-0.0231*
%
%ADD80ROUNDEDRECTD80*%
%ADD81C,0.0079*%
%ADD82R,0.0402X0.0862*%
%ADD83R,0.1500X0.0500*%
%ADD84R,0.0295X0.0315*%
G04:AMPARAMS|DCode=85|XSize=31.5mil|YSize=29.5mil|CornerRadius=0mil|HoleSize=0mil|Usage=FLASHONLY|Rotation=225.000|XOffset=0mil|YOffset=0mil|HoleType=Round|Shape=Rectangle|*
%AMROTATEDRECTD85*
4,1,4,0.0007,0.0216,0.0216,0.0007,-0.0007,-0.0216,-0.0216,-0.0007,0.0007,0.0216,0.0*
%
%ADD85ROTATEDRECTD85*%

G04:AMPARAMS|DCode=86|XSize=31.5mil|YSize=29.5mil|CornerRadius=0mil|HoleSize=0mil|Usage=FLASHONLY|Rotation=135.000|XOffset=0mil|YOffset=0mil|HoleType=Round|Shape=Rectangle|*
%AMROTATEDRECTD86*
4,1,4,0.0216,-0.0007,0.0007,-0.0216,-0.0216,0.0007,-0.0007,0.0216,0.0216,-0.0007,0.0*
%
%ADD86ROTATEDRECTD86*%

%ADD87R,0.0315X0.0295*%
%ADD88C,0.0200*%
G36*
X78620Y120D02*
X120D01*
Y78620D01*
X78620D01*
Y120D01*
D02*
G37*
%LPC*%
G36*
X75984Y76934D02*
X75799Y76915D01*
X75621Y76861D01*
X75457Y76774D01*
X75313Y76656D01*
X75195Y76512D01*
X75107Y76348D01*
X75053Y76169D01*
X75035Y75984D01*
X75053Y75799D01*
X75107Y75621D01*
X75195Y75457D01*
X75313Y75313D01*
X75457Y75195D01*
X75621Y75107D01*
X75799Y75053D01*
X75984Y75035D01*
X76169Y75053D01*
X76348Y75107D01*
X76512Y75195D01*
X76656Y75313D01*
X76774Y75457D01*
X76861Y75621D01*
X76915Y75799D01*
X76934Y75984D01*
X76915Y76169D01*
X76861Y76348D01*
X76774Y76512D01*
X76656Y76656D01*
X76512Y76774D01*
X76348Y76861D01*
X76169Y76915D01*
X75984Y76934D01*
D02*
G37*
G36*
X2756D02*
X2571Y76915D01*
X2393Y76861D01*
X2228Y76774D01*
X2085Y76656D01*
X1966Y76512D01*
X1879Y76348D01*
X1825Y76169D01*
X1806Y75984D01*
X1825Y75799D01*
X1879Y75621D01*
X1966Y75457D01*
X2085Y75313D01*
X2228Y75195D01*
X2393Y75107D01*
X2571Y75053D01*
X2756Y75035D01*
X2941Y75053D01*
X3119Y75107D01*
X3283Y75195D01*
X3427Y75313D01*
X3545Y75457D01*
X3633Y75621D01*
X3687Y75799D01*
X3705Y75984D01*
X3687Y76169D01*
X3633Y76348D01*
X3545Y76512D01*
X3427Y76656D01*
X3283Y76774D01*
X3119Y76861D01*
X2941Y76915D01*
X2756Y76934D01*
D02*
G37*
G36*
X9895Y66599D02*
X9790D01*
X9686Y66578D01*
X9589Y66538D01*
X9501Y66479D01*
X9426Y66405D01*
X9367Y66317D01*
X9327Y66219D01*
X9306Y66116D01*
Y66010D01*
X9327Y65907D01*
X9367Y65809D01*
X9426Y65721D01*
X9501Y65647D01*
X9589Y65588D01*
X9686Y65548D01*
X9790Y65527D01*
X9895D01*
X9999Y65548D01*
X10096Y65588D01*
X10184Y65647D01*
X10259Y65721D01*
X10318Y65809D01*
X10358Y65907D01*
X10379Y66010D01*
Y66116D01*
X10358Y66219D01*
X10318Y66317D01*
X10259Y66405D01*
X10184Y66479D01*
X10096Y66538D01*
X9999Y66578D01*
X9895Y66599D01*
D02*
G37*
G36*
X68950Y66599D02*
X68845D01*
X68741Y66578D01*
X68644Y66538D01*
X68556Y66479D01*
X68481Y66405D01*
X68423Y66317D01*
X68382Y66219D01*
X68362Y66116D01*
Y66010D01*
X68382Y65907D01*
X68423Y65809D01*
X68481Y65721D01*
X68556Y65647D01*
X68644Y65588D01*
X68741Y65548D01*
X68845Y65527D01*
X68950D01*
X69054Y65548D01*
X69152Y65588D01*
X69239Y65647D01*
X69314Y65721D01*
X69373Y65809D01*
X69413Y65907D01*
X69434Y66010D01*
Y66116D01*
X69413Y66219D01*
X69373Y66317D01*
X69314Y66405D01*
X69239Y66479D01*
X69152Y66538D01*
X69054Y66578D01*
X68950Y66599D01*
D02*
G37*
G36*
X49265D02*
X49160D01*
X49056Y66578D01*
X48959Y66538D01*
X48871Y66479D01*
X48796Y66405D01*
X48738Y66317D01*
X48697Y66219D01*
X48677Y66116D01*
Y66010D01*
X48697Y65907D01*
X48738Y65809D01*
X48796Y65721D01*
X48871Y65647D01*
X48959Y65588D01*
X49056Y65548D01*
X49160Y65527D01*
X49265D01*
X49369Y65548D01*
X49467Y65588D01*
X49554Y65647D01*
X49629Y65721D01*
X49688Y65809D01*
X49728Y65907D01*
X49749Y66010D01*
Y66116D01*
X49728Y66219D01*
X49688Y66317D01*
X49629Y66405D01*
X49554Y66479D01*
X49467Y66538D01*
X49369Y66578D01*
X49265Y66599D01*
D02*
G37*
G36*
X29580D02*
X29475D01*
X29371Y66578D01*
X29274Y66538D01*
X29186Y66479D01*
X29111Y66405D01*
X29052Y66317D01*
X29012Y66219D01*
X28991Y66116D01*
Y66010D01*
X29012Y65907D01*
X29052Y65809D01*
X29111Y65721D01*
X29186Y65647D01*
X29274Y65588D01*
X29371Y65548D01*
X29475Y65527D01*
X29580D01*
X29684Y65548D01*
X29781Y65588D01*
X29869Y65647D01*
X29944Y65721D01*
X30003Y65809D01*
X30043Y65907D01*
X30064Y66010D01*
Y66116D01*
X30043Y66219D01*
X30003Y66317D01*
X29944Y66405D01*
X29869Y66479D01*
X29781Y66538D01*
X29684Y66578D01*
X29580Y66599D01*
D02*
G37*
G36*
X52037Y59405D02*
X51950Y59394D01*
X51868Y59360D01*
X51798Y59307D01*
X51745Y59237D01*
X51711Y59155D01*
X51699Y59068D01*
X51711Y58981D01*
X51745Y58899D01*
X51798Y58829D01*
X51868Y58776D01*
X51950Y58742D01*
X52037Y58730D01*
X52124Y58742D01*
X52206Y58776D01*
X52276Y58829D01*
X52329Y58899D01*
X52363Y58981D01*
X52374Y59068D01*
X52363Y59155D01*
X52329Y59237D01*
X52276Y59307D01*
X52206Y59360D01*
X52124Y59394D01*
X52037Y59405D01*
D02*
G37*
G36*
X58537Y59403D02*
X58449Y59391D01*
X58368Y59357D01*
X58298Y59304D01*
X58245Y59234D01*
X58211Y59153D01*
X58199Y59065D01*
X58211Y58978D01*
X58245Y58896D01*
X58298Y58826D01*
X58368Y58773D01*
X58449Y58739D01*
X58537Y58728D01*
X58624Y58739D01*
X58706Y58773D01*
X58775Y58826D01*
X58829Y58896D01*
X58863Y58978D01*
X58874Y59065D01*
X58863Y59153D01*
X58829Y59234D01*
X58775Y59304D01*
X58706Y59357D01*
X58624Y59391D01*
X58537Y59403D01*
D02*
G37*
G36*
X26707Y59347D02*
X26620Y59335D01*
X26538Y59302D01*
X26468Y59248D01*
X26415Y59178D01*
X26381Y59097D01*
X26369Y59009D01*
X26381Y58922D01*
X26415Y58840D01*
X26468Y58771D01*
X26538Y58717D01*
X26620Y58683D01*
X26707Y58672D01*
X26794Y58683D01*
X26876Y58717D01*
X26946Y58771D01*
X26999Y58840D01*
X27033Y58922D01*
X27045Y59009D01*
X27033Y59097D01*
X26999Y59178D01*
X26946Y59248D01*
X26876Y59302D01*
X26794Y59335D01*
X26707Y59347D01*
D02*
G37*
G36*
X19682Y58881D02*
X19595Y58870D01*
X19513Y58836D01*
X19443Y58782D01*
X19390Y58713D01*
X19356Y58631D01*
X19344Y58544D01*
X19356Y58456D01*
X19390Y58375D01*
X19443Y58305D01*
X19513Y58251D01*
X19595Y58218D01*
X19682Y58206D01*
X19769Y58218D01*
X19851Y58251D01*
X19921Y58305D01*
X19974Y58375D01*
X20008Y58456D01*
X20019Y58544D01*
X20008Y58631D01*
X19974Y58713D01*
X19921Y58782D01*
X19851Y58836D01*
X19769Y58870D01*
X19682Y58881D01*
D02*
G37*
G36*
X38325Y57411D02*
Y56951D01*
X38785D01*
X38774Y57035D01*
X38723Y57160D01*
X38641Y57267D01*
X38534Y57349D01*
X38409Y57400D01*
X38325Y57411D01*
D02*
G37*
G36*
X40325D02*
Y56951D01*
X40785D01*
X40774Y57035D01*
X40723Y57160D01*
X40641Y57267D01*
X40534Y57349D01*
X40409Y57400D01*
X40325Y57411D01*
D02*
G37*
G36*
X38226Y57411D02*
X38142Y57400D01*
X38017Y57349D01*
X37911Y57267D01*
X37829Y57160D01*
X37777Y57035D01*
X37766Y56951D01*
X38226D01*
Y57411D01*
D02*
G37*
G36*
X40226D02*
X40142Y57400D01*
X40017Y57349D01*
X39911Y57267D01*
X39829Y57160D01*
X39777Y57035D01*
X39766Y56951D01*
X40226D01*
Y57411D01*
D02*
G37*
G36*
X53075Y57188D02*
X52713Y56826D01*
X53061Y56478D01*
X53423Y56840D01*
X53075Y57188D01*
D02*
G37*
G36*
X53451Y56756D02*
X53145Y56450D01*
Y56450D01*
X53116Y56408D01*
X53061Y56397D01*
X52996Y56354D01*
X52952Y56288D01*
X52937Y56212D01*
X52952Y56135D01*
X52996Y56070D01*
X53061Y56026D01*
X53138Y56011D01*
X53215Y56026D01*
X53280Y56070D01*
X53323Y56135D01*
X53334Y56190D01*
X53381Y56213D01*
X53421Y56173D01*
X53454Y56137D01*
Y56137D01*
X53730Y55862D01*
X53958Y55634D01*
X53940Y55581D01*
X53888Y55570D01*
X53823Y55527D01*
X53779Y55462D01*
X53764Y55385D01*
X53779Y55308D01*
X53823Y55243D01*
X53888Y55199D01*
X53965Y55184D01*
X54041Y55199D01*
X54083Y55227D01*
X54098Y55204D01*
X54163Y55160D01*
X54240Y55145D01*
X54317Y55160D01*
X54382Y55204D01*
X54426Y55269D01*
X54441Y55346D01*
X54426Y55422D01*
X54382Y55487D01*
X54317Y55531D01*
X54240Y55546D01*
X54163Y55531D01*
X54122Y55503D01*
X54106Y55527D01*
X54056Y55560D01*
X54044Y55608D01*
X54045Y55621D01*
X54280Y55855D01*
X54290Y55857D01*
X54341Y55845D01*
X54373Y55798D01*
X54438Y55755D01*
X54514Y55739D01*
X54591Y55755D01*
X54656Y55798D01*
X54700Y55863D01*
X54715Y55940D01*
X54700Y56017D01*
X54656Y56082D01*
X54591Y56126D01*
X54570Y56130D01*
X54537Y56168D01*
X54537Y56168D01*
X54537Y56168D01*
X54315Y56391D01*
X54289Y56365D01*
X54236Y56418D01*
X54262Y56444D01*
X54039Y56666D01*
X53970Y56597D01*
X53935Y56604D01*
X53603D01*
X53451Y56756D01*
D02*
G37*
G36*
X40226Y56852D02*
X39766D01*
X39777Y56768D01*
X39829Y56643D01*
X39911Y56537D01*
X40017Y56455D01*
X40142Y56403D01*
X40226Y56392D01*
Y56852D01*
D02*
G37*
G36*
X38226D02*
X37766D01*
X37777Y56768D01*
X37829Y56643D01*
X37911Y56537D01*
X38017Y56455D01*
X38142Y56403D01*
X38226Y56392D01*
Y56852D01*
D02*
G37*
G36*
X40785D02*
X40325D01*
Y56392D01*
X40409Y56403D01*
X40534Y56455D01*
X40641Y56537D01*
X40723Y56643D01*
X40774Y56768D01*
X40785Y56852D01*
D02*
G37*
G36*
X38785D02*
X38325D01*
Y56392D01*
X38409Y56403D01*
X38534Y56455D01*
X38641Y56537D01*
X38723Y56643D01*
X38774Y56768D01*
X38785Y56852D01*
D02*
G37*
G36*
X39276Y56515D02*
X39156Y56503D01*
X39041Y56468D01*
X38935Y56411D01*
X38842Y56335D01*
X38766Y56242D01*
X38709Y56136D01*
X38674Y56021D01*
X38662Y55902D01*
X38674Y55782D01*
X38709Y55667D01*
X38766Y55561D01*
X38842Y55468D01*
X38935Y55392D01*
X39041Y55335D01*
X39156Y55300D01*
X39276Y55288D01*
X39395Y55300D01*
X39510Y55335D01*
X39616Y55392D01*
X39709Y55468D01*
X39785Y55561D01*
X39842Y55667D01*
X39877Y55782D01*
X39889Y55902D01*
X39877Y56021D01*
X39842Y56136D01*
X39785Y56242D01*
X39709Y56335D01*
X39616Y56411D01*
X39510Y56468D01*
X39395Y56503D01*
X39276Y56515D01*
D02*
G37*
G36*
X38325Y55411D02*
Y54951D01*
X38785D01*
X38774Y55035D01*
X38723Y55160D01*
X38641Y55267D01*
X38534Y55349D01*
X38409Y55400D01*
X38325Y55411D01*
D02*
G37*
G36*
X40325D02*
Y54951D01*
X40785D01*
X40774Y55035D01*
X40723Y55160D01*
X40641Y55267D01*
X40534Y55349D01*
X40409Y55400D01*
X40325Y55411D01*
D02*
G37*
G36*
X38226Y55411D02*
X38142Y55400D01*
X38017Y55349D01*
X37911Y55267D01*
X37829Y55160D01*
X37777Y55035D01*
X37766Y54951D01*
X38226D01*
Y55411D01*
D02*
G37*
G36*
X40226D02*
X40142Y55400D01*
X40017Y55349D01*
X39911Y55267D01*
X39829Y55160D01*
X39777Y55035D01*
X39766Y54951D01*
X40226D01*
Y55411D01*
D02*
G37*
G36*
X53851Y55147D02*
X53572Y54869D01*
X53297Y54593D01*
X53440Y54450D01*
X53415Y54404D01*
X53413Y54405D01*
X53337Y54389D01*
X53271Y54346D01*
X53228Y54281D01*
X53213Y54204D01*
X53228Y54127D01*
X53271Y54062D01*
X53337Y54018D01*
X53413Y54003D01*
X53490Y54018D01*
X53555Y54062D01*
X53556Y54063D01*
X53743D01*
X53796Y54074D01*
X53842Y54104D01*
X53881Y54064D01*
X54104Y54287D01*
X54057Y54334D01*
X54110Y54387D01*
X54157Y54340D01*
X54380Y54563D01*
X54380Y54563D01*
X54380D01*
X54413Y54600D01*
X54451Y54607D01*
X54516Y54651D01*
X54560Y54716D01*
X54575Y54793D01*
X54560Y54870D01*
X54516Y54935D01*
X54451Y54978D01*
X54375Y54994D01*
X54298Y54978D01*
X54233Y54935D01*
X54193Y54875D01*
X54175Y54867D01*
X54137Y54861D01*
X53851Y55147D01*
D02*
G37*
G36*
X40226Y54852D02*
X39766D01*
X39777Y54768D01*
X39829Y54643D01*
X39911Y54537D01*
X40017Y54455D01*
X40142Y54403D01*
X40226Y54392D01*
Y54852D01*
D02*
G37*
G36*
X38226D02*
X37766D01*
X37777Y54768D01*
X37829Y54643D01*
X37911Y54537D01*
X38017Y54455D01*
X38142Y54403D01*
X38226Y54392D01*
Y54852D01*
D02*
G37*
G36*
X40785D02*
X40325D01*
Y54392D01*
X40409Y54403D01*
X40534Y54455D01*
X40641Y54537D01*
X40723Y54643D01*
X40774Y54768D01*
X40785Y54852D01*
D02*
G37*
G36*
X38785D02*
X38325D01*
Y54392D01*
X38409Y54403D01*
X38534Y54455D01*
X38641Y54537D01*
X38723Y54643D01*
X38774Y54768D01*
X38785Y54852D01*
D02*
G37*
G36*
X22800Y54715D02*
X22723Y54700D01*
X22658Y54656D01*
X22615Y54591D01*
X22605Y54545D01*
X22591Y54540D01*
X22591D01*
X22368Y54318D01*
X22435Y54251D01*
X22363Y54178D01*
X22315Y54225D01*
X22093Y54003D01*
X22162Y53934D01*
X21992Y53764D01*
X21968Y53728D01*
X21959Y53686D01*
X21965Y53659D01*
X21885Y53579D01*
X22191Y53272D01*
X22196Y53277D01*
X22236Y53265D01*
X22246Y53257D01*
X22287Y53196D01*
X22352Y53152D01*
X22429Y53137D01*
X22506Y53152D01*
X22571Y53196D01*
X22615Y53261D01*
X22630Y53338D01*
X22624Y53369D01*
X22622Y53418D01*
X22890Y53686D01*
X22900Y53696D01*
X22908Y53743D01*
X23108Y53943D01*
X23162Y53927D01*
X23170Y53888D01*
X23213Y53823D01*
X23278Y53779D01*
X23355Y53764D01*
X23432Y53779D01*
X23497Y53823D01*
X23523Y53862D01*
X23569Y53877D01*
X23589Y53877D01*
X23589Y53877D01*
X23597Y53869D01*
X23851Y53615D01*
X24126Y53339D01*
X24191Y53403D01*
X24237Y53379D01*
X24236Y53377D01*
X24252Y53300D01*
X24295Y53235D01*
X24360Y53192D01*
X24437Y53176D01*
X24514Y53192D01*
X24579Y53235D01*
X24622Y53300D01*
X24638Y53377D01*
X24636Y53388D01*
X24654Y53406D01*
X24685Y53452D01*
X24696Y53506D01*
Y53771D01*
X24685Y53825D01*
X24654Y53870D01*
X24628Y53897D01*
X24655Y53924D01*
X24433Y54147D01*
X24385Y54099D01*
X24333Y54152D01*
X24380Y54199D01*
X24157Y54422D01*
Y54422D01*
X24127Y54460D01*
X24089Y54516D01*
X24024Y54560D01*
X23947Y54575D01*
X23871Y54560D01*
X23805Y54516D01*
X23762Y54451D01*
X23747Y54375D01*
X23762Y54298D01*
X23805Y54233D01*
X23836Y54212D01*
X23841Y54162D01*
X23603Y53924D01*
X23598Y53919D01*
X23583Y53926D01*
X23556Y53965D01*
X23541Y54041D01*
X23513Y54083D01*
X23537Y54098D01*
X23580Y54163D01*
X23595Y54240D01*
X23580Y54317D01*
X23537Y54382D01*
X23471Y54426D01*
X23395Y54441D01*
X23318Y54426D01*
X23253Y54382D01*
X23209Y54317D01*
X23194Y54240D01*
X23209Y54163D01*
X23237Y54122D01*
X23213Y54106D01*
X23188Y54069D01*
X23126Y54060D01*
X22900Y54287D01*
X22908Y54350D01*
X22942Y54373D01*
X22985Y54438D01*
X23001Y54514D01*
X22985Y54591D01*
X22942Y54656D01*
X22877Y54700D01*
X22800Y54715D01*
D02*
G37*
G36*
X21801Y53551D02*
X21453Y53203D01*
X21815Y52841D01*
X22163Y53189D01*
X21801Y53551D01*
D02*
G37*
G36*
X59023Y52385D02*
X58936Y52373D01*
X58854Y52339D01*
X58784Y52286D01*
X58731Y52216D01*
X58697Y52134D01*
X58686Y52047D01*
X58697Y51960D01*
X58731Y51878D01*
X58784Y51808D01*
X58854Y51755D01*
X58936Y51721D01*
X59023Y51710D01*
X59111Y51721D01*
X59192Y51755D01*
X59262Y51808D01*
X59315Y51878D01*
X59349Y51960D01*
X59361Y52047D01*
X59349Y52134D01*
X59315Y52216D01*
X59262Y52286D01*
X59192Y52339D01*
X59111Y52373D01*
X59023Y52385D01*
D02*
G37*
G36*
X19679Y52367D02*
X19592Y52356D01*
X19510Y52322D01*
X19440Y52269D01*
X19387Y52199D01*
X19353Y52117D01*
X19342Y52030D01*
X19353Y51943D01*
X19387Y51861D01*
X19440Y51791D01*
X19510Y51738D01*
X19592Y51704D01*
X19679Y51692D01*
X19767Y51704D01*
X19848Y51738D01*
X19918Y51791D01*
X19971Y51861D01*
X20005Y51943D01*
X20017Y52030D01*
X20005Y52117D01*
X19971Y52199D01*
X19918Y52269D01*
X19848Y52322D01*
X19767Y52356D01*
X19679Y52367D01*
D02*
G37*
G36*
X32130Y49951D02*
X31610D01*
Y48970D01*
X32130D01*
Y49951D01*
D02*
G37*
G36*
X31130D02*
X30610D01*
Y48970D01*
X31130D01*
Y49951D01*
D02*
G37*
G36*
X30130D02*
X29610D01*
Y48970D01*
X30130D01*
Y49951D01*
D02*
G37*
G36*
X29130D02*
X28610D01*
Y48970D01*
X29130D01*
Y49951D01*
D02*
G37*
G36*
X28130D02*
X27610D01*
Y48970D01*
X28130D01*
Y49951D01*
D02*
G37*
G36*
X27130D02*
X26610D01*
Y48970D01*
X27130D01*
Y49951D01*
D02*
G37*
G36*
X26130D02*
X25610D01*
Y48970D01*
X26130D01*
Y49951D01*
D02*
G37*
G36*
X25130D02*
X24610D01*
Y48970D01*
X25130D01*
Y49951D01*
D02*
G37*
G36*
X24130D02*
X23610D01*
Y48970D01*
X24130D01*
Y49951D01*
D02*
G37*
G36*
X51730Y49951D02*
X51210D01*
Y48970D01*
X51730D01*
Y49951D01*
D02*
G37*
G36*
X50730D02*
X50210D01*
Y48970D01*
X50730D01*
Y49951D01*
D02*
G37*
G36*
X49730D02*
X49210D01*
Y48970D01*
X49730D01*
Y49951D01*
D02*
G37*
G36*
X47730D02*
X47210D01*
Y48970D01*
X47730D01*
Y49951D01*
D02*
G37*
G36*
X46730D02*
X46210D01*
Y48970D01*
X46730D01*
Y49951D01*
D02*
G37*
G36*
X45730D02*
X45210D01*
Y48970D01*
X45730D01*
Y49951D01*
D02*
G37*
G36*
X44730D02*
X44210D01*
Y48970D01*
X44730D01*
Y49951D01*
D02*
G37*
G36*
X43730D02*
X43210D01*
Y48970D01*
X43730D01*
Y49951D01*
D02*
G37*
G36*
X42730D02*
X42210D01*
Y48970D01*
X42730D01*
Y49951D01*
D02*
G37*
G36*
X41130Y49951D02*
X40610D01*
Y48970D01*
X41130D01*
Y49951D01*
D02*
G37*
G36*
X40130D02*
X39610D01*
Y48970D01*
X40130D01*
Y49951D01*
D02*
G37*
G36*
X39130D02*
X38610D01*
Y48970D01*
X39130D01*
Y49951D01*
D02*
G37*
G36*
X38130D02*
X37610D01*
Y48970D01*
X38130D01*
Y49951D01*
D02*
G37*
G36*
X37130D02*
X36610D01*
Y48970D01*
X37130D01*
Y49951D01*
D02*
G37*
G36*
X36130D02*
X35610D01*
Y48970D01*
X36130D01*
Y49951D01*
D02*
G37*
G36*
X35130D02*
X34610D01*
Y48970D01*
X35130D01*
Y49951D01*
D02*
G37*
G36*
X34130D02*
X33610D01*
Y48970D01*
X34130D01*
Y49951D01*
D02*
G37*
G36*
X48769Y49990D02*
X48171D01*
Y48931D01*
X48769D01*
Y49990D01*
D02*
G37*
G36*
X52870Y49675D02*
X52716Y49660D01*
X52567Y49615D01*
X52430Y49542D01*
X52311Y49443D01*
X52212Y49324D01*
X52139Y49187D01*
X52094Y49038D01*
X52079Y48884D01*
X52094Y48730D01*
X52139Y48581D01*
X52212Y48444D01*
X52311Y48324D01*
X52430Y48226D01*
X52567Y48153D01*
X52716Y48108D01*
X52870Y48093D01*
X53024Y48108D01*
X53173Y48153D01*
X53310Y48226D01*
X53430Y48324D01*
X53528Y48444D01*
X53601Y48581D01*
X53646Y48730D01*
X53661Y48884D01*
X53646Y49038D01*
X53601Y49187D01*
X53528Y49324D01*
X53430Y49443D01*
X53310Y49542D01*
X53173Y49615D01*
X53024Y49660D01*
X52870Y49675D01*
D02*
G37*
G36*
X29130Y48797D02*
X28610D01*
Y47817D01*
X29130D01*
Y48797D01*
D02*
G37*
G36*
X32130Y48797D02*
X31610D01*
Y47817D01*
X32130D01*
Y48797D01*
D02*
G37*
G36*
X31130D02*
X30610D01*
Y47817D01*
X31130D01*
Y48797D01*
D02*
G37*
G36*
X30130D02*
X29610D01*
Y47817D01*
X30130D01*
Y48797D01*
D02*
G37*
G36*
X28130D02*
X27610D01*
Y47817D01*
X28130D01*
Y48797D01*
D02*
G37*
G36*
X27130D02*
X26610D01*
Y47817D01*
X27130D01*
Y48797D01*
D02*
G37*
G36*
X26130D02*
X25610D01*
Y47817D01*
X26130D01*
Y48797D01*
D02*
G37*
G36*
X25130D02*
X24610D01*
Y47817D01*
X25130D01*
Y48797D01*
D02*
G37*
G36*
X24130D02*
X23610D01*
Y47817D01*
X24130D01*
Y48797D01*
D02*
G37*
G36*
X49730Y48797D02*
X49210D01*
Y47817D01*
X49730D01*
Y48797D01*
D02*
G37*
G36*
X47730D02*
X47210D01*
Y47817D01*
X47730D01*
Y48797D01*
D02*
G37*
G36*
X46730D02*
X46210D01*
Y47817D01*
X46730D01*
Y48797D01*
D02*
G37*
G36*
X43730D02*
X43210D01*
Y47817D01*
X43730D01*
Y48797D01*
D02*
G37*
G36*
X42730D02*
X42210D01*
Y47817D01*
X42730D01*
Y48797D01*
D02*
G37*
G36*
X39130D02*
X38610D01*
Y47817D01*
X39130D01*
Y48797D01*
D02*
G37*
G36*
X51730Y48797D02*
X51210D01*
Y47817D01*
X51730D01*
Y48797D01*
D02*
G37*
G36*
X50730D02*
X50210D01*
Y47817D01*
X50730D01*
Y48797D01*
D02*
G37*
G36*
X45730D02*
X45210D01*
Y47817D01*
X45730D01*
Y48797D01*
D02*
G37*
G36*
X44730D02*
X44210D01*
Y47817D01*
X44730D01*
Y48797D01*
D02*
G37*
G36*
X41130D02*
X40610D01*
Y47817D01*
X41130D01*
Y48797D01*
D02*
G37*
G36*
X40130D02*
X39610D01*
Y47817D01*
X40130D01*
Y48797D01*
D02*
G37*
G36*
X38130D02*
X37610D01*
Y47817D01*
X38130D01*
Y48797D01*
D02*
G37*
G36*
X37130D02*
X36610D01*
Y47817D01*
X37130D01*
Y48797D01*
D02*
G37*
G36*
X36130D02*
X35610D01*
Y47817D01*
X36130D01*
Y48797D01*
D02*
G37*
G36*
X35130D02*
X34610D01*
Y47817D01*
X35130D01*
Y48797D01*
D02*
G37*
G36*
X34130D02*
X33610D01*
Y47817D01*
X34130D01*
Y48797D01*
D02*
G37*
G36*
X48769Y48837D02*
X48171D01*
Y47778D01*
X48769D01*
Y48837D01*
D02*
G37*
G36*
X9895Y46914D02*
X9790D01*
X9686Y46893D01*
X9589Y46853D01*
X9501Y46794D01*
X9426Y46720D01*
X9367Y46632D01*
X9327Y46534D01*
X9306Y46431D01*
Y46325D01*
X9327Y46222D01*
X9367Y46124D01*
X9426Y46036D01*
X9501Y45962D01*
X9589Y45903D01*
X9686Y45862D01*
X9790Y45842D01*
X9895D01*
X9999Y45862D01*
X10096Y45903D01*
X10184Y45962D01*
X10259Y46036D01*
X10318Y46124D01*
X10358Y46222D01*
X10379Y46325D01*
Y46431D01*
X10358Y46534D01*
X10318Y46632D01*
X10259Y46720D01*
X10184Y46794D01*
X10096Y46853D01*
X9999Y46893D01*
X9895Y46914D01*
D02*
G37*
G36*
X68950Y46914D02*
X68845D01*
X68741Y46893D01*
X68644Y46853D01*
X68556Y46794D01*
X68481Y46720D01*
X68423Y46632D01*
X68382Y46534D01*
X68362Y46431D01*
Y46325D01*
X68382Y46222D01*
X68423Y46124D01*
X68481Y46036D01*
X68556Y45962D01*
X68644Y45903D01*
X68741Y45862D01*
X68845Y45842D01*
X68950D01*
X69054Y45862D01*
X69152Y45903D01*
X69239Y45962D01*
X69314Y46036D01*
X69373Y46124D01*
X69413Y46222D01*
X69434Y46325D01*
Y46431D01*
X69413Y46534D01*
X69373Y46632D01*
X69314Y46720D01*
X69239Y46794D01*
X69152Y46853D01*
X69054Y46893D01*
X68950Y46914D01*
D02*
G37*
G36*
X32870Y43675D02*
X32716Y43660D01*
X32567Y43615D01*
X32430Y43542D01*
X32311Y43443D01*
X32212Y43323D01*
X32139Y43187D01*
X32094Y43038D01*
X32079Y42884D01*
X32094Y42730D01*
X32139Y42581D01*
X32212Y42444D01*
X32311Y42324D01*
X32430Y42226D01*
X32567Y42153D01*
X32716Y42108D01*
X32870Y42093D01*
X33024Y42108D01*
X33173Y42153D01*
X33310Y42226D01*
X33430Y42324D01*
X33528Y42444D01*
X33601Y42581D01*
X33646Y42730D01*
X33661Y42884D01*
X33646Y43038D01*
X33601Y43187D01*
X33528Y43323D01*
X33430Y43443D01*
X33310Y43542D01*
X33173Y43615D01*
X33024Y43660D01*
X32870Y43675D01*
D02*
G37*
G36*
X40972Y42003D02*
X40896Y41988D01*
X40831Y41944D01*
X40830Y41943D01*
X40367D01*
X40366Y41944D01*
X40301Y41988D01*
X40224Y42003D01*
X40148Y41988D01*
X40082Y41944D01*
X40039Y41879D01*
X40024Y41802D01*
X40024Y41801D01*
X39731Y41508D01*
X39701Y41462D01*
X39690Y41409D01*
Y41290D01*
X39654D01*
Y40975D01*
X39654D01*
Y40936D01*
X39654D01*
Y40621D01*
X39686D01*
X39714Y40571D01*
X39701Y40506D01*
X39716Y40429D01*
X39760Y40364D01*
X39825Y40321D01*
X39902Y40305D01*
X39978Y40321D01*
X40043Y40364D01*
X40087Y40429D01*
X40102Y40506D01*
X40095Y40543D01*
X40127Y40582D01*
X40441D01*
X40446Y40578D01*
X40480Y40542D01*
Y40503D01*
X40480D01*
Y40224D01*
X40477Y40218D01*
X40431Y40187D01*
X40378Y40198D01*
X40301Y40182D01*
X40292Y40176D01*
X40260Y40224D01*
X40195Y40268D01*
X40118Y40283D01*
X40041Y40268D01*
X39976Y40224D01*
X39932Y40159D01*
X39917Y40082D01*
X39932Y40005D01*
X39976Y39940D01*
X40041Y39897D01*
X40118Y39882D01*
X40195Y39897D01*
X40204Y39903D01*
X40236Y39855D01*
X40301Y39811D01*
X40378Y39796D01*
X40455Y39811D01*
X40500Y39842D01*
X40564Y39800D01*
X40641Y39784D01*
X40717Y39800D01*
X40783Y39843D01*
X40826Y39908D01*
X40841Y39985D01*
X40826Y40062D01*
X40783Y40127D01*
X40766Y40138D01*
X40781Y40188D01*
X40835D01*
X40835Y40149D01*
X41268D01*
Y40503D01*
Y40877D01*
X41445D01*
Y41389D01*
X40953D01*
Y41310D01*
X40900D01*
X40874Y41349D01*
X40874D01*
X40851Y41393D01*
X40863Y41410D01*
X40878Y41487D01*
X40863Y41564D01*
X40845Y41591D01*
X40881Y41627D01*
X40896Y41617D01*
X40972Y41602D01*
X41049Y41617D01*
X41114Y41660D01*
X41158Y41725D01*
X41173Y41802D01*
X41158Y41879D01*
X41114Y41944D01*
X41049Y41988D01*
X40972Y42003D01*
D02*
G37*
G36*
X35004Y41193D02*
X33386D01*
Y40575D01*
X35004D01*
Y41193D01*
D02*
G37*
G36*
X33254D02*
X31636D01*
Y40575D01*
X33254D01*
Y41193D01*
D02*
G37*
G36*
X35004Y40193D02*
X33386D01*
Y39575D01*
X35004D01*
Y40193D01*
D02*
G37*
G36*
X33254D02*
X31636D01*
Y39575D01*
X33254D01*
Y40193D01*
D02*
G37*
G36*
Y39193D02*
X31636D01*
Y38993D01*
X31444D01*
X31441Y38998D01*
X31434Y39016D01*
X31417Y39037D01*
X31412Y39046D01*
X31409Y39048D01*
X31403Y39056D01*
X31402Y39058D01*
X31398Y39062D01*
X31391Y39071D01*
X31380Y39079D01*
X31369Y39090D01*
X31363Y39093D01*
X31362Y39093D01*
X31358Y39099D01*
X31341Y39110D01*
X31336Y39113D01*
X31333Y39114D01*
X31322Y39121D01*
X31314Y39123D01*
X31307Y39128D01*
X31277Y39138D01*
X31272Y39140D01*
X31269Y39140D01*
X31267Y39141D01*
X31261Y39140D01*
X31247Y39143D01*
X31231Y39140D01*
X31227Y39140D01*
X31221Y39138D01*
X31212Y39136D01*
X31207Y39133D01*
X31207Y39133D01*
X31177Y39119D01*
X31141Y39136D01*
X31137Y39137D01*
X31135Y39138D01*
X31123Y39139D01*
X31118Y39140D01*
X31105Y39145D01*
X31096Y39142D01*
X31087Y39142D01*
X31040Y39127D01*
X31033Y39121D01*
X31024Y39120D01*
X30999Y39103D01*
X30995Y39097D01*
X30989Y39095D01*
X30978Y39084D01*
X30961Y39071D01*
X30943Y39047D01*
X30937Y39041D01*
X30936Y39038D01*
X30931Y39031D01*
X30929Y39030D01*
X30927Y39026D01*
X30919Y39016D01*
X30915Y39005D01*
X30906Y38991D01*
X30905Y38983D01*
X30900Y38977D01*
X30893Y38953D01*
X30892Y38951D01*
X30892Y38950D01*
X30889Y38940D01*
X30890Y38932D01*
X30889Y38927D01*
X30886Y38920D01*
X30887Y38910D01*
X30881Y38882D01*
X30888Y38851D01*
X30888Y38846D01*
X30888Y38833D01*
X30890Y38829D01*
X30892Y38815D01*
X30892Y38813D01*
X30902Y38785D01*
X30906Y38781D01*
X30907Y38778D01*
X30908Y38773D01*
X30912Y38766D01*
X30919Y38749D01*
X30936Y38728D01*
X30941Y38719D01*
X30944Y38717D01*
X30950Y38709D01*
X30951Y38707D01*
X30955Y38703D01*
X30961Y38694D01*
X30973Y38685D01*
X30984Y38675D01*
X30990Y38672D01*
X30991Y38672D01*
X30994Y38666D01*
X31012Y38655D01*
X31017Y38652D01*
X31020Y38651D01*
X31031Y38644D01*
X31039Y38642D01*
X31046Y38637D01*
X31076Y38627D01*
X31081Y38625D01*
X31084Y38625D01*
X31085Y38624D01*
X31092Y38625D01*
X31106Y38622D01*
X31122Y38625D01*
X31126Y38625D01*
X31131Y38627D01*
X31141Y38629D01*
X31145Y38632D01*
X31146Y38632D01*
X31176Y38646D01*
X31212Y38629D01*
X31216Y38628D01*
X31217Y38627D01*
X31230Y38626D01*
X31235Y38625D01*
X31247Y38620D01*
X31256Y38623D01*
X31266Y38623D01*
X31313Y38638D01*
X31320Y38644D01*
X31328Y38645D01*
X31354Y38662D01*
X31357Y38668D01*
X31364Y38670D01*
X31374Y38681D01*
X31391Y38694D01*
X31409Y38718D01*
X31416Y38724D01*
X31416Y38727D01*
X31422Y38734D01*
X31423Y38735D01*
X31426Y38739D01*
X31434Y38749D01*
X31438Y38760D01*
X31445Y38772D01*
X31636D01*
Y38575D01*
X33254D01*
Y39193D01*
D02*
G37*
G36*
X35004D02*
X33386D01*
Y38575D01*
X35004D01*
Y38774D01*
X35097D01*
X35119Y38741D01*
X35184Y38698D01*
X35261Y38683D01*
X35338Y38698D01*
X35403Y38741D01*
X35446Y38807D01*
X35462Y38883D01*
X35446Y38960D01*
X35403Y39025D01*
X35338Y39069D01*
X35261Y39084D01*
X35184Y39069D01*
X35119Y39025D01*
X35098Y38994D01*
X35004D01*
Y39193D01*
D02*
G37*
G36*
X47961Y34725D02*
Y34725D01*
X47951Y34725D01*
X47606D01*
Y34397D01*
X47573Y34375D01*
X47564Y34371D01*
X47556Y34371D01*
X47218D01*
X47191Y34389D01*
X47114Y34405D01*
X47037Y34389D01*
X46972Y34346D01*
X46929Y34281D01*
X46913Y34204D01*
X46929Y34127D01*
X46972Y34062D01*
X47037Y34018D01*
X47114Y34003D01*
X47191Y34018D01*
X47218Y34036D01*
X47556D01*
X47567Y34036D01*
X47612D01*
X47614Y33987D01*
X47614D01*
Y33554D01*
X47623D01*
X47647Y33510D01*
X47635Y33493D01*
X47620Y33416D01*
X47635Y33340D01*
X47679Y33274D01*
X47680Y33274D01*
Y33220D01*
X47691Y33166D01*
X47691Y33166D01*
Y33143D01*
X47693Y33136D01*
X47657Y33086D01*
X47449D01*
Y33220D01*
X47016D01*
Y32806D01*
X47035D01*
Y32727D01*
X46976D01*
Y32235D01*
X46996D01*
Y31822D01*
X47127D01*
X47173Y31812D01*
X47173Y31705D01*
X47020Y31552D01*
X46986Y31500D01*
X46973Y31438D01*
X46973Y31438D01*
Y31379D01*
X46937D01*
Y31372D01*
X46756D01*
X46719Y31397D01*
X46642Y31412D01*
X46565Y31397D01*
X46500Y31354D01*
X46456Y31288D01*
X46441Y31212D01*
X46456Y31135D01*
X46500Y31070D01*
X46565Y31026D01*
X46642Y31011D01*
X46710Y31025D01*
X46742Y31007D01*
X46751Y31001D01*
X46742Y30951D01*
X46610D01*
Y29970D01*
X46710D01*
Y29797D01*
X46610D01*
Y29044D01*
X46074Y28508D01*
X46019Y28510D01*
X46014Y28515D01*
X46023Y28581D01*
X46036Y28589D01*
X46079Y28655D01*
X46094Y28731D01*
X46087Y28767D01*
X46128Y28817D01*
X46130D01*
Y29797D01*
X46004D01*
Y29970D01*
X46130D01*
Y30951D01*
X45610D01*
Y29970D01*
X45783D01*
Y29797D01*
X45610D01*
Y28817D01*
X45659D01*
X45700Y28767D01*
X45693Y28731D01*
X45708Y28655D01*
X45752Y28589D01*
X45781Y28570D01*
X45783Y28562D01*
X45777Y28512D01*
X45756Y28498D01*
X45676D01*
X45130Y29044D01*
Y29797D01*
X45031D01*
Y29970D01*
X45130D01*
Y30951D01*
X44610D01*
Y29970D01*
X44710D01*
Y29797D01*
X44610D01*
Y28817D01*
X44903D01*
X45496Y28224D01*
X45496Y28224D01*
X45548Y28189D01*
X45609Y28177D01*
X45609Y28177D01*
X45756D01*
X45793Y28152D01*
X45870Y28137D01*
X45947Y28152D01*
X45984Y28177D01*
X46131D01*
X46131Y28177D01*
X46192Y28189D01*
X46245Y28224D01*
X46837Y28817D01*
X47130D01*
Y29147D01*
X47610D01*
Y28817D01*
X48130D01*
Y29797D01*
X48031D01*
Y29970D01*
X48130D01*
Y30906D01*
X48130Y30915D01*
X48131Y30918D01*
X48156Y30953D01*
X48175Y30955D01*
X48181Y30956D01*
X48195Y30956D01*
X48650D01*
Y31468D01*
X48157D01*
Y31468D01*
X48138Y31448D01*
X48079Y31448D01*
X48029Y31428D01*
X47923D01*
X47921Y31477D01*
X47921Y31478D01*
Y31812D01*
X47921Y31812D01*
X47921D01*
X47923Y31861D01*
X47980D01*
Y31861D01*
X48000Y31871D01*
X48354D01*
Y31871D01*
X48394D01*
Y31871D01*
X48748D01*
Y32206D01*
X48748Y32206D01*
X48755Y32236D01*
X48756Y32237D01*
X48772Y32314D01*
X48756Y32391D01*
X48736Y32421D01*
X48763Y32471D01*
X48927D01*
X48965Y32434D01*
Y32196D01*
X49398D01*
Y32727D01*
X49121Y32727D01*
X49121Y32727D01*
X49398D01*
Y33141D01*
X48965D01*
Y33141D01*
X48947Y33132D01*
X48904Y33161D01*
X48845Y33172D01*
X48826Y33178D01*
X48808Y33224D01*
X48809Y33227D01*
Y34036D01*
X48906D01*
Y34371D01*
X48756D01*
X48491Y34636D01*
X48456Y34660D01*
X48413Y34669D01*
X48354D01*
Y34725D01*
X48009D01*
X48000Y34725D01*
Y34725D01*
X47961D01*
D02*
G37*
G36*
X32870Y32675D02*
X32716Y32660D01*
X32567Y32615D01*
X32430Y32542D01*
X32311Y32443D01*
X32212Y32324D01*
X32139Y32187D01*
X32094Y32038D01*
X32079Y31884D01*
X32094Y31730D01*
X32139Y31581D01*
X32212Y31444D01*
X32311Y31324D01*
X32430Y31226D01*
X32567Y31153D01*
X32716Y31108D01*
X32870Y31093D01*
X33024Y31108D01*
X33173Y31153D01*
X33310Y31226D01*
X33430Y31324D01*
X33528Y31444D01*
X33601Y31581D01*
X33646Y31730D01*
X33661Y31884D01*
X33646Y32038D01*
X33601Y32187D01*
X33528Y32324D01*
X33430Y32443D01*
X33310Y32542D01*
X33173Y32615D01*
X33024Y32660D01*
X32870Y32675D01*
D02*
G37*
G36*
X44130Y30951D02*
X43610D01*
Y29970D01*
X44130D01*
Y30951D01*
D02*
G37*
G36*
X41130D02*
X40610D01*
Y29970D01*
X41130D01*
Y30951D01*
D02*
G37*
G36*
X35130Y30951D02*
X34610D01*
Y29970D01*
X35130D01*
Y30951D01*
D02*
G37*
G36*
X34130D02*
X33610D01*
Y29970D01*
X34130D01*
Y30951D01*
D02*
G37*
G36*
X42169Y30990D02*
X41571D01*
Y29931D01*
X42169D01*
Y30990D01*
D02*
G37*
G36*
X43169Y30990D02*
X42571D01*
Y29931D01*
X43169D01*
Y30990D01*
D02*
G37*
G36*
X53370Y30675D02*
X53216Y30660D01*
X53067Y30615D01*
X52930Y30542D01*
X52811Y30443D01*
X52712Y30324D01*
X52639Y30187D01*
X52594Y30038D01*
X52579Y29884D01*
X52594Y29730D01*
X52639Y29581D01*
X52712Y29444D01*
X52811Y29324D01*
X52930Y29226D01*
X53067Y29153D01*
X53216Y29108D01*
X53370Y29093D01*
X53524Y29108D01*
X53673Y29153D01*
X53810Y29226D01*
X53930Y29324D01*
X54028Y29444D01*
X54101Y29581D01*
X54146Y29730D01*
X54161Y29884D01*
X54146Y30038D01*
X54101Y30187D01*
X54028Y30324D01*
X53930Y30443D01*
X53810Y30542D01*
X53673Y30615D01*
X53524Y30660D01*
X53370Y30675D01*
D02*
G37*
G36*
X20870D02*
X20716Y30660D01*
X20567Y30615D01*
X20430Y30542D01*
X20311Y30443D01*
X20212Y30324D01*
X20139Y30187D01*
X20094Y30038D01*
X20079Y29884D01*
X20094Y29730D01*
X20139Y29581D01*
X20212Y29444D01*
X20311Y29324D01*
X20430Y29226D01*
X20567Y29153D01*
X20716Y29108D01*
X20870Y29093D01*
X21024Y29108D01*
X21173Y29153D01*
X21310Y29226D01*
X21430Y29324D01*
X21528Y29444D01*
X21601Y29581D01*
X21646Y29730D01*
X21661Y29884D01*
X21646Y30038D01*
X21601Y30187D01*
X21528Y30324D01*
X21430Y30443D01*
X21310Y30542D01*
X21173Y30615D01*
X21024Y30660D01*
X20870Y30675D01*
D02*
G37*
G36*
X44130Y29797D02*
X43610D01*
Y28817D01*
X44130D01*
Y29797D01*
D02*
G37*
G36*
X41130D02*
X40610D01*
Y28817D01*
X41130D01*
Y29797D01*
D02*
G37*
G36*
X36642Y32830D02*
X36565Y32814D01*
X36500Y32771D01*
X36456Y32706D01*
X36441Y32629D01*
X36456Y32552D01*
X36500Y32487D01*
X36507Y32482D01*
X36492Y32432D01*
X36465D01*
Y32117D01*
X36465D01*
Y32088D01*
X36465D01*
X36465Y31759D01*
X36425Y31733D01*
X36425Y31727D01*
Y31379D01*
X36425D01*
Y30966D01*
X36566D01*
X36610Y30951D01*
Y29970D01*
X36780D01*
Y29797D01*
X36610D01*
Y28817D01*
X37130D01*
Y29797D01*
X36960D01*
Y29970D01*
X37130D01*
Y30951D01*
X37126D01*
Y31005D01*
X37213D01*
Y31340D01*
X37213D01*
X37213Y31359D01*
X37213D01*
Y31694D01*
X37126D01*
Y31753D01*
X37213D01*
Y32078D01*
X37252D01*
Y32472D01*
X36845D01*
X36845Y32472D01*
X36845Y32472D01*
X36810Y32503D01*
X36802Y32515D01*
X36827Y32552D01*
X36842Y32629D01*
X36827Y32706D01*
X36784Y32771D01*
X36719Y32814D01*
X36642Y32830D01*
D02*
G37*
G36*
X36130D02*
X36053Y32814D01*
X35988Y32771D01*
X35944Y32706D01*
X35929Y32629D01*
X35944Y32552D01*
X35970Y32515D01*
X35962Y32504D01*
X35927Y32472D01*
Y32472D01*
X35520D01*
Y32078D01*
X35559D01*
Y31753D01*
X35646D01*
Y31694D01*
X35559D01*
Y31359D01*
X35559D01*
X35559Y31340D01*
X35559D01*
Y31005D01*
X35646D01*
Y30951D01*
X35610D01*
Y29970D01*
X35780D01*
Y29797D01*
X35610D01*
Y28817D01*
X36130D01*
Y29797D01*
X35960D01*
Y29970D01*
X36130D01*
Y30951D01*
X36174Y30966D01*
X36346D01*
Y31379D01*
X36346D01*
X36346Y31733D01*
X36307Y31759D01*
X36307Y31783D01*
Y32088D01*
X36307D01*
Y32117D01*
X36307D01*
Y32432D01*
X36280D01*
X36264Y32482D01*
X36272Y32487D01*
X36315Y32552D01*
X36331Y32629D01*
X36315Y32706D01*
X36272Y32771D01*
X36207Y32814D01*
X36130Y32830D01*
D02*
G37*
G36*
X35130Y29797D02*
X34610D01*
Y28817D01*
X35130D01*
Y29797D01*
D02*
G37*
G36*
X34130D02*
X33610D01*
Y28817D01*
X34130D01*
Y29797D01*
D02*
G37*
G36*
X43169Y29837D02*
X42571D01*
Y28778D01*
X43169D01*
Y29837D01*
D02*
G37*
G36*
X42169D02*
X41571D01*
Y28778D01*
X42169D01*
Y29837D01*
D02*
G37*
G36*
X39130Y30951D02*
X38610D01*
Y29970D01*
X38780D01*
Y29797D01*
X38610D01*
Y28817D01*
X38577Y28781D01*
X38433D01*
Y28367D01*
X38433D01*
Y28013D01*
X38472D01*
Y27698D01*
X38472D01*
Y27668D01*
X38472D01*
Y27364D01*
X38464Y27351D01*
X38449Y27275D01*
X38464Y27198D01*
X38508Y27133D01*
X38573Y27089D01*
X38650Y27074D01*
X38726Y27089D01*
X38792Y27133D01*
X38835Y27198D01*
X38850Y27275D01*
X38850Y27275D01*
X38882Y27314D01*
X39260D01*
Y27708D01*
X39220D01*
Y28033D01*
X39220D01*
X39220Y28052D01*
X39220D01*
Y28387D01*
X39220D01*
X39220Y28407D01*
X39220D01*
Y28741D01*
X39045D01*
Y28817D01*
X39130D01*
Y29797D01*
X38960D01*
Y29970D01*
X39130D01*
Y30951D01*
D02*
G37*
G36*
X38130D02*
X37610D01*
Y29970D01*
X37780D01*
Y29797D01*
X37610D01*
Y28817D01*
X37723D01*
Y28741D01*
X37567D01*
Y28407D01*
X37567D01*
X37567Y28387D01*
X37567D01*
Y28052D01*
X37567D01*
X37567Y28033D01*
X37567D01*
Y27708D01*
X37528D01*
Y27314D01*
X37906D01*
X37937Y27275D01*
X37937Y27275D01*
X37952Y27198D01*
X37996Y27133D01*
X38061Y27089D01*
X38138Y27074D01*
X38215Y27089D01*
X38280Y27133D01*
X38323Y27198D01*
X38338Y27275D01*
X38323Y27351D01*
X38315Y27364D01*
Y27668D01*
X38315D01*
Y27698D01*
X38315D01*
Y28013D01*
X38354D01*
Y28367D01*
X38354D01*
Y28781D01*
X38163D01*
X38130Y28817D01*
Y29797D01*
X37960D01*
Y29970D01*
X38130D01*
Y30951D01*
D02*
G37*
G36*
X59061Y27048D02*
X58974Y27036D01*
X58892Y27003D01*
X58822Y26949D01*
X58769Y26879D01*
X58735Y26798D01*
X58723Y26710D01*
X58735Y26623D01*
X58769Y26541D01*
X58822Y26472D01*
X58892Y26418D01*
X58974Y26384D01*
X59061Y26373D01*
X59148Y26384D01*
X59230Y26418D01*
X59300Y26472D01*
X59353Y26541D01*
X59387Y26623D01*
X59399Y26710D01*
X59387Y26798D01*
X59353Y26879D01*
X59300Y26949D01*
X59230Y27003D01*
X59148Y27036D01*
X59061Y27048D01*
D02*
G37*
G36*
X19731Y27045D02*
X19644Y27033D01*
X19562Y26999D01*
X19492Y26946D01*
X19439Y26876D01*
X19405Y26794D01*
X19393Y26707D01*
X19405Y26620D01*
X19439Y26538D01*
X19492Y26468D01*
X19562Y26415D01*
X19644Y26381D01*
X19731Y26369D01*
X19818Y26381D01*
X19900Y26415D01*
X19970Y26468D01*
X20023Y26538D01*
X20057Y26620D01*
X20068Y26707D01*
X20057Y26794D01*
X20023Y26876D01*
X19970Y26946D01*
X19900Y26999D01*
X19818Y27033D01*
X19731Y27045D01*
D02*
G37*
G36*
X40964Y26682D02*
X40887Y26667D01*
X40822Y26623D01*
X40778Y26558D01*
X40763Y26481D01*
X40778Y26405D01*
X40822Y26339D01*
X40887Y26296D01*
X40964Y26281D01*
X41041Y26296D01*
X41106Y26339D01*
X41149Y26405D01*
X41165Y26481D01*
X41149Y26558D01*
X41106Y26623D01*
X41041Y26667D01*
X40964Y26682D01*
D02*
G37*
G36*
X9895Y27229D02*
X9790D01*
X9686Y27208D01*
X9589Y27168D01*
X9501Y27109D01*
X9426Y27035D01*
X9367Y26947D01*
X9327Y26849D01*
X9306Y26746D01*
Y26640D01*
X9327Y26537D01*
X9367Y26439D01*
X9426Y26351D01*
X9501Y26277D01*
X9589Y26218D01*
X9686Y26177D01*
X9790Y26157D01*
X9895D01*
X9999Y26177D01*
X10096Y26218D01*
X10184Y26277D01*
X10259Y26351D01*
X10318Y26439D01*
X10358Y26537D01*
X10379Y26640D01*
Y26746D01*
X10358Y26849D01*
X10318Y26947D01*
X10259Y27035D01*
X10184Y27109D01*
X10096Y27168D01*
X9999Y27208D01*
X9895Y27229D01*
D02*
G37*
G36*
X68950Y27229D02*
X68845D01*
X68741Y27208D01*
X68644Y27168D01*
X68556Y27109D01*
X68481Y27034D01*
X68423Y26946D01*
X68382Y26849D01*
X68362Y26745D01*
Y26640D01*
X68382Y26536D01*
X68423Y26439D01*
X68481Y26351D01*
X68556Y26276D01*
X68644Y26217D01*
X68741Y26177D01*
X68845Y26156D01*
X68950D01*
X69054Y26177D01*
X69152Y26217D01*
X69239Y26276D01*
X69314Y26351D01*
X69373Y26439D01*
X69413Y26536D01*
X69434Y26640D01*
Y26745D01*
X69413Y26849D01*
X69373Y26946D01*
X69314Y27034D01*
X69239Y27109D01*
X69152Y27168D01*
X69054Y27208D01*
X68950Y27229D01*
D02*
G37*
G36*
X41507Y25533D02*
X41431Y25517D01*
X41365Y25474D01*
X41322Y25409D01*
X41307Y25332D01*
X41322Y25255D01*
X41365Y25190D01*
X41431Y25146D01*
X41507Y25131D01*
X41584Y25146D01*
X41649Y25190D01*
X41693Y25255D01*
X41708Y25332D01*
X41693Y25409D01*
X41649Y25474D01*
X41584Y25517D01*
X41507Y25533D01*
D02*
G37*
G36*
X56980Y25770D02*
X56632Y25422D01*
X56994Y25060D01*
X57342Y25408D01*
X56980Y25770D01*
D02*
G37*
G36*
X56327Y25507D02*
X56250Y25492D01*
X56185Y25448D01*
X56141Y25383D01*
X56126Y25306D01*
X56127Y25302D01*
X56095Y25265D01*
X55817Y24987D01*
X55577Y24747D01*
X55531Y24772D01*
X55543Y24834D01*
X55528Y24911D01*
X55484Y24976D01*
X55419Y25019D01*
X55343Y25034D01*
X55266Y25019D01*
X55201Y24976D01*
X55182Y24948D01*
X55132Y24943D01*
X54932Y25144D01*
X54908Y25184D01*
X54884Y25208D01*
X54629Y25462D01*
X54444Y25277D01*
X54396Y25291D01*
X54394Y25304D01*
X54350Y25369D01*
X54285Y25413D01*
X54208Y25428D01*
X54132Y25413D01*
X54066Y25369D01*
X54023Y25304D01*
X54008Y25227D01*
X54023Y25151D01*
X54060Y25095D01*
Y25031D01*
X54071Y24977D01*
X54101Y24931D01*
X54128Y24905D01*
X54101Y24877D01*
X54113Y24865D01*
X53905Y24657D01*
X52621D01*
X52568Y24647D01*
X52522Y24616D01*
X52510Y24604D01*
X52508Y24604D01*
X52431Y24589D01*
X52366Y24545D01*
X52322Y24480D01*
X52307Y24403D01*
X52322Y24327D01*
X52366Y24261D01*
X52431Y24218D01*
X52480Y24208D01*
X52490Y24155D01*
X52481Y24149D01*
X52437Y24084D01*
X52422Y24007D01*
X52437Y23930D01*
X52481Y23865D01*
X52546Y23822D01*
X52623Y23806D01*
X52700Y23822D01*
X52765Y23865D01*
X52808Y23930D01*
X52821Y23996D01*
X52835Y24009D01*
X53467D01*
X53468Y24008D01*
X53533Y23964D01*
X53610Y23949D01*
X53687Y23964D01*
X53752Y24008D01*
X53796Y24073D01*
X53811Y24150D01*
X53796Y24227D01*
X53752Y24292D01*
X53700Y24326D01*
X53715Y24376D01*
X53963D01*
X54016Y24387D01*
X54062Y24418D01*
X54311Y24667D01*
X54323Y24655D01*
X54370Y24702D01*
X54434Y24638D01*
X54379Y24583D01*
X54593Y24369D01*
X54592Y24366D01*
X54607Y24289D01*
X54651Y24224D01*
X54716Y24180D01*
X54793Y24165D01*
X54870Y24180D01*
X54935Y24224D01*
X54978Y24289D01*
X54994Y24366D01*
X54978Y24442D01*
X54935Y24508D01*
X54890Y24537D01*
X54891Y24594D01*
X55097Y24800D01*
X55152Y24784D01*
X55157Y24757D01*
X55201Y24692D01*
X55219Y24680D01*
X55188Y24634D01*
X55173Y24557D01*
X55188Y24480D01*
X55232Y24415D01*
X55297Y24371D01*
X55374Y24356D01*
X55451Y24371D01*
X55516Y24415D01*
X55559Y24480D01*
X55574Y24557D01*
X55562Y24619D01*
X55607Y24645D01*
X55814Y24438D01*
X55808Y24374D01*
X55798Y24368D01*
X55755Y24302D01*
X55739Y24226D01*
X55755Y24149D01*
X55798Y24084D01*
X55863Y24040D01*
X55940Y24025D01*
X56017Y24040D01*
X56082Y24084D01*
X56126Y24149D01*
X56134Y24191D01*
X56348Y24405D01*
X56322Y24431D01*
X56375Y24484D01*
X56401Y24458D01*
X56624Y24681D01*
X56611Y24693D01*
X56618Y24740D01*
X56911Y25033D01*
X56604Y25339D01*
X56571Y25305D01*
X56523Y25328D01*
X56512Y25383D01*
X56469Y25448D01*
X56404Y25492D01*
X56327Y25507D01*
D02*
G37*
G36*
X25450Y24738D02*
X25016D01*
X24963Y24727D01*
X24917Y24697D01*
X24854Y24634D01*
X24835Y24653D01*
X24612Y24430D01*
X24660Y24383D01*
X24609Y24333D01*
X24559Y24383D01*
X24337Y24160D01*
Y24160D01*
X24331Y24141D01*
X24289Y24133D01*
X24224Y24089D01*
X24180Y24024D01*
X24165Y23947D01*
X24180Y23871D01*
X24224Y23805D01*
X24289Y23762D01*
X24366Y23747D01*
X24442Y23762D01*
X24508Y23805D01*
X24531Y23840D01*
X24594Y23848D01*
X24834Y23607D01*
X24834Y23607D01*
X24834Y23607D01*
X24849Y23592D01*
X24824Y23546D01*
X24776Y23556D01*
X24699Y23541D01*
X24658Y23513D01*
X24642Y23537D01*
X24577Y23580D01*
X24500Y23595D01*
X24423Y23580D01*
X24358Y23537D01*
X24315Y23471D01*
X24299Y23395D01*
X24315Y23318D01*
X24358Y23253D01*
X24423Y23209D01*
X24500Y23194D01*
X24577Y23209D01*
X24618Y23237D01*
X24634Y23213D01*
X24684Y23179D01*
X24692Y23132D01*
X24692Y23131D01*
X24663Y23094D01*
X24456Y22887D01*
X24397Y22898D01*
X24368Y22942D01*
X24303Y22985D01*
X24226Y23001D01*
X24149Y22985D01*
X24084Y22942D01*
X24040Y22877D01*
X24025Y22800D01*
X24040Y22723D01*
X24084Y22658D01*
X24149Y22615D01*
X24172Y22610D01*
X24187Y22562D01*
X24179Y22555D01*
X24402Y22332D01*
X24449Y22379D01*
X24502Y22326D01*
X24455Y22279D01*
X24678Y22056D01*
X24739Y22117D01*
X24754Y22102D01*
X24790Y22078D01*
X24832Y22070D01*
X24966D01*
X25148Y21888D01*
X25454Y22194D01*
X25450Y22198D01*
X25451Y22209D01*
X25469Y22249D01*
X25532Y22262D01*
X25597Y22305D01*
X25640Y22370D01*
X25656Y22447D01*
X25640Y22524D01*
X25597Y22589D01*
X25532Y22632D01*
X25455Y22648D01*
X25378Y22632D01*
X25313Y22589D01*
X25312Y22587D01*
X25255Y22592D01*
X24984Y22864D01*
X24736Y23111D01*
X24740Y23119D01*
X24740D01*
X24768Y23156D01*
X24776Y23155D01*
X24852Y23170D01*
X24918Y23213D01*
X24961Y23278D01*
X24976Y23355D01*
X24961Y23432D01*
X24918Y23497D01*
X24910Y23502D01*
X24872Y23529D01*
Y23529D01*
X24872D01*
X24874Y23584D01*
X24894Y23604D01*
X25139Y23848D01*
X25141Y23846D01*
X25420Y24124D01*
X25137Y24407D01*
X25157Y24457D01*
X25392D01*
X25459Y24390D01*
X25472Y24324D01*
X25516Y24259D01*
X25581Y24215D01*
X25657Y24200D01*
X25734Y24215D01*
X25799Y24259D01*
X25843Y24324D01*
X25858Y24401D01*
X25843Y24477D01*
X25799Y24543D01*
X25734Y24586D01*
X25657Y24601D01*
X25647Y24599D01*
X25549Y24697D01*
X25504Y24727D01*
X25450Y24738D01*
D02*
G37*
G36*
X25537Y22166D02*
X25175Y21804D01*
X25523Y21456D01*
X25885Y21818D01*
X25537Y22166D01*
D02*
G37*
G36*
X59058Y20534D02*
X58971Y20522D01*
X58889Y20489D01*
X58820Y20435D01*
X58766Y20365D01*
X58732Y20284D01*
X58721Y20196D01*
X58732Y20109D01*
X58766Y20028D01*
X58820Y19958D01*
X58889Y19904D01*
X58971Y19870D01*
X59058Y19859D01*
X59146Y19870D01*
X59227Y19904D01*
X59297Y19958D01*
X59351Y20028D01*
X59384Y20109D01*
X59396Y20196D01*
X59384Y20284D01*
X59351Y20365D01*
X59297Y20435D01*
X59227Y20489D01*
X59146Y20522D01*
X59058Y20534D01*
D02*
G37*
G36*
X52033Y20068D02*
X51946Y20057D01*
X51864Y20023D01*
X51794Y19970D01*
X51741Y19900D01*
X51707Y19818D01*
X51696Y19731D01*
X51707Y19644D01*
X51741Y19562D01*
X51794Y19492D01*
X51864Y19439D01*
X51946Y19405D01*
X52033Y19393D01*
X52120Y19405D01*
X52202Y19439D01*
X52272Y19492D01*
X52325Y19562D01*
X52359Y19644D01*
X52371Y19731D01*
X52359Y19818D01*
X52325Y19900D01*
X52272Y19970D01*
X52202Y20023D01*
X52120Y20057D01*
X52033Y20068D01*
D02*
G37*
G36*
X20196Y20019D02*
X20109Y20008D01*
X20028Y19974D01*
X19958Y19921D01*
X19904Y19851D01*
X19870Y19769D01*
X19859Y19682D01*
X19870Y19595D01*
X19904Y19513D01*
X19958Y19443D01*
X20028Y19390D01*
X20109Y19356D01*
X20196Y19344D01*
X20284Y19356D01*
X20365Y19390D01*
X20435Y19443D01*
X20489Y19513D01*
X20522Y19595D01*
X20534Y19682D01*
X20522Y19769D01*
X20489Y19851D01*
X20435Y19921D01*
X20365Y19974D01*
X20284Y20008D01*
X20196Y20019D01*
D02*
G37*
G36*
X26710Y20017D02*
X26623Y20005D01*
X26541Y19971D01*
X26472Y19918D01*
X26418Y19848D01*
X26384Y19767D01*
X26373Y19679D01*
X26384Y19592D01*
X26418Y19510D01*
X26472Y19440D01*
X26541Y19387D01*
X26623Y19353D01*
X26710Y19342D01*
X26798Y19353D01*
X26879Y19387D01*
X26949Y19440D01*
X27003Y19510D01*
X27036Y19592D01*
X27048Y19679D01*
X27036Y19767D01*
X27003Y19848D01*
X26949Y19918D01*
X26879Y19971D01*
X26798Y20005D01*
X26710Y20017D01*
D02*
G37*
G36*
X68950Y7544D02*
X68845D01*
X68741Y7523D01*
X68644Y7483D01*
X68556Y7424D01*
X68481Y7350D01*
X68423Y7262D01*
X68382Y7164D01*
X68362Y7061D01*
Y6955D01*
X68382Y6852D01*
X68423Y6754D01*
X68481Y6666D01*
X68556Y6592D01*
X68644Y6533D01*
X68741Y6493D01*
X68845Y6472D01*
X68950D01*
X69054Y6493D01*
X69152Y6533D01*
X69239Y6592D01*
X69314Y6666D01*
X69373Y6754D01*
X69413Y6852D01*
X69434Y6955D01*
Y7061D01*
X69413Y7164D01*
X69373Y7262D01*
X69314Y7350D01*
X69239Y7424D01*
X69152Y7483D01*
X69054Y7523D01*
X68950Y7544D01*
D02*
G37*
G36*
X29580Y7544D02*
X29475D01*
X29371Y7523D01*
X29274Y7483D01*
X29186Y7424D01*
X29111Y7350D01*
X29052Y7262D01*
X29012Y7164D01*
X28991Y7061D01*
Y6955D01*
X29012Y6852D01*
X29052Y6754D01*
X29111Y6666D01*
X29186Y6591D01*
X29274Y6533D01*
X29371Y6492D01*
X29475Y6472D01*
X29580D01*
X29684Y6492D01*
X29781Y6533D01*
X29869Y6591D01*
X29944Y6666D01*
X30003Y6754D01*
X30043Y6852D01*
X30064Y6955D01*
Y7061D01*
X30043Y7164D01*
X30003Y7262D01*
X29944Y7350D01*
X29869Y7424D01*
X29781Y7483D01*
X29684Y7523D01*
X29580Y7544D01*
D02*
G37*
G36*
X9895D02*
X9790D01*
X9686Y7523D01*
X9589Y7483D01*
X9501Y7424D01*
X9426Y7350D01*
X9367Y7262D01*
X9327Y7164D01*
X9306Y7061D01*
Y6955D01*
X9327Y6852D01*
X9367Y6754D01*
X9426Y6666D01*
X9501Y6591D01*
X9589Y6533D01*
X9686Y6492D01*
X9790Y6472D01*
X9895D01*
X9999Y6492D01*
X10096Y6533D01*
X10184Y6591D01*
X10259Y6666D01*
X10318Y6754D01*
X10358Y6852D01*
X10379Y6955D01*
Y7061D01*
X10358Y7164D01*
X10318Y7262D01*
X10259Y7350D01*
X10184Y7424D01*
X10096Y7483D01*
X9999Y7523D01*
X9895Y7544D01*
D02*
G37*
G36*
X49265Y7544D02*
X49160D01*
X49056Y7523D01*
X48959Y7483D01*
X48871Y7424D01*
X48796Y7349D01*
X48738Y7262D01*
X48697Y7164D01*
X48677Y7060D01*
Y6955D01*
X48697Y6851D01*
X48738Y6754D01*
X48796Y6666D01*
X48871Y6591D01*
X48959Y6533D01*
X49056Y6492D01*
X49160Y6472D01*
X49265D01*
X49369Y6492D01*
X49467Y6533D01*
X49554Y6591D01*
X49629Y6666D01*
X49688Y6754D01*
X49728Y6851D01*
X49749Y6955D01*
Y7060D01*
X49728Y7164D01*
X49688Y7262D01*
X49629Y7349D01*
X49554Y7424D01*
X49467Y7483D01*
X49369Y7523D01*
X49265Y7544D01*
D02*
G37*
G36*
X75984Y3705D02*
X75799Y3687D01*
X75621Y3633D01*
X75457Y3545D01*
X75313Y3427D01*
X75195Y3283D01*
X75107Y3119D01*
X75053Y2941D01*
X75035Y2756D01*
X75053Y2571D01*
X75107Y2393D01*
X75195Y2228D01*
X75313Y2085D01*
X75457Y1966D01*
X75621Y1879D01*
X75799Y1825D01*
X75984Y1806D01*
X76169Y1825D01*
X76348Y1879D01*
X76512Y1966D01*
X76656Y2085D01*
X76774Y2228D01*
X76861Y2393D01*
X76915Y2571D01*
X76934Y2756D01*
X76915Y2941D01*
X76861Y3119D01*
X76774Y3283D01*
X76656Y3427D01*
X76512Y3545D01*
X76348Y3633D01*
X76169Y3687D01*
X75984Y3705D01*
D02*
G37*
G36*
X2756D02*
X2571Y3687D01*
X2393Y3633D01*
X2228Y3545D01*
X2085Y3427D01*
X1966Y3283D01*
X1879Y3119D01*
X1825Y2941D01*
X1806Y2756D01*
X1825Y2571D01*
X1879Y2393D01*
X1966Y2228D01*
X2085Y2085D01*
X2228Y1966D01*
X2393Y1879D01*
X2571Y1825D01*
X2756Y1806D01*
X2941Y1825D01*
X3119Y1879D01*
X3283Y1966D01*
X3427Y2085D01*
X3545Y2228D01*
X3633Y2393D01*
X3687Y2571D01*
X3705Y2756D01*
X3687Y2941D01*
X3633Y3119D01*
X3545Y3283D01*
X3427Y3427D01*
X3283Y3545D01*
X3119Y3633D01*
X2941Y3687D01*
X2756Y3705D01*
D02*
G37*
%LPD*%
G36*
X31136Y39053D02*
Y38713D01*
X31124Y38692D01*
X31104Y38685D01*
X31065Y38698D01*
X31028Y38720D01*
X30995Y38752D01*
X30962Y38806D01*
X30952Y38834D01*
X30950Y38921D01*
X30961Y38958D01*
X30984Y38997D01*
X31005Y39020D01*
X31034Y39049D01*
X31060Y39066D01*
X31106Y39081D01*
X31136Y39053D01*
D02*
G37*
G36*
X31288Y39067D02*
X31324Y39044D01*
X31357Y39012D01*
X31390Y38958D01*
X31400Y38930D01*
X31402Y38843D01*
X31391Y38806D01*
X31368Y38767D01*
X31347Y38744D01*
X31318Y38715D01*
X31293Y38699D01*
X31246Y38683D01*
X31217Y38712D01*
Y39052D01*
X31228Y39072D01*
X31248Y39079D01*
X31288Y39067D01*
D02*
G37*
D10*
X38650Y27275D02*
X38650Y27275D01*
X38650Y27275D02*
Y27511D01*
X38138Y27275D02*
Y27511D01*
Y27865D01*
X38650Y27511D02*
Y27865D01*
X36130Y32275D02*
Y32629D01*
Y31920D02*
Y32275D01*
X36642Y31920D02*
Y32275D01*
Y32629D02*
X36642Y32629D01*
X36642Y32275D02*
Y32629D01*
X35736Y31172D02*
X35736Y31172D01*
X35736Y30594D02*
Y31172D01*
Y30594D02*
X35870Y30461D01*
X35736Y31172D02*
Y31527D01*
X35736D02*
X35736D01*
Y31920D01*
X37035Y30626D02*
Y31172D01*
X36870Y30461D02*
X37035Y30626D01*
X37035Y31527D02*
Y31920D01*
Y31172D02*
Y31527D01*
X37035Y31172D02*
X37035Y31172D01*
X36870Y29307D02*
Y30461D01*
X35870Y29307D02*
Y30461D01*
X38870Y29307D02*
Y30461D01*
X37870Y29307D02*
Y30461D01*
X39004Y27905D02*
Y28220D01*
Y27905D02*
X39043Y27865D01*
X39004Y28259D02*
X39043Y28220D01*
X39004Y28535D02*
X39043Y28574D01*
X39004Y28259D02*
Y28535D01*
X39024Y28574D02*
X39043D01*
X38955Y28643D02*
X39024Y28574D01*
X38955Y28643D02*
Y29222D01*
X38870Y29307D02*
X38955Y29222D01*
X37744Y27865D02*
Y28574D01*
X37813Y28643D01*
Y29250D01*
X37870Y29307D01*
X47821Y33202D02*
Y33220D01*
Y33202D02*
X47850Y33172D01*
X47860D01*
D11*
X31106Y39052D02*
G03*
X31106Y38713I44J-170D01*
G01*
X31247D02*
G03*
X31247Y39052I-44J170D01*
G01*
X32444Y38882D02*
X32445Y38884D01*
D14*
X36130Y31172D02*
D03*
X35736D02*
D03*
X36642Y31172D02*
D03*
X37035D02*
D03*
X38138Y28574D02*
D03*
X37744D02*
D03*
X38650D02*
D03*
X39043D02*
D03*
X47783Y34558D02*
D03*
X48177D02*
D03*
X48728Y34204D02*
D03*
X48335D02*
D03*
X47744Y31645D02*
D03*
X47350D02*
D03*
X47390Y34204D02*
D03*
X47783D02*
D03*
X48571Y32038D02*
D03*
X48177D02*
D03*
X39043Y28220D02*
D03*
X38650D02*
D03*
X37744D02*
D03*
X38138D02*
D03*
X37035Y31527D02*
D03*
X36642D02*
D03*
X35736Y31527D02*
D03*
X36130D02*
D03*
X39043Y27865D02*
D03*
X38650D02*
D03*
X37744D02*
D03*
X38138D02*
D03*
X37035Y31920D02*
D03*
X36642D02*
D03*
X35736D02*
D03*
X36130D02*
D03*
X47114Y31212D02*
D03*
X47508D02*
D03*
D20*
X23865Y53907D02*
D03*
X24143Y54186D02*
D03*
X24694Y22847D02*
D03*
X24416Y22569D02*
D03*
X54894Y24875D02*
D03*
X54616Y24597D02*
D03*
X54022Y55876D02*
D03*
X54301Y56154D02*
D03*
X54025Y56430D02*
D03*
X53747Y56151D02*
D03*
X54337Y24891D02*
D03*
X54616Y25170D02*
D03*
X24692Y22293D02*
D03*
X24970Y22571D02*
D03*
X24419Y53910D02*
D03*
X24140Y53632D02*
D03*
D22*
X22883Y54025D02*
D03*
X22605Y54304D02*
D03*
X24852Y23868D02*
D03*
X24573Y24146D02*
D03*
X55833Y24697D02*
D03*
X56112Y24419D02*
D03*
X53865Y54855D02*
D03*
X54143Y54576D02*
D03*
X53868Y54301D02*
D03*
X53589Y54579D02*
D03*
X24849Y24416D02*
D03*
X25127Y24138D02*
D03*
X22329Y53989D02*
D03*
X22608Y53710D02*
D03*
X56387Y24695D02*
D03*
X56109Y24973D02*
D03*
D64*
X40657Y40346D02*
G03*
X40641Y40305I41J-41D01*
G01*
X40657Y40700D02*
G03*
X40667Y40724I-24J24D01*
G01*
X24226Y22800D02*
X24242Y22784D01*
Y22743D02*
X24416Y22569D01*
X24242Y22743D02*
Y22784D01*
X24870Y23023D02*
X24988D01*
X24694Y22847D02*
X24694D01*
X24870Y23023D01*
X22329Y53989D02*
X22605Y54264D01*
Y54304D01*
X24705Y22307D02*
X24832Y22180D01*
X40641Y39985D02*
Y40305D01*
X22070Y53686D02*
X22329Y53945D01*
X40657Y40346D02*
Y40700D01*
X40667Y40724D02*
Y41133D01*
X22070Y53686D02*
X22184Y53572D01*
X48728Y34204D02*
Y34243D01*
X48413Y34558D02*
X48728Y34243D01*
X48177Y34558D02*
X48413D01*
X48699Y33227D02*
Y34174D01*
X48728Y34204D01*
X48644Y33172D02*
X48699Y33227D01*
X48565Y33172D02*
X48644D01*
X47270Y32975D02*
X47860D01*
X47232Y33013D02*
X47270Y32975D01*
X47547Y32472D02*
Y32747D01*
X48470Y47692D02*
Y50076D01*
X41870Y30461D02*
Y31076D01*
Y29307D02*
Y30461D01*
Y28692D02*
Y29307D01*
X42870Y28692D02*
Y30461D01*
X47605Y32779D02*
X47860D01*
X47574Y32747D02*
X47605Y32779D01*
X47547Y32747D02*
X47574D01*
X45894Y28731D02*
Y30437D01*
X25530Y21811D02*
X25776Y21566D01*
X24832Y22180D02*
X25148D01*
X25155Y22187D01*
X24692Y22293D02*
X24705Y22307D01*
X22329Y53945D02*
Y53989D01*
X37429Y27511D02*
X37744D01*
X39043D02*
X39358D01*
X37035Y32275D02*
X37350D01*
X35421D02*
X35736D01*
X23925Y53416D02*
X24140Y53632D01*
X23650Y53692D02*
X23865Y53907D01*
X23697Y54078D02*
Y54196D01*
X23689Y54204D02*
X23697Y54196D01*
Y54078D02*
X23865Y53910D01*
Y53907D02*
Y53910D01*
X22605Y54304D02*
X22800Y54499D01*
Y54514D01*
X24143Y54186D02*
X24143D01*
X24419Y53910D01*
X23954Y54375D02*
X24143Y54186D01*
X23947Y54375D02*
X23954D01*
X24970Y22571D02*
X25185Y22786D01*
X24416Y22569D02*
X24692Y22293D01*
X25127Y24138D02*
X25133D01*
X25343Y23928D01*
X25048Y23671D02*
X25206D01*
X25224Y23653D01*
X24852Y23868D02*
X25048Y23671D01*
X24366Y23947D02*
X24564Y24146D01*
X24573D01*
X24579D01*
X24849Y24416D01*
X54337Y24891D02*
X54616Y24613D01*
Y24597D02*
Y24613D01*
Y24543D02*
Y24597D01*
Y24543D02*
X54793Y24366D01*
X55940Y24226D02*
Y24237D01*
X56112Y24408D01*
Y24419D01*
X54616Y25170D02*
X54831Y25385D01*
X54894Y24875D02*
X54912D01*
X55106Y25070D01*
X55697Y25031D02*
X55716Y25012D01*
Y24885D02*
Y25012D01*
Y24885D02*
X55833Y24767D01*
Y24697D02*
Y24767D01*
X55894Y25188D02*
X56109Y24973D01*
X56987Y25494D02*
X57154Y25661D01*
X56987Y25415D02*
Y25494D01*
X53807Y55661D02*
X53807D01*
X54022Y55876D01*
X53531Y55936D02*
X53747Y56151D01*
X54301Y56154D02*
X54514Y55940D01*
Y55940D02*
Y55940D01*
X53868Y54301D02*
X54143Y54576D01*
X54360Y54793D01*
X54375D01*
X40126Y40362D02*
Y40389D01*
X40224Y40487D01*
Y40779D01*
Y41133D01*
X39883Y40525D02*
X39902Y40506D01*
X39883Y40525D02*
Y40729D01*
X39833Y40779D02*
X39883Y40729D01*
X39831Y40779D02*
X39833D01*
X36366Y31527D02*
X36642D01*
X36130D02*
X36366D01*
Y31172D02*
X36642D01*
X38374Y28574D02*
X38650D01*
X38138D02*
X38374D01*
X38374Y28220D02*
X38650D01*
X38138D02*
X38374D01*
X41199Y41133D02*
X41484D01*
X41051Y40346D02*
X41366D01*
X41051Y40700D02*
X41366D01*
X36130Y31172D02*
X36366D01*
X36642D02*
X36642Y31172D01*
Y31527D02*
X36642Y31527D01*
X49171Y32934D02*
X49181D01*
X49006Y32769D02*
X49171Y32934D01*
X45870Y30461D02*
X45894Y30437D01*
X48575Y32769D02*
X49006D01*
X49152Y32403D02*
X49161D01*
X48972Y32582D02*
X49152Y32403D01*
X48565Y32582D02*
X48972D01*
X48565Y32779D02*
X48575Y32769D01*
X48565Y32975D02*
X48807D01*
X42870Y30461D02*
Y31076D01*
X30735Y38883D02*
X30736Y38882D01*
X31043D01*
X31309Y38882D02*
X32444D01*
X35253Y38883D02*
X35261D01*
X35252Y38884D02*
X35253Y38883D01*
X34195Y38884D02*
X35252D01*
D66*
X48344Y33780D02*
X48352Y33771D01*
X48344Y33780D02*
Y34195D01*
X48335Y34204D02*
X48344Y34195D01*
X48098Y34204D02*
X48335D01*
X48335Y34204D01*
X47114Y31212D02*
X47124D01*
X46642D02*
X47114D01*
X46917Y32078D02*
X47242D01*
X48217Y32393D02*
Y32873D01*
X48213Y32877D02*
X48217Y32873D01*
X47823Y32127D02*
Y32466D01*
X47774Y32078D02*
X47823Y32127D01*
X47744Y31645D02*
X47749D01*
X47759Y31655D01*
Y32063D01*
X47774Y32078D01*
X47341Y31645D02*
X47350D01*
X47134Y31438D02*
X47341Y31645D01*
X47134Y31222D02*
Y31438D01*
X47124Y31212D02*
X47134Y31222D01*
X47508Y31212D02*
X47872D01*
X47237Y32083D02*
X47242Y32078D01*
X47237Y32083D02*
Y32457D01*
X47252Y32472D01*
X47547D01*
X48232Y33338D02*
X48402Y33507D01*
X47242Y32472D02*
X47252D01*
X47232Y32481D02*
X47242Y32472D01*
X48217Y32881D02*
Y33338D01*
X48213Y32877D02*
X48217Y32881D01*
X47870Y29307D02*
Y30461D01*
X46870Y29307D02*
X47870D01*
X44870D02*
Y30461D01*
Y29077D02*
Y29307D01*
Y29077D02*
X45609Y28338D01*
X46870Y30461D02*
X47870D01*
X46870Y29307D02*
Y30461D01*
X45870Y28338D02*
X46131D01*
X45609D02*
X45870D01*
X46131D02*
X46870Y29077D01*
Y29307D01*
X47870Y30461D02*
X47871Y30462D01*
Y31211D01*
X47872Y31212D01*
X48404D02*
X48689D01*
X48217Y33338D02*
X48232D01*
X48402Y33507D02*
X48492Y33416D01*
X48402Y33507D02*
Y33722D01*
X48352Y33771D02*
X48402Y33722D01*
D67*
X40667Y41133D02*
G03*
X40677Y41157I-24J24D01*
G01*
X53743Y54204D02*
X53854Y54315D01*
X24863Y24402D02*
Y24444D01*
X56373Y24708D02*
X56611Y24946D01*
X22608Y53710D02*
X22823Y53495D01*
X47783Y34204D02*
Y34558D01*
Y34204D02*
X47802Y34185D01*
Y33789D02*
Y34185D01*
Y33789D02*
X47821Y33771D01*
Y33416D02*
Y33771D01*
X47114Y34204D02*
X47390D01*
X21487Y52874D02*
X21808Y53196D01*
X52744Y56566D02*
X53011Y56833D01*
X53068D01*
X52862Y57067D02*
Y57078D01*
Y57067D02*
X53068Y56861D01*
Y56833D02*
Y56861D01*
X25195Y22187D02*
X25455Y22447D01*
X25155Y22187D02*
X25195D01*
X22195Y53572D02*
X22429Y53338D01*
X22184Y53572D02*
X22195D01*
X24419Y53907D02*
X24555Y53771D01*
X24419Y53907D02*
Y53910D01*
X24555Y53506D02*
Y53771D01*
X24437Y53388D02*
X24555Y53506D01*
X24437Y53377D02*
Y53388D01*
X24431Y53383D02*
X24437Y53377D01*
X24405Y53896D02*
X24419Y53910D01*
X23052Y53739D02*
X23059Y53731D01*
X23052Y53739D02*
Y53829D01*
X22883Y53997D02*
X23052Y53829D01*
X22883Y53997D02*
Y54025D01*
X25016Y24598D02*
X25450D01*
X24863Y24444D02*
X25016Y24598D01*
X25450D02*
X25647Y24401D01*
X24849Y24416D02*
X24863Y24402D01*
X25647Y24401D02*
X25657D01*
X53963Y24517D02*
X54337Y24891D01*
X54201Y25031D02*
X54337Y24894D01*
Y24891D02*
Y24894D01*
X54201Y25031D02*
Y25220D01*
X54208Y25227D01*
X56611Y24946D02*
Y25040D01*
X52621Y24517D02*
X53963D01*
X54208Y25227D02*
X54216Y25220D01*
X56373Y24708D02*
X56387Y24695D01*
X56112Y24419D02*
X56387Y24695D01*
X56327Y25306D02*
X56336D01*
X56602Y25040D01*
X56611D01*
X54025Y56430D02*
X54301Y56154D01*
X54011Y56416D02*
X54025Y56430D01*
X53983Y56416D02*
X54011D01*
X53935Y56464D02*
X53983Y56416D01*
X53451Y56464D02*
X53935D01*
X53444Y56457D02*
X53451Y56464D01*
X53138Y56212D02*
X53148D01*
X53394Y56457D01*
X53444D01*
X53413Y54204D02*
X53743D01*
X39831Y41133D02*
Y41409D01*
Y40779D02*
Y41133D01*
X53854Y54315D02*
X53868Y54301D01*
X53413Y54755D02*
X53589Y54579D01*
X53689Y55031D02*
X53865Y54855D01*
X40224Y41802D02*
X40972D01*
X39831Y41409D02*
X40224Y41802D01*
X40677Y41157D02*
Y41487D01*
X52634Y24007D02*
X52776Y24150D01*
X52623Y24007D02*
X52634D01*
X52776Y24150D02*
X53610D01*
X52508Y24403D02*
X52621Y24517D01*
X47821Y33220D02*
Y33416D01*
D68*
X47774Y32078D02*
X47793Y32058D01*
X48157D01*
X48177Y32038D01*
X48571Y32038D02*
Y32314D01*
Y32038D02*
X48571Y32038D01*
X47860Y32503D02*
Y32582D01*
D70*
X39276Y55902D02*
D03*
D71*
X40276Y56902D02*
D03*
X38276D02*
D03*
Y54902D02*
D03*
X40276D02*
D03*
D72*
X2756Y2756D02*
D03*
X75984D02*
D03*
Y75984D02*
D03*
X2756D02*
D03*
D73*
X32870Y31884D02*
D03*
Y42884D02*
D03*
X53370Y29884D02*
D03*
X52870Y48884D02*
D03*
X20870Y29884D02*
D03*
D74*
X24226Y22800D02*
D03*
X24988Y23023D02*
D03*
X41507Y23757D02*
D03*
X39909Y23762D02*
D03*
X38850Y23757D02*
D03*
X37252Y23762D02*
D03*
X22823Y53495D02*
D03*
X58839Y27045D02*
D03*
X58413Y27045D02*
D03*
X58413Y26619D02*
D03*
X59061Y26710D02*
D03*
X47429Y33889D02*
D03*
X42862Y39755D02*
D03*
X44831Y37826D02*
D03*
X46996Y36960D02*
D03*
X46563Y34204D02*
D03*
X46996Y34794D02*
D03*
X48098Y34204D02*
D03*
X47114D02*
D03*
X48571Y32314D02*
D03*
X46917Y32078D02*
D03*
X46642Y31212D02*
D03*
X47547Y32472D02*
D03*
Y32747D02*
D03*
X52427Y49687D02*
D03*
X21453Y30567D02*
D03*
X27486Y27013D02*
D03*
X28176Y27709D02*
D03*
X26643Y26152D02*
D03*
X25724Y25243D02*
D03*
X54398Y21448D02*
D03*
X54043Y21133D02*
D03*
X53413Y57117D02*
D03*
X56563Y57668D02*
D03*
X56996Y53416D02*
D03*
X57665Y53928D02*
D03*
X51705Y20372D02*
D03*
X51706Y19946D02*
D03*
X52131Y20372D02*
D03*
X20330Y58453D02*
D03*
X19904Y58878D02*
D03*
X20330Y58879D02*
D03*
X19901Y51695D02*
D03*
X20327Y52122D02*
D03*
X20328Y51695D02*
D03*
X27035Y58368D02*
D03*
X26609Y58368D02*
D03*
X27035Y58794D02*
D03*
X20372Y26609D02*
D03*
X20372Y27035D02*
D03*
X19946Y27035D02*
D03*
X20281Y20337D02*
D03*
X19862Y19904D02*
D03*
X19854Y20337D02*
D03*
X27045Y19901D02*
D03*
X26619Y20327D02*
D03*
X27045Y20328D02*
D03*
X58410Y20288D02*
D03*
X58836Y19862D02*
D03*
X58410Y19861D02*
D03*
X58794Y51706D02*
D03*
X58368Y52131D02*
D03*
X58368Y51705D02*
D03*
X51688Y58832D02*
D03*
X52115Y58406D02*
D03*
X51688Y58406D02*
D03*
X58453Y58410D02*
D03*
X58878Y58836D02*
D03*
X58879Y58410D02*
D03*
X52037Y59068D02*
D03*
X26707Y59009D02*
D03*
X19679Y52030D02*
D03*
X19682Y58544D02*
D03*
X19731Y26707D02*
D03*
X20196Y19682D02*
D03*
X26710Y19679D02*
D03*
X52033Y19731D02*
D03*
X59058Y20196D02*
D03*
X59023Y52047D02*
D03*
X58537Y59065D02*
D03*
X54163Y57608D02*
D03*
X52823Y58947D02*
D03*
X39370Y39377D02*
D03*
X55343Y23398D02*
D03*
X39802Y39380D02*
D03*
X39365Y37983D02*
D03*
X40618Y39519D02*
D03*
X40146Y38613D02*
D03*
X38638Y38608D02*
D03*
X39373Y39804D02*
D03*
X25455Y22447D02*
D03*
X25579Y21409D02*
D03*
X21366Y53101D02*
D03*
X22429Y53338D02*
D03*
X38650Y27275D02*
D03*
X38138D02*
D03*
X36130Y32629D02*
D03*
X36642D02*
D03*
X24437Y53377D02*
D03*
X54208Y25227D02*
D03*
X57154Y25661D02*
D03*
X56327Y25306D02*
D03*
X53138Y56212D02*
D03*
X52862Y57078D02*
D03*
X53413Y54204D02*
D03*
Y54755D02*
D03*
X53689Y55031D02*
D03*
X53531Y55936D02*
D03*
X40972Y41802D02*
D03*
X40224D02*
D03*
X40677Y41487D02*
D03*
X23020Y58771D02*
D03*
X55106D02*
D03*
X58846Y55818D02*
D03*
Y23731D02*
D03*
X23610Y19794D02*
D03*
X55697D02*
D03*
X49791D02*
D03*
X45067D02*
D03*
X38768D02*
D03*
X32469D02*
D03*
X30106Y58771D02*
D03*
X34831D02*
D03*
X39555D02*
D03*
X44280D02*
D03*
X48807D02*
D03*
X52783Y27314D02*
D03*
X50815Y29204D02*
D03*
X56681Y26015D02*
D03*
X56957Y23101D02*
D03*
X54752Y21763D02*
D03*
X56681Y21881D02*
D03*
X56366Y22235D02*
D03*
X25894Y22038D02*
D03*
X21051Y24676D02*
D03*
X21799Y23928D02*
D03*
X22232Y52826D02*
D03*
X21839Y55700D02*
D03*
X22232Y56684D02*
D03*
X24043Y57078D02*
D03*
X24516Y57511D02*
D03*
X52744Y56566D02*
D03*
X57429Y54243D02*
D03*
X56957Y54716D02*
D03*
X55697Y56881D02*
D03*
X56524Y56409D02*
D03*
X53413Y53889D02*
D03*
X26366Y53141D02*
D03*
X25146D02*
D03*
X26388Y58084D02*
D03*
X25128Y57966D02*
D03*
X25758Y58635D02*
D03*
X25718Y57375D02*
D03*
X25482Y58320D02*
D03*
X25994Y57730D02*
D03*
X26073Y58950D02*
D03*
X21073Y52872D02*
D03*
X19813Y52753D02*
D03*
X20443Y53423D02*
D03*
X20167Y53108D02*
D03*
X20679Y52517D02*
D03*
X20758Y53738D02*
D03*
X21073Y57741D02*
D03*
X19813Y57859D02*
D03*
X20443Y57190D02*
D03*
X21878Y57038D02*
D03*
X20167Y57505D02*
D03*
X20679Y58095D02*
D03*
X21445Y57393D02*
D03*
X20758Y56875D02*
D03*
X58065Y52371D02*
D03*
X57947Y53631D02*
D03*
X58617Y53001D02*
D03*
X57357Y53041D02*
D03*
X58302Y53277D02*
D03*
X57711Y52765D02*
D03*
X58931Y52686D02*
D03*
X52391Y58108D02*
D03*
X53689Y57988D02*
D03*
X53061Y57399D02*
D03*
X53286Y58457D02*
D03*
X52785Y57753D02*
D03*
X57738Y57686D02*
D03*
X57856Y58946D02*
D03*
X57187Y58316D02*
D03*
X57035Y56881D02*
D03*
X57502Y58592D02*
D03*
X58092Y58080D02*
D03*
X57350Y57275D02*
D03*
X56872Y58001D02*
D03*
X58085Y26326D02*
D03*
X57967Y25066D02*
D03*
X58636Y25696D02*
D03*
X57376Y25656D02*
D03*
X58321Y25420D02*
D03*
X57730Y25932D02*
D03*
X58951Y26011D02*
D03*
X58075Y20574D02*
D03*
X57957Y21834D02*
D03*
X58626Y21204D02*
D03*
X57366Y21243D02*
D03*
X56973Y21598D02*
D03*
X58311Y21479D02*
D03*
X57721Y20968D02*
D03*
X58941Y20889D02*
D03*
X52351Y20654D02*
D03*
X53611Y20772D02*
D03*
X52981Y20103D02*
D03*
X53020Y21363D02*
D03*
X53256Y20418D02*
D03*
X52744Y21009D02*
D03*
X52666Y19788D02*
D03*
X20651Y26392D02*
D03*
X20769Y25133D02*
D03*
X20100Y25763D02*
D03*
X21360Y25723D02*
D03*
X20415Y25487D02*
D03*
X21006Y25999D02*
D03*
X19785Y26078D02*
D03*
X24867Y20952D02*
D03*
X26328Y20658D02*
D03*
X25068Y20776D02*
D03*
X25698Y20106D02*
D03*
X25422Y20421D02*
D03*
X25934Y21012D02*
D03*
X26013Y19791D02*
D03*
X45870Y28338D02*
D03*
X20894Y19794D02*
D03*
X20972Y21015D02*
D03*
X21484Y20424D02*
D03*
X23059Y21842D02*
D03*
X22272Y22472D02*
D03*
X21996Y22117D02*
D03*
X21602Y21763D02*
D03*
X36366Y31172D02*
D03*
X37350Y32275D02*
D03*
X36366Y31527D02*
D03*
X35431Y32639D02*
D03*
X35421Y32275D02*
D03*
X37341Y32639D02*
D03*
X37429Y27511D02*
D03*
X37144Y27423D02*
D03*
X39358Y27511D02*
D03*
X38374Y28220D02*
D03*
X39634Y27432D02*
D03*
X38374Y28574D02*
D03*
X38886Y40936D02*
D03*
X38610Y40661D02*
D03*
Y41763D02*
D03*
X41484Y41133D02*
D03*
X41366Y40700D02*
D03*
X54514Y55940D02*
D03*
X38938Y39374D02*
D03*
X39373Y38945D02*
D03*
X23925Y53416D02*
D03*
X54831Y25385D02*
D03*
X25776Y21566D02*
D03*
X25224Y23653D02*
D03*
X25343Y23928D02*
D03*
X25657Y24401D02*
D03*
X55374Y24557D02*
D03*
X55343Y24834D02*
D03*
X55697Y25031D02*
D03*
X54988Y24558D02*
D03*
X52623Y24007D02*
D03*
X52508Y24403D02*
D03*
X45894Y28731D02*
D03*
X38571Y52865D02*
D03*
X38846Y52432D02*
D03*
X39673Y52235D02*
D03*
X39791Y54046D02*
D03*
Y53180D02*
D03*
X38768D02*
D03*
Y53889D02*
D03*
X53807Y55661D02*
D03*
X24555Y23771D02*
D03*
X23689Y54204D02*
D03*
X54165Y54959D02*
D03*
X47821Y33416D02*
D03*
X48827Y32975D02*
D03*
X24947Y54484D02*
D03*
X21494Y52867D02*
D03*
X21248Y21369D02*
D03*
X21209Y20109D02*
D03*
X21799Y20700D02*
D03*
X20579Y20661D02*
D03*
X58418Y57344D02*
D03*
X57631Y55769D02*
D03*
X58418Y54195D02*
D03*
Y51045D02*
D03*
X57631Y49470D02*
D03*
X58418Y47895D02*
D03*
X57631Y46321D02*
D03*
X58418Y44746D02*
D03*
X57631Y43171D02*
D03*
X58418Y41596D02*
D03*
X57631Y40021D02*
D03*
X58418Y38447D02*
D03*
X57631Y36872D02*
D03*
X58418Y35297D02*
D03*
X57631Y33722D02*
D03*
X58418Y32147D02*
D03*
X57631Y30573D02*
D03*
X58418Y28998D02*
D03*
X57631Y27423D02*
D03*
X58418Y22699D02*
D03*
X56056Y52620D02*
D03*
X56843Y51045D02*
D03*
Y47895D02*
D03*
X56056Y46321D02*
D03*
X56843Y44746D02*
D03*
X56056Y43171D02*
D03*
X56843Y41596D02*
D03*
X56056Y40021D02*
D03*
X56843Y38447D02*
D03*
X56056Y36872D02*
D03*
X56843Y35297D02*
D03*
X56056Y33722D02*
D03*
X56843Y32147D02*
D03*
X56056Y30573D02*
D03*
X56843Y28998D02*
D03*
X56056Y27423D02*
D03*
Y21124D02*
D03*
X55268Y57344D02*
D03*
X54481Y52620D02*
D03*
X55268Y51045D02*
D03*
X54481Y49470D02*
D03*
X55268Y47895D02*
D03*
X54481Y46321D02*
D03*
X55268Y44746D02*
D03*
X54481Y43171D02*
D03*
X55268Y41596D02*
D03*
X54481Y40021D02*
D03*
X55268Y38447D02*
D03*
X54481Y36872D02*
D03*
X55268Y35297D02*
D03*
X54481Y33722D02*
D03*
X55268Y32147D02*
D03*
X54481Y30573D02*
D03*
X55268Y28998D02*
D03*
X54481Y27423D02*
D03*
Y21124D02*
D03*
X53694Y51045D02*
D03*
Y47895D02*
D03*
Y44746D02*
D03*
X52906Y43171D02*
D03*
X53694Y41596D02*
D03*
X52906Y40021D02*
D03*
X53694Y38447D02*
D03*
X52906Y36872D02*
D03*
X53694Y35297D02*
D03*
X52906Y33722D02*
D03*
X53694Y32147D02*
D03*
Y28998D02*
D03*
Y22699D02*
D03*
X52119Y57344D02*
D03*
X51331Y55769D02*
D03*
Y52620D02*
D03*
X52119Y51045D02*
D03*
Y47895D02*
D03*
X51331Y46321D02*
D03*
X52119Y44746D02*
D03*
X51331Y43171D02*
D03*
X52119Y41596D02*
D03*
X51331Y40021D02*
D03*
X52119Y38447D02*
D03*
X51331Y36872D02*
D03*
X52119Y35297D02*
D03*
X51331Y33722D02*
D03*
X52119Y32147D02*
D03*
X51331Y30573D02*
D03*
X52119Y28998D02*
D03*
Y22699D02*
D03*
X51331Y21124D02*
D03*
X50544Y57344D02*
D03*
X49757Y55769D02*
D03*
X50544Y54195D02*
D03*
X49757Y46321D02*
D03*
X50544Y44746D02*
D03*
Y41596D02*
D03*
X49757Y40021D02*
D03*
X50544Y38447D02*
D03*
X49757Y36872D02*
D03*
X50544Y35297D02*
D03*
X49757Y33722D02*
D03*
X50544Y32147D02*
D03*
X49757Y30573D02*
D03*
X50544Y25848D02*
D03*
Y22699D02*
D03*
X49757Y21124D02*
D03*
X48969Y57344D02*
D03*
X48182Y55769D02*
D03*
X48969Y54195D02*
D03*
X48182Y52620D02*
D03*
X48969Y51045D02*
D03*
Y47895D02*
D03*
X48182Y46321D02*
D03*
X48969Y44746D02*
D03*
X48182Y43171D02*
D03*
X48969Y41596D02*
D03*
Y38447D02*
D03*
X48182Y36872D02*
D03*
X48969Y35297D02*
D03*
Y28998D02*
D03*
X48182Y27423D02*
D03*
X48969Y25848D02*
D03*
Y22699D02*
D03*
X48182Y21124D02*
D03*
X47394Y57344D02*
D03*
X46607Y55769D02*
D03*
X47394Y54195D02*
D03*
X46607Y52620D02*
D03*
X47394Y51045D02*
D03*
Y44746D02*
D03*
X46607Y43171D02*
D03*
X47394Y41596D02*
D03*
X46607Y40021D02*
D03*
X47394Y38447D02*
D03*
X46607Y27423D02*
D03*
X47394Y25848D02*
D03*
Y22699D02*
D03*
X46607Y21124D02*
D03*
X45820Y57344D02*
D03*
X45032Y55769D02*
D03*
X45820Y54195D02*
D03*
X45032Y52620D02*
D03*
X45820Y51045D02*
D03*
X45032Y49470D02*
D03*
Y46321D02*
D03*
X45820Y44746D02*
D03*
X45032Y43171D02*
D03*
X45820Y41596D02*
D03*
X45032Y40021D02*
D03*
X45820Y38447D02*
D03*
Y35297D02*
D03*
X45032Y33722D02*
D03*
X45820Y32147D02*
D03*
X45032Y27423D02*
D03*
X45820Y25848D02*
D03*
Y22699D02*
D03*
X45032Y21124D02*
D03*
X44245Y57344D02*
D03*
X43457Y55769D02*
D03*
X44245Y54195D02*
D03*
X43457Y52620D02*
D03*
X44245Y51045D02*
D03*
Y44746D02*
D03*
Y41596D02*
D03*
X43457Y36872D02*
D03*
X44245Y35297D02*
D03*
X43457Y30573D02*
D03*
X44245Y28998D02*
D03*
Y25848D02*
D03*
Y22699D02*
D03*
X43457Y21124D02*
D03*
X42670Y57344D02*
D03*
X41883Y55769D02*
D03*
X42670Y54195D02*
D03*
X41883Y52620D02*
D03*
X42670Y51045D02*
D03*
X41883Y49470D02*
D03*
Y46321D02*
D03*
X42670Y44746D02*
D03*
X41883Y43171D02*
D03*
X42670Y38447D02*
D03*
X41883Y36872D02*
D03*
Y33722D02*
D03*
X42670Y32147D02*
D03*
X41883Y27423D02*
D03*
X42670Y25848D02*
D03*
Y22699D02*
D03*
X41883Y21124D02*
D03*
X41095Y57344D02*
D03*
X40308Y55769D02*
D03*
X41095Y54195D02*
D03*
X40308Y52620D02*
D03*
X41095Y51045D02*
D03*
X40308Y49470D02*
D03*
Y46321D02*
D03*
X41095Y44746D02*
D03*
X40308Y43171D02*
D03*
X41095Y38447D02*
D03*
X40308Y36872D02*
D03*
Y33722D02*
D03*
X41095Y32147D02*
D03*
X40308Y30573D02*
D03*
Y27423D02*
D03*
X41095Y25848D02*
D03*
Y22699D02*
D03*
X40308Y21124D02*
D03*
X39520Y57344D02*
D03*
X38733Y46321D02*
D03*
Y43171D02*
D03*
Y36872D02*
D03*
X39520Y35297D02*
D03*
X38733Y33722D02*
D03*
X39520Y32147D02*
D03*
Y22699D02*
D03*
X38733Y21124D02*
D03*
X37158Y55769D02*
D03*
X37946Y54195D02*
D03*
X37158Y52620D02*
D03*
X37946Y51045D02*
D03*
X37158Y46321D02*
D03*
X37946Y44746D02*
D03*
Y35297D02*
D03*
X37158Y33722D02*
D03*
X37946Y25848D02*
D03*
Y22699D02*
D03*
X37158Y21124D02*
D03*
X36371Y57344D02*
D03*
X35583Y55769D02*
D03*
X36371Y54195D02*
D03*
X35583Y52620D02*
D03*
X36371Y51045D02*
D03*
Y47895D02*
D03*
X35583Y46321D02*
D03*
X36371Y41596D02*
D03*
X35583Y40021D02*
D03*
X36371Y38447D02*
D03*
Y35297D02*
D03*
X35583Y33722D02*
D03*
X36371Y28998D02*
D03*
X35583Y27423D02*
D03*
X36371Y25848D02*
D03*
Y22699D02*
D03*
X35583Y21124D02*
D03*
X34796Y57344D02*
D03*
X34009Y55769D02*
D03*
X34796Y54195D02*
D03*
X34009Y52620D02*
D03*
X34796Y51045D02*
D03*
X34009Y43171D02*
D03*
X34796Y41596D02*
D03*
X34009Y36872D02*
D03*
Y33722D02*
D03*
Y27423D02*
D03*
X34796Y25848D02*
D03*
Y22699D02*
D03*
X34009Y21124D02*
D03*
X33221Y57344D02*
D03*
X32434Y55769D02*
D03*
X33221Y54195D02*
D03*
X32434Y52620D02*
D03*
X33221Y51045D02*
D03*
X32434Y49470D02*
D03*
X33221Y44746D02*
D03*
Y41596D02*
D03*
Y38447D02*
D03*
X32434Y36872D02*
D03*
X33221Y35297D02*
D03*
X32434Y30573D02*
D03*
X33221Y28998D02*
D03*
X32434Y27423D02*
D03*
X33221Y25848D02*
D03*
Y22699D02*
D03*
X32434Y21124D02*
D03*
X31646Y57344D02*
D03*
X30859Y55769D02*
D03*
X31646Y54195D02*
D03*
X30859Y52620D02*
D03*
X31646Y51045D02*
D03*
X30859Y46321D02*
D03*
X31646Y44746D02*
D03*
X30859Y43171D02*
D03*
X31646Y41596D02*
D03*
X30859Y40021D02*
D03*
X31646Y38447D02*
D03*
X30859Y36872D02*
D03*
X31646Y35297D02*
D03*
X30859Y33722D02*
D03*
X31646Y28998D02*
D03*
X30859Y27423D02*
D03*
X31646Y25848D02*
D03*
Y22699D02*
D03*
X30859Y21124D02*
D03*
X30072Y57344D02*
D03*
X29284Y55769D02*
D03*
X30072Y54195D02*
D03*
X29284Y52620D02*
D03*
Y46321D02*
D03*
X30072Y44746D02*
D03*
X29284Y43171D02*
D03*
X30072Y41596D02*
D03*
X29284Y40021D02*
D03*
X30072Y38447D02*
D03*
X29284Y36872D02*
D03*
X30072Y35297D02*
D03*
X29284Y33722D02*
D03*
X30072Y32147D02*
D03*
X29284Y30573D02*
D03*
X30072Y28998D02*
D03*
X29284Y27423D02*
D03*
X30072Y25848D02*
D03*
Y22699D02*
D03*
X29284Y21124D02*
D03*
X28497Y57344D02*
D03*
X27709Y55769D02*
D03*
X28497Y54195D02*
D03*
Y47895D02*
D03*
X27709Y46321D02*
D03*
X28497Y44746D02*
D03*
X27709Y43171D02*
D03*
X28497Y41596D02*
D03*
X27709Y40021D02*
D03*
X28497Y38447D02*
D03*
X27709Y36872D02*
D03*
X28497Y35297D02*
D03*
X27709Y33722D02*
D03*
X28497Y32147D02*
D03*
X27709Y30573D02*
D03*
X28497Y25848D02*
D03*
Y22699D02*
D03*
X27709Y21124D02*
D03*
X26922Y57344D02*
D03*
X26135Y55769D02*
D03*
X26922Y54195D02*
D03*
Y51045D02*
D03*
X26135Y46321D02*
D03*
X26922Y44746D02*
D03*
X26135Y43171D02*
D03*
X26922Y41596D02*
D03*
X26135Y40021D02*
D03*
X26922Y38447D02*
D03*
X26135Y36872D02*
D03*
X26922Y35297D02*
D03*
X26135Y33722D02*
D03*
X26922Y32147D02*
D03*
X26135Y30573D02*
D03*
X26922Y28998D02*
D03*
X26135Y27423D02*
D03*
X26922Y25848D02*
D03*
Y22699D02*
D03*
X25347Y54195D02*
D03*
X24560Y52620D02*
D03*
X25347Y51045D02*
D03*
Y47895D02*
D03*
X24560Y46321D02*
D03*
X25347Y44746D02*
D03*
X24560Y43171D02*
D03*
X25347Y41596D02*
D03*
X24560Y40021D02*
D03*
X25347Y38447D02*
D03*
X24560Y36872D02*
D03*
X25347Y35297D02*
D03*
X24560Y33722D02*
D03*
X25347Y32147D02*
D03*
X24560Y30573D02*
D03*
X25347Y28998D02*
D03*
X24560Y27423D02*
D03*
X23772Y57344D02*
D03*
X22985Y52620D02*
D03*
X23772Y51045D02*
D03*
X22985Y49470D02*
D03*
Y46321D02*
D03*
X23772Y44746D02*
D03*
X22985Y43171D02*
D03*
X23772Y41596D02*
D03*
X22985Y40021D02*
D03*
X23772Y38447D02*
D03*
X22985Y36872D02*
D03*
X23772Y35297D02*
D03*
X22985Y33722D02*
D03*
X23772Y32147D02*
D03*
X22985Y30573D02*
D03*
X23772Y28998D02*
D03*
X22985Y27423D02*
D03*
X23772Y25848D02*
D03*
X22985Y21124D02*
D03*
X22197Y57344D02*
D03*
X21410Y55769D02*
D03*
Y52620D02*
D03*
X22197Y51045D02*
D03*
X21410Y49470D02*
D03*
X22197Y47895D02*
D03*
X21410Y46321D02*
D03*
X22197Y44746D02*
D03*
X21410Y43171D02*
D03*
X22197Y41596D02*
D03*
X21410Y40021D02*
D03*
X22197Y38447D02*
D03*
X21410Y36872D02*
D03*
X22197Y35297D02*
D03*
X21410Y33722D02*
D03*
X22197Y32147D02*
D03*
Y28998D02*
D03*
X21410Y27423D02*
D03*
Y24273D02*
D03*
X22197Y22699D02*
D03*
X19835Y55769D02*
D03*
X20623Y54195D02*
D03*
Y51045D02*
D03*
X19835Y49470D02*
D03*
X20623Y47895D02*
D03*
X19835Y46321D02*
D03*
X20623Y44746D02*
D03*
X19835Y43171D02*
D03*
X20623Y41596D02*
D03*
X19835Y40021D02*
D03*
X20623Y38447D02*
D03*
X19835Y36872D02*
D03*
X20623Y35297D02*
D03*
X19835Y33722D02*
D03*
X20623Y32147D02*
D03*
X19835Y30573D02*
D03*
X20623Y28998D02*
D03*
X19835Y27423D02*
D03*
Y24273D02*
D03*
X20623Y22699D02*
D03*
X19835Y21124D02*
D03*
X45684Y31427D02*
D03*
X48217Y32393D02*
D03*
X26047Y52263D02*
D03*
X26743Y51567D02*
D03*
X27439Y50871D02*
D03*
X28135Y50175D02*
D03*
X29431Y48854D02*
D03*
X30299Y47997D02*
D03*
X30919Y47391D02*
D03*
X31615Y46695D02*
D03*
X32311Y45999D02*
D03*
X33007Y45303D02*
D03*
X33703Y44607D02*
D03*
X34399Y43911D02*
D03*
X35020Y43148D02*
D03*
Y42164D02*
D03*
X35295Y41219D02*
D03*
X35991Y40523D02*
D03*
X36574Y39909D02*
D03*
X37383Y39131D02*
D03*
X37730Y39937D02*
D03*
X37116Y40531D02*
D03*
X36420Y41227D02*
D03*
X35822Y42009D02*
D03*
Y42993D02*
D03*
X35515Y43928D02*
D03*
X34819Y44624D02*
D03*
X34123Y45320D02*
D03*
X33428Y46016D02*
D03*
X32732Y46712D02*
D03*
X32036Y47408D02*
D03*
X31340Y48104D02*
D03*
X29252Y50192D02*
D03*
X28556Y50888D02*
D03*
X27860Y51584D02*
D03*
X27164Y52280D02*
D03*
X25772Y53672D02*
D03*
X38053Y37833D02*
D03*
X37068D02*
D03*
X36095Y37688D02*
D03*
X35399Y36992D02*
D03*
X34007Y35600D02*
D03*
X33311Y34904D02*
D03*
X32615Y34208D02*
D03*
X31919Y33512D02*
D03*
X31223Y32816D02*
D03*
X30690Y31989D02*
D03*
X30370Y31058D02*
D03*
X29674Y30362D02*
D03*
X28978Y29666D02*
D03*
X28282Y28970D02*
D03*
X27586Y28274D02*
D03*
X26890Y27578D02*
D03*
X25498Y26186D02*
D03*
X24803Y25490D02*
D03*
X29085Y28640D02*
D03*
X29781Y29336D02*
D03*
X30477Y30032D02*
D03*
X31173Y30728D02*
D03*
X31491Y31659D02*
D03*
X32026Y32486D02*
D03*
X32722Y33182D02*
D03*
X33418Y33878D02*
D03*
X34114Y34574D02*
D03*
X35506Y35965D02*
D03*
X36202Y36661D02*
D03*
X37114Y37031D02*
D03*
X38098D02*
D03*
X39045Y37300D02*
D03*
X39265Y36975D02*
D03*
X39800Y36149D02*
D03*
X40496Y35453D02*
D03*
X41191Y34757D02*
D03*
X41887Y34061D02*
D03*
X42583Y33365D02*
D03*
X43279Y32669D02*
D03*
X43975Y31973D02*
D03*
X44671Y31277D02*
D03*
X46259Y29661D02*
D03*
X47455Y28493D02*
D03*
X48151Y27797D02*
D03*
X48847Y27101D02*
D03*
X49587Y26451D02*
D03*
X50571Y26441D02*
D03*
X51555Y26440D02*
D03*
X52251Y25744D02*
D03*
X52845Y25104D02*
D03*
X53895Y25315D02*
D03*
X53160Y25969D02*
D03*
X52464Y26665D02*
D03*
X50682Y27242D02*
D03*
X49707Y27375D02*
D03*
X49011Y28071D02*
D03*
X48315Y28767D02*
D03*
X46271Y30858D02*
D03*
X44835Y32247D02*
D03*
X44139Y32943D02*
D03*
X43443Y33639D02*
D03*
X42747Y34335D02*
D03*
X42051Y35031D02*
D03*
X41355Y35727D02*
D03*
X40659Y36422D02*
D03*
X40066Y37208D02*
D03*
X52842Y53254D02*
D03*
X52146Y52558D02*
D03*
X50754Y51166D02*
D03*
X50058Y50470D02*
D03*
X47970Y48382D02*
D03*
X47274Y47686D02*
D03*
X46578Y46990D02*
D03*
X45882Y46294D02*
D03*
X45186Y45599D02*
D03*
X44490Y44903D02*
D03*
X43794Y44207D02*
D03*
X43375Y43316D02*
D03*
Y42332D02*
D03*
X42741Y41579D02*
D03*
X41104Y38808D02*
D03*
X41800Y39504D02*
D03*
X43192Y40896D02*
D03*
X43888Y41592D02*
D03*
X44177Y42533D02*
D03*
X44237Y43516D02*
D03*
X44933Y44212D02*
D03*
X45629Y44908D02*
D03*
X46325Y45604D02*
D03*
X47021Y46300D02*
D03*
X47717Y46996D02*
D03*
X49109Y48387D02*
D03*
X51197Y50475D02*
D03*
X51893Y51171D02*
D03*
X53284Y52563D02*
D03*
X53980Y53259D02*
D03*
X38677Y55511D02*
D03*
X38871Y51595D02*
D03*
Y50610D02*
D03*
Y47658D02*
D03*
Y46673D02*
D03*
Y45689D02*
D03*
Y44705D02*
D03*
Y43721D02*
D03*
Y42736D02*
D03*
X39672Y42165D02*
D03*
Y43149D02*
D03*
Y44134D02*
D03*
Y45118D02*
D03*
Y46102D02*
D03*
Y47086D02*
D03*
Y51023D02*
D03*
X39676Y54959D02*
D03*
X39984Y55894D02*
D03*
X39316Y56617D02*
D03*
X53610Y24150D02*
D03*
X23355Y53965D02*
D03*
X24776Y23355D02*
D03*
X53965Y55385D02*
D03*
X54240Y55346D02*
D03*
X38886Y54479D02*
D03*
X38610Y54204D02*
D03*
X48689Y31212D02*
D03*
X48470Y47692D02*
D03*
Y50076D02*
D03*
X42870Y31076D02*
D03*
X41870D02*
D03*
Y28692D02*
D03*
X42870D02*
D03*
X40378Y39997D02*
D03*
X40118Y40082D02*
D03*
X23395Y54240D02*
D03*
X24500Y23395D02*
D03*
X37913Y38693D02*
D03*
X38346Y38220D02*
D03*
X38649Y37916D02*
D03*
X40804Y38691D02*
D03*
X40371Y38219D02*
D03*
X53770Y23851D02*
D03*
X23848Y24949D02*
D03*
X24274Y24950D02*
D03*
X24946Y54911D02*
D03*
X54481Y53772D02*
D03*
X54908Y53773D02*
D03*
X30735Y38883D02*
D03*
X35261Y38883D02*
D03*
X40964Y26481D02*
D03*
X38756Y26490D02*
D03*
X41507Y25332D02*
D03*
X48492Y33416D02*
D03*
X48217Y33338D02*
D03*
X41366Y40346D02*
D03*
X40126Y40362D02*
D03*
X39902Y40506D02*
D03*
X40641Y39985D02*
D03*
X23443Y55297D02*
D03*
X23751Y54993D02*
D03*
X23136Y55600D02*
D03*
X23140Y54990D02*
D03*
X23747Y55604D02*
D03*
X22800Y54514D02*
D03*
X23475Y56388D02*
D03*
X23947Y54375D02*
D03*
X23533Y56909D02*
D03*
X24454Y55731D02*
D03*
X22647Y56049D02*
D03*
X21938Y55263D02*
D03*
X23666Y56559D02*
D03*
X22371Y55303D02*
D03*
X24458Y56170D02*
D03*
X25177Y56496D02*
D03*
X25428Y56747D02*
D03*
X25427Y57173D02*
D03*
X24751Y56495D02*
D03*
X20951Y54300D02*
D03*
X21202Y54550D02*
D03*
X21629Y54551D02*
D03*
X20952Y53873D02*
D03*
X21927Y54847D02*
D03*
X21206Y56023D02*
D03*
X21632Y56023D02*
D03*
X20954Y56700D02*
D03*
X20955Y56273D02*
D03*
X24536Y55303D02*
D03*
X24458Y54831D02*
D03*
X23059Y53731D02*
D03*
X23650Y53692D02*
D03*
X23443Y23443D02*
D03*
X23747Y23751D02*
D03*
X23140Y23136D02*
D03*
X23751Y23140D02*
D03*
X23136Y23747D02*
D03*
X22353Y23475D02*
D03*
X24366Y23947D02*
D03*
X21831Y23533D02*
D03*
X22691Y22647D02*
D03*
X23478Y21938D02*
D03*
X22181Y23666D02*
D03*
X23437Y22371D02*
D03*
X22570Y24458D02*
D03*
X22244Y25177D02*
D03*
X21994Y25428D02*
D03*
X21567Y25427D02*
D03*
X22245Y24751D02*
D03*
X24441Y20951D02*
D03*
X24190Y21202D02*
D03*
X24189Y21629D02*
D03*
X23893Y21927D02*
D03*
X22717Y21206D02*
D03*
X22717Y21632D02*
D03*
X22114Y21015D02*
D03*
X22467Y20955D02*
D03*
X23437Y24536D02*
D03*
X23909Y24458D02*
D03*
X25185Y22786D02*
D03*
X54990Y23747D02*
D03*
X55604Y23140D02*
D03*
X55600Y23751D02*
D03*
X54993Y23136D02*
D03*
X55940Y24226D02*
D03*
X55265Y22353D02*
D03*
X54793Y24366D02*
D03*
X55207Y21831D02*
D03*
X54286Y23009D02*
D03*
X56094Y22691D02*
D03*
X56802Y23478D02*
D03*
X55074Y22181D02*
D03*
X56369Y23437D02*
D03*
X54283Y22570D02*
D03*
X53563Y22244D02*
D03*
X53312Y21994D02*
D03*
X53313Y21567D02*
D03*
X53990Y22245D02*
D03*
X57538Y24190D02*
D03*
X57112Y24189D02*
D03*
X57665Y24716D02*
D03*
X56814Y23893D02*
D03*
X57535Y22717D02*
D03*
X57108Y22717D02*
D03*
X57705Y22117D02*
D03*
X57786Y22467D02*
D03*
X54283Y23909D02*
D03*
X55894Y25188D02*
D03*
X55106Y25070D02*
D03*
X54831Y54283D02*
D03*
X55338Y54220D02*
D03*
X56023Y57108D02*
D03*
X56023Y57535D02*
D03*
X54847Y56814D02*
D03*
X54551Y57112D02*
D03*
X54550Y57538D02*
D03*
X56495Y53990D02*
D03*
X56496Y53563D02*
D03*
X56170Y54283D02*
D03*
X55303Y56369D02*
D03*
X56559Y55074D02*
D03*
X55263Y56802D02*
D03*
X56049Y56094D02*
D03*
X55731Y54286D02*
D03*
X56909Y55207D02*
D03*
X54375Y54793D02*
D03*
X56388Y55265D02*
D03*
X55604Y54993D02*
D03*
X54990Y55600D02*
D03*
X55600Y55604D02*
D03*
X54993Y54990D02*
D03*
X55297Y55297D02*
D03*
D75*
X68898Y26693D02*
D03*
Y46374D02*
D03*
X68898Y66063D02*
D03*
X49213D02*
D03*
X29528D02*
D03*
X9843Y66063D02*
D03*
X9843Y46378D02*
D03*
X68898Y7008D02*
D03*
X49213Y7008D02*
D03*
X29528Y7008D02*
D03*
X9843Y26693D02*
D03*
Y7008D02*
D03*
D77*
X58870Y51494D02*
G03*
X58470Y51884I-395J-5D01*
G01*
Y26884D02*
G03*
X58870Y27284I0J400D01*
G01*
X20270Y51884D02*
G03*
X19870Y51484I0J-400D01*
G01*
Y27284D02*
G03*
X20260Y26884I395J-5D01*
G01*
X58870Y27284D02*
X58870Y51494D01*
X20270Y51884D02*
X58470D01*
X19870Y44784D02*
Y51484D01*
X20260Y26884D02*
X58470Y26884D01*
X19870Y27284D02*
Y29884D01*
X18870Y30884D02*
X19870Y29884D01*
X18870Y43784D02*
X19870Y44784D01*
X18870Y30884D02*
Y43784D01*
D78*
X40224Y40779D02*
D03*
X39831D02*
D03*
X41051Y40346D02*
D03*
X40657D02*
D03*
X38650Y27511D02*
D03*
X39043D02*
D03*
X40657Y40700D02*
D03*
X41051D02*
D03*
X39831Y41133D02*
D03*
X40224D02*
D03*
X36130Y32275D02*
D03*
X35736D02*
D03*
X36642D02*
D03*
X37035D02*
D03*
X38138Y27511D02*
D03*
X37744D02*
D03*
D79*
X47860Y32582D02*
D03*
Y32779D02*
D03*
Y32975D02*
D03*
Y33172D02*
D03*
X48565Y32582D02*
D03*
Y32779D02*
D03*
Y32975D02*
D03*
Y33172D02*
D03*
D80*
X48213Y32877D02*
D03*
D81*
X31309Y38882D02*
D03*
X31043D02*
D03*
D82*
X26870Y48307D02*
D03*
Y49461D02*
D03*
X30870Y48307D02*
D03*
X27870D02*
D03*
X28870Y48307D02*
D03*
X23870Y48307D02*
D03*
X24870D02*
D03*
X30870Y49461D02*
D03*
X27870D02*
D03*
X28870D02*
D03*
X23870D02*
D03*
X24870D02*
D03*
X29870Y48307D02*
D03*
X25870D02*
D03*
X29870Y49461D02*
D03*
X25870D02*
D03*
X31870D02*
D03*
Y48307D02*
D03*
X35870Y49461D02*
D03*
X39870D02*
D03*
X35870Y48307D02*
D03*
X39870D02*
D03*
X34870Y49461D02*
D03*
X33870D02*
D03*
X38870D02*
D03*
X37870D02*
D03*
X40870D02*
D03*
X34870Y48307D02*
D03*
X33870D02*
D03*
X38870Y48307D02*
D03*
X37870Y48307D02*
D03*
X40870D02*
D03*
X36870Y49461D02*
D03*
Y48307D02*
D03*
X36870Y29307D02*
D03*
Y30461D02*
D03*
X38870Y29307D02*
D03*
X37870D02*
D03*
X34870D02*
D03*
X33870D02*
D03*
X38870Y30461D02*
D03*
X37870D02*
D03*
X34870D02*
D03*
X33870D02*
D03*
X35870Y29307D02*
D03*
X35870Y30461D02*
D03*
X51470Y48307D02*
D03*
X45470D02*
D03*
X51470Y49461D02*
D03*
X45470D02*
D03*
X50470Y48307D02*
D03*
X49470Y48307D02*
D03*
X47470D02*
D03*
X46470D02*
D03*
X43470D02*
D03*
X42470D02*
D03*
X50470Y49461D02*
D03*
X49470D02*
D03*
X47470D02*
D03*
X46470D02*
D03*
X43470D02*
D03*
X42470D02*
D03*
X48470Y48307D02*
D03*
X44470Y48307D02*
D03*
X48470Y49461D02*
D03*
X44470D02*
D03*
X45870Y29307D02*
D03*
X41870D02*
D03*
X45870Y30461D02*
D03*
X41870D02*
D03*
X46870Y29307D02*
D03*
X47870D02*
D03*
X42870D02*
D03*
X43870D02*
D03*
X40870D02*
D03*
X46870Y30461D02*
D03*
X47870D02*
D03*
X42870Y30461D02*
D03*
X43870Y30461D02*
D03*
X40870D02*
D03*
X44870Y29307D02*
D03*
Y30461D02*
D03*
D83*
X34195Y40884D02*
D03*
X32445D02*
D03*
X34195Y39884D02*
D03*
X32445D02*
D03*
X34195Y38884D02*
D03*
X32445D02*
D03*
D84*
X47872Y31212D02*
D03*
X48404D02*
D03*
X41199Y41133D02*
D03*
X40667D02*
D03*
X47242Y32078D02*
D03*
X47774D02*
D03*
X48352Y33771D02*
D03*
X47821D02*
D03*
D85*
X53068Y56833D02*
D03*
X53444Y56457D02*
D03*
X25155Y22187D02*
D03*
X25530Y21811D02*
D03*
D86*
X56611Y25040D02*
D03*
X56987Y25415D02*
D03*
X22184Y53572D02*
D03*
X21808Y53196D02*
D03*
D87*
X49181Y32934D02*
D03*
Y32403D02*
D03*
X47232Y32481D02*
D03*
Y33013D02*
D03*
D88*
X31043Y38882D02*
X31309D01*
M02*
