G04*
G04 #@! TF.GenerationSoftware,Altium Limited,Altium Designer,20.0.13 (296)*
G04*
G04 Layer_Physical_Order=2*
G04 Layer_Color=36540*
%FSLAX24Y24*%
%MOIN*%
G70*
G01*
G75*
%ADD71C,0.0827*%
%ADD74C,0.0197*%
G36*
X59055Y52413D02*
X59023Y52385D01*
X58936Y52373D01*
X58854Y52339D01*
X58784Y52286D01*
X58731Y52216D01*
X58697Y52134D01*
X58686Y52047D01*
X58697Y51960D01*
X58731Y51878D01*
X58784Y51808D01*
X58854Y51755D01*
X58936Y51721D01*
X59023Y51710D01*
X59055Y51682D01*
X59055Y27047D01*
X58974Y27036D01*
X58892Y27003D01*
X58822Y26949D01*
X58769Y26879D01*
X58735Y26798D01*
X58723Y26710D01*
X58735Y26623D01*
X58769Y26541D01*
X58822Y26472D01*
X58892Y26418D01*
X58974Y26384D01*
X59055Y26373D01*
X59055Y20533D01*
X58971Y20522D01*
X58889Y20489D01*
X58820Y20435D01*
X58766Y20365D01*
X58732Y20284D01*
X58721Y20196D01*
X58732Y20109D01*
X58766Y20028D01*
X58820Y19958D01*
X58889Y19904D01*
X58971Y19870D01*
X59055Y19859D01*
Y19685D01*
X52403Y19685D01*
X52370Y19723D01*
X52371Y19731D01*
X52359Y19818D01*
X52325Y19900D01*
X52272Y19970D01*
X52202Y20023D01*
X52120Y20057D01*
X52033Y20068D01*
X51946Y20057D01*
X51864Y20023D01*
X51794Y19970D01*
X51741Y19900D01*
X51707Y19818D01*
X51696Y19731D01*
X51697Y19723D01*
X51664Y19685D01*
X27047Y19685D01*
X27036Y19767D01*
X27003Y19848D01*
X26949Y19918D01*
X26879Y19971D01*
X26798Y20005D01*
X26710Y20017D01*
X26623Y20005D01*
X26541Y19971D01*
X26472Y19918D01*
X26418Y19848D01*
X26384Y19767D01*
X26373Y19685D01*
X20534Y19685D01*
X20522Y19769D01*
X20489Y19851D01*
X20435Y19921D01*
X20365Y19974D01*
X20284Y20008D01*
X20196Y20019D01*
X20109Y20008D01*
X20028Y19974D01*
X19958Y19921D01*
X19904Y19851D01*
X19870Y19769D01*
X19859Y19685D01*
X19685D01*
Y26338D01*
X19723Y26371D01*
X19731Y26369D01*
X19818Y26381D01*
X19900Y26415D01*
X19970Y26468D01*
X20023Y26538D01*
X20057Y26620D01*
X20068Y26707D01*
X20057Y26794D01*
X20023Y26876D01*
X19970Y26946D01*
X19900Y26999D01*
X19818Y27033D01*
X19731Y27045D01*
X19723Y27043D01*
X19685Y27076D01*
X19685Y51693D01*
X19767Y51704D01*
X19848Y51738D01*
X19918Y51791D01*
X19971Y51861D01*
X20005Y51943D01*
X20017Y52030D01*
X20005Y52117D01*
X19971Y52199D01*
X19918Y52269D01*
X19848Y52322D01*
X19767Y52356D01*
X19685Y52367D01*
Y58207D01*
X19769Y58218D01*
X19851Y58251D01*
X19921Y58305D01*
X19974Y58375D01*
X20008Y58456D01*
X20019Y58544D01*
X20008Y58631D01*
X19974Y58713D01*
X19921Y58782D01*
X19851Y58836D01*
X19769Y58870D01*
X19685Y58881D01*
Y59055D01*
X26338Y59055D01*
X26371Y59018D01*
X26369Y59009D01*
X26381Y58922D01*
X26415Y58840D01*
X26468Y58771D01*
X26538Y58717D01*
X26620Y58683D01*
X26707Y58672D01*
X26794Y58683D01*
X26876Y58717D01*
X26946Y58771D01*
X26999Y58840D01*
X27033Y58922D01*
X27045Y59009D01*
X27043Y59018D01*
X27076Y59055D01*
X51701Y59055D01*
X51711Y58981D01*
X51745Y58899D01*
X51798Y58829D01*
X51868Y58776D01*
X51950Y58742D01*
X52037Y58730D01*
X52124Y58742D01*
X52206Y58776D01*
X52276Y58829D01*
X52329Y58899D01*
X52363Y58981D01*
X52373Y59055D01*
X58201Y59055D01*
X58211Y58978D01*
X58245Y58896D01*
X58298Y58826D01*
X58368Y58773D01*
X58449Y58739D01*
X58537Y58728D01*
X58624Y58739D01*
X58706Y58773D01*
X58775Y58826D01*
X58829Y58896D01*
X58863Y58978D01*
X58873Y59055D01*
X59055D01*
X59055Y52413D01*
D02*
G37*
%LPC*%
G36*
X38325Y57411D02*
Y56951D01*
X38785D01*
X38774Y57035D01*
X38723Y57160D01*
X38641Y57267D01*
X38534Y57349D01*
X38409Y57400D01*
X38325Y57411D01*
D02*
G37*
G36*
X40325D02*
Y56951D01*
X40785D01*
X40774Y57035D01*
X40723Y57160D01*
X40641Y57267D01*
X40534Y57349D01*
X40409Y57400D01*
X40325Y57411D01*
D02*
G37*
G36*
X38226Y57411D02*
X38142Y57400D01*
X38017Y57349D01*
X37911Y57267D01*
X37829Y57160D01*
X37777Y57035D01*
X37766Y56951D01*
X38226D01*
Y57411D01*
D02*
G37*
G36*
X40226D02*
X40142Y57400D01*
X40017Y57349D01*
X39911Y57267D01*
X39829Y57160D01*
X39777Y57035D01*
X39766Y56951D01*
X40226D01*
Y57411D01*
D02*
G37*
G36*
Y56852D02*
X39766D01*
X39777Y56768D01*
X39829Y56643D01*
X39911Y56537D01*
X40017Y56455D01*
X40142Y56403D01*
X40226Y56392D01*
Y56852D01*
D02*
G37*
G36*
X38226D02*
X37766D01*
X37777Y56768D01*
X37829Y56643D01*
X37911Y56537D01*
X38017Y56455D01*
X38142Y56403D01*
X38226Y56392D01*
Y56852D01*
D02*
G37*
G36*
X40785D02*
X40325D01*
Y56392D01*
X40409Y56403D01*
X40534Y56455D01*
X40641Y56537D01*
X40723Y56643D01*
X40774Y56768D01*
X40785Y56852D01*
D02*
G37*
G36*
X38785D02*
X38325D01*
Y56392D01*
X38409Y56403D01*
X38534Y56455D01*
X38641Y56537D01*
X38723Y56643D01*
X38774Y56768D01*
X38785Y56852D01*
D02*
G37*
G36*
X53138Y56412D02*
X53061Y56397D01*
X52996Y56354D01*
X52952Y56288D01*
X52937Y56212D01*
X52952Y56135D01*
X52996Y56070D01*
X53061Y56026D01*
X53138Y56011D01*
X53215Y56026D01*
X53280Y56070D01*
X53323Y56135D01*
X53338Y56212D01*
X53323Y56288D01*
X53280Y56354D01*
X53215Y56397D01*
X53138Y56412D01*
D02*
G37*
G36*
X54514Y56141D02*
X54438Y56126D01*
X54373Y56082D01*
X54329Y56017D01*
X54314Y55940D01*
X54329Y55863D01*
X54373Y55798D01*
X54438Y55755D01*
X54514Y55739D01*
X54591Y55755D01*
X54656Y55798D01*
X54700Y55863D01*
X54715Y55940D01*
X54700Y56017D01*
X54656Y56082D01*
X54591Y56126D01*
X54514Y56141D01*
D02*
G37*
G36*
X39276Y56515D02*
X39156Y56503D01*
X39041Y56468D01*
X38935Y56411D01*
X38842Y56335D01*
X38766Y56242D01*
X38709Y56136D01*
X38674Y56021D01*
X38662Y55902D01*
X38674Y55782D01*
X38709Y55667D01*
X38766Y55561D01*
X38842Y55468D01*
X38935Y55392D01*
X39041Y55335D01*
X39156Y55300D01*
X39276Y55288D01*
X39395Y55300D01*
X39510Y55335D01*
X39616Y55392D01*
X39709Y55468D01*
X39785Y55561D01*
X39842Y55667D01*
X39877Y55782D01*
X39889Y55902D01*
X39877Y56021D01*
X39842Y56136D01*
X39785Y56242D01*
X39709Y56335D01*
X39616Y56411D01*
X39510Y56468D01*
X39395Y56503D01*
X39276Y56515D01*
D02*
G37*
G36*
X53965Y55586D02*
X53888Y55570D01*
X53823Y55527D01*
X53779Y55462D01*
X53764Y55385D01*
X53779Y55308D01*
X53823Y55243D01*
X53888Y55199D01*
X53965Y55184D01*
X54041Y55199D01*
X54083Y55227D01*
X54098Y55204D01*
X54163Y55160D01*
X54240Y55145D01*
X54317Y55160D01*
X54382Y55204D01*
X54426Y55269D01*
X54441Y55346D01*
X54426Y55422D01*
X54382Y55487D01*
X54317Y55531D01*
X54240Y55546D01*
X54163Y55531D01*
X54122Y55503D01*
X54106Y55527D01*
X54041Y55570D01*
X53965Y55586D01*
D02*
G37*
G36*
X38325Y55411D02*
Y54951D01*
X38785D01*
X38774Y55035D01*
X38723Y55160D01*
X38641Y55267D01*
X38534Y55349D01*
X38409Y55400D01*
X38325Y55411D01*
D02*
G37*
G36*
X40325D02*
Y54951D01*
X40785D01*
X40774Y55035D01*
X40723Y55160D01*
X40641Y55267D01*
X40534Y55349D01*
X40409Y55400D01*
X40325Y55411D01*
D02*
G37*
G36*
X38226Y55411D02*
X38142Y55400D01*
X38017Y55349D01*
X37911Y55267D01*
X37829Y55160D01*
X37777Y55035D01*
X37766Y54951D01*
X38226D01*
Y55411D01*
D02*
G37*
G36*
X40226D02*
X40142Y55400D01*
X40017Y55349D01*
X39911Y55267D01*
X39829Y55160D01*
X39777Y55035D01*
X39766Y54951D01*
X40226D01*
Y55411D01*
D02*
G37*
G36*
X54375Y54994D02*
X54298Y54978D01*
X54233Y54935D01*
X54189Y54870D01*
X54174Y54793D01*
X54189Y54716D01*
X54233Y54651D01*
X54298Y54607D01*
X54375Y54592D01*
X54451Y54607D01*
X54516Y54651D01*
X54560Y54716D01*
X54575Y54793D01*
X54560Y54870D01*
X54516Y54935D01*
X54451Y54978D01*
X54375Y54994D01*
D02*
G37*
G36*
X40226Y54852D02*
X39766D01*
X39777Y54768D01*
X39829Y54643D01*
X39911Y54537D01*
X40017Y54455D01*
X40142Y54403D01*
X40226Y54392D01*
Y54852D01*
D02*
G37*
G36*
X38226D02*
X37766D01*
X37777Y54768D01*
X37829Y54643D01*
X37911Y54537D01*
X38017Y54455D01*
X38142Y54403D01*
X38226Y54392D01*
Y54852D01*
D02*
G37*
G36*
X40785D02*
X40325D01*
Y54392D01*
X40409Y54403D01*
X40534Y54455D01*
X40641Y54537D01*
X40723Y54643D01*
X40774Y54768D01*
X40785Y54852D01*
D02*
G37*
G36*
X38785D02*
X38325D01*
Y54392D01*
X38409Y54403D01*
X38534Y54455D01*
X38641Y54537D01*
X38723Y54643D01*
X38774Y54768D01*
X38785Y54852D01*
D02*
G37*
G36*
X22800Y54715D02*
X22723Y54700D01*
X22658Y54656D01*
X22615Y54591D01*
X22599Y54514D01*
X22615Y54438D01*
X22658Y54373D01*
X22723Y54329D01*
X22800Y54314D01*
X22877Y54329D01*
X22942Y54373D01*
X22985Y54438D01*
X23001Y54514D01*
X22985Y54591D01*
X22942Y54656D01*
X22877Y54700D01*
X22800Y54715D01*
D02*
G37*
G36*
X23947Y54575D02*
X23871Y54560D01*
X23805Y54516D01*
X23762Y54451D01*
X23747Y54375D01*
X23762Y54298D01*
X23805Y54233D01*
X23871Y54189D01*
X23947Y54174D01*
X24024Y54189D01*
X24089Y54233D01*
X24133Y54298D01*
X24148Y54375D01*
X24133Y54451D01*
X24089Y54516D01*
X24024Y54560D01*
X23947Y54575D01*
D02*
G37*
G36*
X53413Y54405D02*
X53337Y54389D01*
X53271Y54346D01*
X53228Y54281D01*
X53213Y54204D01*
X53228Y54127D01*
X53271Y54062D01*
X53337Y54018D01*
X53413Y54003D01*
X53490Y54018D01*
X53555Y54062D01*
X53599Y54127D01*
X53614Y54204D01*
X53599Y54281D01*
X53555Y54346D01*
X53490Y54389D01*
X53413Y54405D01*
D02*
G37*
G36*
X23395Y54441D02*
X23318Y54426D01*
X23253Y54382D01*
X23209Y54317D01*
X23194Y54240D01*
X23209Y54163D01*
X23237Y54122D01*
X23213Y54106D01*
X23170Y54041D01*
X23155Y53965D01*
X23170Y53888D01*
X23213Y53823D01*
X23278Y53779D01*
X23355Y53764D01*
X23432Y53779D01*
X23497Y53823D01*
X23541Y53888D01*
X23556Y53965D01*
X23541Y54041D01*
X23513Y54083D01*
X23537Y54098D01*
X23580Y54163D01*
X23595Y54240D01*
X23580Y54317D01*
X23537Y54382D01*
X23471Y54426D01*
X23395Y54441D01*
D02*
G37*
G36*
X24437Y53578D02*
X24360Y53562D01*
X24295Y53519D01*
X24252Y53454D01*
X24236Y53377D01*
X24252Y53300D01*
X24295Y53235D01*
X24360Y53192D01*
X24437Y53176D01*
X24514Y53192D01*
X24579Y53235D01*
X24622Y53300D01*
X24638Y53377D01*
X24622Y53454D01*
X24579Y53519D01*
X24514Y53562D01*
X24437Y53578D01*
D02*
G37*
G36*
X22429Y53538D02*
X22352Y53523D01*
X22287Y53480D01*
X22244Y53414D01*
X22228Y53338D01*
X22244Y53261D01*
X22287Y53196D01*
X22352Y53152D01*
X22429Y53137D01*
X22506Y53152D01*
X22571Y53196D01*
X22615Y53261D01*
X22630Y53338D01*
X22615Y53414D01*
X22571Y53480D01*
X22506Y53523D01*
X22429Y53538D01*
D02*
G37*
G36*
X52870Y49675D02*
X52716Y49660D01*
X52567Y49615D01*
X52430Y49542D01*
X52311Y49443D01*
X52212Y49324D01*
X52139Y49187D01*
X52094Y49038D01*
X52079Y48884D01*
X52094Y48730D01*
X52139Y48581D01*
X52212Y48444D01*
X52311Y48324D01*
X52430Y48226D01*
X52567Y48153D01*
X52716Y48108D01*
X52870Y48093D01*
X53024Y48108D01*
X53173Y48153D01*
X53310Y48226D01*
X53430Y48324D01*
X53528Y48444D01*
X53601Y48581D01*
X53646Y48730D01*
X53661Y48884D01*
X53646Y49038D01*
X53601Y49187D01*
X53528Y49324D01*
X53430Y49443D01*
X53310Y49542D01*
X53173Y49615D01*
X53024Y49660D01*
X52870Y49675D01*
D02*
G37*
G36*
X32870Y43675D02*
X32716Y43660D01*
X32567Y43615D01*
X32430Y43542D01*
X32311Y43443D01*
X32212Y43323D01*
X32139Y43187D01*
X32094Y43038D01*
X32079Y42884D01*
X32094Y42730D01*
X32139Y42581D01*
X32212Y42444D01*
X32311Y42324D01*
X32430Y42226D01*
X32567Y42153D01*
X32716Y42108D01*
X32870Y42093D01*
X33024Y42108D01*
X33173Y42153D01*
X33310Y42226D01*
X33430Y42324D01*
X33528Y42444D01*
X33601Y42581D01*
X33646Y42730D01*
X33661Y42884D01*
X33646Y43038D01*
X33601Y43187D01*
X33528Y43323D01*
X33430Y43443D01*
X33310Y43542D01*
X33173Y43615D01*
X33024Y43660D01*
X32870Y43675D01*
D02*
G37*
G36*
X40972Y42003D02*
X40896Y41988D01*
X40831Y41944D01*
X40787Y41879D01*
X40772Y41802D01*
X40787Y41725D01*
X40805Y41699D01*
X40769Y41663D01*
X40754Y41673D01*
X40677Y41688D01*
X40600Y41673D01*
X40535Y41629D01*
X40492Y41564D01*
X40476Y41487D01*
X40492Y41410D01*
X40535Y41345D01*
X40600Y41302D01*
X40677Y41287D01*
X40754Y41302D01*
X40819Y41345D01*
X40863Y41410D01*
X40878Y41487D01*
X40863Y41564D01*
X40845Y41591D01*
X40881Y41627D01*
X40896Y41617D01*
X40972Y41602D01*
X41049Y41617D01*
X41114Y41660D01*
X41158Y41725D01*
X41173Y41802D01*
X41158Y41879D01*
X41114Y41944D01*
X41049Y41988D01*
X40972Y42003D01*
D02*
G37*
G36*
X40224D02*
X40148Y41988D01*
X40082Y41944D01*
X40039Y41879D01*
X40024Y41802D01*
X40039Y41725D01*
X40082Y41660D01*
X40148Y41617D01*
X40224Y41602D01*
X40301Y41617D01*
X40366Y41660D01*
X40410Y41725D01*
X40425Y41802D01*
X40410Y41879D01*
X40366Y41944D01*
X40301Y41988D01*
X40224Y42003D01*
D02*
G37*
G36*
X39902Y40707D02*
X39825Y40691D01*
X39760Y40648D01*
X39716Y40583D01*
X39701Y40506D01*
X39716Y40429D01*
X39760Y40364D01*
X39825Y40321D01*
X39902Y40305D01*
X39978Y40321D01*
X40043Y40364D01*
X40087Y40429D01*
X40102Y40506D01*
X40087Y40583D01*
X40043Y40648D01*
X39978Y40691D01*
X39902Y40707D01*
D02*
G37*
G36*
X40118Y40283D02*
X40041Y40268D01*
X39976Y40224D01*
X39932Y40159D01*
X39917Y40082D01*
X39932Y40005D01*
X39976Y39940D01*
X40041Y39897D01*
X40118Y39882D01*
X40195Y39897D01*
X40204Y39903D01*
X40236Y39855D01*
X40301Y39811D01*
X40378Y39796D01*
X40455Y39811D01*
X40500Y39842D01*
X40564Y39800D01*
X40641Y39784D01*
X40717Y39800D01*
X40783Y39843D01*
X40826Y39908D01*
X40841Y39985D01*
X40826Y40062D01*
X40783Y40127D01*
X40717Y40171D01*
X40641Y40186D01*
X40564Y40171D01*
X40518Y40140D01*
X40455Y40182D01*
X40378Y40198D01*
X40301Y40182D01*
X40292Y40176D01*
X40260Y40224D01*
X40195Y40268D01*
X40118Y40283D01*
D02*
G37*
G36*
X35261Y39084D02*
X35184Y39069D01*
X35119Y39025D01*
X35075Y38960D01*
X35060Y38883D01*
X35075Y38807D01*
X35119Y38741D01*
X35184Y38698D01*
X35261Y38683D01*
X35338Y38698D01*
X35403Y38741D01*
X35446Y38807D01*
X35462Y38883D01*
X35446Y38960D01*
X35403Y39025D01*
X35338Y39069D01*
X35261Y39084D01*
D02*
G37*
G36*
X47114Y34405D02*
X47037Y34389D01*
X46972Y34346D01*
X46929Y34281D01*
X46913Y34204D01*
X46929Y34127D01*
X46972Y34062D01*
X47037Y34018D01*
X47114Y34003D01*
X47191Y34018D01*
X47256Y34062D01*
X47300Y34127D01*
X47315Y34204D01*
X47300Y34281D01*
X47256Y34346D01*
X47191Y34389D01*
X47114Y34405D01*
D02*
G37*
G36*
X47821Y33617D02*
X47744Y33602D01*
X47679Y33558D01*
X47635Y33493D01*
X47620Y33416D01*
X47635Y33340D01*
X47679Y33274D01*
X47744Y33231D01*
X47821Y33216D01*
X47898Y33231D01*
X47963Y33274D01*
X48006Y33340D01*
X48022Y33416D01*
X48006Y33493D01*
X47963Y33558D01*
X47898Y33602D01*
X47821Y33617D01*
D02*
G37*
G36*
X48827Y33176D02*
X48750Y33161D01*
X48685Y33117D01*
X48641Y33052D01*
X48626Y32975D01*
X48641Y32899D01*
X48685Y32834D01*
X48750Y32790D01*
X48827Y32775D01*
X48904Y32790D01*
X48969Y32834D01*
X49012Y32899D01*
X49027Y32975D01*
X49012Y33052D01*
X48969Y33117D01*
X48904Y33161D01*
X48827Y33176D01*
D02*
G37*
G36*
X36642Y32830D02*
X36565Y32814D01*
X36500Y32771D01*
X36456Y32706D01*
X36441Y32629D01*
X36456Y32552D01*
X36500Y32487D01*
X36565Y32444D01*
X36642Y32428D01*
X36719Y32444D01*
X36784Y32487D01*
X36827Y32552D01*
X36842Y32629D01*
X36827Y32706D01*
X36784Y32771D01*
X36719Y32814D01*
X36642Y32830D01*
D02*
G37*
G36*
X36130D02*
X36053Y32814D01*
X35988Y32771D01*
X35944Y32706D01*
X35929Y32629D01*
X35944Y32552D01*
X35988Y32487D01*
X36053Y32444D01*
X36130Y32428D01*
X36207Y32444D01*
X36272Y32487D01*
X36315Y32552D01*
X36331Y32629D01*
X36315Y32706D01*
X36272Y32771D01*
X36207Y32814D01*
X36130Y32830D01*
D02*
G37*
G36*
X48571Y32515D02*
X48494Y32499D01*
X48429Y32456D01*
X48385Y32391D01*
X48370Y32314D01*
X48385Y32237D01*
X48429Y32172D01*
X48494Y32129D01*
X48571Y32113D01*
X48648Y32129D01*
X48713Y32172D01*
X48756Y32237D01*
X48772Y32314D01*
X48756Y32391D01*
X48713Y32456D01*
X48648Y32499D01*
X48571Y32515D01*
D02*
G37*
G36*
X32870Y32675D02*
X32716Y32660D01*
X32567Y32615D01*
X32430Y32542D01*
X32311Y32443D01*
X32212Y32324D01*
X32139Y32187D01*
X32094Y32038D01*
X32079Y31884D01*
X32094Y31730D01*
X32139Y31581D01*
X32212Y31444D01*
X32311Y31324D01*
X32430Y31226D01*
X32567Y31153D01*
X32716Y31108D01*
X32870Y31093D01*
X33024Y31108D01*
X33173Y31153D01*
X33310Y31226D01*
X33430Y31324D01*
X33528Y31444D01*
X33601Y31581D01*
X33646Y31730D01*
X33661Y31884D01*
X33646Y32038D01*
X33601Y32187D01*
X33528Y32324D01*
X33430Y32443D01*
X33310Y32542D01*
X33173Y32615D01*
X33024Y32660D01*
X32870Y32675D01*
D02*
G37*
G36*
X46642Y31412D02*
X46565Y31397D01*
X46500Y31354D01*
X46456Y31288D01*
X46441Y31212D01*
X46456Y31135D01*
X46500Y31070D01*
X46565Y31026D01*
X46642Y31011D01*
X46719Y31026D01*
X46784Y31070D01*
X46827Y31135D01*
X46842Y31212D01*
X46827Y31288D01*
X46784Y31354D01*
X46719Y31397D01*
X46642Y31412D01*
D02*
G37*
G36*
X53370Y30675D02*
X53216Y30660D01*
X53067Y30615D01*
X52930Y30542D01*
X52811Y30443D01*
X52712Y30324D01*
X52639Y30187D01*
X52594Y30038D01*
X52579Y29884D01*
X52594Y29730D01*
X52639Y29581D01*
X52712Y29444D01*
X52811Y29324D01*
X52930Y29226D01*
X53067Y29153D01*
X53216Y29108D01*
X53370Y29093D01*
X53524Y29108D01*
X53673Y29153D01*
X53810Y29226D01*
X53930Y29324D01*
X54028Y29444D01*
X54101Y29581D01*
X54146Y29730D01*
X54161Y29884D01*
X54146Y30038D01*
X54101Y30187D01*
X54028Y30324D01*
X53930Y30443D01*
X53810Y30542D01*
X53673Y30615D01*
X53524Y30660D01*
X53370Y30675D01*
D02*
G37*
G36*
X20870D02*
X20716Y30660D01*
X20567Y30615D01*
X20430Y30542D01*
X20311Y30443D01*
X20212Y30324D01*
X20139Y30187D01*
X20094Y30038D01*
X20079Y29884D01*
X20094Y29730D01*
X20139Y29581D01*
X20212Y29444D01*
X20311Y29324D01*
X20430Y29226D01*
X20567Y29153D01*
X20716Y29108D01*
X20870Y29093D01*
X21024Y29108D01*
X21173Y29153D01*
X21310Y29226D01*
X21430Y29324D01*
X21528Y29444D01*
X21601Y29581D01*
X21646Y29730D01*
X21661Y29884D01*
X21646Y30038D01*
X21601Y30187D01*
X21528Y30324D01*
X21430Y30443D01*
X21310Y30542D01*
X21173Y30615D01*
X21024Y30660D01*
X20870Y30675D01*
D02*
G37*
G36*
X45894Y28932D02*
X45817Y28917D01*
X45752Y28873D01*
X45708Y28808D01*
X45693Y28731D01*
X45708Y28655D01*
X45752Y28589D01*
X45781Y28570D01*
X45783Y28562D01*
X45777Y28512D01*
X45728Y28480D01*
X45685Y28414D01*
X45669Y28338D01*
X45685Y28261D01*
X45728Y28196D01*
X45793Y28152D01*
X45870Y28137D01*
X45947Y28152D01*
X46012Y28196D01*
X46056Y28261D01*
X46071Y28338D01*
X46056Y28414D01*
X46012Y28480D01*
X45983Y28499D01*
X45981Y28507D01*
X45987Y28557D01*
X46036Y28589D01*
X46079Y28655D01*
X46094Y28731D01*
X46079Y28808D01*
X46036Y28873D01*
X45971Y28917D01*
X45894Y28932D01*
D02*
G37*
G36*
X38650Y27475D02*
X38573Y27460D01*
X38508Y27417D01*
X38464Y27351D01*
X38449Y27275D01*
X38464Y27198D01*
X38508Y27133D01*
X38573Y27089D01*
X38650Y27074D01*
X38726Y27089D01*
X38792Y27133D01*
X38835Y27198D01*
X38850Y27275D01*
X38835Y27351D01*
X38792Y27417D01*
X38726Y27460D01*
X38650Y27475D01*
D02*
G37*
G36*
X38138D02*
X38061Y27460D01*
X37996Y27417D01*
X37952Y27351D01*
X37937Y27275D01*
X37952Y27198D01*
X37996Y27133D01*
X38061Y27089D01*
X38138Y27074D01*
X38215Y27089D01*
X38280Y27133D01*
X38323Y27198D01*
X38338Y27275D01*
X38323Y27351D01*
X38280Y27417D01*
X38215Y27460D01*
X38138Y27475D01*
D02*
G37*
G36*
X40964Y26682D02*
X40887Y26667D01*
X40822Y26623D01*
X40778Y26558D01*
X40763Y26481D01*
X40778Y26405D01*
X40822Y26339D01*
X40887Y26296D01*
X40964Y26281D01*
X41041Y26296D01*
X41106Y26339D01*
X41149Y26405D01*
X41165Y26481D01*
X41149Y26558D01*
X41106Y26623D01*
X41041Y26667D01*
X40964Y26682D01*
D02*
G37*
G36*
X41507Y25533D02*
X41431Y25517D01*
X41365Y25474D01*
X41322Y25409D01*
X41307Y25332D01*
X41322Y25255D01*
X41365Y25190D01*
X41431Y25146D01*
X41507Y25131D01*
X41584Y25146D01*
X41649Y25190D01*
X41693Y25255D01*
X41708Y25332D01*
X41693Y25409D01*
X41649Y25474D01*
X41584Y25517D01*
X41507Y25533D01*
D02*
G37*
G36*
X56327Y25507D02*
X56250Y25492D01*
X56185Y25448D01*
X56141Y25383D01*
X56126Y25306D01*
X56141Y25229D01*
X56185Y25164D01*
X56250Y25121D01*
X56327Y25105D01*
X56404Y25121D01*
X56469Y25164D01*
X56512Y25229D01*
X56527Y25306D01*
X56512Y25383D01*
X56469Y25448D01*
X56404Y25492D01*
X56327Y25507D01*
D02*
G37*
G36*
X54208Y25428D02*
X54132Y25413D01*
X54066Y25369D01*
X54023Y25304D01*
X54008Y25227D01*
X54023Y25151D01*
X54066Y25086D01*
X54132Y25042D01*
X54208Y25027D01*
X54285Y25042D01*
X54350Y25086D01*
X54394Y25151D01*
X54409Y25227D01*
X54394Y25304D01*
X54350Y25369D01*
X54285Y25413D01*
X54208Y25428D01*
D02*
G37*
G36*
X55343Y25034D02*
X55266Y25019D01*
X55201Y24976D01*
X55157Y24911D01*
X55142Y24834D01*
X55157Y24757D01*
X55201Y24692D01*
X55219Y24680D01*
X55188Y24634D01*
X55173Y24557D01*
X55188Y24480D01*
X55232Y24415D01*
X55297Y24371D01*
X55374Y24356D01*
X55451Y24371D01*
X55516Y24415D01*
X55559Y24480D01*
X55574Y24557D01*
X55559Y24634D01*
X55516Y24699D01*
X55497Y24711D01*
X55528Y24757D01*
X55543Y24834D01*
X55528Y24911D01*
X55484Y24976D01*
X55419Y25019D01*
X55343Y25034D01*
D02*
G37*
G36*
X25657Y24601D02*
X25581Y24586D01*
X25516Y24543D01*
X25472Y24477D01*
X25457Y24401D01*
X25472Y24324D01*
X25516Y24259D01*
X25581Y24215D01*
X25657Y24200D01*
X25734Y24215D01*
X25799Y24259D01*
X25843Y24324D01*
X25858Y24401D01*
X25843Y24477D01*
X25799Y24543D01*
X25734Y24586D01*
X25657Y24601D01*
D02*
G37*
G36*
X54793Y24566D02*
X54716Y24551D01*
X54651Y24508D01*
X54607Y24442D01*
X54592Y24366D01*
X54607Y24289D01*
X54651Y24224D01*
X54716Y24180D01*
X54793Y24165D01*
X54870Y24180D01*
X54935Y24224D01*
X54978Y24289D01*
X54994Y24366D01*
X54978Y24442D01*
X54935Y24508D01*
X54870Y24551D01*
X54793Y24566D01*
D02*
G37*
G36*
X55940Y24426D02*
X55863Y24411D01*
X55798Y24368D01*
X55755Y24302D01*
X55739Y24226D01*
X55755Y24149D01*
X55798Y24084D01*
X55863Y24040D01*
X55940Y24025D01*
X56017Y24040D01*
X56082Y24084D01*
X56126Y24149D01*
X56141Y24226D01*
X56126Y24302D01*
X56082Y24368D01*
X56017Y24411D01*
X55940Y24426D01*
D02*
G37*
G36*
X53610Y24351D02*
X53533Y24335D01*
X53468Y24292D01*
X53425Y24227D01*
X53410Y24150D01*
X53425Y24073D01*
X53468Y24008D01*
X53533Y23964D01*
X53610Y23949D01*
X53687Y23964D01*
X53752Y24008D01*
X53796Y24073D01*
X53811Y24150D01*
X53796Y24227D01*
X53752Y24292D01*
X53687Y24335D01*
X53610Y24351D01*
D02*
G37*
G36*
X52508Y24604D02*
X52431Y24589D01*
X52366Y24545D01*
X52322Y24480D01*
X52307Y24403D01*
X52322Y24327D01*
X52366Y24261D01*
X52431Y24218D01*
X52480Y24208D01*
X52490Y24155D01*
X52481Y24149D01*
X52437Y24084D01*
X52422Y24007D01*
X52437Y23930D01*
X52481Y23865D01*
X52546Y23822D01*
X52623Y23806D01*
X52700Y23822D01*
X52765Y23865D01*
X52808Y23930D01*
X52824Y24007D01*
X52808Y24084D01*
X52765Y24149D01*
X52700Y24192D01*
X52651Y24202D01*
X52640Y24255D01*
X52650Y24261D01*
X52693Y24327D01*
X52709Y24403D01*
X52693Y24480D01*
X52650Y24545D01*
X52585Y24589D01*
X52508Y24604D01*
D02*
G37*
G36*
X24366Y24148D02*
X24289Y24133D01*
X24224Y24089D01*
X24180Y24024D01*
X24165Y23947D01*
X24180Y23871D01*
X24224Y23805D01*
X24289Y23762D01*
X24366Y23747D01*
X24442Y23762D01*
X24508Y23805D01*
X24551Y23871D01*
X24566Y23947D01*
X24551Y24024D01*
X24508Y24089D01*
X24442Y24133D01*
X24366Y24148D01*
D02*
G37*
G36*
X24500Y23595D02*
X24423Y23580D01*
X24358Y23537D01*
X24315Y23471D01*
X24299Y23395D01*
X24315Y23318D01*
X24358Y23253D01*
X24423Y23209D01*
X24500Y23194D01*
X24577Y23209D01*
X24618Y23237D01*
X24634Y23213D01*
X24699Y23170D01*
X24776Y23155D01*
X24852Y23170D01*
X24918Y23213D01*
X24961Y23278D01*
X24976Y23355D01*
X24961Y23432D01*
X24918Y23497D01*
X24852Y23541D01*
X24776Y23556D01*
X24699Y23541D01*
X24658Y23513D01*
X24642Y23537D01*
X24577Y23580D01*
X24500Y23595D01*
D02*
G37*
G36*
X24226Y23001D02*
X24149Y22985D01*
X24084Y22942D01*
X24040Y22877D01*
X24025Y22800D01*
X24040Y22723D01*
X24084Y22658D01*
X24149Y22615D01*
X24226Y22599D01*
X24303Y22615D01*
X24368Y22658D01*
X24411Y22723D01*
X24426Y22800D01*
X24411Y22877D01*
X24368Y22942D01*
X24303Y22985D01*
X24226Y23001D01*
D02*
G37*
G36*
X25455Y22648D02*
X25378Y22632D01*
X25313Y22589D01*
X25269Y22524D01*
X25254Y22447D01*
X25269Y22370D01*
X25313Y22305D01*
X25378Y22262D01*
X25455Y22246D01*
X25532Y22262D01*
X25597Y22305D01*
X25640Y22370D01*
X25656Y22447D01*
X25640Y22524D01*
X25597Y22589D01*
X25532Y22632D01*
X25455Y22648D01*
D02*
G37*
%LPD*%
D71*
X40276Y56902D02*
D03*
X38276D02*
D03*
Y54902D02*
D03*
X40276D02*
D03*
D74*
X24988Y23023D02*
D03*
X41507Y23757D02*
D03*
X39909Y23762D02*
D03*
X38850Y23757D02*
D03*
X37252Y23762D02*
D03*
X22823Y53495D02*
D03*
X58839Y27045D02*
D03*
X58413Y27045D02*
D03*
X58413Y26619D02*
D03*
X47429Y33889D02*
D03*
X42862Y39755D02*
D03*
X44831Y37826D02*
D03*
X46996Y36960D02*
D03*
X46563Y34204D02*
D03*
X46996Y34794D02*
D03*
X48098Y34204D02*
D03*
X46917Y32078D02*
D03*
X47547Y32472D02*
D03*
Y32747D02*
D03*
X52427Y49687D02*
D03*
X21453Y30567D02*
D03*
X27486Y27013D02*
D03*
X28176Y27709D02*
D03*
X26643Y26152D02*
D03*
X25724Y25243D02*
D03*
X54398Y21448D02*
D03*
X54043Y21133D02*
D03*
X53413Y57117D02*
D03*
X56563Y57668D02*
D03*
X56996Y53416D02*
D03*
X57665Y53928D02*
D03*
X51705Y20372D02*
D03*
X51706Y19946D02*
D03*
X52131Y20372D02*
D03*
X20330Y58453D02*
D03*
X19904Y58878D02*
D03*
X20330Y58879D02*
D03*
X19901Y51695D02*
D03*
X20327Y52122D02*
D03*
X20328Y51695D02*
D03*
X27035Y58368D02*
D03*
X26609Y58368D02*
D03*
X27035Y58794D02*
D03*
X20372Y26609D02*
D03*
X20372Y27035D02*
D03*
X19946Y27035D02*
D03*
X20281Y20337D02*
D03*
X19862Y19904D02*
D03*
X19854Y20337D02*
D03*
X27045Y19901D02*
D03*
X26619Y20327D02*
D03*
X27045Y20328D02*
D03*
X58410Y20288D02*
D03*
X58836Y19862D02*
D03*
X58410Y19861D02*
D03*
X58794Y51706D02*
D03*
X58368Y52131D02*
D03*
X58368Y51705D02*
D03*
X51688Y58832D02*
D03*
X52115Y58406D02*
D03*
X51688Y58406D02*
D03*
X58453Y58410D02*
D03*
X58878Y58836D02*
D03*
X58879Y58410D02*
D03*
X54163Y57608D02*
D03*
X52823Y58947D02*
D03*
X39370Y39377D02*
D03*
X55343Y23398D02*
D03*
X39802Y39380D02*
D03*
X39365Y37983D02*
D03*
X40618Y39519D02*
D03*
X40146Y38613D02*
D03*
X38638Y38608D02*
D03*
X39373Y39804D02*
D03*
X25579Y21409D02*
D03*
X21366Y53101D02*
D03*
X57154Y25661D02*
D03*
X52862Y57078D02*
D03*
X53413Y54755D02*
D03*
X53689Y55031D02*
D03*
X53531Y55936D02*
D03*
X23020Y58771D02*
D03*
X55106D02*
D03*
X58846Y55818D02*
D03*
Y23731D02*
D03*
X23610Y19794D02*
D03*
X55697D02*
D03*
X49791D02*
D03*
X45067D02*
D03*
X38768D02*
D03*
X32469D02*
D03*
X30106Y58771D02*
D03*
X34831D02*
D03*
X39555D02*
D03*
X44280D02*
D03*
X48807D02*
D03*
X52783Y27314D02*
D03*
X50815Y29204D02*
D03*
X56681Y26015D02*
D03*
X56957Y23101D02*
D03*
X54752Y21763D02*
D03*
X56681Y21881D02*
D03*
X56366Y22235D02*
D03*
X25894Y22038D02*
D03*
X21051Y24676D02*
D03*
X21799Y23928D02*
D03*
X22232Y52826D02*
D03*
X21839Y55700D02*
D03*
X22232Y56684D02*
D03*
X24043Y57078D02*
D03*
X24516Y57511D02*
D03*
X52744Y56566D02*
D03*
X57429Y54243D02*
D03*
X56957Y54716D02*
D03*
X55697Y56881D02*
D03*
X56524Y56409D02*
D03*
X53413Y53889D02*
D03*
X26366Y53141D02*
D03*
X25146D02*
D03*
X26388Y58084D02*
D03*
X25128Y57966D02*
D03*
X25758Y58635D02*
D03*
X25718Y57375D02*
D03*
X25482Y58320D02*
D03*
X25994Y57730D02*
D03*
X26073Y58950D02*
D03*
X21073Y52872D02*
D03*
X19813Y52753D02*
D03*
X20443Y53423D02*
D03*
X20167Y53108D02*
D03*
X20679Y52517D02*
D03*
X20758Y53738D02*
D03*
X21073Y57741D02*
D03*
X19813Y57859D02*
D03*
X20443Y57190D02*
D03*
X21878Y57038D02*
D03*
X20167Y57505D02*
D03*
X20679Y58095D02*
D03*
X21445Y57393D02*
D03*
X20758Y56875D02*
D03*
X58065Y52371D02*
D03*
X57947Y53631D02*
D03*
X58617Y53001D02*
D03*
X57357Y53041D02*
D03*
X58302Y53277D02*
D03*
X57711Y52765D02*
D03*
X58931Y52686D02*
D03*
X52391Y58108D02*
D03*
X53689Y57988D02*
D03*
X53061Y57399D02*
D03*
X53286Y58457D02*
D03*
X52785Y57753D02*
D03*
X57738Y57686D02*
D03*
X57856Y58946D02*
D03*
X57187Y58316D02*
D03*
X57035Y56881D02*
D03*
X57502Y58592D02*
D03*
X58092Y58080D02*
D03*
X57350Y57275D02*
D03*
X56872Y58001D02*
D03*
X58085Y26326D02*
D03*
X57967Y25066D02*
D03*
X58636Y25696D02*
D03*
X57376Y25656D02*
D03*
X58321Y25420D02*
D03*
X57730Y25932D02*
D03*
X58951Y26011D02*
D03*
X58075Y20574D02*
D03*
X57957Y21834D02*
D03*
X58626Y21204D02*
D03*
X57366Y21243D02*
D03*
X56973Y21598D02*
D03*
X58311Y21479D02*
D03*
X57721Y20968D02*
D03*
X58941Y20889D02*
D03*
X52351Y20654D02*
D03*
X53611Y20772D02*
D03*
X52981Y20103D02*
D03*
X53020Y21363D02*
D03*
X53256Y20418D02*
D03*
X52744Y21009D02*
D03*
X52666Y19788D02*
D03*
X20651Y26392D02*
D03*
X20769Y25133D02*
D03*
X20100Y25763D02*
D03*
X21360Y25723D02*
D03*
X20415Y25487D02*
D03*
X21006Y25999D02*
D03*
X19785Y26078D02*
D03*
X24867Y20952D02*
D03*
X26328Y20658D02*
D03*
X25068Y20776D02*
D03*
X25698Y20106D02*
D03*
X25422Y20421D02*
D03*
X25934Y21012D02*
D03*
X26013Y19791D02*
D03*
X20894Y19794D02*
D03*
X20972Y21015D02*
D03*
X21484Y20424D02*
D03*
X23059Y21842D02*
D03*
X22272Y22472D02*
D03*
X21996Y22117D02*
D03*
X21602Y21763D02*
D03*
X36366Y31172D02*
D03*
X37350Y32275D02*
D03*
X36366Y31527D02*
D03*
X35431Y32639D02*
D03*
X35421Y32275D02*
D03*
X37341Y32639D02*
D03*
X37429Y27511D02*
D03*
X37144Y27423D02*
D03*
X39358Y27511D02*
D03*
X38374Y28220D02*
D03*
X39634Y27432D02*
D03*
X38374Y28574D02*
D03*
X38886Y40936D02*
D03*
X38610Y40661D02*
D03*
Y41763D02*
D03*
X41484Y41133D02*
D03*
X41366Y40700D02*
D03*
X38938Y39374D02*
D03*
X39373Y38945D02*
D03*
X23925Y53416D02*
D03*
X54831Y25385D02*
D03*
X25776Y21566D02*
D03*
X25224Y23653D02*
D03*
X25343Y23928D02*
D03*
X55697Y25031D02*
D03*
X54988Y24558D02*
D03*
X38571Y52865D02*
D03*
X38846Y52432D02*
D03*
X39673Y52235D02*
D03*
X39791Y54046D02*
D03*
Y53180D02*
D03*
X38768D02*
D03*
Y53889D02*
D03*
X53807Y55661D02*
D03*
X24555Y23771D02*
D03*
X23689Y54204D02*
D03*
X54165Y54959D02*
D03*
X24947Y54484D02*
D03*
X21494Y52867D02*
D03*
X21248Y21369D02*
D03*
X21209Y20109D02*
D03*
X21799Y20700D02*
D03*
X20579Y20661D02*
D03*
X58418Y57344D02*
D03*
X57631Y55769D02*
D03*
X58418Y54195D02*
D03*
Y51045D02*
D03*
X57631Y49470D02*
D03*
X58418Y47895D02*
D03*
X57631Y46321D02*
D03*
X58418Y44746D02*
D03*
X57631Y43171D02*
D03*
X58418Y41596D02*
D03*
X57631Y40021D02*
D03*
X58418Y38447D02*
D03*
X57631Y36872D02*
D03*
X58418Y35297D02*
D03*
X57631Y33722D02*
D03*
X58418Y32147D02*
D03*
X57631Y30573D02*
D03*
X58418Y28998D02*
D03*
X57631Y27423D02*
D03*
X58418Y22699D02*
D03*
X56056Y52620D02*
D03*
X56843Y51045D02*
D03*
Y47895D02*
D03*
X56056Y46321D02*
D03*
X56843Y44746D02*
D03*
X56056Y43171D02*
D03*
X56843Y41596D02*
D03*
X56056Y40021D02*
D03*
X56843Y38447D02*
D03*
X56056Y36872D02*
D03*
X56843Y35297D02*
D03*
X56056Y33722D02*
D03*
X56843Y32147D02*
D03*
X56056Y30573D02*
D03*
X56843Y28998D02*
D03*
X56056Y27423D02*
D03*
Y21124D02*
D03*
X55268Y57344D02*
D03*
X54481Y52620D02*
D03*
X55268Y51045D02*
D03*
X54481Y49470D02*
D03*
X55268Y47895D02*
D03*
X54481Y46321D02*
D03*
X55268Y44746D02*
D03*
X54481Y43171D02*
D03*
X55268Y41596D02*
D03*
X54481Y40021D02*
D03*
X55268Y38447D02*
D03*
X54481Y36872D02*
D03*
X55268Y35297D02*
D03*
X54481Y33722D02*
D03*
X55268Y32147D02*
D03*
X54481Y30573D02*
D03*
X55268Y28998D02*
D03*
X54481Y27423D02*
D03*
Y21124D02*
D03*
X53694Y51045D02*
D03*
Y47895D02*
D03*
Y44746D02*
D03*
X52906Y43171D02*
D03*
X53694Y41596D02*
D03*
X52906Y40021D02*
D03*
X53694Y38447D02*
D03*
X52906Y36872D02*
D03*
X53694Y35297D02*
D03*
X52906Y33722D02*
D03*
X53694Y32147D02*
D03*
Y28998D02*
D03*
Y22699D02*
D03*
X52119Y57344D02*
D03*
X51331Y55769D02*
D03*
Y52620D02*
D03*
X52119Y51045D02*
D03*
Y47895D02*
D03*
X51331Y46321D02*
D03*
X52119Y44746D02*
D03*
X51331Y43171D02*
D03*
X52119Y41596D02*
D03*
X51331Y40021D02*
D03*
X52119Y38447D02*
D03*
X51331Y36872D02*
D03*
X52119Y35297D02*
D03*
X51331Y33722D02*
D03*
X52119Y32147D02*
D03*
X51331Y30573D02*
D03*
X52119Y28998D02*
D03*
Y22699D02*
D03*
X51331Y21124D02*
D03*
X50544Y57344D02*
D03*
X49757Y55769D02*
D03*
X50544Y54195D02*
D03*
X49757Y46321D02*
D03*
X50544Y44746D02*
D03*
Y41596D02*
D03*
X49757Y40021D02*
D03*
X50544Y38447D02*
D03*
X49757Y36872D02*
D03*
X50544Y35297D02*
D03*
X49757Y33722D02*
D03*
X50544Y32147D02*
D03*
X49757Y30573D02*
D03*
X50544Y25848D02*
D03*
Y22699D02*
D03*
X49757Y21124D02*
D03*
X48969Y57344D02*
D03*
X48182Y55769D02*
D03*
X48969Y54195D02*
D03*
X48182Y52620D02*
D03*
X48969Y51045D02*
D03*
Y47895D02*
D03*
X48182Y46321D02*
D03*
X48969Y44746D02*
D03*
X48182Y43171D02*
D03*
X48969Y41596D02*
D03*
Y38447D02*
D03*
X48182Y36872D02*
D03*
X48969Y35297D02*
D03*
Y28998D02*
D03*
X48182Y27423D02*
D03*
X48969Y25848D02*
D03*
Y22699D02*
D03*
X48182Y21124D02*
D03*
X47394Y57344D02*
D03*
X46607Y55769D02*
D03*
X47394Y54195D02*
D03*
X46607Y52620D02*
D03*
X47394Y51045D02*
D03*
Y44746D02*
D03*
X46607Y43171D02*
D03*
X47394Y41596D02*
D03*
X46607Y40021D02*
D03*
X47394Y38447D02*
D03*
X46607Y27423D02*
D03*
X47394Y25848D02*
D03*
Y22699D02*
D03*
X46607Y21124D02*
D03*
X45820Y57344D02*
D03*
X45032Y55769D02*
D03*
X45820Y54195D02*
D03*
X45032Y52620D02*
D03*
X45820Y51045D02*
D03*
X45032Y49470D02*
D03*
Y46321D02*
D03*
X45820Y44746D02*
D03*
X45032Y43171D02*
D03*
X45820Y41596D02*
D03*
X45032Y40021D02*
D03*
X45820Y38447D02*
D03*
Y35297D02*
D03*
X45032Y33722D02*
D03*
X45820Y32147D02*
D03*
X45032Y27423D02*
D03*
X45820Y25848D02*
D03*
Y22699D02*
D03*
X45032Y21124D02*
D03*
X44245Y57344D02*
D03*
X43457Y55769D02*
D03*
X44245Y54195D02*
D03*
X43457Y52620D02*
D03*
X44245Y51045D02*
D03*
Y44746D02*
D03*
Y41596D02*
D03*
X43457Y36872D02*
D03*
X44245Y35297D02*
D03*
X43457Y30573D02*
D03*
X44245Y28998D02*
D03*
Y25848D02*
D03*
Y22699D02*
D03*
X43457Y21124D02*
D03*
X42670Y57344D02*
D03*
X41883Y55769D02*
D03*
X42670Y54195D02*
D03*
X41883Y52620D02*
D03*
X42670Y51045D02*
D03*
X41883Y49470D02*
D03*
Y46321D02*
D03*
X42670Y44746D02*
D03*
X41883Y43171D02*
D03*
X42670Y38447D02*
D03*
X41883Y36872D02*
D03*
Y33722D02*
D03*
X42670Y32147D02*
D03*
X41883Y27423D02*
D03*
X42670Y25848D02*
D03*
Y22699D02*
D03*
X41883Y21124D02*
D03*
X41095Y57344D02*
D03*
X40308Y55769D02*
D03*
X41095Y54195D02*
D03*
X40308Y52620D02*
D03*
X41095Y51045D02*
D03*
X40308Y49470D02*
D03*
Y46321D02*
D03*
X41095Y44746D02*
D03*
X40308Y43171D02*
D03*
X41095Y38447D02*
D03*
X40308Y36872D02*
D03*
Y33722D02*
D03*
X41095Y32147D02*
D03*
X40308Y30573D02*
D03*
Y27423D02*
D03*
X41095Y25848D02*
D03*
Y22699D02*
D03*
X40308Y21124D02*
D03*
X39520Y57344D02*
D03*
X38733Y46321D02*
D03*
Y43171D02*
D03*
Y36872D02*
D03*
X39520Y35297D02*
D03*
X38733Y33722D02*
D03*
X39520Y32147D02*
D03*
Y22699D02*
D03*
X38733Y21124D02*
D03*
X37158Y55769D02*
D03*
X37946Y54195D02*
D03*
X37158Y52620D02*
D03*
X37946Y51045D02*
D03*
X37158Y46321D02*
D03*
X37946Y44746D02*
D03*
Y35297D02*
D03*
X37158Y33722D02*
D03*
X37946Y25848D02*
D03*
Y22699D02*
D03*
X37158Y21124D02*
D03*
X36371Y57344D02*
D03*
X35583Y55769D02*
D03*
X36371Y54195D02*
D03*
X35583Y52620D02*
D03*
X36371Y51045D02*
D03*
Y47895D02*
D03*
X35583Y46321D02*
D03*
X36371Y41596D02*
D03*
X35583Y40021D02*
D03*
X36371Y38447D02*
D03*
Y35297D02*
D03*
X35583Y33722D02*
D03*
X36371Y28998D02*
D03*
X35583Y27423D02*
D03*
X36371Y25848D02*
D03*
Y22699D02*
D03*
X35583Y21124D02*
D03*
X34796Y57344D02*
D03*
X34009Y55769D02*
D03*
X34796Y54195D02*
D03*
X34009Y52620D02*
D03*
X34796Y51045D02*
D03*
X34009Y43171D02*
D03*
X34796Y41596D02*
D03*
X34009Y36872D02*
D03*
Y33722D02*
D03*
Y27423D02*
D03*
X34796Y25848D02*
D03*
Y22699D02*
D03*
X34009Y21124D02*
D03*
X33221Y57344D02*
D03*
X32434Y55769D02*
D03*
X33221Y54195D02*
D03*
X32434Y52620D02*
D03*
X33221Y51045D02*
D03*
X32434Y49470D02*
D03*
X33221Y44746D02*
D03*
Y41596D02*
D03*
Y38447D02*
D03*
X32434Y36872D02*
D03*
X33221Y35297D02*
D03*
X32434Y30573D02*
D03*
X33221Y28998D02*
D03*
X32434Y27423D02*
D03*
X33221Y25848D02*
D03*
Y22699D02*
D03*
X32434Y21124D02*
D03*
X31646Y57344D02*
D03*
X30859Y55769D02*
D03*
X31646Y54195D02*
D03*
X30859Y52620D02*
D03*
X31646Y51045D02*
D03*
X30859Y46321D02*
D03*
X31646Y44746D02*
D03*
X30859Y43171D02*
D03*
X31646Y41596D02*
D03*
X30859Y40021D02*
D03*
X31646Y38447D02*
D03*
X30859Y36872D02*
D03*
X31646Y35297D02*
D03*
X30859Y33722D02*
D03*
X31646Y28998D02*
D03*
X30859Y27423D02*
D03*
X31646Y25848D02*
D03*
Y22699D02*
D03*
X30859Y21124D02*
D03*
X30072Y57344D02*
D03*
X29284Y55769D02*
D03*
X30072Y54195D02*
D03*
X29284Y52620D02*
D03*
Y46321D02*
D03*
X30072Y44746D02*
D03*
X29284Y43171D02*
D03*
X30072Y41596D02*
D03*
X29284Y40021D02*
D03*
X30072Y38447D02*
D03*
X29284Y36872D02*
D03*
X30072Y35297D02*
D03*
X29284Y33722D02*
D03*
X30072Y32147D02*
D03*
X29284Y30573D02*
D03*
X30072Y28998D02*
D03*
X29284Y27423D02*
D03*
X30072Y25848D02*
D03*
Y22699D02*
D03*
X29284Y21124D02*
D03*
X28497Y57344D02*
D03*
X27709Y55769D02*
D03*
X28497Y54195D02*
D03*
Y47895D02*
D03*
X27709Y46321D02*
D03*
X28497Y44746D02*
D03*
X27709Y43171D02*
D03*
X28497Y41596D02*
D03*
X27709Y40021D02*
D03*
X28497Y38447D02*
D03*
X27709Y36872D02*
D03*
X28497Y35297D02*
D03*
X27709Y33722D02*
D03*
X28497Y32147D02*
D03*
X27709Y30573D02*
D03*
X28497Y25848D02*
D03*
Y22699D02*
D03*
X27709Y21124D02*
D03*
X26922Y57344D02*
D03*
X26135Y55769D02*
D03*
X26922Y54195D02*
D03*
Y51045D02*
D03*
X26135Y46321D02*
D03*
X26922Y44746D02*
D03*
X26135Y43171D02*
D03*
X26922Y41596D02*
D03*
X26135Y40021D02*
D03*
X26922Y38447D02*
D03*
X26135Y36872D02*
D03*
X26922Y35297D02*
D03*
X26135Y33722D02*
D03*
X26922Y32147D02*
D03*
X26135Y30573D02*
D03*
X26922Y28998D02*
D03*
X26135Y27423D02*
D03*
X26922Y25848D02*
D03*
Y22699D02*
D03*
X25347Y54195D02*
D03*
X24560Y52620D02*
D03*
X25347Y51045D02*
D03*
Y47895D02*
D03*
X24560Y46321D02*
D03*
X25347Y44746D02*
D03*
X24560Y43171D02*
D03*
X25347Y41596D02*
D03*
X24560Y40021D02*
D03*
X25347Y38447D02*
D03*
X24560Y36872D02*
D03*
X25347Y35297D02*
D03*
X24560Y33722D02*
D03*
X25347Y32147D02*
D03*
X24560Y30573D02*
D03*
X25347Y28998D02*
D03*
X24560Y27423D02*
D03*
X23772Y57344D02*
D03*
X22985Y52620D02*
D03*
X23772Y51045D02*
D03*
X22985Y49470D02*
D03*
Y46321D02*
D03*
X23772Y44746D02*
D03*
X22985Y43171D02*
D03*
X23772Y41596D02*
D03*
X22985Y40021D02*
D03*
X23772Y38447D02*
D03*
X22985Y36872D02*
D03*
X23772Y35297D02*
D03*
X22985Y33722D02*
D03*
X23772Y32147D02*
D03*
X22985Y30573D02*
D03*
X23772Y28998D02*
D03*
X22985Y27423D02*
D03*
X23772Y25848D02*
D03*
X22985Y21124D02*
D03*
X22197Y57344D02*
D03*
X21410Y55769D02*
D03*
Y52620D02*
D03*
X22197Y51045D02*
D03*
X21410Y49470D02*
D03*
X22197Y47895D02*
D03*
X21410Y46321D02*
D03*
X22197Y44746D02*
D03*
X21410Y43171D02*
D03*
X22197Y41596D02*
D03*
X21410Y40021D02*
D03*
X22197Y38447D02*
D03*
X21410Y36872D02*
D03*
X22197Y35297D02*
D03*
X21410Y33722D02*
D03*
X22197Y32147D02*
D03*
Y28998D02*
D03*
X21410Y27423D02*
D03*
Y24273D02*
D03*
X22197Y22699D02*
D03*
X19835Y55769D02*
D03*
X20623Y54195D02*
D03*
Y51045D02*
D03*
X19835Y49470D02*
D03*
X20623Y47895D02*
D03*
X19835Y46321D02*
D03*
X20623Y44746D02*
D03*
X19835Y43171D02*
D03*
X20623Y41596D02*
D03*
X19835Y40021D02*
D03*
X20623Y38447D02*
D03*
X19835Y36872D02*
D03*
X20623Y35297D02*
D03*
X19835Y33722D02*
D03*
X20623Y32147D02*
D03*
X19835Y30573D02*
D03*
X20623Y28998D02*
D03*
X19835Y27423D02*
D03*
Y24273D02*
D03*
X20623Y22699D02*
D03*
X19835Y21124D02*
D03*
X45684Y31427D02*
D03*
X48217Y32393D02*
D03*
X26047Y52263D02*
D03*
X26743Y51567D02*
D03*
X27439Y50871D02*
D03*
X28135Y50175D02*
D03*
X29431Y48854D02*
D03*
X30299Y47997D02*
D03*
X30919Y47391D02*
D03*
X31615Y46695D02*
D03*
X32311Y45999D02*
D03*
X33007Y45303D02*
D03*
X33703Y44607D02*
D03*
X34399Y43911D02*
D03*
X35020Y43148D02*
D03*
Y42164D02*
D03*
X35295Y41219D02*
D03*
X35991Y40523D02*
D03*
X36574Y39909D02*
D03*
X37383Y39131D02*
D03*
X37730Y39937D02*
D03*
X37116Y40531D02*
D03*
X36420Y41227D02*
D03*
X35822Y42009D02*
D03*
Y42993D02*
D03*
X35515Y43928D02*
D03*
X34819Y44624D02*
D03*
X34123Y45320D02*
D03*
X33428Y46016D02*
D03*
X32732Y46712D02*
D03*
X32036Y47408D02*
D03*
X31340Y48104D02*
D03*
X29252Y50192D02*
D03*
X28556Y50888D02*
D03*
X27860Y51584D02*
D03*
X27164Y52280D02*
D03*
X25772Y53672D02*
D03*
X38053Y37833D02*
D03*
X37068D02*
D03*
X36095Y37688D02*
D03*
X35399Y36992D02*
D03*
X34007Y35600D02*
D03*
X33311Y34904D02*
D03*
X32615Y34208D02*
D03*
X31919Y33512D02*
D03*
X31223Y32816D02*
D03*
X30690Y31989D02*
D03*
X30370Y31058D02*
D03*
X29674Y30362D02*
D03*
X28978Y29666D02*
D03*
X28282Y28970D02*
D03*
X27586Y28274D02*
D03*
X26890Y27578D02*
D03*
X25498Y26186D02*
D03*
X24803Y25490D02*
D03*
X29085Y28640D02*
D03*
X29781Y29336D02*
D03*
X30477Y30032D02*
D03*
X31173Y30728D02*
D03*
X31491Y31659D02*
D03*
X32026Y32486D02*
D03*
X32722Y33182D02*
D03*
X33418Y33878D02*
D03*
X34114Y34574D02*
D03*
X35506Y35965D02*
D03*
X36202Y36661D02*
D03*
X37114Y37031D02*
D03*
X38098D02*
D03*
X39045Y37300D02*
D03*
X39265Y36975D02*
D03*
X39800Y36149D02*
D03*
X40496Y35453D02*
D03*
X41191Y34757D02*
D03*
X41887Y34061D02*
D03*
X42583Y33365D02*
D03*
X43279Y32669D02*
D03*
X43975Y31973D02*
D03*
X44671Y31277D02*
D03*
X46259Y29661D02*
D03*
X47455Y28493D02*
D03*
X48151Y27797D02*
D03*
X48847Y27101D02*
D03*
X49587Y26451D02*
D03*
X50571Y26441D02*
D03*
X51555Y26440D02*
D03*
X52251Y25744D02*
D03*
X52845Y25104D02*
D03*
X53895Y25315D02*
D03*
X53160Y25969D02*
D03*
X52464Y26665D02*
D03*
X50682Y27242D02*
D03*
X49707Y27375D02*
D03*
X49011Y28071D02*
D03*
X48315Y28767D02*
D03*
X46271Y30858D02*
D03*
X44835Y32247D02*
D03*
X44139Y32943D02*
D03*
X43443Y33639D02*
D03*
X42747Y34335D02*
D03*
X42051Y35031D02*
D03*
X41355Y35727D02*
D03*
X40659Y36422D02*
D03*
X40066Y37208D02*
D03*
X52842Y53254D02*
D03*
X52146Y52558D02*
D03*
X50754Y51166D02*
D03*
X50058Y50470D02*
D03*
X47970Y48382D02*
D03*
X47274Y47686D02*
D03*
X46578Y46990D02*
D03*
X45882Y46294D02*
D03*
X45186Y45599D02*
D03*
X44490Y44903D02*
D03*
X43794Y44207D02*
D03*
X43375Y43316D02*
D03*
Y42332D02*
D03*
X42741Y41579D02*
D03*
X41104Y38808D02*
D03*
X41800Y39504D02*
D03*
X43192Y40896D02*
D03*
X43888Y41592D02*
D03*
X44177Y42533D02*
D03*
X44237Y43516D02*
D03*
X44933Y44212D02*
D03*
X45629Y44908D02*
D03*
X46325Y45604D02*
D03*
X47021Y46300D02*
D03*
X47717Y46996D02*
D03*
X49109Y48387D02*
D03*
X51197Y50475D02*
D03*
X51893Y51171D02*
D03*
X53284Y52563D02*
D03*
X53980Y53259D02*
D03*
X38677Y55511D02*
D03*
X38871Y51595D02*
D03*
Y50610D02*
D03*
Y47658D02*
D03*
Y46673D02*
D03*
Y45689D02*
D03*
Y44705D02*
D03*
Y43721D02*
D03*
Y42736D02*
D03*
X39672Y42165D02*
D03*
Y43149D02*
D03*
Y44134D02*
D03*
Y45118D02*
D03*
Y46102D02*
D03*
Y47086D02*
D03*
Y51023D02*
D03*
X39676Y54959D02*
D03*
X39984Y55894D02*
D03*
X39316Y56617D02*
D03*
X38886Y54479D02*
D03*
X38610Y54204D02*
D03*
X48689Y31212D02*
D03*
X48470Y47692D02*
D03*
Y50076D02*
D03*
X42870Y31076D02*
D03*
X41870D02*
D03*
Y28692D02*
D03*
X42870D02*
D03*
X37913Y38693D02*
D03*
X38346Y38220D02*
D03*
X38649Y37916D02*
D03*
X40804Y38691D02*
D03*
X40371Y38219D02*
D03*
X53770Y23851D02*
D03*
X23848Y24949D02*
D03*
X24274Y24950D02*
D03*
X24946Y54911D02*
D03*
X54481Y53772D02*
D03*
X54908Y53773D02*
D03*
X30735Y38883D02*
D03*
X38756Y26490D02*
D03*
X48492Y33416D02*
D03*
X48217Y33338D02*
D03*
X41366Y40346D02*
D03*
X40126Y40362D02*
D03*
X23443Y55297D02*
D03*
X23751Y54993D02*
D03*
X23136Y55600D02*
D03*
X23140Y54990D02*
D03*
X23747Y55604D02*
D03*
X23475Y56388D02*
D03*
X23533Y56909D02*
D03*
X24454Y55731D02*
D03*
X22647Y56049D02*
D03*
X21938Y55263D02*
D03*
X23666Y56559D02*
D03*
X22371Y55303D02*
D03*
X24458Y56170D02*
D03*
X25177Y56496D02*
D03*
X25428Y56747D02*
D03*
X25427Y57173D02*
D03*
X24751Y56495D02*
D03*
X20951Y54300D02*
D03*
X21202Y54550D02*
D03*
X21629Y54551D02*
D03*
X20952Y53873D02*
D03*
X21927Y54847D02*
D03*
X21206Y56023D02*
D03*
X21632Y56023D02*
D03*
X20954Y56700D02*
D03*
X20955Y56273D02*
D03*
X24536Y55303D02*
D03*
X24458Y54831D02*
D03*
X23059Y53731D02*
D03*
X23650Y53692D02*
D03*
X23443Y23443D02*
D03*
X23747Y23751D02*
D03*
X23140Y23136D02*
D03*
X23751Y23140D02*
D03*
X23136Y23747D02*
D03*
X22353Y23475D02*
D03*
X21831Y23533D02*
D03*
X22691Y22647D02*
D03*
X23478Y21938D02*
D03*
X22181Y23666D02*
D03*
X23437Y22371D02*
D03*
X22570Y24458D02*
D03*
X22244Y25177D02*
D03*
X21994Y25428D02*
D03*
X21567Y25427D02*
D03*
X22245Y24751D02*
D03*
X24441Y20951D02*
D03*
X24190Y21202D02*
D03*
X24189Y21629D02*
D03*
X23893Y21927D02*
D03*
X22717Y21206D02*
D03*
X22717Y21632D02*
D03*
X22114Y21015D02*
D03*
X22467Y20955D02*
D03*
X23437Y24536D02*
D03*
X23909Y24458D02*
D03*
X25185Y22786D02*
D03*
X54990Y23747D02*
D03*
X55604Y23140D02*
D03*
X55600Y23751D02*
D03*
X54993Y23136D02*
D03*
X55265Y22353D02*
D03*
X55207Y21831D02*
D03*
X54286Y23009D02*
D03*
X56094Y22691D02*
D03*
X56802Y23478D02*
D03*
X55074Y22181D02*
D03*
X56369Y23437D02*
D03*
X54283Y22570D02*
D03*
X53563Y22244D02*
D03*
X53312Y21994D02*
D03*
X53313Y21567D02*
D03*
X53990Y22245D02*
D03*
X57538Y24190D02*
D03*
X57112Y24189D02*
D03*
X57665Y24716D02*
D03*
X56814Y23893D02*
D03*
X57535Y22717D02*
D03*
X57108Y22717D02*
D03*
X57705Y22117D02*
D03*
X57786Y22467D02*
D03*
X54283Y23909D02*
D03*
X55894Y25188D02*
D03*
X55106Y25070D02*
D03*
X54831Y54283D02*
D03*
X55338Y54220D02*
D03*
X56023Y57108D02*
D03*
X56023Y57535D02*
D03*
X54847Y56814D02*
D03*
X54551Y57112D02*
D03*
X54550Y57538D02*
D03*
X56495Y53990D02*
D03*
X56496Y53563D02*
D03*
X56170Y54283D02*
D03*
X55303Y56369D02*
D03*
X56559Y55074D02*
D03*
X55263Y56802D02*
D03*
X56049Y56094D02*
D03*
X55731Y54286D02*
D03*
X56909Y55207D02*
D03*
X56388Y55265D02*
D03*
X55604Y54993D02*
D03*
X54990Y55600D02*
D03*
X55600Y55604D02*
D03*
X54993Y54990D02*
D03*
X55297Y55297D02*
D03*
M02*
