G04 ================== begin FILE IDENTIFICATION RECORD ==================*
G04 Layout Name:  MCU035_BOOSTXL-AoA_PCB.brd*
G04 Film Name:    MCU035_BOOSTXL-AoA_Layer2*
G04 File Format:  Gerber RS274X*
G04 File Origin:  Cadence Allegro 17.2-S032*
G04 Origin Date:  Fri Mar 23 08:36:47 2018*
G04 *
G04 Layer:  BOARD GEOMETRY/DESIGN_OUTLINE*
G04 Layer:  BOARD GEOMETRY/CUTOUT*
G04 Layer:  VIA CLASS/LAYER2*
G04 Layer:  PIN/LAYER2*
G04 Layer:  ETCH/LAYER2*
G04 Layer:  DRAWING FORMAT/ANTENNA_GROUND*
G04 *
G04 Offset:    (0.000 0.000)*
G04 Mirror:    No*
G04 Mode:      Positive*
G04 Rotation:  0*
G04 FullContactRelief:  No*
G04 UndefLineWidth:     0.000*
G04 ================== end FILE IDENTIFICATION RECORD ====================*
%FSLAX25Y25*MOMM*%
%IR0*IPPOS*OFA0.00000B0.00000*MIA0B0*SFA1.00000B1.00000*%
%ADD11C,1.65*%
%ADD10C,.5*%
%ADD12C,.15*%
%ADD13C,1.954*%
%ADD14C,.758*%
G75*
%LPD*%
G75*
G36*
G01X2451800Y4114700D02*
X684000Y5882400D01*
X754800Y5953200D01*
X2522500Y4185400D01*
X2593200Y4256100D01*
X825500Y6023900D01*
X896200Y6094600D01*
X2663900Y4326800D01*
X2734700Y4397500D01*
X966900Y6165300D01*
X1037600Y6236000D01*
X2805400Y4468200D01*
X2876100Y4397500D01*
X2522500Y4044000D01*
X2451800Y4114700D01*
G37*
G36*
G01X2737100Y4390100D02*
X963700Y6163700D01*
X1034400Y6234400D01*
X2807800Y4460800D01*
X2878500Y4531500D01*
X1105100Y6305100D01*
X1175800Y6375800D01*
X2949300Y4602200D01*
X3020000Y4672900D01*
X1246400Y6446400D01*
X1317200Y6517200D01*
X3090700Y4743600D01*
X3161400Y4814400D01*
X1387800Y6587800D01*
X1458500Y6658500D01*
X3232100Y4885100D01*
X3302800Y4955800D01*
X1529200Y6729200D01*
X1600100Y6800100D01*
X3373500Y5026500D01*
X3444200Y5097200D01*
X1670800Y6870800D01*
X1741500Y6941500D01*
X3514900Y5167900D01*
X3585700Y5238600D01*
X2030000Y6794300D01*
Y7218500D01*
X2171400Y7359900D01*
X2595700D01*
X4151300Y5804300D01*
X4222100Y5875000D01*
X2448600Y7648600D01*
X2519200Y7719200D01*
X4292800Y5945700D01*
X4363500Y6016400D01*
X2590000Y7790000D01*
X2660600Y7860600D01*
X4434200Y6087200D01*
X4504900Y6157900D01*
X2731300Y7931300D01*
X2802000Y8002000D01*
X4575600Y6228600D01*
X4646300Y6299300D01*
X2872700Y8072700D01*
X2943600Y8143600D01*
X4717000Y6370000D01*
X4787700Y6440700D01*
X3014300Y8214300D01*
X3085000Y8285000D01*
X4858400Y6511400D01*
X4929200Y6582100D01*
X3155700Y8355600D01*
X3226400Y8426300D01*
X5070600Y6582100D01*
X2807800Y4319400D01*
X2737100Y4390100D01*
G37*
G36*
G01X18015000Y4075900D02*
Y4074200D01*
G02X18012100Y4067200I-10000J42D01*
G01X16487900Y2543000D01*
G02X16480900Y2540100I-7042J7100D01*
G01X4019100D01*
G02X4012100Y2543000I42J10000D01*
G01X2477200Y4078000D01*
G02Y4092200I7042J7100D01*
G01X10232900Y11847900D01*
G02X10247100I7100J-7042D01*
G01X18012100Y4082900D01*
G02X18015000Y4075900I-7100J-7042D01*
G37*
G36*
G01X4922300Y6586800D02*
X3154500Y8354500D01*
X3225200Y8425200D01*
X4993000Y6657500D01*
X5063700Y6728200D01*
X3295900Y8495900D01*
X3366700Y8566700D01*
X5134400Y6798900D01*
X5205100Y6869600D01*
X3437400Y8637400D01*
X3508100Y8708100D01*
X5275800Y6940300D01*
X5346500Y6869600D01*
X4993000Y6516000D01*
X4922300Y6586800D01*
G37*
G36*
G01X5205100Y6869600D02*
X3437400Y8637400D01*
X3508100Y8708100D01*
X5275800Y6940300D01*
X5346500Y7011000D01*
X3578800Y8778800D01*
X3649500Y8849500D01*
X5417300Y7081700D01*
X5488000Y7152400D01*
X3720200Y8920200D01*
X3790900Y8990900D01*
X5558700Y7223100D01*
X5629400Y7293900D01*
X3861600Y9061600D01*
X3932300Y9132300D01*
X5700100Y7364600D01*
X5770800Y7435300D01*
X4003000Y9203000D01*
X4073800Y9273800D01*
X5841500Y7506000D01*
X5912200Y7576700D01*
X4144500Y9344500D01*
X4215200Y9415200D01*
X5982900Y7647400D01*
X6053700Y7718100D01*
X4498000Y9273800D01*
Y9698000D01*
X4639400Y9839400D01*
X5063700D01*
X6619300Y8283800D01*
X6690100Y8354500D01*
X4922300Y10122300D01*
X4993000Y10193000D01*
X6760800Y8425200D01*
X6831500Y8495900D01*
X5063700Y10263700D01*
X5134400Y10334400D01*
X6902200Y8566700D01*
X6972900Y8637400D01*
X5205100Y10405100D01*
X5275800Y10475800D01*
X7043600Y8708100D01*
X7114300Y8778800D01*
X5346500Y10546500D01*
X5417300Y10617300D01*
X7185000Y8849500D01*
X7255700Y8920200D01*
X5488000Y10688000D01*
X5558700Y10758700D01*
X7326400Y8990900D01*
X7397200Y9061600D01*
X5629400Y10829400D01*
X5700100Y10900100D01*
X7467900Y9132300D01*
X7538600Y9061600D01*
X5275800Y6798900D01*
X5205100Y6869600D01*
G37*
G36*
G01X7397200Y9061600D02*
X5629400Y10829400D01*
X5700100Y10900100D01*
X7467900Y9132300D01*
X7538600Y9203000D01*
X5770800Y10970800D01*
X5841500Y11041500D01*
X7609300Y9273800D01*
X7680000Y9344500D01*
X5912200Y11112200D01*
X5982900Y11182900D01*
X7750700Y9415200D01*
X7821400Y9344500D01*
X7467900Y8990900D01*
X7397200Y9061600D01*
G37*
G36*
G01X7680000Y9344500D02*
X5912200Y11112200D01*
X5982900Y11182900D01*
X7750700Y9415200D01*
X7821400Y9485900D01*
X6053700Y11253700D01*
X6124400Y11324400D01*
X7892100Y9556600D01*
X7962800Y9627300D01*
X6195100Y11395100D01*
X6265800Y11465800D01*
X8033600Y9698000D01*
X8104300Y9768700D01*
X6336500Y11536500D01*
X6407200Y11607200D01*
X8175000Y9839400D01*
X8245700Y9910200D01*
X6477900Y11677900D01*
X6548600Y11748600D01*
X8316400Y9980900D01*
X8387100Y10051600D01*
X6619300Y11819300D01*
X6690100Y11890100D01*
X8457800Y10122300D01*
X8528500Y10193000D01*
X6972900Y11748600D01*
Y12172900D01*
X7114300Y12314300D01*
X7538600D01*
X9094200Y10758700D01*
X9164900Y10829400D01*
X7397200Y12597200D01*
X7467900Y12667900D01*
X9235600Y10900100D01*
X9306300Y10970800D01*
X7538600Y12738600D01*
X7609300Y12809300D01*
X9377100Y11041500D01*
X9447800Y11112200D01*
X7680000Y12880000D01*
X7750700Y12950700D01*
X9518500Y11182900D01*
X9590200Y11254800D01*
X7822500Y13022500D01*
X7892100Y13092100D01*
X9659900Y11324400D01*
X9730600Y11395100D01*
X9799200Y11326500D01*
X9803500D01*
X7750700Y9273800D01*
X7680000Y9344500D01*
G37*
G36*
G01X9591800Y11254700D02*
X7824000Y13022400D01*
X7893300Y13091700D01*
X9661000Y11324000D01*
X9733200Y11396100D01*
X7965500Y13163900D01*
X8036200Y13234600D01*
X9803900Y11466800D01*
X9874700Y11537500D01*
X8731100Y12681100D01*
X8800000Y12750000D01*
X10014300Y11535700D01*
X9662500Y11184000D01*
X9591800Y11254700D01*
G37*
G36*
G01X8105100Y13305100D02*
X8712600Y12697600D01*
X8782500Y12767500D01*
X8175000Y13375000D01*
X8105100Y13305100D01*
G37*
G36*
G01X8245100Y13445100D02*
X9070100Y12620100D01*
X9140000Y12690000D01*
X8315000Y13515000D01*
X8245100Y13445100D01*
G37*
G36*
G01X8385100Y13585100D02*
X9422600Y12547600D01*
X9492500Y12617500D01*
X8455000Y13655000D01*
X8385100Y13585100D01*
G37*
G36*
G01X8730000Y12680000D02*
X8799000Y12749000D01*
X9942500Y11605400D01*
X10013200Y11676100D01*
X9087200Y12602200D01*
X9157900Y12672900D01*
X10083900Y11746800D01*
X10154700Y11817500D01*
X9436100Y12536100D01*
X9506800Y12606800D01*
X10296100Y11817500D01*
X9944300Y11465700D01*
X8730000Y12680000D01*
G37*
G36*
G01X11695800Y12754400D02*
X11765100Y12685000D01*
X10619000Y11539000D01*
X10691100Y11466900D01*
X12458900Y13234600D01*
X12529600Y13163900D01*
X10761900Y11396200D01*
X10834000Y11324000D01*
X12601800Y13091800D01*
X12671000Y13022500D01*
X10903300Y11254700D01*
X10832600Y11184000D01*
X10479000Y11537600D01*
X11695800Y12754400D01*
G37*
G36*
G01X10983200Y12611800D02*
X11053900Y12541100D01*
X10335400Y11822600D01*
X10406100Y11751900D01*
X11337100Y12682900D01*
X11407800Y12612200D01*
X10476900Y11681200D01*
X10549100Y11609000D01*
X11695000Y12755000D01*
X11764300Y12685700D01*
X10547600Y11469000D01*
X10194000Y11822600D01*
X10983200Y12611800D01*
G37*
G36*
G01X10762400Y11393200D02*
X10833100Y11322500D01*
X12600900Y13090300D01*
X12670600Y13020600D01*
X10902800Y11252800D01*
X10974500Y11181100D01*
X12742300Y12948900D01*
X12813000Y12878200D01*
X11045200Y11110400D01*
X11115900Y11039700D01*
X12883700Y12807500D01*
X12954400Y12736700D01*
X11186600Y10969000D01*
X11257400Y10898300D01*
X13025100Y12666000D01*
X13095800Y12595300D01*
X11328100Y10827600D01*
X11398800Y10756800D01*
X12954400Y12312500D01*
X13378700D01*
X13520100Y12171100D01*
Y11746800D01*
X11964500Y10191200D01*
X12035200Y10120400D01*
X13802900Y11888200D01*
X13873600Y11817500D01*
X12105900Y10049700D01*
X12176600Y9979000D01*
X13944400Y11746800D01*
X14015100Y11676100D01*
X12247300Y9908300D01*
X12318000Y9837600D01*
X14085800Y11605400D01*
X14156500Y11534700D01*
X12388700Y9766900D01*
X12459400Y9696200D01*
X14227200Y11464000D01*
X14297900Y11393200D01*
X12530100Y9625500D01*
X12600900Y9554800D01*
X14368600Y11322500D01*
X14439300Y11251800D01*
X12671600Y9484100D01*
X12742300Y9413300D01*
X14510000Y11181100D01*
X14580800Y11110400D01*
X12813000Y9342600D01*
X12742300Y9271900D01*
X10691700Y11322500D01*
X10762400Y11393200D01*
G37*
G36*
G01X11067400Y12557600D02*
X12102400Y13592600D01*
X12032500Y13662500D01*
X10997500Y12627500D01*
X11067400Y12557600D01*
G37*
G36*
G01X11424900Y12630100D02*
X12244900Y13450100D01*
X12175000Y13520000D01*
X11355000Y12700000D01*
X11424900Y12630100D01*
G37*
G36*
G01X11780800Y12700100D02*
X12388300Y13307600D01*
X12318300Y13377500D01*
X11710900Y12770000D01*
X11780800Y12700100D01*
G37*
G36*
G01X13025100Y9130500D02*
X14792900Y10898300D01*
X14863600Y10827600D01*
X13095800Y9059800D01*
X13166500Y8989100D01*
X14934300Y10756800D01*
X15005000Y10686100D01*
X13237300Y8918400D01*
X13308000Y8847700D01*
X15075700Y10615400D01*
X15146400Y10544700D01*
X13378700Y8776900D01*
X13449400Y8706200D01*
X15217200Y10474000D01*
X15287900Y10403300D01*
X13520100Y8635500D01*
X13590800Y8564800D01*
X15358600Y10332600D01*
X15429300Y10261900D01*
X13661500Y8494100D01*
X13732200Y8423400D01*
X15500000Y10191200D01*
X15570700Y10120400D01*
X13802900Y8352700D01*
X13873600Y8282000D01*
X15429300Y9837600D01*
X15853500D01*
X15995000Y9696200D01*
Y9271900D01*
X14439300Y7716300D01*
X14510000Y7645600D01*
X16277800Y9413300D01*
X16348500Y9342600D01*
X14580800Y7574900D01*
X14651500Y7504200D01*
X16419200Y9271900D01*
X16489900Y9201200D01*
X14722200Y7433400D01*
X14792900Y7362700D01*
X16560700Y9130500D01*
X16631400Y9059800D01*
X14863600Y7292000D01*
X14934300Y7221300D01*
X16702100Y8989100D01*
X16772800Y8918400D01*
X15005000Y7150600D01*
X15075700Y7079900D01*
X16843500Y8847700D01*
X16914200Y8776900D01*
X15146400Y7009200D01*
X15217200Y6938500D01*
X16984900Y8706200D01*
X17055600Y8635500D01*
X15287900Y6867800D01*
X15217200Y6797000D01*
X12954400Y9059800D01*
X13025100Y9130500D01*
G37*
G36*
G01X12742300Y9413300D02*
X14510000Y11181100D01*
X14580800Y11110400D01*
X12813000Y9342600D01*
X12883700Y9271900D01*
X14651500Y11039700D01*
X14722200Y10969000D01*
X12954400Y9201200D01*
X13025100Y9130500D01*
X14792900Y10898300D01*
X14863600Y10827600D01*
X13095800Y9059800D01*
X13025100Y8989100D01*
X12671600Y9342600D01*
X12742300Y9413300D01*
G37*
G36*
G01X15500000Y6655600D02*
X17267800Y8423400D01*
X17338500Y8352700D01*
X15570700Y6584900D01*
X15641400Y6514200D01*
X17409200Y8282000D01*
X17479900Y8211300D01*
X15712100Y6443500D01*
X15782800Y6372800D01*
X17550600Y8140500D01*
X17621300Y8069800D01*
X15853500Y6302100D01*
X15924300Y6231400D01*
X17692000Y7999100D01*
X17762700Y7928400D01*
X15995000Y6160600D01*
X16065700Y6089900D01*
X17833400Y7857700D01*
X17904200Y7787000D01*
X16136400Y6019200D01*
X16207100Y5948500D01*
X17974900Y7716300D01*
X18045600Y7645600D01*
X16277800Y5877800D01*
X16348500Y5807100D01*
X17904200Y7362700D01*
X18328400D01*
X18469800Y7221300D01*
Y6797000D01*
X16914200Y5241400D01*
X16984900Y5170700D01*
X18752700Y6938500D01*
X18823400Y6867800D01*
X17055600Y5100000D01*
X17126300Y5029300D01*
X18894100Y6797000D01*
X18964800Y6726300D01*
X17197100Y4958600D01*
X17267800Y4887900D01*
X19035500Y6655600D01*
X19106200Y6584900D01*
X17338500Y4817100D01*
X17409200Y4746400D01*
X19176900Y6514200D01*
X19247700Y6443500D01*
X17479900Y4675700D01*
X17550600Y4605000D01*
X19318400Y6372800D01*
X19389100Y6302100D01*
X17621300Y4534300D01*
X17692000Y4463600D01*
X19459800Y6231400D01*
X19530500Y6160600D01*
X17762700Y4392900D01*
X17692000Y4322200D01*
X15429300Y6584900D01*
X15500000Y6655600D01*
G37*
G36*
G01X15217200Y6938500D02*
X16984900Y8706200D01*
X17055600Y8635500D01*
X15287900Y6867800D01*
X15358600Y6797000D01*
X17126300Y8564800D01*
X17197100Y8494100D01*
X15429300Y6726300D01*
X15500000Y6655600D01*
X17267800Y8423400D01*
X17338500Y8352700D01*
X15570700Y6584900D01*
X15500000Y6514200D01*
X15146400Y6867800D01*
X15217200Y6938500D01*
G37*
G36*
G01X17694700Y4463300D02*
X19462500Y6231100D01*
X19533200Y6160300D01*
X17765400Y4392600D01*
X17836100Y4321900D01*
X19603900Y6089600D01*
X19674600Y6018900D01*
X17906900Y4251200D01*
X17977600Y4180500D01*
X19745300Y5948200D01*
X19816000Y5877500D01*
X18048300Y4109700D01*
X17977600Y4039000D01*
X17624000Y4392600D01*
X17694700Y4463300D01*
G37*
%LPC*%
G75*
G36*
G01X9587600Y8629900D02*
G03X9604900Y8612600I19820J2520D01*
G02X9562400Y8570100I-4900J-37600D01*
G03X9545100Y8587400I-19820J-2520D01*
G02X9587600Y8629900I4900J37600D01*
G37*
G36*
G01X9719800Y5340200D02*
X10780200D01*
G02X10790200Y5330200I0J-10000D01*
G01Y4269800D01*
G02X10780200Y4259800I-10000J0D01*
G01X9719800D01*
G02X9709800Y4269800I0J10000D01*
G01Y5330200D01*
G02X9719800Y5340200I10000J0D01*
G37*
G54D13*
X7973000Y3657000D03*
Y3911000D03*
Y4165000D03*
Y4419000D03*
Y4673000D03*
Y4927000D03*
Y5181000D03*
Y5435000D03*
Y5689000D03*
Y5943000D03*
X8227000Y3657000D03*
Y3911000D03*
Y4165000D03*
Y4419000D03*
Y4673000D03*
Y4927000D03*
Y5181000D03*
Y5435000D03*
Y5689000D03*
Y5943000D03*
X12527000Y3657000D03*
X12273000D03*
X12527000Y3911000D03*
X12273000D03*
X12527000Y4165000D03*
Y4419000D03*
X12273000Y4165000D03*
Y4419000D03*
X12527000Y4673000D03*
Y4927000D03*
X12273000Y4673000D03*
Y4927000D03*
X12527000Y5181000D03*
X12273000D03*
X12527000Y5435000D03*
Y5689000D03*
X12273000Y5435000D03*
Y5689000D03*
X12527000Y5943000D03*
X12273000D03*
G54D14*
X8579000Y7296000D03*
X9185000Y6325000D03*
X8950000Y6850000D03*
X8955200Y7175000D03*
X8950000Y7725000D03*
X9525000Y6325000D03*
Y6625000D03*
X9300000Y7425000D03*
X9880000Y6105000D03*
Y6355000D03*
X9875000Y6925000D03*
X9700000Y8575000D03*
X9777500Y8497500D03*
X10775000Y6950000D03*
X11150000Y5925000D03*
X11025000Y6425000D03*
X11225000Y7475000D03*
X11025000Y7925000D03*
X11020000Y8435000D03*
X11550000Y6875000D03*
Y7775000D03*
X11525000Y7425000D03*
X12021000Y7304000D03*
%LPD*%
G75*
G54D10*
X2130000Y6785000D03*
X2300000Y6620000D03*
X2055000Y6990000D03*
X2575000Y4105000D03*
X2480000Y6440000D03*
X2635000Y6285000D03*
X2395000Y7330000D03*
X2625000Y7235000D03*
X3085000Y3650000D03*
X2945000Y3790000D03*
X2820000Y4345000D03*
X3030000Y4545000D03*
X3195000Y4725000D03*
X2795000Y6125000D03*
X2960000Y5960000D03*
X3165000Y5760000D03*
X3120000Y6740000D03*
X2935000Y6920000D03*
X2790000Y7065000D03*
X3500000Y3220000D03*
X3365000Y3365000D03*
X3225000Y3495000D03*
X3540000Y5065000D03*
X3380000Y4900000D03*
X3345000Y5580000D03*
X3505000Y5405000D03*
X3460000Y6400000D03*
X3290000Y6570000D03*
X3900000Y2765000D03*
X3755000Y2940000D03*
X3625000Y3085000D03*
X3645000Y3625000D03*
X3635000Y4150000D03*
X3650000Y4620000D03*
X3710000Y5220000D03*
X3860000Y5375000D03*
X3990000Y5870000D03*
X3805000Y6040000D03*
X3650000Y6215000D03*
X4240000Y2595000D03*
X4045000Y2610000D03*
X4270000Y3045000D03*
X4260000Y3645000D03*
X4245000Y4160000D03*
X4250000Y4760000D03*
X4380000Y5385000D03*
X4140000D03*
X4375000Y5660000D03*
X4130000Y5650000D03*
X4310000Y5815000D03*
X4470000Y2590000D03*
X4725000Y2585000D03*
X4625000Y5380000D03*
X4620000Y5660000D03*
X4470000Y5995000D03*
X4625000Y6140000D03*
X4795000Y6305000D03*
X4595000Y9265000D03*
X4765000Y9095000D03*
X4530000Y9515000D03*
X4980000Y2585000D03*
X5260000Y2590000D03*
X5115000Y3075000D03*
X5090000Y3615000D03*
X5080000Y4155000D03*
X5060000Y4755000D03*
X5115000Y5380000D03*
X4865000Y5375000D03*
X5110000Y5670000D03*
X4860000Y5655000D03*
X5110000Y6015000D03*
X4965000Y6470000D03*
X5115000Y6625000D03*
X5260000Y6785000D03*
X4935000Y8925000D03*
X5105000Y8760000D03*
X4880000Y9825000D03*
X5080000Y9735000D03*
X5260000Y9555000D03*
X5550000Y2590000D03*
X5610000Y5365000D03*
X5365000Y5370000D03*
X5660000Y5680000D03*
X5365000Y5685000D03*
X5540000Y6235000D03*
X5375000Y6385000D03*
X5410000Y6940000D03*
X5350000Y6625000D03*
X5565000Y7095000D03*
X5480000Y8385000D03*
X5300000Y8570000D03*
X5625000Y9180000D03*
X5445000Y9370000D03*
X5820000Y2580000D03*
X5985000Y3075000D03*
X5975000Y3585000D03*
X5960000Y4160000D03*
X5950000Y4765000D03*
X5870000Y5365000D03*
X5940000Y5690000D03*
X5895000Y5980000D03*
X5705000Y6080000D03*
X5755000Y6485000D03*
X5900000Y6335000D03*
X5770000Y6810000D03*
X5710000Y6675000D03*
X6045000Y7115000D03*
X5710000Y7235000D03*
X5910000Y6970000D03*
X5980000Y7515000D03*
X5845000Y7380000D03*
X5820000Y8055000D03*
X5970000Y7895000D03*
X5680000Y8205000D03*
X5820000Y8995000D03*
X5975000Y8835000D03*
X6100000Y2580000D03*
X6390000D03*
X6455000Y5495000D03*
X6340000Y5385000D03*
X6125000Y5370000D03*
X6465000Y6010000D03*
X6310000Y5860000D03*
X6160000Y5725000D03*
Y5990000D03*
X6410000Y6445000D03*
X6290000Y6320000D03*
X6095000Y6260000D03*
X6205000Y6775000D03*
X6170000Y7235000D03*
X6305000Y7370000D03*
X6420000Y7485000D03*
X6260000Y7780000D03*
X6110000Y7640000D03*
X6290000Y8525000D03*
X6450000Y8370000D03*
X6130000Y8675000D03*
X6670000Y2580000D03*
X6575000Y5625000D03*
X6710000Y5760000D03*
X6840000Y5900000D03*
X6875000Y6415000D03*
X6760000Y6280000D03*
X6620000Y6150000D03*
X6675000Y6685000D03*
X6540000Y6570000D03*
X6910000Y6910000D03*
X6800000Y6800000D03*
X6635000Y7190000D03*
X6555000Y7620000D03*
X6870000Y7690000D03*
X6520000Y8045000D03*
X6585000Y7830000D03*
X6745000Y7865000D03*
X6725000Y8050000D03*
X6690000Y8215000D03*
X6860000Y8385000D03*
X6980000Y2580000D03*
X7280000Y2590000D03*
X7085000Y3085000D03*
X7070000Y3580000D03*
X7050000Y4140000D03*
X7035000Y4775000D03*
X7030000Y5395000D03*
X6990000Y6040000D03*
X7110000Y6170000D03*
X7230000Y6290000D03*
X7100000Y6690000D03*
X6980000Y6565000D03*
X7330000Y6930000D03*
X7220000Y6820000D03*
X7040000Y7040000D03*
X7300000Y7290000D03*
X7170000Y7160000D03*
X7185000Y7430000D03*
X7015000Y7530000D03*
X7085000Y8160000D03*
X7100000Y7985000D03*
X7215000Y7855000D03*
X7315000Y8440000D03*
X7020000Y8545000D03*
X7175000Y8295000D03*
X7180000Y8705000D03*
X7330000Y8855000D03*
X7085000Y11730000D03*
X7245000Y11575000D03*
X7005000Y11940000D03*
X7530000Y2580000D03*
X7470000Y6480000D03*
X7340000Y6420000D03*
X7680000Y6480000D03*
X7420000Y6720000D03*
X7660000D03*
X7560000Y7170000D03*
X7450000Y7050000D03*
X7740000Y7170000D03*
X7670000Y7420000D03*
X7370000Y7765000D03*
X7590000Y7750000D03*
X7600000Y8130000D03*
X7440000Y8565000D03*
X7580000Y8710000D03*
X7710000Y8835000D03*
X7480000Y9010000D03*
X7660000Y9195000D03*
X7740000Y11080000D03*
X7405000Y11420000D03*
X7565000Y11250000D03*
X7355000Y12280000D03*
X7575000Y12185000D03*
X7735000Y12025000D03*
X7850000Y2580000D03*
X8110000D03*
Y2950000D03*
X7910000Y6480000D03*
X8130000D03*
X7900000Y6720000D03*
X8130000D03*
X7900000Y7170000D03*
X8080000D03*
X7870000Y7420000D03*
X8070000D03*
X7805000Y7760000D03*
X7945000Y7855000D03*
X8130000Y7850000D03*
X7840000Y8955000D03*
X7980000Y9080000D03*
X8120000Y9210000D03*
X7830000Y9365000D03*
X7995000Y9525000D03*
X8155000Y9685000D03*
X7910000Y10905000D03*
X8100000Y10715000D03*
X7895000Y11865000D03*
X8060000Y11705000D03*
X8380000Y2580000D03*
X8350000Y6480000D03*
X8550000D03*
X8330000Y6720000D03*
X8520000D03*
X8290000Y7170000D03*
X8500000Y7150000D03*
X8290000Y7410000D03*
X8560000Y7610000D03*
X8480000Y7420000D03*
X8340000Y7850000D03*
X8570000D03*
X8510000Y8140000D03*
X8520000Y8550000D03*
X8160000Y8635000D03*
X8250000Y9350000D03*
X8550000Y9110000D03*
X8390000Y9500000D03*
X8535000Y9620000D03*
X8305000Y9835000D03*
X8455000Y9995000D03*
X8295000Y10530000D03*
X8455000Y10365000D03*
X8410000Y11350000D03*
X8240000Y11520000D03*
X8630000Y2580000D03*
X8870000D03*
X8760000Y5735000D03*
X8765000Y6100000D03*
X8770000Y6490000D03*
X8780000Y6890000D03*
X8670000Y6740000D03*
X8900000Y6620000D03*
X8950000Y6850000D03*
X8690000Y7170000D03*
X8980000Y7090000D03*
X8830000Y7170000D03*
X8890000Y7000000D03*
X8955200Y7175000D03*
X8579000Y7296000D03*
X8760000Y7620000D03*
X8690000Y7440000D03*
X8950000Y7450000D03*
X8910000Y7560000D03*
X8830000Y7440000D03*
X8950000Y7725000D03*
X8770000Y7850000D03*
X8980000Y7860000D03*
X8680000Y9775000D03*
X8835000Y9925000D03*
X8625000Y10160000D03*
X8755000Y10990000D03*
X8930000Y10820000D03*
X8595000Y11165000D03*
X9160000Y2590000D03*
X9240000Y2940000D03*
X9220000Y3750000D03*
X9230000Y4530000D03*
X9235000Y5145000D03*
X9220000Y5750000D03*
X9185000Y6325000D03*
X9160200Y6500000D03*
X9375000Y6265000D03*
X9150000Y6860000D03*
X9050000Y6730000D03*
X9100000Y7296000D03*
X9240000Y7010000D03*
X9330000Y7160000D03*
X9335000Y7350000D03*
X9220000Y7540000D03*
X9160000Y7740000D03*
X9300000Y7425000D03*
X9050000Y8175000D03*
X9255000Y8120000D03*
X9230000Y8320000D03*
X9190000Y8570000D03*
X8990000Y9490000D03*
X9010000Y10110000D03*
X9055000Y10585000D03*
X9075000Y10340000D03*
X9255000Y10790000D03*
X9385000Y12660000D03*
X9450000Y2580000D03*
X9760000D03*
X9755000Y5660000D03*
X9675000Y6100000D03*
X9525000Y6325000D03*
X9450000Y6210000D03*
Y6440000D03*
X9765000Y6510000D03*
X9780000Y6325000D03*
X9810000Y6190000D03*
X9535000Y6210000D03*
X9530000Y6515000D03*
X9470000Y6910000D03*
X9730000Y6920000D03*
X9675000Y6700000D03*
X9760000D03*
X9400000Y6745000D03*
X9525000Y6625000D03*
X9540000Y7160000D03*
X9440000Y7060000D03*
X9690000Y7110000D03*
X9600000Y7450000D03*
X9440000Y7440000D03*
X9505000Y7670000D03*
X9400000Y7665000D03*
X9605000Y7670000D03*
X9660000Y8110000D03*
X9450000Y8175000D03*
X9510000Y7950000D03*
X9455000Y8050000D03*
X9430000Y8490000D03*
X9680000Y8300000D03*
X9510000Y8490000D03*
X9700000Y8575000D03*
X9777500Y8497500D03*
X9600000Y8575000D03*
X9420000Y8640000D03*
X9680000Y8880000D03*
X9430000Y8905000D03*
X9550000Y8625000D03*
X9590000Y9120000D03*
X9440000Y10970000D03*
X9690000Y10760000D03*
X9625000Y11160000D03*
X9550000Y12495000D03*
X10080000Y2580000D03*
X9880000Y6105000D03*
X9970000Y6490000D03*
Y6270000D03*
X10100000Y6300000D03*
X10080000Y6440000D03*
X10120000Y6160000D03*
X9880000Y6355000D03*
X9980000Y6720000D03*
X10130000Y6860000D03*
X10100000Y6560000D03*
X9875000Y6925000D03*
X9960000Y7140000D03*
X10000000Y6960000D03*
X10090000Y7030000D03*
Y7140000D03*
X9960000Y7440000D03*
X9940000Y7620000D03*
Y7850000D03*
Y8130000D03*
X9930000Y8390000D03*
Y8620000D03*
Y8800000D03*
X9815000Y11345000D03*
X9990000Y11520000D03*
X10175000Y11710000D03*
X10340000Y2580000D03*
X10270000Y2940000D03*
Y3710000D03*
X10500000Y5685000D03*
X10250000Y6150000D03*
X10400000Y6300000D03*
X10390000Y6160000D03*
X10420000Y6460000D03*
X10550000Y6160000D03*
X10555000Y6320000D03*
X10420000Y6870000D03*
X10410000Y6690000D03*
X10530000Y6750000D03*
X10440000Y7030000D03*
Y7150000D03*
X10570000D03*
X10260000Y7440000D03*
X10240000Y7620000D03*
X10570000Y7440000D03*
X10580000Y7630000D03*
X10250000Y8150000D03*
X10260000Y7860000D03*
X10580000Y7850000D03*
Y8120000D03*
X10240000Y8390000D03*
X10590000Y8400000D03*
X10270000Y8810000D03*
X10240000Y8620000D03*
X10600000Y8630000D03*
X10580000Y8810000D03*
X10225000Y9110000D03*
X10275000Y9630000D03*
X10235000Y10745000D03*
X10570000Y11450000D03*
X10420000Y11600000D03*
X10250000D03*
X10315000Y11725000D03*
X10650000Y2580000D03*
X10960000D03*
X11025000Y6425000D03*
X10950000Y6200000D03*
X10820000Y6455000D03*
X10640000Y6950000D03*
X10925000Y6850000D03*
X10950000Y6750000D03*
X10730000Y6760000D03*
Y6580000D03*
X10960000Y6550000D03*
X10775000Y6950000D03*
X10760000Y7090000D03*
X10910000Y7180000D03*
X10920000Y6970000D03*
X10900000Y7440000D03*
X10930000Y7680000D03*
X11025000Y7925000D03*
X10930000Y8000000D03*
X11025000Y8350000D03*
X10880000Y8330000D03*
X10750000Y8525000D03*
X10940000Y8530000D03*
X11020000Y8435000D03*
X10940000Y8690000D03*
X10750000Y9110000D03*
X11030000Y10980000D03*
X10840000Y10750000D03*
X10720000Y11300000D03*
X10865000Y11150000D03*
X10940000Y12500000D03*
X11300000Y2580000D03*
X11230000Y2930000D03*
X11240000Y3700000D03*
X11280000Y4510000D03*
X11135000Y5700000D03*
X11225000Y6100000D03*
X11150000Y5925000D03*
X11175000Y6300000D03*
X11455000Y6335000D03*
X11430000Y6790000D03*
X11340000Y6900000D03*
X11130000Y7170000D03*
X11110000Y6960000D03*
X11300000Y7020000D03*
X11400000Y7304000D03*
X11280000Y7620000D03*
X11120000Y7440000D03*
X11110000Y7680000D03*
X11225000Y7475000D03*
X11260000Y8120000D03*
X11350000Y7790000D03*
X11090000Y8010000D03*
X11425000Y8350000D03*
X11410000Y8490000D03*
X11150000Y8525000D03*
X11300000Y8620000D03*
X11100000Y8660000D03*
X11320000Y9105000D03*
X11250000Y9515000D03*
X11410000Y10055000D03*
X11390000Y10240000D03*
X11355000Y10665000D03*
X11420000Y10395000D03*
X11185000Y10835000D03*
X11110000Y12670000D03*
X11600000Y2580000D03*
X11750000Y5160000D03*
X11730000Y5800000D03*
X11760000Y6480000D03*
X11740000Y6150000D03*
X11530000Y6690000D03*
X11640000Y6590000D03*
X11730000Y6900000D03*
X11840000Y6790000D03*
X11550000Y6875000D03*
Y7150000D03*
X11660000Y7170000D03*
X11610000Y7030000D03*
X11800000Y7170000D03*
X11530000Y7530000D03*
X11650000Y7450000D03*
X11580000Y7600000D03*
X11800000Y7440000D03*
X11740000Y7640000D03*
X11550000Y7775000D03*
X11525000Y7425000D03*
X11510000Y7930000D03*
X11720000Y7890000D03*
X11780000Y9130000D03*
X11670000Y9770000D03*
X11800000Y9640000D03*
X11530000Y9900000D03*
X11755000Y10265000D03*
X11495000Y10520000D03*
X11740000Y10990000D03*
X11545000Y10810000D03*
X11890000Y2580000D03*
X12200000Y2590000D03*
X12180000Y2930000D03*
X11940000Y6460000D03*
X12150000D03*
X11990000Y6700000D03*
X12170000D03*
X11960000Y7170000D03*
X12130000D03*
X12021000Y7304000D03*
X11960000Y7440000D03*
X11920000Y7630000D03*
X12140000D03*
X12130000Y7440000D03*
X11920000Y7890000D03*
X12120000D03*
X12050000Y8410000D03*
Y9390000D03*
X12180000Y9260000D03*
X12220000Y9800000D03*
X11930000Y9520000D03*
X12070000Y9950000D03*
X11910000Y10110000D03*
X12015000Y10340000D03*
X12200000Y10530000D03*
X11880000Y11140000D03*
X12040000Y11300000D03*
X12180000Y11450000D03*
X12520000Y2590000D03*
X12370000Y6450000D03*
X12590000D03*
X12380000Y6700000D03*
Y6910000D03*
X12580000Y6700000D03*
X12320000Y7170000D03*
X12480000D03*
X12630000D03*
X12330000Y7640000D03*
X12320000Y7440000D03*
X12500000D03*
X12595000Y7640000D03*
X12345000Y7890000D03*
X12560000Y7900000D03*
X12450000Y9020000D03*
X12600000Y8870000D03*
X12640000Y9380000D03*
X12310000Y9150000D03*
X12490000Y9530000D03*
X12350000Y9670000D03*
X12395000Y10710000D03*
X12560000Y10880000D03*
X12360000Y11625000D03*
X12545000Y11810000D03*
X12800000Y2590000D03*
X13000000Y6130000D03*
X13110000Y6010000D03*
X12740000Y6370000D03*
X12870000Y6240000D03*
X13060000Y6400000D03*
X12770000Y6690000D03*
X12930000Y6550000D03*
X13010000Y6910000D03*
X12770000Y7140000D03*
X12890000Y7030000D03*
X13020000Y7280000D03*
X12720000Y7440000D03*
X12890000Y7390000D03*
X12965000Y7520000D03*
X12770000Y7875000D03*
X12895000Y7785000D03*
X13095000D03*
X13105000Y8395000D03*
X12940000Y8565000D03*
X13060000Y8960000D03*
X12755000Y8735000D03*
X12920000Y9100000D03*
X12760000Y9260000D03*
X12745000Y11070000D03*
X12915000Y11235000D03*
X13080000Y11405000D03*
X12735000Y12005000D03*
X12915000Y12190000D03*
X13140000Y2590000D03*
X13440000D03*
X13190000Y2940000D03*
Y3650000D03*
X13180000Y4400000D03*
X13170000Y4910000D03*
X13230000Y5380000D03*
X13505000Y5595000D03*
X13240000Y5890000D03*
X13370000Y5740000D03*
X13470000Y6010000D03*
X13200000Y6270000D03*
X13320000Y6170000D03*
X13480000Y6450000D03*
X13140000Y6790000D03*
X13250000Y6680000D03*
X13360000Y6570000D03*
X13420000Y6880000D03*
X13170000Y7150000D03*
X13300000Y7010000D03*
X13195000Y7515000D03*
X13430000Y7520000D03*
X13285000Y7815000D03*
X13410000Y7925000D03*
X13400000Y8085000D03*
X13265000Y8230000D03*
X13510000Y8510000D03*
X13200000Y8820000D03*
X13345000Y8680000D03*
X13415000Y11735000D03*
X13240000Y11560000D03*
X13170000Y12280000D03*
X13485000Y11950000D03*
X13750000Y2590000D03*
X13635000Y5460000D03*
X13820000Y5375000D03*
X13620000Y5870000D03*
X13785000Y5725000D03*
X13870000Y6050000D03*
X13805000Y6485000D03*
X13915000Y6370000D03*
X13625000Y6320000D03*
X13745000Y6180000D03*
X13550000Y6750000D03*
X13675000Y6615000D03*
X13800000Y7120000D03*
X13930000Y7630000D03*
X13875000Y7770000D03*
X13565000Y7660000D03*
X13830000Y8180000D03*
X13695000Y7800000D03*
X13715000Y7980000D03*
X13910000Y7910000D03*
X13665000Y8340000D03*
X14170000Y2590000D03*
X14065000Y5375000D03*
X14310000D03*
X13960000Y5650000D03*
X14205000Y5635000D03*
X14070000Y5935000D03*
X14295000Y5930000D03*
X14045000Y6265000D03*
X14195000Y6215000D03*
X14230000Y6680000D03*
X14260000Y7290000D03*
X14250000Y7770000D03*
X14150000Y7410000D03*
X14030000Y7520000D03*
X13980000Y8030000D03*
X14215000Y8515000D03*
X14025000Y8340000D03*
X14500000Y2590000D03*
X14490000Y2965000D03*
X14500000Y3675000D03*
X14505000Y4380000D03*
X14485000Y4895000D03*
X14545000Y5375000D03*
X14770000D03*
X14470000Y5635000D03*
X14725000Y5640000D03*
X14535000Y5935000D03*
X14705000Y6000000D03*
X14375000Y6210000D03*
X14520000Y6280000D03*
X14635000Y6380000D03*
X14740000Y6485000D03*
X14635000Y6895000D03*
X14740000Y6785000D03*
X14670000Y7350000D03*
X14505000Y7025000D03*
X14380000Y7160000D03*
X14540000Y7480000D03*
X14390000Y7625000D03*
X14500000Y7870000D03*
X14675000Y8055000D03*
X14380000Y8695000D03*
X14560000Y8875000D03*
X14745000Y9055000D03*
X14790000Y2580000D03*
X15120000Y2590000D03*
X15000000Y5380000D03*
X14975000Y5630000D03*
X14840000Y6130000D03*
X14945000Y6260000D03*
X15050000Y6380000D03*
X15110000Y6910000D03*
X14775000Y6630000D03*
X15080000Y6570000D03*
X15075000Y6755000D03*
X14970000Y7050000D03*
X14820000Y7200000D03*
X14855000Y8220000D03*
X15040000Y8410000D03*
X14905000Y9220000D03*
X15080000Y9395000D03*
X15420000Y2585000D03*
X15245000Y5625000D03*
X15510000Y5630000D03*
X15265000Y5390000D03*
X15530000Y5385000D03*
X15520000Y6500000D03*
X15390000Y6630000D03*
X15240000Y6780000D03*
X15225000Y8595000D03*
X15415000Y8780000D03*
X15580000Y8950000D03*
X15240000Y9555000D03*
X15395000Y9710000D03*
X15690000Y2585000D03*
X15935000Y2590000D03*
X15735000Y2965000D03*
X15725000Y3650000D03*
X15730000Y4385000D03*
X15685000Y4885000D03*
X15780000Y5635000D03*
X15815000Y5380000D03*
X15940000Y6060000D03*
X15655000Y6350000D03*
X15810000Y6205000D03*
X15900000Y9270000D03*
X15740000Y9105000D03*
X15665000Y9805000D03*
X15965000Y9495000D03*
X16160000Y2595000D03*
X16030000Y5630000D03*
X16280000Y5620000D03*
X16050000Y5380000D03*
X16315000Y5385000D03*
X16095000Y5910000D03*
X16245000Y5765000D03*
X16615000Y2770000D03*
X16800000Y2960000D03*
X16670000Y3635000D03*
X16630000Y4390000D03*
X16825000Y5185000D03*
X16600000Y4910000D03*
X16645000Y5365000D03*
X16500000Y5865000D03*
X16690000Y6040000D03*
X16970000Y3135000D03*
X17110000Y3280000D03*
X17145000Y4865000D03*
X16980000Y5025000D03*
X16975000Y5390000D03*
X17150000Y5580000D03*
X17030000Y6395000D03*
X16845000Y6215000D03*
X17200000Y6570000D03*
X17260000Y3435000D03*
X17435000Y3595000D03*
X17580000Y3745000D03*
X17600000Y4410000D03*
X17450000Y4570000D03*
X17300000Y4720000D03*
X17490000Y5915000D03*
X17315000Y5740000D03*
X17375000Y6740000D03*
X17540000Y6905000D03*
X17730000Y3890000D03*
X17905000Y4050000D03*
X17855000Y4165000D03*
X17745000Y4275000D03*
X17670000Y6090000D03*
X18025000Y6445000D03*
X17840000Y6260000D03*
X17880000Y7250000D03*
X17710000Y7080000D03*
X18355000Y6770000D03*
X18195000Y6610000D03*
X18105000Y7335000D03*
X18435000Y6995000D03*
G54D11*
X7973000Y3657000D03*
Y3911000D03*
Y4165000D03*
Y4419000D03*
Y4673000D03*
Y4927000D03*
Y5181000D03*
Y5435000D03*
Y5689000D03*
Y5943000D03*
X8227000Y3657000D03*
Y3911000D03*
Y4165000D03*
Y4419000D03*
Y4673000D03*
Y4927000D03*
Y5181000D03*
Y5435000D03*
Y5689000D03*
Y5943000D03*
X12273000Y3657000D03*
Y3911000D03*
Y4165000D03*
Y4419000D03*
Y4673000D03*
Y4927000D03*
Y5181000D03*
Y5435000D03*
Y5689000D03*
Y5943000D03*
X12527000Y3657000D03*
Y3911000D03*
Y4165000D03*
Y4419000D03*
Y4673000D03*
Y4927000D03*
Y5181000D03*
Y5435000D03*
Y5689000D03*
Y5943000D03*
G54D12*
G01X7973000Y3549300D02*
Y3657000D01*
G01D02*
Y3764700D01*
G01X7865300Y3657000D02*
X7973000D01*
G01D02*
X8080700D01*
G01X12165300Y3911000D02*
X12273000D01*
G01Y3803300D02*
Y3911000D01*
G01D02*
Y4018700D01*
G01Y3911000D02*
X12380700D01*
M02*
