G04*
G04 #@! TF.GenerationSoftware,Altium Limited,Altium Designer,25.0.2 (28)*
G04*
G04 Layer_Color=16711935*
%FSLAX24Y24*%
%MOIN*%
G70*
G04*
G04 #@! TF.SameCoordinates,4B7BC283-7035-4C9F-97D5-5998C8FB6373*
G04*
G04*
G04 #@! TF.FilePolarity,Positive*
G04*
G01*
G75*
%ADD11C,0.0039*%
D11*
X59967Y-37145D02*
G03*
X59967Y-37145I-118J0D01*
G01*
Y-36830D02*
G03*
X59967Y-36830I-118J0D01*
G01*
Y-36515D02*
G03*
X59967Y-36515I-118J0D01*
G01*
Y-36201D02*
G03*
X59967Y-36201I-118J0D01*
G01*
Y-35571D02*
G03*
X59967Y-35571I-118J0D01*
G01*
Y-35886D02*
G03*
X59967Y-35886I-118J0D01*
G01*
X19972Y-32190D02*
G03*
X19972Y-32190I-118J0D01*
G01*
Y-32505D02*
G03*
X19972Y-32505I-118J0D01*
G01*
Y-32820D02*
G03*
X19972Y-32820I-118J0D01*
G01*
Y-33135D02*
G03*
X19972Y-33135I-118J0D01*
G01*
Y-33765D02*
G03*
X19972Y-33765I-118J0D01*
G01*
Y-33450D02*
G03*
X19972Y-33450I-118J0D01*
G01*
Y-46245D02*
G03*
X19972Y-46245I-118J0D01*
G01*
Y-46560D02*
G03*
X19972Y-46560I-118J0D01*
G01*
Y-45930D02*
G03*
X19972Y-45930I-118J0D01*
G01*
Y-45615D02*
G03*
X19972Y-45615I-118J0D01*
G01*
Y-45300D02*
G03*
X19972Y-45300I-118J0D01*
G01*
Y-44985D02*
G03*
X19972Y-44985I-118J0D01*
G01*
X55547Y-26875D02*
G03*
X55547Y-26875I-118J0D01*
G01*
X55232D02*
G03*
X55232Y-26875I-118J0D01*
G01*
X55862D02*
G03*
X55862Y-26875I-118J0D01*
G01*
X56177D02*
G03*
X56177Y-26875I-118J0D01*
G01*
X56492D02*
G03*
X56492Y-26875I-118J0D01*
G01*
X56807D02*
G03*
X56807Y-26875I-118J0D01*
G01*
X24421D02*
G03*
X24421Y-26875I-118J0D01*
G01*
X24106D02*
G03*
X24106Y-26875I-118J0D01*
G01*
X24736D02*
G03*
X24736Y-26875I-118J0D01*
G01*
X25051D02*
G03*
X25051Y-26875I-118J0D01*
G01*
X25366D02*
G03*
X25366Y-26875I-118J0D01*
G01*
X25681D02*
G03*
X25681Y-26875I-118J0D01*
G01*
X24421Y-51875D02*
G03*
X24421Y-51875I-118J0D01*
G01*
X24106D02*
G03*
X24106Y-51875I-118J0D01*
G01*
X24736D02*
G03*
X24736Y-51875I-118J0D01*
G01*
X25051D02*
G03*
X25051Y-51875I-118J0D01*
G01*
X25366D02*
G03*
X25366Y-51875I-118J0D01*
G01*
X25681D02*
G03*
X25681Y-51875I-118J0D01*
G01*
X56807D02*
G03*
X56807Y-51875I-118J0D01*
G01*
X56492D02*
G03*
X56492Y-51875I-118J0D01*
G01*
X56177D02*
G03*
X56177Y-51875I-118J0D01*
G01*
X55862D02*
G03*
X55862Y-51875I-118J0D01*
G01*
X55232D02*
G03*
X55232Y-51875I-118J0D01*
G01*
X55547D02*
G03*
X55547Y-51875I-118J0D01*
G01*
M02*
