G04*
G04 #@! TF.GenerationSoftware,Altium Limited,Altium Designer,25.0.2 (28)*
G04*
G04 Layer_Physical_Order=3*
G04 Layer_Color=16440176*
%FSLAX24Y24*%
%MOIN*%
G70*
G04*
G04 #@! TF.SameCoordinates,4B7BC283-7035-4C9F-97D5-5998C8FB6373*
G04*
G04*
G04 #@! TF.FilePolarity,Positive*
G04*
G01*
G75*
%ADD10C,0.0059*%
%ADD65C,0.0098*%
%ADD67C,0.0157*%
%ADD70C,0.0630*%
%ADD73C,0.0827*%
%ADD76C,0.0197*%
%ADD77C,0.0236*%
%ADD78C,0.0094*%
G36*
X59039Y52228D02*
X58968D01*
X58896Y52198D01*
X58841Y52143D01*
X58811Y52070D01*
Y51992D01*
X58841Y51920D01*
X58896Y51864D01*
X58968Y51834D01*
X59039D01*
Y26891D01*
X59006D01*
X58934Y26861D01*
X58878Y26806D01*
X58848Y26734D01*
Y26655D01*
X58878Y26583D01*
X58934Y26528D01*
X59006Y26498D01*
X59039D01*
Y20377D01*
X59003D01*
X58931Y20348D01*
X58876Y20292D01*
X58846Y20220D01*
Y20141D01*
X58876Y20069D01*
X58931Y20014D01*
X59003Y19984D01*
X59039D01*
Y19669D01*
X52219D01*
X52214Y19676D01*
Y19754D01*
X52184Y19827D01*
X52129Y19882D01*
X52057Y19912D01*
X51978D01*
X51906Y19882D01*
X51851Y19827D01*
X51821Y19754D01*
Y19676D01*
X51784Y19669D01*
X26891D01*
Y19703D01*
X26861Y19775D01*
X26806Y19830D01*
X26734Y19860D01*
X26655D01*
X26583Y19830D01*
X26528Y19775D01*
X26498Y19703D01*
Y19669D01*
X20377D01*
Y19705D01*
X20348Y19778D01*
X20292Y19833D01*
X20220Y19863D01*
X20141D01*
X20069Y19833D01*
X20014Y19778D01*
X19984Y19705D01*
Y19669D01*
X19669D01*
Y26490D01*
X19676Y26494D01*
X19754D01*
X19827Y26524D01*
X19882Y26580D01*
X19912Y26652D01*
Y26730D01*
X19882Y26803D01*
X19827Y26858D01*
X19754Y26888D01*
X19676D01*
X19669Y26924D01*
Y51817D01*
X19703D01*
X19775Y51847D01*
X19830Y51903D01*
X19860Y51975D01*
Y52053D01*
X19830Y52126D01*
X19775Y52181D01*
X19703Y52211D01*
X19669D01*
Y58331D01*
X19705D01*
X19778Y58361D01*
X19833Y58417D01*
X19863Y58489D01*
Y58567D01*
X19833Y58640D01*
X19778Y58695D01*
X19705Y58725D01*
X19669D01*
Y59039D01*
X26490D01*
X26494Y59033D01*
Y58954D01*
X26524Y58882D01*
X26580Y58827D01*
X26652Y58797D01*
X26730D01*
X26803Y58827D01*
X26858Y58882D01*
X26888Y58954D01*
Y59033D01*
X26924Y59039D01*
X51824D01*
Y59013D01*
X51854Y58941D01*
X51910Y58885D01*
X51982Y58855D01*
X52060D01*
X52133Y58885D01*
X52188Y58941D01*
X52218Y59013D01*
Y59039D01*
X58324D01*
Y59010D01*
X58354Y58938D01*
X58410Y58883D01*
X58482Y58853D01*
X58560D01*
X58633Y58883D01*
X58688Y58938D01*
X58718Y59010D01*
Y59039D01*
X59039D01*
Y52228D01*
D02*
G37*
%LPC*%
G36*
X38327Y57398D02*
X38309D01*
Y56935D01*
X38772D01*
Y56953D01*
X38737Y57083D01*
X38669Y57200D01*
X38574Y57295D01*
X38457Y57363D01*
X38327Y57398D01*
D02*
G37*
G36*
X40327D02*
X40309D01*
Y56935D01*
X40772D01*
Y56953D01*
X40737Y57083D01*
X40669Y57200D01*
X40574Y57295D01*
X40457Y57363D01*
X40327Y57398D01*
D02*
G37*
G36*
X38211D02*
X38192D01*
X38062Y57363D01*
X37946Y57295D01*
X37850Y57200D01*
X37783Y57083D01*
X37748Y56953D01*
Y56935D01*
X38211D01*
Y57398D01*
D02*
G37*
G36*
X40211D02*
X40192D01*
X40062Y57363D01*
X39946Y57295D01*
X39850Y57200D01*
X39783Y57083D01*
X39748Y56953D01*
Y56935D01*
X40211D01*
Y57398D01*
D02*
G37*
G36*
X40772Y56837D02*
X40309D01*
Y56374D01*
X40327D01*
X40457Y56409D01*
X40574Y56476D01*
X40669Y56572D01*
X40737Y56688D01*
X40772Y56818D01*
Y56837D01*
D02*
G37*
G36*
X40211D02*
X39748D01*
Y56818D01*
X39783Y56688D01*
X39850Y56572D01*
X39946Y56476D01*
X40062Y56409D01*
X40192Y56374D01*
X40211D01*
Y56837D01*
D02*
G37*
G36*
X38772D02*
X38309D01*
Y56374D01*
X38327D01*
X38457Y56409D01*
X38574Y56476D01*
X38669Y56572D01*
X38737Y56688D01*
X38772Y56818D01*
Y56837D01*
D02*
G37*
G36*
X38211D02*
X37748D01*
Y56818D01*
X37783Y56688D01*
X37850Y56572D01*
X37946Y56476D01*
X38062Y56409D01*
X38192Y56374D01*
X38211D01*
Y56837D01*
D02*
G37*
G36*
X54538Y56121D02*
X54460D01*
X54387Y56091D01*
X54332Y56036D01*
X54302Y55964D01*
Y55885D01*
X54332Y55813D01*
X54387Y55757D01*
X54460Y55728D01*
X54538D01*
X54610Y55757D01*
X54666Y55813D01*
X54696Y55885D01*
Y55964D01*
X54666Y56036D01*
X54610Y56091D01*
X54538Y56121D01*
D02*
G37*
G36*
X39319Y56339D02*
X39200D01*
X39085Y56308D01*
X38982Y56248D01*
X38898Y56164D01*
X38838Y56061D01*
X38807Y55945D01*
Y55826D01*
X38838Y55711D01*
X38898Y55608D01*
X38982Y55524D01*
X39085Y55464D01*
X39200Y55433D01*
X39319D01*
X39435Y55464D01*
X39538Y55524D01*
X39622Y55608D01*
X39682Y55711D01*
X39713Y55826D01*
Y55945D01*
X39682Y56061D01*
X39622Y56164D01*
X39538Y56248D01*
X39435Y56308D01*
X39319Y56339D01*
D02*
G37*
G36*
X38327Y55398D02*
X38309D01*
Y54935D01*
X38772D01*
Y54953D01*
X38737Y55083D01*
X38669Y55200D01*
X38574Y55295D01*
X38457Y55363D01*
X38327Y55398D01*
D02*
G37*
G36*
X40327D02*
X40309D01*
Y54935D01*
X40772D01*
Y54953D01*
X40737Y55083D01*
X40669Y55200D01*
X40574Y55295D01*
X40457Y55363D01*
X40327Y55398D01*
D02*
G37*
G36*
X38211D02*
X38192D01*
X38062Y55363D01*
X37946Y55295D01*
X37850Y55200D01*
X37783Y55083D01*
X37748Y54953D01*
Y54935D01*
X38211D01*
Y55398D01*
D02*
G37*
G36*
X40211D02*
X40192D01*
X40062Y55363D01*
X39946Y55295D01*
X39850Y55200D01*
X39783Y55083D01*
X39748Y54953D01*
Y54935D01*
X40211D01*
Y55398D01*
D02*
G37*
G36*
X40772Y54837D02*
X40309D01*
Y54374D01*
X40327D01*
X40457Y54409D01*
X40574Y54476D01*
X40669Y54572D01*
X40737Y54688D01*
X40772Y54818D01*
Y54837D01*
D02*
G37*
G36*
X40211D02*
X39748D01*
Y54818D01*
X39783Y54688D01*
X39850Y54572D01*
X39946Y54476D01*
X40062Y54409D01*
X40192Y54374D01*
X40211D01*
Y54837D01*
D02*
G37*
G36*
X38772D02*
X38309D01*
Y54374D01*
X38327D01*
X38457Y54409D01*
X38574Y54476D01*
X38669Y54572D01*
X38737Y54688D01*
X38772Y54818D01*
Y54837D01*
D02*
G37*
G36*
X38211D02*
X37748D01*
Y54818D01*
X37783Y54688D01*
X37850Y54572D01*
X37946Y54476D01*
X38062Y54409D01*
X38192Y54374D01*
X38211D01*
Y54837D01*
D02*
G37*
G36*
X23971Y54556D02*
X23892D01*
X23820Y54526D01*
X23765Y54470D01*
X23735Y54398D01*
Y54320D01*
X23765Y54247D01*
X23820Y54192D01*
X23892Y54162D01*
X23971D01*
X24043Y54192D01*
X24098Y54247D01*
X24128Y54320D01*
Y54398D01*
X24098Y54470D01*
X24043Y54526D01*
X23971Y54556D01*
D02*
G37*
G36*
X53161Y56393D02*
X53083D01*
X53011Y56363D01*
X52955Y56307D01*
X52925Y56235D01*
Y56198D01*
X40562Y43835D01*
X40532Y43789D01*
X40521Y43735D01*
Y41609D01*
X40494Y41583D01*
X40464Y41511D01*
Y41473D01*
X40288Y41297D01*
X38648D01*
X27005Y52940D01*
X26960Y52970D01*
X26906Y52981D01*
X22953D01*
X22610Y53324D01*
Y53361D01*
X22580Y53433D01*
X22525Y53489D01*
X22453Y53519D01*
X22374D01*
X22302Y53489D01*
X22246Y53433D01*
X22217Y53361D01*
Y53283D01*
X22246Y53210D01*
X22302Y53155D01*
X22374Y53125D01*
X22412D01*
X22796Y52741D01*
X22841Y52711D01*
X22895Y52700D01*
X26848D01*
X38490Y41057D01*
X38536Y41027D01*
X38590Y41016D01*
X40346D01*
X40400Y41027D01*
X40446Y41057D01*
X40663Y41275D01*
X40700D01*
X40773Y41305D01*
X40799Y41331D01*
X41528D01*
X46013Y36846D01*
Y31668D01*
X46024Y31615D01*
X46054Y31569D01*
X46429Y31194D01*
Y31157D01*
X46459Y31084D01*
X46514Y31029D01*
X46516Y31029D01*
Y28171D01*
X46187Y27842D01*
X41744D01*
X41702Y27833D01*
X41666Y27809D01*
X40870Y27013D01*
X40846Y26978D01*
X40838Y26935D01*
Y26633D01*
X40837Y26633D01*
X40781Y26577D01*
X40751Y26505D01*
Y26427D01*
X40781Y26354D01*
X40837Y26299D01*
X40909Y26269D01*
X40987D01*
X41060Y26299D01*
X41115Y26354D01*
X41145Y26427D01*
Y26505D01*
X41115Y26577D01*
X41060Y26633D01*
X41058Y26633D01*
Y26890D01*
X41790Y27621D01*
X46232D01*
X46275Y27629D01*
X46310Y27653D01*
X46704Y28047D01*
X46728Y28083D01*
X46736Y28125D01*
Y31029D01*
X46737Y31029D01*
X46764Y31055D01*
X47237D01*
X48731Y29561D01*
X48777Y29531D01*
X48831Y29520D01*
X49816D01*
X53454Y25882D01*
Y24272D01*
X53428Y24246D01*
X53398Y24173D01*
Y24095D01*
X53428Y24023D01*
X53483Y23967D01*
X53555Y23937D01*
X53634D01*
X53706Y23967D01*
X53761Y24023D01*
X53791Y24095D01*
Y24173D01*
X53761Y24246D01*
X53735Y24272D01*
Y25941D01*
X53724Y25994D01*
X53694Y26040D01*
X49974Y29760D01*
X49928Y29790D01*
X49875Y29801D01*
X48889D01*
X47395Y31295D01*
X47349Y31326D01*
X47295Y31336D01*
X46764D01*
X46737Y31363D01*
X46665Y31393D01*
X46628D01*
X46294Y31727D01*
Y36905D01*
X46283Y36958D01*
X46253Y37004D01*
X41686Y41571D01*
X41640Y41601D01*
X41614Y41607D01*
X41618Y41646D01*
X41762D01*
X42285Y41123D01*
X46525Y36883D01*
Y34621D01*
X46536Y34567D01*
X46566Y34522D01*
X46900Y34188D01*
X46487Y33776D01*
X46457Y33730D01*
X46446Y33676D01*
Y31944D01*
X46457Y31890D01*
X46487Y31845D01*
X46763Y31569D01*
X46808Y31539D01*
X46862Y31528D01*
X47395D01*
X48849Y30073D01*
X48895Y30043D01*
X48949Y30032D01*
X50308D01*
X54052Y26288D01*
Y25350D01*
X54026Y25323D01*
X53996Y25251D01*
Y25173D01*
X54026Y25100D01*
X54081Y25045D01*
X54153Y25015D01*
X54232D01*
X54304Y25045D01*
X54359Y25100D01*
X54389Y25173D01*
Y25251D01*
X54359Y25323D01*
X54333Y25350D01*
Y26346D01*
X54322Y26400D01*
X54292Y26445D01*
X50465Y30272D01*
X50420Y30302D01*
X50366Y30313D01*
X49007D01*
X47552Y31768D01*
X47507Y31798D01*
X47453Y31809D01*
X46920D01*
X46727Y32002D01*
Y33618D01*
X47100Y33991D01*
X47138D01*
X47210Y34021D01*
X47265Y34077D01*
X47295Y34149D01*
Y34227D01*
X47265Y34300D01*
X47210Y34355D01*
X47138Y34385D01*
X47100D01*
X46806Y34679D01*
Y36941D01*
X46795Y36995D01*
X46765Y37040D01*
X42484Y41321D01*
X41919Y41886D01*
X41874Y41916D01*
X41820Y41927D01*
X41097D01*
Y43308D01*
X51836Y54048D01*
X53260D01*
X53286Y54021D01*
X53358Y53991D01*
X53437D01*
X53509Y54021D01*
X53565Y54077D01*
X53594Y54149D01*
Y54227D01*
X53565Y54300D01*
X53509Y54355D01*
X53437Y54385D01*
X53358D01*
X53286Y54355D01*
X53260Y54329D01*
X51778D01*
X51724Y54318D01*
X51679Y54287D01*
X40857Y43466D01*
X40841Y43442D01*
X40802Y43454D01*
Y43677D01*
X53124Y55999D01*
X53161D01*
X53234Y56029D01*
X53289Y56084D01*
X53319Y56157D01*
Y56235D01*
X53289Y56307D01*
X53234Y56363D01*
X53161Y56393D01*
D02*
G37*
G36*
X53988Y55566D02*
X53910D01*
X53837Y55536D01*
X53782Y55481D01*
X53752Y55408D01*
Y55330D01*
X53782Y55258D01*
X53837Y55202D01*
X53910Y55172D01*
X53988D01*
X53989Y55173D01*
X54083Y55079D01*
X54112Y55059D01*
X54147Y55052D01*
X54254D01*
X54299Y55008D01*
X54289Y54961D01*
X54247Y54944D01*
X54192Y54889D01*
X54162Y54816D01*
Y54738D01*
X54192Y54666D01*
X54247Y54610D01*
X54320Y54580D01*
X54398D01*
X54470Y54610D01*
X54526Y54666D01*
X54543Y54708D01*
X54590Y54717D01*
X54918Y54388D01*
Y53945D01*
X54925Y53910D01*
X54945Y53881D01*
X56137Y52689D01*
Y27367D01*
X55263Y26493D01*
X55243Y26464D01*
X55236Y26430D01*
Y24994D01*
X55215Y24985D01*
X55160Y24929D01*
X55130Y24857D01*
Y24779D01*
X55139Y24758D01*
X55107Y24726D01*
X55088Y24697D01*
X55081Y24662D01*
Y24413D01*
X55013Y24345D01*
X54974Y24362D01*
Y24389D01*
X54944Y24461D01*
X54889Y24517D01*
X54816Y24547D01*
X54738D01*
X54666Y24517D01*
X54610Y24461D01*
X54580Y24389D01*
Y24311D01*
X54610Y24238D01*
X54666Y24183D01*
X54738Y24153D01*
X54765D01*
X54782Y24114D01*
X54407Y23739D01*
X53581D01*
X53212Y24107D01*
Y24503D01*
X53205Y24538D01*
X53186Y24567D01*
X52713Y25039D01*
X52684Y25059D01*
X52650Y25066D01*
X40955D01*
X38822Y27199D01*
X38831Y27220D01*
Y27298D01*
X38801Y27370D01*
X38745Y27426D01*
X38673Y27456D01*
X38595D01*
X38546Y27435D01*
X37480Y28501D01*
X37451Y28520D01*
X37416Y28527D01*
X29775D01*
X29741Y28520D01*
X29711Y28501D01*
X26289Y25079D01*
X25583D01*
X25548Y25072D01*
X25519Y25052D01*
X24840Y24373D01*
X24820Y24344D01*
X24813Y24309D01*
Y23546D01*
X24799Y23536D01*
X24721D01*
X24719Y23536D01*
X24623Y23632D01*
X24594Y23651D01*
X24560Y23658D01*
X24252D01*
X23648Y24262D01*
X23619Y24281D01*
X23585Y24288D01*
X23417D01*
X22819Y24887D01*
Y25212D01*
X22812Y25246D01*
X22792Y25276D01*
X22085Y25983D01*
Y53338D01*
X22605Y53858D01*
X23164D01*
X23173Y53837D01*
X23228Y53782D01*
X23300Y53752D01*
X23379D01*
X23451Y53782D01*
X23506Y53837D01*
X23536Y53910D01*
Y53988D01*
X23506Y54060D01*
X23500Y54067D01*
X23546Y54113D01*
X23576Y54185D01*
Y54264D01*
X23546Y54336D01*
X23490Y54391D01*
X23418Y54421D01*
X23340D01*
X23267Y54391D01*
X23212Y54336D01*
X23203Y54315D01*
X22934D01*
X22918Y54354D01*
X22951Y54387D01*
X22981Y54460D01*
Y54538D01*
X22951Y54610D01*
X22896Y54666D01*
X22823Y54696D01*
X22745D01*
X22673Y54666D01*
X22617Y54610D01*
X22587Y54538D01*
Y54460D01*
X22617Y54387D01*
X22651Y54354D01*
X22634Y54315D01*
X22491D01*
X22457Y54308D01*
X22427Y54288D01*
X21759Y53620D01*
X21739Y53591D01*
X21733Y53556D01*
X21733Y25831D01*
X21739Y25797D01*
X21759Y25768D01*
X22472Y25055D01*
Y24788D01*
X22478Y24753D01*
X22498Y24724D01*
X23229Y23993D01*
Y23882D01*
X23235Y23848D01*
X23255Y23818D01*
X23759Y23315D01*
X23788Y23295D01*
X23822Y23289D01*
X24309D01*
X24317Y23267D01*
X24373Y23212D01*
X24445Y23182D01*
X24523D01*
X24525Y23183D01*
X24619Y23089D01*
X24648Y23069D01*
X24682Y23062D01*
X24837D01*
X24872Y23069D01*
X24901Y23089D01*
X25086Y23273D01*
X25105Y23302D01*
X25112Y23337D01*
Y24175D01*
X25431Y24495D01*
X25465Y24472D01*
X25445Y24424D01*
Y24346D01*
X25475Y24273D01*
X25530Y24218D01*
X25603Y24188D01*
X25681D01*
X25753Y24218D01*
X25780Y24244D01*
X52357D01*
X52381Y24221D01*
X52453Y24191D01*
X52458D01*
X52475Y24151D01*
X52458Y24132D01*
X27217Y24132D01*
X26999D01*
X26945Y24121D01*
X26900Y24091D01*
X25437Y22628D01*
X25400D01*
X25328Y22598D01*
X25272Y22543D01*
X25242Y22470D01*
Y22392D01*
X25272Y22320D01*
X25328Y22264D01*
X25400Y22234D01*
X25478D01*
X25551Y22264D01*
X25606Y22320D01*
X25636Y22392D01*
Y22429D01*
X27057Y23851D01*
X27217D01*
X52469Y23851D01*
X52496Y23824D01*
X52568Y23794D01*
X52605D01*
X53187Y23213D01*
X53233Y23182D01*
X53286Y23172D01*
X54766D01*
X54820Y23182D01*
X54865Y23213D01*
X55007Y23354D01*
X55072D01*
X55125Y23365D01*
X55171Y23395D01*
X55448Y23672D01*
X55478Y23718D01*
X55489Y23771D01*
Y24049D01*
X55688Y24248D01*
X55728Y24232D01*
Y24171D01*
X55757Y24098D01*
X55813Y24043D01*
X55885Y24013D01*
X55964D01*
X56036Y24043D01*
X56091Y24098D01*
X56121Y24171D01*
Y24249D01*
X56091Y24321D01*
X56036Y24377D01*
X55964Y24407D01*
X55902D01*
X55886Y24446D01*
X56410Y24971D01*
X56441Y25016D01*
X56452Y25070D01*
Y25153D01*
X56478Y25179D01*
X56508Y25251D01*
Y25330D01*
X56478Y25402D01*
X56423Y25457D01*
X56350Y25487D01*
X56272D01*
X56200Y25457D01*
X56144Y25402D01*
X56114Y25330D01*
Y25251D01*
X56144Y25179D01*
X56171Y25153D01*
Y25128D01*
X55591Y24549D01*
X55555Y24564D01*
Y24580D01*
X55546Y24601D01*
X55587Y24643D01*
X55607Y24672D01*
X55614Y24707D01*
Y24897D01*
X55614Y24897D01*
X55607Y24931D01*
X55587Y24961D01*
X55587Y24961D01*
X55575Y24974D01*
Y26383D01*
X56409Y27217D01*
X56409Y27217D01*
X56429Y27246D01*
X56435Y27281D01*
Y52775D01*
X56429Y52810D01*
X56409Y52839D01*
X55226Y54023D01*
Y54466D01*
X55219Y54500D01*
X55199Y54530D01*
X54421Y55308D01*
Y55369D01*
X54391Y55441D01*
X54336Y55497D01*
X54264Y55527D01*
X54185D01*
X54113Y55497D01*
X54106Y55490D01*
X54060Y55536D01*
X53988Y55566D01*
D02*
G37*
G36*
X24306Y50445D02*
X24151D01*
X23999Y50415D01*
X23855Y50355D01*
X23726Y50269D01*
X23617Y50159D01*
X23530Y50030D01*
X23471Y49887D01*
X23441Y49735D01*
Y49580D01*
X23471Y49428D01*
X23530Y49284D01*
X23617Y49155D01*
X23726Y49046D01*
X23855Y48960D01*
X23999Y48900D01*
X24151Y48870D01*
X24306D01*
X24458Y48900D01*
X24601Y48960D01*
X24730Y49046D01*
X24840Y49155D01*
X24926Y49284D01*
X24986Y49428D01*
X25016Y49580D01*
Y49735D01*
X24986Y49887D01*
X24926Y50030D01*
X24840Y50159D01*
X24730Y50269D01*
X24601Y50355D01*
X24458Y50415D01*
X24306Y50445D01*
D02*
G37*
G36*
X53085Y50335D02*
X52930D01*
X52778Y50304D01*
X52635Y50245D01*
X52506Y50159D01*
X52396Y50049D01*
X52310Y49920D01*
X52251Y49777D01*
X52220Y49625D01*
Y49470D01*
X52251Y49318D01*
X52310Y49174D01*
X52396Y49045D01*
X52506Y48936D01*
X52635Y48849D01*
X52778Y48790D01*
X52930Y48760D01*
X53085D01*
X53238Y48790D01*
X53381Y48849D01*
X53510Y48936D01*
X53620Y49045D01*
X53706Y49174D01*
X53765Y49318D01*
X53795Y49470D01*
Y49625D01*
X53765Y49777D01*
X53706Y49920D01*
X53620Y50049D01*
X53510Y50159D01*
X53381Y50245D01*
X53238Y50304D01*
X53085Y50335D01*
D02*
G37*
G36*
X24460Y53558D02*
X24382D01*
X24310Y53528D01*
X24254Y53473D01*
X24224Y53400D01*
Y53322D01*
X24254Y53250D01*
X24310Y53194D01*
X24382Y53164D01*
X24460D01*
X24533Y53194D01*
X24559Y53221D01*
X27256D01*
X38790Y41687D01*
X38835Y41657D01*
X38889Y41646D01*
X40071D01*
X40097Y41620D01*
X40170Y41590D01*
X40248D01*
X40320Y41620D01*
X40376Y41675D01*
X40406Y41747D01*
Y41826D01*
X40376Y41898D01*
X40320Y41953D01*
X40248Y41983D01*
X40170D01*
X40097Y41953D01*
X40071Y41927D01*
X38947D01*
X27414Y53461D01*
X27368Y53491D01*
X27314Y53502D01*
X24559D01*
X24533Y53528D01*
X24460Y53558D01*
D02*
G37*
G36*
X39925Y40687D02*
X39847D01*
X39774Y40657D01*
X39719Y40602D01*
X39689Y40529D01*
Y40451D01*
X39719Y40379D01*
X39774Y40323D01*
X39847Y40293D01*
X39925D01*
X39997Y40323D01*
X40053Y40379D01*
X40083Y40451D01*
Y40529D01*
X40053Y40602D01*
X39997Y40657D01*
X39925Y40687D01*
D02*
G37*
G36*
X35396Y41011D02*
X35361Y41004D01*
X35332Y40984D01*
X35332Y40984D01*
X34476Y40128D01*
X34456Y40098D01*
X34449Y40064D01*
Y35487D01*
X34456Y35453D01*
X34476Y35423D01*
X36221Y33678D01*
Y33603D01*
X36175Y33557D01*
X36153Y33566D01*
X36075D01*
X36003Y33536D01*
X35947Y33481D01*
X35917Y33408D01*
Y33330D01*
X35947Y33258D01*
X36003Y33202D01*
X36075Y33172D01*
X36153D01*
X36226Y33202D01*
X36281Y33258D01*
X36311Y33330D01*
Y33408D01*
X36302Y33430D01*
X36370Y33497D01*
X36438Y33430D01*
X36429Y33408D01*
Y33330D01*
X36459Y33258D01*
X36514Y33202D01*
X36587Y33172D01*
X36665D01*
X36737Y33202D01*
X36793Y33258D01*
X36823Y33330D01*
Y33408D01*
X36793Y33481D01*
X36737Y33536D01*
X36665Y33566D01*
X36587D01*
X36566Y33557D01*
X36519Y33603D01*
Y33794D01*
X36513Y33829D01*
X36493Y33858D01*
X34748Y35603D01*
Y39977D01*
X35482Y40712D01*
X37612D01*
X38176Y40148D01*
X38176Y40148D01*
X38394Y39930D01*
X38424Y39910D01*
X38458Y39903D01*
X39873D01*
X39961Y39816D01*
X39990Y39796D01*
X40024Y39789D01*
X40223D01*
X40258Y39796D01*
X40272Y39805D01*
X40323Y39784D01*
X40401D01*
X40474Y39814D01*
X40488Y39828D01*
X40513Y39802D01*
X40586Y39773D01*
X40664D01*
X40736Y39802D01*
X40792Y39858D01*
X40822Y39930D01*
Y40009D01*
X40792Y40081D01*
X40736Y40136D01*
X40664Y40166D01*
X40586D01*
X40513Y40136D01*
X40499Y40122D01*
X40474Y40148D01*
X40401Y40178D01*
X40323D01*
X40277Y40159D01*
X40269Y40178D01*
X40213Y40233D01*
X40141Y40263D01*
X40063D01*
X39990Y40233D01*
X39980Y40223D01*
X38523D01*
X37762Y40984D01*
X37733Y41004D01*
X37699Y41011D01*
X35396D01*
X35396Y41011D01*
D02*
G37*
G36*
X47844Y33598D02*
X47766D01*
X47694Y33568D01*
X47638Y33512D01*
X47608Y33440D01*
Y33362D01*
X47638Y33289D01*
X47694Y33234D01*
X47766Y33204D01*
X47844D01*
X47917Y33234D01*
X47972Y33289D01*
X48002Y33362D01*
Y33440D01*
X47972Y33512D01*
X47917Y33568D01*
X47844Y33598D01*
D02*
G37*
G36*
X48850Y33157D02*
X48772D01*
X48700Y33127D01*
X48644Y33071D01*
X48614Y32999D01*
Y32921D01*
X48615Y32919D01*
X48477Y32782D01*
X48453Y32746D01*
X48445Y32704D01*
Y32466D01*
X48444Y32465D01*
X48388Y32410D01*
X48358Y32337D01*
Y32259D01*
X48388Y32187D01*
X48444Y32131D01*
X48516Y32101D01*
X48594D01*
X48667Y32131D01*
X48722Y32187D01*
X48752Y32259D01*
Y32337D01*
X48722Y32410D01*
X48667Y32465D01*
X48666Y32466D01*
Y32658D01*
X48771Y32763D01*
X48772Y32763D01*
X48850D01*
X48923Y32793D01*
X48978Y32848D01*
X49008Y32921D01*
Y32999D01*
X48978Y33071D01*
X48923Y33127D01*
X48850Y33157D01*
D02*
G37*
G36*
X40023Y30583D02*
X40018D01*
Y30219D01*
X40382D01*
Y30224D01*
X40354Y30329D01*
X40299Y30423D01*
X40222Y30500D01*
X40128Y30555D01*
X40023Y30583D01*
D02*
G37*
G36*
X39919D02*
X39914D01*
X39809Y30555D01*
X39715Y30500D01*
X39638Y30423D01*
X39583Y30329D01*
X39555Y30224D01*
Y30219D01*
X39919D01*
Y30583D01*
D02*
G37*
G36*
X36081Y30543D02*
X35982D01*
X35982Y30543D01*
X35672D01*
Y30275D01*
X35657Y30219D01*
Y30120D01*
X35672Y30064D01*
Y29795D01*
X36391D01*
Y30064D01*
X36405Y30120D01*
Y30219D01*
X36391Y30274D01*
Y30543D01*
X36081D01*
X36081Y30543D01*
D02*
G37*
G36*
X41002Y30543D02*
X40904D01*
X40904Y30543D01*
X40904D01*
X40808Y30518D01*
X40723Y30469D01*
X40653Y30399D01*
X40604Y30314D01*
X40579Y30219D01*
Y30120D01*
X40604Y30025D01*
X40653Y29940D01*
X40723Y29870D01*
X40808Y29821D01*
X40904Y29795D01*
X41002D01*
X41002Y29795D01*
X41002D01*
X41097Y29821D01*
X41183Y29870D01*
X41252Y29940D01*
X41301Y30025D01*
X41327Y30120D01*
Y30219D01*
X41301Y30314D01*
X41252Y30399D01*
X41183Y30469D01*
X41097Y30518D01*
X41002Y30543D01*
D02*
G37*
G36*
X39034D02*
X38935D01*
X38935Y30543D01*
X38935D01*
X38840Y30518D01*
X38754Y30469D01*
X38685Y30399D01*
X38636Y30314D01*
X38610Y30219D01*
Y30120D01*
X38636Y30025D01*
X38685Y29940D01*
X38754Y29870D01*
X38840Y29821D01*
X38935Y29795D01*
X39033D01*
X39033Y29795D01*
X39034D01*
X39129Y29821D01*
X39214Y29870D01*
X39284Y29940D01*
X39333Y30025D01*
X39358Y30120D01*
Y30219D01*
X39333Y30314D01*
X39284Y30399D01*
X39214Y30469D01*
X39129Y30518D01*
X39034Y30543D01*
D02*
G37*
G36*
X38049D02*
X37951D01*
X37951Y30543D01*
X37951D01*
X37856Y30518D01*
X37770Y30469D01*
X37701Y30399D01*
X37651Y30314D01*
X37626Y30219D01*
Y30120D01*
X37651Y30025D01*
X37701Y29940D01*
X37770Y29870D01*
X37856Y29821D01*
X37951Y29795D01*
X38049D01*
X38144Y29821D01*
X38144Y29821D01*
X38144Y29821D01*
X38230Y29870D01*
X38299Y29940D01*
X38348Y30025D01*
X38374Y30120D01*
Y30219D01*
X38348Y30314D01*
X38299Y30399D01*
X38230Y30469D01*
X38144Y30518D01*
X38049Y30543D01*
D02*
G37*
G36*
X37065D02*
X36967D01*
X36967Y30543D01*
X36966D01*
X36871Y30518D01*
X36786Y30469D01*
X36716Y30399D01*
X36667Y30314D01*
X36642Y30219D01*
Y30120D01*
X36667Y30025D01*
X36716Y29940D01*
X36786Y29870D01*
X36871Y29821D01*
X36966Y29795D01*
X37065D01*
X37065Y29795D01*
X37065D01*
X37160Y29821D01*
X37245Y29870D01*
X37315Y29940D01*
X37364Y30025D01*
X37390Y30120D01*
Y30219D01*
X37364Y30314D01*
X37315Y30399D01*
X37245Y30469D01*
X37160Y30518D01*
X37065Y30543D01*
D02*
G37*
G36*
X40382Y30120D02*
X40018D01*
Y29756D01*
X40023D01*
X40128Y29784D01*
X40222Y29839D01*
X40299Y29915D01*
X40354Y30010D01*
X40382Y30115D01*
Y30120D01*
D02*
G37*
G36*
X39919D02*
X39555D01*
Y30115D01*
X39583Y30010D01*
X39638Y29915D01*
X39715Y29839D01*
X39809Y29784D01*
X39914Y29756D01*
X39919D01*
Y30120D01*
D02*
G37*
G36*
X53432Y30656D02*
X53277D01*
X53125Y30625D01*
X52981Y30566D01*
X52852Y30480D01*
X52743Y30370D01*
X52656Y30241D01*
X52597Y30098D01*
X52567Y29946D01*
Y29791D01*
X52597Y29638D01*
X52656Y29495D01*
X52743Y29366D01*
X52852Y29256D01*
X52981Y29170D01*
X53125Y29111D01*
X53277Y29081D01*
X53432D01*
X53584Y29111D01*
X53727Y29170D01*
X53856Y29256D01*
X53966Y29366D01*
X54052Y29495D01*
X54112Y29638D01*
X54142Y29791D01*
Y29946D01*
X54112Y30098D01*
X54052Y30241D01*
X53966Y30370D01*
X53856Y30480D01*
X53727Y30566D01*
X53584Y30625D01*
X53432Y30656D01*
D02*
G37*
G36*
X24164Y30583D02*
X24009D01*
X23857Y30552D01*
X23714Y30493D01*
X23585Y30407D01*
X23475Y30297D01*
X23389Y30168D01*
X23329Y30025D01*
X23299Y29873D01*
Y29718D01*
X23329Y29566D01*
X23389Y29422D01*
X23475Y29293D01*
X23585Y29184D01*
X23714Y29097D01*
X23857Y29038D01*
X24009Y29008D01*
X24164D01*
X24316Y29038D01*
X24460Y29097D01*
X24589Y29184D01*
X24698Y29293D01*
X24784Y29422D01*
X24844Y29566D01*
X24874Y29718D01*
Y29873D01*
X24844Y30025D01*
X24784Y30168D01*
X24698Y30297D01*
X24589Y30407D01*
X24460Y30493D01*
X24316Y30552D01*
X24164Y30583D01*
D02*
G37*
G36*
X45893Y28519D02*
X45815D01*
X45743Y28489D01*
X45687Y28433D01*
X45657Y28361D01*
Y28283D01*
X45687Y28210D01*
X45743Y28155D01*
X45815Y28125D01*
X45893D01*
X45966Y28155D01*
X46021Y28210D01*
X46051Y28283D01*
Y28361D01*
X46021Y28433D01*
X45966Y28489D01*
X45893Y28519D01*
D02*
G37*
G36*
X24389Y24128D02*
X24311D01*
X24238Y24098D01*
X24183Y24043D01*
X24153Y23971D01*
Y23892D01*
X24183Y23820D01*
X24238Y23765D01*
X24311Y23735D01*
X24389D01*
X24461Y23765D01*
X24517Y23820D01*
X24547Y23892D01*
Y23971D01*
X24517Y24043D01*
X24461Y24098D01*
X24389Y24128D01*
D02*
G37*
G36*
X24249Y22981D02*
X24171D01*
X24098Y22951D01*
X24043Y22896D01*
X24013Y22823D01*
Y22745D01*
X24043Y22673D01*
X24098Y22617D01*
X24171Y22587D01*
X24249D01*
X24321Y22617D01*
X24377Y22673D01*
X24407Y22745D01*
Y22823D01*
X24377Y22896D01*
X24321Y22951D01*
X24249Y22981D01*
D02*
G37*
%LPD*%
G36*
X37998Y27413D02*
X37955Y27370D01*
X37925Y27298D01*
Y27220D01*
X37955Y27147D01*
X38011Y27092D01*
X38083Y27062D01*
X38161D01*
X38234Y27092D01*
X38289Y27147D01*
X38300Y27150D01*
X40735Y24715D01*
X40765Y24695D01*
X40799Y24688D01*
X52573D01*
X52874Y24387D01*
Y23991D01*
X52877Y23975D01*
X52841Y23956D01*
X52804Y23993D01*
Y24030D01*
X52774Y24103D01*
X52719Y24158D01*
X52646Y24188D01*
X52622D01*
X52618Y24196D01*
X52610Y24227D01*
X52659Y24276D01*
X52689Y24348D01*
Y24427D01*
X52659Y24499D01*
X52604Y24555D01*
X52531Y24584D01*
X52453D01*
X52381Y24555D01*
X52352Y24525D01*
X25780D01*
X25753Y24552D01*
X25681Y24582D01*
X25603D01*
X25554Y24562D01*
X25532Y24595D01*
X25669Y24732D01*
X26370D01*
X26405Y24739D01*
X26434Y24759D01*
X29837Y28162D01*
X37249D01*
X37998Y27413D01*
D02*
G37*
D10*
X36429Y33566D02*
Y33794D01*
X36311Y33566D02*
Y33716D01*
X34539Y35487D02*
X36311Y33716D01*
X26370Y24823D02*
X29800Y28252D01*
X37286D02*
X38122Y27416D01*
X29800Y28252D02*
X37286D01*
X34657Y35566D02*
X36429Y33794D01*
Y33566D02*
X36626Y33369D01*
X24760Y23368D02*
X24788D01*
X26327Y24989D02*
X29775Y28437D01*
X25583Y24989D02*
X26327D01*
X24904Y24309D02*
X25583Y24989D01*
X25632Y24823D02*
X26370D01*
X25022Y24212D02*
X25632Y24823D01*
X24904Y23483D02*
Y24309D01*
X25022Y23337D02*
Y24212D01*
X29775Y28437D02*
X37416D01*
X54461Y23479D02*
X54787Y23806D01*
Y23808D01*
X55358Y24380D01*
X54444Y23649D02*
X55171Y24375D01*
X53543Y23649D02*
X54444D01*
X55171Y24375D02*
Y24662D01*
X34657Y35566D02*
Y40015D01*
X38122Y27259D02*
Y27416D01*
X38319Y27259D02*
X40799Y24779D01*
X38122Y27259D02*
X38319D01*
X38594D02*
X38634D01*
X37416Y28437D02*
X38594Y27259D01*
X40799Y24779D02*
X52610D01*
X38634Y27259D02*
X40917Y24975D01*
X52650D01*
X36114Y33369D02*
X36311Y33566D01*
X55484Y24936D02*
X55524Y24897D01*
Y24707D02*
Y24897D01*
X55358Y24541D02*
X55524Y24707D01*
X55484Y24936D02*
Y26420D01*
X56345Y27281D01*
X52965Y23991D02*
Y24424D01*
X52610Y24779D02*
X52965Y24424D01*
X53122Y24070D02*
Y24503D01*
X52650Y24975D02*
X53122Y24503D01*
X52965Y23991D02*
X53476Y23479D01*
X55358Y24380D02*
Y24541D01*
X53476Y23479D02*
X54461D01*
X24215Y23568D02*
X24560D01*
X23585Y24198D02*
X24215Y23568D01*
X23379Y24198D02*
X23585D01*
X23822Y23379D02*
X24484D01*
X23319Y23882D02*
X23822Y23379D01*
X23319Y23882D02*
Y24031D01*
X22562Y24788D02*
X23319Y24031D01*
X22491Y54224D02*
X23379D01*
X21823Y53556D02*
X22491Y54224D01*
X21823Y53556D02*
X21823Y25831D01*
X22568Y53949D02*
X23340D01*
X21995Y53376D02*
X22568Y53949D01*
X21995Y25945D02*
Y53376D01*
X34539Y35487D02*
Y40064D01*
X34657Y40015D02*
X35445Y40802D01*
X34539Y40064D02*
X35396Y40920D01*
X39910Y39994D02*
X40024Y39880D01*
X38458Y39994D02*
X39910D01*
X40024Y39880D02*
X40223D01*
X38240Y40212D02*
X38458Y39994D01*
X39998Y40133D02*
X40065Y40067D01*
X40102D01*
X40223Y39880D02*
X40325Y39981D01*
X40362D01*
X38486Y40133D02*
X39998D01*
X37699Y40920D02*
X38486Y40133D01*
X35396Y40920D02*
X37699D01*
X38240Y40212D02*
X38240D01*
X37650Y40802D02*
X38240Y40212D01*
X35445Y40802D02*
X37650D01*
X24788Y23368D02*
X24904Y23483D01*
X24837Y23152D02*
X25022Y23337D01*
X55135Y53985D02*
X56345Y52775D01*
X55135Y53985D02*
Y54466D01*
X54340Y55261D02*
X55135Y54466D01*
X54331Y55261D02*
X54340D01*
X54262Y55330D02*
X54331Y55261D01*
X54224Y55330D02*
X54262D01*
X54291Y55143D02*
X55008Y54426D01*
Y53945D02*
Y54426D01*
Y53945D02*
X56227Y52727D01*
X54147Y55143D02*
X54291D01*
X53949Y55341D02*
X54147Y55143D01*
X56227Y27330D02*
Y52727D01*
X55327Y26430D02*
X56227Y27330D01*
X56345Y27281D02*
Y52775D01*
X55327Y24818D02*
Y26430D01*
X55171Y24662D02*
X55327Y24818D01*
X53122Y24070D02*
X53543Y23649D01*
X21995Y25945D02*
X22728Y25212D01*
Y24849D02*
Y25212D01*
Y24849D02*
X23379Y24198D01*
X22562Y24788D02*
Y25092D01*
X21823Y25831D02*
X22562Y25092D01*
X24682Y23152D02*
X24837D01*
X24484Y23351D02*
X24682Y23152D01*
X24560Y23568D02*
X24760Y23368D01*
Y23340D02*
Y23368D01*
X53949Y55341D02*
Y55369D01*
X24484Y23351D02*
Y23379D01*
D65*
X48555Y32298D02*
Y32704D01*
X48811Y32960D01*
X46626Y28125D02*
Y31196D01*
X46232Y27731D02*
X46626Y28125D01*
X41744Y27731D02*
X46232D01*
X40948Y26935D02*
X41744Y27731D01*
X40948Y26466D02*
Y26935D01*
D67*
X25642Y24385D02*
X52489D01*
X52492Y24388D01*
X42384Y41222D02*
X46665Y36941D01*
Y34621D02*
Y36941D01*
Y34621D02*
X47098Y34188D01*
X46587Y33676D02*
X47098Y34188D01*
X46587Y31944D02*
Y33676D01*
X48831Y29661D02*
X49875D01*
X47295Y31196D02*
X48831Y29661D01*
X46626Y31196D02*
X47295D01*
X46862Y31668D02*
X47453D01*
X46587Y31944D02*
X46862Y31668D01*
X41587Y41472D02*
X46154Y36905D01*
Y31668D02*
Y36905D01*
Y31668D02*
X46626Y31196D01*
X47453Y31668D02*
X48949Y30172D01*
X54948Y23495D02*
X55072D01*
X55348Y23771D01*
X54766Y23312D02*
X54948Y23495D01*
X53286Y23312D02*
X54766D01*
X55348Y23771D02*
Y24107D01*
X56311Y25070D01*
Y25290D01*
X25439Y22431D02*
X26999Y23991D01*
X27217D01*
X52607Y23991D01*
X38590Y41157D02*
X40346D01*
X26906Y52840D02*
X38590Y41157D01*
X22895Y52840D02*
X26906D01*
X22413Y53322D02*
X22895Y52840D01*
X24421Y53361D02*
X27314D01*
X54193Y25212D02*
Y26346D01*
X40661Y43735D02*
X53122Y56196D01*
X40661Y41472D02*
Y43735D01*
X51778Y54188D02*
X53398D01*
X40957Y43367D02*
X51778Y54188D01*
X40957Y41786D02*
Y43367D01*
X38889Y41786D02*
X40209D01*
X27314Y53361D02*
X38889Y41786D01*
X41820D02*
X42384Y41222D01*
X40957Y41786D02*
X41820D01*
X40661Y41472D02*
X41587D01*
X40346Y41157D02*
X40661Y41472D01*
X52607Y23991D02*
X53286Y23312D01*
X48949Y30172D02*
X50366D01*
X49875Y29661D02*
X53594Y25941D01*
Y24134D02*
Y25941D01*
X50366Y30172D02*
X54193Y26346D01*
D70*
X39969Y30169D02*
D03*
D73*
X40260Y56886D02*
D03*
X38260D02*
D03*
Y54886D02*
D03*
X40260D02*
D03*
D76*
X51913Y49732D02*
D03*
X38834Y23741D02*
D03*
X39894Y23746D02*
D03*
X41492Y23741D02*
D03*
X37236Y23746D02*
D03*
X48454Y47676D02*
D03*
X35806Y41993D02*
D03*
X34804Y44609D02*
D03*
X32991Y45288D02*
D03*
X35279Y41203D02*
D03*
X32020Y47392D02*
D03*
X27844Y51568D02*
D03*
X36404Y41211D02*
D03*
X35005Y43133D02*
D03*
X29416Y48838D02*
D03*
X30283Y47982D02*
D03*
X28119Y50159D02*
D03*
X34383Y43896D02*
D03*
X37715Y39921D02*
D03*
X34108Y45305D02*
D03*
X32716Y46697D02*
D03*
X35975Y40507D02*
D03*
X27423Y50855D02*
D03*
X32295Y45984D02*
D03*
X36559Y39893D02*
D03*
X25756Y53656D02*
D03*
X35005Y42148D02*
D03*
X26031Y52247D02*
D03*
X35500Y43913D02*
D03*
X33412Y46001D02*
D03*
X29236Y50176D02*
D03*
X28540Y50872D02*
D03*
X27148Y52264D02*
D03*
X33687Y44592D02*
D03*
X31599Y46680D02*
D03*
X35806Y42977D02*
D03*
X26727Y51551D02*
D03*
X31324Y48088D02*
D03*
X37367Y39115D02*
D03*
X30903Y47376D02*
D03*
X37100Y40515D02*
D03*
X24972Y23007D02*
D03*
X22807Y53479D02*
D03*
X58823Y27029D02*
D03*
X58397Y27029D02*
D03*
X58397Y26603D02*
D03*
X59045Y26694D02*
D03*
X47413Y33873D02*
D03*
X42846Y39739D02*
D03*
X44815Y37810D02*
D03*
X46980Y36944D02*
D03*
X46547Y34188D02*
D03*
X46980Y34779D02*
D03*
X48083Y34188D02*
D03*
X47098D02*
D03*
X48555Y32298D02*
D03*
X46902Y32062D02*
D03*
X46626Y31196D02*
D03*
X47531Y32456D02*
D03*
Y32731D02*
D03*
X21437Y30551D02*
D03*
X27471Y26997D02*
D03*
X28160Y27693D02*
D03*
X26627Y26136D02*
D03*
X25708Y25227D02*
D03*
X54382Y21432D02*
D03*
X54028Y21117D02*
D03*
X53398Y57101D02*
D03*
X56547Y57653D02*
D03*
X56980Y53401D02*
D03*
X57650Y53912D02*
D03*
X51689Y20356D02*
D03*
X51690Y19930D02*
D03*
X52116Y20357D02*
D03*
X20315Y58437D02*
D03*
X19888Y58863D02*
D03*
X20314Y58863D02*
D03*
X19886Y51679D02*
D03*
X20311Y52106D02*
D03*
X20312Y51680D02*
D03*
X27019Y58352D02*
D03*
X26593Y58352D02*
D03*
X27019Y58779D02*
D03*
X20357Y26593D02*
D03*
X20356Y27019D02*
D03*
X19930Y27019D02*
D03*
X20265Y20322D02*
D03*
X19846Y19888D02*
D03*
X19839Y20321D02*
D03*
X27030Y19886D02*
D03*
X26603Y20311D02*
D03*
X27029Y20312D02*
D03*
X58394Y20272D02*
D03*
X58821Y19846D02*
D03*
X58394Y19846D02*
D03*
X58779Y51690D02*
D03*
X58352Y52116D02*
D03*
X58352Y51689D02*
D03*
X51672Y58816D02*
D03*
X52099Y58390D02*
D03*
X51673Y58390D02*
D03*
X58437Y58394D02*
D03*
X58863Y58821D02*
D03*
X58863Y58394D02*
D03*
X52021Y59052D02*
D03*
X26691Y58994D02*
D03*
X19663Y52014D02*
D03*
X19666Y58528D02*
D03*
X19715Y26691D02*
D03*
X20181Y19666D02*
D03*
X26695Y19663D02*
D03*
X52017Y19715D02*
D03*
X59042Y20181D02*
D03*
X59007Y52031D02*
D03*
X58521Y59049D02*
D03*
X54147Y57592D02*
D03*
X52807Y58931D02*
D03*
X39354Y39361D02*
D03*
X55327Y23382D02*
D03*
X39786Y39364D02*
D03*
X39349Y37968D02*
D03*
X40602Y39503D02*
D03*
X40130Y38598D02*
D03*
X38622Y38593D02*
D03*
X39357Y39788D02*
D03*
X25439Y22431D02*
D03*
X25563Y21393D02*
D03*
X21350Y53086D02*
D03*
X22413Y53322D02*
D03*
X38634Y27259D02*
D03*
X38122D02*
D03*
X36114Y33369D02*
D03*
X36626D02*
D03*
X24421Y53361D02*
D03*
X54193Y25212D02*
D03*
X57138Y25645D02*
D03*
X56311Y25290D02*
D03*
X53122Y56196D02*
D03*
X52846Y57062D02*
D03*
X53398Y54188D02*
D03*
Y54739D02*
D03*
X53673Y55015D02*
D03*
X53516Y55920D02*
D03*
X40957Y41786D02*
D03*
X40209D02*
D03*
X40661Y41472D02*
D03*
X23004Y58755D02*
D03*
X55091D02*
D03*
X58831Y55802D02*
D03*
Y23716D02*
D03*
X23594Y19779D02*
D03*
X55681D02*
D03*
X49776D02*
D03*
X45051D02*
D03*
X38752D02*
D03*
X32453D02*
D03*
X30091Y58755D02*
D03*
X34815D02*
D03*
X39539D02*
D03*
X44264D02*
D03*
X48791D02*
D03*
X52768Y27298D02*
D03*
X50799Y29188D02*
D03*
X56665Y25999D02*
D03*
X56941Y23086D02*
D03*
X54736Y21747D02*
D03*
X56665Y21865D02*
D03*
X56350Y22220D02*
D03*
X25878Y22023D02*
D03*
X21035Y24661D02*
D03*
X21783Y23912D02*
D03*
X22217Y52810D02*
D03*
X21823Y55684D02*
D03*
X22217Y56668D02*
D03*
X24028Y57062D02*
D03*
X24500Y57495D02*
D03*
X52728Y56550D02*
D03*
X57413Y54227D02*
D03*
X56941Y54700D02*
D03*
X55681Y56865D02*
D03*
X56508Y56393D02*
D03*
X53398Y53873D02*
D03*
X26350Y53125D02*
D03*
X25130D02*
D03*
X26372Y58068D02*
D03*
X25112Y57950D02*
D03*
X25742Y58620D02*
D03*
X25703Y57360D02*
D03*
X25466Y58305D02*
D03*
X25978Y57714D02*
D03*
X26057Y58935D02*
D03*
X21057Y52856D02*
D03*
X19797Y52738D02*
D03*
X20427Y53407D02*
D03*
X20151Y53092D02*
D03*
X20663Y52501D02*
D03*
X20742Y53722D02*
D03*
X21057Y57725D02*
D03*
X19797Y57843D02*
D03*
X20427Y57174D02*
D03*
X21862Y57023D02*
D03*
X20151Y57489D02*
D03*
X20663Y58079D02*
D03*
X21429Y57377D02*
D03*
X20742Y56859D02*
D03*
X58050Y52356D02*
D03*
X57931Y53615D02*
D03*
X58601Y52985D02*
D03*
X57341Y53025D02*
D03*
X58286Y53261D02*
D03*
X57695Y52749D02*
D03*
X58916Y52671D02*
D03*
X52376Y58092D02*
D03*
X53674Y57972D02*
D03*
X53045Y57383D02*
D03*
X53271Y58441D02*
D03*
X52769Y57738D02*
D03*
X57722Y57671D02*
D03*
X57840Y58930D02*
D03*
X57171Y58300D02*
D03*
X57020Y56865D02*
D03*
X57486Y58576D02*
D03*
X58076Y58064D02*
D03*
X57335Y57259D02*
D03*
X56856Y57985D02*
D03*
X58069Y26310D02*
D03*
X57951Y25050D02*
D03*
X58620Y25680D02*
D03*
X57360Y25641D02*
D03*
X58305Y25404D02*
D03*
X57715Y25916D02*
D03*
X58935Y25995D02*
D03*
X58059Y20558D02*
D03*
X57941Y21818D02*
D03*
X58610Y21188D02*
D03*
X57351Y21227D02*
D03*
X56957Y21582D02*
D03*
X58295Y21464D02*
D03*
X57705Y20952D02*
D03*
X58925Y20873D02*
D03*
X52335Y20638D02*
D03*
X53595Y20757D02*
D03*
X52965Y20087D02*
D03*
X53004Y21347D02*
D03*
X53240Y20402D02*
D03*
X52729Y20993D02*
D03*
X52650Y19772D02*
D03*
X20635Y26377D02*
D03*
X20754Y25117D02*
D03*
X20084Y25747D02*
D03*
X21344Y25707D02*
D03*
X20399Y25471D02*
D03*
X20990Y25983D02*
D03*
X19769Y26062D02*
D03*
X24852Y20936D02*
D03*
X26312Y20642D02*
D03*
X25052Y20760D02*
D03*
X25682Y20091D02*
D03*
X25407Y20406D02*
D03*
X25919Y20996D02*
D03*
X25997Y19776D02*
D03*
X20878Y19779D02*
D03*
X20957Y20999D02*
D03*
X21469Y20409D02*
D03*
X23043Y21826D02*
D03*
X22256Y22456D02*
D03*
X21980Y22101D02*
D03*
X21587Y21747D02*
D03*
X36350Y31912D02*
D03*
X37335Y33015D02*
D03*
X36350Y32267D02*
D03*
X35415Y33379D02*
D03*
X35406Y33015D02*
D03*
X37325Y33379D02*
D03*
X37413Y27495D02*
D03*
X37129Y27407D02*
D03*
X39343Y27495D02*
D03*
X38358Y28204D02*
D03*
X39618Y27416D02*
D03*
X38358Y28558D02*
D03*
X38870Y40920D02*
D03*
X38594Y40645D02*
D03*
Y41747D02*
D03*
X41469Y41117D02*
D03*
X41350Y40684D02*
D03*
X38923Y39358D02*
D03*
X39357Y38929D02*
D03*
X23909Y53401D02*
D03*
X54815Y25369D02*
D03*
X25760Y21550D02*
D03*
X25209Y23637D02*
D03*
X25327Y23912D02*
D03*
X25642Y24385D02*
D03*
X55358Y24541D02*
D03*
X55327Y24818D02*
D03*
X55681Y25015D02*
D03*
X54972Y24542D02*
D03*
X52607Y23991D02*
D03*
X52492Y24388D02*
D03*
X38555Y52849D02*
D03*
X38831Y52416D02*
D03*
X39657Y52220D02*
D03*
X39776Y54031D02*
D03*
Y53164D02*
D03*
X38752D02*
D03*
Y53873D02*
D03*
X53791Y55645D02*
D03*
X24539Y23755D02*
D03*
X23673Y54188D02*
D03*
X54149Y54943D02*
D03*
X48811Y32960D02*
D03*
X24931Y54469D02*
D03*
X21478Y52851D02*
D03*
X21232Y21353D02*
D03*
X21193Y20094D02*
D03*
X21783Y20684D02*
D03*
X20563Y20645D02*
D03*
X45668Y31411D02*
D03*
X48201Y32377D02*
D03*
X38037Y37817D02*
D03*
X37053D02*
D03*
X36079Y37672D02*
D03*
X35383Y36976D02*
D03*
X33991Y35585D02*
D03*
X33295Y34889D02*
D03*
X32599Y34193D02*
D03*
X31903Y33497D02*
D03*
X31207Y32801D02*
D03*
X30674Y31973D02*
D03*
X30355Y31042D02*
D03*
X29659Y30346D02*
D03*
X28963Y29650D02*
D03*
X28267Y28955D02*
D03*
X27571Y28259D02*
D03*
X26875Y27563D02*
D03*
X25483Y26171D02*
D03*
X24787Y25475D02*
D03*
X29070Y28624D02*
D03*
X29766Y29320D02*
D03*
X30462Y30016D02*
D03*
X31158Y30712D02*
D03*
X31476Y31643D02*
D03*
X32010Y32470D02*
D03*
X32706Y33166D02*
D03*
X33402Y33862D02*
D03*
X34098Y34558D02*
D03*
X35490Y35950D02*
D03*
X36186Y36646D02*
D03*
X37098Y37016D02*
D03*
X38082D02*
D03*
X39029Y37284D02*
D03*
X39249Y36959D02*
D03*
X39784Y36133D02*
D03*
X40480Y35437D02*
D03*
X41176Y34741D02*
D03*
X41872Y34045D02*
D03*
X42568Y33349D02*
D03*
X43264Y32653D02*
D03*
X43960Y31957D02*
D03*
X44656Y31261D02*
D03*
X46024Y29394D02*
D03*
X47439Y28477D02*
D03*
X48135Y27781D02*
D03*
X48831Y27085D02*
D03*
X49571Y26436D02*
D03*
X50555Y26425D02*
D03*
X51539Y26424D02*
D03*
X52235Y25728D02*
D03*
X52829Y25088D02*
D03*
X53879Y25299D02*
D03*
X53144Y25954D02*
D03*
X52448Y26649D02*
D03*
X50666Y27227D02*
D03*
X49691Y27359D02*
D03*
X48995Y28055D02*
D03*
X48299Y28751D02*
D03*
X45157Y30650D02*
D03*
X44819Y32231D02*
D03*
X44123Y32927D02*
D03*
X43427Y33623D02*
D03*
X42731Y34319D02*
D03*
X42035Y35015D02*
D03*
X41339Y35711D02*
D03*
X40643Y36407D02*
D03*
X40050Y37192D02*
D03*
X52826Y53238D02*
D03*
X52130Y52542D02*
D03*
X50738Y51151D02*
D03*
X50042Y50455D02*
D03*
X47954Y48367D02*
D03*
X47258Y47671D02*
D03*
X46562Y46975D02*
D03*
X45866Y46279D02*
D03*
X45170Y45583D02*
D03*
X44475Y44887D02*
D03*
X43779Y44191D02*
D03*
X43359Y43300D02*
D03*
Y42316D02*
D03*
X42726Y41563D02*
D03*
X41089Y38793D02*
D03*
X41785Y39489D02*
D03*
X43176Y40880D02*
D03*
X43872Y41576D02*
D03*
X44161Y42517D02*
D03*
X44221Y43500D02*
D03*
X44917Y44196D02*
D03*
X45613Y44892D02*
D03*
X46309Y45588D02*
D03*
X47005Y46284D02*
D03*
X47701Y46980D02*
D03*
X49093Y48372D02*
D03*
X51181Y50460D02*
D03*
X51877Y51156D02*
D03*
X53269Y52548D02*
D03*
X53965Y53243D02*
D03*
X38661Y55496D02*
D03*
X38855Y51579D02*
D03*
Y50595D02*
D03*
Y47642D02*
D03*
Y46658D02*
D03*
Y45673D02*
D03*
Y44689D02*
D03*
Y43705D02*
D03*
Y42721D02*
D03*
X39657Y42149D02*
D03*
Y43134D02*
D03*
Y44118D02*
D03*
Y45102D02*
D03*
Y46086D02*
D03*
Y47071D02*
D03*
Y51008D02*
D03*
X39661Y54944D02*
D03*
X39968Y55879D02*
D03*
X39300Y56602D02*
D03*
X53594Y24134D02*
D03*
X23340Y53949D02*
D03*
X24760Y23340D02*
D03*
X53949Y55369D02*
D03*
X54224Y55330D02*
D03*
X38870Y54464D02*
D03*
X38594Y54188D02*
D03*
X48673Y31196D02*
D03*
X48454Y50060D02*
D03*
X42854Y31060D02*
D03*
X41854D02*
D03*
Y28676D02*
D03*
X42854D02*
D03*
X40362Y39981D02*
D03*
X40102Y40067D02*
D03*
X23379Y54224D02*
D03*
X24484Y23379D02*
D03*
X37897Y38677D02*
D03*
X38330Y38204D02*
D03*
X38633Y37900D02*
D03*
X40788Y38676D02*
D03*
X40355Y38203D02*
D03*
X53754Y23836D02*
D03*
X23832Y24933D02*
D03*
X24259Y24934D02*
D03*
X24930Y54895D02*
D03*
X54465Y53756D02*
D03*
X54892Y53757D02*
D03*
X40948Y26466D02*
D03*
X38741Y26475D02*
D03*
X48476Y33401D02*
D03*
X48201Y33322D02*
D03*
X41350Y40330D02*
D03*
X40110Y40346D02*
D03*
X23428Y55281D02*
D03*
X23735Y54978D02*
D03*
X23120Y55585D02*
D03*
X23124Y54974D02*
D03*
X23731Y55588D02*
D03*
X23459Y56372D02*
D03*
X23518Y56894D02*
D03*
X24439Y55715D02*
D03*
X22631Y56034D02*
D03*
X21922Y55247D02*
D03*
X23650Y56543D02*
D03*
X22355Y55287D02*
D03*
X24442Y56154D02*
D03*
X25161Y56480D02*
D03*
X25412Y56731D02*
D03*
X25411Y57158D02*
D03*
X24735Y56479D02*
D03*
X20936Y54284D02*
D03*
X21186Y54534D02*
D03*
X21613Y54535D02*
D03*
X20936Y53857D02*
D03*
X21911Y54831D02*
D03*
X21190Y56007D02*
D03*
X21617Y56007D02*
D03*
X20938Y56684D02*
D03*
X20939Y56258D02*
D03*
X24521Y55287D02*
D03*
X24442Y54815D02*
D03*
X23043Y53716D02*
D03*
X23634Y53676D02*
D03*
X23428Y23428D02*
D03*
X23124Y23120D02*
D03*
X23735Y23124D02*
D03*
X23120Y23731D02*
D03*
X22337Y23459D02*
D03*
X21815Y23518D02*
D03*
X22675Y22631D02*
D03*
X23462Y21922D02*
D03*
X22166Y23650D02*
D03*
X23421Y22355D02*
D03*
X22555Y24442D02*
D03*
X22228Y25161D02*
D03*
X21978Y25412D02*
D03*
X21551Y25411D02*
D03*
X22229Y24735D02*
D03*
X24425Y20936D02*
D03*
X24174Y21186D02*
D03*
X24173Y21613D02*
D03*
X23877Y21911D02*
D03*
X22702Y21190D02*
D03*
X22701Y21617D02*
D03*
X22098Y20999D02*
D03*
X22451Y20939D02*
D03*
X23421Y24521D02*
D03*
X23894Y24442D02*
D03*
X25169Y22771D02*
D03*
X55588Y23124D02*
D03*
X55585Y23735D02*
D03*
X54978Y23120D02*
D03*
X55249Y22337D02*
D03*
X55191Y21815D02*
D03*
X54270Y22993D02*
D03*
X56078Y22675D02*
D03*
X56786Y23462D02*
D03*
X55058Y22166D02*
D03*
X56353Y23421D02*
D03*
X54267Y22555D02*
D03*
X53547Y22228D02*
D03*
X53297Y21978D02*
D03*
X53297Y21551D02*
D03*
X53974Y22229D02*
D03*
X57522Y24174D02*
D03*
X57096Y24173D02*
D03*
X57650Y24700D02*
D03*
X56798Y23877D02*
D03*
X57519Y22702D02*
D03*
X57092Y22701D02*
D03*
X57689Y22101D02*
D03*
X57770Y22451D02*
D03*
X54267Y23894D02*
D03*
X55878Y25172D02*
D03*
X55091Y25054D02*
D03*
X54815Y54267D02*
D03*
X55322Y54205D02*
D03*
X56007Y57092D02*
D03*
X56007Y57519D02*
D03*
X54831Y56798D02*
D03*
X54535Y57096D02*
D03*
X54534Y57522D02*
D03*
X56479Y53974D02*
D03*
X56480Y53547D02*
D03*
X56154Y54267D02*
D03*
X55287Y56353D02*
D03*
X56543Y55058D02*
D03*
X55247Y56786D02*
D03*
X56034Y56078D02*
D03*
X55715Y54270D02*
D03*
X56894Y55191D02*
D03*
X56372Y55249D02*
D03*
X55588Y54978D02*
D03*
X54974Y55585D02*
D03*
X55585Y55588D02*
D03*
X54978Y54974D02*
D03*
X55281Y55281D02*
D03*
D77*
X68882Y26677D02*
D03*
Y46358D02*
D03*
X68882Y66047D02*
D03*
X49197D02*
D03*
X29512D02*
D03*
X9827Y66047D02*
D03*
X9827Y46362D02*
D03*
X68882Y6992D02*
D03*
X49197Y6992D02*
D03*
X29512Y6992D02*
D03*
X9827Y26677D02*
D03*
Y6992D02*
D03*
D78*
X8627Y66047D02*
X9827D01*
X8178Y65598D02*
X8627Y66047D01*
X8178Y63873D02*
Y65598D01*
X68882Y26673D02*
X69923D01*
X70792Y27543D02*
Y29032D01*
X69923Y26673D02*
X70792Y27543D01*
X69862Y29962D02*
X70792Y29032D01*
X62313Y29962D02*
X69862D01*
X8178Y63873D02*
X8627Y63424D01*
X14770D01*
X19666Y58528D01*
X9278Y43909D02*
X11544D01*
X8669Y44518D02*
X9278Y43909D01*
X8669Y44518D02*
Y45745D01*
X69054Y68466D02*
X69459Y68061D01*
X67937Y68466D02*
X69054D01*
X58521Y59049D02*
X67937Y68466D01*
X69459Y66624D02*
Y68061D01*
X26690Y19659D02*
X32162Y14187D01*
Y7569D02*
Y14187D01*
X31584Y6992D02*
X32162Y7569D01*
X29512Y6992D02*
X31584D01*
X47115Y6992D02*
X49197D01*
X46650Y7457D02*
X47115Y6992D01*
X46650Y7457D02*
Y14347D01*
X52017Y19715D01*
X9461Y8937D02*
X20185Y19661D01*
X9461Y7357D02*
Y8937D01*
Y7357D02*
X9827Y6992D01*
X8841Y29966D02*
X16440D01*
X7978Y29103D02*
X8841Y29966D01*
X7978Y27537D02*
Y29103D01*
Y27537D02*
X8838Y26677D01*
X8669Y45745D02*
X9286Y46362D01*
X32289Y64591D02*
Y68431D01*
X31864Y68856D02*
X32289Y68431D01*
X30018Y68856D02*
X31864D01*
X29512Y68350D02*
X30018Y68856D01*
X48659Y68928D02*
X49197Y68390D01*
X46916Y68928D02*
X48659D01*
X46423Y68436D02*
X46916Y68928D01*
X68823Y46358D02*
X69697D01*
X70025Y44544D02*
Y46031D01*
X69697Y46358D02*
X70025Y46031D01*
X69689Y44208D02*
X70025Y44544D01*
X66828Y44208D02*
X69689D01*
X59007Y52028D02*
Y52031D01*
X49197Y66047D02*
Y68390D01*
X46423Y64650D02*
Y68436D01*
X26691Y58994D02*
X26691Y58994D01*
X58521Y59049D02*
X58521D01*
X59007Y52028D02*
X66828Y44208D01*
X11544Y43909D02*
X19649Y52014D01*
X19663D01*
X26691Y58994D02*
X32289Y64591D01*
X59045Y26694D02*
X62313Y29962D01*
X16440Y29966D02*
X19715Y26691D01*
X46423Y64650D02*
X52021Y59052D01*
X8838Y26677D02*
X9827D01*
X68882Y66047D02*
X69459Y66624D01*
X9286Y46362D02*
X9827D01*
X29512Y66047D02*
Y68350D01*
X68882Y6992D02*
Y10341D01*
X59042Y20181D02*
X68882Y10341D01*
M02*
