G04*
G04 #@! TF.GenerationSoftware,Altium Limited,Altium Designer,25.0.2 (28)*
G04*
G04 Layer_Color=255*
%FSLAX24Y24*%
%MOIN*%
G70*
G04*
G04 #@! TF.SameCoordinates,4B7BC283-7035-4C9F-97D5-5998C8FB6373*
G04*
G04*
G04 #@! TF.FilePolarity,Positive*
G04*
G01*
G75*
%ADD14R,0.0236X0.0217*%
G04:AMPARAMS|DCode=15|XSize=21.7mil|YSize=23.6mil|CornerRadius=0mil|HoleSize=0mil|Usage=FLASHONLY|Rotation=315.000|XOffset=0mil|YOffset=0mil|HoleType=Round|Shape=Rectangle|*
%AMROTATEDRECTD15*
4,1,4,-0.0160,-0.0007,0.0007,0.0160,0.0160,0.0007,-0.0007,-0.0160,-0.0160,-0.0007,0.0*
%
%ADD15ROTATEDRECTD15*%

%ADD16R,0.0217X0.0236*%
G04:AMPARAMS|DCode=17|XSize=21.7mil|YSize=23.6mil|CornerRadius=0mil|HoleSize=0mil|Usage=FLASHONLY|Rotation=45.000|XOffset=0mil|YOffset=0mil|HoleType=Round|Shape=Rectangle|*
%AMROTATEDRECTD17*
4,1,4,0.0007,-0.0160,-0.0160,0.0007,-0.0007,0.0160,0.0160,-0.0007,0.0007,-0.0160,0.0*
%
%ADD17ROTATEDRECTD17*%

%ADD18R,0.0256X0.0197*%
G04:AMPARAMS|DCode=19|XSize=19.7mil|YSize=25.6mil|CornerRadius=0mil|HoleSize=0mil|Usage=FLASHONLY|Rotation=315.000|XOffset=0mil|YOffset=0mil|HoleType=Round|Shape=Rectangle|*
%AMROTATEDRECTD19*
4,1,4,-0.0160,-0.0021,0.0021,0.0160,0.0160,0.0021,-0.0021,-0.0160,-0.0160,-0.0021,0.0*
%
%ADD19ROTATEDRECTD19*%

G04:AMPARAMS|DCode=20|XSize=19.7mil|YSize=23.6mil|CornerRadius=0mil|HoleSize=0mil|Usage=FLASHONLY|Rotation=135.000|XOffset=0mil|YOffset=0mil|HoleType=Round|Shape=Rectangle|*
%AMROTATEDRECTD20*
4,1,4,0.0153,0.0014,-0.0014,-0.0153,-0.0153,-0.0014,0.0014,0.0153,0.0153,0.0014,0.0*
%
%ADD20ROTATEDRECTD20*%

G04:AMPARAMS|DCode=21|XSize=19.7mil|YSize=25.6mil|CornerRadius=0mil|HoleSize=0mil|Usage=FLASHONLY|Rotation=45.000|XOffset=0mil|YOffset=0mil|HoleType=Round|Shape=Rectangle|*
%AMROTATEDRECTD21*
4,1,4,0.0021,-0.0160,-0.0160,0.0021,-0.0021,0.0160,0.0160,-0.0021,0.0021,-0.0160,0.0*
%
%ADD21ROTATEDRECTD21*%

G04:AMPARAMS|DCode=22|XSize=19.7mil|YSize=23.6mil|CornerRadius=0mil|HoleSize=0mil|Usage=FLASHONLY|Rotation=45.000|XOffset=0mil|YOffset=0mil|HoleType=Round|Shape=Rectangle|*
%AMROTATEDRECTD22*
4,1,4,0.0014,-0.0153,-0.0153,0.0014,-0.0014,0.0153,0.0153,-0.0014,0.0014,-0.0153,0.0*
%
%ADD22ROTATEDRECTD22*%

G04:AMPARAMS|DCode=23|XSize=11.8mil|YSize=23.6mil|CornerRadius=3mil|HoleSize=0mil|Usage=FLASHONLY|Rotation=225.000|XOffset=0mil|YOffset=0mil|HoleType=Round|Shape=RoundedRectangle|*
%AMROUNDEDRECTD23*
21,1,0.0118,0.0177,0,0,225.0*
21,1,0.0059,0.0236,0,0,225.0*
1,1,0.0059,-0.0084,0.0042*
1,1,0.0059,-0.0042,0.0084*
1,1,0.0059,0.0084,-0.0042*
1,1,0.0059,0.0042,-0.0084*
%
%ADD23ROUNDEDRECTD23*%
G04:AMPARAMS|DCode=24|XSize=23.6mil|YSize=11.8mil|CornerRadius=3mil|HoleSize=0mil|Usage=FLASHONLY|Rotation=225.000|XOffset=0mil|YOffset=0mil|HoleType=Round|Shape=RoundedRectangle|*
%AMROUNDEDRECTD24*
21,1,0.0236,0.0059,0,0,225.0*
21,1,0.0177,0.0118,0,0,225.0*
1,1,0.0059,-0.0084,-0.0042*
1,1,0.0059,0.0042,0.0084*
1,1,0.0059,0.0084,0.0042*
1,1,0.0059,-0.0042,-0.0084*
%
%ADD24ROUNDEDRECTD24*%
%ADD25R,0.0300X0.0320*%
G04:AMPARAMS|DCode=26|XSize=11.8mil|YSize=23.6mil|CornerRadius=3mil|HoleSize=0mil|Usage=FLASHONLY|Rotation=0.000|XOffset=0mil|YOffset=0mil|HoleType=Round|Shape=RoundedRectangle|*
%AMROUNDEDRECTD26*
21,1,0.0118,0.0177,0,0,0.0*
21,1,0.0059,0.0236,0,0,0.0*
1,1,0.0059,0.0030,-0.0089*
1,1,0.0059,-0.0030,-0.0089*
1,1,0.0059,-0.0030,0.0089*
1,1,0.0059,0.0030,0.0089*
%
%ADD26ROUNDEDRECTD26*%
G04:AMPARAMS|DCode=27|XSize=23.6mil|YSize=11.8mil|CornerRadius=3mil|HoleSize=0mil|Usage=FLASHONLY|Rotation=0.000|XOffset=0mil|YOffset=0mil|HoleType=Round|Shape=RoundedRectangle|*
%AMROUNDEDRECTD27*
21,1,0.0236,0.0059,0,0,0.0*
21,1,0.0177,0.0118,0,0,0.0*
1,1,0.0059,0.0089,-0.0030*
1,1,0.0059,-0.0089,-0.0030*
1,1,0.0059,-0.0089,0.0030*
1,1,0.0059,0.0089,0.0030*
%
%ADD27ROUNDEDRECTD27*%
G04:AMPARAMS|DCode=28|XSize=11.8mil|YSize=23.6mil|CornerRadius=3mil|HoleSize=0mil|Usage=FLASHONLY|Rotation=135.000|XOffset=0mil|YOffset=0mil|HoleType=Round|Shape=RoundedRectangle|*
%AMROUNDEDRECTD28*
21,1,0.0118,0.0177,0,0,135.0*
21,1,0.0059,0.0236,0,0,135.0*
1,1,0.0059,0.0042,0.0084*
1,1,0.0059,0.0084,0.0042*
1,1,0.0059,-0.0042,-0.0084*
1,1,0.0059,-0.0084,-0.0042*
%
%ADD28ROUNDEDRECTD28*%
G04:AMPARAMS|DCode=29|XSize=23.6mil|YSize=11.8mil|CornerRadius=3mil|HoleSize=0mil|Usage=FLASHONLY|Rotation=135.000|XOffset=0mil|YOffset=0mil|HoleType=Round|Shape=RoundedRectangle|*
%AMROUNDEDRECTD29*
21,1,0.0236,0.0059,0,0,135.0*
21,1,0.0177,0.0118,0,0,135.0*
1,1,0.0059,-0.0042,0.0084*
1,1,0.0059,0.0084,-0.0042*
1,1,0.0059,0.0042,-0.0084*
1,1,0.0059,-0.0084,0.0042*
%
%ADD29ROUNDEDRECTD29*%
%ADD30R,0.0197X0.0236*%
%ADD60C,0.0394*%
G04:AMPARAMS|DCode=61|XSize=108.3mil|YSize=108.3mil|CornerRadius=5.4mil|HoleSize=0mil|Usage=FLASHONLY|Rotation=225.000|XOffset=0mil|YOffset=0mil|HoleType=Round|Shape=RoundedRectangle|*
%AMROUNDEDRECTD61*
21,1,0.1083,0.0974,0,0,225.0*
21,1,0.0974,0.1083,0,0,225.0*
1,1,0.0108,-0.0689,0.0000*
1,1,0.0108,0.0000,0.0689*
1,1,0.0108,0.0689,0.0000*
1,1,0.0108,0.0000,-0.0689*
%
%ADD61ROUNDEDRECTD61*%
G04:AMPARAMS|DCode=62|XSize=108.3mil|YSize=108.3mil|CornerRadius=5.4mil|HoleSize=0mil|Usage=FLASHONLY|Rotation=0.000|XOffset=0mil|YOffset=0mil|HoleType=Round|Shape=RoundedRectangle|*
%AMROUNDEDRECTD62*
21,1,0.1083,0.0974,0,0,0.0*
21,1,0.0974,0.1083,0,0,0.0*
1,1,0.0108,0.0487,-0.0487*
1,1,0.0108,-0.0487,-0.0487*
1,1,0.0108,-0.0487,0.0487*
1,1,0.0108,0.0487,0.0487*
%
%ADD62ROUNDEDRECTD62*%
G04:AMPARAMS|DCode=63|XSize=108.3mil|YSize=108.3mil|CornerRadius=5.4mil|HoleSize=0mil|Usage=FLASHONLY|Rotation=135.000|XOffset=0mil|YOffset=0mil|HoleType=Round|Shape=RoundedRectangle|*
%AMROUNDEDRECTD63*
21,1,0.1083,0.0974,0,0,135.0*
21,1,0.0974,0.1083,0,0,135.0*
1,1,0.0108,0.0000,0.0689*
1,1,0.0108,0.0689,0.0000*
1,1,0.0108,0.0000,-0.0689*
1,1,0.0108,-0.0689,0.0000*
%
%ADD63ROUNDEDRECTD63*%
%ADD70C,0.0630*%
%ADD71R,0.0600X0.0630*%
%ADD72C,0.0748*%
%ADD73C,0.0827*%
%ADD74C,0.0157*%
%ADD75C,0.1260*%
D14*
X38870Y40645D02*
D03*
X39264D02*
D03*
X38870Y41747D02*
D03*
X39264D02*
D03*
X38634Y38204D02*
D03*
X39028D02*
D03*
X40051D02*
D03*
X39657D02*
D03*
X38870Y54188D02*
D03*
X39264D02*
D03*
X40634Y26466D02*
D03*
X40240D02*
D03*
D15*
X24718Y54682D02*
D03*
X24440Y54403D02*
D03*
X53967Y24049D02*
D03*
X54246Y24327D02*
D03*
X23026Y56402D02*
D03*
X23305Y56680D02*
D03*
X55682Y22307D02*
D03*
X55404Y22029D02*
D03*
X22127Y55497D02*
D03*
X22405Y55775D02*
D03*
X22736Y24227D02*
D03*
X22458Y23948D02*
D03*
X23663Y22124D02*
D03*
X23942Y22402D02*
D03*
X56582Y23212D02*
D03*
X56304Y22933D02*
D03*
X55972Y54482D02*
D03*
X56251Y54760D02*
D03*
X55045Y56585D02*
D03*
X54767Y56306D02*
D03*
X20101Y58650D02*
D03*
X19823Y58371D02*
D03*
X20143Y26806D02*
D03*
X19865Y26528D02*
D03*
X26816Y20099D02*
D03*
X26538Y19820D02*
D03*
X58607Y20059D02*
D03*
X58886Y20337D02*
D03*
X58565Y51903D02*
D03*
X58844Y52181D02*
D03*
X51886Y58603D02*
D03*
X52164Y58882D02*
D03*
X55998Y56526D02*
D03*
X56276Y56805D02*
D03*
X54540Y22238D02*
D03*
X54262Y21960D02*
D03*
X56529Y24165D02*
D03*
X56808Y24443D02*
D03*
X22432Y21904D02*
D03*
X22711Y22182D02*
D03*
X24168Y56470D02*
D03*
X24447Y56749D02*
D03*
X22179Y54544D02*
D03*
X21901Y54266D02*
D03*
D16*
X38201Y38676D02*
D03*
Y39070D02*
D03*
X40484Y38676D02*
D03*
Y39070D02*
D03*
X39264Y40999D02*
D03*
Y41393D02*
D03*
D17*
X24046Y24721D02*
D03*
X24324Y24443D02*
D03*
X54679Y53970D02*
D03*
X54400Y54249D02*
D03*
X22307Y23026D02*
D03*
X22029Y23305D02*
D03*
X56402Y55682D02*
D03*
X56680Y55404D02*
D03*
X24227Y55972D02*
D03*
X23948Y56251D02*
D03*
X22124Y55045D02*
D03*
X22402Y54767D02*
D03*
X23212Y22127D02*
D03*
X22933Y22405D02*
D03*
X54482Y22736D02*
D03*
X54760Y22458D02*
D03*
X56585Y23663D02*
D03*
X56306Y23942D02*
D03*
X55497Y56582D02*
D03*
X55775Y56304D02*
D03*
X26806Y58565D02*
D03*
X26528Y58844D02*
D03*
X20099Y51892D02*
D03*
X19820Y52171D02*
D03*
X20059Y20101D02*
D03*
X20337Y19823D02*
D03*
X51903Y20143D02*
D03*
X52181Y19865D02*
D03*
X58610Y26816D02*
D03*
X58889Y26538D02*
D03*
X58650Y58607D02*
D03*
X58371Y58886D02*
D03*
X54544Y56529D02*
D03*
X54266Y56808D02*
D03*
X56470Y54540D02*
D03*
X56749Y54262D02*
D03*
X56526Y22711D02*
D03*
X56805Y22432D02*
D03*
X21960Y24447D02*
D03*
X22238Y24168D02*
D03*
X24443Y21901D02*
D03*
X24165Y22179D02*
D03*
X22182Y55998D02*
D03*
X21904Y56276D02*
D03*
D18*
X38880Y52849D02*
D03*
X39254D02*
D03*
D19*
X54050Y57037D02*
D03*
X54314Y57302D02*
D03*
X56965Y54032D02*
D03*
X56700Y53768D02*
D03*
X57034Y22216D02*
D03*
X57299Y22481D02*
D03*
X24659Y21671D02*
D03*
X24394Y21407D02*
D03*
X21744Y24676D02*
D03*
X22009Y24941D02*
D03*
X21674Y56492D02*
D03*
X21410Y56228D02*
D03*
X54160Y54005D02*
D03*
X53895Y53741D02*
D03*
X24868Y24990D02*
D03*
X24604Y24725D02*
D03*
D20*
X57869Y58383D02*
D03*
X58147Y58661D02*
D03*
X58373Y26024D02*
D03*
X58651Y26302D02*
D03*
X52705Y20396D02*
D03*
X52427Y20118D02*
D03*
X20840Y20326D02*
D03*
X20561Y20048D02*
D03*
X20336Y52685D02*
D03*
X20058Y52407D02*
D03*
X26003Y58313D02*
D03*
X26282Y58591D02*
D03*
D21*
X56492Y57034D02*
D03*
X56228Y57299D02*
D03*
X57037Y24659D02*
D03*
X57302Y24394D02*
D03*
X54032Y21744D02*
D03*
X53768Y22009D02*
D03*
X22216Y21674D02*
D03*
X22481Y21410D02*
D03*
X21671Y54050D02*
D03*
X21407Y54314D02*
D03*
X24676Y56965D02*
D03*
X24941Y56700D02*
D03*
X53963Y24607D02*
D03*
X53698Y24871D02*
D03*
X24987Y53859D02*
D03*
X24722Y54123D02*
D03*
D22*
X58313Y52705D02*
D03*
X58591Y52427D02*
D03*
X58383Y20840D02*
D03*
X58661Y20561D02*
D03*
X26024Y20336D02*
D03*
X26302Y20058D02*
D03*
X20396Y26003D02*
D03*
X20118Y26282D02*
D03*
X20326Y57869D02*
D03*
X20048Y58147D02*
D03*
X52678Y58382D02*
D03*
X52400Y58661D02*
D03*
D23*
X24304Y55100D02*
D03*
X24165Y54961D02*
D03*
X24026Y54822D02*
D03*
X23887Y54683D02*
D03*
X23748Y54543D02*
D03*
X23608Y54404D02*
D03*
X22551Y55462D02*
D03*
X22690Y55601D02*
D03*
X22829Y55740D02*
D03*
X22968Y55880D02*
D03*
X23107Y56019D02*
D03*
X23247Y56158D02*
D03*
X54404Y23608D02*
D03*
X54543Y23748D02*
D03*
X54683Y23887D02*
D03*
X54822Y24026D02*
D03*
X54961Y24165D02*
D03*
X55100Y24304D02*
D03*
X56158Y23247D02*
D03*
X56019Y23107D02*
D03*
X55880Y22968D02*
D03*
X55740Y22829D02*
D03*
X55601Y22690D02*
D03*
X55462Y22551D02*
D03*
D24*
X23247Y54404D02*
D03*
X23107Y54543D02*
D03*
X22968Y54683D02*
D03*
X22829Y54822D02*
D03*
X22690Y54961D02*
D03*
X22551Y55100D02*
D03*
X23608Y56158D02*
D03*
X23748Y56019D02*
D03*
X23887Y55880D02*
D03*
X24026Y55740D02*
D03*
X24165Y55601D02*
D03*
X24304Y55462D02*
D03*
X55462Y24304D02*
D03*
X55601Y24165D02*
D03*
X55740Y24026D02*
D03*
X55880Y23887D02*
D03*
X56019Y23748D02*
D03*
X56158Y23608D02*
D03*
X55100Y22551D02*
D03*
X54961Y22690D02*
D03*
X54822Y22829D02*
D03*
X54683Y22968D02*
D03*
X54543Y23107D02*
D03*
X54404Y23247D02*
D03*
D25*
X39689Y26475D02*
D03*
X39139D02*
D03*
D26*
X38862Y40109D02*
D03*
X39059D02*
D03*
X39256D02*
D03*
X39453D02*
D03*
X39650D02*
D03*
X39846D02*
D03*
Y38613D02*
D03*
X39650D02*
D03*
X39453D02*
D03*
X39256D02*
D03*
X39059D02*
D03*
X38862D02*
D03*
D27*
X40102Y39853D02*
D03*
Y39657D02*
D03*
Y39460D02*
D03*
Y39263D02*
D03*
Y39066D02*
D03*
Y38869D02*
D03*
X38606D02*
D03*
Y39066D02*
D03*
Y39263D02*
D03*
Y39460D02*
D03*
Y39657D02*
D03*
Y39853D02*
D03*
D28*
X55100Y54404D02*
D03*
X54961Y54543D02*
D03*
X54822Y54683D02*
D03*
X54683Y54822D02*
D03*
X54543Y54961D02*
D03*
X54404Y55100D02*
D03*
X55462Y56158D02*
D03*
X55601Y56019D02*
D03*
X55740Y55880D02*
D03*
X55880Y55740D02*
D03*
X56019Y55601D02*
D03*
X56158Y55462D02*
D03*
X22551Y23247D02*
D03*
X22690Y23107D02*
D03*
X22829Y22968D02*
D03*
X22968Y22829D02*
D03*
X23107Y22690D02*
D03*
X23247Y22551D02*
D03*
X24304Y23608D02*
D03*
X24165Y23748D02*
D03*
X24026Y23887D02*
D03*
X23887Y24026D02*
D03*
X23748Y24165D02*
D03*
X23608Y24304D02*
D03*
D29*
X54404Y55462D02*
D03*
X54543Y55601D02*
D03*
X54683Y55740D02*
D03*
X54822Y55880D02*
D03*
X54961Y56019D02*
D03*
X55100Y56158D02*
D03*
X56158Y55100D02*
D03*
X56019Y54961D02*
D03*
X55880Y54822D02*
D03*
X55740Y54683D02*
D03*
X55601Y54543D02*
D03*
X55462Y54404D02*
D03*
X23247Y24304D02*
D03*
X23107Y24165D02*
D03*
X22968Y24026D02*
D03*
X22829Y23887D02*
D03*
X22690Y23748D02*
D03*
X22551Y23608D02*
D03*
X23608Y22551D02*
D03*
X23748Y22690D02*
D03*
X23887Y22829D02*
D03*
X24026Y22968D02*
D03*
X24165Y23107D02*
D03*
X24304Y23247D02*
D03*
D30*
X39264Y53716D02*
D03*
Y53322D02*
D03*
D60*
X35917Y33094D02*
D03*
X49197Y66047D02*
D03*
X68882D02*
D03*
X68882Y46362D02*
D03*
Y26677D02*
D03*
X68882Y6992D02*
D03*
X49197Y6992D02*
D03*
X29512Y6992D02*
D03*
X9827D02*
D03*
Y26677D02*
D03*
X9827Y46362D02*
D03*
X9827Y66047D02*
D03*
X29512Y66047D02*
D03*
X38831Y27574D02*
D03*
X37925D02*
D03*
X36823Y33094D02*
D03*
X40248Y26983D02*
D03*
X47492Y33401D02*
D03*
X45854Y27968D02*
D03*
X41862Y27968D02*
D03*
D61*
X23428Y55281D02*
D03*
X55281Y23428D02*
D03*
D62*
X39354Y39361D02*
D03*
D63*
X55281Y55281D02*
D03*
X23428Y23428D02*
D03*
D70*
X40953Y30169D02*
D03*
X38984D02*
D03*
X38000D02*
D03*
X37016D02*
D03*
X39969D02*
D03*
D71*
X36031D02*
D03*
D72*
X39260Y55886D02*
D03*
D73*
X40260Y56886D02*
D03*
X38260D02*
D03*
Y54886D02*
D03*
X40260D02*
D03*
D74*
X2740Y2740D02*
D03*
X75968D02*
D03*
Y75969D02*
D03*
X2740D02*
D03*
D75*
X24087Y29795D02*
D03*
X24228Y49657D02*
D03*
X53354Y29868D02*
D03*
X53008Y49547D02*
D03*
M02*
