G04*
G04 #@! TF.GenerationSoftware,Altium Limited,Altium Designer,25.0.2 (28)*
G04*
G04 Layer_Color=8388736*
%FSLAX24Y24*%
%MOIN*%
G70*
G04*
G04 #@! TF.SameCoordinates,4B7BC283-7035-4C9F-97D5-5998C8FB6373*
G04*
G04*
G04 #@! TF.FilePolarity,Negative*
G04*
G01*
G75*
%ADD31R,0.1205X0.1256*%
%ADD32C,0.0433*%
%ADD33R,0.0276X0.0256*%
G04:AMPARAMS|DCode=34|XSize=25.6mil|YSize=27.6mil|CornerRadius=0mil|HoleSize=0mil|Usage=FLASHONLY|Rotation=315.000|XOffset=0mil|YOffset=0mil|HoleType=Round|Shape=Rectangle|*
%AMROTATEDRECTD34*
4,1,4,-0.0188,-0.0007,0.0007,0.0188,0.0188,0.0007,-0.0007,-0.0188,-0.0188,-0.0007,0.0*
%
%ADD34ROTATEDRECTD34*%

%ADD35R,0.0256X0.0276*%
G04:AMPARAMS|DCode=36|XSize=25.6mil|YSize=27.6mil|CornerRadius=0mil|HoleSize=0mil|Usage=FLASHONLY|Rotation=45.000|XOffset=0mil|YOffset=0mil|HoleType=Round|Shape=Rectangle|*
%AMROTATEDRECTD36*
4,1,4,0.0007,-0.0188,-0.0188,0.0007,-0.0007,0.0188,0.0188,-0.0007,0.0007,-0.0188,0.0*
%
%ADD36ROTATEDRECTD36*%

%ADD37R,0.0295X0.0236*%
G04:AMPARAMS|DCode=38|XSize=23.6mil|YSize=29.5mil|CornerRadius=0mil|HoleSize=0mil|Usage=FLASHONLY|Rotation=315.000|XOffset=0mil|YOffset=0mil|HoleType=Round|Shape=Rectangle|*
%AMROTATEDRECTD38*
4,1,4,-0.0188,-0.0021,0.0021,0.0188,0.0188,0.0021,-0.0021,-0.0188,-0.0188,-0.0021,0.0*
%
%ADD38ROTATEDRECTD38*%

G04:AMPARAMS|DCode=39|XSize=23.6mil|YSize=27.6mil|CornerRadius=0mil|HoleSize=0mil|Usage=FLASHONLY|Rotation=135.000|XOffset=0mil|YOffset=0mil|HoleType=Round|Shape=Rectangle|*
%AMROTATEDRECTD39*
4,1,4,0.0181,0.0014,-0.0014,-0.0181,-0.0181,-0.0014,0.0014,0.0181,0.0181,0.0014,0.0*
%
%ADD39ROTATEDRECTD39*%

G04:AMPARAMS|DCode=40|XSize=23.6mil|YSize=29.5mil|CornerRadius=0mil|HoleSize=0mil|Usage=FLASHONLY|Rotation=45.000|XOffset=0mil|YOffset=0mil|HoleType=Round|Shape=Rectangle|*
%AMROTATEDRECTD40*
4,1,4,0.0021,-0.0188,-0.0188,0.0021,-0.0021,0.0188,0.0188,-0.0021,0.0021,-0.0188,0.0*
%
%ADD40ROTATEDRECTD40*%

G04:AMPARAMS|DCode=41|XSize=23.6mil|YSize=27.6mil|CornerRadius=0mil|HoleSize=0mil|Usage=FLASHONLY|Rotation=45.000|XOffset=0mil|YOffset=0mil|HoleType=Round|Shape=Rectangle|*
%AMROTATEDRECTD41*
4,1,4,0.0014,-0.0181,-0.0181,0.0014,-0.0014,0.0181,0.0181,-0.0014,0.0014,-0.0181,0.0*
%
%ADD41ROTATEDRECTD41*%

G04:AMPARAMS|DCode=42|XSize=112.2mil|YSize=112.2mil|CornerRadius=7.4mil|HoleSize=0mil|Usage=FLASHONLY|Rotation=225.000|XOffset=0mil|YOffset=0mil|HoleType=Round|Shape=RoundedRectangle|*
%AMROUNDEDRECTD42*
21,1,0.1122,0.0974,0,0,225.0*
21,1,0.0974,0.1122,0,0,225.0*
1,1,0.0148,-0.0689,0.0000*
1,1,0.0148,0.0000,0.0689*
1,1,0.0148,0.0689,0.0000*
1,1,0.0148,0.0000,-0.0689*
%
%ADD42ROUNDEDRECTD42*%
G04:AMPARAMS|DCode=43|XSize=15.7mil|YSize=27.6mil|CornerRadius=4.9mil|HoleSize=0mil|Usage=FLASHONLY|Rotation=225.000|XOffset=0mil|YOffset=0mil|HoleType=Round|Shape=RoundedRectangle|*
%AMROUNDEDRECTD43*
21,1,0.0157,0.0177,0,0,225.0*
21,1,0.0059,0.0276,0,0,225.0*
1,1,0.0098,-0.0084,0.0042*
1,1,0.0098,-0.0042,0.0084*
1,1,0.0098,0.0084,-0.0042*
1,1,0.0098,0.0042,-0.0084*
%
%ADD43ROUNDEDRECTD43*%
G04:AMPARAMS|DCode=44|XSize=27.6mil|YSize=15.7mil|CornerRadius=4.9mil|HoleSize=0mil|Usage=FLASHONLY|Rotation=225.000|XOffset=0mil|YOffset=0mil|HoleType=Round|Shape=RoundedRectangle|*
%AMROUNDEDRECTD44*
21,1,0.0276,0.0059,0,0,225.0*
21,1,0.0177,0.0157,0,0,225.0*
1,1,0.0098,-0.0084,-0.0042*
1,1,0.0098,0.0042,0.0084*
1,1,0.0098,0.0084,0.0042*
1,1,0.0098,-0.0042,-0.0084*
%
%ADD44ROUNDEDRECTD44*%
%ADD45R,0.0339X0.0359*%
G04:AMPARAMS|DCode=46|XSize=112.2mil|YSize=112.2mil|CornerRadius=7.4mil|HoleSize=0mil|Usage=FLASHONLY|Rotation=0.000|XOffset=0mil|YOffset=0mil|HoleType=Round|Shape=RoundedRectangle|*
%AMROUNDEDRECTD46*
21,1,0.1122,0.0974,0,0,0.0*
21,1,0.0974,0.1122,0,0,0.0*
1,1,0.0148,0.0487,-0.0487*
1,1,0.0148,-0.0487,-0.0487*
1,1,0.0148,-0.0487,0.0487*
1,1,0.0148,0.0487,0.0487*
%
%ADD46ROUNDEDRECTD46*%
G04:AMPARAMS|DCode=47|XSize=15.7mil|YSize=27.6mil|CornerRadius=4.9mil|HoleSize=0mil|Usage=FLASHONLY|Rotation=0.000|XOffset=0mil|YOffset=0mil|HoleType=Round|Shape=RoundedRectangle|*
%AMROUNDEDRECTD47*
21,1,0.0157,0.0177,0,0,0.0*
21,1,0.0059,0.0276,0,0,0.0*
1,1,0.0098,0.0030,-0.0089*
1,1,0.0098,-0.0030,-0.0089*
1,1,0.0098,-0.0030,0.0089*
1,1,0.0098,0.0030,0.0089*
%
%ADD47ROUNDEDRECTD47*%
G04:AMPARAMS|DCode=48|XSize=27.6mil|YSize=15.7mil|CornerRadius=4.9mil|HoleSize=0mil|Usage=FLASHONLY|Rotation=0.000|XOffset=0mil|YOffset=0mil|HoleType=Round|Shape=RoundedRectangle|*
%AMROUNDEDRECTD48*
21,1,0.0276,0.0059,0,0,0.0*
21,1,0.0177,0.0157,0,0,0.0*
1,1,0.0098,0.0089,-0.0030*
1,1,0.0098,-0.0089,-0.0030*
1,1,0.0098,-0.0089,0.0030*
1,1,0.0098,0.0089,0.0030*
%
%ADD48ROUNDEDRECTD48*%
G04:AMPARAMS|DCode=49|XSize=112.2mil|YSize=112.2mil|CornerRadius=7.4mil|HoleSize=0mil|Usage=FLASHONLY|Rotation=135.000|XOffset=0mil|YOffset=0mil|HoleType=Round|Shape=RoundedRectangle|*
%AMROUNDEDRECTD49*
21,1,0.1122,0.0974,0,0,135.0*
21,1,0.0974,0.1122,0,0,135.0*
1,1,0.0148,0.0000,0.0689*
1,1,0.0148,0.0689,0.0000*
1,1,0.0148,0.0000,-0.0689*
1,1,0.0148,-0.0689,0.0000*
%
%ADD49ROUNDEDRECTD49*%
G04:AMPARAMS|DCode=50|XSize=15.7mil|YSize=27.6mil|CornerRadius=4.9mil|HoleSize=0mil|Usage=FLASHONLY|Rotation=135.000|XOffset=0mil|YOffset=0mil|HoleType=Round|Shape=RoundedRectangle|*
%AMROUNDEDRECTD50*
21,1,0.0157,0.0177,0,0,135.0*
21,1,0.0059,0.0276,0,0,135.0*
1,1,0.0098,0.0042,0.0084*
1,1,0.0098,0.0084,0.0042*
1,1,0.0098,-0.0042,-0.0084*
1,1,0.0098,-0.0084,-0.0042*
%
%ADD50ROUNDEDRECTD50*%
G04:AMPARAMS|DCode=51|XSize=27.6mil|YSize=15.7mil|CornerRadius=4.9mil|HoleSize=0mil|Usage=FLASHONLY|Rotation=135.000|XOffset=0mil|YOffset=0mil|HoleType=Round|Shape=RoundedRectangle|*
%AMROUNDEDRECTD51*
21,1,0.0276,0.0059,0,0,135.0*
21,1,0.0177,0.0157,0,0,135.0*
1,1,0.0098,-0.0042,0.0084*
1,1,0.0098,0.0084,-0.0042*
1,1,0.0098,0.0042,-0.0084*
1,1,0.0098,-0.0084,0.0042*
%
%ADD51ROUNDEDRECTD51*%
%ADD52R,0.0236X0.0276*%
%ADD53C,0.0669*%
%ADD54R,0.0639X0.0669*%
%ADD55C,0.0787*%
%ADD56C,0.0866*%
%ADD57C,0.1732*%
%ADD58C,0.1417*%
%ADD59C,0.0118*%
G36*
X13895Y36401D02*
X13925Y36400D01*
X13955Y36398D01*
X13985Y36396D01*
X13988Y36395D01*
X14014Y36392D01*
X14028Y36390D01*
X14044Y36388D01*
X14073Y36383D01*
X14103Y36377D01*
X14132Y36371D01*
X14161Y36364D01*
X14190Y36356D01*
X14219Y36347D01*
X14247Y36338D01*
X14275Y36328D01*
X14303Y36317D01*
X14315Y36313D01*
X14331Y36306D01*
X14358Y36294D01*
X14385Y36281D01*
X14412Y36267D01*
X14438Y36253D01*
X14464Y36238D01*
X14490Y36223D01*
X14515Y36207D01*
X14540Y36190D01*
X14564Y36173D01*
X14588Y36155D01*
X14598Y36146D01*
X14612Y36136D01*
X14634Y36117D01*
X14657Y36097D01*
X14659Y36095D01*
X14679Y36077D01*
X14689Y36066D01*
X14700Y36056D01*
X16371Y34385D01*
X16392Y34364D01*
X16412Y34342D01*
X16432Y34320D01*
X16435Y34316D01*
X16451Y34297D01*
X16459Y34286D01*
X16469Y34273D01*
X16480Y34260D01*
X16488Y34249D01*
X16500Y34232D01*
X16505Y34225D01*
X16510Y34217D01*
X16522Y34200D01*
X16528Y34190D01*
X16538Y34175D01*
X16553Y34149D01*
X16560Y34138D01*
X16568Y34123D01*
X16573Y34114D01*
X16582Y34097D01*
X16591Y34079D01*
X16596Y34070D01*
X16602Y34058D01*
X16609Y34043D01*
X16621Y34016D01*
X16632Y33988D01*
X16643Y33960D01*
X16647Y33950D01*
X16653Y33932D01*
X16659Y33913D01*
X16662Y33904D01*
X16665Y33895D01*
X16671Y33875D01*
X16677Y33854D01*
X16679Y33846D01*
X16686Y33817D01*
X16687Y33811D01*
X16692Y33788D01*
X16698Y33759D01*
X16703Y33729D01*
X16707Y33699D01*
X16711Y33670D01*
X16713Y33640D01*
X16715Y33610D01*
X16716Y33580D01*
X16717Y33550D01*
Y23803D01*
X16716Y23773D01*
X16715Y23743D01*
X16713Y23713D01*
X16711Y23684D01*
X16707Y23654D01*
X16703Y23624D01*
X16698Y23595D01*
X16692Y23565D01*
X16686Y23536D01*
X16679Y23507D01*
X16671Y23478D01*
X16662Y23450D01*
X16653Y23421D01*
X16643Y23393D01*
X16632Y23365D01*
X16621Y23337D01*
X16609Y23310D01*
X16596Y23283D01*
X16582Y23256D01*
X16568Y23230D01*
X16553Y23204D01*
X16538Y23178D01*
X16522Y23153D01*
X16505Y23128D01*
X16488Y23104D01*
X16469Y23080D01*
X16451Y23057D01*
X16432Y23034D01*
X16412Y23011D01*
X16392Y22989D01*
X16371Y22968D01*
X16349Y22947D01*
X16327Y22927D01*
X16305Y22907D01*
X16282Y22888D01*
X16258Y22869D01*
X16235Y22851D01*
X16210Y22834D01*
X16185Y22817D01*
X16160Y22801D01*
X16135Y22785D01*
X16109Y22770D01*
X16082Y22756D01*
X16056Y22743D01*
X16029Y22730D01*
X16001Y22718D01*
X15974Y22706D01*
X15946Y22695D01*
X15917Y22685D01*
X15889Y22676D01*
X15860Y22668D01*
X15832Y22660D01*
X15802Y22653D01*
X15773Y22646D01*
X15744Y22640D01*
X15714Y22636D01*
X15685Y22631D01*
X15655Y22628D01*
X15625Y22625D01*
X15595Y22623D01*
X15565Y22622D01*
X15535Y22622D01*
X5788D01*
X5759Y22622D01*
X5729Y22623D01*
X5699Y22625D01*
X5696Y22626D01*
X5669Y22628D01*
X5639Y22631D01*
X5610Y22636D01*
X5580Y22640D01*
X5551Y22646D01*
X5528Y22651D01*
X5521Y22653D01*
X5492Y22660D01*
X5484Y22662D01*
X5464Y22668D01*
X5443Y22674D01*
X5435Y22676D01*
X5426Y22679D01*
X5406Y22685D01*
X5388Y22692D01*
X5378Y22695D01*
X5350Y22706D01*
X5323Y22718D01*
X5295Y22730D01*
X5281Y22737D01*
X5268Y22743D01*
X5259Y22747D01*
X5242Y22756D01*
X5224Y22765D01*
X5215Y22770D01*
X5200Y22779D01*
X5189Y22785D01*
X5164Y22801D01*
X5148Y22811D01*
X5138Y22817D01*
X5114Y22834D01*
X5089Y22851D01*
X5079Y22859D01*
X5065Y22869D01*
X5052Y22879D01*
X5042Y22888D01*
X5019Y22907D01*
X4997Y22927D01*
X4975Y22947D01*
X4953Y22968D01*
X3283Y24638D01*
X3262Y24660D01*
X3242Y24682D01*
X3222Y24704D01*
X3203Y24727D01*
X3184Y24750D01*
X3166Y24774D01*
X3149Y24799D01*
X3132Y24823D01*
X3122Y24839D01*
X3116Y24849D01*
X3100Y24874D01*
X3085Y24900D01*
X3076Y24917D01*
X3071Y24927D01*
X3064Y24940D01*
X3058Y24953D01*
X3051Y24967D01*
X3045Y24980D01*
X3039Y24992D01*
X3033Y25008D01*
X3026Y25024D01*
X3021Y25035D01*
X3010Y25063D01*
X3000Y25091D01*
X2997Y25101D01*
X2991Y25120D01*
X2985Y25140D01*
X2982Y25149D01*
X2975Y25177D01*
X2967Y25206D01*
X2962Y25229D01*
X2961Y25236D01*
X2955Y25265D01*
X2951Y25295D01*
X2950Y25299D01*
X2946Y25324D01*
X2943Y25351D01*
X2943Y25354D01*
X2940Y25384D01*
X2938Y25414D01*
X2937Y25444D01*
X2937Y25473D01*
Y35220D01*
X2937Y35250D01*
X2938Y35280D01*
X2940Y35310D01*
X2943Y35340D01*
X2946Y35370D01*
X2951Y35399D01*
X2955Y35429D01*
X2961Y35458D01*
X2967Y35487D01*
X2975Y35517D01*
X2982Y35545D01*
X2991Y35574D01*
X3000Y35603D01*
X3010Y35631D01*
X3021Y35659D01*
X3033Y35686D01*
X3045Y35714D01*
X3058Y35741D01*
X3071Y35767D01*
X3085Y35794D01*
X3100Y35820D01*
X3116Y35845D01*
X3132Y35870D01*
X3149Y35895D01*
X3166Y35920D01*
X3184Y35943D01*
X3203Y35967D01*
X3222Y35990D01*
X3242Y36012D01*
X3262Y36034D01*
X3283Y36056D01*
X3304Y36077D01*
X3326Y36097D01*
X3349Y36117D01*
X3372Y36136D01*
X3395Y36155D01*
X3419Y36173D01*
X3443Y36190D01*
X3468Y36207D01*
X3493Y36223D01*
X3519Y36238D01*
X3545Y36253D01*
X3571Y36267D01*
X3598Y36281D01*
X3625Y36294D01*
X3652Y36306D01*
X3680Y36317D01*
X3708Y36328D01*
X3736Y36338D01*
X3765Y36347D01*
X3793Y36356D01*
X3822Y36364D01*
X3851Y36371D01*
X3880Y36377D01*
X3910Y36383D01*
X3939Y36388D01*
X3969Y36392D01*
X3999Y36396D01*
X4028Y36398D01*
X4058Y36400D01*
X4088Y36401D01*
X4118Y36402D01*
X13865D01*
X13895Y36401D01*
D02*
G37*
G36*
X13895Y16716D02*
X13925Y16715D01*
X13955Y16713D01*
X13957Y16713D01*
X13985Y16711D01*
X14014Y16707D01*
X14044Y16703D01*
X14073Y16698D01*
X14103Y16692D01*
X14126Y16687D01*
X14132Y16686D01*
X14161Y16679D01*
X14169Y16677D01*
X14190Y16671D01*
X14210Y16665D01*
X14219Y16662D01*
X14228Y16659D01*
X14247Y16653D01*
X14265Y16647D01*
X14275Y16643D01*
X14303Y16632D01*
X14331Y16621D01*
X14358Y16609D01*
X14372Y16602D01*
X14385Y16596D01*
X14394Y16591D01*
X14412Y16582D01*
X14429Y16573D01*
X14438Y16568D01*
X14453Y16560D01*
X14464Y16553D01*
X14490Y16538D01*
X14505Y16528D01*
X14515Y16522D01*
X14540Y16505D01*
X14564Y16488D01*
X14575Y16480D01*
X14588Y16470D01*
X14601Y16459D01*
X14612Y16451D01*
X14634Y16432D01*
X14657Y16412D01*
X14679Y16392D01*
X14700Y16371D01*
X16371Y14700D01*
X16392Y14679D01*
X16412Y14657D01*
X16432Y14634D01*
X16451Y14612D01*
X16470Y14588D01*
X16488Y14564D01*
X16505Y14540D01*
X16522Y14515D01*
X16532Y14500D01*
X16538Y14490D01*
X16553Y14464D01*
X16568Y14438D01*
X16577Y14421D01*
X16582Y14412D01*
X16589Y14398D01*
X16596Y14385D01*
X16603Y14371D01*
X16609Y14358D01*
X16614Y14346D01*
X16621Y14331D01*
X16628Y14315D01*
X16632Y14303D01*
X16643Y14275D01*
X16653Y14247D01*
X16656Y14238D01*
X16662Y14219D01*
X16668Y14199D01*
X16671Y14190D01*
X16679Y14161D01*
X16686Y14132D01*
X16691Y14109D01*
X16692Y14103D01*
X16698Y14073D01*
X16703Y14044D01*
X16704Y14040D01*
X16707Y14014D01*
X16710Y13988D01*
X16711Y13985D01*
X16713Y13955D01*
X16715Y13925D01*
X16716Y13895D01*
X16717Y13865D01*
Y4118D01*
X16716Y4088D01*
X16715Y4058D01*
X16713Y4028D01*
X16711Y3999D01*
X16707Y3969D01*
X16703Y3939D01*
X16698Y3910D01*
X16692Y3880D01*
X16686Y3851D01*
X16679Y3822D01*
X16671Y3793D01*
X16662Y3765D01*
X16653Y3736D01*
X16643Y3708D01*
X16632Y3680D01*
X16621Y3652D01*
X16609Y3625D01*
X16596Y3598D01*
X16582Y3571D01*
X16568Y3545D01*
X16553Y3519D01*
X16538Y3493D01*
X16522Y3468D01*
X16505Y3443D01*
X16488Y3419D01*
X16470Y3395D01*
X16451Y3372D01*
X16432Y3349D01*
X16412Y3326D01*
X16392Y3304D01*
X16371Y3283D01*
X16349Y3262D01*
X16327Y3242D01*
X16305Y3222D01*
X16282Y3203D01*
X16258Y3184D01*
X16235Y3166D01*
X16210Y3149D01*
X16185Y3132D01*
X16160Y3116D01*
X16135Y3100D01*
X16109Y3085D01*
X16082Y3071D01*
X16056Y3058D01*
X16029Y3045D01*
X16001Y3033D01*
X15974Y3021D01*
X15946Y3010D01*
X15917Y3000D01*
X15889Y2991D01*
X15860Y2982D01*
X15832Y2975D01*
X15802Y2967D01*
X15773Y2961D01*
X15744Y2955D01*
X15714Y2951D01*
X15685Y2946D01*
X15655Y2943D01*
X15625Y2940D01*
X15595Y2938D01*
X15565Y2937D01*
X15535Y2937D01*
X5788D01*
X5759Y2937D01*
X5729Y2938D01*
X5699Y2940D01*
X5669Y2943D01*
X5666Y2943D01*
X5639Y2946D01*
X5626Y2948D01*
X5610Y2951D01*
X5580Y2955D01*
X5551Y2961D01*
X5521Y2967D01*
X5492Y2975D01*
X5464Y2982D01*
X5435Y2991D01*
X5406Y3000D01*
X5378Y3010D01*
X5350Y3021D01*
X5339Y3026D01*
X5323Y3033D01*
X5295Y3045D01*
X5268Y3058D01*
X5242Y3071D01*
X5215Y3085D01*
X5189Y3100D01*
X5164Y3116D01*
X5138Y3132D01*
X5114Y3149D01*
X5089Y3166D01*
X5065Y3184D01*
X5055Y3192D01*
X5042Y3203D01*
X5019Y3222D01*
X4997Y3242D01*
X4995Y3243D01*
X4975Y3262D01*
X4964Y3272D01*
X4953Y3283D01*
X3283Y4953D01*
X3262Y4975D01*
X3242Y4997D01*
X3222Y5019D01*
X3219Y5023D01*
X3203Y5042D01*
X3194Y5052D01*
X3184Y5065D01*
X3174Y5079D01*
X3166Y5089D01*
X3154Y5107D01*
X3149Y5114D01*
X3143Y5122D01*
X3132Y5138D01*
X3126Y5148D01*
X3116Y5164D01*
X3100Y5189D01*
X3094Y5200D01*
X3085Y5215D01*
X3080Y5224D01*
X3071Y5242D01*
X3062Y5259D01*
X3058Y5268D01*
X3052Y5281D01*
X3045Y5295D01*
X3033Y5323D01*
X3021Y5350D01*
X3010Y5378D01*
X3007Y5388D01*
X3000Y5406D01*
X2994Y5426D01*
X2991Y5435D01*
X2989Y5443D01*
X2982Y5464D01*
X2977Y5484D01*
X2975Y5492D01*
X2967Y5521D01*
X2966Y5528D01*
X2961Y5551D01*
X2955Y5580D01*
X2951Y5610D01*
X2946Y5639D01*
X2943Y5669D01*
X2940Y5699D01*
X2938Y5729D01*
X2937Y5759D01*
X2937Y5788D01*
Y15535D01*
X2937Y15565D01*
X2938Y15595D01*
X2940Y15625D01*
X2943Y15655D01*
X2946Y15685D01*
X2951Y15714D01*
X2955Y15744D01*
X2961Y15773D01*
X2967Y15802D01*
X2975Y15832D01*
X2982Y15860D01*
X2991Y15889D01*
X3000Y15917D01*
X3010Y15946D01*
X3021Y15974D01*
X3033Y16001D01*
X3045Y16029D01*
X3058Y16056D01*
X3071Y16082D01*
X3085Y16109D01*
X3100Y16135D01*
X3116Y16160D01*
X3132Y16185D01*
X3149Y16210D01*
X3166Y16235D01*
X3184Y16258D01*
X3203Y16282D01*
X3222Y16305D01*
X3242Y16327D01*
X3262Y16349D01*
X3283Y16371D01*
X3304Y16392D01*
X3326Y16412D01*
X3349Y16432D01*
X3372Y16451D01*
X3395Y16470D01*
X3419Y16488D01*
X3443Y16505D01*
X3468Y16522D01*
X3493Y16538D01*
X3519Y16553D01*
X3545Y16568D01*
X3571Y16582D01*
X3598Y16596D01*
X3625Y16609D01*
X3652Y16621D01*
X3680Y16632D01*
X3708Y16643D01*
X3736Y16653D01*
X3765Y16662D01*
X3793Y16671D01*
X3822Y16679D01*
X3851Y16686D01*
X3880Y16692D01*
X3910Y16698D01*
X3939Y16703D01*
X3969Y16707D01*
X3999Y16711D01*
X4028Y16713D01*
X4058Y16715D01*
X4088Y16716D01*
X4118Y16717D01*
X13865D01*
X13895Y16716D01*
D02*
G37*
G36*
X33580D02*
X33610Y16715D01*
X33640Y16713D01*
X33642Y16713D01*
X33670Y16711D01*
X33699Y16707D01*
X33729Y16703D01*
X33759Y16698D01*
X33788Y16692D01*
X33811Y16687D01*
X33817Y16686D01*
X33846Y16679D01*
X33854Y16677D01*
X33875Y16671D01*
X33895Y16665D01*
X33904Y16662D01*
X33913Y16659D01*
X33932Y16653D01*
X33950Y16647D01*
X33960Y16643D01*
X33988Y16632D01*
X34016Y16621D01*
X34043Y16609D01*
X34058Y16602D01*
X34070Y16596D01*
X34079Y16591D01*
X34097Y16582D01*
X34114Y16573D01*
X34123Y16568D01*
X34138Y16560D01*
X34149Y16553D01*
X34175Y16538D01*
X34190Y16528D01*
X34200Y16522D01*
X34225Y16505D01*
X34249Y16488D01*
X34260Y16480D01*
X34273Y16470D01*
X34286Y16459D01*
X34297Y16451D01*
X34320Y16432D01*
X34342Y16412D01*
X34364Y16392D01*
X34385Y16371D01*
X36056Y14700D01*
X36077Y14679D01*
X36097Y14657D01*
X36117Y14634D01*
X36136Y14612D01*
X36155Y14588D01*
X36173Y14564D01*
X36190Y14540D01*
X36207Y14515D01*
X36217Y14500D01*
X36223Y14490D01*
X36238Y14464D01*
X36253Y14438D01*
X36262Y14421D01*
X36267Y14412D01*
X36274Y14398D01*
X36281Y14385D01*
X36288Y14371D01*
X36294Y14358D01*
X36299Y14346D01*
X36306Y14331D01*
X36313Y14315D01*
X36317Y14303D01*
X36328Y14275D01*
X36338Y14247D01*
X36341Y14238D01*
X36347Y14219D01*
X36354Y14199D01*
X36356Y14190D01*
X36364Y14161D01*
X36371Y14132D01*
X36376Y14109D01*
X36377Y14103D01*
X36383Y14073D01*
X36388Y14044D01*
X36389Y14040D01*
X36392Y14014D01*
X36395Y13988D01*
X36396Y13985D01*
X36398Y13955D01*
X36400Y13925D01*
X36401Y13895D01*
X36402Y13865D01*
Y4118D01*
X36401Y4088D01*
X36400Y4058D01*
X36398Y4028D01*
X36396Y3999D01*
X36392Y3969D01*
X36388Y3939D01*
X36383Y3910D01*
X36377Y3880D01*
X36371Y3851D01*
X36364Y3822D01*
X36356Y3793D01*
X36347Y3765D01*
X36338Y3736D01*
X36328Y3708D01*
X36317Y3680D01*
X36306Y3652D01*
X36294Y3625D01*
X36281Y3598D01*
X36267Y3571D01*
X36253Y3545D01*
X36238Y3519D01*
X36223Y3493D01*
X36207Y3468D01*
X36190Y3443D01*
X36173Y3419D01*
X36155Y3395D01*
X36136Y3372D01*
X36117Y3349D01*
X36097Y3326D01*
X36077Y3304D01*
X36056Y3283D01*
X36034Y3262D01*
X36012Y3242D01*
X35990Y3222D01*
X35967Y3203D01*
X35943Y3184D01*
X35920Y3166D01*
X35895Y3149D01*
X35870Y3132D01*
X35845Y3116D01*
X35820Y3100D01*
X35794Y3085D01*
X35767Y3071D01*
X35741Y3058D01*
X35714Y3045D01*
X35686Y3033D01*
X35659Y3021D01*
X35631Y3010D01*
X35603Y3000D01*
X35574Y2991D01*
X35545Y2982D01*
X35517Y2975D01*
X35487Y2967D01*
X35458Y2961D01*
X35429Y2955D01*
X35399Y2951D01*
X35370Y2946D01*
X35340Y2943D01*
X35310Y2940D01*
X35280Y2938D01*
X35250Y2937D01*
X35220Y2937D01*
X25473D01*
X25444Y2937D01*
X25414Y2938D01*
X25384Y2940D01*
X25354Y2943D01*
X25351Y2943D01*
X25324Y2946D01*
X25311Y2948D01*
X25295Y2951D01*
X25265Y2955D01*
X25236Y2961D01*
X25206Y2967D01*
X25177Y2975D01*
X25149Y2982D01*
X25120Y2991D01*
X25091Y3000D01*
X25063Y3010D01*
X25035Y3021D01*
X25024Y3026D01*
X25008Y3033D01*
X24980Y3045D01*
X24953Y3058D01*
X24927Y3071D01*
X24900Y3085D01*
X24874Y3100D01*
X24849Y3116D01*
X24823Y3132D01*
X24799Y3149D01*
X24774Y3166D01*
X24750Y3184D01*
X24740Y3192D01*
X24727Y3203D01*
X24704Y3222D01*
X24682Y3242D01*
X24680Y3243D01*
X24660Y3262D01*
X24649Y3272D01*
X24638Y3283D01*
X22968Y4953D01*
X22947Y4975D01*
X22927Y4997D01*
X22907Y5019D01*
X22904Y5023D01*
X22888Y5042D01*
X22879Y5052D01*
X22869Y5065D01*
X22859Y5079D01*
X22851Y5089D01*
X22839Y5107D01*
X22834Y5114D01*
X22828Y5122D01*
X22817Y5138D01*
X22811Y5148D01*
X22801Y5164D01*
X22785Y5189D01*
X22779Y5200D01*
X22770Y5215D01*
X22765Y5224D01*
X22756Y5242D01*
X22747Y5259D01*
X22743Y5268D01*
X22737Y5281D01*
X22730Y5295D01*
X22718Y5323D01*
X22706Y5350D01*
X22695Y5378D01*
X22692Y5388D01*
X22685Y5406D01*
X22679Y5426D01*
X22676Y5435D01*
X22674Y5443D01*
X22668Y5464D01*
X22662Y5484D01*
X22660Y5492D01*
X22653Y5521D01*
X22651Y5528D01*
X22646Y5551D01*
X22640Y5580D01*
X22636Y5610D01*
X22631Y5639D01*
X22628Y5669D01*
X22625Y5699D01*
X22623Y5729D01*
X22622Y5759D01*
X22622Y5788D01*
Y15535D01*
X22622Y15565D01*
X22623Y15595D01*
X22625Y15625D01*
X22628Y15655D01*
X22631Y15685D01*
X22636Y15714D01*
X22640Y15744D01*
X22646Y15773D01*
X22653Y15802D01*
X22660Y15832D01*
X22668Y15860D01*
X22676Y15889D01*
X22685Y15917D01*
X22695Y15946D01*
X22706Y15974D01*
X22718Y16001D01*
X22730Y16029D01*
X22743Y16056D01*
X22756Y16082D01*
X22770Y16109D01*
X22785Y16135D01*
X22801Y16160D01*
X22817Y16185D01*
X22834Y16210D01*
X22851Y16235D01*
X22869Y16258D01*
X22888Y16282D01*
X22907Y16305D01*
X22927Y16327D01*
X22947Y16349D01*
X22968Y16371D01*
X22989Y16392D01*
X23011Y16412D01*
X23034Y16432D01*
X23057Y16451D01*
X23080Y16470D01*
X23104Y16488D01*
X23128Y16505D01*
X23153Y16522D01*
X23178Y16538D01*
X23204Y16553D01*
X23230Y16568D01*
X23256Y16582D01*
X23283Y16596D01*
X23310Y16609D01*
X23337Y16621D01*
X23365Y16632D01*
X23393Y16643D01*
X23421Y16653D01*
X23450Y16662D01*
X23478Y16671D01*
X23507Y16679D01*
X23536Y16686D01*
X23565Y16692D01*
X23595Y16698D01*
X23624Y16703D01*
X23654Y16707D01*
X23684Y16711D01*
X23713Y16713D01*
X23743Y16715D01*
X23773Y16716D01*
X23803Y16717D01*
X33550D01*
X33580Y16716D01*
D02*
G37*
G36*
X13895Y56086D02*
X13925Y56085D01*
X13955Y56083D01*
X13985Y56081D01*
X13988Y56080D01*
X14014Y56077D01*
X14028Y56075D01*
X14044Y56073D01*
X14073Y56068D01*
X14103Y56063D01*
X14132Y56056D01*
X14161Y56049D01*
X14190Y56041D01*
X14219Y56033D01*
X14247Y56023D01*
X14275Y56013D01*
X14303Y56002D01*
X14315Y55998D01*
X14331Y55991D01*
X14358Y55979D01*
X14385Y55966D01*
X14412Y55952D01*
X14438Y55938D01*
X14464Y55923D01*
X14490Y55908D01*
X14515Y55892D01*
X14540Y55875D01*
X14564Y55858D01*
X14588Y55840D01*
X14598Y55831D01*
X14612Y55821D01*
X14634Y55802D01*
X14657Y55782D01*
X14659Y55780D01*
X14679Y55762D01*
X14689Y55751D01*
X14700Y55741D01*
X16371Y54070D01*
X16392Y54049D01*
X16412Y54027D01*
X16432Y54005D01*
X16435Y54001D01*
X16451Y53982D01*
X16459Y53971D01*
X16469Y53958D01*
X16480Y53945D01*
X16488Y53934D01*
X16500Y53917D01*
X16505Y53910D01*
X16510Y53902D01*
X16522Y53885D01*
X16528Y53875D01*
X16538Y53860D01*
X16553Y53834D01*
X16560Y53823D01*
X16568Y53808D01*
X16573Y53799D01*
X16582Y53782D01*
X16591Y53764D01*
X16596Y53755D01*
X16602Y53743D01*
X16609Y53728D01*
X16621Y53701D01*
X16632Y53673D01*
X16643Y53645D01*
X16647Y53635D01*
X16653Y53617D01*
X16659Y53598D01*
X16662Y53589D01*
X16665Y53580D01*
X16671Y53560D01*
X16677Y53539D01*
X16679Y53531D01*
X16686Y53502D01*
X16687Y53496D01*
X16692Y53473D01*
X16698Y53444D01*
X16703Y53414D01*
X16707Y53384D01*
X16711Y53355D01*
X16713Y53325D01*
X16715Y53295D01*
X16716Y53265D01*
X16717Y53235D01*
Y43488D01*
X16716Y43458D01*
X16715Y43428D01*
X16713Y43398D01*
X16711Y43369D01*
X16707Y43339D01*
X16703Y43309D01*
X16698Y43280D01*
X16692Y43250D01*
X16686Y43221D01*
X16679Y43192D01*
X16671Y43163D01*
X16662Y43135D01*
X16653Y43106D01*
X16643Y43078D01*
X16632Y43050D01*
X16621Y43022D01*
X16609Y42995D01*
X16596Y42968D01*
X16582Y42941D01*
X16568Y42915D01*
X16553Y42889D01*
X16538Y42863D01*
X16522Y42838D01*
X16505Y42813D01*
X16488Y42789D01*
X16469Y42765D01*
X16451Y42742D01*
X16432Y42719D01*
X16412Y42696D01*
X16392Y42674D01*
X16371Y42653D01*
X16349Y42632D01*
X16327Y42612D01*
X16305Y42592D01*
X16282Y42573D01*
X16258Y42554D01*
X16235Y42536D01*
X16210Y42519D01*
X16185Y42502D01*
X16160Y42486D01*
X16135Y42470D01*
X16109Y42455D01*
X16082Y42441D01*
X16056Y42428D01*
X16029Y42415D01*
X16001Y42403D01*
X15974Y42391D01*
X15946Y42381D01*
X15917Y42370D01*
X15889Y42361D01*
X15860Y42353D01*
X15832Y42345D01*
X15802Y42338D01*
X15773Y42331D01*
X15744Y42326D01*
X15714Y42321D01*
X15685Y42316D01*
X15655Y42313D01*
X15625Y42310D01*
X15595Y42309D01*
X15565Y42307D01*
X15535Y42307D01*
X5788D01*
X5759Y42307D01*
X5729Y42309D01*
X5699Y42310D01*
X5696Y42311D01*
X5669Y42313D01*
X5639Y42316D01*
X5610Y42321D01*
X5580Y42326D01*
X5551Y42331D01*
X5528Y42336D01*
X5521Y42338D01*
X5492Y42345D01*
X5484Y42347D01*
X5464Y42353D01*
X5443Y42359D01*
X5435Y42361D01*
X5426Y42364D01*
X5406Y42370D01*
X5388Y42377D01*
X5378Y42381D01*
X5350Y42391D01*
X5323Y42403D01*
X5295Y42415D01*
X5281Y42422D01*
X5268Y42428D01*
X5259Y42432D01*
X5242Y42441D01*
X5224Y42450D01*
X5215Y42455D01*
X5200Y42464D01*
X5189Y42470D01*
X5164Y42486D01*
X5148Y42496D01*
X5138Y42502D01*
X5114Y42519D01*
X5089Y42536D01*
X5079Y42544D01*
X5065Y42554D01*
X5052Y42565D01*
X5042Y42573D01*
X5019Y42592D01*
X4997Y42612D01*
X4975Y42632D01*
X4953Y42653D01*
X3283Y44323D01*
X3262Y44345D01*
X3242Y44367D01*
X3222Y44389D01*
X3203Y44412D01*
X3184Y44436D01*
X3166Y44459D01*
X3149Y44484D01*
X3132Y44509D01*
X3122Y44524D01*
X3116Y44534D01*
X3100Y44559D01*
X3085Y44585D01*
X3076Y44602D01*
X3071Y44612D01*
X3064Y44625D01*
X3058Y44638D01*
X3051Y44653D01*
X3045Y44665D01*
X3039Y44678D01*
X3033Y44693D01*
X3026Y44709D01*
X3021Y44720D01*
X3010Y44748D01*
X3000Y44776D01*
X2997Y44786D01*
X2991Y44805D01*
X2985Y44825D01*
X2982Y44834D01*
X2975Y44862D01*
X2967Y44892D01*
X2962Y44914D01*
X2961Y44921D01*
X2955Y44950D01*
X2951Y44980D01*
X2950Y44984D01*
X2946Y45009D01*
X2943Y45036D01*
X2943Y45039D01*
X2940Y45069D01*
X2938Y45099D01*
X2937Y45129D01*
X2937Y45159D01*
Y54906D01*
X2937Y54935D01*
X2938Y54965D01*
X2940Y54995D01*
X2943Y55025D01*
X2946Y55055D01*
X2951Y55084D01*
X2955Y55114D01*
X2961Y55143D01*
X2967Y55173D01*
X2975Y55202D01*
X2982Y55230D01*
X2991Y55259D01*
X3000Y55288D01*
X3010Y55316D01*
X3021Y55344D01*
X3033Y55371D01*
X3045Y55399D01*
X3058Y55426D01*
X3071Y55452D01*
X3085Y55479D01*
X3100Y55505D01*
X3116Y55530D01*
X3132Y55556D01*
X3149Y55580D01*
X3166Y55605D01*
X3184Y55629D01*
X3203Y55652D01*
X3222Y55675D01*
X3242Y55697D01*
X3262Y55719D01*
X3283Y55741D01*
X3304Y55762D01*
X3326Y55782D01*
X3349Y55802D01*
X3372Y55821D01*
X3395Y55840D01*
X3419Y55858D01*
X3443Y55875D01*
X3468Y55892D01*
X3493Y55908D01*
X3519Y55923D01*
X3545Y55938D01*
X3571Y55952D01*
X3598Y55966D01*
X3625Y55979D01*
X3652Y55991D01*
X3680Y56002D01*
X3708Y56013D01*
X3736Y56023D01*
X3765Y56033D01*
X3793Y56041D01*
X3822Y56049D01*
X3851Y56056D01*
X3880Y56063D01*
X3910Y56068D01*
X3939Y56073D01*
X3969Y56077D01*
X3999Y56081D01*
X4028Y56083D01*
X4058Y56085D01*
X4088Y56086D01*
X4118Y56087D01*
X13865D01*
X13895Y56086D01*
D02*
G37*
G36*
X13895Y75771D02*
X13925Y75770D01*
X13955Y75768D01*
X13957Y75768D01*
X13985Y75766D01*
X14014Y75762D01*
X14044Y75758D01*
X14073Y75753D01*
X14103Y75748D01*
X14126Y75743D01*
X14132Y75741D01*
X14161Y75734D01*
X14169Y75732D01*
X14190Y75726D01*
X14210Y75720D01*
X14219Y75718D01*
X14228Y75715D01*
X14247Y75708D01*
X14265Y75702D01*
X14275Y75698D01*
X14303Y75687D01*
X14331Y75676D01*
X14358Y75664D01*
X14372Y75657D01*
X14385Y75651D01*
X14394Y75646D01*
X14412Y75638D01*
X14429Y75628D01*
X14438Y75623D01*
X14453Y75615D01*
X14464Y75608D01*
X14490Y75593D01*
X14505Y75583D01*
X14515Y75577D01*
X14540Y75560D01*
X14564Y75543D01*
X14575Y75535D01*
X14588Y75525D01*
X14601Y75514D01*
X14612Y75506D01*
X14634Y75487D01*
X14657Y75467D01*
X14679Y75447D01*
X14700Y75426D01*
X16371Y73755D01*
X16392Y73734D01*
X16412Y73712D01*
X16432Y73690D01*
X16451Y73667D01*
X16470Y73643D01*
X16488Y73619D01*
X16505Y73595D01*
X16522Y73570D01*
X16532Y73555D01*
X16538Y73545D01*
X16553Y73519D01*
X16568Y73493D01*
X16577Y73476D01*
X16582Y73467D01*
X16589Y73454D01*
X16596Y73440D01*
X16603Y73426D01*
X16609Y73413D01*
X16614Y73401D01*
X16621Y73386D01*
X16628Y73370D01*
X16632Y73358D01*
X16643Y73330D01*
X16653Y73302D01*
X16656Y73293D01*
X16662Y73274D01*
X16668Y73254D01*
X16671Y73245D01*
X16679Y73216D01*
X16686Y73187D01*
X16691Y73164D01*
X16692Y73158D01*
X16698Y73129D01*
X16703Y73099D01*
X16704Y73095D01*
X16707Y73069D01*
X16710Y73043D01*
X16711Y73040D01*
X16713Y73010D01*
X16715Y72980D01*
X16716Y72950D01*
X16717Y72920D01*
Y63173D01*
X16716Y63143D01*
X16715Y63113D01*
X16713Y63084D01*
X16711Y63054D01*
X16707Y63024D01*
X16703Y62994D01*
X16698Y62965D01*
X16692Y62935D01*
X16686Y62906D01*
X16679Y62877D01*
X16671Y62848D01*
X16662Y62820D01*
X16653Y62791D01*
X16643Y62763D01*
X16632Y62735D01*
X16621Y62707D01*
X16609Y62680D01*
X16596Y62653D01*
X16582Y62626D01*
X16568Y62600D01*
X16553Y62574D01*
X16538Y62548D01*
X16522Y62523D01*
X16505Y62498D01*
X16488Y62474D01*
X16469Y62450D01*
X16451Y62427D01*
X16432Y62404D01*
X16412Y62381D01*
X16392Y62359D01*
X16371Y62338D01*
X16349Y62317D01*
X16327Y62297D01*
X16305Y62277D01*
X16282Y62258D01*
X16258Y62239D01*
X16235Y62221D01*
X16210Y62204D01*
X16185Y62187D01*
X16160Y62171D01*
X16135Y62155D01*
X16109Y62140D01*
X16082Y62126D01*
X16056Y62113D01*
X16029Y62100D01*
X16001Y62088D01*
X15974Y62076D01*
X15946Y62066D01*
X15917Y62056D01*
X15889Y62046D01*
X15860Y62038D01*
X15832Y62030D01*
X15802Y62023D01*
X15773Y62016D01*
X15744Y62011D01*
X15714Y62006D01*
X15685Y62002D01*
X15655Y61998D01*
X15625Y61995D01*
X15595Y61994D01*
X15565Y61992D01*
X15535Y61992D01*
X5788D01*
X5759Y61992D01*
X5729Y61994D01*
X5699Y61995D01*
X5669Y61998D01*
X5666Y61998D01*
X5639Y62002D01*
X5626Y62003D01*
X5610Y62006D01*
X5580Y62011D01*
X5551Y62016D01*
X5521Y62023D01*
X5492Y62030D01*
X5464Y62038D01*
X5435Y62046D01*
X5406Y62056D01*
X5378Y62066D01*
X5350Y62076D01*
X5339Y62081D01*
X5323Y62088D01*
X5295Y62100D01*
X5268Y62113D01*
X5242Y62126D01*
X5215Y62140D01*
X5189Y62155D01*
X5164Y62171D01*
X5138Y62187D01*
X5114Y62204D01*
X5089Y62221D01*
X5065Y62239D01*
X5055Y62247D01*
X5042Y62258D01*
X5019Y62277D01*
X4997Y62297D01*
X4995Y62298D01*
X4975Y62317D01*
X4964Y62327D01*
X4953Y62338D01*
X3283Y64008D01*
X3262Y64030D01*
X3242Y64052D01*
X3222Y64074D01*
X3219Y64078D01*
X3203Y64097D01*
X3194Y64107D01*
X3184Y64121D01*
X3174Y64134D01*
X3166Y64144D01*
X3154Y64162D01*
X3149Y64169D01*
X3143Y64177D01*
X3132Y64194D01*
X3126Y64203D01*
X3116Y64219D01*
X3100Y64244D01*
X3094Y64255D01*
X3085Y64270D01*
X3080Y64280D01*
X3071Y64297D01*
X3062Y64314D01*
X3058Y64323D01*
X3052Y64336D01*
X3045Y64350D01*
X3033Y64378D01*
X3021Y64405D01*
X3010Y64433D01*
X3007Y64443D01*
X3000Y64462D01*
X2994Y64481D01*
X2991Y64490D01*
X2989Y64499D01*
X2982Y64519D01*
X2977Y64540D01*
X2975Y64547D01*
X2967Y64577D01*
X2966Y64583D01*
X2961Y64606D01*
X2955Y64635D01*
X2951Y64665D01*
X2946Y64694D01*
X2943Y64724D01*
X2940Y64754D01*
X2938Y64784D01*
X2937Y64814D01*
X2937Y64844D01*
Y74591D01*
X2937Y74620D01*
X2938Y74650D01*
X2940Y74680D01*
X2943Y74710D01*
X2946Y74740D01*
X2951Y74769D01*
X2955Y74799D01*
X2961Y74828D01*
X2967Y74858D01*
X2975Y74887D01*
X2982Y74915D01*
X2991Y74944D01*
X3000Y74973D01*
X3010Y75001D01*
X3021Y75029D01*
X3033Y75056D01*
X3045Y75084D01*
X3058Y75111D01*
X3071Y75137D01*
X3085Y75164D01*
X3100Y75190D01*
X3116Y75215D01*
X3132Y75241D01*
X3149Y75265D01*
X3166Y75290D01*
X3184Y75314D01*
X3203Y75337D01*
X3222Y75360D01*
X3242Y75382D01*
X3262Y75404D01*
X3283Y75426D01*
X3304Y75447D01*
X3326Y75467D01*
X3349Y75487D01*
X3372Y75506D01*
X3395Y75525D01*
X3419Y75543D01*
X3443Y75560D01*
X3468Y75577D01*
X3493Y75593D01*
X3519Y75608D01*
X3545Y75623D01*
X3571Y75638D01*
X3598Y75651D01*
X3625Y75664D01*
X3652Y75676D01*
X3680Y75687D01*
X3708Y75698D01*
X3736Y75708D01*
X3765Y75718D01*
X3793Y75726D01*
X3822Y75734D01*
X3851Y75741D01*
X3880Y75748D01*
X3910Y75753D01*
X3939Y75758D01*
X3969Y75762D01*
X3999Y75766D01*
X4028Y75768D01*
X4058Y75770D01*
X4088Y75771D01*
X4118Y75772D01*
X13865D01*
X13895Y75771D01*
D02*
G37*
G36*
X33580Y75771D02*
X33610Y75770D01*
X33640Y75768D01*
X33642Y75768D01*
X33670Y75766D01*
X33699Y75762D01*
X33729Y75758D01*
X33759Y75753D01*
X33788Y75748D01*
X33811Y75743D01*
X33817Y75741D01*
X33846Y75734D01*
X33854Y75732D01*
X33875Y75726D01*
X33895Y75720D01*
X33904Y75718D01*
X33913Y75715D01*
X33932Y75708D01*
X33950Y75702D01*
X33960Y75698D01*
X33988Y75687D01*
X34016Y75676D01*
X34043Y75664D01*
X34058Y75657D01*
X34070Y75651D01*
X34079Y75646D01*
X34097Y75638D01*
X34114Y75628D01*
X34123Y75623D01*
X34138Y75615D01*
X34149Y75608D01*
X34175Y75593D01*
X34190Y75583D01*
X34200Y75577D01*
X34225Y75560D01*
X34249Y75543D01*
X34260Y75535D01*
X34273Y75525D01*
X34286Y75514D01*
X34297Y75506D01*
X34320Y75487D01*
X34342Y75467D01*
X34364Y75447D01*
X34385Y75426D01*
X36056Y73755D01*
X36077Y73734D01*
X36097Y73712D01*
X36117Y73690D01*
X36136Y73667D01*
X36155Y73643D01*
X36173Y73619D01*
X36190Y73595D01*
X36207Y73570D01*
X36217Y73555D01*
X36223Y73545D01*
X36238Y73519D01*
X36253Y73493D01*
X36262Y73476D01*
X36267Y73467D01*
X36274Y73454D01*
X36281Y73440D01*
X36288Y73426D01*
X36294Y73413D01*
X36299Y73401D01*
X36306Y73386D01*
X36313Y73370D01*
X36317Y73358D01*
X36328Y73330D01*
X36338Y73302D01*
X36341Y73293D01*
X36347Y73274D01*
X36354Y73254D01*
X36356Y73245D01*
X36364Y73216D01*
X36371Y73187D01*
X36376Y73164D01*
X36377Y73158D01*
X36383Y73129D01*
X36388Y73099D01*
X36389Y73095D01*
X36392Y73069D01*
X36395Y73043D01*
X36396Y73040D01*
X36398Y73010D01*
X36400Y72980D01*
X36401Y72950D01*
X36402Y72920D01*
Y63173D01*
X36401Y63143D01*
X36400Y63113D01*
X36398Y63084D01*
X36396Y63054D01*
X36392Y63024D01*
X36388Y62994D01*
X36383Y62965D01*
X36377Y62935D01*
X36371Y62906D01*
X36364Y62877D01*
X36356Y62848D01*
X36347Y62820D01*
X36338Y62791D01*
X36328Y62763D01*
X36317Y62735D01*
X36306Y62707D01*
X36294Y62680D01*
X36281Y62653D01*
X36267Y62626D01*
X36253Y62600D01*
X36238Y62574D01*
X36223Y62548D01*
X36207Y62523D01*
X36190Y62498D01*
X36173Y62474D01*
X36155Y62450D01*
X36136Y62427D01*
X36117Y62404D01*
X36097Y62381D01*
X36077Y62359D01*
X36056Y62338D01*
X36034Y62317D01*
X36012Y62297D01*
X35990Y62277D01*
X35967Y62258D01*
X35943Y62239D01*
X35920Y62221D01*
X35895Y62204D01*
X35870Y62187D01*
X35845Y62171D01*
X35820Y62155D01*
X35794Y62140D01*
X35767Y62126D01*
X35741Y62113D01*
X35714Y62100D01*
X35686Y62088D01*
X35659Y62076D01*
X35631Y62066D01*
X35603Y62056D01*
X35574Y62046D01*
X35545Y62038D01*
X35517Y62030D01*
X35487Y62023D01*
X35458Y62016D01*
X35429Y62011D01*
X35399Y62006D01*
X35370Y62002D01*
X35340Y61998D01*
X35310Y61995D01*
X35280Y61994D01*
X35250Y61992D01*
X35220Y61992D01*
X25473D01*
X25444Y61992D01*
X25414Y61994D01*
X25384Y61995D01*
X25354Y61998D01*
X25351Y61998D01*
X25324Y62002D01*
X25311Y62003D01*
X25295Y62006D01*
X25265Y62011D01*
X25236Y62016D01*
X25206Y62023D01*
X25177Y62030D01*
X25149Y62038D01*
X25120Y62046D01*
X25091Y62056D01*
X25063Y62066D01*
X25035Y62076D01*
X25024Y62081D01*
X25008Y62088D01*
X24980Y62100D01*
X24953Y62113D01*
X24927Y62126D01*
X24900Y62140D01*
X24874Y62155D01*
X24849Y62171D01*
X24823Y62187D01*
X24799Y62204D01*
X24774Y62221D01*
X24750Y62239D01*
X24740Y62247D01*
X24727Y62258D01*
X24704Y62277D01*
X24682Y62297D01*
X24680Y62298D01*
X24660Y62317D01*
X24649Y62327D01*
X24638Y62338D01*
X22968Y64008D01*
X22947Y64030D01*
X22927Y64052D01*
X22907Y64074D01*
X22904Y64078D01*
X22888Y64097D01*
X22879Y64107D01*
X22869Y64121D01*
X22859Y64134D01*
X22851Y64144D01*
X22839Y64162D01*
X22834Y64169D01*
X22828Y64177D01*
X22817Y64194D01*
X22811Y64203D01*
X22801Y64219D01*
X22785Y64244D01*
X22779Y64255D01*
X22770Y64270D01*
X22765Y64280D01*
X22756Y64297D01*
X22747Y64314D01*
X22743Y64323D01*
X22737Y64336D01*
X22730Y64350D01*
X22718Y64378D01*
X22706Y64405D01*
X22695Y64433D01*
X22692Y64443D01*
X22685Y64462D01*
X22679Y64481D01*
X22676Y64490D01*
X22674Y64499D01*
X22668Y64519D01*
X22662Y64540D01*
X22660Y64547D01*
X22653Y64577D01*
X22651Y64583D01*
X22646Y64606D01*
X22640Y64635D01*
X22636Y64665D01*
X22631Y64694D01*
X22628Y64724D01*
X22625Y64754D01*
X22623Y64784D01*
X22622Y64814D01*
X22622Y64844D01*
Y74591D01*
X22622Y74620D01*
X22623Y74650D01*
X22625Y74680D01*
X22628Y74710D01*
X22631Y74740D01*
X22636Y74769D01*
X22640Y74799D01*
X22646Y74828D01*
X22653Y74858D01*
X22660Y74887D01*
X22668Y74915D01*
X22676Y74944D01*
X22685Y74973D01*
X22695Y75001D01*
X22706Y75029D01*
X22718Y75056D01*
X22730Y75084D01*
X22743Y75111D01*
X22756Y75137D01*
X22770Y75164D01*
X22785Y75190D01*
X22801Y75215D01*
X22817Y75241D01*
X22834Y75265D01*
X22851Y75290D01*
X22869Y75314D01*
X22888Y75337D01*
X22907Y75360D01*
X22927Y75382D01*
X22947Y75404D01*
X22968Y75426D01*
X22989Y75447D01*
X23011Y75467D01*
X23034Y75487D01*
X23057Y75506D01*
X23080Y75525D01*
X23104Y75543D01*
X23128Y75560D01*
X23153Y75577D01*
X23178Y75593D01*
X23204Y75608D01*
X23230Y75623D01*
X23256Y75638D01*
X23283Y75651D01*
X23310Y75664D01*
X23337Y75676D01*
X23365Y75687D01*
X23393Y75698D01*
X23421Y75708D01*
X23450Y75718D01*
X23478Y75726D01*
X23507Y75734D01*
X23536Y75741D01*
X23565Y75748D01*
X23595Y75753D01*
X23624Y75758D01*
X23654Y75762D01*
X23684Y75766D01*
X23713Y75768D01*
X23743Y75770D01*
X23773Y75771D01*
X23803Y75772D01*
X33550D01*
X33580Y75771D01*
D02*
G37*
G36*
X53265Y16716D02*
X53295Y16715D01*
X53325Y16713D01*
X53327Y16713D01*
X53355Y16711D01*
X53384Y16707D01*
X53414Y16703D01*
X53444Y16698D01*
X53473Y16692D01*
X53496Y16687D01*
X53502Y16686D01*
X53531Y16679D01*
X53539Y16677D01*
X53560Y16671D01*
X53580Y16665D01*
X53589Y16662D01*
X53598Y16659D01*
X53617Y16653D01*
X53635Y16647D01*
X53645Y16643D01*
X53673Y16632D01*
X53701Y16621D01*
X53728Y16609D01*
X53743Y16602D01*
X53755Y16596D01*
X53764Y16591D01*
X53782Y16582D01*
X53799Y16573D01*
X53808Y16568D01*
X53823Y16560D01*
X53834Y16553D01*
X53860Y16538D01*
X53875Y16528D01*
X53885Y16522D01*
X53910Y16505D01*
X53934Y16488D01*
X53945Y16480D01*
X53958Y16470D01*
X53971Y16459D01*
X53982Y16451D01*
X54005Y16432D01*
X54027Y16412D01*
X54049Y16392D01*
X54070Y16371D01*
X55741Y14700D01*
X55762Y14679D01*
X55782Y14657D01*
X55802Y14634D01*
X55821Y14612D01*
X55840Y14588D01*
X55858Y14564D01*
X55875Y14540D01*
X55892Y14515D01*
X55902Y14500D01*
X55908Y14490D01*
X55923Y14464D01*
X55938Y14438D01*
X55948Y14421D01*
X55952Y14412D01*
X55959Y14398D01*
X55966Y14385D01*
X55973Y14371D01*
X55979Y14358D01*
X55984Y14346D01*
X55991Y14331D01*
X55998Y14315D01*
X56002Y14303D01*
X56013Y14275D01*
X56023Y14247D01*
X56026Y14238D01*
X56033Y14219D01*
X56039Y14199D01*
X56041Y14190D01*
X56049Y14161D01*
X56056Y14132D01*
X56061Y14109D01*
X56063Y14103D01*
X56068Y14073D01*
X56073Y14044D01*
X56074Y14040D01*
X56077Y14014D01*
X56080Y13988D01*
X56081Y13985D01*
X56083Y13955D01*
X56085Y13925D01*
X56086Y13895D01*
X56087Y13865D01*
Y4118D01*
X56086Y4088D01*
X56085Y4058D01*
X56083Y4028D01*
X56081Y3999D01*
X56077Y3969D01*
X56073Y3939D01*
X56068Y3910D01*
X56063Y3880D01*
X56056Y3851D01*
X56049Y3822D01*
X56041Y3793D01*
X56033Y3765D01*
X56023Y3736D01*
X56013Y3708D01*
X56002Y3680D01*
X55991Y3652D01*
X55979Y3625D01*
X55966Y3598D01*
X55952Y3571D01*
X55938Y3545D01*
X55923Y3519D01*
X55908Y3493D01*
X55892Y3468D01*
X55875Y3443D01*
X55858Y3419D01*
X55840Y3395D01*
X55821Y3372D01*
X55802Y3349D01*
X55782Y3326D01*
X55762Y3304D01*
X55741Y3283D01*
X55719Y3262D01*
X55697Y3242D01*
X55675Y3222D01*
X55652Y3203D01*
X55629Y3184D01*
X55605Y3166D01*
X55580Y3149D01*
X55556Y3132D01*
X55530Y3116D01*
X55505Y3100D01*
X55479Y3085D01*
X55452Y3071D01*
X55426Y3058D01*
X55399Y3045D01*
X55371Y3033D01*
X55344Y3021D01*
X55316Y3010D01*
X55288Y3000D01*
X55259Y2991D01*
X55230Y2982D01*
X55202Y2975D01*
X55173Y2967D01*
X55143Y2961D01*
X55114Y2955D01*
X55084Y2951D01*
X55055Y2946D01*
X55025Y2943D01*
X54995Y2940D01*
X54965Y2938D01*
X54935Y2937D01*
X54906Y2937D01*
X45159D01*
X45129Y2937D01*
X45099Y2938D01*
X45069Y2940D01*
X45039Y2943D01*
X45036Y2943D01*
X45009Y2946D01*
X44996Y2948D01*
X44980Y2951D01*
X44950Y2955D01*
X44921Y2961D01*
X44892Y2967D01*
X44862Y2975D01*
X44834Y2982D01*
X44805Y2991D01*
X44776Y3000D01*
X44748Y3010D01*
X44720Y3021D01*
X44709Y3026D01*
X44693Y3033D01*
X44665Y3045D01*
X44638Y3058D01*
X44612Y3071D01*
X44585Y3085D01*
X44559Y3100D01*
X44534Y3116D01*
X44509Y3132D01*
X44484Y3149D01*
X44459Y3166D01*
X44436Y3184D01*
X44425Y3192D01*
X44412Y3203D01*
X44389Y3222D01*
X44367Y3242D01*
X44365Y3243D01*
X44345Y3262D01*
X44334Y3272D01*
X44323Y3283D01*
X42653Y4953D01*
X42632Y4975D01*
X42612Y4997D01*
X42592Y5019D01*
X42589Y5023D01*
X42573Y5042D01*
X42565Y5052D01*
X42554Y5065D01*
X42544Y5079D01*
X42536Y5089D01*
X42524Y5107D01*
X42519Y5114D01*
X42513Y5122D01*
X42502Y5138D01*
X42496Y5148D01*
X42486Y5164D01*
X42470Y5189D01*
X42464Y5200D01*
X42455Y5215D01*
X42450Y5224D01*
X42441Y5242D01*
X42432Y5259D01*
X42428Y5268D01*
X42422Y5281D01*
X42415Y5295D01*
X42403Y5323D01*
X42391Y5350D01*
X42381Y5378D01*
X42377Y5388D01*
X42370Y5406D01*
X42364Y5426D01*
X42361Y5435D01*
X42359Y5443D01*
X42353Y5464D01*
X42347Y5484D01*
X42345Y5492D01*
X42338Y5521D01*
X42336Y5528D01*
X42331Y5551D01*
X42326Y5580D01*
X42321Y5610D01*
X42316Y5639D01*
X42313Y5669D01*
X42310Y5699D01*
X42309Y5729D01*
X42307Y5759D01*
X42307Y5788D01*
Y15535D01*
X42307Y15565D01*
X42309Y15595D01*
X42310Y15625D01*
X42313Y15655D01*
X42316Y15685D01*
X42321Y15714D01*
X42326Y15744D01*
X42331Y15773D01*
X42338Y15802D01*
X42345Y15832D01*
X42353Y15860D01*
X42361Y15889D01*
X42370Y15917D01*
X42381Y15946D01*
X42391Y15974D01*
X42403Y16001D01*
X42415Y16029D01*
X42428Y16056D01*
X42441Y16082D01*
X42455Y16109D01*
X42470Y16135D01*
X42486Y16160D01*
X42502Y16185D01*
X42519Y16210D01*
X42536Y16235D01*
X42554Y16258D01*
X42573Y16282D01*
X42592Y16305D01*
X42612Y16327D01*
X42632Y16349D01*
X42653Y16371D01*
X42674Y16392D01*
X42696Y16412D01*
X42719Y16432D01*
X42742Y16451D01*
X42765Y16470D01*
X42789Y16488D01*
X42813Y16505D01*
X42838Y16522D01*
X42863Y16538D01*
X42889Y16553D01*
X42915Y16568D01*
X42941Y16582D01*
X42968Y16596D01*
X42995Y16609D01*
X43022Y16621D01*
X43050Y16632D01*
X43078Y16643D01*
X43106Y16653D01*
X43135Y16662D01*
X43163Y16671D01*
X43192Y16679D01*
X43221Y16686D01*
X43250Y16692D01*
X43280Y16698D01*
X43309Y16703D01*
X43339Y16707D01*
X43369Y16711D01*
X43398Y16713D01*
X43428Y16715D01*
X43458Y16716D01*
X43488Y16717D01*
X53235D01*
X53265Y16716D01*
D02*
G37*
G36*
X72950Y16716D02*
X72980Y16715D01*
X73010Y16713D01*
X73012Y16713D01*
X73040Y16711D01*
X73069Y16707D01*
X73099Y16703D01*
X73129Y16698D01*
X73158Y16693D01*
X73181Y16688D01*
X73187Y16686D01*
X73216Y16679D01*
X73224Y16677D01*
X73245Y16671D01*
X73265Y16665D01*
X73274Y16663D01*
X73283Y16660D01*
X73302Y16653D01*
X73320Y16647D01*
X73330Y16643D01*
X73358Y16632D01*
X73386Y16621D01*
X73413Y16609D01*
X73428Y16602D01*
X73440Y16596D01*
X73449Y16592D01*
X73467Y16583D01*
X73484Y16573D01*
X73493Y16568D01*
X73508Y16560D01*
X73519Y16553D01*
X73545Y16538D01*
X73560Y16528D01*
X73570Y16522D01*
X73595Y16505D01*
X73619Y16488D01*
X73630Y16480D01*
X73643Y16470D01*
X73656Y16459D01*
X73667Y16451D01*
X73690Y16432D01*
X73712Y16412D01*
X73734Y16392D01*
X73755Y16371D01*
X75426Y14700D01*
X75447Y14679D01*
X75467Y14657D01*
X75487Y14635D01*
X75506Y14612D01*
X75525Y14588D01*
X75543Y14564D01*
X75560Y14540D01*
X75577Y14515D01*
X75587Y14500D01*
X75593Y14490D01*
X75608Y14464D01*
X75623Y14438D01*
X75633Y14421D01*
X75638Y14412D01*
X75644Y14399D01*
X75651Y14385D01*
X75658Y14371D01*
X75664Y14358D01*
X75669Y14346D01*
X75676Y14331D01*
X75683Y14315D01*
X75687Y14303D01*
X75698Y14275D01*
X75708Y14247D01*
X75711Y14238D01*
X75718Y14219D01*
X75724Y14199D01*
X75726Y14190D01*
X75734Y14161D01*
X75741Y14132D01*
X75746Y14109D01*
X75748Y14103D01*
X75753Y14074D01*
X75758Y14044D01*
X75759Y14040D01*
X75762Y14014D01*
X75765Y13988D01*
X75766Y13985D01*
X75768Y13955D01*
X75770Y13925D01*
X75771Y13895D01*
X75772Y13865D01*
Y4118D01*
X75771Y4088D01*
X75770Y4058D01*
X75768Y4029D01*
X75766Y3999D01*
X75762Y3969D01*
X75758Y3939D01*
X75753Y3910D01*
X75748Y3880D01*
X75741Y3851D01*
X75734Y3822D01*
X75726Y3793D01*
X75718Y3765D01*
X75708Y3736D01*
X75698Y3708D01*
X75687Y3680D01*
X75676Y3652D01*
X75664Y3625D01*
X75651Y3598D01*
X75638Y3571D01*
X75623Y3545D01*
X75608Y3519D01*
X75593Y3493D01*
X75577Y3468D01*
X75560Y3443D01*
X75543Y3419D01*
X75525Y3395D01*
X75506Y3372D01*
X75487Y3349D01*
X75467Y3326D01*
X75447Y3304D01*
X75426Y3283D01*
X75404Y3262D01*
X75382Y3242D01*
X75360Y3222D01*
X75337Y3203D01*
X75314Y3184D01*
X75290Y3166D01*
X75265Y3149D01*
X75241Y3132D01*
X75215Y3116D01*
X75190Y3100D01*
X75164Y3085D01*
X75137Y3071D01*
X75111Y3058D01*
X75084Y3045D01*
X75056Y3033D01*
X75029Y3021D01*
X75001Y3011D01*
X74973Y3001D01*
X74944Y2991D01*
X74915Y2983D01*
X74887Y2975D01*
X74858Y2968D01*
X74828Y2961D01*
X74799Y2956D01*
X74769Y2951D01*
X74740Y2947D01*
X74710Y2943D01*
X74680Y2940D01*
X74650Y2939D01*
X74620Y2937D01*
X74591Y2937D01*
X64844D01*
X64814Y2937D01*
X64784Y2939D01*
X64754Y2940D01*
X64724Y2943D01*
X64721Y2944D01*
X64694Y2947D01*
X64681Y2948D01*
X64665Y2951D01*
X64635Y2956D01*
X64606Y2961D01*
X64577Y2968D01*
X64547Y2975D01*
X64519Y2983D01*
X64490Y2991D01*
X64462Y3001D01*
X64433Y3011D01*
X64405Y3021D01*
X64394Y3026D01*
X64378Y3033D01*
X64350Y3045D01*
X64323Y3058D01*
X64297Y3071D01*
X64270Y3085D01*
X64244Y3100D01*
X64219Y3116D01*
X64194Y3132D01*
X64169Y3149D01*
X64144Y3166D01*
X64121Y3184D01*
X64110Y3192D01*
X64097Y3203D01*
X64074Y3222D01*
X64052Y3242D01*
X64050Y3243D01*
X64030Y3262D01*
X64019Y3272D01*
X64008Y3283D01*
X62338Y4953D01*
X62317Y4975D01*
X62297Y4997D01*
X62277Y5019D01*
X62274Y5023D01*
X62258Y5042D01*
X62250Y5053D01*
X62239Y5066D01*
X62229Y5079D01*
X62221Y5089D01*
X62209Y5107D01*
X62204Y5114D01*
X62198Y5122D01*
X62187Y5139D01*
X62181Y5148D01*
X62171Y5164D01*
X62155Y5189D01*
X62149Y5200D01*
X62140Y5215D01*
X62135Y5225D01*
X62126Y5242D01*
X62117Y5259D01*
X62113Y5268D01*
X62107Y5281D01*
X62100Y5295D01*
X62088Y5323D01*
X62076Y5350D01*
X62066Y5378D01*
X62062Y5388D01*
X62056Y5407D01*
X62049Y5426D01*
X62046Y5435D01*
X62044Y5444D01*
X62038Y5464D01*
X62032Y5485D01*
X62030Y5493D01*
X62023Y5522D01*
X62021Y5528D01*
X62016Y5551D01*
X62011Y5580D01*
X62006Y5610D01*
X62002Y5639D01*
X61998Y5669D01*
X61995Y5699D01*
X61994Y5729D01*
X61992Y5759D01*
X61992Y5789D01*
Y15536D01*
X61992Y15566D01*
X61994Y15595D01*
X61995Y15625D01*
X61998Y15655D01*
X62002Y15685D01*
X62006Y15714D01*
X62011Y15744D01*
X62016Y15773D01*
X62023Y15803D01*
X62030Y15832D01*
X62038Y15861D01*
X62046Y15889D01*
X62056Y15918D01*
X62066Y15946D01*
X62076Y15974D01*
X62088Y16001D01*
X62100Y16029D01*
X62113Y16056D01*
X62126Y16082D01*
X62140Y16109D01*
X62155Y16135D01*
X62171Y16160D01*
X62187Y16186D01*
X62204Y16210D01*
X62221Y16235D01*
X62239Y16259D01*
X62258Y16282D01*
X62277Y16305D01*
X62297Y16327D01*
X62317Y16349D01*
X62338Y16371D01*
X62359Y16392D01*
X62381Y16412D01*
X62404Y16432D01*
X62427Y16451D01*
X62450Y16470D01*
X62474Y16488D01*
X62498Y16505D01*
X62523Y16522D01*
X62548Y16538D01*
X62574Y16553D01*
X62600Y16568D01*
X62626Y16583D01*
X62653Y16596D01*
X62680Y16609D01*
X62707Y16621D01*
X62735Y16632D01*
X62763Y16643D01*
X62791Y16653D01*
X62820Y16663D01*
X62848Y16671D01*
X62877Y16679D01*
X62906Y16686D01*
X62935Y16693D01*
X62965Y16698D01*
X62994Y16703D01*
X63024Y16707D01*
X63054Y16711D01*
X63084Y16713D01*
X63113Y16715D01*
X63143Y16716D01*
X63173Y16717D01*
X72920D01*
X72950Y16716D01*
D02*
G37*
G36*
X72950Y36401D02*
X72980Y36400D01*
X73010Y36398D01*
X73040Y36395D01*
X73043Y36395D01*
X73069Y36392D01*
X73083Y36390D01*
X73099Y36388D01*
X73129Y36383D01*
X73158Y36377D01*
X73187Y36371D01*
X73216Y36364D01*
X73245Y36356D01*
X73274Y36347D01*
X73302Y36338D01*
X73330Y36328D01*
X73358Y36317D01*
X73370Y36312D01*
X73386Y36306D01*
X73413Y36293D01*
X73440Y36281D01*
X73467Y36267D01*
X73493Y36253D01*
X73519Y36238D01*
X73545Y36222D01*
X73570Y36206D01*
X73595Y36190D01*
X73619Y36172D01*
X73643Y36154D01*
X73654Y36146D01*
X73667Y36136D01*
X73690Y36116D01*
X73712Y36097D01*
X73714Y36095D01*
X73734Y36076D01*
X73745Y36066D01*
X73755Y36055D01*
X75426Y34385D01*
X75447Y34364D01*
X75467Y34342D01*
X75487Y34319D01*
X75490Y34315D01*
X75506Y34296D01*
X75514Y34286D01*
X75525Y34273D01*
X75535Y34259D01*
X75543Y34249D01*
X75555Y34231D01*
X75560Y34225D01*
X75565Y34217D01*
X75577Y34200D01*
X75583Y34190D01*
X75593Y34175D01*
X75608Y34149D01*
X75615Y34138D01*
X75623Y34123D01*
X75628Y34114D01*
X75638Y34097D01*
X75646Y34079D01*
X75651Y34070D01*
X75657Y34057D01*
X75664Y34043D01*
X75676Y34016D01*
X75687Y33988D01*
X75698Y33960D01*
X75702Y33950D01*
X75708Y33932D01*
X75715Y33913D01*
X75718Y33903D01*
X75720Y33895D01*
X75726Y33875D01*
X75732Y33854D01*
X75734Y33846D01*
X75741Y33817D01*
X75743Y33810D01*
X75748Y33788D01*
X75753Y33758D01*
X75758Y33729D01*
X75762Y33699D01*
X75766Y33669D01*
X75768Y33639D01*
X75770Y33610D01*
X75771Y33580D01*
X75772Y33550D01*
Y23803D01*
X75771Y23773D01*
X75770Y23743D01*
X75768Y23713D01*
X75766Y23683D01*
X75762Y23654D01*
X75758Y23624D01*
X75753Y23594D01*
X75748Y23565D01*
X75741Y23536D01*
X75734Y23507D01*
X75726Y23478D01*
X75718Y23449D01*
X75708Y23421D01*
X75698Y23393D01*
X75687Y23365D01*
X75676Y23337D01*
X75664Y23310D01*
X75651Y23283D01*
X75638Y23256D01*
X75623Y23230D01*
X75608Y23204D01*
X75593Y23178D01*
X75577Y23153D01*
X75560Y23128D01*
X75543Y23104D01*
X75525Y23080D01*
X75506Y23056D01*
X75487Y23033D01*
X75467Y23011D01*
X75447Y22989D01*
X75426Y22968D01*
X75404Y22947D01*
X75382Y22926D01*
X75360Y22907D01*
X75337Y22887D01*
X75314Y22869D01*
X75290Y22851D01*
X75265Y22833D01*
X75241Y22816D01*
X75215Y22800D01*
X75190Y22785D01*
X75164Y22770D01*
X75137Y22756D01*
X75111Y22742D01*
X75084Y22729D01*
X75056Y22717D01*
X75029Y22706D01*
X75001Y22695D01*
X74973Y22685D01*
X74944Y22676D01*
X74915Y22667D01*
X74887Y22659D01*
X74858Y22652D01*
X74828Y22646D01*
X74799Y22640D01*
X74769Y22635D01*
X74740Y22631D01*
X74710Y22628D01*
X74680Y22625D01*
X74650Y22623D01*
X74620Y22622D01*
X74591Y22622D01*
X64844D01*
X64814Y22622D01*
X64784Y22623D01*
X64754Y22625D01*
X64751Y22625D01*
X64724Y22628D01*
X64694Y22631D01*
X64665Y22635D01*
X64635Y22640D01*
X64606Y22646D01*
X64583Y22651D01*
X64577Y22652D01*
X64547Y22659D01*
X64540Y22661D01*
X64519Y22667D01*
X64499Y22673D01*
X64490Y22676D01*
X64481Y22679D01*
X64462Y22685D01*
X64443Y22692D01*
X64433Y22695D01*
X64405Y22706D01*
X64378Y22717D01*
X64350Y22729D01*
X64336Y22736D01*
X64323Y22742D01*
X64314Y22747D01*
X64297Y22756D01*
X64280Y22765D01*
X64270Y22770D01*
X64255Y22778D01*
X64244Y22785D01*
X64219Y22800D01*
X64203Y22810D01*
X64194Y22816D01*
X64169Y22833D01*
X64144Y22851D01*
X64134Y22858D01*
X64121Y22869D01*
X64107Y22879D01*
X64097Y22887D01*
X64074Y22907D01*
X64052Y22926D01*
X64030Y22947D01*
X64008Y22968D01*
X62338Y24638D01*
X62317Y24659D01*
X62297Y24681D01*
X62277Y24704D01*
X62258Y24727D01*
X62239Y24750D01*
X62221Y24774D01*
X62204Y24798D01*
X62187Y24823D01*
X62177Y24838D01*
X62171Y24848D01*
X62155Y24874D01*
X62140Y24900D01*
X62131Y24917D01*
X62126Y24926D01*
X62119Y24940D01*
X62113Y24953D01*
X62106Y24967D01*
X62100Y24980D01*
X62095Y24992D01*
X62088Y25007D01*
X62081Y25023D01*
X62076Y25035D01*
X62066Y25063D01*
X62056Y25091D01*
X62052Y25100D01*
X62046Y25119D01*
X62040Y25140D01*
X62038Y25148D01*
X62030Y25177D01*
X62023Y25206D01*
X62018Y25229D01*
X62016Y25235D01*
X62011Y25265D01*
X62006Y25294D01*
X62005Y25298D01*
X62002Y25324D01*
X61998Y25350D01*
X61998Y25354D01*
X61995Y25383D01*
X61994Y25413D01*
X61992Y25443D01*
X61992Y25473D01*
Y35220D01*
X61992Y35250D01*
X61994Y35280D01*
X61995Y35310D01*
X61998Y35340D01*
X62002Y35369D01*
X62006Y35399D01*
X62011Y35428D01*
X62016Y35458D01*
X62023Y35487D01*
X62030Y35516D01*
X62038Y35545D01*
X62046Y35574D01*
X62056Y35602D01*
X62066Y35630D01*
X62076Y35658D01*
X62088Y35686D01*
X62100Y35713D01*
X62113Y35740D01*
X62126Y35767D01*
X62140Y35793D01*
X62155Y35819D01*
X62171Y35845D01*
X62187Y35870D01*
X62204Y35895D01*
X62221Y35919D01*
X62239Y35943D01*
X62258Y35967D01*
X62277Y35989D01*
X62297Y36012D01*
X62317Y36034D01*
X62338Y36055D01*
X62359Y36076D01*
X62381Y36097D01*
X62404Y36116D01*
X62427Y36136D01*
X62450Y36154D01*
X62474Y36172D01*
X62498Y36190D01*
X62523Y36206D01*
X62548Y36222D01*
X62574Y36238D01*
X62600Y36253D01*
X62626Y36267D01*
X62653Y36281D01*
X62680Y36293D01*
X62707Y36306D01*
X62735Y36317D01*
X62763Y36328D01*
X62791Y36338D01*
X62820Y36347D01*
X62848Y36356D01*
X62877Y36364D01*
X62906Y36371D01*
X62935Y36377D01*
X62965Y36383D01*
X62994Y36388D01*
X63024Y36392D01*
X63054Y36395D01*
X63084Y36398D01*
X63113Y36400D01*
X63143Y36401D01*
X63173Y36401D01*
X72920D01*
X72950Y36401D01*
D02*
G37*
G36*
X53265Y75771D02*
X53295Y75770D01*
X53325Y75768D01*
X53327Y75768D01*
X53355Y75766D01*
X53384Y75762D01*
X53414Y75758D01*
X53444Y75753D01*
X53473Y75748D01*
X53496Y75743D01*
X53502Y75741D01*
X53531Y75734D01*
X53539Y75732D01*
X53560Y75726D01*
X53580Y75720D01*
X53589Y75718D01*
X53598Y75715D01*
X53617Y75708D01*
X53635Y75702D01*
X53645Y75698D01*
X53673Y75687D01*
X53701Y75676D01*
X53728Y75664D01*
X53743Y75657D01*
X53755Y75651D01*
X53764Y75646D01*
X53782Y75638D01*
X53799Y75628D01*
X53808Y75623D01*
X53823Y75615D01*
X53834Y75608D01*
X53860Y75593D01*
X53875Y75583D01*
X53885Y75577D01*
X53910Y75560D01*
X53934Y75543D01*
X53945Y75535D01*
X53958Y75525D01*
X53971Y75514D01*
X53982Y75506D01*
X54005Y75487D01*
X54027Y75467D01*
X54049Y75447D01*
X54070Y75426D01*
X55741Y73755D01*
X55762Y73734D01*
X55782Y73712D01*
X55802Y73690D01*
X55821Y73667D01*
X55840Y73643D01*
X55858Y73619D01*
X55875Y73595D01*
X55892Y73570D01*
X55902Y73555D01*
X55908Y73545D01*
X55923Y73519D01*
X55938Y73493D01*
X55948Y73476D01*
X55952Y73467D01*
X55959Y73454D01*
X55966Y73440D01*
X55973Y73426D01*
X55979Y73413D01*
X55984Y73401D01*
X55991Y73386D01*
X55998Y73370D01*
X56002Y73358D01*
X56013Y73330D01*
X56023Y73302D01*
X56026Y73293D01*
X56033Y73274D01*
X56039Y73254D01*
X56041Y73245D01*
X56049Y73216D01*
X56056Y73187D01*
X56061Y73164D01*
X56063Y73158D01*
X56068Y73129D01*
X56073Y73099D01*
X56074Y73095D01*
X56077Y73069D01*
X56080Y73043D01*
X56081Y73040D01*
X56083Y73010D01*
X56085Y72980D01*
X56086Y72950D01*
X56087Y72920D01*
Y63173D01*
X56086Y63143D01*
X56085Y63113D01*
X56083Y63084D01*
X56081Y63054D01*
X56077Y63024D01*
X56073Y62994D01*
X56068Y62965D01*
X56063Y62935D01*
X56056Y62906D01*
X56049Y62877D01*
X56041Y62848D01*
X56033Y62820D01*
X56023Y62791D01*
X56013Y62763D01*
X56002Y62735D01*
X55991Y62707D01*
X55979Y62680D01*
X55966Y62653D01*
X55952Y62626D01*
X55938Y62600D01*
X55923Y62574D01*
X55908Y62548D01*
X55892Y62523D01*
X55875Y62498D01*
X55858Y62474D01*
X55840Y62450D01*
X55821Y62427D01*
X55802Y62404D01*
X55782Y62381D01*
X55762Y62359D01*
X55741Y62338D01*
X55719Y62317D01*
X55697Y62297D01*
X55675Y62277D01*
X55652Y62258D01*
X55629Y62239D01*
X55605Y62221D01*
X55580Y62204D01*
X55556Y62187D01*
X55530Y62171D01*
X55505Y62155D01*
X55479Y62140D01*
X55452Y62126D01*
X55426Y62113D01*
X55399Y62100D01*
X55371Y62088D01*
X55344Y62076D01*
X55316Y62066D01*
X55288Y62056D01*
X55259Y62046D01*
X55230Y62038D01*
X55202Y62030D01*
X55173Y62023D01*
X55143Y62016D01*
X55114Y62011D01*
X55084Y62006D01*
X55055Y62002D01*
X55025Y61998D01*
X54995Y61995D01*
X54965Y61994D01*
X54935Y61992D01*
X54906Y61992D01*
X45159D01*
X45129Y61992D01*
X45099Y61994D01*
X45069Y61995D01*
X45039Y61998D01*
X45036Y61998D01*
X45009Y62002D01*
X44996Y62003D01*
X44980Y62006D01*
X44950Y62011D01*
X44921Y62016D01*
X44892Y62023D01*
X44862Y62030D01*
X44834Y62038D01*
X44805Y62046D01*
X44776Y62056D01*
X44748Y62066D01*
X44720Y62076D01*
X44709Y62081D01*
X44693Y62088D01*
X44665Y62100D01*
X44638Y62113D01*
X44612Y62126D01*
X44585Y62140D01*
X44559Y62155D01*
X44534Y62171D01*
X44509Y62187D01*
X44484Y62204D01*
X44459Y62221D01*
X44436Y62239D01*
X44425Y62247D01*
X44412Y62258D01*
X44389Y62277D01*
X44367Y62297D01*
X44365Y62298D01*
X44345Y62317D01*
X44334Y62327D01*
X44323Y62338D01*
X42653Y64008D01*
X42632Y64030D01*
X42612Y64052D01*
X42592Y64074D01*
X42589Y64078D01*
X42573Y64097D01*
X42565Y64107D01*
X42554Y64121D01*
X42544Y64134D01*
X42536Y64144D01*
X42524Y64162D01*
X42519Y64169D01*
X42513Y64177D01*
X42502Y64194D01*
X42496Y64203D01*
X42486Y64219D01*
X42470Y64244D01*
X42464Y64255D01*
X42455Y64270D01*
X42450Y64280D01*
X42441Y64297D01*
X42432Y64314D01*
X42428Y64323D01*
X42422Y64336D01*
X42415Y64350D01*
X42403Y64378D01*
X42391Y64405D01*
X42381Y64433D01*
X42377Y64443D01*
X42370Y64462D01*
X42364Y64481D01*
X42361Y64490D01*
X42359Y64499D01*
X42353Y64519D01*
X42347Y64540D01*
X42345Y64547D01*
X42338Y64577D01*
X42336Y64583D01*
X42331Y64606D01*
X42326Y64635D01*
X42321Y64665D01*
X42316Y64694D01*
X42313Y64724D01*
X42310Y64754D01*
X42309Y64784D01*
X42307Y64814D01*
X42307Y64844D01*
Y74591D01*
X42307Y74620D01*
X42309Y74650D01*
X42310Y74680D01*
X42313Y74710D01*
X42316Y74740D01*
X42321Y74769D01*
X42326Y74799D01*
X42331Y74828D01*
X42338Y74858D01*
X42345Y74887D01*
X42353Y74915D01*
X42361Y74944D01*
X42370Y74973D01*
X42381Y75001D01*
X42391Y75029D01*
X42403Y75056D01*
X42415Y75084D01*
X42428Y75111D01*
X42441Y75137D01*
X42455Y75164D01*
X42470Y75190D01*
X42486Y75215D01*
X42502Y75241D01*
X42519Y75265D01*
X42536Y75290D01*
X42554Y75314D01*
X42573Y75337D01*
X42592Y75360D01*
X42612Y75382D01*
X42632Y75404D01*
X42653Y75426D01*
X42674Y75447D01*
X42696Y75467D01*
X42719Y75487D01*
X42742Y75506D01*
X42765Y75525D01*
X42789Y75543D01*
X42813Y75560D01*
X42838Y75577D01*
X42863Y75593D01*
X42889Y75608D01*
X42915Y75623D01*
X42941Y75638D01*
X42968Y75651D01*
X42995Y75664D01*
X43022Y75676D01*
X43050Y75687D01*
X43078Y75698D01*
X43106Y75708D01*
X43135Y75718D01*
X43163Y75726D01*
X43192Y75734D01*
X43221Y75741D01*
X43250Y75748D01*
X43280Y75753D01*
X43309Y75758D01*
X43339Y75762D01*
X43369Y75766D01*
X43398Y75768D01*
X43428Y75770D01*
X43458Y75771D01*
X43488Y75772D01*
X53235D01*
X53265Y75771D01*
D02*
G37*
G36*
X72950D02*
X72980Y75770D01*
X73010Y75768D01*
X73012Y75768D01*
X73040Y75766D01*
X73069Y75762D01*
X73099Y75758D01*
X73129Y75753D01*
X73158Y75748D01*
X73181Y75743D01*
X73187Y75741D01*
X73216Y75734D01*
X73224Y75732D01*
X73245Y75726D01*
X73265Y75720D01*
X73274Y75718D01*
X73283Y75715D01*
X73302Y75708D01*
X73320Y75702D01*
X73330Y75698D01*
X73358Y75687D01*
X73386Y75676D01*
X73413Y75664D01*
X73428Y75657D01*
X73440Y75651D01*
X73449Y75646D01*
X73467Y75638D01*
X73484Y75628D01*
X73493Y75623D01*
X73508Y75615D01*
X73519Y75608D01*
X73545Y75593D01*
X73560Y75583D01*
X73570Y75577D01*
X73595Y75560D01*
X73619Y75543D01*
X73630Y75535D01*
X73643Y75525D01*
X73656Y75514D01*
X73667Y75506D01*
X73690Y75487D01*
X73712Y75467D01*
X73734Y75447D01*
X73755Y75426D01*
X75426Y73755D01*
X75447Y73734D01*
X75467Y73712D01*
X75487Y73690D01*
X75506Y73667D01*
X75525Y73643D01*
X75543Y73619D01*
X75560Y73595D01*
X75577Y73570D01*
X75587Y73555D01*
X75593Y73545D01*
X75608Y73519D01*
X75623Y73493D01*
X75633Y73476D01*
X75638Y73467D01*
X75644Y73454D01*
X75651Y73440D01*
X75658Y73426D01*
X75664Y73413D01*
X75669Y73401D01*
X75676Y73386D01*
X75683Y73370D01*
X75687Y73358D01*
X75698Y73330D01*
X75708Y73302D01*
X75711Y73293D01*
X75718Y73274D01*
X75724Y73254D01*
X75726Y73245D01*
X75734Y73216D01*
X75741Y73187D01*
X75746Y73164D01*
X75748Y73158D01*
X75753Y73129D01*
X75758Y73099D01*
X75759Y73095D01*
X75762Y73069D01*
X75765Y73043D01*
X75766Y73040D01*
X75768Y73010D01*
X75770Y72980D01*
X75771Y72950D01*
X75772Y72920D01*
Y63173D01*
X75771Y63143D01*
X75770Y63113D01*
X75768Y63084D01*
X75766Y63054D01*
X75762Y63024D01*
X75758Y62994D01*
X75753Y62965D01*
X75748Y62935D01*
X75741Y62906D01*
X75734Y62877D01*
X75726Y62848D01*
X75718Y62820D01*
X75708Y62791D01*
X75698Y62763D01*
X75687Y62735D01*
X75676Y62707D01*
X75664Y62680D01*
X75651Y62653D01*
X75638Y62626D01*
X75623Y62600D01*
X75608Y62574D01*
X75593Y62548D01*
X75577Y62523D01*
X75560Y62498D01*
X75543Y62474D01*
X75525Y62450D01*
X75506Y62427D01*
X75487Y62404D01*
X75467Y62381D01*
X75447Y62359D01*
X75426Y62338D01*
X75404Y62317D01*
X75382Y62297D01*
X75360Y62277D01*
X75337Y62258D01*
X75314Y62239D01*
X75290Y62221D01*
X75265Y62204D01*
X75241Y62187D01*
X75215Y62171D01*
X75190Y62155D01*
X75164Y62140D01*
X75137Y62126D01*
X75111Y62113D01*
X75084Y62100D01*
X75056Y62088D01*
X75029Y62076D01*
X75001Y62066D01*
X74973Y62056D01*
X74944Y62046D01*
X74915Y62038D01*
X74887Y62030D01*
X74858Y62023D01*
X74828Y62016D01*
X74799Y62011D01*
X74769Y62006D01*
X74740Y62002D01*
X74710Y61998D01*
X74680Y61995D01*
X74650Y61994D01*
X74620Y61992D01*
X74591Y61992D01*
X64844D01*
X64814Y61992D01*
X64784Y61994D01*
X64754Y61995D01*
X64724Y61998D01*
X64721Y61998D01*
X64694Y62002D01*
X64681Y62003D01*
X64665Y62006D01*
X64635Y62011D01*
X64606Y62016D01*
X64577Y62023D01*
X64547Y62030D01*
X64519Y62038D01*
X64490Y62046D01*
X64462Y62056D01*
X64433Y62066D01*
X64405Y62076D01*
X64394Y62081D01*
X64378Y62088D01*
X64350Y62100D01*
X64323Y62113D01*
X64297Y62126D01*
X64270Y62140D01*
X64244Y62155D01*
X64219Y62171D01*
X64194Y62187D01*
X64169Y62204D01*
X64144Y62221D01*
X64121Y62239D01*
X64110Y62247D01*
X64097Y62258D01*
X64074Y62277D01*
X64052Y62297D01*
X64050Y62298D01*
X64030Y62317D01*
X64019Y62327D01*
X64008Y62338D01*
X62338Y64008D01*
X62317Y64030D01*
X62297Y64052D01*
X62277Y64074D01*
X62274Y64078D01*
X62258Y64097D01*
X62250Y64107D01*
X62239Y64121D01*
X62229Y64134D01*
X62221Y64144D01*
X62209Y64162D01*
X62204Y64169D01*
X62198Y64177D01*
X62187Y64194D01*
X62181Y64203D01*
X62171Y64219D01*
X62155Y64244D01*
X62149Y64255D01*
X62140Y64270D01*
X62135Y64280D01*
X62126Y64297D01*
X62117Y64314D01*
X62113Y64323D01*
X62107Y64336D01*
X62100Y64350D01*
X62088Y64378D01*
X62076Y64405D01*
X62066Y64433D01*
X62062Y64443D01*
X62056Y64462D01*
X62049Y64481D01*
X62046Y64490D01*
X62044Y64499D01*
X62038Y64519D01*
X62032Y64540D01*
X62030Y64547D01*
X62023Y64577D01*
X62021Y64583D01*
X62016Y64606D01*
X62011Y64635D01*
X62006Y64665D01*
X62002Y64694D01*
X61998Y64724D01*
X61995Y64754D01*
X61994Y64784D01*
X61992Y64814D01*
X61992Y64844D01*
Y74591D01*
X61992Y74620D01*
X61994Y74650D01*
X61995Y74680D01*
X61998Y74710D01*
X62002Y74740D01*
X62006Y74769D01*
X62011Y74799D01*
X62016Y74828D01*
X62023Y74858D01*
X62030Y74887D01*
X62038Y74915D01*
X62046Y74944D01*
X62056Y74973D01*
X62066Y75001D01*
X62076Y75029D01*
X62088Y75056D01*
X62100Y75084D01*
X62113Y75111D01*
X62126Y75137D01*
X62140Y75164D01*
X62155Y75190D01*
X62171Y75215D01*
X62187Y75241D01*
X62204Y75265D01*
X62221Y75290D01*
X62239Y75314D01*
X62258Y75337D01*
X62277Y75360D01*
X62297Y75382D01*
X62317Y75404D01*
X62338Y75426D01*
X62359Y75447D01*
X62381Y75467D01*
X62404Y75487D01*
X62427Y75506D01*
X62450Y75525D01*
X62474Y75543D01*
X62498Y75560D01*
X62523Y75577D01*
X62548Y75593D01*
X62574Y75608D01*
X62600Y75623D01*
X62626Y75638D01*
X62653Y75651D01*
X62680Y75664D01*
X62707Y75676D01*
X62735Y75687D01*
X62763Y75698D01*
X62791Y75708D01*
X62820Y75718D01*
X62848Y75726D01*
X62877Y75734D01*
X62906Y75741D01*
X62935Y75748D01*
X62965Y75753D01*
X62994Y75758D01*
X63024Y75762D01*
X63054Y75766D01*
X63084Y75768D01*
X63113Y75770D01*
X63143Y75771D01*
X63173Y75772D01*
X72920D01*
X72950Y75771D01*
D02*
G37*
G36*
X72950Y56086D02*
X72980Y56085D01*
X73010Y56083D01*
X73040Y56081D01*
X73043Y56080D01*
X73069Y56077D01*
X73083Y56075D01*
X73099Y56073D01*
X73129Y56068D01*
X73158Y56063D01*
X73187Y56056D01*
X73216Y56049D01*
X73245Y56041D01*
X73274Y56033D01*
X73302Y56023D01*
X73330Y56013D01*
X73358Y56002D01*
X73370Y55998D01*
X73386Y55991D01*
X73413Y55979D01*
X73440Y55966D01*
X73467Y55952D01*
X73493Y55938D01*
X73519Y55923D01*
X73545Y55908D01*
X73570Y55892D01*
X73595Y55875D01*
X73619Y55858D01*
X73643Y55840D01*
X73654Y55831D01*
X73667Y55821D01*
X73690Y55802D01*
X73712Y55782D01*
X73714Y55780D01*
X73734Y55762D01*
X73745Y55751D01*
X73755Y55741D01*
X75426Y54070D01*
X75447Y54049D01*
X75467Y54027D01*
X75487Y54005D01*
X75490Y54001D01*
X75506Y53982D01*
X75514Y53971D01*
X75525Y53958D01*
X75535Y53945D01*
X75543Y53934D01*
X75555Y53917D01*
X75560Y53910D01*
X75565Y53902D01*
X75577Y53885D01*
X75583Y53875D01*
X75593Y53860D01*
X75608Y53834D01*
X75615Y53823D01*
X75623Y53808D01*
X75628Y53799D01*
X75638Y53782D01*
X75646Y53764D01*
X75651Y53755D01*
X75657Y53743D01*
X75664Y53728D01*
X75676Y53701D01*
X75687Y53673D01*
X75698Y53645D01*
X75702Y53635D01*
X75708Y53617D01*
X75715Y53598D01*
X75718Y53589D01*
X75720Y53580D01*
X75726Y53560D01*
X75732Y53539D01*
X75734Y53531D01*
X75741Y53502D01*
X75743Y53496D01*
X75748Y53473D01*
X75753Y53444D01*
X75758Y53414D01*
X75762Y53384D01*
X75766Y53355D01*
X75768Y53325D01*
X75770Y53295D01*
X75771Y53265D01*
X75772Y53235D01*
Y43488D01*
X75771Y43458D01*
X75770Y43428D01*
X75768Y43398D01*
X75766Y43369D01*
X75762Y43339D01*
X75758Y43309D01*
X75753Y43280D01*
X75748Y43250D01*
X75741Y43221D01*
X75734Y43192D01*
X75726Y43163D01*
X75718Y43135D01*
X75708Y43106D01*
X75698Y43078D01*
X75687Y43050D01*
X75676Y43022D01*
X75664Y42995D01*
X75651Y42968D01*
X75638Y42941D01*
X75623Y42915D01*
X75608Y42889D01*
X75593Y42863D01*
X75577Y42838D01*
X75560Y42813D01*
X75543Y42789D01*
X75525Y42765D01*
X75506Y42742D01*
X75487Y42719D01*
X75467Y42696D01*
X75447Y42674D01*
X75426Y42653D01*
X75404Y42632D01*
X75382Y42612D01*
X75360Y42592D01*
X75337Y42573D01*
X75314Y42554D01*
X75290Y42536D01*
X75265Y42519D01*
X75241Y42502D01*
X75215Y42486D01*
X75190Y42470D01*
X75164Y42455D01*
X75137Y42441D01*
X75111Y42428D01*
X75084Y42415D01*
X75056Y42403D01*
X75029Y42391D01*
X75001Y42381D01*
X74973Y42370D01*
X74944Y42361D01*
X74915Y42353D01*
X74887Y42345D01*
X74858Y42338D01*
X74828Y42331D01*
X74799Y42326D01*
X74769Y42321D01*
X74740Y42316D01*
X74710Y42313D01*
X74680Y42310D01*
X74650Y42309D01*
X74620Y42307D01*
X74591Y42307D01*
X64844D01*
X64814Y42307D01*
X64784Y42309D01*
X64754Y42310D01*
X64751Y42311D01*
X64724Y42313D01*
X64694Y42316D01*
X64665Y42321D01*
X64635Y42326D01*
X64606Y42331D01*
X64583Y42336D01*
X64577Y42338D01*
X64547Y42345D01*
X64540Y42347D01*
X64519Y42353D01*
X64499Y42359D01*
X64490Y42361D01*
X64481Y42364D01*
X64462Y42370D01*
X64443Y42377D01*
X64433Y42381D01*
X64405Y42391D01*
X64378Y42403D01*
X64350Y42415D01*
X64336Y42422D01*
X64323Y42428D01*
X64314Y42432D01*
X64297Y42441D01*
X64280Y42450D01*
X64270Y42455D01*
X64255Y42464D01*
X64244Y42470D01*
X64219Y42486D01*
X64203Y42496D01*
X64194Y42502D01*
X64169Y42519D01*
X64144Y42536D01*
X64134Y42544D01*
X64121Y42554D01*
X64107Y42565D01*
X64097Y42573D01*
X64074Y42592D01*
X64052Y42612D01*
X64030Y42632D01*
X64008Y42653D01*
X62338Y44323D01*
X62317Y44345D01*
X62297Y44367D01*
X62277Y44389D01*
X62258Y44412D01*
X62239Y44436D01*
X62221Y44459D01*
X62204Y44484D01*
X62187Y44509D01*
X62177Y44524D01*
X62171Y44534D01*
X62155Y44559D01*
X62140Y44585D01*
X62131Y44602D01*
X62126Y44612D01*
X62119Y44625D01*
X62113Y44638D01*
X62106Y44653D01*
X62100Y44665D01*
X62095Y44678D01*
X62088Y44693D01*
X62081Y44709D01*
X62076Y44720D01*
X62066Y44748D01*
X62056Y44776D01*
X62052Y44786D01*
X62046Y44805D01*
X62040Y44825D01*
X62038Y44834D01*
X62030Y44862D01*
X62023Y44892D01*
X62018Y44914D01*
X62016Y44921D01*
X62011Y44950D01*
X62006Y44980D01*
X62005Y44984D01*
X62002Y45009D01*
X61998Y45036D01*
X61998Y45039D01*
X61995Y45069D01*
X61994Y45099D01*
X61992Y45129D01*
X61992Y45159D01*
Y54906D01*
X61992Y54935D01*
X61994Y54965D01*
X61995Y54995D01*
X61998Y55025D01*
X62002Y55055D01*
X62006Y55084D01*
X62011Y55114D01*
X62016Y55143D01*
X62023Y55173D01*
X62030Y55202D01*
X62038Y55230D01*
X62046Y55259D01*
X62056Y55288D01*
X62066Y55316D01*
X62076Y55344D01*
X62088Y55371D01*
X62100Y55399D01*
X62113Y55426D01*
X62126Y55452D01*
X62140Y55479D01*
X62155Y55505D01*
X62171Y55530D01*
X62187Y55556D01*
X62204Y55580D01*
X62221Y55605D01*
X62239Y55629D01*
X62258Y55652D01*
X62277Y55675D01*
X62297Y55697D01*
X62317Y55719D01*
X62338Y55741D01*
X62359Y55762D01*
X62381Y55782D01*
X62404Y55802D01*
X62427Y55821D01*
X62450Y55840D01*
X62474Y55858D01*
X62498Y55875D01*
X62523Y55892D01*
X62548Y55908D01*
X62574Y55923D01*
X62600Y55938D01*
X62626Y55952D01*
X62653Y55966D01*
X62680Y55979D01*
X62707Y55991D01*
X62735Y56002D01*
X62763Y56013D01*
X62791Y56023D01*
X62820Y56033D01*
X62848Y56041D01*
X62877Y56049D01*
X62906Y56056D01*
X62935Y56063D01*
X62965Y56068D01*
X62994Y56073D01*
X63024Y56077D01*
X63054Y56081D01*
X63084Y56083D01*
X63113Y56085D01*
X63143Y56086D01*
X63173Y56087D01*
X72920D01*
X72950Y56086D01*
D02*
G37*
D31*
X75171Y3573D02*
D03*
X3538Y75136D02*
D03*
D32*
X35917Y33094D02*
D03*
X49197Y66047D02*
D03*
X68882D02*
D03*
X68882Y46362D02*
D03*
Y26677D02*
D03*
X68882Y6992D02*
D03*
X49197Y6992D02*
D03*
X29512Y6992D02*
D03*
X9827D02*
D03*
Y26677D02*
D03*
X9827Y46362D02*
D03*
X9827Y66047D02*
D03*
X29512Y66047D02*
D03*
X38831Y27574D02*
D03*
X37925D02*
D03*
X36823Y33094D02*
D03*
X40248Y26983D02*
D03*
X47492Y33401D02*
D03*
X45854Y27968D02*
D03*
X41862Y27968D02*
D03*
D33*
X38870Y40645D02*
D03*
X39264D02*
D03*
X38870Y41747D02*
D03*
X39264D02*
D03*
X38634Y38204D02*
D03*
X39028D02*
D03*
X40051D02*
D03*
X39657D02*
D03*
X38870Y54188D02*
D03*
X39264D02*
D03*
X40634Y26466D02*
D03*
X40240D02*
D03*
D34*
X24718Y54682D02*
D03*
X24440Y54403D02*
D03*
X53967Y24049D02*
D03*
X54246Y24327D02*
D03*
X23026Y56402D02*
D03*
X23305Y56680D02*
D03*
X55682Y22307D02*
D03*
X55404Y22029D02*
D03*
X22127Y55497D02*
D03*
X22405Y55775D02*
D03*
X22736Y24227D02*
D03*
X22458Y23948D02*
D03*
X23663Y22124D02*
D03*
X23942Y22402D02*
D03*
X56582Y23212D02*
D03*
X56304Y22933D02*
D03*
X55972Y54482D02*
D03*
X56251Y54760D02*
D03*
X55045Y56585D02*
D03*
X54767Y56306D02*
D03*
X20101Y58650D02*
D03*
X19823Y58371D02*
D03*
X20143Y26806D02*
D03*
X19865Y26528D02*
D03*
X26816Y20099D02*
D03*
X26538Y19820D02*
D03*
X58607Y20059D02*
D03*
X58886Y20337D02*
D03*
X58565Y51903D02*
D03*
X58844Y52181D02*
D03*
X51886Y58603D02*
D03*
X52164Y58882D02*
D03*
X55998Y56526D02*
D03*
X56276Y56805D02*
D03*
X54540Y22238D02*
D03*
X54262Y21960D02*
D03*
X56529Y24165D02*
D03*
X56808Y24443D02*
D03*
X22432Y21904D02*
D03*
X22711Y22182D02*
D03*
X24168Y56470D02*
D03*
X24447Y56749D02*
D03*
X22179Y54544D02*
D03*
X21901Y54266D02*
D03*
D35*
X38201Y38676D02*
D03*
Y39070D02*
D03*
X40484Y38676D02*
D03*
Y39070D02*
D03*
X39264Y40999D02*
D03*
Y41393D02*
D03*
D36*
X24046Y24721D02*
D03*
X24324Y24443D02*
D03*
X54679Y53970D02*
D03*
X54400Y54249D02*
D03*
X22307Y23026D02*
D03*
X22029Y23305D02*
D03*
X56402Y55682D02*
D03*
X56680Y55404D02*
D03*
X24227Y55972D02*
D03*
X23948Y56251D02*
D03*
X22124Y55045D02*
D03*
X22402Y54767D02*
D03*
X23212Y22127D02*
D03*
X22933Y22405D02*
D03*
X54482Y22736D02*
D03*
X54760Y22458D02*
D03*
X56585Y23663D02*
D03*
X56306Y23942D02*
D03*
X55497Y56582D02*
D03*
X55775Y56304D02*
D03*
X26806Y58565D02*
D03*
X26528Y58844D02*
D03*
X20099Y51892D02*
D03*
X19820Y52171D02*
D03*
X20059Y20101D02*
D03*
X20337Y19823D02*
D03*
X51903Y20143D02*
D03*
X52181Y19865D02*
D03*
X58610Y26816D02*
D03*
X58889Y26538D02*
D03*
X58650Y58607D02*
D03*
X58371Y58886D02*
D03*
X54544Y56529D02*
D03*
X54266Y56808D02*
D03*
X56470Y54540D02*
D03*
X56749Y54262D02*
D03*
X56526Y22711D02*
D03*
X56805Y22432D02*
D03*
X21960Y24447D02*
D03*
X22238Y24168D02*
D03*
X24443Y21901D02*
D03*
X24165Y22179D02*
D03*
X22182Y55998D02*
D03*
X21904Y56276D02*
D03*
D37*
X38880Y52849D02*
D03*
X39254D02*
D03*
D38*
X54050Y57037D02*
D03*
X54314Y57302D02*
D03*
X56965Y54032D02*
D03*
X56700Y53768D02*
D03*
X57034Y22216D02*
D03*
X57299Y22481D02*
D03*
X24659Y21671D02*
D03*
X24394Y21407D02*
D03*
X21744Y24676D02*
D03*
X22009Y24941D02*
D03*
X21674Y56492D02*
D03*
X21410Y56228D02*
D03*
X54160Y54005D02*
D03*
X53895Y53741D02*
D03*
X24868Y24990D02*
D03*
X24604Y24725D02*
D03*
D39*
X57869Y58383D02*
D03*
X58147Y58661D02*
D03*
X58373Y26024D02*
D03*
X58651Y26302D02*
D03*
X52705Y20396D02*
D03*
X52427Y20118D02*
D03*
X20840Y20326D02*
D03*
X20561Y20048D02*
D03*
X20336Y52685D02*
D03*
X20058Y52407D02*
D03*
X26003Y58313D02*
D03*
X26282Y58591D02*
D03*
D40*
X56492Y57034D02*
D03*
X56228Y57299D02*
D03*
X57037Y24659D02*
D03*
X57302Y24394D02*
D03*
X54032Y21744D02*
D03*
X53768Y22009D02*
D03*
X22216Y21674D02*
D03*
X22481Y21410D02*
D03*
X21671Y54050D02*
D03*
X21407Y54314D02*
D03*
X24676Y56965D02*
D03*
X24941Y56700D02*
D03*
X53963Y24607D02*
D03*
X53698Y24871D02*
D03*
X24987Y53859D02*
D03*
X24722Y54123D02*
D03*
D41*
X58313Y52705D02*
D03*
X58591Y52427D02*
D03*
X58383Y20840D02*
D03*
X58661Y20561D02*
D03*
X26024Y20336D02*
D03*
X26302Y20058D02*
D03*
X20396Y26003D02*
D03*
X20118Y26282D02*
D03*
X20326Y57869D02*
D03*
X20048Y58147D02*
D03*
X52678Y58382D02*
D03*
X52400Y58661D02*
D03*
D42*
X23428Y55281D02*
D03*
X55281Y23428D02*
D03*
D43*
X24304Y55100D02*
D03*
X24165Y54961D02*
D03*
X24026Y54822D02*
D03*
X23887Y54683D02*
D03*
X23748Y54543D02*
D03*
X23608Y54404D02*
D03*
X22551Y55462D02*
D03*
X22690Y55601D02*
D03*
X22829Y55740D02*
D03*
X22968Y55880D02*
D03*
X23107Y56019D02*
D03*
X23247Y56158D02*
D03*
X54404Y23608D02*
D03*
X54543Y23748D02*
D03*
X54683Y23887D02*
D03*
X54822Y24026D02*
D03*
X54961Y24165D02*
D03*
X55100Y24304D02*
D03*
X56158Y23247D02*
D03*
X56019Y23107D02*
D03*
X55880Y22968D02*
D03*
X55740Y22829D02*
D03*
X55601Y22690D02*
D03*
X55462Y22551D02*
D03*
D44*
X23247Y54404D02*
D03*
X23107Y54543D02*
D03*
X22968Y54683D02*
D03*
X22829Y54822D02*
D03*
X22690Y54961D02*
D03*
X22551Y55100D02*
D03*
X23608Y56158D02*
D03*
X23748Y56019D02*
D03*
X23887Y55880D02*
D03*
X24026Y55740D02*
D03*
X24165Y55601D02*
D03*
X24304Y55462D02*
D03*
X55462Y24304D02*
D03*
X55601Y24165D02*
D03*
X55740Y24026D02*
D03*
X55880Y23887D02*
D03*
X56019Y23748D02*
D03*
X56158Y23608D02*
D03*
X55100Y22551D02*
D03*
X54961Y22690D02*
D03*
X54822Y22829D02*
D03*
X54683Y22968D02*
D03*
X54543Y23107D02*
D03*
X54404Y23247D02*
D03*
D45*
X39689Y26475D02*
D03*
X39139D02*
D03*
D46*
X39354Y39361D02*
D03*
D47*
X38862Y40109D02*
D03*
X39059D02*
D03*
X39256D02*
D03*
X39453D02*
D03*
X39650D02*
D03*
X39846D02*
D03*
Y38613D02*
D03*
X39650D02*
D03*
X39453D02*
D03*
X39256D02*
D03*
X39059D02*
D03*
X38862D02*
D03*
D48*
X40102Y39853D02*
D03*
Y39657D02*
D03*
Y39460D02*
D03*
Y39263D02*
D03*
Y39066D02*
D03*
Y38869D02*
D03*
X38606D02*
D03*
Y39066D02*
D03*
Y39263D02*
D03*
Y39460D02*
D03*
Y39657D02*
D03*
Y39853D02*
D03*
D49*
X55281Y55281D02*
D03*
X23428Y23428D02*
D03*
D50*
X55100Y54404D02*
D03*
X54961Y54543D02*
D03*
X54822Y54683D02*
D03*
X54683Y54822D02*
D03*
X54543Y54961D02*
D03*
X54404Y55100D02*
D03*
X55462Y56158D02*
D03*
X55601Y56019D02*
D03*
X55740Y55880D02*
D03*
X55880Y55740D02*
D03*
X56019Y55601D02*
D03*
X56158Y55462D02*
D03*
X22551Y23247D02*
D03*
X22690Y23107D02*
D03*
X22829Y22968D02*
D03*
X22968Y22829D02*
D03*
X23107Y22690D02*
D03*
X23247Y22551D02*
D03*
X24304Y23608D02*
D03*
X24165Y23748D02*
D03*
X24026Y23887D02*
D03*
X23887Y24026D02*
D03*
X23748Y24165D02*
D03*
X23608Y24304D02*
D03*
D51*
X54404Y55462D02*
D03*
X54543Y55601D02*
D03*
X54683Y55740D02*
D03*
X54822Y55880D02*
D03*
X54961Y56019D02*
D03*
X55100Y56158D02*
D03*
X56158Y55100D02*
D03*
X56019Y54961D02*
D03*
X55880Y54822D02*
D03*
X55740Y54683D02*
D03*
X55601Y54543D02*
D03*
X55462Y54404D02*
D03*
X23247Y24304D02*
D03*
X23107Y24165D02*
D03*
X22968Y24026D02*
D03*
X22829Y23887D02*
D03*
X22690Y23748D02*
D03*
X22551Y23608D02*
D03*
X23608Y22551D02*
D03*
X23748Y22690D02*
D03*
X23887Y22829D02*
D03*
X24026Y22968D02*
D03*
X24165Y23107D02*
D03*
X24304Y23247D02*
D03*
D52*
X39264Y53716D02*
D03*
Y53322D02*
D03*
D53*
X40953Y30169D02*
D03*
X38984D02*
D03*
X38000D02*
D03*
X37016D02*
D03*
X39969D02*
D03*
D54*
X36031D02*
D03*
D55*
X39260Y55886D02*
D03*
D56*
X40260Y56886D02*
D03*
X38260D02*
D03*
Y54886D02*
D03*
X40260D02*
D03*
D57*
X2740Y2740D02*
D03*
X75968D02*
D03*
Y75969D02*
D03*
X2740D02*
D03*
D58*
X24087Y29795D02*
D03*
X24228Y49657D02*
D03*
X53354Y29868D02*
D03*
X53008Y49547D02*
D03*
D59*
X39354Y39361D02*
D03*
X55327Y23382D02*
D03*
X39786Y39364D02*
D03*
X39357Y39788D02*
D03*
X38923Y39358D02*
D03*
X39357Y38929D02*
D03*
X23428Y55281D02*
D03*
X23735Y54978D02*
D03*
X23120Y55585D02*
D03*
X23124Y54974D02*
D03*
X23731Y55588D02*
D03*
X23428Y23428D02*
D03*
X23731Y23735D02*
D03*
X23124Y23120D02*
D03*
X23735Y23124D02*
D03*
X23120Y23731D02*
D03*
X54974Y23731D02*
D03*
X55588Y23124D02*
D03*
X55585Y23735D02*
D03*
X54978Y23120D02*
D03*
X55588Y54978D02*
D03*
X54974Y55585D02*
D03*
X55585Y55588D02*
D03*
X54978Y54974D02*
D03*
X55281Y55281D02*
D03*
M02*
