M48
;Layer_Color=9474304
;FILE_FORMAT=2:4
INCH,TZ
;TYPE=PLATED
T1F00S00C0.0079
T2F00S00C0.0118
T3F00S00C0.0591
T4F00S00C0.0669
;TYPE=NON_PLATED
T5F00S00C0.1260
T6F00S00C0.1575
%
T01
X55697Y19794
X58410Y19861
X58410Y20288
X58075Y20574
X59058Y20196
X58836Y19862
X52981Y20103
X53256Y20418
X52131Y20372
X51705Y20372
X51706Y19946
X52033Y19731
X52666Y19788
X49791Y19794
X45067
X38768
X32469
X27045Y19901
X27045Y20328
X26619Y20327
X26710Y19679
X26013Y19791
X25698Y20106
X25422Y20421
X23610Y19794
X21209Y20109
X21484Y20424
X20894Y19794
X20196Y19682
X19862Y19904
X19854Y20337
X20281Y20337
X20579Y20661
X20972Y21015
X21248Y21369
X21602Y21763
X21996Y22117
X22272Y22472
X22197Y22699
X22691Y22647
X23140Y23136
X23443Y23443
X23747Y23751
X23751Y23140
X23437Y22371
X23478Y21938
X23893Y21927
X23059Y21842
X22717Y21632
X22717Y21206
X22985Y21124
X22467Y20955
X22114Y21015
X21799Y20700
X19835Y21124
X20623Y22699
X21831Y23533
X21799Y23928
X22181Y23666
X22353Y23475
X23136Y23747
X23437Y24536
X23909Y24458
X23848Y24949
X23772Y25848
X21994Y25428
X21567Y25427
X21360Y25723
X21006Y25999
X20651Y26392
X20372Y26609
X20372Y27035
X19946Y27035
X19835Y27423
X19731Y26707
X19785Y26078
X20100Y25763
X20415Y25487
X20769Y25133
X21051Y24676
X21410Y24273
X22245Y24751
X22244Y25177
X22570Y24458
X19835Y24273
X21410Y27423
X22985
X23772Y28998
X22197
X20623
X19835Y30573
X21453Y30567
X22985Y30573
X23772Y32147
X22197
X20623
X19835Y33722
X21410
X22985
X23772Y35297
X22197
X20623
X25347
X26922
X28497
X30072
X31646
X33221
X33311Y34904
X33418Y33878
X34009Y33722
X34114Y34574
X34007Y35600
X35506Y35965
X36371Y35297
X37946
X39520
X38733Y33722
X37158
X37341Y32639
X37350Y32275
X36642Y32629
X36130
X35431Y32639
X35421Y32275
X35583Y33722
X36366Y31527
Y31172
X36371Y28998
X37144Y27423
X37429Y27511
X38138Y27275
X38650
X38756Y26490
X37946Y25848
X36371
X34796
X33221
X31646
X30072
X28497
X26922
X26643Y26152
X25498Y26186
X25724Y25243
X25657Y24401
X25343Y23928
X25224Y23653
X24776Y23355
X24500Y23395
X24555Y23771
X24366Y23947
X24274Y24950
X24803Y25490
X24560Y27423
X26135
X26890Y27578
X27486Y27013
X27586Y28274
X28176Y27709
X28282Y28970
X29085Y28640
X28978Y29666
X29781Y29336
X30072Y28998
X30477Y30032
X30370Y31058
X31173Y30728
X31491Y31659
X30690Y31989
X30072Y32147
X28497
X26922
X25347
X24560Y33722
X26135
X27709
X29284
X30859
X31919Y33512
X32026Y32486
X31223Y32816
X32722Y33182
X32615Y34208
X32434Y30573
X33221Y28998
X31646
X30859Y27423
X32434
X34009
X35583
X38374Y28220
X38374Y28574
X39358Y27511
X39634Y27432
X38850Y23757
X37252Y23762
X37946Y22699
X39520
X38733Y21124
X37158
X35583
X34009
X32434
X30859
X29284
X27709
X26328Y20658
X25934Y21012
X25776Y21566
X25579Y21409
X25894Y22038
X25455Y22447
X25185Y22786
X24988Y23023
X24226Y22800
X24189Y21629
X24190Y21202
X24441Y20951
X24867Y20952
X25068Y20776
X26922Y22699
X28497
X30072
X31646
X33221
X34796
X36371
X29284Y27423
Y30573
X29674Y30362
X27709Y30573
X26135
X24560
X25347Y28998
X26922
X39520Y32147
X41095
X42670
X43279Y32669
X44139Y32943
X43975Y31973
X44835Y32247
X45820Y32147
X45684Y31427
X46271Y30858
X46642Y31212
X46917Y32078
X47547Y32472
Y32747
X47821Y33416
X48217Y33338
X48492Y33416
X48827Y32975
X48571Y32314
X48217Y32393
X48689Y31212
X49757Y30573
X51331
X50815Y29204
X52119Y28998
X53694
X55268
X54481Y30573
X55268Y32147
X53694
X52119
X50544
X49757Y33722
X51331
X52906
X54481
X55268Y35297
X53694
X52119
X50544
X48969
X48098Y34204
X47429Y33889
X47114Y34204
X46563
X46996Y34794
X45820Y35297
X44245
X45032Y33722
X43443Y33639
X42583Y33365
X41883Y33722
X41887Y34061
X42747Y34335
X42051Y35031
X41191Y34757
X41355Y35727
X40496Y35453
X39800Y36149
X40308Y33722
Y30573
X41870Y31076
X42870
X43457Y30573
X44671Y31277
X44245Y28998
X42870Y28692
X41870
X41883Y27423
X40308
X40964Y26481
X41095Y25848
X41507Y25332
Y23757
X41095Y22699
X42670
X44245
X45820
X47394
X48969
X50544
X52119
X53694
X53563Y22244
X53990Y22245
X54283Y22570
X54286Y23009
X54993Y23136
X54990Y23747
X54988Y24558
X54793Y24366
X54283Y23909
X53770Y23851
X53610Y24150
X52623Y24007
X52508Y24403
X52845Y25104
X53160Y25969
X52251Y25744
X52464Y26665
X52783Y27314
X54481Y27423
X54831Y25385
X55106Y25070
X54208Y25227
X53895Y25315
X51555Y26440
X50571Y26441
X50544Y25848
X50682Y27242
X49707Y27375
X49587Y26451
X48969Y25848
X48847Y27101
X48182Y27423
X48151Y27797
X49011Y28071
X48969Y28998
X48315Y28767
X47455Y28493
X45870Y28338
X45894Y28731
X46259Y29661
X46607Y27423
X45032
X45820Y25848
X47394
X44245
X42670
X39909Y23762
X40308Y21124
X41883
X43457
X45032
X46607
X48182
X49757
X51331
X52351Y20654
X52744Y21009
X53020Y21363
X53313Y21567
X53312Y21994
X53611Y20772
X54043Y21133
X54481Y21124
X54398Y21448
X54752Y21763
X55207Y21831
X55074Y22181
X55265Y22353
X55343Y23398
X55604Y23140
X55600Y23751
X55940Y24226
X55374Y24557
X55343Y24834
X55697Y25031
X55894Y25188
X56327Y25306
X56681Y26015
X57154Y25661
X57376Y25656
X57730Y25932
X58085Y26326
X58413Y26619
X58413Y27045
X58839Y27045
X59061Y26710
X58951Y26011
X58636Y25696
X58321Y25420
X57967Y25066
X57665Y24716
X57538Y24190
X57112Y24189
X56814Y23893
X56802Y23478
X56369Y23437
X56957Y23101
X57108Y22717
X57535Y22717
X57786Y22467
X57705Y22117
X57957Y21834
X58311Y21479
X58626Y21204
X58941Y20889
X57721Y20968
X57366Y21243
X56973Y21598
X56681Y21881
X56366Y22235
X56094Y22691
X56056Y21124
X58418Y22699
X58846Y23731
X57631Y27423
X56056
X56843Y28998
X58418
X57631Y30573
X56056
X56843Y32147
X58418
X57631Y33722
X56056
X56843Y35297
X58418
X57631Y36872
X56056
X56843Y38447
X58418
X57631Y40021
X56056
X56843Y41596
X58418
X57631Y43171
X56056
X56843Y44746
X58418
X57631Y46321
X56056
X56843Y47895
X58418
X57631Y49470
X58418Y51045
X58368Y51705
X58794Y51706
X56843Y51045
X55268
X53694
X52119
X51893Y51171
X50754Y51166
X51197Y50475
X50058Y50470
X48969Y51045
X48470Y50076
X47394Y51045
X45820
X44245
X42670
X41095
X40308Y49470
X41883
X45032
Y46321
X45882Y46294
X46325Y45604
X45186Y45599
X45629Y44908
X45820Y44746
X44933Y44212
X44490Y44903
X44245Y44746
X43794Y44207
X44237Y43516
X44177Y42533
X43375Y42332
Y43316
X41883Y43171
X40308
X40224Y41802
X40972
X40677Y41487
X41484Y41133
X41366Y40700
Y40346
X40641Y39985
X40378Y39997
X40118Y40082
X40126Y40362
X39902Y40506
X39802Y39380
X40618Y39519
X40804Y38691
X41104Y38808
X41095Y38447
X40371Y38219
X40146Y38613
X40066Y37208
X40308Y36872
X40659Y36422
X41883Y36872
X43457
X44831Y37826
X45820Y38447
X47394
X48969
X50544
X52119
X53694
X55268
X54481Y40021
X52906
X51331
X49757
X50544Y41596
X52119
X53694
X55268
X54481Y43171
X52906
X51331
X52119Y44746
X53694
X55268
X54481Y46321
X55268Y47895
X53694
X52119
X52427Y49687
X54481Y49470
X51331Y46321
X49757
X48182
X47717Y46996
X47274Y47686
X48470Y47692
X48969Y47895
X49109Y48387
X47970Y48382
X46578Y46990
X47021Y46300
X47394Y44746
X48969
X50544
X48182Y43171
X46607
X45032
X45820Y41596
X47394
X48969
X46607Y40021
X45032
X44245Y41596
X43888Y41592
X42741Y41579
X43192Y40896
X42862Y39755
X41800Y39504
X42670Y38447
X46996Y36960
X48182Y36872
X49757
X51331
X52906
X54481
X42670Y44746
X41095
X40308Y46321
X41883
X39672Y46102
Y45118
Y44134
Y43149
X38733Y43171
X38871Y42736
Y43721
Y44705
X37946Y44746
X38871Y45689
X38733Y46321
X38871Y46673
Y47658
X39672Y47086
X37158Y46321
X35583
X36371Y47895
Y51045
X37946
X38871Y50610
Y51595
X39672Y51023
X34796Y51045
X33221
X31646
X32434Y49470
X32036Y47408
X30919Y47391
X30859Y46321
X31615Y46695
X32732Y46712
X32311Y45999
X33428Y46016
X33007Y45303
X33221Y44746
X33703Y44607
X34819Y44624
X34399Y43911
X34009Y43171
X35020Y43148
X35822Y42993
Y42009
X35020Y42164
X34796Y41596
X35295Y41219
X36420Y41227
X36371Y41596
X35991Y40523
X35583Y40021
X36574Y39909
X37116Y40531
X37730Y39937
X37383Y39131
X37913Y38693
X38638Y38608
X38346Y38220
X38649Y37916
X38053Y37833
X38098Y37031
X38733Y36872
X39265Y36975
X39045Y37300
X39365Y37983
X39373Y38945
X39370Y39377
X39373Y39804
X38938Y39374
X38886Y40936
X38610Y40661
Y41763
X39672Y42165
X35515Y43928
X34123Y45320
X31646Y44746
X30072
X28497
X26922
X25347
X24560Y46321
X26135
X27709
X29284
X28497Y47895
X29431Y48854
X29252Y50192
X28135Y50175
X28556Y50888
X27439Y50871
X26922Y51045
X26743Y51567
X27860Y51584
X25347Y51045
Y47895
X30299Y47997
X31340Y48104
X30859Y43171
X29284
X27709
X26135
X24560
X25347Y41596
X26922
X28497
X30072
X31646
X33221
Y38447
X31646
X30735Y38883
X30072Y38447
X28497
X26922
X25347
X24560Y40021
X26135
X27709
X29284
X30859
Y36872
X32434
X34009
X35399Y36992
X36202Y36661
X36095Y37688
X36371Y38447
X37068Y37833
X37114Y37031
X35261Y38883
X29284Y36872
X27709
X26135
X24560
X22985
X21410
X19835
X20623Y38447
X22197
X23772
X22985Y40021
X21410
X19835
X20623Y41596
X22197
X23772
X22985Y43171
X21410
X19835
X20623Y44746
X22197
X23772
X22985Y46321
X21410
X19835
X20623Y47895
X22197
X21410Y49470
X22985
X23772Y51045
X22197
X20623
X20328Y51695
X19901Y51695
X19835Y49470
X19679Y52030
X20327Y52122
X20679Y52517
X21073Y52872
X21494Y52867
X21410Y52620
X21366Y53101
X22232Y52826
X22429Y53338
X22823Y53495
X23059Y53731
X23355Y53965
X23395Y54240
X23689Y54204
X23947Y54375
X23751Y54993
X23443Y55297
X23136Y55600
X23140Y54990
X22800Y54514
X21927Y54847
X21938Y55263
X22371Y55303
X21839Y55700
X21410Y55769
X21206Y56023
X21632Y56023
X20955Y56273
X20954Y56700
X20758Y56875
X20443Y57190
X20167Y57505
X19813Y57859
X19682Y58544
X19904Y58878
X20330Y58879
X20330Y58453
X20679Y58095
X21073Y57741
X21445Y57393
X21878Y57038
X22197Y57344
X22232Y56684
X22647Y56049
X23475Y56388
X23666Y56559
X23533Y56909
X23772Y57344
X24043Y57078
X23747Y55604
X23650Y53692
X23925Y53416
X22985Y52620
X20952Y53873
X20758Y53738
X20623Y54195
X20951Y54300
X21202Y54550
X21629Y54551
X20443Y53423
X20167Y53108
X19813Y52753
X19835Y55769
X23020Y58771
X24516Y57511
X25128Y57966
X25482Y58320
X25758Y58635
X26073Y58950
X26707Y59009
X27035Y58794
X27035Y58368
X26609Y58368
X26388Y58084
X25994Y57730
X25718Y57375
X25427Y57173
X25428Y56747
X25177Y56496
X24751Y56495
X24458Y56170
X24454Y55731
X24536Y55303
X24458Y54831
X24946Y54911
X24947Y54484
X25347Y54195
X25772Y53672
X26366Y53141
X26047Y52263
X27164Y52280
X26922Y54195
X28497
X30072
X31646
X33221
X34796
X36371
X37946
X38610Y54204
X38768Y53889
X38886Y54479
X38677Y55511
X39676Y54959
X39316Y56617
X39520Y57344
X39555Y58771
X36371Y57344
X34796
X34831Y58771
X33221Y57344
X31646
X30072
X30106Y58771
X28497Y57344
X26922
X26135Y55769
X27709
X29284
X30859
X32434
X34009
X35583
X37158
Y52620
X35583
X34009
X32434
X30859
X29284
X25146Y53141
X24437Y53377
X24560Y52620
X38571Y52865
X38768Y53180
X38846Y52432
X39673Y52235
X40308Y52620
X39791Y53180
Y54046
X41095Y54195
X42670
X44245
X45820
X47394
X48969
X50544
X49757Y55769
X51331
X52744Y56566
X52862Y57078
X53061Y57399
X52785Y57753
X52391Y58108
X52115Y58406
X51688Y58406
X51688Y58832
X52037Y59068
X52823Y58947
X53286Y58457
X53689Y57988
X54163Y57608
X54550Y57538
X54551Y57112
X54847Y56814
X55263Y56802
X55303Y56369
X55268Y57344
X55106Y58771
X54990Y55600
X55297Y55297
X54993Y54990
X54375Y54793
X54165Y54959
X54240Y55346
X53965Y55385
X53807Y55661
X53531Y55936
X53138Y56212
X53413Y57117
X52119Y57344
X50544
X48969
X47394
X45820
X44245
X44280Y58771
X42670Y57344
X41095
X40308Y55769
X39984Y55894
X41883Y55769
X43457
X45032
X46607
X48182
Y52620
X46607
X45032
X43457
X41883
X51331
X52146Y52558
X53284Y52563
X52842Y53254
X53980Y53259
X54481Y53772
X54908Y53773
X54831Y54283
X53413Y54204
Y53889
Y54755
X53689Y55031
X54514Y55940
X54481Y52620
X48807Y58771
X56023Y57535
X56023Y57108
X55697Y56881
X56049Y56094
X56524Y56409
X57035Y56881
X57350Y57275
X57738Y57686
X58092Y58080
X58453Y58410
X58879Y58410
X58878Y58836
X58537Y59065
X57856Y58946
X57502Y58592
X57187Y58316
X56872Y58001
X56563Y57668
X58418Y57344
X58846Y55818
X57631Y55769
X56909Y55207
X56559Y55074
X56388Y55265
X55604Y54993
X55600Y55604
X55731Y54286
X56170Y54283
X56495Y53990
X56496Y53563
X56996Y53416
X57357Y53041
X57711Y52765
X58065Y52371
X58368Y52131
X59023Y52047
X58931Y52686
X58617Y53001
X58302Y53277
X57947Y53631
X57665Y53928
X57429Y54243
X56957Y54716
X58418Y54195
X55338Y54220
X56056Y52620
T02
X68898Y7008
X49213Y7008
X29528Y7008
X9843
Y26693
X68898Y26693
Y46374
X9843Y46378
X9843Y66063
X29528Y66063
X49213
X68898
T03
X39276Y55902
T04
X38276Y54902
Y56902
X40276
Y54902
T05
X20870Y29884
X32870Y31884
X53370Y29884
X52870Y48884
X32870Y42884
T06
X2756Y2756
X75984
Y75984
X2756
M30
