G04*
G04 #@! TF.GenerationSoftware,Altium Limited,Altium Designer,19.0.15 (446)*
G04*
G04 Layer_Physical_Order=2*
G04 Layer_Color=36540*
%FSLAX24Y24*%
%MOIN*%
G70*
G01*
G75*
%ADD45C,0.0240*%
G36*
X3216Y310D02*
X1589D01*
X1575Y330D01*
X1556Y352D01*
X1534Y371D01*
X1510Y387D01*
X1484Y400D01*
X1457Y409D01*
X1429Y415D01*
X1400Y417D01*
X1371Y415D01*
X1343Y409D01*
X1316Y400D01*
X1290Y387D01*
X1266Y371D01*
X1244Y352D01*
X1225Y330D01*
X1211Y310D01*
X560D01*
Y-939D01*
X3216D01*
Y-2232D01*
X-2822D01*
Y-341D01*
X-2822Y-340D01*
X-2772Y-311D01*
X-2771Y-312D01*
X-2744Y-321D01*
X-2716Y-327D01*
X-2687Y-329D01*
X-2658Y-327D01*
X-2630Y-321D01*
X-2603Y-312D01*
X-2577Y-299D01*
X-2553Y-283D01*
X-2531Y-264D01*
X-2512Y-242D01*
X-2496Y-219D01*
X-2483Y-193D01*
X-2474Y-165D01*
X-2468Y-137D01*
X-2467Y-108D01*
X-2468Y-79D01*
X-2474Y-51D01*
X-2483Y-24D01*
X-2496Y2D01*
X-2512Y26D01*
X-2531Y48D01*
X-2553Y67D01*
X-2577Y83D01*
X-2603Y95D01*
X-2630Y105D01*
X-2658Y110D01*
X-2687Y112D01*
X-2716Y110D01*
X-2744Y105D01*
X-2771Y95D01*
X-2772Y95D01*
X-2822Y124D01*
X-2822Y125D01*
Y3019D01*
X3216D01*
Y310D01*
D02*
G37*
%LPC*%
G36*
X1590Y1936D02*
X1561Y1934D01*
X1533Y1928D01*
X1506Y1919D01*
X1480Y1906D01*
X1456Y1890D01*
X1434Y1871D01*
X1415Y1849D01*
X1399Y1825D01*
X1386Y1799D01*
X1377Y1772D01*
X1371Y1744D01*
X1370Y1715D01*
X1371Y1686D01*
X1377Y1658D01*
X1386Y1631D01*
X1399Y1605D01*
X1415Y1581D01*
X1434Y1559D01*
X1456Y1540D01*
X1480Y1524D01*
X1506Y1511D01*
X1533Y1502D01*
X1561Y1496D01*
X1590Y1495D01*
X1619Y1496D01*
X1647Y1502D01*
X1674Y1511D01*
X1700Y1524D01*
X1724Y1540D01*
X1746Y1559D01*
X1765Y1581D01*
X1781Y1605D01*
X1794Y1631D01*
X1803Y1658D01*
X1809Y1686D01*
X1810Y1715D01*
X1809Y1744D01*
X1803Y1772D01*
X1794Y1799D01*
X1781Y1825D01*
X1765Y1849D01*
X1746Y1871D01*
X1724Y1890D01*
X1700Y1906D01*
X1674Y1919D01*
X1647Y1928D01*
X1619Y1934D01*
X1590Y1936D01*
D02*
G37*
G36*
X-1496Y1844D02*
X-1525Y1843D01*
X-1553Y1837D01*
X-1580Y1828D01*
X-1606Y1815D01*
X-1630Y1799D01*
X-1652Y1780D01*
X-1671Y1758D01*
X-1687Y1734D01*
X-1700Y1708D01*
X-1709Y1681D01*
X-1715Y1653D01*
X-1717Y1624D01*
X-1715Y1595D01*
X-1709Y1567D01*
X-1700Y1540D01*
X-1687Y1514D01*
X-1671Y1490D01*
X-1652Y1468D01*
X-1630Y1449D01*
X-1606Y1433D01*
X-1580Y1420D01*
X-1553Y1411D01*
X-1525Y1405D01*
X-1496Y1404D01*
X-1467Y1405D01*
X-1439Y1411D01*
X-1412Y1420D01*
X-1386Y1433D01*
X-1362Y1449D01*
X-1340Y1468D01*
X-1321Y1490D01*
X-1305Y1514D01*
X-1292Y1540D01*
X-1283Y1567D01*
X-1277Y1595D01*
X-1276Y1624D01*
X-1277Y1653D01*
X-1283Y1681D01*
X-1292Y1708D01*
X-1305Y1734D01*
X-1321Y1758D01*
X-1340Y1780D01*
X-1362Y1799D01*
X-1386Y1815D01*
X-1412Y1828D01*
X-1439Y1837D01*
X-1467Y1843D01*
X-1496Y1844D01*
D02*
G37*
G36*
X-450Y1546D02*
X-479Y1544D01*
X-507Y1538D01*
X-534Y1529D01*
X-560Y1516D01*
X-584Y1500D01*
X-606Y1481D01*
X-625Y1459D01*
X-641Y1435D01*
X-654Y1409D01*
X-663Y1382D01*
X-669Y1354D01*
X-670Y1325D01*
X-669Y1296D01*
X-663Y1268D01*
X-654Y1241D01*
X-641Y1215D01*
X-625Y1191D01*
X-606Y1169D01*
X-584Y1150D01*
X-560Y1134D01*
X-534Y1121D01*
X-507Y1112D01*
X-479Y1106D01*
X-450Y1105D01*
X-421Y1106D01*
X-393Y1112D01*
X-366Y1121D01*
X-340Y1134D01*
X-316Y1150D01*
X-294Y1169D01*
X-275Y1191D01*
X-259Y1215D01*
X-246Y1241D01*
X-237Y1268D01*
X-231Y1296D01*
X-230Y1325D01*
X-231Y1354D01*
X-237Y1382D01*
X-246Y1409D01*
X-259Y1435D01*
X-275Y1459D01*
X-294Y1481D01*
X-316Y1500D01*
X-340Y1516D01*
X-366Y1529D01*
X-393Y1538D01*
X-421Y1544D01*
X-450Y1546D01*
D02*
G37*
G36*
X748Y-1433D02*
X719Y-1435D01*
X691Y-1441D01*
X664Y-1450D01*
X638Y-1463D01*
X614Y-1479D01*
X592Y-1498D01*
X573Y-1519D01*
X557Y-1543D01*
X544Y-1569D01*
X535Y-1596D01*
X529Y-1625D01*
X528Y-1654D01*
X529Y-1682D01*
X535Y-1711D01*
X544Y-1738D01*
X557Y-1764D01*
X573Y-1788D01*
X592Y-1809D01*
X614Y-1828D01*
X638Y-1844D01*
X664Y-1857D01*
X691Y-1866D01*
X719Y-1872D01*
X748Y-1874D01*
X777Y-1872D01*
X805Y-1866D01*
X832Y-1857D01*
X858Y-1844D01*
X882Y-1828D01*
X904Y-1809D01*
X923Y-1788D01*
X939Y-1764D01*
X952Y-1738D01*
X961Y-1711D01*
X967Y-1682D01*
X969Y-1654D01*
X967Y-1625D01*
X961Y-1596D01*
X952Y-1569D01*
X939Y-1543D01*
X923Y-1519D01*
X904Y-1498D01*
X882Y-1479D01*
X858Y-1463D01*
X832Y-1450D01*
X805Y-1441D01*
X777Y-1435D01*
X748Y-1433D01*
D02*
G37*
%LPD*%
D45*
X-1506Y-719D02*
D03*
X-797Y1437D02*
D03*
X-1370Y-2110D02*
D03*
X1360D02*
D03*
X2120Y405D02*
D03*
X1368Y1939D02*
D03*
X1530Y979D02*
D03*
X2410Y1431D02*
D03*
X-150Y1375D02*
D03*
X3091Y1939D02*
D03*
X1998Y-1348D02*
D03*
X3091Y-2106D02*
D03*
X2254Y2894D02*
D03*
X3091Y-1348D02*
D03*
X1998Y-2106D02*
D03*
X1063Y-1063D02*
D03*
X1367Y-1634D02*
D03*
X472Y-1850D02*
D03*
X728Y-2106D02*
D03*
X433Y-433D02*
D03*
X0D02*
D03*
X-433D02*
D03*
X433Y0D02*
D03*
X0D02*
D03*
X-433D02*
D03*
X433Y433D02*
D03*
X0D02*
D03*
X-433D02*
D03*
X3091Y2894D02*
D03*
X1407D02*
D03*
X-1526Y1319D02*
D03*
X-2697Y2894D02*
D03*
X-1220D02*
D03*
X305D02*
D03*
X-1909Y-1526D02*
D03*
X-2697Y-1555D02*
D03*
Y1437D02*
D03*
X3100Y1043D02*
D03*
X-2697Y-2106D02*
D03*
X-2402Y1929D02*
D03*
X-2087D02*
D03*
X-2431Y-709D02*
D03*
X-2431Y-276D02*
D03*
X-1220Y2244D02*
D03*
X39Y2451D02*
D03*
X344Y2126D02*
D03*
M02*
