G04*
G04 #@! TF.GenerationSoftware,Altium Limited,Altium Designer,19.0.15 (446)*
G04*
G04 Layer_Color=8421504*
%FSLAX24Y24*%
%MOIN*%
G70*
G01*
G75*
%ADD16R,0.0106X0.0118*%
%ADD17R,0.0118X0.0106*%
%ADD18R,0.0217X0.0256*%
%ADD19R,0.0236X0.0197*%
%ADD20R,0.0295X0.0551*%
%ADD21R,0.0295X0.0315*%
%ADD22R,0.0315X0.0315*%
%ADD23R,0.0197X0.0236*%
%ADD24R,0.1378X0.1378*%
%ADD25O,0.0079X0.0335*%
%ADD26O,0.0335X0.0079*%
D16*
X1852Y185D02*
D03*
X1628D02*
D03*
X1852Y415D02*
D03*
X1628D02*
D03*
X1858Y715D02*
D03*
X2082D02*
D03*
X2082Y1715D02*
D03*
X1858D02*
D03*
X2408Y-276D02*
D03*
X2632D02*
D03*
X1699D02*
D03*
X1923D02*
D03*
D17*
X1339Y1697D02*
D03*
Y1472D02*
D03*
X423Y-1608D02*
D03*
Y-1384D02*
D03*
X1417Y-1372D02*
D03*
Y-1148D02*
D03*
X-1516Y1067D02*
D03*
Y843D02*
D03*
X1457Y-270D02*
D03*
Y-45D02*
D03*
X-2283Y1608D02*
D03*
Y1384D02*
D03*
X-2047Y1608D02*
D03*
Y1384D02*
D03*
X2165Y-270D02*
D03*
Y-45D02*
D03*
D18*
X1803Y979D02*
D03*
X2137D02*
D03*
Y1431D02*
D03*
X1803Y1431D02*
D03*
D19*
X29Y1876D02*
D03*
X-364D02*
D03*
D20*
X-1880Y945D02*
D03*
X-2451D02*
D03*
D21*
X-1545Y-276D02*
D03*
X-2077D02*
D03*
D22*
X3091Y-315D02*
D03*
D23*
X-1181Y1890D02*
D03*
Y1496D02*
D03*
D24*
X0Y0D02*
D03*
D25*
X-709Y945D02*
D03*
X-551D02*
D03*
X-394D02*
D03*
X-236D02*
D03*
X-79D02*
D03*
X79D02*
D03*
X236D02*
D03*
X394D02*
D03*
X551D02*
D03*
X709D02*
D03*
Y-945D02*
D03*
X551D02*
D03*
X394D02*
D03*
X236D02*
D03*
X79D02*
D03*
X-79D02*
D03*
X-236D02*
D03*
X-394D02*
D03*
X-551D02*
D03*
X-709D02*
D03*
D26*
X945Y709D02*
D03*
Y551D02*
D03*
Y394D02*
D03*
Y236D02*
D03*
Y79D02*
D03*
Y-79D02*
D03*
Y-236D02*
D03*
Y-394D02*
D03*
Y-551D02*
D03*
Y-709D02*
D03*
X-945D02*
D03*
Y-551D02*
D03*
Y-394D02*
D03*
Y-236D02*
D03*
Y-79D02*
D03*
Y79D02*
D03*
Y236D02*
D03*
Y394D02*
D03*
Y551D02*
D03*
Y709D02*
D03*
M02*
