G04*
G04 #@! TF.GenerationSoftware,Altium Limited,Altium Designer,19.0.15 (446)*
G04*
G04 Layer_Color=65535*
%FSLAX24Y24*%
%MOIN*%
G70*
G01*
G75*
%ADD10C,0.0098*%
%ADD11C,0.0060*%
%ADD12C,0.0049*%
%ADD13C,0.0079*%
%ADD14C,0.0059*%
%ADD15C,0.0050*%
D10*
X-1250Y984D02*
G03*
X-1250Y984I-49J0D01*
G01*
D11*
X2010Y415D02*
X2220D01*
X2010Y185D02*
X2220D01*
X-522Y1738D02*
Y2014D01*
X187Y1738D02*
Y2014D01*
X-69Y1738D02*
X187D01*
X-522D02*
X-266D01*
X-69Y2014D02*
X187D01*
X-522D02*
X-266D01*
X-2274Y-79D02*
X-1909D01*
X-1713D02*
X-1348D01*
X-2274Y-472D02*
X-1909D01*
X-1713D02*
X-1348D01*
Y-79D01*
X-2274Y-472D02*
Y-79D01*
X-1043Y1791D02*
Y2047D01*
Y1339D02*
Y1594D01*
X-1319Y1791D02*
Y2047D01*
Y1339D02*
Y1594D01*
Y1339D02*
X-1043D01*
X-1319Y2047D02*
X-1043D01*
X-2274Y-512D02*
X-1909D01*
X-1713D02*
X-1348D01*
X-2274Y-906D02*
X-1909D01*
X-1713D02*
X-1348D01*
Y-512D01*
X-2274Y-906D02*
Y-512D01*
X-1732Y-1880D02*
Y-1516D01*
Y-1319D02*
Y-955D01*
X-1339Y-1880D02*
Y-1516D01*
Y-1319D02*
Y-955D01*
X-1732D02*
X-1339D01*
X-1732Y-1880D02*
X-1339D01*
X-1181Y-2234D02*
Y-1870D01*
Y-1673D02*
Y-1309D01*
X-787Y-2234D02*
Y-1870D01*
Y-1673D02*
Y-1309D01*
X-1181D02*
X-787D01*
X-1181Y-2234D02*
X-787D01*
D12*
X1547Y98D02*
Y272D01*
X1933Y98D02*
Y272D01*
X1809Y98D02*
X1933D01*
X1547D02*
X1671D01*
X1809Y272D02*
X1933D01*
X1547D02*
X1671D01*
X1809Y328D02*
X1933D01*
X1547D02*
X1671D01*
X1809Y502D02*
X1933D01*
X1547D02*
X1671D01*
X1547Y328D02*
Y502D01*
X1933Y328D02*
X1933Y502D01*
X1425Y1778D02*
X1425Y1654D01*
Y1392D02*
Y1516D01*
X1252Y1654D02*
Y1778D01*
Y1392D02*
Y1516D01*
Y1392D02*
X1425D01*
X1252Y1778D02*
X1425D01*
X1777Y802D02*
X1901D01*
X2039D02*
X2163D01*
X1777Y628D02*
X1901D01*
X2039D02*
X2163D01*
Y802D01*
X1777Y628D02*
Y802D01*
X1962Y859D02*
X1978Y859D01*
X1702Y1166D02*
Y1244D01*
X1962Y1551D02*
X1978D01*
X2238Y1166D02*
X2238Y1244D01*
X2039Y1628D02*
X2163Y1628D01*
X1777D02*
X1901Y1628D01*
X2039Y1802D02*
X2163Y1802D01*
X1777Y1802D02*
X1901D01*
X1777Y1628D02*
Y1802D01*
X2163Y1628D02*
Y1802D01*
X2713Y-362D02*
Y-189D01*
X2327Y-362D02*
Y-189D01*
X2451D01*
X2589D02*
X2713D01*
X2327Y-362D02*
X2451D01*
X2589D02*
X2713D01*
X337Y-1689D02*
Y-1565D01*
Y-1427D02*
Y-1303D01*
X510Y-1689D02*
Y-1565D01*
Y-1427D02*
Y-1303D01*
X337D02*
X510D01*
X337Y-1689D02*
X510D01*
X1331Y-1453D02*
Y-1329D01*
Y-1191D02*
Y-1067D01*
X1504Y-1453D02*
Y-1329D01*
Y-1191D02*
Y-1067D01*
X1331D02*
X1504D01*
X1331Y-1453D02*
X1504D01*
X-1429Y1024D02*
Y1148D01*
Y762D02*
Y886D01*
X-1602Y1024D02*
Y1148D01*
Y762D02*
Y886D01*
Y762D02*
X-1429D01*
X-1602Y1148D02*
X-1429D01*
X1370Y-350D02*
Y-226D01*
Y-89D02*
Y35D01*
X1543Y-350D02*
Y-226D01*
Y-89D02*
Y35D01*
X1370D02*
X1543D01*
X1370Y-350D02*
X1543D01*
X2004Y-362D02*
Y-189D01*
X1618Y-362D02*
Y-189D01*
X1742D01*
X1880D02*
X2004D01*
X1618Y-362D02*
X1742D01*
X1880D02*
X2004D01*
X-2197Y1565D02*
Y1689D01*
Y1303D02*
Y1427D01*
X-2370Y1565D02*
Y1689D01*
Y1303D02*
Y1427D01*
Y1303D02*
X-2197D01*
X-2370Y1689D02*
X-2197D01*
X-1961Y1565D02*
Y1689D01*
Y1303D02*
Y1427D01*
X-2134Y1565D02*
Y1689D01*
Y1303D02*
Y1427D01*
Y1303D02*
X-1961D01*
X-2134Y1689D02*
X-1961D01*
X2079Y-350D02*
Y-226D01*
Y-89D02*
Y35D01*
X2252Y-350D02*
Y-226D01*
Y-89D02*
Y35D01*
X2079D02*
X2252D01*
X2079Y-350D02*
X2252D01*
D13*
X-2260Y709D02*
X-2071D01*
X-2260Y1181D02*
X-2071D01*
X-1850Y-157D02*
X-1772D01*
X-1850Y-394D02*
X-1772D01*
X-1850Y-591D02*
X-1772D01*
X-1850Y-827D02*
X-1772D01*
X-1654Y-1457D02*
Y-1378D01*
X-1417Y-1457D02*
Y-1378D01*
X-1102Y-1811D02*
Y-1732D01*
X-866Y-1811D02*
Y-1732D01*
D14*
X-1043Y-1043D02*
X-896D01*
X-1043D02*
Y-896D01*
X896Y-1043D02*
X1043D01*
Y-896D01*
Y896D02*
Y1043D01*
X896D02*
X1043D01*
X-1043D02*
X-896D01*
X-1043Y896D02*
Y1043D01*
D15*
X973Y1554D02*
X931Y1513D01*
Y1429D01*
X973Y1388D01*
X1139D01*
X1181Y1429D01*
Y1513D01*
X1139Y1554D01*
X1181Y1638D02*
Y1721D01*
Y1679D01*
X931D01*
X973Y1638D01*
X1181Y1846D02*
Y1929D01*
Y1888D01*
X931D01*
X973Y1846D01*
X2487Y548D02*
X2445Y590D01*
X2362D01*
X2320Y548D01*
Y382D01*
X2362Y340D01*
X2445D01*
X2487Y382D01*
X2570Y340D02*
X2653D01*
X2612D01*
Y590D01*
X2570Y548D01*
X2778D02*
X2820Y590D01*
X2903D01*
X2945Y548D01*
Y382D01*
X2903Y340D01*
X2820D01*
X2778Y382D01*
Y548D01*
X1527Y798D02*
X1485Y840D01*
X1402D01*
X1360Y798D01*
Y632D01*
X1402Y590D01*
X1485D01*
X1527Y632D01*
X1610Y590D02*
X1693D01*
X1652D01*
Y840D01*
X1610Y798D01*
X1300Y1330D02*
X1467Y1080D01*
Y1330D02*
X1300Y1080D01*
X1550D02*
X1633D01*
X1592D01*
Y1330D01*
X1550Y1288D01*
X1927Y2078D02*
X1885Y2120D01*
X1802D01*
X1760Y2078D01*
Y1912D01*
X1802Y1870D01*
X1885D01*
X1927Y1912D01*
X2177Y1870D02*
X2010D01*
X2177Y2037D01*
Y2078D01*
X2135Y2120D01*
X2052D01*
X2010Y2078D01*
X2487Y238D02*
X2445Y280D01*
X2362D01*
X2320Y238D01*
Y72D01*
X2362Y30D01*
X2445D01*
X2487Y72D01*
X2570D02*
X2612Y30D01*
X2695D01*
X2737Y72D01*
Y238D01*
X2695Y280D01*
X2612D01*
X2570Y238D01*
Y197D01*
X2612Y155D01*
X2737D01*
X413Y1960D02*
X371Y2002D01*
X288D01*
X246Y1960D01*
Y1794D01*
X288Y1752D01*
X371D01*
X413Y1794D01*
X496Y1752D02*
X579D01*
X538D01*
Y2002D01*
X496Y1960D01*
X704D02*
X746Y2002D01*
X829D01*
X871Y1960D01*
Y1919D01*
X829Y1877D01*
X788D01*
X829D01*
X871Y1835D01*
Y1794D01*
X829Y1752D01*
X746D01*
X704Y1794D01*
X2362Y-449D02*
Y-699D01*
X2529D01*
X2779D02*
X2612D01*
X2779Y-532D01*
Y-491D01*
X2737Y-449D01*
X2654D01*
X2612Y-491D01*
X-681Y-1959D02*
X-722Y-2001D01*
Y-2084D01*
X-681Y-2126D01*
X-514D01*
X-472Y-2084D01*
Y-2001D01*
X-514Y-1959D01*
X-472Y-1876D02*
Y-1793D01*
Y-1834D01*
X-722D01*
X-681Y-1876D01*
X-514Y-1668D02*
X-472Y-1626D01*
Y-1543D01*
X-514Y-1501D01*
X-681D01*
X-722Y-1543D01*
Y-1626D01*
X-681Y-1668D01*
X-639D01*
X-597Y-1626D01*
Y-1501D01*
X-2019Y-1763D02*
X-2061Y-1804D01*
Y-1887D01*
X-2019Y-1929D01*
X-1853D01*
X-1811Y-1887D01*
Y-1804D01*
X-1853Y-1763D01*
X-1811Y-1679D02*
Y-1596D01*
Y-1638D01*
X-2061D01*
X-2019Y-1679D01*
Y-1471D02*
X-2061Y-1429D01*
Y-1346D01*
X-2019Y-1304D01*
X-1978D01*
X-1936Y-1346D01*
X-1894Y-1304D01*
X-1853D01*
X-1811Y-1346D01*
Y-1429D01*
X-1853Y-1471D01*
X-1894D01*
X-1936Y-1429D01*
X-1978Y-1471D01*
X-2019D01*
X-1936Y-1429D02*
Y-1346D01*
X-2274Y-1012D02*
X-2316Y-971D01*
X-2399D01*
X-2441Y-1012D01*
Y-1179D01*
X-2399Y-1220D01*
X-2316D01*
X-2274Y-1179D01*
X-2191Y-1220D02*
X-2108D01*
X-2149D01*
Y-971D01*
X-2191Y-1012D01*
X-1983Y-971D02*
X-1816D01*
Y-1012D01*
X-1983Y-1179D01*
Y-1220D01*
X-1626Y1545D02*
X-1667Y1503D01*
Y1420D01*
X-1626Y1378D01*
X-1459D01*
X-1417Y1420D01*
Y1503D01*
X-1459Y1545D01*
X-1417Y1628D02*
Y1711D01*
Y1670D01*
X-1667D01*
X-1626Y1628D01*
X-1417Y2003D02*
Y1836D01*
X-1584Y2003D01*
X-1626D01*
X-1667Y1961D01*
Y1878D01*
X-1626Y1836D01*
X2075Y-700D02*
X2034Y-741D01*
Y-824D01*
X2075Y-866D01*
X2242D01*
X2283Y-824D01*
Y-741D01*
X2242Y-700D01*
X2283Y-491D02*
X2034D01*
X2159Y-616D01*
Y-450D01*
X-1596Y423D02*
X-1638Y381D01*
Y298D01*
X-1596Y256D01*
X-1429D01*
X-1388Y298D01*
Y381D01*
X-1429Y423D01*
X-1638Y672D02*
Y506D01*
X-1513D01*
X-1554Y589D01*
Y631D01*
X-1513Y672D01*
X-1429D01*
X-1388Y631D01*
Y547D01*
X-1429Y506D01*
X619Y-1536D02*
X577Y-1578D01*
Y-1661D01*
X619Y-1703D01*
X785D01*
X827Y-1661D01*
Y-1578D01*
X785Y-1536D01*
X577Y-1453D02*
Y-1286D01*
X619D01*
X785Y-1453D01*
X827D01*
X1642Y-1290D02*
X1600Y-1332D01*
Y-1415D01*
X1642Y-1457D01*
X1809D01*
X1850Y-1415D01*
Y-1332D01*
X1809Y-1290D01*
X1642Y-1207D02*
X1600Y-1165D01*
Y-1082D01*
X1642Y-1040D01*
X1684D01*
X1725Y-1082D01*
X1767Y-1040D01*
X1809D01*
X1850Y-1082D01*
Y-1165D01*
X1809Y-1207D01*
X1767D01*
X1725Y-1165D01*
X1684Y-1207D01*
X1642D01*
X1725Y-1165D02*
Y-1082D01*
X-2117Y189D02*
X-2159Y230D01*
X-2242D01*
X-2283Y189D01*
Y22D01*
X-2242Y-20D01*
X-2159D01*
X-2117Y22D01*
X-1867Y230D02*
X-1950Y189D01*
X-2034Y105D01*
Y22D01*
X-1992Y-20D01*
X-1909D01*
X-1867Y22D01*
Y64D01*
X-1909Y105D01*
X-2034D01*
X-207Y-1177D02*
Y-1386D01*
X-165Y-1427D01*
X-82D01*
X-40Y-1386D01*
Y-1177D01*
X43Y-1427D02*
X127D01*
X85D01*
Y-1177D01*
X43Y-1219D01*
X-2382Y594D02*
X-2215Y344D01*
Y594D02*
X-2382Y344D01*
X-1965D02*
X-2132D01*
X-1965Y511D01*
Y553D01*
X-2007Y594D01*
X-2090D01*
X-2132Y553D01*
X-2413Y1938D02*
X-2455Y1897D01*
Y1813D01*
X-2413Y1772D01*
X-2246D01*
X-2205Y1813D01*
Y1897D01*
X-2246Y1938D01*
X-2205Y2022D02*
Y2105D01*
Y2063D01*
X-2455D01*
X-2413Y2022D01*
X-2455Y2396D02*
X-2413Y2313D01*
X-2330Y2230D01*
X-2246D01*
X-2205Y2271D01*
Y2355D01*
X-2246Y2396D01*
X-2288D01*
X-2330Y2355D01*
Y2230D01*
X-2098Y1938D02*
X-2140Y1897D01*
Y1813D01*
X-2098Y1772D01*
X-1931D01*
X-1890Y1813D01*
Y1897D01*
X-1931Y1938D01*
X-1890Y2022D02*
Y2105D01*
Y2063D01*
X-2140D01*
X-2098Y2022D01*
X-2140Y2396D02*
Y2230D01*
X-2015D01*
X-2056Y2313D01*
Y2355D01*
X-2015Y2396D01*
X-1931D01*
X-1890Y2355D01*
Y2271D01*
X-1931Y2230D01*
X1367Y-700D02*
X1325Y-741D01*
Y-824D01*
X1367Y-866D01*
X1533D01*
X1575Y-824D01*
Y-741D01*
X1533Y-700D01*
X1367Y-616D02*
X1325Y-575D01*
Y-491D01*
X1367Y-450D01*
X1408D01*
X1450Y-491D01*
Y-533D01*
Y-491D01*
X1491Y-450D01*
X1533D01*
X1575Y-491D01*
Y-575D01*
X1533Y-616D01*
X1654Y-459D02*
Y-709D01*
X1820D01*
X1903D02*
X1987D01*
X1945D01*
Y-459D01*
X1903Y-500D01*
M02*
