G04*
G04 #@! TF.GenerationSoftware,Altium Limited,Altium Designer,19.0.15 (446)*
G04*
G04 Layer_Physical_Order=4*
G04 Layer_Color=16711680*
%FSLAX24Y24*%
%MOIN*%
G70*
G01*
G75*
%ADD13C,0.0079*%
%ADD47C,0.0240*%
%ADD48C,0.0118*%
G36*
X3214Y-2230D02*
X-2820D01*
Y-1328D01*
X-2770Y-1308D01*
X-2113Y-1965D01*
X-2060Y-2000D01*
X-1998Y-2012D01*
X-2D01*
X61Y-2000D01*
X113Y-1965D01*
X303Y-1774D01*
X564D01*
X589Y-1812D01*
X662Y-1861D01*
X748Y-1878D01*
X834Y-1861D01*
X907Y-1812D01*
X955Y-1739D01*
X972Y-1654D01*
X955Y-1568D01*
X907Y-1495D01*
X834Y-1446D01*
X748Y-1429D01*
X662Y-1446D01*
X657Y-1450D01*
X236D01*
X174Y-1462D01*
X122Y-1498D01*
X-69Y-1688D01*
X-1931D01*
X-2525Y-1094D01*
Y-262D01*
X-2480Y-194D01*
X-2463Y-108D01*
X-2480Y-22D01*
X-2525Y45D01*
Y427D01*
X-1543Y1409D01*
X-1496Y1400D01*
X-1410Y1417D01*
X-1337Y1465D01*
X-1289Y1538D01*
X-1273Y1618D01*
X-1171Y1720D01*
X-515D01*
X-496Y1673D01*
X-560Y1609D01*
X-591Y1563D01*
X-602Y1508D01*
Y1488D01*
X-609Y1484D01*
X-657Y1411D01*
X-674Y1325D01*
X-657Y1239D01*
X-609Y1166D01*
X-536Y1118D01*
X-450Y1101D01*
X-364Y1118D01*
X-291Y1166D01*
X-243Y1239D01*
X-226Y1325D01*
X-243Y1411D01*
X-288Y1479D01*
X-185Y1582D01*
X874Y1582D01*
X1164Y1292D01*
Y290D01*
X1175Y235D01*
X1182Y226D01*
X1176Y196D01*
X1193Y110D01*
X1241Y37D01*
X1314Y-11D01*
X1400Y-28D01*
X1486Y-11D01*
X1559Y37D01*
X1607Y110D01*
X1624Y196D01*
X1607Y282D01*
X1559Y355D01*
X1486Y403D01*
X1448Y411D01*
Y1351D01*
X1437Y1406D01*
X1407Y1452D01*
X1372Y1487D01*
X1391Y1533D01*
X1467D01*
X1504Y1508D01*
X1590Y1491D01*
X1676Y1508D01*
X1749Y1556D01*
X1797Y1629D01*
X1814Y1715D01*
X1797Y1801D01*
X1749Y1874D01*
X1676Y1922D01*
X1590Y1939D01*
X1504Y1922D01*
X1431Y1874D01*
X1420Y1857D01*
X1260D01*
X1121Y1996D01*
X1068Y2032D01*
X1006Y2044D01*
X-1238D01*
X-1300Y2032D01*
X-1353Y1996D01*
X-1502Y1847D01*
X-1582Y1831D01*
X-1655Y1783D01*
X-1703Y1710D01*
X-1704Y1707D01*
X-2770Y640D01*
X-2820Y661D01*
Y3017D01*
X3214D01*
Y-2230D01*
D02*
G37*
D13*
X-244Y1724D02*
X933Y1724D01*
X1306Y290D02*
X1400Y196D01*
X1306Y290D02*
Y1351D01*
X933Y1724D02*
X1306Y1351D01*
X-460Y1345D02*
Y1508D01*
X-244Y1724D01*
D47*
X-1370Y-2110D02*
D03*
X1360D02*
D03*
X1760Y-641D02*
D03*
X2440Y0D02*
D03*
X2120Y405D02*
D03*
X1368Y1939D02*
D03*
X1400Y196D02*
D03*
X1590Y1715D02*
D03*
X1530Y979D02*
D03*
X2410Y1431D02*
D03*
X-150Y1375D02*
D03*
X-450Y1325D02*
D03*
X3091Y1939D02*
D03*
X1998Y-1348D02*
D03*
X3091Y-2106D02*
D03*
X2254Y2894D02*
D03*
X2697Y30D02*
D03*
Y-659D02*
D03*
X-1496Y1624D02*
D03*
X3091Y-1348D02*
D03*
X1998Y-2106D02*
D03*
X1063Y-1063D02*
D03*
X1367Y-1634D02*
D03*
X472Y-1850D02*
D03*
X728Y-2106D02*
D03*
X748Y-1654D02*
D03*
X-2687Y-108D02*
D03*
X3091Y-659D02*
D03*
X2203Y-657D02*
D03*
X3091Y30D02*
D03*
X433Y-433D02*
D03*
X0D02*
D03*
X-433D02*
D03*
X433Y0D02*
D03*
X0D02*
D03*
X-433D02*
D03*
X433Y433D02*
D03*
X0D02*
D03*
X-433D02*
D03*
X3091Y2894D02*
D03*
X1407D02*
D03*
X-1526Y1319D02*
D03*
X-2697Y2894D02*
D03*
X-1220D02*
D03*
X305D02*
D03*
X-1909Y-1526D02*
D03*
X-2697Y-1555D02*
D03*
Y1437D02*
D03*
X3100Y1043D02*
D03*
X-2697Y-2106D02*
D03*
X-2402Y1929D02*
D03*
X-2087D02*
D03*
X-2431Y-709D02*
D03*
X-2431Y-276D02*
D03*
X-1220Y2244D02*
D03*
X39Y2451D02*
D03*
X344Y2126D02*
D03*
D48*
X-2687Y-1161D02*
X-1998Y-1850D01*
X-2D01*
X236Y-1612D01*
X-1238Y1882D02*
X1006D01*
X1193Y1695D02*
X1600D01*
X1006Y1882D02*
X1193Y1695D01*
X-1496Y1624D02*
X-1238Y1882D01*
X-1557Y1624D02*
X-1496D01*
X-2687Y494D02*
X-1557Y1624D01*
X-2687Y-108D02*
Y494D01*
Y-1161D02*
Y-108D01*
X236Y-1612D02*
X707D01*
X748Y-1654D01*
M02*
