G04*
G04 #@! TF.GenerationSoftware,Altium Limited,Altium Designer,19.0.15 (446)*
G04*
G04 Layer_Color=8388736*
%FSLAX24Y24*%
%MOIN*%
G70*
G01*
G75*
%ADD28R,0.0146X0.0157*%
%ADD29R,0.0166X0.0178*%
%ADD30R,0.0178X0.0166*%
%ADD31R,0.0277X0.0316*%
%ADD32R,0.0296X0.0257*%
%ADD33R,0.0355X0.0611*%
%ADD34R,0.0355X0.0375*%
%ADD35R,0.0257X0.0296*%
%ADD36R,0.0375X0.0355*%
%ADD37R,0.1438X0.1438*%
%ADD38O,0.0139X0.0395*%
%ADD39O,0.0395X0.0139*%
%ADD40C,0.0300*%
D28*
X1852Y185D02*
D03*
X1628D02*
D03*
D29*
X1852Y415D02*
D03*
X1628D02*
D03*
X1858Y715D02*
D03*
X2082D02*
D03*
X2082Y1715D02*
D03*
X1858D02*
D03*
X2408Y-276D02*
D03*
X2632D02*
D03*
X1699D02*
D03*
X1923D02*
D03*
D30*
X1339Y1697D02*
D03*
Y1472D02*
D03*
X423Y-1608D02*
D03*
Y-1384D02*
D03*
X1417Y-1372D02*
D03*
Y-1148D02*
D03*
X-1516Y1067D02*
D03*
Y843D02*
D03*
X1457Y-270D02*
D03*
Y-45D02*
D03*
X-2283Y1608D02*
D03*
Y1384D02*
D03*
X-2047Y1608D02*
D03*
Y1384D02*
D03*
X2165Y-270D02*
D03*
Y-45D02*
D03*
D31*
X1803Y979D02*
D03*
X2137D02*
D03*
Y1431D02*
D03*
X1803Y1431D02*
D03*
D32*
X29Y1876D02*
D03*
X-364D02*
D03*
D33*
X-1880Y945D02*
D03*
X-2451D02*
D03*
D34*
X-1545Y-276D02*
D03*
X-2077D02*
D03*
X-1545Y-709D02*
D03*
X-2077D02*
D03*
D35*
X-1181Y1890D02*
D03*
Y1496D02*
D03*
D36*
X-1535Y-1152D02*
D03*
Y-1683D02*
D03*
X-984Y-1506D02*
D03*
Y-2037D02*
D03*
D37*
X0Y0D02*
D03*
D38*
X-709Y945D02*
D03*
X-551D02*
D03*
X-394D02*
D03*
X-236D02*
D03*
X-79D02*
D03*
X79D02*
D03*
X236D02*
D03*
X394D02*
D03*
X551D02*
D03*
X709D02*
D03*
Y-945D02*
D03*
X551D02*
D03*
X394D02*
D03*
X236D02*
D03*
X79D02*
D03*
X-79D02*
D03*
X-236D02*
D03*
X-394D02*
D03*
X-551D02*
D03*
X-709D02*
D03*
D39*
X945Y709D02*
D03*
Y551D02*
D03*
Y394D02*
D03*
Y236D02*
D03*
Y79D02*
D03*
Y-79D02*
D03*
Y-236D02*
D03*
Y-394D02*
D03*
Y-551D02*
D03*
Y-709D02*
D03*
X-945D02*
D03*
Y-551D02*
D03*
Y-394D02*
D03*
Y-236D02*
D03*
Y-79D02*
D03*
Y79D02*
D03*
Y236D02*
D03*
Y394D02*
D03*
Y551D02*
D03*
Y709D02*
D03*
D40*
X433Y-433D02*
D03*
X0D02*
D03*
X-433D02*
D03*
X433Y0D02*
D03*
X0D02*
D03*
X-433D02*
D03*
X433Y433D02*
D03*
X0D02*
D03*
X-433D02*
D03*
M02*
