M48
;Layer_Color=9474304
;FILE_FORMAT=2:4
INCH,TZ
;TYPE=PLATED
T1F00S00C0.0120
%
T01
X-2697Y-2106
Y-1555
X-2431Y-709
X-2431Y-276
X-2687Y-108
X-2697Y1437
X-2402Y1929
X-2087
X-2697Y2894
X-1220
Y2244
X-1496Y1624
X-1526Y1319
X-797Y1437
X-450Y1325
X-150Y1375
X0Y433
Y0
Y-433
X433
Y0
Y433
X-433
Y0
Y-433
X-492Y-1329
Y-2106
X-1370Y-2110
X-984Y-984
X-1506Y-719
X1063Y-1063
X1367Y-1634
X1360Y-2110
X728Y-2106
X748Y-1654
X472Y-1850
X1998Y-2106
X1998Y-1348
X2203Y-657
X1760Y-641
X2697Y-659
X3091
Y-1348
Y-2106
Y30
X2697
X2440Y0
X2120Y405
X1400Y196
X1530Y979
X1590Y1715
X1368Y1939
X1407Y2894
X2254
X3091
Y1939
X3100Y1043
X2410Y1431
X344Y2126
X39Y2451
X305Y2894
M30
