G04 Layer_Physical_Order=3*
G04 Layer_Color=16737945*
%FSLAX25Y25*%
%MOIN*%
G70*
G01*
G75*
%ADD13C,0.05906*%
G04:AMPARAMS|DCode=14|XSize=59.06mil|YSize=59.06mil|CornerRadius=2.95mil|HoleSize=0mil|Usage=FLASHONLY|Rotation=0.000|XOffset=0mil|YOffset=0mil|HoleType=Round|Shape=RoundedRectangle|*
%AMROUNDEDRECTD14*
21,1,0.05906,0.05315,0,0,0.0*
21,1,0.05315,0.05906,0,0,0.0*
1,1,0.00591,0.02658,-0.02658*
1,1,0.00591,-0.02658,-0.02658*
1,1,0.00591,-0.02658,0.02658*
1,1,0.00591,0.02658,0.02658*
%
%ADD14ROUNDEDRECTD14*%
%ADD16C,0.02362*%
%ADD17C,0.14173*%
%ADD18C,0.00984*%
%ADD19C,0.02362*%
%ADD20C,0.01575*%
%ADD21C,0.00787*%
%ADD22C,0.01969*%
G36*
X294488Y305521D02*
X293618Y304807D01*
X292634Y303608D01*
X291903Y302240D01*
X291453Y300756D01*
X291301Y299213D01*
X291453Y297669D01*
X291903Y296185D01*
X292634Y294817D01*
X293618Y293618D01*
X294817Y292634D01*
X296185Y291903D01*
X297669Y291453D01*
X299213Y291301D01*
X300756Y291453D01*
X302240Y291903D01*
X303608Y292634D01*
X304807Y293618D01*
X305521Y294488D01*
X312552D01*
Y-294488D01*
X305521D01*
X304807Y-293618D01*
X303608Y-292634D01*
X302240Y-291903D01*
X300756Y-291453D01*
X299213Y-291301D01*
X297669Y-291453D01*
X296185Y-291903D01*
X294817Y-292634D01*
X293618Y-293618D01*
X292634Y-294817D01*
X291903Y-296185D01*
X291453Y-297669D01*
X291301Y-299213D01*
X291453Y-300756D01*
X291903Y-302240D01*
X292634Y-303608D01*
X293618Y-304807D01*
X294488Y-305521D01*
Y-312552D01*
X-294488D01*
Y-305521D01*
X-293618Y-304807D01*
X-292634Y-303608D01*
X-291903Y-302240D01*
X-291453Y-300756D01*
X-291301Y-299213D01*
X-291453Y-297669D01*
X-291903Y-296185D01*
X-292634Y-294817D01*
X-293618Y-293618D01*
X-294817Y-292634D01*
X-296185Y-291903D01*
X-297669Y-291453D01*
X-299213Y-291301D01*
X-300756Y-291453D01*
X-302240Y-291903D01*
X-303608Y-292634D01*
X-304807Y-293618D01*
X-305521Y-294488D01*
X-312552D01*
Y294488D01*
X-305521D01*
X-304807Y293618D01*
X-303608Y292634D01*
X-302240Y291903D01*
X-300756Y291453D01*
X-299213Y291301D01*
X-297669Y291453D01*
X-296185Y291903D01*
X-294817Y292634D01*
X-293618Y293618D01*
X-292634Y294817D01*
X-291903Y296185D01*
X-291453Y297669D01*
X-291301Y299213D01*
X-291453Y300756D01*
X-291903Y302240D01*
X-292634Y303608D01*
X-293618Y304807D01*
X-294488Y305521D01*
Y312552D01*
X294488D01*
Y305521D01*
D02*
G37*
%LPC*%
G36*
X287604Y-262858D02*
X286836Y-263011D01*
X286185Y-263446D01*
X285870Y-263917D01*
X285353Y-264172D01*
X284584Y-264020D01*
X283816Y-264172D01*
X283165Y-264608D01*
X282730Y-265259D01*
X282577Y-266027D01*
X282730Y-266795D01*
X283165Y-267446D01*
X283816Y-267881D01*
X284584Y-268034D01*
X285353Y-267881D01*
X286004Y-267446D01*
X286318Y-266975D01*
X286836Y-266720D01*
X287604Y-266872D01*
X288372Y-266720D01*
X289023Y-266284D01*
X289458Y-265633D01*
X289611Y-264865D01*
X289458Y-264097D01*
X289023Y-263446D01*
X288372Y-263011D01*
X287604Y-262858D01*
D02*
G37*
G36*
X275197Y-150000D02*
X150000D01*
Y-275197D01*
X275197D01*
Y-150000D01*
D02*
G37*
G36*
X286365Y-258006D02*
X285597Y-258159D01*
X284946Y-258594D01*
X284511Y-259245D01*
X284358Y-260013D01*
X284511Y-260781D01*
X284946Y-261432D01*
X285597Y-261867D01*
X286365Y-262020D01*
X287133Y-261867D01*
X287785Y-261432D01*
X288220Y-260781D01*
X288372Y-260013D01*
X288220Y-259245D01*
X287785Y-258594D01*
X287133Y-258159D01*
X286365Y-258006D01*
D02*
G37*
G36*
X292125Y-257780D02*
X291357Y-257933D01*
X290705Y-258368D01*
X290270Y-259019D01*
X290118Y-259787D01*
X290270Y-260555D01*
X290705Y-261206D01*
X291357Y-261641D01*
X292125Y-261794D01*
X292893Y-261641D01*
X293544Y-261206D01*
X293979Y-260555D01*
X294132Y-259787D01*
X293979Y-259019D01*
X293544Y-258368D01*
X292893Y-257933D01*
X292125Y-257780D01*
D02*
G37*
G36*
X-150000Y-150000D02*
X-275197D01*
Y-275197D01*
X-150000D01*
Y-150000D01*
D02*
G37*
G36*
X230965Y-278896D02*
X230197Y-279049D01*
X229546Y-279484D01*
X229111Y-280135D01*
X228958Y-280903D01*
X228996Y-281096D01*
X228915Y-281218D01*
X228563Y-281481D01*
X227950Y-281359D01*
X227182Y-281512D01*
X226531Y-281947D01*
X226096Y-282598D01*
X225943Y-283366D01*
X226096Y-284134D01*
X226531Y-284785D01*
X227182Y-285220D01*
X227950Y-285373D01*
X228718Y-285220D01*
X229370Y-284785D01*
X229805Y-284134D01*
X229958Y-283366D01*
X229919Y-283173D01*
X230000Y-283052D01*
X230352Y-282788D01*
X230965Y-282910D01*
X231733Y-282757D01*
X232384Y-282322D01*
X232819Y-281671D01*
X232972Y-280903D01*
X232819Y-280135D01*
X232384Y-279484D01*
X231733Y-279049D01*
X230965Y-278896D01*
D02*
G37*
G36*
X133465Y-150000D02*
X8268D01*
Y-275197D01*
X133465D01*
Y-150000D01*
D02*
G37*
G36*
X-8268D02*
X-133465D01*
Y-275197D01*
X-8268D01*
Y-150000D01*
D02*
G37*
G36*
X289470Y-141912D02*
X288702Y-142065D01*
X288051Y-142500D01*
X287616Y-143151D01*
X287463Y-143920D01*
X287616Y-144688D01*
X287709Y-144827D01*
X287067Y-145256D01*
X286631Y-145907D01*
X286479Y-146676D01*
X286631Y-147444D01*
X286765Y-147644D01*
X286530Y-148085D01*
X284013D01*
X281569Y-145640D01*
X281139Y-145353D01*
X280632Y-145252D01*
X280632Y-145252D01*
X266543D01*
X266480Y-145158D01*
X265829Y-144723D01*
X265061Y-144570D01*
X264293Y-144723D01*
X263641Y-145158D01*
X263206Y-145809D01*
X263053Y-146577D01*
X263206Y-147345D01*
X263641Y-147996D01*
X264293Y-148431D01*
X265061Y-148584D01*
X265829Y-148431D01*
X266480Y-147996D01*
X266543Y-147902D01*
X280083D01*
X282528Y-150346D01*
X282958Y-150633D01*
X283465Y-150734D01*
X283465Y-150734D01*
X290453D01*
X290453Y-150734D01*
X290960Y-150633D01*
X291389Y-150346D01*
X292042Y-149693D01*
X298145D01*
X298208Y-149788D01*
X298859Y-150223D01*
X299627Y-150376D01*
X300395Y-150223D01*
X301047Y-149788D01*
X301482Y-149137D01*
X301635Y-148369D01*
X301482Y-147600D01*
X301047Y-146949D01*
X300395Y-146514D01*
X299627Y-146361D01*
X298859Y-146514D01*
X298208Y-146949D01*
X298145Y-147044D01*
X291494D01*
X290987Y-147145D01*
X290897Y-147204D01*
X290447Y-146904D01*
X290493Y-146676D01*
X290340Y-145907D01*
X290247Y-145768D01*
X290889Y-145339D01*
X291324Y-144688D01*
X291477Y-143920D01*
X291324Y-143151D01*
X290889Y-142500D01*
X290238Y-142065D01*
X289470Y-141912D01*
D02*
G37*
G36*
X142913Y-154489D02*
X142145Y-154642D01*
X141494Y-155077D01*
X141059Y-155728D01*
X140975Y-156150D01*
X140453Y-156556D01*
X139685Y-156709D01*
X139033Y-157144D01*
X138599Y-157795D01*
X138446Y-158563D01*
X138599Y-159331D01*
X139033Y-159982D01*
X139685Y-160417D01*
X140453Y-160570D01*
X141221Y-160417D01*
X141872Y-159982D01*
X142307Y-159331D01*
X142391Y-158909D01*
X142913Y-158503D01*
X143682Y-158350D01*
X144333Y-157915D01*
X144768Y-157264D01*
X144921Y-156496D01*
X144768Y-155728D01*
X144333Y-155077D01*
X143682Y-154642D01*
X142913Y-154489D01*
D02*
G37*
G36*
X-8268Y-8268D02*
X-133465D01*
Y-133465D01*
X-8268D01*
Y-8268D01*
D02*
G37*
G36*
X-150000D02*
X-275197D01*
Y-133465D01*
X-150000D01*
Y-8268D01*
D02*
G37*
G36*
X286126Y-223991D02*
X285358Y-224143D01*
X284707Y-224578D01*
X284272Y-225230D01*
X284119Y-225998D01*
X284272Y-226766D01*
X284707Y-227417D01*
X285358Y-227852D01*
X286126Y-228005D01*
X286894Y-227852D01*
X287545Y-227417D01*
X287980Y-226766D01*
X288133Y-225998D01*
X287980Y-225230D01*
X287545Y-224578D01*
X286894Y-224143D01*
X286126Y-223991D01*
D02*
G37*
G36*
X290978Y-241073D02*
X290210Y-241226D01*
X289559Y-241661D01*
X289124Y-242313D01*
X288971Y-243081D01*
X289124Y-243849D01*
X289559Y-244500D01*
X290210Y-244935D01*
X290978Y-245088D01*
X291746Y-244935D01*
X292397Y-244500D01*
X292832Y-243849D01*
X292985Y-243081D01*
X292832Y-242313D01*
X292397Y-241661D01*
X291746Y-241226D01*
X290978Y-241073D01*
D02*
G37*
G36*
X299803Y-192973D02*
X299035Y-193126D01*
X298384Y-193561D01*
X298234Y-193786D01*
X297632D01*
X297482Y-193561D01*
X296831Y-193126D01*
X296063Y-192973D01*
X295295Y-193126D01*
X294644Y-193561D01*
X294209Y-194212D01*
X294056Y-194980D01*
X294209Y-195748D01*
X294644Y-196399D01*
X295165Y-196748D01*
X295331Y-196961D01*
X295446Y-197375D01*
X295335Y-197933D01*
X295488Y-198701D01*
X295923Y-199352D01*
X296574Y-199787D01*
X297342Y-199940D01*
X298111Y-199787D01*
X298762Y-199352D01*
X299197Y-198701D01*
X299350Y-197933D01*
X299241Y-197385D01*
X299590Y-196970D01*
X299625Y-196952D01*
X299803Y-196987D01*
X300571Y-196835D01*
X301222Y-196399D01*
X301657Y-195748D01*
X301810Y-194980D01*
X301657Y-194212D01*
X301222Y-193561D01*
X300571Y-193126D01*
X299803Y-192973D01*
D02*
G37*
G36*
X281454Y-217479D02*
X280686Y-217632D01*
X280035Y-218067D01*
X279600Y-218718D01*
X279447Y-219486D01*
X279505Y-219777D01*
X279151Y-220131D01*
X279053Y-220111D01*
X278286Y-220264D01*
X277634Y-220699D01*
X277199Y-221350D01*
X277046Y-222118D01*
X277199Y-222886D01*
X277634Y-223538D01*
X278286Y-223973D01*
X279053Y-224126D01*
X279822Y-223973D01*
X280473Y-223538D01*
X280908Y-222886D01*
X281061Y-222118D01*
X281003Y-221827D01*
X281356Y-221474D01*
X281454Y-221493D01*
X282222Y-221340D01*
X282873Y-220905D01*
X283308Y-220254D01*
X283461Y-219486D01*
X283308Y-218718D01*
X282873Y-218067D01*
X282222Y-217632D01*
X281454Y-217479D01*
D02*
G37*
G36*
X240966Y-278927D02*
X240198Y-279080D01*
X239547Y-279515D01*
X239112Y-280166D01*
X238959Y-280934D01*
X239112Y-281702D01*
X239547Y-282353D01*
X240198Y-282788D01*
X240966Y-282941D01*
X241734Y-282788D01*
X242385Y-282353D01*
X242820Y-281702D01*
X242973Y-280934D01*
X242820Y-280166D01*
X242385Y-279515D01*
X241734Y-279080D01*
X240966Y-278927D01*
D02*
G37*
G36*
X215321Y-297212D02*
X214345Y-297340D01*
X213435Y-297717D01*
X212654Y-298317D01*
X212054Y-299098D01*
X211677Y-300008D01*
X211549Y-300984D01*
X211677Y-301961D01*
X212054Y-302870D01*
X212654Y-303652D01*
X213435Y-304251D01*
X214345Y-304628D01*
X215321Y-304757D01*
X216298Y-304628D01*
X217207Y-304251D01*
X217989Y-303652D01*
X218588Y-302870D01*
X218965Y-301961D01*
X219093Y-300984D01*
X218965Y-300008D01*
X218588Y-299098D01*
X217989Y-298317D01*
X217207Y-297717D01*
X216298Y-297340D01*
X215321Y-297212D01*
D02*
G37*
G36*
X205309D02*
X204332Y-297340D01*
X203423Y-297717D01*
X202641Y-298317D01*
X202042Y-299098D01*
X201665Y-300008D01*
X201536Y-300984D01*
X201665Y-301961D01*
X202042Y-302870D01*
X202641Y-303652D01*
X203423Y-304251D01*
X204332Y-304628D01*
X205309Y-304757D01*
X206285Y-304628D01*
X207195Y-304251D01*
X207976Y-303652D01*
X208576Y-302870D01*
X208953Y-301961D01*
X209081Y-300984D01*
X208953Y-300008D01*
X208576Y-299098D01*
X207976Y-298317D01*
X207195Y-297717D01*
X206285Y-297340D01*
X205309Y-297212D01*
D02*
G37*
G36*
X235321D02*
X234345Y-297340D01*
X233435Y-297717D01*
X232654Y-298317D01*
X232054Y-299098D01*
X231677Y-300008D01*
X231549Y-300984D01*
X231677Y-301961D01*
X232054Y-302870D01*
X232654Y-303652D01*
X233435Y-304251D01*
X234345Y-304628D01*
X235321Y-304757D01*
X236297Y-304628D01*
X237207Y-304251D01*
X237989Y-303652D01*
X238588Y-302870D01*
X238965Y-301961D01*
X239093Y-300984D01*
X238965Y-300008D01*
X238588Y-299098D01*
X237989Y-298317D01*
X237207Y-297717D01*
X236297Y-297340D01*
X235321Y-297212D01*
D02*
G37*
G36*
X225321D02*
X224345Y-297340D01*
X223435Y-297717D01*
X222654Y-298317D01*
X222054Y-299098D01*
X221677Y-300008D01*
X221549Y-300984D01*
X221677Y-301961D01*
X222054Y-302870D01*
X222654Y-303652D01*
X223435Y-304251D01*
X224345Y-304628D01*
X225321Y-304757D01*
X226297Y-304628D01*
X227207Y-304251D01*
X227989Y-303652D01*
X228588Y-302870D01*
X228965Y-301961D01*
X229094Y-300984D01*
X228965Y-300008D01*
X228588Y-299098D01*
X227989Y-298317D01*
X227207Y-297717D01*
X226297Y-297340D01*
X225321Y-297212D01*
D02*
G37*
G36*
X175309D02*
X174332Y-297340D01*
X173423Y-297717D01*
X172641Y-298317D01*
X172042Y-299098D01*
X171665Y-300008D01*
X171536Y-300984D01*
X171665Y-301961D01*
X172042Y-302870D01*
X172641Y-303652D01*
X173423Y-304251D01*
X174332Y-304628D01*
X175309Y-304757D01*
X176285Y-304628D01*
X177195Y-304251D01*
X177976Y-303652D01*
X178576Y-302870D01*
X178953Y-301961D01*
X179081Y-300984D01*
X178953Y-300008D01*
X178576Y-299098D01*
X177976Y-298317D01*
X177195Y-297717D01*
X176285Y-297340D01*
X175309Y-297212D01*
D02*
G37*
G36*
X165309D02*
X164332Y-297340D01*
X163423Y-297717D01*
X162641Y-298317D01*
X162042Y-299098D01*
X161665Y-300008D01*
X161536Y-300984D01*
X161665Y-301961D01*
X162042Y-302870D01*
X162641Y-303652D01*
X163423Y-304251D01*
X164332Y-304628D01*
X165309Y-304757D01*
X166285Y-304628D01*
X167195Y-304251D01*
X167976Y-303652D01*
X168576Y-302870D01*
X168953Y-301961D01*
X169081Y-300984D01*
X168953Y-300008D01*
X168576Y-299098D01*
X167976Y-298317D01*
X167195Y-297717D01*
X166285Y-297340D01*
X165309Y-297212D01*
D02*
G37*
G36*
X195309D02*
X194332Y-297340D01*
X193423Y-297717D01*
X192641Y-298317D01*
X192042Y-299098D01*
X191665Y-300008D01*
X191536Y-300984D01*
X191665Y-301961D01*
X192042Y-302870D01*
X192641Y-303652D01*
X193423Y-304251D01*
X194332Y-304628D01*
X195309Y-304757D01*
X196285Y-304628D01*
X197195Y-304251D01*
X197976Y-303652D01*
X198576Y-302870D01*
X198953Y-301961D01*
X199081Y-300984D01*
X198953Y-300008D01*
X198576Y-299098D01*
X197976Y-298317D01*
X197195Y-297717D01*
X196285Y-297340D01*
X195309Y-297212D01*
D02*
G37*
G36*
X185309D02*
X184332Y-297340D01*
X183423Y-297717D01*
X182641Y-298317D01*
X182042Y-299098D01*
X181665Y-300008D01*
X181536Y-300984D01*
X181665Y-301961D01*
X182042Y-302870D01*
X182641Y-303652D01*
X183423Y-304251D01*
X184332Y-304628D01*
X185309Y-304757D01*
X186285Y-304628D01*
X187195Y-304251D01*
X187976Y-303652D01*
X188576Y-302870D01*
X188953Y-301961D01*
X189081Y-300984D01*
X188953Y-300008D01*
X188576Y-299098D01*
X187976Y-298317D01*
X187195Y-297717D01*
X186285Y-297340D01*
X185309Y-297212D01*
D02*
G37*
G36*
X154915Y-297462D02*
X154384Y-297532D01*
X153522Y-297889D01*
X152782Y-298457D01*
X152214Y-299197D01*
X151857Y-300059D01*
X151787Y-300590D01*
X154915D01*
Y-297462D01*
D02*
G37*
G36*
X158831Y-301378D02*
X155702D01*
Y-304506D01*
X156234Y-304436D01*
X157096Y-304079D01*
X157836Y-303511D01*
X158404Y-302771D01*
X158761Y-301909D01*
X158831Y-301378D01*
D02*
G37*
G36*
X233760Y-283131D02*
X232992Y-283283D01*
X232341Y-283719D01*
X231906Y-284370D01*
X231753Y-285138D01*
X231906Y-285906D01*
X232341Y-286557D01*
X232992Y-286992D01*
X233760Y-287145D01*
X234528Y-286992D01*
X235179Y-286557D01*
X235614Y-285906D01*
X235767Y-285138D01*
X235614Y-284370D01*
X235179Y-283719D01*
X234528Y-283283D01*
X233760Y-283131D01*
D02*
G37*
G36*
X155702Y-297462D02*
Y-300590D01*
X158831D01*
X158761Y-300059D01*
X158404Y-299197D01*
X157836Y-298457D01*
X157096Y-297889D01*
X156234Y-297532D01*
X155702Y-297462D01*
D02*
G37*
G36*
X255321Y-297212D02*
X254345Y-297340D01*
X253435Y-297717D01*
X252654Y-298317D01*
X252054Y-299098D01*
X251677Y-300008D01*
X251549Y-300984D01*
X251677Y-301961D01*
X252054Y-302870D01*
X252654Y-303652D01*
X253435Y-304251D01*
X254345Y-304628D01*
X255321Y-304757D01*
X256297Y-304628D01*
X257207Y-304251D01*
X257989Y-303652D01*
X258588Y-302870D01*
X258965Y-301961D01*
X259093Y-300984D01*
X258965Y-300008D01*
X258588Y-299098D01*
X257989Y-298317D01*
X257207Y-297717D01*
X256297Y-297340D01*
X255321Y-297212D01*
D02*
G37*
G36*
X245321D02*
X244345Y-297340D01*
X243435Y-297717D01*
X242654Y-298317D01*
X242054Y-299098D01*
X241677Y-300008D01*
X241549Y-300984D01*
X241677Y-301961D01*
X242054Y-302870D01*
X242654Y-303652D01*
X243435Y-304251D01*
X244345Y-304628D01*
X245321Y-304757D01*
X246298Y-304628D01*
X247207Y-304251D01*
X247989Y-303652D01*
X248588Y-302870D01*
X248965Y-301961D01*
X249094Y-300984D01*
X248965Y-300008D01*
X248588Y-299098D01*
X247989Y-298317D01*
X247207Y-297717D01*
X246298Y-297340D01*
X245321Y-297212D01*
D02*
G37*
G36*
X154915Y-301378D02*
X151787D01*
X151857Y-301909D01*
X152214Y-302771D01*
X152782Y-303511D01*
X153522Y-304079D01*
X154384Y-304436D01*
X154915Y-304506D01*
Y-301378D01*
D02*
G37*
G36*
X265321Y-297212D02*
X264345Y-297340D01*
X263435Y-297717D01*
X262654Y-298317D01*
X262054Y-299098D01*
X261677Y-300008D01*
X261549Y-300984D01*
X261677Y-301961D01*
X262054Y-302870D01*
X262654Y-303652D01*
X263435Y-304251D01*
X264345Y-304628D01*
X265321Y-304757D01*
X266298Y-304628D01*
X267207Y-304251D01*
X267989Y-303652D01*
X268588Y-302870D01*
X268965Y-301961D01*
X269093Y-300984D01*
X268965Y-300008D01*
X268588Y-299098D01*
X267989Y-298317D01*
X267207Y-297717D01*
X266298Y-297340D01*
X265321Y-297212D01*
D02*
G37*
G36*
X133465Y-8268D02*
X8268D01*
Y-133465D01*
X133465D01*
Y-8268D01*
D02*
G37*
G36*
X-8268Y275197D02*
X-133465D01*
Y150000D01*
X-8268D01*
Y275197D01*
D02*
G37*
G36*
X-150000D02*
X-275197D01*
Y150000D01*
X-150000D01*
Y275197D01*
D02*
G37*
G36*
X275197D02*
X150000D01*
Y150000D01*
X275197D01*
Y275197D01*
D02*
G37*
G36*
X133465D02*
X8268D01*
Y150000D01*
X133465D01*
Y275197D01*
D02*
G37*
G36*
X194488Y305058D02*
X193720Y304906D01*
X193069Y304470D01*
X192634Y303819D01*
X192481Y303051D01*
X192634Y302283D01*
X193069Y301632D01*
X193720Y301197D01*
X194488Y301044D01*
X194892Y301124D01*
X217422D01*
X226131Y292415D01*
X226756Y291998D01*
X227493Y291851D01*
X264134D01*
X288309Y267676D01*
Y180109D01*
X288456Y179372D01*
X288873Y178747D01*
X296562Y171058D01*
Y133168D01*
X296709Y132430D01*
X297127Y131805D01*
X301114Y127818D01*
X300915Y127310D01*
X300340Y127195D01*
X299688Y126760D01*
X299625Y126665D01*
X283578D01*
X283578Y126665D01*
X283071Y126565D01*
X282642Y126277D01*
X282642Y126277D01*
X278688Y122324D01*
X278576Y122346D01*
X277808Y122193D01*
X277157Y121758D01*
X276722Y121107D01*
X276569Y120339D01*
X276722Y119571D01*
X277157Y118919D01*
X277808Y118484D01*
X278576Y118332D01*
X279344Y118484D01*
X279995Y118919D01*
X280430Y119571D01*
X280583Y120339D01*
X280561Y120450D01*
X284127Y124016D01*
X299625D01*
X299688Y123922D01*
X300115Y123637D01*
X300138Y123469D01*
X300076Y123068D01*
X299533Y122705D01*
X299098Y122054D01*
X298945Y121286D01*
X299098Y120518D01*
X299533Y119867D01*
X300184Y119432D01*
X300952Y119279D01*
X301720Y119432D01*
X302371Y119867D01*
X302806Y120518D01*
X302815Y120560D01*
X303315Y120511D01*
Y118631D01*
X300854Y116171D01*
X300437Y115546D01*
X300290Y114809D01*
Y59029D01*
X300437Y58292D01*
X300854Y57666D01*
X301952Y56569D01*
X301815Y55999D01*
X301317Y55666D01*
X300882Y55015D01*
X300729Y54247D01*
X300882Y53479D01*
X301317Y52828D01*
X301968Y52393D01*
X302736Y52240D01*
X303380Y52368D01*
X303880Y52088D01*
Y39183D01*
X303800Y38780D01*
X303880Y38376D01*
Y36176D01*
X303380Y35896D01*
X302736Y36024D01*
X301968Y35871D01*
X301317Y35436D01*
X300882Y34785D01*
X300729Y34017D01*
X300882Y33249D01*
X301317Y32598D01*
X301968Y32163D01*
X302736Y32010D01*
X303380Y32138D01*
X303880Y31858D01*
Y19597D01*
X303800Y19193D01*
X303880Y18789D01*
Y13662D01*
X300256Y10037D01*
X299838Y9412D01*
X299692Y8675D01*
Y-94630D01*
X299838Y-95368D01*
X300256Y-95993D01*
X303093Y-98830D01*
Y-104331D01*
X303240Y-105068D01*
X303657Y-105693D01*
X303854Y-105890D01*
X303854Y-105890D01*
X306046Y-108082D01*
Y-130304D01*
X302246Y-134104D01*
X300662D01*
X300589Y-134118D01*
X300113Y-134023D01*
X299709Y-134104D01*
X299525D01*
X298787Y-134250D01*
X298162Y-134668D01*
X297432Y-135398D01*
X293445D01*
Y-133741D01*
X293298Y-133004D01*
X292881Y-132379D01*
X291325Y-130823D01*
X291315Y-130816D01*
X291281Y-130766D01*
X290630Y-130331D01*
X289862Y-130178D01*
X289094Y-130331D01*
X288443Y-130766D01*
X288008Y-131417D01*
X287855Y-132185D01*
X287408Y-132500D01*
X286973Y-132586D01*
X286905Y-132578D01*
X286473Y-132299D01*
Y-131719D01*
X289694Y-128498D01*
X301220D01*
Y-129156D01*
X301382Y-129970D01*
X301844Y-130660D01*
X302534Y-131121D01*
X303348Y-131283D01*
X304162Y-131121D01*
X304852Y-130660D01*
X305314Y-129970D01*
X305475Y-129156D01*
Y-126673D01*
X305314Y-125859D01*
X304852Y-125169D01*
X304162Y-124708D01*
X303348Y-124546D01*
X302534Y-124708D01*
X302028Y-125046D01*
X288979D01*
X288318Y-125177D01*
X287758Y-125551D01*
X283526Y-129783D01*
X283152Y-130343D01*
X283020Y-131004D01*
Y-135208D01*
X279401Y-138827D01*
X256297D01*
X255636Y-138959D01*
X255076Y-139333D01*
X252138Y-142271D01*
X251764Y-142831D01*
X251633Y-143492D01*
Y-145504D01*
X251504Y-145696D01*
X251352Y-146464D01*
X251504Y-147232D01*
X251940Y-147883D01*
X252591Y-148318D01*
X253359Y-148471D01*
X254127Y-148318D01*
X254778Y-147883D01*
X255213Y-147232D01*
X255366Y-146464D01*
X255213Y-145696D01*
X255085Y-145504D01*
Y-144207D01*
X257012Y-142280D01*
X280116D01*
X280776Y-142148D01*
X281336Y-141774D01*
X285364Y-137747D01*
X285906Y-137911D01*
X285943Y-138093D01*
X286378Y-138744D01*
X287029Y-139179D01*
X287797Y-139332D01*
X288200Y-139252D01*
X295219D01*
Y-142215D01*
X295139Y-142618D01*
X295291Y-143386D01*
X295726Y-144037D01*
X296378Y-144472D01*
X297146Y-144625D01*
X297914Y-144472D01*
X298565Y-144037D01*
X299000Y-143386D01*
X299153Y-142618D01*
X299072Y-142215D01*
Y-139035D01*
X299592Y-138688D01*
X300275Y-138005D01*
X300589Y-137943D01*
X300662Y-137957D01*
X302347D01*
X302524Y-138135D01*
Y-155951D01*
X281373D01*
X281182Y-155823D01*
X280413Y-155670D01*
X279645Y-155823D01*
X278994Y-156258D01*
X278559Y-156909D01*
X278406Y-157677D01*
X278559Y-158445D01*
X278994Y-159096D01*
X279645Y-159531D01*
X280413Y-159684D01*
X281182Y-159531D01*
X281373Y-159403D01*
X282329D01*
Y-167839D01*
X282201Y-168031D01*
X282061Y-168735D01*
X281629Y-169063D01*
X281594Y-169056D01*
X280826Y-169209D01*
X280175Y-169644D01*
X279740Y-170295D01*
X279587Y-171063D01*
X279688Y-171570D01*
X279724Y-171750D01*
X279724Y-171750D01*
X279740Y-171831D01*
X279607Y-172346D01*
X279543Y-172427D01*
X279289Y-172597D01*
X278854Y-173248D01*
X278702Y-174016D01*
X278854Y-174784D01*
X279289Y-175435D01*
X279941Y-175870D01*
X280709Y-176023D01*
X281477Y-175870D01*
X282128Y-175435D01*
X282625Y-175592D01*
X283189Y-175969D01*
X283957Y-176121D01*
X284725Y-175969D01*
X285376Y-175533D01*
X285786D01*
X286437Y-175969D01*
X287205Y-176121D01*
X287973Y-175969D01*
X288571Y-175569D01*
X289061Y-175402D01*
X289712Y-175837D01*
X290480Y-175990D01*
X291248Y-175837D01*
X291899Y-175402D01*
X292335Y-174751D01*
X292487Y-173983D01*
X292335Y-173214D01*
X291899Y-172563D01*
Y-172473D01*
X292335Y-171821D01*
X292487Y-171053D01*
X292335Y-170285D01*
X292643Y-169847D01*
X293012Y-169921D01*
X293780Y-169768D01*
X294431Y-169333D01*
X294866Y-168682D01*
X295019Y-167913D01*
X294866Y-167145D01*
X294431Y-166494D01*
X293780Y-166059D01*
X293012Y-165906D01*
X292244Y-166059D01*
X291593Y-166494D01*
X291158Y-167145D01*
X291005Y-167913D01*
X291158Y-168681D01*
X290849Y-169120D01*
X290480Y-169046D01*
X289712Y-169199D01*
X289061Y-169634D01*
X288626Y-170285D01*
X288473Y-171053D01*
X288626Y-171821D01*
X289012Y-172398D01*
X288624Y-172695D01*
X287973Y-172260D01*
X287205Y-172107D01*
X286437Y-172260D01*
X285918Y-172606D01*
X285581Y-172661D01*
X285243Y-172606D01*
X284725Y-172260D01*
X283957Y-172107D01*
X283852Y-172128D01*
X283722Y-172033D01*
X283476Y-171693D01*
X283589Y-171127D01*
X284020Y-170799D01*
X284055Y-170806D01*
X284823Y-170653D01*
X285474Y-170218D01*
X285909Y-169567D01*
X286062Y-168799D01*
X285909Y-168031D01*
X285781Y-167839D01*
Y-159403D01*
X302524D01*
Y-179241D01*
X302025Y-179519D01*
X301378Y-179391D01*
X300610Y-179543D01*
X299959Y-179978D01*
X299896Y-180073D01*
X298700D01*
X298700Y-180073D01*
X298193Y-180174D01*
X297763Y-180461D01*
X297763Y-180461D01*
X294044Y-184181D01*
X293757Y-184611D01*
X293656Y-185118D01*
X293656Y-185118D01*
Y-186262D01*
X286744Y-193174D01*
X286135Y-193076D01*
X285868Y-192675D01*
X285217Y-192240D01*
X284542Y-192106D01*
X284346Y-191816D01*
X284270Y-191613D01*
X284335Y-191516D01*
X284430Y-191037D01*
X284744Y-190590D01*
X285512Y-190437D01*
X286163Y-190002D01*
X286598Y-189351D01*
X286751Y-188583D01*
X286598Y-187815D01*
X286163Y-187163D01*
X285512Y-186728D01*
X284744Y-186576D01*
X283976Y-186728D01*
X283325Y-187163D01*
X282890Y-187815D01*
X282794Y-188294D01*
X282480Y-188741D01*
X281712Y-188894D01*
X281061Y-189329D01*
X280626Y-189980D01*
X280473Y-190748D01*
X280626Y-191516D01*
X281061Y-192167D01*
X281712Y-192602D01*
X282387Y-192737D01*
X282583Y-193027D01*
X282660Y-193229D01*
X282594Y-193326D01*
X282442Y-194095D01*
X282557Y-194672D01*
X282288Y-195235D01*
X282254Y-195242D01*
X281602Y-195677D01*
X281167Y-196328D01*
X281015Y-197097D01*
X281167Y-197864D01*
X281602Y-198516D01*
X282159Y-198888D01*
X282263Y-199162D01*
X282276Y-199465D01*
X281906Y-200019D01*
X281753Y-200787D01*
X281906Y-201555D01*
X282341Y-202207D01*
X282992Y-202642D01*
X283760Y-202795D01*
X284528Y-202642D01*
X285179Y-202207D01*
X285614Y-201555D01*
X285767Y-200787D01*
X285745Y-200676D01*
X294643Y-191777D01*
X295270D01*
X295333Y-191872D01*
X295984Y-192307D01*
X296752Y-192460D01*
X297520Y-192307D01*
X298171Y-191872D01*
X298606Y-191221D01*
X298759Y-190453D01*
X298606Y-189685D01*
X298171Y-189033D01*
X297520Y-188599D01*
X296752Y-188446D01*
X295984Y-188599D01*
X295614Y-188846D01*
X295544Y-188828D01*
X295393Y-188272D01*
X295917Y-187748D01*
X295917Y-187748D01*
X296204Y-187318D01*
X296305Y-186811D01*
Y-185666D01*
X299249Y-182722D01*
X299896D01*
X299959Y-182817D01*
X300445Y-183142D01*
X300347Y-183671D01*
X300315Y-183677D01*
X299663Y-184112D01*
X299228Y-184763D01*
X299076Y-185531D01*
X299228Y-186300D01*
X299663Y-186951D01*
X299743Y-187004D01*
Y-187504D01*
X299663Y-187557D01*
X299228Y-188208D01*
X299076Y-188976D01*
X299228Y-189744D01*
X299663Y-190396D01*
X300315Y-190831D01*
X301083Y-190983D01*
X301851Y-190831D01*
X302025Y-190715D01*
X302524Y-190982D01*
Y-198819D01*
X296755Y-204589D01*
X296332Y-204673D01*
X295642Y-205134D01*
X295619Y-205156D01*
X295158Y-205847D01*
X294996Y-206661D01*
Y-209200D01*
X295158Y-210014D01*
X295398Y-210373D01*
Y-219248D01*
X294898Y-219400D01*
X294726Y-219144D01*
X294075Y-218708D01*
X293307Y-218556D01*
X292539Y-218708D01*
X291888Y-219144D01*
X291453Y-219795D01*
X291300Y-220563D01*
X291453Y-221331D01*
X291888Y-221982D01*
X292539Y-222417D01*
X293307Y-222570D01*
X294075Y-222417D01*
X294726Y-221982D01*
X294898Y-221726D01*
X295398Y-221877D01*
Y-265149D01*
X294898Y-265301D01*
X294624Y-264891D01*
X293973Y-264456D01*
X293205Y-264303D01*
X292437Y-264456D01*
X291786Y-264891D01*
X291351Y-265543D01*
X291198Y-266311D01*
X291351Y-267079D01*
X291786Y-267730D01*
X292437Y-268165D01*
X293205Y-268318D01*
X293973Y-268165D01*
X294624Y-267730D01*
X294898Y-267320D01*
X295398Y-267472D01*
Y-268367D01*
X293193Y-270572D01*
X285927D01*
X285735Y-270444D01*
X284967Y-270291D01*
X284199Y-270444D01*
X283548Y-270879D01*
X283113Y-271530D01*
X282960Y-272298D01*
X283113Y-273066D01*
X283241Y-273258D01*
Y-283708D01*
X275663Y-291286D01*
X153287D01*
X152627Y-291417D01*
X152067Y-291791D01*
X146635Y-297223D01*
X142651D01*
X142229Y-297307D01*
X141871Y-297546D01*
X141631Y-297904D01*
X141548Y-298327D01*
Y-303642D01*
X141631Y-304064D01*
X141871Y-304422D01*
X142229Y-304662D01*
X142651Y-304746D01*
X147966D01*
X148389Y-304662D01*
X148747Y-304422D01*
X148986Y-304064D01*
X149070Y-303642D01*
Y-299670D01*
X154002Y-294738D01*
X276378D01*
X277039Y-294606D01*
X277599Y-294232D01*
X286188Y-285643D01*
X286562Y-285083D01*
X286693Y-284422D01*
Y-274024D01*
X293907D01*
X294568Y-273893D01*
X295128Y-273519D01*
X298344Y-270303D01*
X298718Y-269743D01*
X298850Y-269082D01*
Y-210373D01*
X299089Y-210014D01*
X299251Y-209200D01*
Y-206974D01*
X305471Y-200754D01*
X305845Y-200194D01*
X305847Y-200187D01*
X306357D01*
X306413Y-200473D01*
X306849Y-201124D01*
X307500Y-201559D01*
X308268Y-201712D01*
X309036Y-201559D01*
X309687Y-201124D01*
X310122Y-200473D01*
X310275Y-199705D01*
X310122Y-198937D01*
X309687Y-198285D01*
X309036Y-197850D01*
X308268Y-197698D01*
X307500Y-197850D01*
X306849Y-198285D01*
X306477Y-198842D01*
X306000Y-198768D01*
X305977Y-198759D01*
Y-158757D01*
X306185Y-158445D01*
X306338Y-157677D01*
X306185Y-156909D01*
X305977Y-156597D01*
Y-137420D01*
X305845Y-136759D01*
X305523Y-136277D01*
X309335Y-132465D01*
X309753Y-131840D01*
X309899Y-131102D01*
Y-107283D01*
X309753Y-106546D01*
X309335Y-105921D01*
X306946Y-103533D01*
Y-98032D01*
X306979Y-97871D01*
X306826Y-97103D01*
X306391Y-96452D01*
X305740Y-96017D01*
X305727Y-96014D01*
X303545Y-93832D01*
Y7877D01*
X307170Y11501D01*
X307587Y12126D01*
X307734Y12864D01*
Y18789D01*
X307814Y19193D01*
X307734Y19597D01*
Y38376D01*
X307814Y38780D01*
X307734Y39183D01*
Y55439D01*
X307587Y56176D01*
X307170Y56801D01*
X304144Y59827D01*
Y114011D01*
X306604Y116471D01*
X307022Y117096D01*
X307168Y117833D01*
Y126415D01*
X307022Y127152D01*
X306604Y127777D01*
X300416Y133966D01*
Y171856D01*
X300269Y172593D01*
X299851Y173219D01*
X292163Y180907D01*
Y268474D01*
X292016Y269212D01*
X291598Y269837D01*
X266295Y295140D01*
X265669Y295558D01*
X264932Y295705D01*
X228291D01*
X219582Y304414D01*
X218957Y304831D01*
X218220Y304978D01*
X194892D01*
X194488Y305058D01*
D02*
G37*
G36*
X282729Y116991D02*
X281961Y116838D01*
X281309Y116403D01*
X280874Y115752D01*
X280721Y114984D01*
X280874Y114216D01*
X281309Y113565D01*
X281961Y113129D01*
X282729Y112977D01*
X283497Y113129D01*
X284148Y113565D01*
X284583Y114216D01*
X284736Y114984D01*
X284583Y115752D01*
X284148Y116403D01*
X283497Y116838D01*
X282729Y116991D01*
D02*
G37*
G36*
X281273Y151220D02*
X280505Y151067D01*
X279854Y150632D01*
X279419Y149981D01*
X279266Y149213D01*
X279419Y148444D01*
X279854Y147793D01*
X280505Y147358D01*
X281273Y147205D01*
X282041Y147358D01*
X282692Y147793D01*
X283127Y148444D01*
X283280Y149213D01*
X283127Y149981D01*
X282692Y150632D01*
X282041Y151067D01*
X281273Y151220D01*
D02*
G37*
G36*
X273887Y147640D02*
X273119Y147487D01*
X272468Y147052D01*
X272033Y146400D01*
X271880Y145633D01*
X272033Y144864D01*
X272468Y144213D01*
X273119Y143778D01*
X273887Y143625D01*
X274655Y143778D01*
X275306Y144213D01*
X275741Y144864D01*
X275894Y145633D01*
X275741Y146400D01*
X275306Y147052D01*
X274655Y147487D01*
X273887Y147640D01*
D02*
G37*
G36*
X239965Y290950D02*
X239196Y290797D01*
X238545Y290362D01*
X238110Y289711D01*
X237958Y288943D01*
X238110Y288175D01*
X238545Y287524D01*
X239196Y287089D01*
X239965Y286936D01*
X240733Y287089D01*
X241384Y287524D01*
X241819Y288175D01*
X241972Y288943D01*
X241819Y289711D01*
X241384Y290362D01*
X240733Y290797D01*
X239965Y290950D01*
D02*
G37*
G36*
X234941Y283503D02*
X234173Y283350D01*
X233522Y282915D01*
X233087Y282264D01*
X233042Y282042D01*
X232471Y281734D01*
X231988Y281830D01*
X231299Y281693D01*
X231185Y282264D01*
X230750Y282915D01*
X230099Y283350D01*
X229331Y283503D01*
X228563Y283350D01*
X227911Y282915D01*
X227476Y282264D01*
X227324Y281496D01*
X227476Y280728D01*
X227911Y280077D01*
X228563Y279642D01*
X229331Y279489D01*
X230020Y279626D01*
X230134Y279055D01*
X230569Y278404D01*
X231220Y277969D01*
X231988Y277816D01*
X232756Y277969D01*
X233407Y278404D01*
X233842Y279055D01*
X233887Y279277D01*
X234458Y279585D01*
X234941Y279489D01*
X235709Y279642D01*
X236360Y280077D01*
X236795Y280728D01*
X236948Y281496D01*
X236795Y282264D01*
X236360Y282915D01*
X235709Y283350D01*
X234941Y283503D01*
D02*
G37*
G36*
X236920Y300333D02*
X236152Y300181D01*
X235501Y299745D01*
X235066Y299094D01*
X234913Y298326D01*
X235066Y297558D01*
X235501Y296907D01*
X236152Y296472D01*
X236920Y296319D01*
X237688Y296472D01*
X238339Y296907D01*
X238774Y297558D01*
X238927Y298326D01*
X238774Y299094D01*
X238339Y299745D01*
X237688Y300181D01*
X236920Y300333D01*
D02*
G37*
G36*
X196161Y300235D02*
X195393Y300083D01*
X194742Y299648D01*
X194307Y298996D01*
X194154Y298228D01*
X194307Y297460D01*
X194742Y296809D01*
X195393Y296374D01*
X196161Y296221D01*
X196930Y296374D01*
X197581Y296809D01*
X198016Y297460D01*
X198169Y298228D01*
X198016Y298996D01*
X197581Y299648D01*
X196930Y300083D01*
X196161Y300235D01*
D02*
G37*
G36*
X281299Y257322D02*
X280531Y257169D01*
X279880Y256734D01*
X279445Y256083D01*
X279292Y255315D01*
X279445Y254547D01*
X279880Y253896D01*
X280531Y253461D01*
X281299Y253308D01*
X282067Y253461D01*
X282718Y253896D01*
X283154Y254547D01*
X283306Y255315D01*
X283154Y256083D01*
X282718Y256734D01*
X282067Y257169D01*
X281299Y257322D01*
D02*
G37*
G36*
X293406Y165196D02*
X292637Y165043D01*
X291986Y164608D01*
X291551Y163957D01*
X291398Y163189D01*
X291551Y162421D01*
X291986Y161770D01*
X292637Y161335D01*
X293406Y161182D01*
X294174Y161335D01*
X294825Y161770D01*
X295260Y162421D01*
X295413Y163189D01*
X295260Y163957D01*
X294825Y164608D01*
X294174Y165043D01*
X293406Y165196D01*
D02*
G37*
G36*
X240846Y285570D02*
X240078Y285417D01*
X239427Y284982D01*
X238992Y284331D01*
X238839Y283563D01*
X238992Y282795D01*
X239427Y282144D01*
X240078Y281709D01*
X240846Y281556D01*
X241615Y281709D01*
X242266Y282144D01*
X242701Y282795D01*
X242853Y283563D01*
X242701Y284331D01*
X242266Y284982D01*
X241615Y285417D01*
X240846Y285570D01*
D02*
G37*
G36*
X293406Y277991D02*
X292637Y277838D01*
X291986Y277403D01*
X291551Y276752D01*
X291398Y275984D01*
X291551Y275216D01*
X291986Y274565D01*
X292637Y274130D01*
X293406Y273977D01*
X294174Y274130D01*
X294825Y274565D01*
X295260Y275216D01*
X295413Y275984D01*
X295260Y276752D01*
X294825Y277403D01*
X294174Y277838D01*
X293406Y277991D01*
D02*
G37*
G36*
X281082Y79722D02*
X280314Y79569D01*
X279663Y79134D01*
X279228Y78483D01*
X279075Y77715D01*
X279228Y76947D01*
X279663Y76295D01*
X280314Y75860D01*
X281082Y75708D01*
X281193Y75730D01*
X285533Y71390D01*
X285963Y71103D01*
X286470Y71002D01*
X286470Y71002D01*
X294088D01*
X294151Y70907D01*
X294802Y70473D01*
X295570Y70320D01*
X296338Y70473D01*
X296989Y70907D01*
X297425Y71559D01*
X297577Y72327D01*
X297425Y73095D01*
X296989Y73746D01*
X296338Y74181D01*
X296192Y74210D01*
Y74720D01*
X296302Y74742D01*
X296953Y75177D01*
X297388Y75828D01*
X297541Y76596D01*
X297388Y77364D01*
X296953Y78015D01*
X296302Y78451D01*
X295534Y78603D01*
X294766Y78451D01*
X294115Y78015D01*
X293680Y77364D01*
X293527Y76596D01*
X293680Y75828D01*
X294115Y75177D01*
X294766Y74742D01*
X294912Y74713D01*
Y74203D01*
X294802Y74181D01*
X294151Y73746D01*
X294088Y73651D01*
X287018D01*
X283067Y77603D01*
X283089Y77715D01*
X282936Y78483D01*
X282501Y79134D01*
X281850Y79569D01*
X281082Y79722D01*
D02*
G37*
G36*
X294379Y-92186D02*
X293611Y-92339D01*
X292960Y-92774D01*
X292525Y-93425D01*
X292372Y-94193D01*
X292525Y-94961D01*
X292960Y-95613D01*
X293611Y-96048D01*
X294379Y-96200D01*
X295147Y-96048D01*
X295798Y-95613D01*
X296234Y-94961D01*
X296386Y-94193D01*
X296234Y-93425D01*
X295798Y-92774D01*
X295147Y-92339D01*
X294379Y-92186D01*
D02*
G37*
G36*
X282283Y-98682D02*
X281515Y-98835D01*
X280864Y-99270D01*
X280429Y-99921D01*
X280276Y-100689D01*
X280429Y-101457D01*
X280864Y-102108D01*
Y-102124D01*
X280429Y-102775D01*
X280276Y-103543D01*
X280429Y-104311D01*
X280864Y-104963D01*
Y-104978D01*
X280429Y-105630D01*
X280276Y-106398D01*
X280429Y-107166D01*
X280864Y-107817D01*
Y-107931D01*
X280429Y-108582D01*
X280276Y-109350D01*
X280429Y-110118D01*
X280864Y-110770D01*
X281515Y-111205D01*
X282283Y-111357D01*
X283051Y-111205D01*
X283703Y-110770D01*
X284138Y-110118D01*
X284291Y-109350D01*
X284138Y-108582D01*
X283703Y-107931D01*
Y-107817D01*
X284138Y-107166D01*
X284291Y-106398D01*
X284138Y-105630D01*
X283703Y-104978D01*
Y-104963D01*
X284138Y-104311D01*
X284291Y-103543D01*
X284138Y-102775D01*
X283703Y-102124D01*
Y-102108D01*
X284138Y-101457D01*
X284291Y-100689D01*
X284138Y-99921D01*
X283703Y-99270D01*
X283051Y-98835D01*
X282283Y-98682D01*
D02*
G37*
G36*
X229823Y3779D02*
X229055Y3626D01*
X228404Y3191D01*
X227969Y2540D01*
X227816Y1772D01*
X227969Y1004D01*
X228404Y352D01*
X229055Y-83D01*
X229823Y-235D01*
X230591Y-83D01*
X231242Y352D01*
X231305Y447D01*
X277404D01*
X284496Y-6645D01*
X284496Y-6645D01*
X284926Y-6933D01*
X285433Y-7033D01*
X285433Y-7033D01*
X292907D01*
X292971Y-7128D01*
X293622Y-7563D01*
X294390Y-7716D01*
X295158Y-7563D01*
X295809Y-7128D01*
X296244Y-6477D01*
X296397Y-5709D01*
X296244Y-4941D01*
X295809Y-4290D01*
X295158Y-3854D01*
X294390Y-3702D01*
X293622Y-3854D01*
X292971Y-4290D01*
X292907Y-4384D01*
X285982D01*
X278889Y2708D01*
X278460Y2995D01*
X277953Y3096D01*
X277953Y3096D01*
X231305D01*
X231242Y3191D01*
X230591Y3626D01*
X229823Y3779D01*
D02*
G37*
G36*
X293307Y-16891D02*
X292539Y-17043D01*
X291888Y-17478D01*
X291453Y-18130D01*
X291300Y-18898D01*
X291453Y-19666D01*
X291888Y-20317D01*
X292539Y-20752D01*
X293307Y-20905D01*
X294075Y-20752D01*
X294726Y-20317D01*
X295161Y-19666D01*
X295314Y-18898D01*
X295161Y-18130D01*
X294726Y-17478D01*
X294075Y-17043D01*
X293307Y-16891D01*
D02*
G37*
G36*
X142618Y-126635D02*
X141850Y-126787D01*
X141199Y-127223D01*
X140764Y-127874D01*
X140611Y-128642D01*
X140764Y-129410D01*
X141199Y-130061D01*
X141850Y-130496D01*
X142618Y-130649D01*
X143386Y-130496D01*
X144037Y-130061D01*
X144472Y-129410D01*
X144625Y-128642D01*
X144472Y-127874D01*
X144037Y-127223D01*
X143386Y-126787D01*
X142618Y-126635D01*
D02*
G37*
G36*
X275197Y-8268D02*
X150000D01*
Y-133465D01*
X275197D01*
Y-8268D01*
D02*
G37*
G36*
X288976Y-101044D02*
X288208Y-101197D01*
X287557Y-101632D01*
X287122Y-102283D01*
X286969Y-103051D01*
X287122Y-103819D01*
X287557Y-104470D01*
X288131Y-104854D01*
X288008Y-105039D01*
X287855Y-105807D01*
X288008Y-106575D01*
X288443Y-107226D01*
X289094Y-107661D01*
X289862Y-107814D01*
X290630Y-107661D01*
X291281Y-107226D01*
X291717Y-106575D01*
X291832Y-105996D01*
X292328D01*
X292368Y-106130D01*
X292437Y-106477D01*
X292872Y-107128D01*
X293523Y-107563D01*
X293714Y-107601D01*
X293782Y-107916D01*
X293767Y-108121D01*
X293167Y-108522D01*
X292732Y-109173D01*
X292580Y-109941D01*
X292732Y-110709D01*
X293167Y-111360D01*
X293818Y-111795D01*
X294587Y-111948D01*
X295355Y-111795D01*
X296006Y-111360D01*
X296320Y-110890D01*
X296851Y-110840D01*
X296899Y-110855D01*
X297104Y-111163D01*
X297756Y-111598D01*
X298524Y-111751D01*
X299292Y-111598D01*
X299943Y-111163D01*
X300378Y-110512D01*
X300531Y-109744D01*
X300378Y-108976D01*
X299943Y-108325D01*
X299292Y-107890D01*
X298549Y-107742D01*
X298562Y-107677D01*
X298409Y-106909D01*
X297974Y-106258D01*
X297323Y-105823D01*
X296555Y-105670D01*
X296203Y-105230D01*
X296146Y-104941D01*
X295711Y-104289D01*
X295059Y-103854D01*
X294713Y-103785D01*
X294278Y-103656D01*
X294148Y-103220D01*
X294079Y-102874D01*
X293644Y-102223D01*
X292992Y-101787D01*
X292224Y-101635D01*
X291456Y-101787D01*
X290805Y-102223D01*
X290790D01*
X290396Y-101632D01*
X289744Y-101197D01*
X288976Y-101044D01*
D02*
G37*
G36*
X141240Y-121123D02*
X140472Y-121276D01*
X139821Y-121711D01*
X139386Y-122362D01*
X139233Y-123130D01*
X139386Y-123898D01*
X139821Y-124549D01*
X140472Y-124984D01*
X141240Y-125137D01*
X142008Y-124984D01*
X142659Y-124549D01*
X143095Y-123898D01*
X143247Y-123130D01*
X143095Y-122362D01*
X142659Y-121711D01*
X142008Y-121276D01*
X141240Y-121123D01*
D02*
G37*
G36*
X293917Y36117D02*
X293149Y35964D01*
X292498Y35529D01*
X292063Y34878D01*
X291910Y34110D01*
X292063Y33342D01*
X292498Y32691D01*
X293149Y32256D01*
X293917Y32103D01*
X294685Y32256D01*
X295337Y32691D01*
X295772Y33342D01*
X295924Y34110D01*
X295772Y34878D01*
X295337Y35529D01*
X294685Y35964D01*
X293917Y36117D01*
D02*
G37*
G36*
X300926Y20746D02*
X300158Y20594D01*
X299507Y20158D01*
X299072Y19507D01*
X298919Y18739D01*
X299072Y17971D01*
X299507Y17320D01*
X300158Y16885D01*
X300926Y16732D01*
X301694Y16885D01*
X302345Y17320D01*
X302780Y17971D01*
X302933Y18739D01*
X302780Y19507D01*
X302345Y20158D01*
X301694Y20594D01*
X300926Y20746D01*
D02*
G37*
G36*
X297988Y56151D02*
X297220Y55998D01*
X296569Y55563D01*
X296134Y54912D01*
X295981Y54144D01*
X296134Y53375D01*
X296569Y52724D01*
X297220Y52289D01*
X297988Y52136D01*
X298756Y52289D01*
X299407Y52724D01*
X299842Y53375D01*
X299995Y54144D01*
X299842Y54912D01*
X299407Y55563D01*
X298756Y55998D01*
X297988Y56151D01*
D02*
G37*
G36*
X300445Y39955D02*
X299677Y39803D01*
X299026Y39368D01*
X298591Y38717D01*
X298438Y37948D01*
X298591Y37180D01*
X299026Y36529D01*
X299677Y36094D01*
X300445Y35941D01*
X301213Y36094D01*
X301865Y36529D01*
X302300Y37180D01*
X302452Y37948D01*
X302300Y38717D01*
X301865Y39368D01*
X301213Y39803D01*
X300445Y39955D01*
D02*
G37*
G36*
X-8268Y133465D02*
X-133465D01*
Y8268D01*
X-8268D01*
Y133465D01*
D02*
G37*
G36*
X-150000D02*
X-275197D01*
Y8268D01*
X-150000D01*
Y133465D01*
D02*
G37*
G36*
X275197D02*
X150000D01*
Y8268D01*
X275197D01*
Y133465D01*
D02*
G37*
G36*
X133465D02*
X8268D01*
Y8268D01*
X133465D01*
Y133465D01*
D02*
G37*
%LPD*%
D13*
X255321Y-300984D02*
D03*
X245321D02*
D03*
X235321D02*
D03*
X225321D02*
D03*
X215321D02*
D03*
X155309D02*
D03*
X265321D02*
D03*
X165309D02*
D03*
X175309D02*
D03*
X185309D02*
D03*
X195309D02*
D03*
X205309D02*
D03*
D14*
X145309D02*
D03*
D16*
X-25098Y139567D02*
D03*
X305315Y-209449D02*
D03*
X301378Y-181398D02*
D03*
X297146Y-206638D02*
D03*
X283022Y-197097D02*
D03*
X296752Y-190453D02*
D03*
X277434Y-181512D02*
D03*
X305906Y-203150D02*
D03*
X304331Y-157677D02*
D03*
X277461Y-156004D02*
D03*
X284055Y-168799D02*
D03*
X294390Y-5709D02*
D03*
X277559Y-12598D02*
D03*
X281496Y3150D02*
D03*
X244096Y5908D02*
D03*
X263781Y5909D02*
D03*
X277559Y-44094D02*
D03*
X277559Y-28346D02*
D03*
X305807Y38780D02*
D03*
Y19193D02*
D03*
X147635Y35433D02*
D03*
X229823Y1772D02*
D03*
X194488Y303051D02*
D03*
X310925Y-182874D02*
D03*
X311319Y-168898D02*
D03*
X310925Y-157579D02*
D03*
X311221Y-146260D02*
D03*
X311257Y-118679D02*
D03*
X310335Y182480D02*
D03*
X310728Y195177D02*
D03*
X311122Y207382D02*
D03*
X311516Y218110D02*
D03*
X311417Y229724D02*
D03*
X28543Y-135828D02*
D03*
X283760Y-200787D02*
D03*
X246475Y285335D02*
D03*
X-135831Y155510D02*
D03*
X-2362Y-167717D02*
D03*
X2282Y-155308D02*
D03*
X3137Y-160773D02*
D03*
X311352Y243187D02*
D03*
X297449Y233862D02*
D03*
Y242577D02*
D03*
Y225407D02*
D03*
Y212724D02*
D03*
Y192563D02*
D03*
Y184368D02*
D03*
Y201018D02*
D03*
X277461Y-232776D02*
D03*
X277362Y-242815D02*
D03*
X277461Y-109744D02*
D03*
X250537Y-147712D02*
D03*
X16441Y-137613D02*
D03*
X277461Y152657D02*
D03*
X293878Y-71929D02*
D03*
Y-82080D02*
D03*
X147638Y-200793D02*
D03*
X147638Y-185045D02*
D03*
X135827Y-212604D02*
D03*
X135827Y-198824D02*
D03*
X135827Y-226383D02*
D03*
X135827Y-238194D02*
D03*
X147638Y-216541D02*
D03*
X147638Y-232289D02*
D03*
X135827Y-255911D02*
D03*
X135827Y-271659D02*
D03*
X147638Y-248037D02*
D03*
X147638Y-263785D02*
D03*
X135827Y-161423D02*
D03*
X135827Y-177171D02*
D03*
X147638Y-153549D02*
D03*
X147638Y-175202D02*
D03*
X-135827Y-200793D02*
D03*
X-135827Y-181108D02*
D03*
X-147637Y-208667D02*
D03*
X-147637Y-192919D02*
D03*
X-147637Y-224415D02*
D03*
X-147637Y-240163D02*
D03*
X-135827Y-216541D02*
D03*
X-135827Y-232289D02*
D03*
X-147637Y-255911D02*
D03*
X-147637Y-271659D02*
D03*
X-135827Y-248037D02*
D03*
X-135826Y-263785D02*
D03*
X-147638Y-161423D02*
D03*
X-147637Y-177171D02*
D03*
X-135827Y-153549D02*
D03*
X-135827Y-169297D02*
D03*
X147637Y-11814D02*
D03*
X135826Y-35436D02*
D03*
X135826Y-19688D02*
D03*
X147635Y114173D02*
D03*
X147635Y129921D02*
D03*
X135824Y106299D02*
D03*
X135824Y122047D02*
D03*
X140871Y272549D02*
D03*
X136009Y261466D02*
D03*
X147634Y257873D02*
D03*
X135822Y248030D02*
D03*
X-135831Y255904D02*
D03*
X-135831Y271652D02*
D03*
X-147642Y248030D02*
D03*
X-147642Y263778D02*
D03*
X-135829Y114173D02*
D03*
X-135829Y129921D02*
D03*
X-147641Y106299D02*
D03*
X-147641Y122047D02*
D03*
X-135828Y-27562D02*
D03*
X-135828Y-11814D02*
D03*
X-147639Y-39373D02*
D03*
X-147639Y-19688D02*
D03*
X147637Y-137798D02*
D03*
X135826Y-145672D02*
D03*
X147637Y-122050D02*
D03*
X147637Y-106302D02*
D03*
X135818Y-130426D02*
D03*
X135826Y-114176D02*
D03*
X147637Y-90554D02*
D03*
X147637Y-74806D02*
D03*
X135826Y-98428D02*
D03*
X135826Y-82680D02*
D03*
X135826Y-51184D02*
D03*
X135826Y-66932D02*
D03*
X147637Y-43310D02*
D03*
X147637Y-59058D02*
D03*
X147635Y3937D02*
D03*
X147635Y19685D02*
D03*
X135824Y27559D02*
D03*
X147635Y51181D02*
D03*
X147635Y66929D02*
D03*
X135824Y43307D02*
D03*
X135824Y59055D02*
D03*
X135824Y90551D02*
D03*
X135824Y74803D02*
D03*
X147635Y98425D02*
D03*
X147635Y82677D02*
D03*
X147634Y145668D02*
D03*
X135822Y137794D02*
D03*
X147634Y161416D02*
D03*
X147634Y177164D02*
D03*
X135822Y153542D02*
D03*
X135822Y169290D02*
D03*
X147634Y192912D02*
D03*
X147634Y208660D02*
D03*
X135822Y185038D02*
D03*
X135822Y204723D02*
D03*
X135822Y232282D02*
D03*
X135822Y216534D02*
D03*
X147634Y240156D02*
D03*
X147634Y224408D02*
D03*
X-135831Y145668D02*
D03*
X-147642Y137794D02*
D03*
X-135831Y177164D02*
D03*
X-147642Y153542D02*
D03*
X-147642Y163384D02*
D03*
X-135831Y192912D02*
D03*
X-135831Y208660D02*
D03*
X-147642Y185038D02*
D03*
X-147642Y200786D02*
D03*
X-147642Y232282D02*
D03*
X-147642Y216534D02*
D03*
X-135831Y240156D02*
D03*
X-135831Y224408D02*
D03*
X-135828Y-137798D02*
D03*
X-147639Y-145672D02*
D03*
X-135828Y-122050D02*
D03*
X-135828Y-106302D02*
D03*
X-147639Y-129924D02*
D03*
X-147639Y-114176D02*
D03*
X-135828Y-90554D02*
D03*
X-135828Y-74806D02*
D03*
X-147639Y-98428D02*
D03*
X-147639Y-82680D02*
D03*
X-147639Y-51184D02*
D03*
X-147639Y-66932D02*
D03*
X-135828Y-43310D02*
D03*
X-135828Y-59058D02*
D03*
X-135829Y3936D02*
D03*
X-147640Y-3938D02*
D03*
X-135829Y19684D02*
D03*
X-135829Y35432D02*
D03*
X-147640Y11811D02*
D03*
X-147640Y27558D02*
D03*
X-135829Y51180D02*
D03*
X-135829Y66929D02*
D03*
X-147640Y43306D02*
D03*
X-147641Y59054D02*
D03*
X-147641Y90551D02*
D03*
X-147641Y74803D02*
D03*
X-135829Y98425D02*
D03*
X-135829Y82677D02*
D03*
X5854Y260889D02*
D03*
X5903Y177165D02*
D03*
X-5908Y169291D02*
D03*
X-35434Y147638D02*
D03*
X248030Y147638D02*
D03*
X240157Y135827D02*
D03*
X-271655Y147638D02*
D03*
X-263780Y135827D02*
D03*
X-248032Y135827D02*
D03*
X-232284Y135827D02*
D03*
X-255907Y147638D02*
D03*
X-240158Y147638D02*
D03*
X-216536Y135827D02*
D03*
X-200788Y135827D02*
D03*
X-224410Y147638D02*
D03*
X-208662Y147638D02*
D03*
X-185040Y135827D02*
D03*
X-169292Y135827D02*
D03*
X-192914Y147638D02*
D03*
X-177166Y147638D02*
D03*
X-153544Y135827D02*
D03*
X-137796Y135827D02*
D03*
X-161418Y147638D02*
D03*
X-145670Y147638D02*
D03*
X-122048Y135827D02*
D03*
X-106300Y135827D02*
D03*
X-129922Y147638D02*
D03*
X-114174Y147638D02*
D03*
X-90552Y135827D02*
D03*
X-74804Y135827D02*
D03*
X-98426Y147638D02*
D03*
X-82678Y147638D02*
D03*
X-51182Y147638D02*
D03*
X-66930Y147638D02*
D03*
X-43308Y135827D02*
D03*
X-59056Y135827D02*
D03*
X53149Y135827D02*
D03*
X66928Y135827D02*
D03*
X82676Y135827D02*
D03*
X98424Y135827D02*
D03*
X114172Y135827D02*
D03*
X129920Y135827D02*
D03*
X145668Y135827D02*
D03*
X161416Y135827D02*
D03*
X177164Y135827D02*
D03*
X192912Y135827D02*
D03*
X208660Y135827D02*
D03*
X224408Y135827D02*
D03*
X62991Y147638D02*
D03*
X74802Y147638D02*
D03*
X90550Y147638D02*
D03*
X106298Y147638D02*
D03*
X122046Y147638D02*
D03*
X137794Y147638D02*
D03*
X153542Y147638D02*
D03*
X169290Y147638D02*
D03*
X185038Y147638D02*
D03*
X200786Y147638D02*
D03*
X216534Y147638D02*
D03*
X232282Y147638D02*
D03*
X43306Y147638D02*
D03*
X5905Y-263781D02*
D03*
X5905Y-248033D02*
D03*
X-5906Y-255907D02*
D03*
X5905Y-232285D02*
D03*
X5905Y-216537D02*
D03*
X-5906Y-240159D02*
D03*
X-5906Y-224411D02*
D03*
X-5906Y-192915D02*
D03*
X-5906Y-208663D02*
D03*
X5905Y-185041D02*
D03*
X5905Y-200789D02*
D03*
X5483Y-18322D02*
D03*
X-5908Y263779D02*
D03*
X-5908Y248031D02*
D03*
X-5908Y232283D02*
D03*
X-5908Y216535D02*
D03*
X-5908Y200787D02*
D03*
X-5908Y185039D02*
D03*
X5903Y240157D02*
D03*
X5903Y224409D02*
D03*
X5903Y208661D02*
D03*
X5903Y192913D02*
D03*
X-5908Y74803D02*
D03*
X-5908Y90551D02*
D03*
X-5908Y106299D02*
D03*
X-5908Y59055D02*
D03*
X-5908Y40354D02*
D03*
X-5908Y27559D02*
D03*
X-5908Y11811D02*
D03*
X-5908Y-3937D02*
D03*
X-5908Y-35434D02*
D03*
X-5908Y-51182D02*
D03*
X5903Y-43308D02*
D03*
X-5908Y-66930D02*
D03*
X-5908Y-82678D02*
D03*
X5903Y-59056D02*
D03*
X5903Y-74804D02*
D03*
X-5908Y-98426D02*
D03*
X5903Y-90552D02*
D03*
X5903Y-106300D02*
D03*
X19688Y-147635D02*
D03*
X35435Y-147639D02*
D03*
X43309Y-135828D02*
D03*
X232286Y-135828D02*
D03*
X238585Y-147639D02*
D03*
X216537Y-135828D02*
D03*
X206890Y-135925D02*
D03*
X185041Y-135828D02*
D03*
X169293Y-135828D02*
D03*
X153545Y-135828D02*
D03*
X137797Y-135828D02*
D03*
X122049Y-135828D02*
D03*
X106301Y-135828D02*
D03*
X90553Y-135828D02*
D03*
X74805Y-135828D02*
D03*
X59057Y-135828D02*
D03*
X224412Y-147639D02*
D03*
X208664Y-147639D02*
D03*
X192915Y-147639D02*
D03*
X177167Y-147639D02*
D03*
X161419Y-147639D02*
D03*
X129923Y-147639D02*
D03*
X114175Y-147639D02*
D03*
X98427Y-147639D02*
D03*
X82679Y-147639D02*
D03*
X66931Y-147639D02*
D03*
X51183Y-147639D02*
D03*
X-59053Y-147639D02*
D03*
X-43305Y-147639D02*
D03*
X-66927Y-135828D02*
D03*
X-51179Y-135828D02*
D03*
X-36220Y-135335D02*
D03*
X-82675Y-135828D02*
D03*
X-98423Y-135828D02*
D03*
X-74801Y-147639D02*
D03*
X-90549Y-147639D02*
D03*
X-114171Y-135828D02*
D03*
X-129919Y-135828D02*
D03*
X-106297Y-147639D02*
D03*
X-122045Y-147639D02*
D03*
X-145667Y-135828D02*
D03*
X-161415Y-135828D02*
D03*
X-137793Y-147639D02*
D03*
X-153541Y-147639D02*
D03*
X-177163Y-135828D02*
D03*
X-192911Y-135828D02*
D03*
X-169289Y-147639D02*
D03*
X-188974Y-147639D02*
D03*
X-208659Y-135828D02*
D03*
X-224407Y-135828D02*
D03*
X-200785Y-147639D02*
D03*
X-216533Y-147639D02*
D03*
X-240155Y-135828D02*
D03*
X-255903Y-135828D02*
D03*
X-232281Y-147639D02*
D03*
X-248029Y-147639D02*
D03*
X-263777Y-147639D02*
D03*
X-271651Y-135828D02*
D03*
X35434Y-5904D02*
D03*
X27560Y5907D02*
D03*
X11812Y5907D02*
D03*
X19686Y-5904D02*
D03*
X-3936Y5907D02*
D03*
X-19684Y5907D02*
D03*
X-11810Y-5904D02*
D03*
X-27558Y-5904D02*
D03*
X250394Y-5906D02*
D03*
X232284Y5907D02*
D03*
X200788Y5907D02*
D03*
X187009Y5907D02*
D03*
X169292Y5907D02*
D03*
X153544Y5907D02*
D03*
X137796Y5907D02*
D03*
X122048Y5907D02*
D03*
X106300Y5907D02*
D03*
X90552Y5907D02*
D03*
X74804Y5907D02*
D03*
X59056Y5907D02*
D03*
X43308Y5907D02*
D03*
X224410Y-5906D02*
D03*
X208661D02*
D03*
X192914Y-5904D02*
D03*
X177166Y-5904D02*
D03*
X161418Y-5904D02*
D03*
X145670Y-5904D02*
D03*
X129922Y-5904D02*
D03*
X114174Y-5904D02*
D03*
X98426Y-5904D02*
D03*
X82678Y-5904D02*
D03*
X66930Y-5904D02*
D03*
X51182Y-5904D02*
D03*
X-59054Y-5904D02*
D03*
X-43306Y-5904D02*
D03*
X-66928Y5907D02*
D03*
X-51180Y5907D02*
D03*
X-35432Y5907D02*
D03*
X-82677Y5907D02*
D03*
X-98425Y5906D02*
D03*
X-74803Y-5904D02*
D03*
X-90551Y-5904D02*
D03*
X-114173Y5906D02*
D03*
X-129921Y5906D02*
D03*
X-106299Y-5904D02*
D03*
X-122047Y-5904D02*
D03*
X-145669Y5906D02*
D03*
X-161417Y5906D02*
D03*
X-137795Y-5904D02*
D03*
X-153543Y-5904D02*
D03*
X-177165Y5906D02*
D03*
X-192913Y5906D02*
D03*
X-169291Y-5904D02*
D03*
X-185039Y-5904D02*
D03*
X-208661Y5906D02*
D03*
X-224409Y5906D02*
D03*
X-200787Y-5905D02*
D03*
X-216535Y-5905D02*
D03*
X-240157Y5906D02*
D03*
X-255905Y5906D02*
D03*
X-232283Y-5905D02*
D03*
X-248031Y-5905D02*
D03*
X-263779Y-5905D02*
D03*
X-271653Y5906D02*
D03*
X259601Y135533D02*
D03*
X277264Y166831D02*
D03*
X263779Y147638D02*
D03*
X277223Y130393D02*
D03*
X277223Y114645D02*
D03*
X277223Y98897D02*
D03*
X296337Y269532D02*
D03*
X232672Y305072D02*
D03*
X309744Y159449D02*
D03*
X277257Y177666D02*
D03*
Y193414D02*
D03*
Y210971D02*
D03*
Y226390D02*
D03*
Y240658D02*
D03*
X309055Y253937D02*
D03*
X271654Y135827D02*
D03*
X277223Y83149D02*
D03*
X277559Y18898D02*
D03*
X277559Y34646D02*
D03*
X277559Y50394D02*
D03*
X277559Y66142D02*
D03*
X277559Y-75590D02*
D03*
X277559Y-59842D02*
D03*
X277559Y-91339D02*
D03*
X305315Y-224114D02*
D03*
Y-220571D02*
D03*
X277645Y-210393D02*
D03*
X277645Y-194645D02*
D03*
X288090Y-275886D02*
D03*
X277707Y-265315D02*
D03*
X271057Y-277897D02*
D03*
X225185Y-277853D02*
D03*
X210630Y-277559D02*
D03*
X242126Y-277559D02*
D03*
X257874Y-277559D02*
D03*
X131890Y-277559D02*
D03*
X147638Y-277559D02*
D03*
X163386Y-277559D02*
D03*
X179134Y-277559D02*
D03*
X194882Y-277559D02*
D03*
X53150Y-277559D02*
D03*
X68898Y-277559D02*
D03*
X84646Y-277559D02*
D03*
X100394Y-277559D02*
D03*
X116142Y-277559D02*
D03*
X-25590Y-277559D02*
D03*
X-9842Y-277559D02*
D03*
X5906Y-277559D02*
D03*
X21654Y-277559D02*
D03*
X37402Y-277559D02*
D03*
X-104330Y-277559D02*
D03*
X-88582Y-277559D02*
D03*
X-72834Y-277559D02*
D03*
X-57086Y-277559D02*
D03*
X-41338Y-277559D02*
D03*
X-183071Y-277559D02*
D03*
X-167323Y-277559D02*
D03*
X-151575Y-277559D02*
D03*
X-135826Y-277559D02*
D03*
X-120078Y-277559D02*
D03*
X-261811Y-277559D02*
D03*
X-246063Y-277559D02*
D03*
X-230315Y-277559D02*
D03*
X-214567Y-277559D02*
D03*
X-198819Y-277559D02*
D03*
X-277559Y-226378D02*
D03*
X-277559Y-242126D02*
D03*
X-277559Y-257874D02*
D03*
X-277559Y-277559D02*
D03*
X-277559Y-147638D02*
D03*
X-277559Y-163386D02*
D03*
X-277559Y-179134D02*
D03*
X-277559Y-194882D02*
D03*
X-277559Y-210630D02*
D03*
X-277559Y-68898D02*
D03*
X-277559Y-84646D02*
D03*
X-277559Y-100394D02*
D03*
X-277559Y-116142D02*
D03*
X-277559Y-131890D02*
D03*
X-277559Y9843D02*
D03*
X-277559Y-5906D02*
D03*
X-277559Y-21654D02*
D03*
X-277559Y-37402D02*
D03*
X-277559Y-53150D02*
D03*
X-277559Y88583D02*
D03*
X-277559Y72835D02*
D03*
X-277559Y57087D02*
D03*
X-277559Y41339D02*
D03*
X-277559Y25591D02*
D03*
X-277559Y167323D02*
D03*
X-277559Y151575D02*
D03*
X-277559Y135827D02*
D03*
X-277559Y120079D02*
D03*
X-277559Y104331D02*
D03*
X-277559Y246063D02*
D03*
X-277559Y230315D02*
D03*
X-277559Y214567D02*
D03*
X-277559Y198819D02*
D03*
X-277559Y183071D02*
D03*
X-257874Y309055D02*
D03*
X-273622Y309055D02*
D03*
X-179134Y309055D02*
D03*
X-194882Y309055D02*
D03*
X-210630Y309055D02*
D03*
X-226378Y309055D02*
D03*
X-242126Y309055D02*
D03*
X-100394Y309055D02*
D03*
X-116142Y309055D02*
D03*
X-131890Y309055D02*
D03*
X-147638Y309055D02*
D03*
X-163386Y309055D02*
D03*
X-21654Y309055D02*
D03*
X-37402Y309055D02*
D03*
X-53150Y309055D02*
D03*
X-68898Y309055D02*
D03*
X-84646Y309055D02*
D03*
X57087Y309055D02*
D03*
X41339Y309055D02*
D03*
X25591Y309055D02*
D03*
X9843Y309055D02*
D03*
X-5906Y309055D02*
D03*
X135827Y309055D02*
D03*
X120079Y309055D02*
D03*
X104331Y309055D02*
D03*
X88583Y309055D02*
D03*
X72835Y309055D02*
D03*
X214567Y309055D02*
D03*
X198819Y309055D02*
D03*
X183071Y309055D02*
D03*
X167323Y309055D02*
D03*
X151575Y309055D02*
D03*
X277559Y309055D02*
D03*
X261811Y309055D02*
D03*
X246063Y309055D02*
D03*
X230315Y309055D02*
D03*
X-309055Y257874D02*
D03*
X-309055Y273622D02*
D03*
X-309055Y179133D02*
D03*
X-309055Y194881D02*
D03*
X-309055Y210630D02*
D03*
X-309055Y226378D02*
D03*
X-309055Y242126D02*
D03*
X-309055Y100393D02*
D03*
X-309055Y116141D02*
D03*
X-309055Y131889D02*
D03*
X-309055Y147637D02*
D03*
X-309055Y163385D02*
D03*
X-309055Y21653D02*
D03*
X-309055Y37401D02*
D03*
X-309055Y53149D02*
D03*
X-309055Y68897D02*
D03*
X-309055Y84645D02*
D03*
X-309055Y-57087D02*
D03*
X-309055Y-41339D02*
D03*
X-309055Y-25591D02*
D03*
X-309055Y-9843D02*
D03*
X-309055Y5905D02*
D03*
X-309055Y-135827D02*
D03*
X-309055Y-120079D02*
D03*
X-309055Y-104331D02*
D03*
X-309055Y-88583D02*
D03*
X-309055Y-72835D02*
D03*
X-309055Y-214567D02*
D03*
X-309055Y-198819D02*
D03*
X-309055Y-183071D02*
D03*
X-309055Y-167323D02*
D03*
X-309055Y-151575D02*
D03*
X-309055Y-277559D02*
D03*
X-309055Y-261811D02*
D03*
X-309055Y-246063D02*
D03*
X-309055Y-230315D02*
D03*
X-257874Y-309055D02*
D03*
X-273622Y-309055D02*
D03*
X-179133Y-309055D02*
D03*
X-194881Y-309055D02*
D03*
X-210630Y-309055D02*
D03*
X-226378Y-309055D02*
D03*
X-242126Y-309055D02*
D03*
X-100393Y-309055D02*
D03*
X-116141Y-309055D02*
D03*
X-131889Y-309055D02*
D03*
X-147637Y-309055D02*
D03*
X-163385Y-309055D02*
D03*
X-21653Y-309055D02*
D03*
X-37401Y-309055D02*
D03*
X-53149Y-309055D02*
D03*
X-68897Y-309055D02*
D03*
X-84645Y-309055D02*
D03*
X57087Y-309055D02*
D03*
X41339Y-309055D02*
D03*
X25591Y-309055D02*
D03*
X9843Y-309055D02*
D03*
X-5905Y-309055D02*
D03*
X135827Y-309055D02*
D03*
X120079Y-309055D02*
D03*
X104331Y-309055D02*
D03*
X88583Y-309055D02*
D03*
X72835Y-309055D02*
D03*
X214567Y-309055D02*
D03*
X198819Y-309055D02*
D03*
X183071Y-309055D02*
D03*
X167323Y-309055D02*
D03*
X151575Y-309055D02*
D03*
X277559Y-309055D02*
D03*
X261811Y-309055D02*
D03*
X246063Y-309055D02*
D03*
X230315Y-309055D02*
D03*
X309055Y-273622D02*
D03*
X309055Y-194882D02*
D03*
X308858Y-213878D02*
D03*
X309055Y-226378D02*
D03*
X309055Y-242126D02*
D03*
X309055Y-257874D02*
D03*
X309154Y-134449D02*
D03*
X309055Y-37402D02*
D03*
X309055Y-53150D02*
D03*
X309055Y-68898D02*
D03*
X309055Y-84646D02*
D03*
X309055Y9843D02*
D03*
X309055Y-5906D02*
D03*
X309055Y-21654D02*
D03*
X308783Y53909D02*
D03*
X310125Y33570D02*
D03*
X310365Y43797D02*
D03*
X309055Y88583D02*
D03*
X309055Y72835D02*
D03*
X309055Y57087D02*
D03*
X309941Y171358D02*
D03*
X309646Y147638D02*
D03*
X309055Y135827D02*
D03*
X309055Y120079D02*
D03*
X309055Y104331D02*
D03*
X277257Y248532D02*
D03*
Y232784D02*
D03*
Y215158D02*
D03*
Y200079D02*
D03*
Y185540D02*
D03*
X309055Y277559D02*
D03*
X309055Y261811D02*
D03*
X277257Y253917D02*
D03*
X277334Y260940D02*
D03*
X277362Y272933D02*
D03*
X210630Y277559D02*
D03*
X131890Y277559D02*
D03*
X147638Y277559D02*
D03*
X163386Y277559D02*
D03*
X179134Y277559D02*
D03*
X194882Y277559D02*
D03*
X68898Y277559D02*
D03*
X84646Y277559D02*
D03*
X100394Y277559D02*
D03*
X116142Y277559D02*
D03*
X-25591Y277559D02*
D03*
X-9843Y277559D02*
D03*
X5906Y277559D02*
D03*
X21654Y277559D02*
D03*
X40059Y277559D02*
D03*
X-104331Y277559D02*
D03*
X-88583Y277559D02*
D03*
X-72835Y277559D02*
D03*
X-57087Y277559D02*
D03*
X-41339Y277559D02*
D03*
X-183071Y277559D02*
D03*
X-167323Y277559D02*
D03*
X-151575Y277559D02*
D03*
X-135827Y277559D02*
D03*
X-120079Y277559D02*
D03*
X-198819Y277559D02*
D03*
X-214567Y277559D02*
D03*
X-230315Y277559D02*
D03*
X-246063Y277559D02*
D03*
X-277559Y261811D02*
D03*
X-261811Y277559D02*
D03*
X-277559Y277559D02*
D03*
X304972Y-97871D02*
D03*
X297124Y-209200D02*
D03*
X299627Y-148369D02*
D03*
X2907Y-129466D02*
D03*
X3202Y-123856D02*
D03*
X-2067Y-117618D02*
D03*
X16640Y145045D02*
D03*
X13928Y143959D02*
D03*
X-14910Y144550D02*
D03*
X-11859Y144353D02*
D03*
X19095Y-145081D02*
D03*
X3345Y160825D02*
D03*
X26967Y145077D02*
D03*
X-3491Y-141720D02*
D03*
X3498D02*
D03*
X4Y-138226D02*
D03*
Y-145214D02*
D03*
X1Y138251D02*
D03*
Y145239D02*
D03*
X3495Y141745D02*
D03*
X-3493D02*
D03*
X3498Y-145214D02*
D03*
Y-138226D02*
D03*
X-3491Y-145214D02*
D03*
Y-138226D02*
D03*
X1Y-141734D02*
D03*
X-2Y141731D02*
D03*
X-3493Y145239D02*
D03*
Y138251D02*
D03*
X3495Y145239D02*
D03*
X303346Y-129156D02*
D03*
X277758Y-137598D02*
D03*
X268309D02*
D03*
X277758Y-131299D02*
D03*
X274608Y-143897D02*
D03*
X303346Y-126673D02*
D03*
X249903Y-136144D02*
D03*
X265061Y-146577D02*
D03*
X287698Y-134449D02*
D03*
X3495Y138251D02*
D03*
X-26145Y-141767D02*
D03*
X284967Y-272298D02*
D03*
X301108Y125341D02*
D03*
X281082Y77715D02*
D03*
X295570Y72327D02*
D03*
X277461Y-169291D02*
D03*
X253359Y-146464D02*
D03*
X297049Y-145691D02*
D03*
X300234Y-144662D02*
D03*
X287797Y-137325D02*
D03*
X145671Y-147639D02*
D03*
X245548Y-143716D02*
D03*
X259587Y-143355D02*
D03*
X277645Y-226141D02*
D03*
X216535Y5906D02*
D03*
X53150Y277559D02*
D03*
X226378Y277559D02*
D03*
X242126Y277559D02*
D03*
X257874Y277559D02*
D03*
X273622Y277558D02*
D03*
X277461Y-116043D02*
D03*
X297146Y-142618D02*
D03*
X289862Y-132185D02*
D03*
X300113Y-136030D02*
D03*
X309055Y-100394D02*
D03*
X280413Y-157677D02*
D03*
X278576Y120339D02*
D03*
X310098Y289149D02*
D03*
X289262Y310831D02*
D03*
X289166Y-310861D02*
D03*
X310345Y-288667D02*
D03*
X-288577Y-310328D02*
D03*
X-310846Y-289036D02*
D03*
X-310577Y288380D02*
D03*
X-289385Y310861D02*
D03*
X-283944Y297162D02*
D03*
X-296537Y283929D02*
D03*
X-295247Y-284465D02*
D03*
X-284350Y-296918D02*
D03*
X284018Y-297000D02*
D03*
X295818Y-284789D02*
D03*
X283935Y296001D02*
D03*
X296712Y284289D02*
D03*
X3938Y-5904D02*
D03*
X5903Y3937D02*
D03*
X5903Y19685D02*
D03*
X5903Y35433D02*
D03*
X5903Y51181D02*
D03*
X5903Y66929D02*
D03*
X5903Y82677D02*
D03*
X5903Y98425D02*
D03*
X23Y108759D02*
D03*
X-4Y116043D02*
D03*
D17*
X299213Y-299213D02*
D03*
X-299213D02*
D03*
X299213Y299213D02*
D03*
X-299213D02*
D03*
D18*
X281273Y149213D02*
D03*
X282283Y-100689D02*
D03*
Y-103543D02*
D03*
Y-106398D02*
D03*
Y-109350D02*
D03*
X308268Y-199705D02*
D03*
X284744Y-188583D02*
D03*
X297342Y-197933D02*
D03*
X299803Y-194980D02*
D03*
X301083Y-188976D02*
D03*
X296063Y-194980D02*
D03*
X301083Y-185531D02*
D03*
X227950Y-283366D02*
D03*
X233760Y-285138D02*
D03*
X281594Y-171063D02*
D03*
X280709Y-174016D02*
D03*
X283957Y-174114D02*
D03*
X287205D02*
D03*
X293307Y-18898D02*
D03*
X295534Y76596D02*
D03*
X302736Y34017D02*
D03*
X196161Y298228D02*
D03*
X282480Y-190748D02*
D03*
X284449Y-194095D02*
D03*
X293406Y163189D02*
D03*
X281299Y255315D02*
D03*
X290978Y-243081D02*
D03*
X290480Y-171053D02*
D03*
Y-173983D02*
D03*
X282729Y114984D02*
D03*
X273887Y145633D02*
D03*
X300926Y18739D02*
D03*
X300445Y37948D02*
D03*
X279053Y-222118D02*
D03*
X281454Y-219486D02*
D03*
X293307Y-220563D02*
D03*
X240966Y-280934D02*
D03*
X230965Y-280903D02*
D03*
X302736Y54247D02*
D03*
X293917Y34110D02*
D03*
X300952Y121286D02*
D03*
X297988Y54144D02*
D03*
X239965Y288943D02*
D03*
X236920Y298326D02*
D03*
X286365Y-260013D02*
D03*
X292125Y-259787D02*
D03*
X293205Y-266311D02*
D03*
X287604Y-264865D02*
D03*
X284584Y-266027D02*
D03*
X294379Y-94193D02*
D03*
X288486Y-146676D02*
D03*
X289470Y-143920D02*
D03*
X141240Y-123130D02*
D03*
X142618Y-128642D02*
D03*
X142913Y-156496D02*
D03*
X140453Y-158563D02*
D03*
X286126Y-225998D02*
D03*
X229331Y281496D02*
D03*
X231988Y279823D02*
D03*
X234941Y281496D02*
D03*
X240846Y283563D02*
D03*
X293406Y275984D02*
D03*
X298524Y-109744D02*
D03*
X296555Y-107677D02*
D03*
X294587Y-109941D02*
D03*
X294291Y-105709D02*
D03*
X292224Y-103642D02*
D03*
X288976Y-103051D02*
D03*
X289862Y-105807D02*
D03*
X293012Y-167913D02*
D03*
D19*
X297124Y-206661D02*
X297146Y-206638D01*
X297124Y-209200D02*
Y-206661D01*
X303348Y-129156D02*
Y-126673D01*
D20*
X297146Y-206638D02*
X304251Y-199534D01*
X284967Y-284422D02*
Y-272298D01*
X284055Y-157677D02*
X304251D01*
X280413D02*
X284055D01*
Y-168799D02*
Y-157677D01*
X304251D02*
X304331D01*
X284967Y-272298D02*
X293907D01*
X297124Y-269082D01*
Y-209200D01*
X284747Y-131004D02*
X288979Y-126772D01*
X284747Y-134449D02*
X287698D01*
X253359Y-146464D02*
Y-143492D01*
X284747Y-135923D02*
Y-134449D01*
Y-131004D01*
X300662Y-136030D02*
X300669Y-136024D01*
X300113Y-136030D02*
X300662D01*
X300669Y-136024D02*
X300675Y-136030D01*
X302854Y-136024D02*
X302861Y-136030D01*
X304251Y-137420D01*
X253359Y-143492D02*
X256297Y-140553D01*
X280116D01*
X284747Y-135923D01*
X276378Y-293012D02*
X284967Y-284422D01*
X153287Y-293012D02*
X276378D01*
X145315Y-300984D02*
X153287Y-293012D01*
X304251Y-199534D02*
Y-157677D01*
Y-137420D01*
X288979Y-126772D02*
X303346D01*
D21*
X284695Y-197097D02*
X294980Y-186811D01*
X283022Y-197097D02*
X284695D01*
X283760Y-200787D02*
X294094Y-190453D01*
X296752D01*
X285433Y-5709D02*
X294390D01*
X277953Y1772D02*
X285433Y-5709D01*
X229823Y1772D02*
X277953D01*
X281082Y77715D02*
X286470Y72327D01*
X295570D01*
X291494Y-148369D02*
X299627D01*
X290453Y-149409D02*
X291494Y-148369D01*
X283465Y-149409D02*
X290453D01*
X280632Y-146577D02*
X283465Y-149409D01*
X265061Y-146577D02*
X280632D01*
X278576Y120339D02*
X283578Y125341D01*
X301108D01*
X294980Y-186811D02*
Y-185118D01*
X298700Y-181398D01*
X301378D01*
D22*
X305807Y38780D02*
Y55439D01*
Y19193D02*
Y38780D01*
Y12864D02*
Y19193D01*
X302217Y59029D02*
X305807Y55439D01*
X301618Y8675D02*
X305807Y12864D01*
X194488Y303051D02*
X218220D01*
X227493Y293778D02*
X264932D01*
X218220Y303051D02*
X227493Y293778D01*
X290236Y180109D02*
Y268474D01*
Y180109D02*
X298489Y171856D01*
Y133168D02*
Y171856D01*
Y133168D02*
X305242Y126415D01*
X291518Y-137325D02*
X298230D01*
X287797D02*
X291518D01*
Y-133741D01*
X302217Y59029D02*
Y114809D01*
X305242Y117833D01*
Y126415D01*
X264932Y293778D02*
X290236Y268474D01*
X296655Y-137359D02*
X297146Y-137849D01*
Y-142618D02*
Y-137849D01*
X289962Y-132185D02*
X291518Y-133741D01*
X289862Y-132185D02*
X289962D01*
X298230Y-137325D02*
X299525Y-136030D01*
X300113D01*
X300662D02*
X300675D01*
X303045D02*
X307972Y-131102D01*
X300675Y-136030D02*
X302861D01*
X303045D01*
X301618Y-94630D02*
Y8675D01*
X307972Y-131102D02*
Y-107283D01*
X305217Y-104528D02*
X307972Y-107283D01*
X304972Y-97983D02*
Y-97871D01*
X305217Y-104528D02*
Y-104528D01*
X307972Y-107283D01*
X305020Y-104331D02*
X305217Y-104528D01*
X305020Y-104331D02*
Y-98032D01*
X304972Y-97983D02*
X305020Y-98032D01*
X301618Y-94630D02*
X304972Y-97983D01*
M02*
