G04 Layer_Physical_Order=5*
G04 Layer_Color=16440176*
%FSLAX25Y25*%
%MOIN*%
G70*
G01*
G75*
%ADD13C,0.05906*%
G04:AMPARAMS|DCode=14|XSize=59.06mil|YSize=59.06mil|CornerRadius=2.95mil|HoleSize=0mil|Usage=FLASHONLY|Rotation=0.000|XOffset=0mil|YOffset=0mil|HoleType=Round|Shape=RoundedRectangle|*
%AMROUNDEDRECTD14*
21,1,0.05906,0.05315,0,0,0.0*
21,1,0.05315,0.05906,0,0,0.0*
1,1,0.00591,0.02658,-0.02658*
1,1,0.00591,-0.02658,-0.02658*
1,1,0.00591,-0.02658,0.02658*
1,1,0.00591,0.02658,0.02658*
%
%ADD14ROUNDEDRECTD14*%
%ADD16C,0.02362*%
%ADD17C,0.14173*%
%ADD18C,0.00984*%
G36*
X294488Y305521D02*
X293618Y304807D01*
X292634Y303608D01*
X291903Y302240D01*
X291453Y300756D01*
X291301Y299213D01*
X291453Y297669D01*
X291903Y296185D01*
X292634Y294817D01*
X293618Y293618D01*
X294817Y292634D01*
X296185Y291903D01*
X297669Y291453D01*
X299213Y291301D01*
X300756Y291453D01*
X302240Y291903D01*
X303608Y292634D01*
X304807Y293618D01*
X305521Y294488D01*
X312552D01*
Y-294488D01*
X305521D01*
X304807Y-293618D01*
X303608Y-292634D01*
X302240Y-291903D01*
X300756Y-291453D01*
X299213Y-291301D01*
X297669Y-291453D01*
X296185Y-291903D01*
X294817Y-292634D01*
X293618Y-293618D01*
X292634Y-294817D01*
X291903Y-296185D01*
X291453Y-297669D01*
X291301Y-299213D01*
X291453Y-300756D01*
X291903Y-302240D01*
X292634Y-303608D01*
X293618Y-304807D01*
X294488Y-305521D01*
Y-312552D01*
X-294488D01*
Y-305521D01*
X-293618Y-304807D01*
X-292634Y-303608D01*
X-291903Y-302240D01*
X-291453Y-300756D01*
X-291301Y-299213D01*
X-291453Y-297669D01*
X-291903Y-296185D01*
X-292634Y-294817D01*
X-293618Y-293618D01*
X-294817Y-292634D01*
X-296185Y-291903D01*
X-297669Y-291453D01*
X-299213Y-291301D01*
X-300756Y-291453D01*
X-302240Y-291903D01*
X-303608Y-292634D01*
X-304807Y-293618D01*
X-305521Y-294488D01*
X-312552D01*
Y294488D01*
X-305521D01*
X-304807Y293618D01*
X-303608Y292634D01*
X-302240Y291903D01*
X-300756Y291453D01*
X-299213Y291301D01*
X-297669Y291453D01*
X-296185Y291903D01*
X-294817Y292634D01*
X-293618Y293618D01*
X-292634Y294817D01*
X-291903Y296185D01*
X-291453Y297669D01*
X-291301Y299213D01*
X-291453Y300756D01*
X-291903Y302240D01*
X-292634Y303608D01*
X-293618Y304807D01*
X-294488Y305521D01*
Y312552D01*
X294488D01*
Y305521D01*
D02*
G37*
%LPC*%
G36*
X284744Y-186576D02*
X283976Y-186728D01*
X283325Y-187163D01*
X282890Y-187815D01*
X282794Y-188294D01*
X282480Y-188741D01*
X281712Y-188894D01*
X281061Y-189329D01*
X280626Y-189980D01*
X280473Y-190748D01*
X280626Y-191516D01*
X281061Y-192167D01*
X281712Y-192602D01*
X282387Y-192737D01*
X282583Y-193027D01*
X282660Y-193229D01*
X282594Y-193326D01*
X282442Y-194095D01*
X282557Y-194672D01*
X282288Y-195235D01*
X282254Y-195242D01*
X281602Y-195677D01*
X281167Y-196328D01*
X281015Y-197097D01*
X281167Y-197864D01*
X281602Y-198516D01*
X282159Y-198888D01*
X282263Y-199162D01*
X282276Y-199465D01*
X281906Y-200019D01*
X281753Y-200787D01*
X281906Y-201555D01*
X282341Y-202207D01*
X282992Y-202642D01*
X283760Y-202795D01*
X284528Y-202642D01*
X285179Y-202207D01*
X285614Y-201555D01*
X285767Y-200787D01*
X285614Y-200019D01*
X285179Y-199368D01*
X284622Y-198996D01*
X284519Y-198722D01*
X284506Y-198419D01*
X284876Y-197864D01*
X285029Y-197097D01*
X284897Y-196436D01*
X285182Y-195956D01*
X285217Y-195949D01*
X285868Y-195514D01*
X286303Y-194863D01*
X286456Y-194095D01*
X286303Y-193326D01*
X285868Y-192675D01*
X285217Y-192240D01*
X284542Y-192106D01*
X284346Y-191816D01*
X284270Y-191613D01*
X284335Y-191516D01*
X284430Y-191037D01*
X284744Y-190590D01*
X285512Y-190437D01*
X286163Y-190002D01*
X286598Y-189351D01*
X286751Y-188583D01*
X286598Y-187815D01*
X286163Y-187163D01*
X285512Y-186728D01*
X284744Y-186576D01*
D02*
G37*
G36*
X297146Y-204631D02*
X296378Y-204784D01*
X295727Y-205219D01*
X295292Y-205870D01*
X295139Y-206638D01*
X295292Y-207406D01*
X295623Y-207902D01*
X295269Y-208432D01*
X295117Y-209200D01*
X295269Y-209968D01*
X295705Y-210619D01*
X296356Y-211054D01*
X297124Y-211207D01*
X297892Y-211054D01*
X298543Y-210619D01*
X298978Y-209968D01*
X299131Y-209200D01*
X298978Y-208432D01*
X298646Y-207936D01*
X299001Y-207406D01*
X299153Y-206638D01*
X299001Y-205870D01*
X298566Y-205219D01*
X297914Y-204784D01*
X297146Y-204631D01*
D02*
G37*
G36*
X240545Y-208661D02*
X239770D01*
X239009Y-208813D01*
X238293Y-209109D01*
X237648Y-209540D01*
X237099Y-210089D01*
X236668Y-210734D01*
X236372Y-211450D01*
X236221Y-212211D01*
Y-212986D01*
X236372Y-213747D01*
X236668Y-214463D01*
X237099Y-215108D01*
X237648Y-215656D01*
X238293Y-216087D01*
X239009Y-216384D01*
X239770Y-216535D01*
X240545D01*
X241306Y-216384D01*
X242022Y-216087D01*
X242667Y-215656D01*
X243215Y-215108D01*
X243646Y-214463D01*
X243943Y-213747D01*
X244094Y-212986D01*
Y-212211D01*
X243943Y-211450D01*
X243646Y-210734D01*
X243215Y-210089D01*
X242667Y-209540D01*
X242022Y-209109D01*
X241306Y-208813D01*
X240545Y-208661D01*
D02*
G37*
G36*
X308268Y-197698D02*
X307500Y-197850D01*
X306849Y-198285D01*
X306413Y-198937D01*
X306261Y-199705D01*
X306413Y-200473D01*
X306849Y-201124D01*
X307500Y-201559D01*
X308268Y-201712D01*
X309036Y-201559D01*
X309687Y-201124D01*
X310122Y-200473D01*
X310275Y-199705D01*
X310122Y-198937D01*
X309687Y-198285D01*
X309036Y-197850D01*
X308268Y-197698D01*
D02*
G37*
G36*
X296752Y-188446D02*
X295984Y-188599D01*
X295333Y-189033D01*
X294898Y-189685D01*
X294745Y-190453D01*
X294898Y-191221D01*
X295333Y-191872D01*
X295984Y-192307D01*
X296752Y-192460D01*
X297520Y-192307D01*
X298171Y-191872D01*
X298606Y-191221D01*
X298759Y-190453D01*
X298606Y-189685D01*
X298171Y-189033D01*
X297520Y-188599D01*
X296752Y-188446D01*
D02*
G37*
G36*
X299803Y-192973D02*
X299035Y-193126D01*
X298384Y-193561D01*
X298234Y-193786D01*
X297632D01*
X297482Y-193561D01*
X296831Y-193126D01*
X296063Y-192973D01*
X295295Y-193126D01*
X294644Y-193561D01*
X294209Y-194212D01*
X294056Y-194980D01*
X294209Y-195748D01*
X294644Y-196399D01*
X295165Y-196748D01*
X295331Y-196961D01*
X295446Y-197375D01*
X295335Y-197933D01*
X295488Y-198701D01*
X295923Y-199352D01*
X296574Y-199787D01*
X297342Y-199940D01*
X298111Y-199787D01*
X298762Y-199352D01*
X299197Y-198701D01*
X299350Y-197933D01*
X299241Y-197385D01*
X299590Y-196970D01*
X299625Y-196952D01*
X299803Y-196987D01*
X300571Y-196835D01*
X301222Y-196399D01*
X301657Y-195748D01*
X301810Y-194980D01*
X301657Y-194212D01*
X301222Y-193561D01*
X300571Y-193126D01*
X299803Y-192973D01*
D02*
G37*
G36*
X301378Y-179391D02*
X300610Y-179543D01*
X299959Y-179978D01*
X299524Y-180630D01*
X299371Y-181398D01*
X299524Y-182166D01*
X299959Y-182817D01*
X300445Y-183142D01*
X300347Y-183671D01*
X300315Y-183677D01*
X299663Y-184112D01*
X299228Y-184763D01*
X299076Y-185531D01*
X299228Y-186300D01*
X299663Y-186951D01*
X299743Y-187004D01*
Y-187504D01*
X299663Y-187557D01*
X299228Y-188208D01*
X299076Y-188976D01*
X299228Y-189744D01*
X299663Y-190396D01*
X300315Y-190831D01*
X301083Y-190983D01*
X301851Y-190831D01*
X302502Y-190396D01*
X302937Y-189744D01*
X303090Y-188976D01*
X302937Y-188208D01*
X302502Y-187557D01*
X302422Y-187504D01*
Y-187004D01*
X302502Y-186951D01*
X302937Y-186300D01*
X303090Y-185531D01*
X302937Y-184763D01*
X302502Y-184112D01*
X302016Y-183788D01*
X302113Y-183258D01*
X302146Y-183252D01*
X302797Y-182817D01*
X303232Y-182166D01*
X303385Y-181398D01*
X303232Y-180630D01*
X302797Y-179978D01*
X302146Y-179543D01*
X301378Y-179391D01*
D02*
G37*
G36*
X293307Y-218556D02*
X292539Y-218708D01*
X291888Y-219144D01*
X291453Y-219795D01*
X291300Y-220563D01*
X291453Y-221331D01*
X291888Y-221982D01*
X292539Y-222417D01*
X293307Y-222570D01*
X294075Y-222417D01*
X294726Y-221982D01*
X295161Y-221331D01*
X295314Y-220563D01*
X295161Y-219795D01*
X294726Y-219144D01*
X294075Y-218708D01*
X293307Y-218556D01*
D02*
G37*
G36*
X286126Y-223991D02*
X285358Y-224143D01*
X284707Y-224578D01*
X284272Y-225230D01*
X284119Y-225998D01*
X284272Y-226766D01*
X284707Y-227417D01*
X285358Y-227852D01*
X286126Y-228005D01*
X286894Y-227852D01*
X287545Y-227417D01*
X287980Y-226766D01*
X288133Y-225998D01*
X287980Y-225230D01*
X287545Y-224578D01*
X286894Y-224143D01*
X286126Y-223991D01*
D02*
G37*
G36*
X212986Y-236221D02*
X212211D01*
X211450Y-236372D01*
X210734Y-236669D01*
X210089Y-237099D01*
X209540Y-237648D01*
X209109Y-238293D01*
X208813Y-239009D01*
X208661Y-239770D01*
Y-240545D01*
X208813Y-241306D01*
X209109Y-242022D01*
X209540Y-242667D01*
X210089Y-243216D01*
X210734Y-243646D01*
X211450Y-243943D01*
X212211Y-244094D01*
X212986D01*
X213747Y-243943D01*
X214463Y-243646D01*
X215108Y-243216D01*
X215656Y-242667D01*
X216087Y-242022D01*
X216384Y-241306D01*
X216535Y-240545D01*
Y-239770D01*
X216384Y-239009D01*
X216087Y-238293D01*
X215656Y-237648D01*
X215108Y-237099D01*
X214463Y-236669D01*
X213747Y-236372D01*
X212986Y-236221D01*
D02*
G37*
G36*
X281454Y-217479D02*
X280686Y-217632D01*
X280035Y-218067D01*
X279600Y-218718D01*
X279447Y-219486D01*
X279505Y-219777D01*
X279151Y-220131D01*
X279053Y-220111D01*
X278286Y-220264D01*
X277634Y-220699D01*
X277199Y-221350D01*
X277046Y-222118D01*
X277199Y-222886D01*
X277634Y-223538D01*
X278286Y-223973D01*
X279053Y-224126D01*
X279822Y-223973D01*
X280473Y-223538D01*
X280908Y-222886D01*
X281061Y-222118D01*
X281003Y-221827D01*
X281356Y-221474D01*
X281454Y-221493D01*
X282222Y-221340D01*
X282873Y-220905D01*
X283308Y-220254D01*
X283461Y-219486D01*
X283308Y-218718D01*
X282873Y-218067D01*
X282222Y-217632D01*
X281454Y-217479D01*
D02*
G37*
G36*
X98813Y-208661D02*
X98037D01*
X97277Y-208813D01*
X96560Y-209109D01*
X95916Y-209540D01*
X95367Y-210089D01*
X94936Y-210734D01*
X94639Y-211450D01*
X94488Y-212211D01*
Y-212986D01*
X94639Y-213747D01*
X94936Y-214463D01*
X95367Y-215108D01*
X95916Y-215656D01*
X96560Y-216087D01*
X97277Y-216384D01*
X98037Y-216535D01*
X98813D01*
X99574Y-216384D01*
X100290Y-216087D01*
X100935Y-215656D01*
X101483Y-215108D01*
X101914Y-214463D01*
X102211Y-213747D01*
X102362Y-212986D01*
Y-212211D01*
X102211Y-211450D01*
X101914Y-210734D01*
X101483Y-210089D01*
X100935Y-209540D01*
X100290Y-209109D01*
X99574Y-208813D01*
X98813Y-208661D01*
D02*
G37*
G36*
X-42919D02*
X-43695D01*
X-44456Y-208813D01*
X-45172Y-209109D01*
X-45817Y-209540D01*
X-46365Y-210089D01*
X-46796Y-210734D01*
X-47093Y-211450D01*
X-47244Y-212211D01*
Y-212986D01*
X-47093Y-213747D01*
X-46796Y-214463D01*
X-46365Y-215108D01*
X-45817Y-215656D01*
X-45172Y-216087D01*
X-44456Y-216384D01*
X-43695Y-216535D01*
X-42919D01*
X-42159Y-216384D01*
X-41442Y-216087D01*
X-40797Y-215656D01*
X-40249Y-215108D01*
X-39818Y-214463D01*
X-39521Y-213747D01*
X-39370Y-212986D01*
Y-212211D01*
X-39521Y-211450D01*
X-39818Y-210734D01*
X-40249Y-210089D01*
X-40797Y-209540D01*
X-41442Y-209109D01*
X-42159Y-208813D01*
X-42919Y-208661D01*
D02*
G37*
G36*
X-184652D02*
X-185427D01*
X-186188Y-208813D01*
X-186904Y-209109D01*
X-187549Y-209540D01*
X-188098Y-210089D01*
X-188528Y-210734D01*
X-188825Y-211450D01*
X-188976Y-212211D01*
Y-212986D01*
X-188825Y-213747D01*
X-188528Y-214463D01*
X-188098Y-215108D01*
X-187549Y-215656D01*
X-186904Y-216087D01*
X-186188Y-216384D01*
X-185427Y-216535D01*
X-184652D01*
X-183891Y-216384D01*
X-183175Y-216087D01*
X-182530Y-215656D01*
X-181981Y-215108D01*
X-181551Y-214463D01*
X-181254Y-213747D01*
X-181102Y-212986D01*
Y-212211D01*
X-181254Y-211450D01*
X-181551Y-210734D01*
X-181981Y-210089D01*
X-182530Y-209540D01*
X-183175Y-209109D01*
X-183891Y-208813D01*
X-184652Y-208661D01*
D02*
G37*
G36*
X289862Y-130178D02*
X289094Y-130331D01*
X288443Y-130766D01*
X288008Y-131417D01*
X287898Y-131972D01*
X287787Y-132233D01*
X287408Y-132500D01*
X286930Y-132595D01*
X286279Y-133030D01*
X285844Y-133681D01*
X285691Y-134449D01*
X285844Y-135217D01*
X286279Y-135868D01*
X286365Y-135925D01*
X285943Y-136557D01*
X285790Y-137325D01*
X285943Y-138093D01*
X286378Y-138744D01*
X287029Y-139179D01*
X287797Y-139332D01*
X288565Y-139179D01*
X289216Y-138744D01*
X289651Y-138093D01*
X289804Y-137325D01*
X289651Y-136557D01*
X289216Y-135906D01*
X289130Y-135849D01*
X289553Y-135217D01*
X289663Y-134662D01*
X289774Y-134401D01*
X290153Y-134134D01*
X290630Y-134039D01*
X291281Y-133604D01*
X291717Y-132953D01*
X291869Y-132185D01*
X291717Y-131417D01*
X291281Y-130766D01*
X290630Y-130331D01*
X289862Y-130178D01*
D02*
G37*
G36*
X297146Y-140611D02*
X296378Y-140764D01*
X295726Y-141199D01*
X295291Y-141850D01*
X295139Y-142618D01*
X295291Y-143386D01*
X295726Y-144037D01*
X296378Y-144472D01*
X297146Y-144625D01*
X297914Y-144472D01*
X298565Y-144037D01*
X299000Y-143386D01*
X299153Y-142618D01*
X299000Y-141850D01*
X298565Y-141199D01*
X297914Y-140764D01*
X297146Y-140611D01*
D02*
G37*
G36*
X253359Y-144457D02*
X252591Y-144609D01*
X251940Y-145045D01*
X251504Y-145696D01*
X251352Y-146464D01*
X251504Y-147232D01*
X251940Y-147883D01*
X252591Y-148318D01*
X253359Y-148471D01*
X254127Y-148318D01*
X254778Y-147883D01*
X255213Y-147232D01*
X255366Y-146464D01*
X255213Y-145696D01*
X254778Y-145045D01*
X254127Y-144609D01*
X253359Y-144457D01*
D02*
G37*
G36*
X300113Y-134023D02*
X299345Y-134176D01*
X298694Y-134611D01*
X298259Y-135262D01*
X298106Y-136030D01*
X298259Y-136798D01*
X298694Y-137450D01*
X299345Y-137884D01*
X300113Y-138037D01*
X300881Y-137884D01*
X301532Y-137450D01*
X301967Y-136798D01*
X302120Y-136030D01*
X301967Y-135262D01*
X301532Y-134611D01*
X300881Y-134176D01*
X300113Y-134023D01*
D02*
G37*
G36*
X141240Y-121123D02*
X140472Y-121276D01*
X139821Y-121711D01*
X139386Y-122362D01*
X139233Y-123130D01*
X139386Y-123898D01*
X139821Y-124549D01*
X140472Y-124984D01*
X141240Y-125137D01*
X142008Y-124984D01*
X142659Y-124549D01*
X143095Y-123898D01*
X143247Y-123130D01*
X143095Y-122362D01*
X142659Y-121711D01*
X142008Y-121276D01*
X141240Y-121123D01*
D02*
G37*
G36*
X142618Y-126635D02*
X141850Y-126787D01*
X141199Y-127223D01*
X140764Y-127874D01*
X140611Y-128642D01*
X140764Y-129410D01*
X141199Y-130061D01*
X141850Y-130496D01*
X142618Y-130649D01*
X143386Y-130496D01*
X144037Y-130061D01*
X144472Y-129410D01*
X144625Y-128642D01*
X144472Y-127874D01*
X144037Y-127223D01*
X143386Y-126787D01*
X142618Y-126635D01*
D02*
G37*
G36*
X303346Y-124666D02*
X302578Y-124819D01*
X301927Y-125254D01*
X301492Y-125905D01*
X301339Y-126673D01*
X301492Y-127441D01*
X301808Y-127915D01*
X301492Y-128388D01*
X301339Y-129156D01*
X301492Y-129924D01*
X301927Y-130575D01*
X302578Y-131010D01*
X303346Y-131163D01*
X304115Y-131010D01*
X304766Y-130575D01*
X305201Y-129924D01*
X305353Y-129156D01*
X305201Y-128388D01*
X304885Y-127915D01*
X305201Y-127441D01*
X305353Y-126673D01*
X305201Y-125905D01*
X304766Y-125254D01*
X304115Y-124819D01*
X303346Y-124666D01*
D02*
G37*
G36*
X280413Y-155670D02*
X279645Y-155823D01*
X278994Y-156258D01*
X278559Y-156909D01*
X278406Y-157677D01*
X278559Y-158445D01*
X278994Y-159096D01*
X279645Y-159531D01*
X280413Y-159684D01*
X281182Y-159531D01*
X281833Y-159096D01*
X282268Y-158445D01*
X282420Y-157677D01*
X282268Y-156909D01*
X281833Y-156258D01*
X281182Y-155823D01*
X280413Y-155670D01*
D02*
G37*
G36*
X142913Y-154489D02*
X142145Y-154642D01*
X141494Y-155077D01*
X141059Y-155728D01*
X140975Y-156150D01*
X140453Y-156556D01*
X139685Y-156709D01*
X139033Y-157144D01*
X138599Y-157795D01*
X138446Y-158563D01*
X138599Y-159331D01*
X139033Y-159982D01*
X139685Y-160417D01*
X140453Y-160570D01*
X141221Y-160417D01*
X141872Y-159982D01*
X142307Y-159331D01*
X142391Y-158909D01*
X142913Y-158503D01*
X143682Y-158350D01*
X144333Y-157915D01*
X144768Y-157264D01*
X144921Y-156496D01*
X144768Y-155728D01*
X144333Y-155077D01*
X143682Y-154642D01*
X142913Y-154489D01*
D02*
G37*
G36*
X293012Y-165906D02*
X292244Y-166059D01*
X291593Y-166494D01*
X291158Y-167145D01*
X291005Y-167913D01*
X291158Y-168681D01*
X290849Y-169120D01*
X290480Y-169046D01*
X289712Y-169199D01*
X289061Y-169634D01*
X288626Y-170285D01*
X288473Y-171053D01*
X288626Y-171821D01*
X289012Y-172398D01*
X288624Y-172695D01*
X287973Y-172260D01*
X287205Y-172107D01*
X286437Y-172260D01*
X285918Y-172606D01*
X285581Y-172661D01*
X285243Y-172606D01*
X284725Y-172260D01*
X283957Y-172107D01*
X283852Y-172128D01*
X283722Y-172033D01*
X283476Y-171693D01*
X283589Y-171127D01*
X284020Y-170799D01*
X284055Y-170806D01*
X284823Y-170653D01*
X285474Y-170218D01*
X285909Y-169567D01*
X286062Y-168799D01*
X285909Y-168031D01*
X285474Y-167380D01*
X284823Y-166945D01*
X284055Y-166792D01*
X283287Y-166945D01*
X282636Y-167380D01*
X282201Y-168031D01*
X282061Y-168735D01*
X281629Y-169063D01*
X281594Y-169056D01*
X280826Y-169209D01*
X280175Y-169644D01*
X279740Y-170295D01*
X279587Y-171063D01*
X279688Y-171570D01*
X279724Y-171750D01*
X279724Y-171750D01*
X279740Y-171831D01*
X279607Y-172346D01*
X279543Y-172427D01*
X279289Y-172597D01*
X278854Y-173248D01*
X278702Y-174016D01*
X278854Y-174784D01*
X279289Y-175435D01*
X279941Y-175870D01*
X280709Y-176023D01*
X281477Y-175870D01*
X282128Y-175435D01*
X282625Y-175592D01*
X283189Y-175969D01*
X283957Y-176121D01*
X284725Y-175969D01*
X285376Y-175533D01*
X285786D01*
X286437Y-175969D01*
X287205Y-176121D01*
X287973Y-175969D01*
X288571Y-175569D01*
X289061Y-175402D01*
X289712Y-175837D01*
X290480Y-175990D01*
X291248Y-175837D01*
X291899Y-175402D01*
X292335Y-174751D01*
X292487Y-173983D01*
X292335Y-173214D01*
X291899Y-172563D01*
Y-172473D01*
X292335Y-171821D01*
X292487Y-171053D01*
X292335Y-170285D01*
X292643Y-169847D01*
X293012Y-169921D01*
X293780Y-169768D01*
X294431Y-169333D01*
X294866Y-168682D01*
X295019Y-167913D01*
X294866Y-167145D01*
X294431Y-166494D01*
X293780Y-166059D01*
X293012Y-165906D01*
D02*
G37*
G36*
X304331Y-155670D02*
X303563Y-155823D01*
X302911Y-156258D01*
X302476Y-156909D01*
X302324Y-157677D01*
X302476Y-158445D01*
X302911Y-159096D01*
X303563Y-159531D01*
X304331Y-159684D01*
X305099Y-159531D01*
X305750Y-159096D01*
X306185Y-158445D01*
X306338Y-157677D01*
X306185Y-156909D01*
X305750Y-156258D01*
X305099Y-155823D01*
X304331Y-155670D01*
D02*
G37*
G36*
X265061Y-144570D02*
X264293Y-144723D01*
X263641Y-145158D01*
X263206Y-145809D01*
X263053Y-146577D01*
X263206Y-147345D01*
X263641Y-147996D01*
X264293Y-148431D01*
X265061Y-148584D01*
X265829Y-148431D01*
X266480Y-147996D01*
X266915Y-147345D01*
X267068Y-146577D01*
X266915Y-145809D01*
X266480Y-145158D01*
X265829Y-144723D01*
X265061Y-144570D01*
D02*
G37*
G36*
X289470Y-141912D02*
X288702Y-142065D01*
X288051Y-142500D01*
X287616Y-143151D01*
X287463Y-143920D01*
X287616Y-144688D01*
X287709Y-144827D01*
X287067Y-145256D01*
X286631Y-145907D01*
X286479Y-146676D01*
X286631Y-147444D01*
X287067Y-148095D01*
X287718Y-148530D01*
X288486Y-148682D01*
X289254Y-148530D01*
X289905Y-148095D01*
X290340Y-147444D01*
X290493Y-146676D01*
X290340Y-145907D01*
X290247Y-145768D01*
X290889Y-145339D01*
X291324Y-144688D01*
X291477Y-143920D01*
X291324Y-143151D01*
X290889Y-142500D01*
X290238Y-142065D01*
X289470Y-141912D01*
D02*
G37*
G36*
X299627Y-146361D02*
X298859Y-146514D01*
X298208Y-146949D01*
X297773Y-147600D01*
X297620Y-148369D01*
X297773Y-149137D01*
X298208Y-149788D01*
X298859Y-150223D01*
X299627Y-150376D01*
X300395Y-150223D01*
X301047Y-149788D01*
X301482Y-149137D01*
X301635Y-148369D01*
X301482Y-147600D01*
X301047Y-146949D01*
X300395Y-146514D01*
X299627Y-146361D01*
D02*
G37*
G36*
X255321Y-297212D02*
X254345Y-297340D01*
X253435Y-297717D01*
X252654Y-298317D01*
X252054Y-299098D01*
X251677Y-300008D01*
X251549Y-300984D01*
X251677Y-301961D01*
X252054Y-302870D01*
X252654Y-303652D01*
X253435Y-304251D01*
X254345Y-304628D01*
X255321Y-304757D01*
X256297Y-304628D01*
X257207Y-304251D01*
X257989Y-303652D01*
X258588Y-302870D01*
X258965Y-301961D01*
X259093Y-300984D01*
X258965Y-300008D01*
X258588Y-299098D01*
X257989Y-298317D01*
X257207Y-297717D01*
X256297Y-297340D01*
X255321Y-297212D01*
D02*
G37*
G36*
X245321D02*
X244345Y-297340D01*
X243435Y-297717D01*
X242654Y-298317D01*
X242054Y-299098D01*
X241677Y-300008D01*
X241549Y-300984D01*
X241677Y-301961D01*
X242054Y-302870D01*
X242654Y-303652D01*
X243435Y-304251D01*
X244345Y-304628D01*
X245321Y-304757D01*
X246298Y-304628D01*
X247207Y-304251D01*
X247989Y-303652D01*
X248588Y-302870D01*
X248965Y-301961D01*
X249094Y-300984D01*
X248965Y-300008D01*
X248588Y-299098D01*
X247989Y-298317D01*
X247207Y-297717D01*
X246298Y-297340D01*
X245321Y-297212D01*
D02*
G37*
G36*
X235321D02*
X234345Y-297340D01*
X233435Y-297717D01*
X232654Y-298317D01*
X232054Y-299098D01*
X231677Y-300008D01*
X231549Y-300984D01*
X231677Y-301961D01*
X232054Y-302870D01*
X232654Y-303652D01*
X233435Y-304251D01*
X234345Y-304628D01*
X235321Y-304757D01*
X236297Y-304628D01*
X237207Y-304251D01*
X237989Y-303652D01*
X238588Y-302870D01*
X238965Y-301961D01*
X239093Y-300984D01*
X238965Y-300008D01*
X238588Y-299098D01*
X237989Y-298317D01*
X237207Y-297717D01*
X236297Y-297340D01*
X235321Y-297212D01*
D02*
G37*
G36*
X265321D02*
X264345Y-297340D01*
X263435Y-297717D01*
X262654Y-298317D01*
X262054Y-299098D01*
X261677Y-300008D01*
X261549Y-300984D01*
X261677Y-301961D01*
X262054Y-302870D01*
X262654Y-303652D01*
X263435Y-304251D01*
X264345Y-304628D01*
X265321Y-304757D01*
X266298Y-304628D01*
X267207Y-304251D01*
X267989Y-303652D01*
X268588Y-302870D01*
X268965Y-301961D01*
X269093Y-300984D01*
X268965Y-300008D01*
X268588Y-299098D01*
X267989Y-298317D01*
X267207Y-297717D01*
X266298Y-297340D01*
X265321Y-297212D01*
D02*
G37*
G36*
X158831Y-301378D02*
X155702D01*
Y-304506D01*
X156234Y-304436D01*
X157096Y-304079D01*
X157836Y-303511D01*
X158404Y-302771D01*
X158761Y-301909D01*
X158831Y-301378D01*
D02*
G37*
G36*
X154915D02*
X151787D01*
X151857Y-301909D01*
X152214Y-302771D01*
X152782Y-303511D01*
X153522Y-304079D01*
X154384Y-304436D01*
X154915Y-304506D01*
Y-301378D01*
D02*
G37*
G36*
X147966Y-297223D02*
X142651D01*
X142229Y-297307D01*
X141871Y-297546D01*
X141631Y-297904D01*
X141548Y-298327D01*
Y-303642D01*
X141631Y-304064D01*
X141871Y-304422D01*
X142229Y-304662D01*
X142651Y-304746D01*
X147966D01*
X148389Y-304662D01*
X148747Y-304422D01*
X148986Y-304064D01*
X149070Y-303642D01*
Y-298327D01*
X148986Y-297904D01*
X148747Y-297546D01*
X148389Y-297307D01*
X147966Y-297223D01*
D02*
G37*
G36*
X185309Y-297212D02*
X184332Y-297340D01*
X183423Y-297717D01*
X182641Y-298317D01*
X182042Y-299098D01*
X181665Y-300008D01*
X181536Y-300984D01*
X181665Y-301961D01*
X182042Y-302870D01*
X182641Y-303652D01*
X183423Y-304251D01*
X184332Y-304628D01*
X185309Y-304757D01*
X186285Y-304628D01*
X187195Y-304251D01*
X187976Y-303652D01*
X188576Y-302870D01*
X188953Y-301961D01*
X189081Y-300984D01*
X188953Y-300008D01*
X188576Y-299098D01*
X187976Y-298317D01*
X187195Y-297717D01*
X186285Y-297340D01*
X185309Y-297212D01*
D02*
G37*
G36*
X175309D02*
X174332Y-297340D01*
X173423Y-297717D01*
X172641Y-298317D01*
X172042Y-299098D01*
X171665Y-300008D01*
X171536Y-300984D01*
X171665Y-301961D01*
X172042Y-302870D01*
X172641Y-303652D01*
X173423Y-304251D01*
X174332Y-304628D01*
X175309Y-304757D01*
X176285Y-304628D01*
X177195Y-304251D01*
X177976Y-303652D01*
X178576Y-302870D01*
X178953Y-301961D01*
X179081Y-300984D01*
X178953Y-300008D01*
X178576Y-299098D01*
X177976Y-298317D01*
X177195Y-297717D01*
X176285Y-297340D01*
X175309Y-297212D01*
D02*
G37*
G36*
X165309D02*
X164332Y-297340D01*
X163423Y-297717D01*
X162641Y-298317D01*
X162042Y-299098D01*
X161665Y-300008D01*
X161536Y-300984D01*
X161665Y-301961D01*
X162042Y-302870D01*
X162641Y-303652D01*
X163423Y-304251D01*
X164332Y-304628D01*
X165309Y-304757D01*
X166285Y-304628D01*
X167195Y-304251D01*
X167976Y-303652D01*
X168576Y-302870D01*
X168953Y-301961D01*
X169081Y-300984D01*
X168953Y-300008D01*
X168576Y-299098D01*
X167976Y-298317D01*
X167195Y-297717D01*
X166285Y-297340D01*
X165309Y-297212D01*
D02*
G37*
G36*
X195309D02*
X194332Y-297340D01*
X193423Y-297717D01*
X192641Y-298317D01*
X192042Y-299098D01*
X191665Y-300008D01*
X191536Y-300984D01*
X191665Y-301961D01*
X192042Y-302870D01*
X192641Y-303652D01*
X193423Y-304251D01*
X194332Y-304628D01*
X195309Y-304757D01*
X196285Y-304628D01*
X197195Y-304251D01*
X197976Y-303652D01*
X198576Y-302870D01*
X198953Y-301961D01*
X199081Y-300984D01*
X198953Y-300008D01*
X198576Y-299098D01*
X197976Y-298317D01*
X197195Y-297717D01*
X196285Y-297340D01*
X195309Y-297212D01*
D02*
G37*
G36*
X225321D02*
X224345Y-297340D01*
X223435Y-297717D01*
X222654Y-298317D01*
X222054Y-299098D01*
X221677Y-300008D01*
X221549Y-300984D01*
X221677Y-301961D01*
X222054Y-302870D01*
X222654Y-303652D01*
X223435Y-304251D01*
X224345Y-304628D01*
X225321Y-304757D01*
X226297Y-304628D01*
X227207Y-304251D01*
X227989Y-303652D01*
X228588Y-302870D01*
X228965Y-301961D01*
X229094Y-300984D01*
X228965Y-300008D01*
X228588Y-299098D01*
X227989Y-298317D01*
X227207Y-297717D01*
X226297Y-297340D01*
X225321Y-297212D01*
D02*
G37*
G36*
X215321D02*
X214345Y-297340D01*
X213435Y-297717D01*
X212654Y-298317D01*
X212054Y-299098D01*
X211677Y-300008D01*
X211549Y-300984D01*
X211677Y-301961D01*
X212054Y-302870D01*
X212654Y-303652D01*
X213435Y-304251D01*
X214345Y-304628D01*
X215321Y-304757D01*
X216298Y-304628D01*
X217207Y-304251D01*
X217989Y-303652D01*
X218588Y-302870D01*
X218965Y-301961D01*
X219093Y-300984D01*
X218965Y-300008D01*
X218588Y-299098D01*
X217989Y-298317D01*
X217207Y-297717D01*
X216298Y-297340D01*
X215321Y-297212D01*
D02*
G37*
G36*
X205309D02*
X204332Y-297340D01*
X203423Y-297717D01*
X202641Y-298317D01*
X202042Y-299098D01*
X201665Y-300008D01*
X201536Y-300984D01*
X201665Y-301961D01*
X202042Y-302870D01*
X202641Y-303652D01*
X203423Y-304251D01*
X204332Y-304628D01*
X205309Y-304757D01*
X206285Y-304628D01*
X207195Y-304251D01*
X207976Y-303652D01*
X208576Y-302870D01*
X208953Y-301961D01*
X209081Y-300984D01*
X208953Y-300008D01*
X208576Y-299098D01*
X207976Y-298317D01*
X207195Y-297717D01*
X206285Y-297340D01*
X205309Y-297212D01*
D02*
G37*
G36*
X292125Y-257780D02*
X291357Y-257933D01*
X290705Y-258368D01*
X290270Y-259019D01*
X290118Y-259787D01*
X290270Y-260555D01*
X290705Y-261206D01*
X291357Y-261641D01*
X292125Y-261794D01*
X292893Y-261641D01*
X293544Y-261206D01*
X293979Y-260555D01*
X294132Y-259787D01*
X293979Y-259019D01*
X293544Y-258368D01*
X292893Y-257933D01*
X292125Y-257780D01*
D02*
G37*
G36*
X286365Y-258006D02*
X285597Y-258159D01*
X284946Y-258594D01*
X284511Y-259245D01*
X284358Y-260013D01*
X284511Y-260781D01*
X284946Y-261432D01*
X285597Y-261867D01*
X286365Y-262020D01*
X287133Y-261867D01*
X287785Y-261432D01*
X288220Y-260781D01*
X288372Y-260013D01*
X288220Y-259245D01*
X287785Y-258594D01*
X287133Y-258159D01*
X286365Y-258006D01*
D02*
G37*
G36*
X287604Y-262858D02*
X286836Y-263011D01*
X286185Y-263446D01*
X285750Y-264097D01*
X285230Y-264148D01*
X284584Y-264020D01*
X283816Y-264172D01*
X283165Y-264608D01*
X282730Y-265259D01*
X282577Y-266027D01*
X282730Y-266795D01*
X283165Y-267446D01*
X283816Y-267881D01*
X284584Y-268034D01*
X285353Y-267881D01*
X286004Y-267446D01*
X286439Y-266795D01*
X286959Y-266744D01*
X287604Y-266872D01*
X288372Y-266720D01*
X289023Y-266284D01*
X289458Y-265633D01*
X289611Y-264865D01*
X289458Y-264097D01*
X289023Y-263446D01*
X288372Y-263011D01*
X287604Y-262858D01*
D02*
G37*
G36*
X290978Y-241073D02*
X290210Y-241226D01*
X289559Y-241661D01*
X289124Y-242313D01*
X288971Y-243081D01*
X289124Y-243849D01*
X289559Y-244500D01*
X290210Y-244935D01*
X290978Y-245088D01*
X291746Y-244935D01*
X292397Y-244500D01*
X292832Y-243849D01*
X292985Y-243081D01*
X292832Y-242313D01*
X292397Y-241661D01*
X291746Y-241226D01*
X290978Y-241073D01*
D02*
G37*
G36*
X71254Y-236221D02*
X70478D01*
X69718Y-236372D01*
X69001Y-236669D01*
X68356Y-237099D01*
X67808Y-237648D01*
X67377Y-238293D01*
X67080Y-239009D01*
X66929Y-239770D01*
Y-240545D01*
X67080Y-241306D01*
X67377Y-242022D01*
X67808Y-242667D01*
X68356Y-243216D01*
X69001Y-243646D01*
X69718Y-243943D01*
X70478Y-244094D01*
X71254D01*
X72014Y-243943D01*
X72731Y-243646D01*
X73376Y-243216D01*
X73924Y-242667D01*
X74355Y-242022D01*
X74652Y-241306D01*
X74803Y-240545D01*
Y-239770D01*
X74652Y-239009D01*
X74355Y-238293D01*
X73924Y-237648D01*
X73376Y-237099D01*
X72731Y-236669D01*
X72014Y-236372D01*
X71254Y-236221D01*
D02*
G37*
G36*
X-70478D02*
X-71254D01*
X-72014Y-236372D01*
X-72731Y-236669D01*
X-73376Y-237099D01*
X-73924Y-237648D01*
X-74355Y-238293D01*
X-74652Y-239009D01*
X-74803Y-239770D01*
Y-240545D01*
X-74652Y-241306D01*
X-74355Y-242022D01*
X-73924Y-242667D01*
X-73376Y-243216D01*
X-72731Y-243646D01*
X-72014Y-243943D01*
X-71254Y-244094D01*
X-70478D01*
X-69718Y-243943D01*
X-69001Y-243646D01*
X-68357Y-243216D01*
X-67808Y-242667D01*
X-67377Y-242022D01*
X-67080Y-241306D01*
X-66929Y-240545D01*
Y-239770D01*
X-67080Y-239009D01*
X-67377Y-238293D01*
X-67808Y-237648D01*
X-68357Y-237099D01*
X-69001Y-236669D01*
X-69718Y-236372D01*
X-70478Y-236221D01*
D02*
G37*
G36*
X-212211D02*
X-212986D01*
X-213747Y-236372D01*
X-214463Y-236669D01*
X-215108Y-237099D01*
X-215656Y-237648D01*
X-216087Y-238293D01*
X-216384Y-239009D01*
X-216535Y-239770D01*
Y-240545D01*
X-216384Y-241306D01*
X-216087Y-242022D01*
X-215656Y-242667D01*
X-215108Y-243216D01*
X-214463Y-243646D01*
X-213747Y-243943D01*
X-212986Y-244094D01*
X-212211D01*
X-211450Y-243943D01*
X-210734Y-243646D01*
X-210089Y-243216D01*
X-209540Y-242667D01*
X-209109Y-242022D01*
X-208813Y-241306D01*
X-208661Y-240545D01*
Y-239770D01*
X-208813Y-239009D01*
X-209109Y-238293D01*
X-209540Y-237648D01*
X-210089Y-237099D01*
X-210734Y-236669D01*
X-211450Y-236372D01*
X-212211Y-236221D01*
D02*
G37*
G36*
X233760Y-283131D02*
X232992Y-283283D01*
X232341Y-283719D01*
X231906Y-284370D01*
X231753Y-285138D01*
X231906Y-285906D01*
X232341Y-286557D01*
X232992Y-286992D01*
X233760Y-287145D01*
X234528Y-286992D01*
X235179Y-286557D01*
X235614Y-285906D01*
X235767Y-285138D01*
X235614Y-284370D01*
X235179Y-283719D01*
X234528Y-283283D01*
X233760Y-283131D01*
D02*
G37*
G36*
X155702Y-297462D02*
Y-300590D01*
X158831D01*
X158761Y-300059D01*
X158404Y-299197D01*
X157836Y-298457D01*
X157096Y-297889D01*
X156234Y-297532D01*
X155702Y-297462D01*
D02*
G37*
G36*
X154915D02*
X154384Y-297532D01*
X153522Y-297889D01*
X152782Y-298457D01*
X152214Y-299197D01*
X151857Y-300059D01*
X151787Y-300590D01*
X154915D01*
Y-297462D01*
D02*
G37*
G36*
X240966Y-278927D02*
X240198Y-279080D01*
X239547Y-279515D01*
X239112Y-280166D01*
X238959Y-280934D01*
X239112Y-281702D01*
X239547Y-282353D01*
X240198Y-282788D01*
X240966Y-282941D01*
X241734Y-282788D01*
X242385Y-282353D01*
X242820Y-281702D01*
X242973Y-280934D01*
X242820Y-280166D01*
X242385Y-279515D01*
X241734Y-279080D01*
X240966Y-278927D01*
D02*
G37*
G36*
X293205Y-264303D02*
X292437Y-264456D01*
X291786Y-264891D01*
X291351Y-265543D01*
X291198Y-266311D01*
X291351Y-267079D01*
X291786Y-267730D01*
X292437Y-268165D01*
X293205Y-268318D01*
X293973Y-268165D01*
X294624Y-267730D01*
X295059Y-267079D01*
X295212Y-266311D01*
X295059Y-265543D01*
X294624Y-264891D01*
X293973Y-264456D01*
X293205Y-264303D01*
D02*
G37*
G36*
X284967Y-270291D02*
X284199Y-270444D01*
X283548Y-270879D01*
X283113Y-271530D01*
X282960Y-272298D01*
X283113Y-273066D01*
X283548Y-273717D01*
X284199Y-274153D01*
X284967Y-274305D01*
X285735Y-274153D01*
X286386Y-273717D01*
X286822Y-273066D01*
X286974Y-272298D01*
X286822Y-271530D01*
X286386Y-270879D01*
X285735Y-270444D01*
X284967Y-270291D01*
D02*
G37*
G36*
X230965Y-278896D02*
X230197Y-279049D01*
X229546Y-279484D01*
X229111Y-280135D01*
X228958Y-280903D01*
X228996Y-281096D01*
X228915Y-281218D01*
X228563Y-281481D01*
X227950Y-281359D01*
X227182Y-281512D01*
X226531Y-281947D01*
X226096Y-282598D01*
X225943Y-283366D01*
X226096Y-284134D01*
X226531Y-284785D01*
X227182Y-285220D01*
X227950Y-285373D01*
X228718Y-285220D01*
X229370Y-284785D01*
X229805Y-284134D01*
X229958Y-283366D01*
X229919Y-283173D01*
X230000Y-283052D01*
X230352Y-282788D01*
X230965Y-282910D01*
X231733Y-282757D01*
X232384Y-282322D01*
X232819Y-281671D01*
X232972Y-280903D01*
X232819Y-280135D01*
X232384Y-279484D01*
X231733Y-279049D01*
X230965Y-278896D01*
D02*
G37*
G36*
X273887Y147640D02*
X273119Y147487D01*
X272468Y147052D01*
X272033Y146400D01*
X271880Y145633D01*
X272033Y144864D01*
X272468Y144213D01*
X273119Y143778D01*
X273887Y143625D01*
X274655Y143778D01*
X275306Y144213D01*
X275741Y144864D01*
X275894Y145633D01*
X275741Y146400D01*
X275306Y147052D01*
X274655Y147487D01*
X273887Y147640D01*
D02*
G37*
G36*
X301108Y127348D02*
X300340Y127195D01*
X299688Y126760D01*
X299253Y126109D01*
X299101Y125341D01*
X299253Y124573D01*
X299688Y123922D01*
X300115Y123637D01*
X300138Y123469D01*
X300076Y123068D01*
X299533Y122705D01*
X299098Y122054D01*
X298945Y121286D01*
X299098Y120518D01*
X299533Y119867D01*
X300184Y119432D01*
X300952Y119279D01*
X301720Y119432D01*
X302371Y119867D01*
X302806Y120518D01*
X302959Y121286D01*
X302806Y122054D01*
X302371Y122705D01*
X301945Y122991D01*
X301922Y123158D01*
X301984Y123559D01*
X302527Y123922D01*
X302962Y124573D01*
X303115Y125341D01*
X302962Y126109D01*
X302527Y126760D01*
X301876Y127195D01*
X301108Y127348D01*
D02*
G37*
G36*
X278576Y122346D02*
X277808Y122193D01*
X277157Y121758D01*
X276722Y121107D01*
X276569Y120339D01*
X276722Y119571D01*
X277157Y118919D01*
X277808Y118484D01*
X278576Y118332D01*
X279344Y118484D01*
X279995Y118919D01*
X280430Y119571D01*
X280583Y120339D01*
X280430Y121107D01*
X279995Y121758D01*
X279344Y122193D01*
X278576Y122346D01*
D02*
G37*
G36*
X281273Y151220D02*
X280505Y151067D01*
X279854Y150632D01*
X279419Y149981D01*
X279266Y149213D01*
X279419Y148444D01*
X279854Y147793D01*
X280505Y147358D01*
X281273Y147205D01*
X282041Y147358D01*
X282692Y147793D01*
X283127Y148444D01*
X283280Y149213D01*
X283127Y149981D01*
X282692Y150632D01*
X282041Y151067D01*
X281273Y151220D01*
D02*
G37*
G36*
X-70478Y188976D02*
X-71254D01*
X-72014Y188825D01*
X-72731Y188528D01*
X-73376Y188097D01*
X-73924Y187549D01*
X-74355Y186904D01*
X-74652Y186188D01*
X-74803Y185427D01*
Y184652D01*
X-74652Y183891D01*
X-74355Y183175D01*
X-73924Y182530D01*
X-73376Y181981D01*
X-72731Y181550D01*
X-72014Y181254D01*
X-71254Y181102D01*
X-70478D01*
X-69718Y181254D01*
X-69001Y181550D01*
X-68357Y181981D01*
X-67808Y182530D01*
X-67377Y183175D01*
X-67080Y183891D01*
X-66929Y184652D01*
Y185427D01*
X-67080Y186188D01*
X-67377Y186904D01*
X-67808Y187549D01*
X-68357Y188097D01*
X-69001Y188528D01*
X-69718Y188825D01*
X-70478Y188976D01*
D02*
G37*
G36*
X-212211D02*
X-212986D01*
X-213747Y188825D01*
X-214463Y188528D01*
X-215108Y188097D01*
X-215656Y187549D01*
X-216087Y186904D01*
X-216384Y186188D01*
X-216535Y185427D01*
Y184652D01*
X-216384Y183891D01*
X-216087Y183175D01*
X-215656Y182530D01*
X-215108Y181981D01*
X-214463Y181550D01*
X-213747Y181254D01*
X-212986Y181102D01*
X-212211D01*
X-211450Y181254D01*
X-210734Y181550D01*
X-210089Y181981D01*
X-209540Y182530D01*
X-209109Y183175D01*
X-208813Y183891D01*
X-208661Y184652D01*
Y185427D01*
X-208813Y186188D01*
X-209109Y186904D01*
X-209540Y187549D01*
X-210089Y188097D01*
X-210734Y188528D01*
X-211450Y188825D01*
X-212211Y188976D01*
D02*
G37*
G36*
X293406Y165196D02*
X292637Y165043D01*
X291986Y164608D01*
X291551Y163957D01*
X291398Y163189D01*
X291551Y162421D01*
X291986Y161770D01*
X292637Y161335D01*
X293406Y161182D01*
X294174Y161335D01*
X294825Y161770D01*
X295260Y162421D01*
X295413Y163189D01*
X295260Y163957D01*
X294825Y164608D01*
X294174Y165043D01*
X293406Y165196D01*
D02*
G37*
G36*
X98813Y74803D02*
X98037D01*
X97277Y74652D01*
X96560Y74355D01*
X95916Y73924D01*
X95367Y73376D01*
X94936Y72731D01*
X94639Y72014D01*
X94488Y71254D01*
Y70478D01*
X94639Y69718D01*
X94936Y69001D01*
X95367Y68356D01*
X95916Y67808D01*
X96560Y67377D01*
X97277Y67080D01*
X98037Y66929D01*
X98813D01*
X99574Y67080D01*
X100290Y67377D01*
X100935Y67808D01*
X101483Y68356D01*
X101914Y69001D01*
X102211Y69718D01*
X102362Y70478D01*
Y71254D01*
X102211Y72014D01*
X101914Y72731D01*
X101483Y73376D01*
X100935Y73924D01*
X100290Y74355D01*
X99574Y74652D01*
X98813Y74803D01*
D02*
G37*
G36*
X-42919D02*
X-43695D01*
X-44456Y74652D01*
X-45172Y74355D01*
X-45817Y73924D01*
X-46365Y73376D01*
X-46796Y72731D01*
X-47093Y72014D01*
X-47244Y71254D01*
Y70478D01*
X-47093Y69718D01*
X-46796Y69001D01*
X-46365Y68356D01*
X-45817Y67808D01*
X-45172Y67377D01*
X-44456Y67080D01*
X-43695Y66929D01*
X-42919D01*
X-42159Y67080D01*
X-41442Y67377D01*
X-40797Y67808D01*
X-40249Y68356D01*
X-39818Y69001D01*
X-39521Y69718D01*
X-39370Y70478D01*
Y71254D01*
X-39521Y72014D01*
X-39818Y72731D01*
X-40249Y73376D01*
X-40797Y73924D01*
X-41442Y74355D01*
X-42159Y74652D01*
X-42919Y74803D01*
D02*
G37*
G36*
X-184652D02*
X-185427D01*
X-186188Y74652D01*
X-186904Y74355D01*
X-187549Y73924D01*
X-188098Y73376D01*
X-188528Y72731D01*
X-188825Y72014D01*
X-188976Y71254D01*
Y70478D01*
X-188825Y69718D01*
X-188528Y69001D01*
X-188098Y68356D01*
X-187549Y67808D01*
X-186904Y67377D01*
X-186188Y67080D01*
X-185427Y66929D01*
X-184652D01*
X-183891Y67080D01*
X-183175Y67377D01*
X-182530Y67808D01*
X-181981Y68356D01*
X-181551Y69001D01*
X-181254Y69718D01*
X-181102Y70478D01*
Y71254D01*
X-181254Y72014D01*
X-181551Y72731D01*
X-181981Y73376D01*
X-182530Y73924D01*
X-183175Y74355D01*
X-183891Y74652D01*
X-184652Y74803D01*
D02*
G37*
G36*
X240545D02*
X239770D01*
X239009Y74652D01*
X238293Y74355D01*
X237648Y73924D01*
X237099Y73376D01*
X236668Y72731D01*
X236372Y72014D01*
X236221Y71254D01*
Y70478D01*
X236372Y69718D01*
X236668Y69001D01*
X237099Y68356D01*
X237648Y67808D01*
X238293Y67377D01*
X239009Y67080D01*
X239770Y66929D01*
X240545D01*
X241306Y67080D01*
X242022Y67377D01*
X242667Y67808D01*
X243215Y68356D01*
X243646Y69001D01*
X243943Y69718D01*
X244094Y70478D01*
Y71254D01*
X243943Y72014D01*
X243646Y72731D01*
X243215Y73376D01*
X242667Y73924D01*
X242022Y74355D01*
X241306Y74652D01*
X240545Y74803D01*
D02*
G37*
G36*
X282729Y116991D02*
X281961Y116838D01*
X281309Y116403D01*
X280874Y115752D01*
X280721Y114984D01*
X280874Y114216D01*
X281309Y113565D01*
X281961Y113129D01*
X282729Y112977D01*
X283497Y113129D01*
X284148Y113565D01*
X284583Y114216D01*
X284736Y114984D01*
X284583Y115752D01*
X284148Y116403D01*
X283497Y116838D01*
X282729Y116991D01*
D02*
G37*
G36*
X281082Y79722D02*
X280314Y79569D01*
X279663Y79134D01*
X279228Y78483D01*
X279075Y77715D01*
X279228Y76947D01*
X279663Y76295D01*
X280314Y75860D01*
X281082Y75708D01*
X281850Y75860D01*
X282501Y76295D01*
X282936Y76947D01*
X283089Y77715D01*
X282936Y78483D01*
X282501Y79134D01*
X281850Y79569D01*
X281082Y79722D01*
D02*
G37*
G36*
X295534Y78603D02*
X294766Y78451D01*
X294115Y78015D01*
X293680Y77364D01*
X293527Y76596D01*
X293680Y75828D01*
X294115Y75177D01*
X294766Y74742D01*
X294912Y74713D01*
Y74203D01*
X294802Y74181D01*
X294151Y73746D01*
X293716Y73095D01*
X293563Y72327D01*
X293716Y71559D01*
X294151Y70907D01*
X294802Y70473D01*
X295570Y70320D01*
X296338Y70473D01*
X296989Y70907D01*
X297425Y71559D01*
X297577Y72327D01*
X297425Y73095D01*
X296989Y73746D01*
X296338Y74181D01*
X296192Y74210D01*
Y74720D01*
X296302Y74742D01*
X296953Y75177D01*
X297388Y75828D01*
X297541Y76596D01*
X297388Y77364D01*
X296953Y78015D01*
X296302Y78451D01*
X295534Y78603D01*
D02*
G37*
G36*
X234941Y283503D02*
X234173Y283350D01*
X233522Y282915D01*
X233087Y282264D01*
X233042Y282042D01*
X232471Y281734D01*
X231988Y281830D01*
X231299Y281693D01*
X231185Y282264D01*
X230750Y282915D01*
X230099Y283350D01*
X229331Y283503D01*
X228563Y283350D01*
X227911Y282915D01*
X227476Y282264D01*
X227324Y281496D01*
X227476Y280728D01*
X227911Y280077D01*
X228563Y279642D01*
X229331Y279489D01*
X230020Y279626D01*
X230134Y279055D01*
X230569Y278404D01*
X231220Y277969D01*
X231988Y277816D01*
X232756Y277969D01*
X233407Y278404D01*
X233842Y279055D01*
X233887Y279277D01*
X234458Y279585D01*
X234941Y279489D01*
X235709Y279642D01*
X236360Y280077D01*
X236795Y280728D01*
X236948Y281496D01*
X236795Y282264D01*
X236360Y282915D01*
X235709Y283350D01*
X234941Y283503D01*
D02*
G37*
G36*
X240846Y285570D02*
X240078Y285417D01*
X239427Y284982D01*
X238992Y284331D01*
X238839Y283563D01*
X238992Y282795D01*
X239427Y282144D01*
X240078Y281709D01*
X240846Y281556D01*
X241615Y281709D01*
X242266Y282144D01*
X242701Y282795D01*
X242853Y283563D01*
X242701Y284331D01*
X242266Y284982D01*
X241615Y285417D01*
X240846Y285570D01*
D02*
G37*
G36*
X293406Y277991D02*
X292637Y277838D01*
X291986Y277403D01*
X291551Y276752D01*
X291398Y275984D01*
X291551Y275216D01*
X291986Y274565D01*
X292637Y274130D01*
X293406Y273977D01*
X294174Y274130D01*
X294825Y274565D01*
X295260Y275216D01*
X295413Y275984D01*
X295260Y276752D01*
X294825Y277403D01*
X294174Y277838D01*
X293406Y277991D01*
D02*
G37*
G36*
X239965Y290950D02*
X239196Y290797D01*
X238545Y290362D01*
X238110Y289711D01*
X237958Y288943D01*
X238110Y288175D01*
X238545Y287524D01*
X239196Y287089D01*
X239965Y286936D01*
X240733Y287089D01*
X241384Y287524D01*
X241819Y288175D01*
X241972Y288943D01*
X241819Y289711D01*
X241384Y290362D01*
X240733Y290797D01*
X239965Y290950D01*
D02*
G37*
G36*
X194488Y305058D02*
X193720Y304906D01*
X193069Y304470D01*
X192634Y303819D01*
X192481Y303051D01*
X192634Y302283D01*
X193069Y301632D01*
X193720Y301197D01*
X194488Y301044D01*
X195256Y301197D01*
X195907Y301632D01*
X196343Y302283D01*
X196495Y303051D01*
X196343Y303819D01*
X195907Y304470D01*
X195256Y304906D01*
X194488Y305058D01*
D02*
G37*
G36*
X236920Y300333D02*
X236152Y300181D01*
X235501Y299745D01*
X235066Y299094D01*
X234913Y298326D01*
X235066Y297558D01*
X235501Y296907D01*
X236152Y296472D01*
X236920Y296319D01*
X237688Y296472D01*
X238339Y296907D01*
X238774Y297558D01*
X238927Y298326D01*
X238774Y299094D01*
X238339Y299745D01*
X237688Y300181D01*
X236920Y300333D01*
D02*
G37*
G36*
X196161Y300235D02*
X195393Y300083D01*
X194742Y299648D01*
X194307Y298996D01*
X194154Y298228D01*
X194307Y297460D01*
X194742Y296809D01*
X195393Y296374D01*
X196161Y296221D01*
X196930Y296374D01*
X197581Y296809D01*
X198016Y297460D01*
X198169Y298228D01*
X198016Y298996D01*
X197581Y299648D01*
X196930Y300083D01*
X196161Y300235D01*
D02*
G37*
G36*
X-184652Y216535D02*
X-185427D01*
X-186188Y216384D01*
X-186904Y216087D01*
X-187549Y215656D01*
X-188098Y215108D01*
X-188528Y214463D01*
X-188825Y213747D01*
X-188976Y212986D01*
Y212211D01*
X-188825Y211450D01*
X-188528Y210734D01*
X-188098Y210089D01*
X-187549Y209540D01*
X-186904Y209109D01*
X-186188Y208813D01*
X-185427Y208661D01*
X-184652D01*
X-183891Y208813D01*
X-183175Y209109D01*
X-182530Y209540D01*
X-181981Y210089D01*
X-181551Y210734D01*
X-181254Y211450D01*
X-181102Y212211D01*
Y212986D01*
X-181254Y213747D01*
X-181551Y214463D01*
X-181981Y215108D01*
X-182530Y215656D01*
X-183175Y216087D01*
X-183891Y216384D01*
X-184652Y216535D01*
D02*
G37*
G36*
X212986Y188976D02*
X212211D01*
X211450Y188825D01*
X210734Y188528D01*
X210089Y188097D01*
X209540Y187549D01*
X209109Y186904D01*
X208813Y186188D01*
X208661Y185427D01*
Y184652D01*
X208813Y183891D01*
X209109Y183175D01*
X209540Y182530D01*
X210089Y181981D01*
X210734Y181550D01*
X211450Y181254D01*
X212211Y181102D01*
X212986D01*
X213747Y181254D01*
X214463Y181550D01*
X215108Y181981D01*
X215656Y182530D01*
X216087Y183175D01*
X216384Y183891D01*
X216535Y184652D01*
Y185427D01*
X216384Y186188D01*
X216087Y186904D01*
X215656Y187549D01*
X215108Y188097D01*
X214463Y188528D01*
X213747Y188825D01*
X212986Y188976D01*
D02*
G37*
G36*
X71254D02*
X70478D01*
X69718Y188825D01*
X69001Y188528D01*
X68356Y188097D01*
X67808Y187549D01*
X67377Y186904D01*
X67080Y186188D01*
X66929Y185427D01*
Y184652D01*
X67080Y183891D01*
X67377Y183175D01*
X67808Y182530D01*
X68356Y181981D01*
X69001Y181550D01*
X69718Y181254D01*
X70478Y181102D01*
X71254D01*
X72014Y181254D01*
X72731Y181550D01*
X73376Y181981D01*
X73924Y182530D01*
X74355Y183175D01*
X74652Y183891D01*
X74803Y184652D01*
Y185427D01*
X74652Y186188D01*
X74355Y186904D01*
X73924Y187549D01*
X73376Y188097D01*
X72731Y188528D01*
X72014Y188825D01*
X71254Y188976D01*
D02*
G37*
G36*
X-42919Y216535D02*
X-43695D01*
X-44456Y216384D01*
X-45172Y216087D01*
X-45817Y215656D01*
X-46365Y215108D01*
X-46796Y214463D01*
X-47093Y213747D01*
X-47244Y212986D01*
Y212211D01*
X-47093Y211450D01*
X-46796Y210734D01*
X-46365Y210089D01*
X-45817Y209540D01*
X-45172Y209109D01*
X-44456Y208813D01*
X-43695Y208661D01*
X-42919D01*
X-42159Y208813D01*
X-41442Y209109D01*
X-40797Y209540D01*
X-40249Y210089D01*
X-39818Y210734D01*
X-39521Y211450D01*
X-39370Y212211D01*
Y212986D01*
X-39521Y213747D01*
X-39818Y214463D01*
X-40249Y215108D01*
X-40797Y215656D01*
X-41442Y216087D01*
X-42159Y216384D01*
X-42919Y216535D01*
D02*
G37*
G36*
X281299Y257322D02*
X280531Y257169D01*
X279880Y256734D01*
X279445Y256083D01*
X279292Y255315D01*
X279445Y254547D01*
X279880Y253896D01*
X280531Y253461D01*
X281299Y253308D01*
X282067Y253461D01*
X282718Y253896D01*
X283154Y254547D01*
X283306Y255315D01*
X283154Y256083D01*
X282718Y256734D01*
X282067Y257169D01*
X281299Y257322D01*
D02*
G37*
G36*
X240545Y216535D02*
X239770D01*
X239009Y216384D01*
X238293Y216087D01*
X237648Y215656D01*
X237099Y215108D01*
X236668Y214463D01*
X236372Y213747D01*
X236221Y212986D01*
Y212211D01*
X236372Y211450D01*
X236668Y210734D01*
X237099Y210089D01*
X237648Y209540D01*
X238293Y209109D01*
X239009Y208813D01*
X239770Y208661D01*
X240545D01*
X241306Y208813D01*
X242022Y209109D01*
X242667Y209540D01*
X243215Y210089D01*
X243646Y210734D01*
X243943Y211450D01*
X244094Y212211D01*
Y212986D01*
X243943Y213747D01*
X243646Y214463D01*
X243215Y215108D01*
X242667Y215656D01*
X242022Y216087D01*
X241306Y216384D01*
X240545Y216535D01*
D02*
G37*
G36*
X98813D02*
X98037D01*
X97277Y216384D01*
X96560Y216087D01*
X95916Y215656D01*
X95367Y215108D01*
X94936Y214463D01*
X94639Y213747D01*
X94488Y212986D01*
Y212211D01*
X94639Y211450D01*
X94936Y210734D01*
X95367Y210089D01*
X95916Y209540D01*
X96560Y209109D01*
X97277Y208813D01*
X98037Y208661D01*
X98813D01*
X99574Y208813D01*
X100290Y209109D01*
X100935Y209540D01*
X101483Y210089D01*
X101914Y210734D01*
X102211Y211450D01*
X102362Y212211D01*
Y212986D01*
X102211Y213747D01*
X101914Y214463D01*
X101483Y215108D01*
X100935Y215656D01*
X100290Y216087D01*
X99574Y216384D01*
X98813Y216535D01*
D02*
G37*
G36*
X-184652Y-66929D02*
X-185427D01*
X-186188Y-67080D01*
X-186904Y-67377D01*
X-187549Y-67808D01*
X-188098Y-68356D01*
X-188528Y-69001D01*
X-188825Y-69718D01*
X-188976Y-70478D01*
Y-71254D01*
X-188825Y-72014D01*
X-188528Y-72731D01*
X-188098Y-73376D01*
X-187549Y-73924D01*
X-186904Y-74355D01*
X-186188Y-74652D01*
X-185427Y-74803D01*
X-184652D01*
X-183891Y-74652D01*
X-183175Y-74355D01*
X-182530Y-73924D01*
X-181981Y-73376D01*
X-181551Y-72731D01*
X-181254Y-72014D01*
X-181102Y-71254D01*
Y-70478D01*
X-181254Y-69718D01*
X-181551Y-69001D01*
X-181981Y-68356D01*
X-182530Y-67808D01*
X-183175Y-67377D01*
X-183891Y-67080D01*
X-184652Y-66929D01*
D02*
G37*
G36*
X305090Y-73392D02*
X296809D01*
Y-74450D01*
X291706Y-74453D01*
Y-79053D01*
X296806D01*
Y-80082D01*
X305090Y-80085D01*
Y-73392D01*
D02*
G37*
G36*
X294379Y-92186D02*
X293611Y-92339D01*
X292960Y-92774D01*
X292525Y-93425D01*
X292372Y-94193D01*
X292525Y-94961D01*
X292960Y-95613D01*
X293611Y-96048D01*
X294379Y-96200D01*
X295147Y-96048D01*
X295798Y-95613D01*
X296234Y-94961D01*
X296386Y-94193D01*
X296234Y-93425D01*
X295798Y-92774D01*
X295147Y-92339D01*
X294379Y-92186D01*
D02*
G37*
G36*
X-42919Y-66929D02*
X-43695D01*
X-44456Y-67080D01*
X-45172Y-67377D01*
X-45817Y-67808D01*
X-46365Y-68356D01*
X-46796Y-69001D01*
X-47093Y-69718D01*
X-47244Y-70478D01*
Y-71254D01*
X-47093Y-72014D01*
X-46796Y-72731D01*
X-46365Y-73376D01*
X-45817Y-73924D01*
X-45172Y-74355D01*
X-44456Y-74652D01*
X-43695Y-74803D01*
X-42919D01*
X-42159Y-74652D01*
X-41442Y-74355D01*
X-40797Y-73924D01*
X-40249Y-73376D01*
X-39818Y-72731D01*
X-39521Y-72014D01*
X-39370Y-71254D01*
Y-70478D01*
X-39521Y-69718D01*
X-39818Y-69001D01*
X-40249Y-68356D01*
X-40797Y-67808D01*
X-41442Y-67377D01*
X-42159Y-67080D01*
X-42919Y-66929D01*
D02*
G37*
G36*
X293307Y-16891D02*
X292539Y-17043D01*
X291888Y-17478D01*
X291453Y-18130D01*
X291300Y-18898D01*
X291453Y-19666D01*
X291888Y-20317D01*
X292539Y-20752D01*
X293307Y-20905D01*
X294075Y-20752D01*
X294726Y-20317D01*
X295161Y-19666D01*
X295314Y-18898D01*
X295161Y-18130D01*
X294726Y-17478D01*
X294075Y-17043D01*
X293307Y-16891D01*
D02*
G37*
G36*
X240545Y-66929D02*
X239770D01*
X239009Y-67080D01*
X238293Y-67377D01*
X237648Y-67808D01*
X237099Y-68356D01*
X236668Y-69001D01*
X236372Y-69718D01*
X236221Y-70478D01*
Y-71254D01*
X236372Y-72014D01*
X236668Y-72731D01*
X237099Y-73376D01*
X237648Y-73924D01*
X238293Y-74355D01*
X239009Y-74652D01*
X239770Y-74803D01*
X240545D01*
X241306Y-74652D01*
X242022Y-74355D01*
X242667Y-73924D01*
X243215Y-73376D01*
X243646Y-72731D01*
X243943Y-72014D01*
X244094Y-71254D01*
Y-70478D01*
X243943Y-69718D01*
X243646Y-69001D01*
X243215Y-68356D01*
X242667Y-67808D01*
X242022Y-67377D01*
X241306Y-67080D01*
X240545Y-66929D01*
D02*
G37*
G36*
X98813D02*
X98037D01*
X97277Y-67080D01*
X96560Y-67377D01*
X95916Y-67808D01*
X95367Y-68356D01*
X94936Y-69001D01*
X94639Y-69718D01*
X94488Y-70478D01*
Y-71254D01*
X94639Y-72014D01*
X94936Y-72731D01*
X95367Y-73376D01*
X95916Y-73924D01*
X96560Y-74355D01*
X97277Y-74652D01*
X98037Y-74803D01*
X98813D01*
X99574Y-74652D01*
X100290Y-74355D01*
X100935Y-73924D01*
X101483Y-73376D01*
X101914Y-72731D01*
X102211Y-72014D01*
X102362Y-71254D01*
Y-70478D01*
X102211Y-69718D01*
X101914Y-69001D01*
X101483Y-68356D01*
X100935Y-67808D01*
X100290Y-67377D01*
X99574Y-67080D01*
X98813Y-66929D01*
D02*
G37*
G36*
X-212211Y-94488D02*
X-212986D01*
X-213747Y-94639D01*
X-214463Y-94936D01*
X-215108Y-95367D01*
X-215656Y-95916D01*
X-216087Y-96560D01*
X-216384Y-97277D01*
X-216535Y-98037D01*
Y-98813D01*
X-216384Y-99574D01*
X-216087Y-100290D01*
X-215656Y-100935D01*
X-215108Y-101483D01*
X-214463Y-101914D01*
X-213747Y-102211D01*
X-212986Y-102362D01*
X-212211D01*
X-211450Y-102211D01*
X-210734Y-101914D01*
X-210089Y-101483D01*
X-209540Y-100935D01*
X-209109Y-100290D01*
X-208813Y-99574D01*
X-208661Y-98813D01*
Y-98037D01*
X-208813Y-97277D01*
X-209109Y-96560D01*
X-209540Y-95916D01*
X-210089Y-95367D01*
X-210734Y-94936D01*
X-211450Y-94639D01*
X-212211Y-94488D01*
D02*
G37*
G36*
X282283Y-98682D02*
X281515Y-98835D01*
X280864Y-99270D01*
X280429Y-99921D01*
X280276Y-100689D01*
X280429Y-101457D01*
X280864Y-102108D01*
Y-102124D01*
X280429Y-102775D01*
X280276Y-103543D01*
X280429Y-104311D01*
X280864Y-104963D01*
Y-104978D01*
X280429Y-105630D01*
X280276Y-106398D01*
X280429Y-107166D01*
X280864Y-107817D01*
Y-107931D01*
X280429Y-108582D01*
X280276Y-109350D01*
X280429Y-110118D01*
X280864Y-110770D01*
X281515Y-111205D01*
X282283Y-111357D01*
X283051Y-111205D01*
X283703Y-110770D01*
X284138Y-110118D01*
X284291Y-109350D01*
X284138Y-108582D01*
X283703Y-107931D01*
Y-107817D01*
X284138Y-107166D01*
X284291Y-106398D01*
X284138Y-105630D01*
X283703Y-104978D01*
Y-104963D01*
X284138Y-104311D01*
X284291Y-103543D01*
X284138Y-102775D01*
X283703Y-102124D01*
Y-102108D01*
X284138Y-101457D01*
X284291Y-100689D01*
X284138Y-99921D01*
X283703Y-99270D01*
X283051Y-98835D01*
X282283Y-98682D01*
D02*
G37*
G36*
X288976Y-101044D02*
X288208Y-101197D01*
X287557Y-101632D01*
X287122Y-102283D01*
X286969Y-103051D01*
X287122Y-103819D01*
X287557Y-104470D01*
X288131Y-104854D01*
X288008Y-105039D01*
X287855Y-105807D01*
X288008Y-106575D01*
X288443Y-107226D01*
X289094Y-107661D01*
X289862Y-107814D01*
X290630Y-107661D01*
X291281Y-107226D01*
X291717Y-106575D01*
X291832Y-105996D01*
X292328D01*
X292368Y-106130D01*
X292437Y-106477D01*
X292872Y-107128D01*
X293523Y-107563D01*
X293714Y-107601D01*
X293782Y-107916D01*
X293767Y-108121D01*
X293167Y-108522D01*
X292732Y-109173D01*
X292580Y-109941D01*
X292732Y-110709D01*
X293167Y-111360D01*
X293818Y-111795D01*
X294587Y-111948D01*
X295355Y-111795D01*
X296006Y-111360D01*
X296320Y-110890D01*
X296851Y-110840D01*
X296899Y-110855D01*
X297104Y-111163D01*
X297756Y-111598D01*
X298524Y-111751D01*
X299292Y-111598D01*
X299943Y-111163D01*
X300378Y-110512D01*
X300531Y-109744D01*
X300378Y-108976D01*
X299943Y-108325D01*
X299292Y-107890D01*
X298549Y-107742D01*
X298562Y-107677D01*
X298409Y-106909D01*
X297974Y-106258D01*
X297323Y-105823D01*
X296555Y-105670D01*
X296203Y-105230D01*
X296146Y-104941D01*
X295711Y-104289D01*
X295059Y-103854D01*
X294713Y-103785D01*
X294278Y-103656D01*
X294148Y-103220D01*
X294079Y-102874D01*
X293644Y-102223D01*
X292992Y-101787D01*
X292224Y-101635D01*
X291456Y-101787D01*
X290805Y-102223D01*
X290790D01*
X290396Y-101632D01*
X289744Y-101197D01*
X288976Y-101044D01*
D02*
G37*
G36*
X-70478Y-94488D02*
X-71254D01*
X-72014Y-94639D01*
X-72731Y-94936D01*
X-73376Y-95367D01*
X-73924Y-95916D01*
X-74355Y-96560D01*
X-74652Y-97277D01*
X-74803Y-98037D01*
Y-98813D01*
X-74652Y-99574D01*
X-74355Y-100290D01*
X-73924Y-100935D01*
X-73376Y-101483D01*
X-72731Y-101914D01*
X-72014Y-102211D01*
X-71254Y-102362D01*
X-70478D01*
X-69718Y-102211D01*
X-69001Y-101914D01*
X-68357Y-101483D01*
X-67808Y-100935D01*
X-67377Y-100290D01*
X-67080Y-99574D01*
X-66929Y-98813D01*
Y-98037D01*
X-67080Y-97277D01*
X-67377Y-96560D01*
X-67808Y-95916D01*
X-68357Y-95367D01*
X-69001Y-94936D01*
X-69718Y-94639D01*
X-70478Y-94488D01*
D02*
G37*
G36*
X304972Y-95864D02*
X304204Y-96017D01*
X303552Y-96452D01*
X303117Y-97103D01*
X302964Y-97871D01*
X303117Y-98639D01*
X303552Y-99290D01*
X304204Y-99725D01*
X304972Y-99878D01*
X305740Y-99725D01*
X306391Y-99290D01*
X306826Y-98639D01*
X306979Y-97871D01*
X306826Y-97103D01*
X306391Y-96452D01*
X305740Y-96017D01*
X304972Y-95864D01*
D02*
G37*
G36*
X212986Y-94488D02*
X212211D01*
X211450Y-94639D01*
X210734Y-94936D01*
X210089Y-95367D01*
X209540Y-95916D01*
X209109Y-96560D01*
X208813Y-97277D01*
X208661Y-98037D01*
Y-98813D01*
X208813Y-99574D01*
X209109Y-100290D01*
X209540Y-100935D01*
X210089Y-101483D01*
X210734Y-101914D01*
X211450Y-102211D01*
X212211Y-102362D01*
X212986D01*
X213747Y-102211D01*
X214463Y-101914D01*
X215108Y-101483D01*
X215656Y-100935D01*
X216087Y-100290D01*
X216384Y-99574D01*
X216535Y-98813D01*
Y-98037D01*
X216384Y-97277D01*
X216087Y-96560D01*
X215656Y-95916D01*
X215108Y-95367D01*
X214463Y-94936D01*
X213747Y-94639D01*
X212986Y-94488D01*
D02*
G37*
G36*
X71254D02*
X70478D01*
X69718Y-94639D01*
X69001Y-94936D01*
X68356Y-95367D01*
X67808Y-95916D01*
X67377Y-96560D01*
X67080Y-97277D01*
X66929Y-98037D01*
Y-98813D01*
X67080Y-99574D01*
X67377Y-100290D01*
X67808Y-100935D01*
X68356Y-101483D01*
X69001Y-101914D01*
X69718Y-102211D01*
X70478Y-102362D01*
X71254D01*
X72014Y-102211D01*
X72731Y-101914D01*
X73376Y-101483D01*
X73924Y-100935D01*
X74355Y-100290D01*
X74652Y-99574D01*
X74803Y-98813D01*
Y-98037D01*
X74652Y-97277D01*
X74355Y-96560D01*
X73924Y-95916D01*
X73376Y-95367D01*
X72731Y-94936D01*
X72014Y-94639D01*
X71254Y-94488D01*
D02*
G37*
G36*
X-70478Y47244D02*
X-71254D01*
X-72014Y47093D01*
X-72731Y46796D01*
X-73376Y46365D01*
X-73924Y45817D01*
X-74355Y45172D01*
X-74652Y44456D01*
X-74803Y43695D01*
Y42919D01*
X-74652Y42159D01*
X-74355Y41442D01*
X-73924Y40797D01*
X-73376Y40249D01*
X-72731Y39818D01*
X-72014Y39521D01*
X-71254Y39370D01*
X-70478D01*
X-69718Y39521D01*
X-69001Y39818D01*
X-68357Y40249D01*
X-67808Y40797D01*
X-67377Y41442D01*
X-67080Y42159D01*
X-66929Y42919D01*
Y43695D01*
X-67080Y44456D01*
X-67377Y45172D01*
X-67808Y45817D01*
X-68357Y46365D01*
X-69001Y46796D01*
X-69718Y47093D01*
X-70478Y47244D01*
D02*
G37*
G36*
X-212211D02*
X-212986D01*
X-213747Y47093D01*
X-214463Y46796D01*
X-215108Y46365D01*
X-215656Y45817D01*
X-216087Y45172D01*
X-216384Y44456D01*
X-216535Y43695D01*
Y42919D01*
X-216384Y42159D01*
X-216087Y41442D01*
X-215656Y40797D01*
X-215108Y40249D01*
X-214463Y39818D01*
X-213747Y39521D01*
X-212986Y39370D01*
X-212211D01*
X-211450Y39521D01*
X-210734Y39818D01*
X-210089Y40249D01*
X-209540Y40797D01*
X-209109Y41442D01*
X-208813Y42159D01*
X-208661Y42919D01*
Y43695D01*
X-208813Y44456D01*
X-209109Y45172D01*
X-209540Y45817D01*
X-210089Y46365D01*
X-210734Y46796D01*
X-211450Y47093D01*
X-212211Y47244D01*
D02*
G37*
G36*
X305807Y40787D02*
X305039Y40634D01*
X304388Y40199D01*
X303953Y39548D01*
X303800Y38780D01*
X303953Y38012D01*
X304388Y37360D01*
X305039Y36925D01*
X305807Y36773D01*
X306575Y36925D01*
X307226Y37360D01*
X307661Y38012D01*
X307814Y38780D01*
X307661Y39548D01*
X307226Y40199D01*
X306575Y40634D01*
X305807Y40787D01*
D02*
G37*
G36*
X71254Y47244D02*
X70478D01*
X69718Y47093D01*
X69001Y46796D01*
X68356Y46365D01*
X67808Y45817D01*
X67377Y45172D01*
X67080Y44456D01*
X66929Y43695D01*
Y42919D01*
X67080Y42159D01*
X67377Y41442D01*
X67808Y40797D01*
X68356Y40249D01*
X69001Y39818D01*
X69718Y39521D01*
X70478Y39370D01*
X71254D01*
X72014Y39521D01*
X72731Y39818D01*
X73376Y40249D01*
X73924Y40797D01*
X74355Y41442D01*
X74652Y42159D01*
X74803Y42919D01*
Y43695D01*
X74652Y44456D01*
X74355Y45172D01*
X73924Y45817D01*
X73376Y46365D01*
X72731Y46796D01*
X72014Y47093D01*
X71254Y47244D01*
D02*
G37*
G36*
X302736Y56254D02*
X301968Y56101D01*
X301317Y55666D01*
X300882Y55015D01*
X300729Y54247D01*
X300882Y53479D01*
X301317Y52828D01*
X301968Y52393D01*
X302736Y52240D01*
X303504Y52393D01*
X304155Y52828D01*
X304591Y53479D01*
X304743Y54247D01*
X304591Y55015D01*
X304155Y55666D01*
X303504Y56101D01*
X302736Y56254D01*
D02*
G37*
G36*
X297988Y56151D02*
X297220Y55998D01*
X296569Y55563D01*
X296134Y54912D01*
X295981Y54144D01*
X296134Y53375D01*
X296569Y52724D01*
X297220Y52289D01*
X297988Y52136D01*
X298756Y52289D01*
X299407Y52724D01*
X299842Y53375D01*
X299995Y54144D01*
X299842Y54912D01*
X299407Y55563D01*
X298756Y55998D01*
X297988Y56151D01*
D02*
G37*
G36*
X212986Y47244D02*
X212211D01*
X211450Y47093D01*
X210734Y46796D01*
X210089Y46365D01*
X209540Y45817D01*
X209109Y45172D01*
X208813Y44456D01*
X208661Y43695D01*
Y42919D01*
X208813Y42159D01*
X209109Y41442D01*
X209540Y40797D01*
X210089Y40249D01*
X210734Y39818D01*
X211450Y39521D01*
X212211Y39370D01*
X212986D01*
X213747Y39521D01*
X214463Y39818D01*
X215108Y40249D01*
X215656Y40797D01*
X216087Y41442D01*
X216384Y42159D01*
X216535Y42919D01*
Y43695D01*
X216384Y44456D01*
X216087Y45172D01*
X215656Y45817D01*
X215108Y46365D01*
X214463Y46796D01*
X213747Y47093D01*
X212986Y47244D01*
D02*
G37*
G36*
X300926Y20746D02*
X300158Y20594D01*
X299507Y20158D01*
X299072Y19507D01*
X298919Y18739D01*
X299072Y17971D01*
X299507Y17320D01*
X300158Y16885D01*
X300926Y16732D01*
X301694Y16885D01*
X302345Y17320D01*
X302780Y17971D01*
X302933Y18739D01*
X302780Y19507D01*
X302345Y20158D01*
X301694Y20594D01*
X300926Y20746D01*
D02*
G37*
G36*
X229823Y3779D02*
X229055Y3626D01*
X228404Y3191D01*
X227969Y2540D01*
X227816Y1772D01*
X227969Y1004D01*
X228404Y352D01*
X229055Y-83D01*
X229823Y-235D01*
X230591Y-83D01*
X231242Y352D01*
X231677Y1004D01*
X231830Y1772D01*
X231677Y2540D01*
X231242Y3191D01*
X230591Y3626D01*
X229823Y3779D01*
D02*
G37*
G36*
X294390Y-3702D02*
X293622Y-3854D01*
X292971Y-4290D01*
X292535Y-4941D01*
X292383Y-5709D01*
X292535Y-6477D01*
X292971Y-7128D01*
X293622Y-7563D01*
X294390Y-7716D01*
X295158Y-7563D01*
X295809Y-7128D01*
X296244Y-6477D01*
X296397Y-5709D01*
X296244Y-4941D01*
X295809Y-4290D01*
X295158Y-3854D01*
X294390Y-3702D01*
D02*
G37*
G36*
X305807Y21200D02*
X305039Y21047D01*
X304388Y20612D01*
X303953Y19961D01*
X303800Y19193D01*
X303953Y18425D01*
X304388Y17774D01*
X305039Y17339D01*
X305807Y17186D01*
X306575Y17339D01*
X307226Y17774D01*
X307661Y18425D01*
X307814Y19193D01*
X307661Y19961D01*
X307226Y20612D01*
X306575Y21047D01*
X305807Y21200D01*
D02*
G37*
G36*
X300445Y39955D02*
X299677Y39803D01*
X299026Y39368D01*
X298591Y38717D01*
X298438Y37948D01*
X298591Y37180D01*
X299026Y36529D01*
X299677Y36094D01*
X300445Y35941D01*
X301213Y36094D01*
X301865Y36529D01*
X302300Y37180D01*
X302452Y37948D01*
X302300Y38717D01*
X301865Y39368D01*
X301213Y39803D01*
X300445Y39955D01*
D02*
G37*
G36*
X293917Y36117D02*
X293149Y35964D01*
X292498Y35529D01*
X292063Y34878D01*
X291910Y34110D01*
X292063Y33342D01*
X292498Y32691D01*
X293149Y32256D01*
X293917Y32103D01*
X294685Y32256D01*
X295337Y32691D01*
X295772Y33342D01*
X295924Y34110D01*
X295772Y34878D01*
X295337Y35529D01*
X294685Y35964D01*
X293917Y36117D01*
D02*
G37*
G36*
X302736Y36024D02*
X301968Y35871D01*
X301317Y35436D01*
X300882Y34785D01*
X300729Y34017D01*
X300882Y33249D01*
X301317Y32598D01*
X301968Y32163D01*
X302736Y32010D01*
X303504Y32163D01*
X304155Y32598D01*
X304591Y33249D01*
X304743Y34017D01*
X304591Y34785D01*
X304155Y35436D01*
X303504Y35871D01*
X302736Y36024D01*
D02*
G37*
%LPD*%
D13*
X255321Y-300984D02*
D03*
X245321D02*
D03*
X235321D02*
D03*
X225321D02*
D03*
X215321D02*
D03*
X155309D02*
D03*
X265321D02*
D03*
X165309D02*
D03*
X175309D02*
D03*
X185309D02*
D03*
X195309D02*
D03*
X205309D02*
D03*
D14*
X145309D02*
D03*
D16*
X-25098Y139567D02*
D03*
X295472Y-124311D02*
D03*
X295669Y-118898D02*
D03*
X305315Y-209449D02*
D03*
X277434Y-181512D02*
D03*
X305906Y-203150D02*
D03*
X277461Y-156004D02*
D03*
X284941Y-160728D02*
D03*
X286122Y-123622D02*
D03*
X277559Y-12598D02*
D03*
X281496Y3150D02*
D03*
X244096Y5908D02*
D03*
X263781Y5909D02*
D03*
X277559Y-44094D02*
D03*
X277559Y-28346D02*
D03*
X296844Y21693D02*
D03*
X288063Y19390D02*
D03*
X288850Y27264D02*
D03*
X288779Y47047D02*
D03*
X-18799Y115748D02*
D03*
X236255Y-67467D02*
D03*
X242062Y-66089D02*
D03*
X245310Y-70912D02*
D03*
X242062Y-75735D02*
D03*
X236255Y-74357D02*
D03*
X147635Y35433D02*
D03*
X310925Y-182874D02*
D03*
X311319Y-168898D02*
D03*
X310925Y-157579D02*
D03*
X311221Y-146260D02*
D03*
X311257Y-118679D02*
D03*
X310335Y182480D02*
D03*
X310728Y195177D02*
D03*
X311122Y207382D02*
D03*
X311516Y218110D02*
D03*
X311417Y229724D02*
D03*
X28543Y-135828D02*
D03*
X-188531Y-208696D02*
D03*
X-189908Y-214503D02*
D03*
X-185086Y-217751D02*
D03*
X-180263Y-214503D02*
D03*
X-181641Y-208696D02*
D03*
X-66963Y-236666D02*
D03*
X-72771Y-235288D02*
D03*
X-76019Y-240111D02*
D03*
X-72771Y-244934D02*
D03*
X-66963Y-243556D02*
D03*
X66963Y-243649D02*
D03*
X72771Y-245026D02*
D03*
X76019Y-240204D02*
D03*
X72771Y-235381D02*
D03*
X66963Y-236759D02*
D03*
X216090Y-244060D02*
D03*
X217467Y-238253D02*
D03*
X212645Y-235005D02*
D03*
X207822Y-238253D02*
D03*
X209200Y-244060D02*
D03*
X209107Y-94523D02*
D03*
X207729Y-100330D02*
D03*
X212552Y-103578D02*
D03*
X217375Y-100330D02*
D03*
X215997Y-94523D02*
D03*
X74769Y-94934D02*
D03*
X68962Y-93556D02*
D03*
X65714Y-98379D02*
D03*
X68962Y-103202D02*
D03*
X74769Y-101824D02*
D03*
X-74769Y-101916D02*
D03*
X-68962Y-103294D02*
D03*
X-65714Y-98471D02*
D03*
X-68962Y-93649D02*
D03*
X-74769Y-95026D02*
D03*
X-188531Y74769D02*
D03*
X-189908Y68962D02*
D03*
X-185086Y65714D02*
D03*
X-180263Y68962D02*
D03*
X-181641Y74769D02*
D03*
X-74769Y39816D02*
D03*
X-68962Y38438D02*
D03*
X-65714Y43261D02*
D03*
X-68962Y48084D02*
D03*
X-74769Y46706D02*
D03*
X-47210Y67375D02*
D03*
X-41403Y65997D02*
D03*
X-38155Y70820D02*
D03*
X-41403Y75643D02*
D03*
X-47210Y74265D02*
D03*
X101916Y66963D02*
D03*
X103294Y72771D02*
D03*
X98471Y76019D02*
D03*
X93649Y72771D02*
D03*
X95026Y66963D02*
D03*
X74357Y39404D02*
D03*
X75735Y45211D02*
D03*
X70912Y48460D02*
D03*
X66089Y45211D02*
D03*
X67467Y39404D02*
D03*
X209107Y47210D02*
D03*
X207729Y41403D02*
D03*
X212552Y38155D02*
D03*
X217375Y41403D02*
D03*
X215997Y47210D02*
D03*
X236666Y74769D02*
D03*
X235288Y68962D02*
D03*
X240111Y65714D02*
D03*
X244934Y68962D02*
D03*
X243556Y74769D02*
D03*
X66963Y181548D02*
D03*
X72771Y180170D02*
D03*
X76019Y184993D02*
D03*
X72771Y189816D02*
D03*
X66963Y188438D02*
D03*
X-47210Y209107D02*
D03*
X-41403Y207729D02*
D03*
X-38155Y212552D02*
D03*
X-41403Y217375D02*
D03*
X-47210Y215997D02*
D03*
X-67375Y181137D02*
D03*
X-65997Y186944D02*
D03*
X-70820Y190192D02*
D03*
X-75643Y186944D02*
D03*
X-74265Y181137D02*
D03*
X-188531Y216501D02*
D03*
X-189908Y210694D02*
D03*
X-185086Y207446D02*
D03*
X-180263Y210694D02*
D03*
X-181641Y216501D02*
D03*
X-216090Y188942D02*
D03*
X-217467Y183135D02*
D03*
X-212645Y179887D02*
D03*
X-207822Y183135D02*
D03*
X-209200Y188942D02*
D03*
X-217794Y-240481D02*
D03*
X-214662Y-235401D02*
D03*
X-208955Y-236514D02*
D03*
X-207842Y-242221D02*
D03*
X-212922Y-245353D02*
D03*
X-48503Y-212922D02*
D03*
X-45371Y-207842D02*
D03*
X-39664Y-208955D02*
D03*
X-38550Y-214662D02*
D03*
X-43631Y-217794D02*
D03*
X98749Y-217794D02*
D03*
X93668Y-214662D02*
D03*
X94782Y-208955D02*
D03*
X100489Y-207842D02*
D03*
X103621Y-212922D02*
D03*
X239834Y-207403D02*
D03*
X244914Y-210535D02*
D03*
X243801Y-216242D02*
D03*
X238094Y-217355D02*
D03*
X234962Y-212275D02*
D03*
X98101Y-65671D02*
D03*
X103182Y-68802D02*
D03*
X102068Y-74509D02*
D03*
X96362Y-75623D02*
D03*
X93230Y-70542D02*
D03*
X-43631Y-65671D02*
D03*
X-38550Y-68802D02*
D03*
X-39664Y-74509D02*
D03*
X-45371Y-75623D02*
D03*
X-48503Y-70542D02*
D03*
X-217794Y-98749D02*
D03*
X-214662Y-93668D02*
D03*
X-208955Y-94782D02*
D03*
X-207842Y-100489D02*
D03*
X-212922Y-103621D02*
D03*
X-185363Y-65671D02*
D03*
X-180282Y-68802D02*
D03*
X-181396Y-74509D02*
D03*
X-187103Y-75623D02*
D03*
X-190235Y-70542D02*
D03*
X-212922Y48503D02*
D03*
X-207842Y45371D02*
D03*
X-208955Y39664D02*
D03*
X-214662Y38550D02*
D03*
X-217794Y43631D02*
D03*
X245353Y212922D02*
D03*
X242221Y207842D02*
D03*
X236514Y208955D02*
D03*
X235401Y214662D02*
D03*
X240481Y217794D02*
D03*
X212275Y190235D02*
D03*
X217355Y187103D02*
D03*
X216242Y181396D02*
D03*
X210535Y180282D02*
D03*
X207403Y185363D02*
D03*
X103621Y212922D02*
D03*
X100489Y207842D02*
D03*
X94782Y208955D02*
D03*
X93668Y214662D02*
D03*
X98749Y217794D02*
D03*
X-30313Y-154915D02*
D03*
X-25144Y-147084D02*
D03*
X-31984Y-148434D02*
D03*
X-23569Y-152202D02*
D03*
X-20912Y-156927D02*
D03*
X-22375Y-166330D02*
D03*
X-17270Y-160962D02*
D03*
X-26971Y-161548D02*
D03*
X-15107Y120928D02*
D03*
X-13198Y112025D02*
D03*
X-10481Y118172D02*
D03*
X-6732Y109728D02*
D03*
X-22390Y128802D02*
D03*
X-23991Y120138D02*
D03*
X-19142Y124471D02*
D03*
X246475Y285335D02*
D03*
X284941Y258071D02*
D03*
X291240Y257579D02*
D03*
X-27426Y126253D02*
D03*
X-135831Y155510D02*
D03*
X-2362Y-167717D02*
D03*
X-8018Y-166474D02*
D03*
X2282Y-155308D02*
D03*
X-12939Y-164210D02*
D03*
X-9686Y-171973D02*
D03*
X3137Y-160773D02*
D03*
X311352Y243187D02*
D03*
X297449Y233862D02*
D03*
Y242577D02*
D03*
Y225407D02*
D03*
Y212724D02*
D03*
Y192563D02*
D03*
Y184368D02*
D03*
Y201018D02*
D03*
X260529Y-182386D02*
D03*
X247920Y-982D02*
D03*
X237637Y1722D02*
D03*
X246632Y7986D02*
D03*
X272155Y260195D02*
D03*
X277461Y-232776D02*
D03*
X277362Y-242815D02*
D03*
X277461Y-109744D02*
D03*
X250537Y-147712D02*
D03*
X16441Y-137613D02*
D03*
X285229Y153145D02*
D03*
X277461Y152657D02*
D03*
X282525Y169109D02*
D03*
X296844Y42121D02*
D03*
X290014Y35007D02*
D03*
X297883Y33991D02*
D03*
X293878Y-71929D02*
D03*
Y-82080D02*
D03*
X303244Y-92427D02*
D03*
X283727Y-91103D02*
D03*
X285219Y-216190D02*
D03*
X276960Y-217065D02*
D03*
X290573Y-272820D02*
D03*
X296370Y-271274D02*
D03*
X299027Y-259921D02*
D03*
X237239Y-285863D02*
D03*
X225065Y-288859D02*
D03*
X226804Y-253110D02*
D03*
X232166Y-276685D02*
D03*
X231876Y-264801D02*
D03*
X236562Y-255428D02*
D03*
X248543Y-255187D02*
D03*
X261732Y-255477D02*
D03*
X271877Y-258762D02*
D03*
X265741Y-247651D02*
D03*
X253906Y-247312D02*
D03*
X247867Y-240742D02*
D03*
X240814Y-234220D02*
D03*
X235355Y-232385D02*
D03*
X238543Y-244897D02*
D03*
X228929Y-234414D02*
D03*
X228205Y-243254D02*
D03*
X232842Y-249148D02*
D03*
X147638Y-200793D02*
D03*
X147638Y-185045D02*
D03*
X135827Y-212604D02*
D03*
X135827Y-198824D02*
D03*
X135827Y-226383D02*
D03*
X135827Y-238194D02*
D03*
X147638Y-216541D02*
D03*
X147638Y-232289D02*
D03*
X135827Y-255911D02*
D03*
X135827Y-271659D02*
D03*
X147638Y-248037D02*
D03*
X147638Y-263785D02*
D03*
X135827Y-161423D02*
D03*
X135827Y-177171D02*
D03*
X147638Y-153549D02*
D03*
X147638Y-175202D02*
D03*
X-135827Y-200793D02*
D03*
X-135827Y-181108D02*
D03*
X-147637Y-208667D02*
D03*
X-147637Y-192919D02*
D03*
X-147637Y-224415D02*
D03*
X-147637Y-240163D02*
D03*
X-135827Y-216541D02*
D03*
X-135827Y-232289D02*
D03*
X-147637Y-255911D02*
D03*
X-147637Y-271659D02*
D03*
X-135827Y-248037D02*
D03*
X-135826Y-263785D02*
D03*
X-147638Y-161423D02*
D03*
X-147637Y-177171D02*
D03*
X-135827Y-153549D02*
D03*
X-135827Y-169297D02*
D03*
X147637Y-11814D02*
D03*
X135826Y-35436D02*
D03*
X135826Y-19688D02*
D03*
X147635Y114173D02*
D03*
X147635Y129921D02*
D03*
X135824Y106299D02*
D03*
X135824Y122047D02*
D03*
X140871Y272549D02*
D03*
X136009Y261466D02*
D03*
X147634Y257873D02*
D03*
X135822Y248030D02*
D03*
X-135831Y255904D02*
D03*
X-135831Y271652D02*
D03*
X-147642Y248030D02*
D03*
X-147642Y263778D02*
D03*
X-135829Y114173D02*
D03*
X-135829Y129921D02*
D03*
X-147641Y106299D02*
D03*
X-147641Y122047D02*
D03*
X-135828Y-27562D02*
D03*
X-135828Y-11814D02*
D03*
X-147639Y-39373D02*
D03*
X-147639Y-19688D02*
D03*
X147637Y-137798D02*
D03*
X135826Y-145672D02*
D03*
X147637Y-122050D02*
D03*
X147637Y-106302D02*
D03*
X135818Y-130426D02*
D03*
X135826Y-114176D02*
D03*
X147637Y-90554D02*
D03*
X147637Y-74806D02*
D03*
X135826Y-98428D02*
D03*
X135826Y-82680D02*
D03*
X135826Y-51184D02*
D03*
X135826Y-66932D02*
D03*
X147637Y-43310D02*
D03*
X147637Y-59058D02*
D03*
X147635Y3937D02*
D03*
X147635Y19685D02*
D03*
X135824Y27559D02*
D03*
X147635Y51181D02*
D03*
X147635Y66929D02*
D03*
X135824Y43307D02*
D03*
X135824Y59055D02*
D03*
X135824Y90551D02*
D03*
X135824Y74803D02*
D03*
X147635Y98425D02*
D03*
X147635Y82677D02*
D03*
X147634Y145668D02*
D03*
X135822Y137794D02*
D03*
X147634Y161416D02*
D03*
X147634Y177164D02*
D03*
X135822Y153542D02*
D03*
X135822Y169290D02*
D03*
X147634Y192912D02*
D03*
X147634Y208660D02*
D03*
X135822Y185038D02*
D03*
X135822Y204723D02*
D03*
X135822Y232282D02*
D03*
X135822Y216534D02*
D03*
X147634Y240156D02*
D03*
X147634Y224408D02*
D03*
X-135831Y145668D02*
D03*
X-147642Y137794D02*
D03*
X-135831Y177164D02*
D03*
X-147642Y153542D02*
D03*
X-147642Y163384D02*
D03*
X-135831Y192912D02*
D03*
X-135831Y208660D02*
D03*
X-147642Y185038D02*
D03*
X-147642Y200786D02*
D03*
X-147642Y232282D02*
D03*
X-147642Y216534D02*
D03*
X-135831Y240156D02*
D03*
X-135831Y224408D02*
D03*
X-135828Y-137798D02*
D03*
X-147639Y-145672D02*
D03*
X-135828Y-122050D02*
D03*
X-135828Y-106302D02*
D03*
X-147639Y-129924D02*
D03*
X-147639Y-114176D02*
D03*
X-135828Y-90554D02*
D03*
X-135828Y-74806D02*
D03*
X-147639Y-98428D02*
D03*
X-147639Y-82680D02*
D03*
X-147639Y-51184D02*
D03*
X-147639Y-66932D02*
D03*
X-135828Y-43310D02*
D03*
X-135828Y-59058D02*
D03*
X-135829Y3936D02*
D03*
X-147640Y-3938D02*
D03*
X-135829Y19684D02*
D03*
X-135829Y35432D02*
D03*
X-147640Y11811D02*
D03*
X-147640Y27558D02*
D03*
X-135829Y51180D02*
D03*
X-135829Y66929D02*
D03*
X-147640Y43306D02*
D03*
X-147641Y59054D02*
D03*
X-147641Y90551D02*
D03*
X-147641Y74803D02*
D03*
X-135829Y98425D02*
D03*
X-135829Y82677D02*
D03*
X5854Y260889D02*
D03*
X5903Y177165D02*
D03*
X-5908Y169291D02*
D03*
X-35434Y147638D02*
D03*
X248030Y147638D02*
D03*
X240157Y135827D02*
D03*
X-271655Y147638D02*
D03*
X-263780Y135827D02*
D03*
X-248032Y135827D02*
D03*
X-232284Y135827D02*
D03*
X-255907Y147638D02*
D03*
X-240158Y147638D02*
D03*
X-216536Y135827D02*
D03*
X-200788Y135827D02*
D03*
X-224410Y147638D02*
D03*
X-208662Y147638D02*
D03*
X-185040Y135827D02*
D03*
X-169292Y135827D02*
D03*
X-192914Y147638D02*
D03*
X-177166Y147638D02*
D03*
X-153544Y135827D02*
D03*
X-137796Y135827D02*
D03*
X-161418Y147638D02*
D03*
X-145670Y147638D02*
D03*
X-122048Y135827D02*
D03*
X-106300Y135827D02*
D03*
X-129922Y147638D02*
D03*
X-114174Y147638D02*
D03*
X-90552Y135827D02*
D03*
X-74804Y135827D02*
D03*
X-98426Y147638D02*
D03*
X-82678Y147638D02*
D03*
X-51182Y147638D02*
D03*
X-66930Y147638D02*
D03*
X-43308Y135827D02*
D03*
X-59056Y135827D02*
D03*
X53149Y135827D02*
D03*
X66928Y135827D02*
D03*
X82676Y135827D02*
D03*
X98424Y135827D02*
D03*
X114172Y135827D02*
D03*
X129920Y135827D02*
D03*
X145668Y135827D02*
D03*
X161416Y135827D02*
D03*
X177164Y135827D02*
D03*
X192912Y135827D02*
D03*
X208660Y135827D02*
D03*
X224408Y135827D02*
D03*
X62991Y147638D02*
D03*
X74802Y147638D02*
D03*
X90550Y147638D02*
D03*
X106298Y147638D02*
D03*
X122046Y147638D02*
D03*
X137794Y147638D02*
D03*
X153542Y147638D02*
D03*
X169290Y147638D02*
D03*
X185038Y147638D02*
D03*
X200786Y147638D02*
D03*
X216534Y147638D02*
D03*
X232282Y147638D02*
D03*
X43306Y147638D02*
D03*
X5905Y-263781D02*
D03*
X5905Y-248033D02*
D03*
X-5906Y-255907D02*
D03*
X5905Y-232285D02*
D03*
X5905Y-216537D02*
D03*
X-5906Y-240159D02*
D03*
X-5906Y-224411D02*
D03*
X-5906Y-192915D02*
D03*
X-5906Y-208663D02*
D03*
X5905Y-185041D02*
D03*
X5905Y-200789D02*
D03*
X5483Y-18322D02*
D03*
X-5908Y263779D02*
D03*
X-5908Y248031D02*
D03*
X-5908Y232283D02*
D03*
X-5908Y216535D02*
D03*
X-5908Y200787D02*
D03*
X-5908Y185039D02*
D03*
X5903Y240157D02*
D03*
X5903Y224409D02*
D03*
X5903Y208661D02*
D03*
X5903Y192913D02*
D03*
X-5908Y74803D02*
D03*
X-5908Y90551D02*
D03*
X-5908Y106299D02*
D03*
X-5908Y59055D02*
D03*
X-5908Y40354D02*
D03*
X-5908Y27559D02*
D03*
X-5908Y11811D02*
D03*
X-5908Y-3937D02*
D03*
X-5908Y-35434D02*
D03*
X-5908Y-51182D02*
D03*
X5903Y-43308D02*
D03*
X-5908Y-66930D02*
D03*
X-5908Y-82678D02*
D03*
X5903Y-59056D02*
D03*
X5903Y-74804D02*
D03*
X-5908Y-98426D02*
D03*
X5903Y-90552D02*
D03*
X5903Y-106300D02*
D03*
X19688Y-147635D02*
D03*
X35435Y-147639D02*
D03*
X43309Y-135828D02*
D03*
X232286Y-135828D02*
D03*
X238585Y-147639D02*
D03*
X216537Y-135828D02*
D03*
X206890Y-135925D02*
D03*
X185041Y-135828D02*
D03*
X169293Y-135828D02*
D03*
X153545Y-135828D02*
D03*
X137797Y-135828D02*
D03*
X122049Y-135828D02*
D03*
X106301Y-135828D02*
D03*
X90553Y-135828D02*
D03*
X74805Y-135828D02*
D03*
X59057Y-135828D02*
D03*
X224412Y-147639D02*
D03*
X208664Y-147639D02*
D03*
X192915Y-147639D02*
D03*
X177167Y-147639D02*
D03*
X161419Y-147639D02*
D03*
X129923Y-147639D02*
D03*
X114175Y-147639D02*
D03*
X98427Y-147639D02*
D03*
X82679Y-147639D02*
D03*
X66931Y-147639D02*
D03*
X51183Y-147639D02*
D03*
X-59053Y-147639D02*
D03*
X-43305Y-147639D02*
D03*
X-66927Y-135828D02*
D03*
X-51179Y-135828D02*
D03*
X-36220Y-135335D02*
D03*
X-82675Y-135828D02*
D03*
X-98423Y-135828D02*
D03*
X-74801Y-147639D02*
D03*
X-90549Y-147639D02*
D03*
X-114171Y-135828D02*
D03*
X-129919Y-135828D02*
D03*
X-106297Y-147639D02*
D03*
X-122045Y-147639D02*
D03*
X-145667Y-135828D02*
D03*
X-161415Y-135828D02*
D03*
X-137793Y-147639D02*
D03*
X-153541Y-147639D02*
D03*
X-177163Y-135828D02*
D03*
X-192911Y-135828D02*
D03*
X-169289Y-147639D02*
D03*
X-188974Y-147639D02*
D03*
X-208659Y-135828D02*
D03*
X-224407Y-135828D02*
D03*
X-200785Y-147639D02*
D03*
X-216533Y-147639D02*
D03*
X-240155Y-135828D02*
D03*
X-255903Y-135828D02*
D03*
X-232281Y-147639D02*
D03*
X-248029Y-147639D02*
D03*
X-263777Y-147639D02*
D03*
X-271651Y-135828D02*
D03*
X35434Y-5904D02*
D03*
X27560Y5907D02*
D03*
X11812Y5907D02*
D03*
X19686Y-5904D02*
D03*
X-3936Y5907D02*
D03*
X-19684Y5907D02*
D03*
X-11810Y-5904D02*
D03*
X-27558Y-5904D02*
D03*
X250394Y-5906D02*
D03*
X232284Y5907D02*
D03*
X200788Y5907D02*
D03*
X187009Y5907D02*
D03*
X169292Y5907D02*
D03*
X153544Y5907D02*
D03*
X137796Y5907D02*
D03*
X122048Y5907D02*
D03*
X106300Y5907D02*
D03*
X90552Y5907D02*
D03*
X74804Y5907D02*
D03*
X59056Y5907D02*
D03*
X43308Y5907D02*
D03*
X224410Y-5906D02*
D03*
X208661D02*
D03*
X192914Y-5904D02*
D03*
X177166Y-5904D02*
D03*
X161418Y-5904D02*
D03*
X145670Y-5904D02*
D03*
X129922Y-5904D02*
D03*
X114174Y-5904D02*
D03*
X98426Y-5904D02*
D03*
X82678Y-5904D02*
D03*
X66930Y-5904D02*
D03*
X51182Y-5904D02*
D03*
X-59054Y-5904D02*
D03*
X-43306Y-5904D02*
D03*
X-66928Y5907D02*
D03*
X-51180Y5907D02*
D03*
X-35432Y5907D02*
D03*
X-82677Y5907D02*
D03*
X-98425Y5906D02*
D03*
X-74803Y-5904D02*
D03*
X-90551Y-5904D02*
D03*
X-114173Y5906D02*
D03*
X-129921Y5906D02*
D03*
X-106299Y-5904D02*
D03*
X-122047Y-5904D02*
D03*
X-145669Y5906D02*
D03*
X-161417Y5906D02*
D03*
X-137795Y-5904D02*
D03*
X-153543Y-5904D02*
D03*
X-177165Y5906D02*
D03*
X-192913Y5906D02*
D03*
X-169291Y-5904D02*
D03*
X-185039Y-5904D02*
D03*
X-208661Y5906D02*
D03*
X-224409Y5906D02*
D03*
X-200787Y-5905D02*
D03*
X-216535Y-5905D02*
D03*
X-240157Y5906D02*
D03*
X-255905Y5906D02*
D03*
X-232283Y-5905D02*
D03*
X-248031Y-5905D02*
D03*
X-263779Y-5905D02*
D03*
X-271653Y5906D02*
D03*
X259601Y135533D02*
D03*
X277264Y166831D02*
D03*
X263779Y147638D02*
D03*
X277223Y130393D02*
D03*
X277223Y114645D02*
D03*
X277223Y98897D02*
D03*
X296337Y269532D02*
D03*
X232672Y305072D02*
D03*
X309744Y159449D02*
D03*
X277257Y177666D02*
D03*
Y193414D02*
D03*
Y210971D02*
D03*
Y226390D02*
D03*
Y240658D02*
D03*
X309055Y253937D02*
D03*
X271654Y135827D02*
D03*
X277223Y83149D02*
D03*
X277559Y18898D02*
D03*
X277559Y34646D02*
D03*
X277559Y50394D02*
D03*
X277559Y66142D02*
D03*
X277559Y-75590D02*
D03*
X277559Y-59842D02*
D03*
X277559Y-91339D02*
D03*
X305315Y-224114D02*
D03*
Y-220571D02*
D03*
X277645Y-210393D02*
D03*
X277645Y-194645D02*
D03*
X273202Y-230349D02*
D03*
X268757Y-273366D02*
D03*
X263575Y-269049D02*
D03*
X288090Y-275886D02*
D03*
X277707Y-265315D02*
D03*
X271057Y-277897D02*
D03*
X225185Y-277853D02*
D03*
X210630Y-277559D02*
D03*
X242126Y-277559D02*
D03*
X257874Y-277559D02*
D03*
X131890Y-277559D02*
D03*
X147638Y-277559D02*
D03*
X163386Y-277559D02*
D03*
X179134Y-277559D02*
D03*
X194882Y-277559D02*
D03*
X53150Y-277559D02*
D03*
X68898Y-277559D02*
D03*
X84646Y-277559D02*
D03*
X100394Y-277559D02*
D03*
X116142Y-277559D02*
D03*
X-25590Y-277559D02*
D03*
X-9842Y-277559D02*
D03*
X5906Y-277559D02*
D03*
X21654Y-277559D02*
D03*
X37402Y-277559D02*
D03*
X-104330Y-277559D02*
D03*
X-88582Y-277559D02*
D03*
X-72834Y-277559D02*
D03*
X-57086Y-277559D02*
D03*
X-41338Y-277559D02*
D03*
X-183071Y-277559D02*
D03*
X-167323Y-277559D02*
D03*
X-151575Y-277559D02*
D03*
X-135826Y-277559D02*
D03*
X-120078Y-277559D02*
D03*
X-261811Y-277559D02*
D03*
X-246063Y-277559D02*
D03*
X-230315Y-277559D02*
D03*
X-214567Y-277559D02*
D03*
X-198819Y-277559D02*
D03*
X-277559Y-226378D02*
D03*
X-277559Y-242126D02*
D03*
X-277559Y-257874D02*
D03*
X-277559Y-277559D02*
D03*
X-277559Y-147638D02*
D03*
X-277559Y-163386D02*
D03*
X-277559Y-179134D02*
D03*
X-277559Y-194882D02*
D03*
X-277559Y-210630D02*
D03*
X-277559Y-68898D02*
D03*
X-277559Y-84646D02*
D03*
X-277559Y-100394D02*
D03*
X-277559Y-116142D02*
D03*
X-277559Y-131890D02*
D03*
X-277559Y9843D02*
D03*
X-277559Y-5906D02*
D03*
X-277559Y-21654D02*
D03*
X-277559Y-37402D02*
D03*
X-277559Y-53150D02*
D03*
X-277559Y88583D02*
D03*
X-277559Y72835D02*
D03*
X-277559Y57087D02*
D03*
X-277559Y41339D02*
D03*
X-277559Y25591D02*
D03*
X-277559Y167323D02*
D03*
X-277559Y151575D02*
D03*
X-277559Y135827D02*
D03*
X-277559Y120079D02*
D03*
X-277559Y104331D02*
D03*
X-277559Y246063D02*
D03*
X-277559Y230315D02*
D03*
X-277559Y214567D02*
D03*
X-277559Y198819D02*
D03*
X-277559Y183071D02*
D03*
X-257874Y309055D02*
D03*
X-273622Y309055D02*
D03*
X-179134Y309055D02*
D03*
X-194882Y309055D02*
D03*
X-210630Y309055D02*
D03*
X-226378Y309055D02*
D03*
X-242126Y309055D02*
D03*
X-100394Y309055D02*
D03*
X-116142Y309055D02*
D03*
X-131890Y309055D02*
D03*
X-147638Y309055D02*
D03*
X-163386Y309055D02*
D03*
X-21654Y309055D02*
D03*
X-37402Y309055D02*
D03*
X-53150Y309055D02*
D03*
X-68898Y309055D02*
D03*
X-84646Y309055D02*
D03*
X57087Y309055D02*
D03*
X41339Y309055D02*
D03*
X25591Y309055D02*
D03*
X9843Y309055D02*
D03*
X-5906Y309055D02*
D03*
X135827Y309055D02*
D03*
X120079Y309055D02*
D03*
X104331Y309055D02*
D03*
X88583Y309055D02*
D03*
X72835Y309055D02*
D03*
X214567Y309055D02*
D03*
X198819Y309055D02*
D03*
X183071Y309055D02*
D03*
X167323Y309055D02*
D03*
X151575Y309055D02*
D03*
X277559Y309055D02*
D03*
X261811Y309055D02*
D03*
X246063Y309055D02*
D03*
X230315Y309055D02*
D03*
X-309055Y257874D02*
D03*
X-309055Y273622D02*
D03*
X-309055Y179133D02*
D03*
X-309055Y194881D02*
D03*
X-309055Y210630D02*
D03*
X-309055Y226378D02*
D03*
X-309055Y242126D02*
D03*
X-309055Y100393D02*
D03*
X-309055Y116141D02*
D03*
X-309055Y131889D02*
D03*
X-309055Y147637D02*
D03*
X-309055Y163385D02*
D03*
X-309055Y21653D02*
D03*
X-309055Y37401D02*
D03*
X-309055Y53149D02*
D03*
X-309055Y68897D02*
D03*
X-309055Y84645D02*
D03*
X-309055Y-57087D02*
D03*
X-309055Y-41339D02*
D03*
X-309055Y-25591D02*
D03*
X-309055Y-9843D02*
D03*
X-309055Y5905D02*
D03*
X-309055Y-135827D02*
D03*
X-309055Y-120079D02*
D03*
X-309055Y-104331D02*
D03*
X-309055Y-88583D02*
D03*
X-309055Y-72835D02*
D03*
X-309055Y-214567D02*
D03*
X-309055Y-198819D02*
D03*
X-309055Y-183071D02*
D03*
X-309055Y-167323D02*
D03*
X-309055Y-151575D02*
D03*
X-309055Y-277559D02*
D03*
X-309055Y-261811D02*
D03*
X-309055Y-246063D02*
D03*
X-309055Y-230315D02*
D03*
X-257874Y-309055D02*
D03*
X-273622Y-309055D02*
D03*
X-179133Y-309055D02*
D03*
X-194881Y-309055D02*
D03*
X-210630Y-309055D02*
D03*
X-226378Y-309055D02*
D03*
X-242126Y-309055D02*
D03*
X-100393Y-309055D02*
D03*
X-116141Y-309055D02*
D03*
X-131889Y-309055D02*
D03*
X-147637Y-309055D02*
D03*
X-163385Y-309055D02*
D03*
X-21653Y-309055D02*
D03*
X-37401Y-309055D02*
D03*
X-53149Y-309055D02*
D03*
X-68897Y-309055D02*
D03*
X-84645Y-309055D02*
D03*
X57087Y-309055D02*
D03*
X41339Y-309055D02*
D03*
X25591Y-309055D02*
D03*
X9843Y-309055D02*
D03*
X-5905Y-309055D02*
D03*
X135827Y-309055D02*
D03*
X120079Y-309055D02*
D03*
X104331Y-309055D02*
D03*
X88583Y-309055D02*
D03*
X72835Y-309055D02*
D03*
X214567Y-309055D02*
D03*
X198819Y-309055D02*
D03*
X183071Y-309055D02*
D03*
X167323Y-309055D02*
D03*
X151575Y-309055D02*
D03*
X277559Y-309055D02*
D03*
X261811Y-309055D02*
D03*
X246063Y-309055D02*
D03*
X230315Y-309055D02*
D03*
X309055Y-273622D02*
D03*
X309055Y-194882D02*
D03*
X308858Y-213878D02*
D03*
X309055Y-226378D02*
D03*
X309055Y-242126D02*
D03*
X309055Y-257874D02*
D03*
X309154Y-134449D02*
D03*
X309055Y-37402D02*
D03*
X309055Y-53150D02*
D03*
X309055Y-68898D02*
D03*
X309055Y-84646D02*
D03*
X309055Y9843D02*
D03*
X309055Y-5906D02*
D03*
X309055Y-21654D02*
D03*
X308783Y53909D02*
D03*
X310125Y33570D02*
D03*
X310365Y43797D02*
D03*
X309055Y88583D02*
D03*
X309055Y72835D02*
D03*
X309055Y57087D02*
D03*
X309941Y171358D02*
D03*
X309646Y147638D02*
D03*
X309055Y135827D02*
D03*
X309055Y120079D02*
D03*
X309055Y104331D02*
D03*
X277257Y248532D02*
D03*
Y232784D02*
D03*
Y215158D02*
D03*
Y200079D02*
D03*
Y185540D02*
D03*
X309055Y277559D02*
D03*
X309055Y261811D02*
D03*
X277257Y253917D02*
D03*
X277334Y260940D02*
D03*
X277362Y272933D02*
D03*
X210630Y277559D02*
D03*
X131890Y277559D02*
D03*
X147638Y277559D02*
D03*
X163386Y277559D02*
D03*
X179134Y277559D02*
D03*
X194882Y277559D02*
D03*
X68898Y277559D02*
D03*
X84646Y277559D02*
D03*
X100394Y277559D02*
D03*
X116142Y277559D02*
D03*
X-25591Y277559D02*
D03*
X-9843Y277559D02*
D03*
X5906Y277559D02*
D03*
X21654Y277559D02*
D03*
X40059Y277559D02*
D03*
X-104331Y277559D02*
D03*
X-88583Y277559D02*
D03*
X-72835Y277559D02*
D03*
X-57087Y277559D02*
D03*
X-41339Y277559D02*
D03*
X-183071Y277559D02*
D03*
X-167323Y277559D02*
D03*
X-151575Y277559D02*
D03*
X-135827Y277559D02*
D03*
X-120079Y277559D02*
D03*
X-198819Y277559D02*
D03*
X-214567Y277559D02*
D03*
X-230315Y277559D02*
D03*
X-246063Y277559D02*
D03*
X-277559Y261811D02*
D03*
X-261811Y277559D02*
D03*
X-277559Y277559D02*
D03*
X250430Y281907D02*
D03*
X234505Y288531D02*
D03*
X243622Y286791D02*
D03*
X243622Y302381D02*
D03*
X249468Y294586D02*
D03*
X-26184Y-122406D02*
D03*
X8168Y-115878D02*
D03*
X-9402Y-111928D02*
D03*
X-15477Y-114308D02*
D03*
X-29705Y-128536D02*
D03*
X-31832Y-135017D02*
D03*
X-32541Y-141548D02*
D03*
X-29806Y132329D02*
D03*
X19814Y114759D02*
D03*
X2907Y-129466D02*
D03*
X3202Y-123856D02*
D03*
X-2067Y-117618D02*
D03*
X4618Y156910D02*
D03*
X16640Y145045D02*
D03*
X13928Y143959D02*
D03*
X-14910Y144550D02*
D03*
X-11859Y144353D02*
D03*
X19095Y-145081D02*
D03*
X3345Y160825D02*
D03*
X26967Y145077D02*
D03*
X-3491Y-141720D02*
D03*
X3498D02*
D03*
X4Y-138226D02*
D03*
Y-145214D02*
D03*
X1Y138251D02*
D03*
Y145239D02*
D03*
X3495Y141745D02*
D03*
X-3493D02*
D03*
X20220Y123609D02*
D03*
X24657Y133723D02*
D03*
X-25242Y-136356D02*
D03*
X3498Y-145214D02*
D03*
Y-138226D02*
D03*
X-3491Y-145214D02*
D03*
Y-138226D02*
D03*
X1Y-141734D02*
D03*
X23183Y128423D02*
D03*
X-2Y141731D02*
D03*
X-3493Y145239D02*
D03*
Y138251D02*
D03*
X3495Y145239D02*
D03*
X-23569Y-131238D02*
D03*
X-20813Y-126612D02*
D03*
X253151Y-137128D02*
D03*
X293694Y-157363D02*
D03*
X304035Y-118898D02*
D03*
X280907Y-140748D02*
D03*
X274608Y-137598D02*
D03*
X280907Y-137598D02*
D03*
X277758Y-140748D02*
D03*
Y-137598D02*
D03*
X269687Y-162719D02*
D03*
X271458Y-131299D02*
D03*
X297167Y125986D02*
D03*
X247598Y-5857D02*
D03*
X237952Y-4479D02*
D03*
X248976Y-15503D02*
D03*
X289352Y88522D02*
D03*
X281557Y82676D02*
D03*
X297147Y82676D02*
D03*
X283171Y73621D02*
D03*
X293812Y138388D02*
D03*
X241299Y-20719D02*
D03*
X295636Y115964D02*
D03*
X302757Y87499D02*
D03*
X276024Y87158D02*
D03*
X254628Y-134864D02*
D03*
X265356Y-149333D02*
D03*
X303151Y-139370D02*
D03*
X277758Y-134448D02*
D03*
X280907Y-134448D02*
D03*
X271458Y-134448D02*
D03*
X274608D02*
D03*
X271458Y-137598D02*
D03*
X268309D02*
D03*
X280907Y-131299D02*
D03*
X277758Y-131299D02*
D03*
X268309Y-134448D02*
D03*
Y-140748D02*
D03*
Y-143897D02*
D03*
X271458Y-140748D02*
D03*
Y-143897D02*
D03*
X274608D02*
D03*
Y-140748D02*
D03*
X258072Y-145965D02*
D03*
X274608Y-131299D02*
D03*
X277758Y-143897D02*
D03*
X247443Y-133782D02*
D03*
X249903Y-136144D02*
D03*
X268309Y-131299D02*
D03*
X290841Y-156748D02*
D03*
X281577Y125986D02*
D03*
X289372Y131832D02*
D03*
X257482Y-137030D02*
D03*
Y-134668D02*
D03*
X280907Y-143897D02*
D03*
X293801Y-134274D02*
D03*
Y-136636D02*
D03*
X291537Y-146380D02*
D03*
X284148Y-126368D02*
D03*
X304035Y-122933D02*
D03*
X294385Y-129813D02*
D03*
X292029Y-129746D02*
D03*
X285140Y138040D02*
D03*
X260631Y-161734D02*
D03*
X15574Y120443D02*
D03*
X3495Y138251D02*
D03*
X-26145Y-141767D02*
D03*
X11589Y-133104D02*
D03*
X20787Y140391D02*
D03*
X15197Y-146673D02*
D03*
X-16160Y-171031D02*
D03*
X24596Y119355D02*
D03*
X288529Y156506D02*
D03*
X271617Y-116276D02*
D03*
X273228Y-119095D02*
D03*
X277461Y-169291D02*
D03*
X269717Y-175150D02*
D03*
X303936Y-175457D02*
D03*
X245045Y-175082D02*
D03*
X245149Y-163796D02*
D03*
X256330Y-174803D02*
D03*
X245028Y-127853D02*
D03*
X304409Y-163787D02*
D03*
X294608Y-175010D02*
D03*
X263182Y-155503D02*
D03*
X283761Y-148939D02*
D03*
X295682Y-139764D02*
D03*
X297049Y-145691D02*
D03*
X300234Y-144662D02*
D03*
X145671Y-147639D02*
D03*
X245548Y-143716D02*
D03*
X259587Y-143355D02*
D03*
X257974Y-148349D02*
D03*
X250002Y-143209D02*
D03*
X253840Y-143701D02*
D03*
X282469Y-226355D02*
D03*
X277645Y-226141D02*
D03*
X-7920Y-117360D02*
D03*
X-2461Y-112106D02*
D03*
X216535Y5906D02*
D03*
X-17172Y-122675D02*
D03*
X-12939Y-119328D02*
D03*
X-21199Y-117599D02*
D03*
X53150Y277559D02*
D03*
X226378Y277559D02*
D03*
X242126Y277559D02*
D03*
X257874Y277559D02*
D03*
X273622Y277558D02*
D03*
X277461Y-116043D02*
D03*
X309055Y-100394D02*
D03*
X278740Y-164272D02*
D03*
X21219Y305730D02*
D03*
X180140Y297908D02*
D03*
X167935D02*
D03*
X155731D02*
D03*
X143526D02*
D03*
X131321D02*
D03*
X119116D02*
D03*
X106912D02*
D03*
X94707D02*
D03*
X82502D02*
D03*
X70298D02*
D03*
X58093D02*
D03*
X45888D02*
D03*
X33683D02*
D03*
X21520Y296909D02*
D03*
X12890Y288279D02*
D03*
X-4370Y271019D02*
D03*
X-3510Y283193D02*
D03*
X5120Y291823D02*
D03*
X13750Y300453D02*
D03*
X240602Y271333D02*
D03*
X230997Y263803D02*
D03*
X218792D02*
D03*
X206588D02*
D03*
X194383D02*
D03*
X182178D02*
D03*
X169974D02*
D03*
X157769D02*
D03*
X145564D02*
D03*
X133359D02*
D03*
X121155D02*
D03*
X108950D02*
D03*
X96745D02*
D03*
X84540D02*
D03*
X72336D02*
D03*
X60131D02*
D03*
X47926D02*
D03*
X38219Y256406D02*
D03*
X29589Y247776D02*
D03*
X20959Y239146D02*
D03*
X16019Y227985D02*
D03*
Y215780D02*
D03*
Y203576D02*
D03*
Y191371D02*
D03*
Y179166D02*
D03*
Y166962D02*
D03*
X15847Y154758D02*
D03*
X16778Y247425D02*
D03*
X25408Y256055D02*
D03*
X34038Y264686D02*
D03*
X43101Y272859D02*
D03*
X55306Y272909D02*
D03*
X67511D02*
D03*
X79715D02*
D03*
X91920D02*
D03*
X104125D02*
D03*
X116330D02*
D03*
X128534D02*
D03*
X152944D02*
D03*
X165148D02*
D03*
X177353D02*
D03*
X189558D02*
D03*
X201763D02*
D03*
X213967D02*
D03*
X294100Y-15130D02*
D03*
X282602Y-21531D02*
D03*
X270397D02*
D03*
X258193D02*
D03*
X245992Y-21199D02*
D03*
X269360Y-16264D02*
D03*
X281564D02*
D03*
X142085Y-120451D02*
D03*
X122820Y-130406D02*
D03*
X110615D02*
D03*
X98410D02*
D03*
X86206D02*
D03*
X74001D02*
D03*
X61796D02*
D03*
X49591D02*
D03*
X37387D02*
D03*
X25182D02*
D03*
X13780Y-130610D02*
D03*
X23772Y-124712D02*
D03*
X35977D02*
D03*
X48182D02*
D03*
X60387D02*
D03*
X72591D02*
D03*
X84796D02*
D03*
X97001D02*
D03*
X109205D02*
D03*
X121410D02*
D03*
X133615D02*
D03*
X230040Y-150657D02*
D03*
X239039Y-158902D02*
D03*
X165005Y-150573D02*
D03*
X177210D02*
D03*
X189415D02*
D03*
X201619D02*
D03*
X213824D02*
D03*
X226029D02*
D03*
X123142Y-155882D02*
D03*
X110937D02*
D03*
X98732D02*
D03*
X86528D02*
D03*
X74323D02*
D03*
X62118D02*
D03*
X49913D02*
D03*
X37709D02*
D03*
X25504D02*
D03*
X13299D02*
D03*
X282600Y-209856D02*
D03*
X271775Y-202277D02*
D03*
X260072Y-198812D02*
D03*
X247868D02*
D03*
X237056Y-193149D02*
D03*
X228426Y-184519D02*
D03*
X227271Y-172369D02*
D03*
X240429Y-221570D02*
D03*
X246515Y-232149D02*
D03*
X219973Y-288842D02*
D03*
X231627Y-292463D02*
D03*
X243832D02*
D03*
X256037D02*
D03*
X268242D02*
D03*
X278477Y-285816D02*
D03*
X282609Y-288531D02*
D03*
X273867Y-297048D02*
D03*
X261665Y-297305D02*
D03*
X249461D02*
D03*
X210139Y-289484D02*
D03*
X180509Y-299214D02*
D03*
X182484Y-287170D02*
D03*
X192403Y-280060D02*
D03*
X204608D02*
D03*
X216403Y-276925D02*
D03*
X220315Y-265364D02*
D03*
Y-253160D02*
D03*
Y-240955D02*
D03*
Y-228750D02*
D03*
X230131Y-221497D02*
D03*
X231371Y-271892D02*
D03*
X193108Y-288054D02*
D03*
X231533Y-226824D02*
D03*
X170025Y-295961D02*
D03*
X210110Y-297660D02*
D03*
X230113Y-297701D02*
D03*
X256462Y-109724D02*
D03*
X262700Y-99842D02*
D03*
X273189Y-100229D02*
D03*
X297976Y-101885D02*
D03*
X259885Y-119716D02*
D03*
X266720Y-165804D02*
D03*
X293062Y-210471D02*
D03*
X198270Y301335D02*
D03*
X-6602Y256492D02*
D03*
X-16770Y159658D02*
D03*
X-16392Y151535D02*
D03*
X-6455Y159016D02*
D03*
X9412Y-125658D02*
D03*
X15983Y-123808D02*
D03*
X286427Y-178145D02*
D03*
X310098Y289149D02*
D03*
X289262Y310831D02*
D03*
X289166Y-310861D02*
D03*
X310345Y-288667D02*
D03*
X-288577Y-310328D02*
D03*
X-310846Y-289036D02*
D03*
X-310577Y288380D02*
D03*
X-289385Y310861D02*
D03*
X-283944Y297162D02*
D03*
X-296537Y283929D02*
D03*
X-295247Y-284465D02*
D03*
X-284350Y-296918D02*
D03*
X284018Y-297000D02*
D03*
X295818Y-284789D02*
D03*
X283935Y296001D02*
D03*
X296712Y284289D02*
D03*
X255906Y255906D02*
D03*
Y248031D02*
D03*
Y240158D02*
D03*
Y232283D02*
D03*
Y224410D02*
D03*
Y216535D02*
D03*
Y208662D02*
D03*
Y200787D02*
D03*
Y192913D02*
D03*
Y185039D02*
D03*
Y177165D02*
D03*
Y169291D02*
D03*
X3938Y-5904D02*
D03*
X5903Y3937D02*
D03*
X5903Y19685D02*
D03*
X5903Y35433D02*
D03*
X5903Y51181D02*
D03*
X5903Y66929D02*
D03*
X5903Y82677D02*
D03*
X5903Y98425D02*
D03*
X23Y108759D02*
D03*
X6700Y109747D02*
D03*
X13181Y111418D02*
D03*
X10484Y118172D02*
D03*
X-5363Y116499D02*
D03*
X-4Y116043D02*
D03*
X5365Y116499D02*
D03*
X-24311Y133858D02*
D03*
X-176057Y305575D02*
D03*
X-169813Y300156D02*
D03*
X-163966Y294310D02*
D03*
X-159105Y287623D02*
D03*
Y279355D02*
D03*
Y271087D02*
D03*
Y262820D02*
D03*
Y254552D02*
D03*
Y246284D02*
D03*
Y238016D02*
D03*
Y229749D02*
D03*
Y221481D02*
D03*
Y213213D02*
D03*
Y204946D02*
D03*
Y196678D02*
D03*
Y188410D02*
D03*
X-153431Y182397D02*
D03*
X-147585Y176551D02*
D03*
X-141739Y170705D02*
D03*
X-135892Y164858D02*
D03*
X-130046Y159012D02*
D03*
X-124200Y153166D02*
D03*
X-118354Y147320D02*
D03*
X-110470Y144832D02*
D03*
X-102202D02*
D03*
X-93934D02*
D03*
X-85667D02*
D03*
X-77399D02*
D03*
X-69131D02*
D03*
X-60863D02*
D03*
X-53487Y141097D02*
D03*
X-47641Y135251D02*
D03*
X-40163Y131724D02*
D03*
X-38622Y136531D02*
D03*
X-44469Y142377D02*
D03*
X-48474Y149610D02*
D03*
Y157878D02*
D03*
Y166146D02*
D03*
Y174413D02*
D03*
Y182681D02*
D03*
X-52519Y189892D02*
D03*
X-58573Y195522D02*
D03*
X-66840D02*
D03*
X-75108D02*
D03*
X-83376D02*
D03*
X-91643D02*
D03*
X-99911D02*
D03*
X-107998Y197241D02*
D03*
X-113844Y203087D02*
D03*
X-118454Y209950D02*
D03*
Y218218D02*
D03*
Y226486D02*
D03*
Y234754D02*
D03*
Y243021D02*
D03*
Y251289D02*
D03*
Y259557D02*
D03*
Y267825D02*
D03*
Y284360D02*
D03*
X-122566Y291533D02*
D03*
X-130725Y292865D02*
D03*
X-137786Y288563D02*
D03*
X-138633Y280339D02*
D03*
Y272071D02*
D03*
Y263804D02*
D03*
Y255536D02*
D03*
Y247268D02*
D03*
Y239000D02*
D03*
Y230733D02*
D03*
Y222465D02*
D03*
Y214197D02*
D03*
Y205930D02*
D03*
Y197662D02*
D03*
X-136191Y189763D02*
D03*
X-130345Y183917D02*
D03*
X-124498Y178071D02*
D03*
X-118652Y172225D02*
D03*
X-112806Y166378D02*
D03*
X-104974Y163730D02*
D03*
X-96707D02*
D03*
X-88439D02*
D03*
X-80274Y165030D02*
D03*
X-74428Y170877D02*
D03*
X-68062Y172014D02*
D03*
X-72398Y164975D02*
D03*
X-78244Y159129D02*
D03*
X-86450Y158121D02*
D03*
X-94718D02*
D03*
X-102986D02*
D03*
X-111253D02*
D03*
X-117681Y163321D02*
D03*
X-123527Y169167D02*
D03*
X-129373Y175013D02*
D03*
X-135219Y180859D02*
D03*
X-141065Y186706D02*
D03*
X-144241Y194339D02*
D03*
Y202607D02*
D03*
Y210874D02*
D03*
Y219142D02*
D03*
Y227410D02*
D03*
Y235678D02*
D03*
Y243945D02*
D03*
Y252213D02*
D03*
Y260481D02*
D03*
Y268748D02*
D03*
Y277016D02*
D03*
Y285284D02*
D03*
X-141279Y293002D02*
D03*
X-135016Y298400D02*
D03*
X-126749Y298474D02*
D03*
X-118919Y295818D02*
D03*
X-113192Y289855D02*
D03*
X-112845Y281595D02*
D03*
Y273327D02*
D03*
Y265059D02*
D03*
Y256791D02*
D03*
Y248524D02*
D03*
Y240256D02*
D03*
Y231988D02*
D03*
Y223721D02*
D03*
Y215453D02*
D03*
X-110385Y207560D02*
D03*
X-104539Y201714D02*
D03*
X-96292Y201131D02*
D03*
X-88024D02*
D03*
X-79756D02*
D03*
X-71489D02*
D03*
X-63221D02*
D03*
X-54995Y200300D02*
D03*
X-49149Y194454D02*
D03*
X-43380Y188532D02*
D03*
X-42865Y180280D02*
D03*
Y172012D02*
D03*
Y163745D02*
D03*
Y155477D02*
D03*
X-41485Y147325D02*
D03*
X-35638Y141479D02*
D03*
X-29823Y138779D02*
D03*
X-31116Y146312D02*
D03*
X-32726Y154421D02*
D03*
X-30093Y162259D02*
D03*
X-25147Y168884D02*
D03*
Y177151D02*
D03*
Y185419D02*
D03*
Y193687D02*
D03*
Y201954D02*
D03*
Y210222D02*
D03*
Y218490D02*
D03*
Y226758D02*
D03*
Y235025D02*
D03*
Y243293D02*
D03*
Y251561D02*
D03*
Y259828D02*
D03*
Y268096D02*
D03*
Y284631D02*
D03*
X-28388Y292237D02*
D03*
X-34234Y298083D02*
D03*
X-42497Y298377D02*
D03*
X-50765D02*
D03*
X-59032D02*
D03*
X-67300D02*
D03*
X-75568D02*
D03*
X-83836D02*
D03*
X-90874Y294038D02*
D03*
X-92963Y286039D02*
D03*
X-92242Y277803D02*
D03*
X-86396Y271957D02*
D03*
X-78183Y271013D02*
D03*
X-69915D02*
D03*
X-61647D02*
D03*
X-53379D02*
D03*
X-45399Y268853D02*
D03*
X-39553Y263007D02*
D03*
X-38337Y254829D02*
D03*
X-38680Y246568D02*
D03*
X-44406Y240604D02*
D03*
X-52267Y238042D02*
D03*
X-60534D02*
D03*
X-68802D02*
D03*
X-77070D02*
D03*
X-85337D02*
D03*
X-92251Y233508D02*
D03*
X-94440Y225535D02*
D03*
X-91081Y217980D02*
D03*
X-83226Y215403D02*
D03*
X-74958D02*
D03*
X-66690D02*
D03*
X-58422D02*
D03*
X-50155D02*
D03*
X-56617Y209794D02*
D03*
X-64885D02*
D03*
X-73153D02*
D03*
X-81420D02*
D03*
X-89688Y209799D02*
D03*
X-96078Y215045D02*
D03*
X-100048Y222297D02*
D03*
Y230564D02*
D03*
X-95947Y237743D02*
D03*
X-89919Y243402D02*
D03*
X-81655Y243651D02*
D03*
X-73387D02*
D03*
X-65120D02*
D03*
X-56852D02*
D03*
X-48612Y244330D02*
D03*
X-43946Y251155D02*
D03*
Y259423D02*
D03*
X-49770Y265292D02*
D03*
X-58037Y265404D02*
D03*
X-66304D02*
D03*
X-74572D02*
D03*
X-82840D02*
D03*
X-90607Y268236D02*
D03*
X-96453Y274082D02*
D03*
X-98572Y282074D02*
D03*
Y290341D02*
D03*
X-95031Y297813D02*
D03*
X-89088Y303560D02*
D03*
X-80831Y303986D02*
D03*
X-72563D02*
D03*
X-64296D02*
D03*
X-56028D02*
D03*
X-47760D02*
D03*
X-39492D02*
D03*
X-31277Y303058D02*
D03*
X-25431Y297212D02*
D03*
X-19779Y291178D02*
D03*
X-19538Y282913D02*
D03*
Y274646D02*
D03*
Y266378D02*
D03*
Y258110D02*
D03*
Y249843D02*
D03*
Y241575D02*
D03*
Y233307D02*
D03*
Y225040D02*
D03*
Y216772D02*
D03*
Y208504D02*
D03*
Y200236D02*
D03*
Y191969D02*
D03*
Y183701D02*
D03*
Y175433D02*
D03*
Y167166D02*
D03*
X-24130Y160290D02*
D03*
X-27117Y152581D02*
D03*
X-22557Y145685D02*
D03*
X21211Y150114D02*
D03*
Y158382D02*
D03*
Y166649D02*
D03*
Y174917D02*
D03*
Y183185D02*
D03*
Y191453D02*
D03*
Y199720D02*
D03*
Y207988D02*
D03*
Y216256D02*
D03*
Y224523D02*
D03*
Y232791D02*
D03*
X25953Y239564D02*
D03*
X31799Y245410D02*
D03*
X37645Y251256D02*
D03*
X43491Y257102D02*
D03*
X51718Y257923D02*
D03*
X59986D02*
D03*
X68254D02*
D03*
X76521D02*
D03*
X84789D02*
D03*
X93057D02*
D03*
X101325D02*
D03*
X109592D02*
D03*
X117860D02*
D03*
X126128D02*
D03*
X134395D02*
D03*
X142663D02*
D03*
X150919Y257483D02*
D03*
X156587Y251464D02*
D03*
X156741Y243198D02*
D03*
X152604Y236040D02*
D03*
X144566Y234105D02*
D03*
X128031D02*
D03*
X119763D02*
D03*
X111495D02*
D03*
X103227D02*
D03*
X94960D02*
D03*
X87095Y231555D02*
D03*
X84005Y223886D02*
D03*
X83448Y215637D02*
D03*
X77431Y209967D02*
D03*
X69164Y209878D02*
D03*
X62921Y215298D02*
D03*
X61664Y223470D02*
D03*
X58803Y231227D02*
D03*
X50639Y232530D02*
D03*
X44635Y226846D02*
D03*
Y218578D02*
D03*
Y210311D02*
D03*
Y202043D02*
D03*
X46333Y193952D02*
D03*
X52179Y188105D02*
D03*
X60443Y187844D02*
D03*
X62636Y182235D02*
D03*
X54369D02*
D03*
X46797Y185556D02*
D03*
X40951Y191402D02*
D03*
X39026Y199443D02*
D03*
Y207710D02*
D03*
Y215978D02*
D03*
Y224246D02*
D03*
X40925Y232292D02*
D03*
X46977Y237925D02*
D03*
X55242Y238139D02*
D03*
X62911Y235051D02*
D03*
X67273Y228027D02*
D03*
Y219759D02*
D03*
X74300Y215403D02*
D03*
X78396Y222584D02*
D03*
X78720Y230845D02*
D03*
X84432Y236823D02*
D03*
X92177Y239714D02*
D03*
X100445D02*
D03*
X108713D02*
D03*
X116981D02*
D03*
X125248D02*
D03*
X133516D02*
D03*
X141784D02*
D03*
X151133Y249447D02*
D03*
X143378Y252314D02*
D03*
X135110D02*
D03*
X126842D02*
D03*
X118575D02*
D03*
X110307D02*
D03*
X102039D02*
D03*
X93772D02*
D03*
X85504D02*
D03*
X77236D02*
D03*
X68969D02*
D03*
X60701D02*
D03*
X52433D02*
D03*
X44457Y250137D02*
D03*
X38611Y244291D02*
D03*
X32765Y238444D02*
D03*
X26919Y232598D02*
D03*
X26820Y224331D02*
D03*
Y216064D02*
D03*
Y207796D02*
D03*
Y199528D02*
D03*
Y191260D02*
D03*
Y182993D02*
D03*
Y174725D02*
D03*
Y166457D02*
D03*
Y158190D02*
D03*
Y149922D02*
D03*
X22859Y142665D02*
D03*
X26378Y139075D02*
D03*
X34449Y137402D02*
D03*
X44587D02*
D03*
X50050Y145351D02*
D03*
X43461Y150345D02*
D03*
X36008Y153923D02*
D03*
X33514Y161806D02*
D03*
X37324Y169144D02*
D03*
X45329Y171210D02*
D03*
X53597D02*
D03*
X61865D02*
D03*
X70132D02*
D03*
X78354Y172083D02*
D03*
X84007Y178117D02*
D03*
Y186384D02*
D03*
X87862Y193698D02*
D03*
X95799Y196013D02*
D03*
X103191Y192310D02*
D03*
X105462Y184360D02*
D03*
Y176093D02*
D03*
Y167825D02*
D03*
X110165Y161025D02*
D03*
X118257Y159329D02*
D03*
X124103Y165175D02*
D03*
X132100Y167273D02*
D03*
X140368D02*
D03*
X148636D02*
D03*
X156904D02*
D03*
X165171D02*
D03*
X172910Y170183D02*
D03*
X171537Y178336D02*
D03*
X163385Y179714D02*
D03*
X155117D02*
D03*
X146849D02*
D03*
X138582D02*
D03*
X130314D02*
D03*
X122046D02*
D03*
X115561Y184842D02*
D03*
X113830Y192926D02*
D03*
X117968Y200083D02*
D03*
X126006Y202017D02*
D03*
X134274D02*
D03*
X142542D02*
D03*
X150598Y203875D02*
D03*
X152806Y211842D02*
D03*
X147473Y218160D02*
D03*
X139205D02*
D03*
X130937D02*
D03*
X122670D02*
D03*
X114402D02*
D03*
X106301Y216508D02*
D03*
X107483Y223769D02*
D03*
X115751D02*
D03*
X124018D02*
D03*
X132286D02*
D03*
X140554D02*
D03*
X155392Y218751D02*
D03*
X158415Y211055D02*
D03*
X157494Y202839D02*
D03*
X151601Y197040D02*
D03*
X143358Y196408D02*
D03*
X135090D02*
D03*
X126822D02*
D03*
X119438Y192689D02*
D03*
X123192Y185322D02*
D03*
X131459D02*
D03*
X139727D02*
D03*
X147995D02*
D03*
X156263D02*
D03*
X164530D02*
D03*
X172784Y184848D02*
D03*
X178685Y179057D02*
D03*
X179379Y170818D02*
D03*
X174677Y164018D02*
D03*
X166751Y161664D02*
D03*
X158484D02*
D03*
X150216D02*
D03*
X141948D02*
D03*
X133680D02*
D03*
X125855Y158995D02*
D03*
X119552Y153645D02*
D03*
X111284Y153593D02*
D03*
X104685Y158573D02*
D03*
X99853Y165282D02*
D03*
Y173550D02*
D03*
Y181818D02*
D03*
X97755Y189815D02*
D03*
X89769Y187673D02*
D03*
X89615Y179407D02*
D03*
X86118Y171916D02*
D03*
X80202Y166140D02*
D03*
X71952Y165601D02*
D03*
X63684D02*
D03*
X55416D02*
D03*
X47149D02*
D03*
X39255Y163143D02*
D03*
X43338Y155954D02*
D03*
X51366Y153978D02*
D03*
X55659Y146912D02*
D03*
X54589Y138714D02*
D03*
X48743Y132868D02*
D03*
X40759Y130722D02*
D03*
X32581Y131940D02*
D03*
X48730Y129441D02*
D03*
X56998D02*
D03*
X65237Y130128D02*
D03*
X71083Y135974D02*
D03*
X76929Y141820D02*
D03*
X84463Y145226D02*
D03*
X92731D02*
D03*
X100998D02*
D03*
X109266D02*
D03*
X117534D02*
D03*
X125801D02*
D03*
X134069D02*
D03*
X142337D02*
D03*
X150605D02*
D03*
X158872D02*
D03*
X167140D02*
D03*
X173323Y150714D02*
D03*
X179382Y156340D02*
D03*
X187647Y156544D02*
D03*
X195915D02*
D03*
X204182D02*
D03*
X212450D02*
D03*
X220718D02*
D03*
X227314Y161529D02*
D03*
X220850Y166684D02*
D03*
X212582D02*
D03*
X204315Y166804D02*
D03*
X198141Y172303D02*
D03*
X192295Y178149D02*
D03*
X186448Y183995D02*
D03*
X185139Y192158D02*
D03*
Y200426D02*
D03*
X184329Y208654D02*
D03*
X178483Y214500D02*
D03*
X172636Y220346D02*
D03*
X167471Y226802D02*
D03*
Y235070D02*
D03*
Y243337D02*
D03*
X169043Y251454D02*
D03*
X174890Y257300D02*
D03*
X183106Y258218D02*
D03*
X191374D02*
D03*
X199630Y257785D02*
D03*
X205572Y252036D02*
D03*
X208021Y244139D02*
D03*
Y235871D02*
D03*
Y227604D02*
D03*
Y219336D02*
D03*
Y211068D02*
D03*
Y202800D02*
D03*
Y194533D02*
D03*
X205112Y188560D02*
D03*
X202412Y196375D02*
D03*
Y204642D02*
D03*
Y212910D02*
D03*
Y221178D02*
D03*
Y229446D02*
D03*
Y237713D02*
D03*
Y245981D02*
D03*
X197243Y252433D02*
D03*
X188977Y252609D02*
D03*
X180709D02*
D03*
X173717Y248196D02*
D03*
X173080Y239953D02*
D03*
Y231685D02*
D03*
X176675Y224240D02*
D03*
X182521Y218394D02*
D03*
X188367Y212548D02*
D03*
X190747Y204630D02*
D03*
Y196362D02*
D03*
Y188095D02*
D03*
X196355Y182020D02*
D03*
X202202Y176174D02*
D03*
X209502Y172293D02*
D03*
X217769D02*
D03*
X226037Y172223D02*
D03*
X232269Y166791D02*
D03*
X232923Y158549D02*
D03*
X227898Y151983D02*
D03*
X219697Y150936D02*
D03*
X211429D02*
D03*
X203161D02*
D03*
X194894D02*
D03*
X186626D02*
D03*
X178803Y148262D02*
D03*
X172956Y142416D02*
D03*
X165177Y139617D02*
D03*
X156909D02*
D03*
X148641D02*
D03*
X140374D02*
D03*
X132106D02*
D03*
X123838D02*
D03*
X115571D02*
D03*
X107303D02*
D03*
X99035D02*
D03*
X90768D02*
D03*
X82501Y139461D02*
D03*
X76655Y133614D02*
D03*
X70809Y127768D02*
D03*
X63538Y123832D02*
D03*
X55270D02*
D03*
X47003D02*
D03*
X38735D02*
D03*
X30558Y125054D02*
D03*
X71335Y122059D02*
D03*
X79603D02*
D03*
X85710Y127632D02*
D03*
X93849Y129084D02*
D03*
X102117D02*
D03*
X110385D02*
D03*
X118653D02*
D03*
X126920D02*
D03*
X135188D02*
D03*
X143456D02*
D03*
X151723D02*
D03*
X159991D02*
D03*
X168259D02*
D03*
X176116Y131657D02*
D03*
X181962Y137503D02*
D03*
X187808Y143349D02*
D03*
X195990Y144537D02*
D03*
X203688Y141519D02*
D03*
X209078Y125991D02*
D03*
X217068Y123867D02*
D03*
X225336D02*
D03*
X233604D02*
D03*
X240175Y128885D02*
D03*
X241093Y145369D02*
D03*
Y153637D02*
D03*
Y161905D02*
D03*
Y170172D02*
D03*
Y178440D02*
D03*
X237310Y185791D02*
D03*
X231464Y191637D02*
D03*
X225618Y197483D02*
D03*
X219771Y203330D02*
D03*
X218948Y211556D02*
D03*
Y219824D02*
D03*
Y228092D02*
D03*
Y236359D02*
D03*
Y244627D02*
D03*
X220610Y252726D02*
D03*
X226456Y258572D02*
D03*
X234683Y259399D02*
D03*
X242935Y258901D02*
D03*
X248861Y253136D02*
D03*
X251525Y245309D02*
D03*
Y237041D02*
D03*
Y228774D02*
D03*
X251395Y220507D02*
D03*
X245916Y225065D02*
D03*
Y233332D02*
D03*
Y241600D02*
D03*
X244348Y249718D02*
D03*
X237153Y253790D02*
D03*
X228914Y253098D02*
D03*
X224556Y246072D02*
D03*
Y237804D02*
D03*
Y229536D02*
D03*
Y221269D02*
D03*
Y213001D02*
D03*
X226146Y204887D02*
D03*
X231992Y199041D02*
D03*
X237838Y193195D02*
D03*
X243684Y187349D02*
D03*
X246702Y179652D02*
D03*
Y171384D02*
D03*
Y163116D02*
D03*
Y154849D02*
D03*
Y138313D02*
D03*
Y130045D02*
D03*
X242281Y123059D02*
D03*
X235550Y118259D02*
D03*
X227282D02*
D03*
X219014D02*
D03*
X210747D02*
D03*
X204041Y123095D02*
D03*
X201625Y131002D02*
D03*
X198584Y138690D02*
D03*
X190349Y137958D02*
D03*
X184503Y132112D02*
D03*
X178656Y126265D02*
D03*
X170874Y123475D02*
D03*
X162606D02*
D03*
X154338D02*
D03*
X146071D02*
D03*
X129535D02*
D03*
X121268D02*
D03*
X113000D02*
D03*
X104732D02*
D03*
X96465D02*
D03*
X88284Y122274D02*
D03*
X82223Y116651D02*
D03*
X73958Y116450D02*
D03*
X65690D02*
D03*
X57423D02*
D03*
X49155D02*
D03*
X40887D02*
D03*
X32619D02*
D03*
X30039Y113327D02*
D03*
X38306Y113201D02*
D03*
X46574D02*
D03*
X54841D02*
D03*
X63109D02*
D03*
X71377D02*
D03*
X79645D02*
D03*
X87912D02*
D03*
X96180D02*
D03*
X104448D02*
D03*
X112715D02*
D03*
X120983D02*
D03*
X129251D02*
D03*
X137519D02*
D03*
X154054D02*
D03*
X162322D02*
D03*
X170589D02*
D03*
X178857D02*
D03*
X187125D02*
D03*
X193845Y108385D02*
D03*
X194340Y100132D02*
D03*
X190045Y93067D02*
D03*
X181949Y91388D02*
D03*
X173682D02*
D03*
X165414D02*
D03*
X157146D02*
D03*
X148878D02*
D03*
X145157Y84006D02*
D03*
X151003Y78159D02*
D03*
X156850Y72313D02*
D03*
X158218Y64160D02*
D03*
X160069Y56102D02*
D03*
X166093Y61764D02*
D03*
Y70032D02*
D03*
X170004Y77316D02*
D03*
X178173Y78587D02*
D03*
X184374Y73119D02*
D03*
X184596Y64854D02*
D03*
Y56586D02*
D03*
Y48319D02*
D03*
X192276Y45257D02*
D03*
X193160Y53478D02*
D03*
Y61746D02*
D03*
Y70013D02*
D03*
X195823Y77840D02*
D03*
X203310Y81348D02*
D03*
X211270Y79113D02*
D03*
X215403Y71952D02*
D03*
Y63685D02*
D03*
Y55417D02*
D03*
X209794Y53224D02*
D03*
Y61491D02*
D03*
Y69759D02*
D03*
X204085Y75739D02*
D03*
X198769Y69407D02*
D03*
Y61139D02*
D03*
Y52871D02*
D03*
X198694Y44604D02*
D03*
X193294Y38344D02*
D03*
X185050Y37714D02*
D03*
X179223Y43578D02*
D03*
X178987Y51843D02*
D03*
Y60110D02*
D03*
Y68378D02*
D03*
X171702Y64469D02*
D03*
Y56201D02*
D03*
X166360Y49891D02*
D03*
X158098Y50187D02*
D03*
X152680Y56433D02*
D03*
X152609Y64701D02*
D03*
X149062Y72169D02*
D03*
X143216Y78015D02*
D03*
X139223Y85255D02*
D03*
X141423Y93224D02*
D03*
X157048Y96997D02*
D03*
X165315D02*
D03*
X173583D02*
D03*
X181851D02*
D03*
X188731Y101582D02*
D03*
X183054Y107592D02*
D03*
X174786D02*
D03*
X166519D02*
D03*
X158251D02*
D03*
X149983D02*
D03*
X141715D02*
D03*
X133448D02*
D03*
X125180D02*
D03*
X116912D02*
D03*
X108645D02*
D03*
X100377D02*
D03*
X92109D02*
D03*
X83842D02*
D03*
X75574D02*
D03*
X67306D02*
D03*
X59038D02*
D03*
X50771D02*
D03*
X42503D02*
D03*
X34235D02*
D03*
X26144Y109290D02*
D03*
X32142Y103799D02*
D03*
X40409D02*
D03*
X48677D02*
D03*
X56945D02*
D03*
X65212D02*
D03*
X73480D02*
D03*
X81748D02*
D03*
X90016D02*
D03*
X98283D02*
D03*
X106466Y102618D02*
D03*
X112312Y96772D02*
D03*
X118158Y90926D02*
D03*
X124004Y85079D02*
D03*
X129851Y79233D02*
D03*
X141543Y67541D02*
D03*
X142962Y59396D02*
D03*
Y51128D02*
D03*
X147163Y44008D02*
D03*
X153009Y38161D02*
D03*
X158855Y32315D02*
D03*
X164701Y26469D02*
D03*
X170548Y20623D02*
D03*
X176394Y14777D02*
D03*
X182240Y8931D02*
D03*
X197206Y4084D02*
D03*
X204932Y7028D02*
D03*
X210778Y12874D02*
D03*
X216624Y18720D02*
D03*
X222680Y24348D02*
D03*
X230945Y24556D02*
D03*
X238412Y28106D02*
D03*
X243160Y34875D02*
D03*
Y43142D02*
D03*
X237767Y49409D02*
D03*
X231921Y55255D02*
D03*
X226075Y61101D02*
D03*
X221605Y68056D02*
D03*
Y76324D02*
D03*
X217286Y83374D02*
D03*
X211440Y89220D02*
D03*
X208318Y96876D02*
D03*
X210130Y104942D02*
D03*
X216082Y110681D02*
D03*
X224340Y111072D02*
D03*
X232608Y110968D02*
D03*
X238814Y105506D02*
D03*
X242962Y98354D02*
D03*
Y90087D02*
D03*
Y81819D02*
D03*
X237353Y79626D02*
D03*
Y87893D02*
D03*
Y96161D02*
D03*
X233123Y103265D02*
D03*
X225153Y105463D02*
D03*
X217032Y103913D02*
D03*
X213926Y96251D02*
D03*
X218926Y89666D02*
D03*
X224772Y83820D02*
D03*
X227214Y75921D02*
D03*
X227451Y67657D02*
D03*
X233297Y61810D02*
D03*
X239143Y55964D02*
D03*
X244990Y50118D02*
D03*
X248769Y42765D02*
D03*
Y34497D02*
D03*
X245252Y27015D02*
D03*
X239406Y21168D02*
D03*
X231442Y18948D02*
D03*
X223307Y17471D02*
D03*
X217461Y11625D02*
D03*
X211615Y5779D02*
D03*
X205769Y-67D02*
D03*
X197631Y-1525D02*
D03*
X189363D02*
D03*
X181688Y1550D02*
D03*
X175842Y7396D02*
D03*
X169996Y13243D02*
D03*
X164150Y19089D02*
D03*
X158304Y24935D02*
D03*
X152458Y30781D02*
D03*
X140765Y42473D02*
D03*
X137353Y50004D02*
D03*
X134965Y66187D02*
D03*
X129119Y72033D02*
D03*
X123273Y77879D02*
D03*
X117427Y83726D02*
D03*
X111580Y89572D02*
D03*
X105734Y95418D02*
D03*
X97945Y98190D02*
D03*
X89678D02*
D03*
X81410D02*
D03*
X73142D02*
D03*
X64875D02*
D03*
X56607D02*
D03*
X48339D02*
D03*
X40071D02*
D03*
X31804D02*
D03*
X24389Y101848D02*
D03*
X18543Y107694D02*
D03*
X13631Y105515D02*
D03*
Y97247D02*
D03*
Y88979D02*
D03*
X13159Y80725D02*
D03*
X7400Y74793D02*
D03*
X1554Y68946D02*
D03*
X-4292Y63100D02*
D03*
X-10138Y57254D02*
D03*
X-17994Y54676D02*
D03*
X-26261D02*
D03*
X-34529D02*
D03*
X-42797D02*
D03*
X-51064D02*
D03*
X-59332D02*
D03*
X-67600D02*
D03*
X-75868D02*
D03*
X-84135D02*
D03*
X-91057Y50154D02*
D03*
X-96903Y44308D02*
D03*
X-102749Y38462D02*
D03*
X-108595Y32616D02*
D03*
X-114442Y26770D02*
D03*
X-120288Y20923D02*
D03*
X-122885Y13074D02*
D03*
Y4806D02*
D03*
Y-3461D02*
D03*
Y-11729D02*
D03*
Y-19997D02*
D03*
Y-28264D02*
D03*
Y-36532D02*
D03*
X-127391Y-43464D02*
D03*
X-133237Y-49310D02*
D03*
X-139084Y-55156D02*
D03*
X-144930Y-61002D02*
D03*
X-150776Y-66848D02*
D03*
X-152412Y-74952D02*
D03*
Y-83220D02*
D03*
X-152422Y-91488D02*
D03*
X-157681Y-97867D02*
D03*
X-163527Y-103714D02*
D03*
X-169373Y-109560D02*
D03*
X-175220Y-115406D02*
D03*
X-181066Y-121252D02*
D03*
X-182235Y-129437D02*
D03*
Y-137704D02*
D03*
Y-145972D02*
D03*
Y-154240D02*
D03*
Y-162507D02*
D03*
Y-170775D02*
D03*
Y-179043D02*
D03*
Y-187311D02*
D03*
Y-195578D02*
D03*
Y-203846D02*
D03*
X-187844Y-206039D02*
D03*
Y-197772D02*
D03*
Y-189504D02*
D03*
Y-181236D02*
D03*
Y-172969D02*
D03*
Y-164701D02*
D03*
Y-156433D02*
D03*
Y-139898D02*
D03*
Y-131630D02*
D03*
Y-123362D02*
D03*
X-183862Y-116117D02*
D03*
X-178016Y-110270D02*
D03*
X-172170Y-104424D02*
D03*
X-166324Y-98578D02*
D03*
X-160477Y-92732D02*
D03*
X-158021Y-84838D02*
D03*
Y-76570D02*
D03*
Y-68302D02*
D03*
X-153344Y-61484D02*
D03*
X-147498Y-55638D02*
D03*
X-141652Y-49792D02*
D03*
X-129959Y-38100D02*
D03*
X-128493Y-29963D02*
D03*
Y-21695D02*
D03*
Y-13428D02*
D03*
Y-5160D02*
D03*
Y3108D02*
D03*
Y11375D02*
D03*
X-128463Y19643D02*
D03*
X-123158Y25985D02*
D03*
X-117312Y31831D02*
D03*
X-111466Y37677D02*
D03*
X-105620Y43523D02*
D03*
X-99774Y49370D02*
D03*
X-93927Y55216D02*
D03*
X-87396Y60285D02*
D03*
X-79128D02*
D03*
X-70860D02*
D03*
X-62593D02*
D03*
X-54325D02*
D03*
X-46057D02*
D03*
X-37790D02*
D03*
X-29522D02*
D03*
X-21254D02*
D03*
X-13195Y62129D02*
D03*
X-7349Y67975D02*
D03*
X-1503Y73822D02*
D03*
X4343Y79668D02*
D03*
X8022Y87072D02*
D03*
Y95340D02*
D03*
Y103608D02*
D03*
X3135Y87555D02*
D03*
X-2711Y81709D02*
D03*
X-9713Y77314D02*
D03*
X-17981D02*
D03*
X-26249D02*
D03*
X-34517D02*
D03*
X-51052D02*
D03*
X-59320D02*
D03*
X-67587D02*
D03*
X-75855D02*
D03*
X-84123D02*
D03*
X-92391D02*
D03*
X-100538Y75909D02*
D03*
X-106384Y70063D02*
D03*
X-112230Y64217D02*
D03*
X-118077Y58371D02*
D03*
X-123923Y52525D02*
D03*
X-129769Y46679D02*
D03*
X-135615Y40832D02*
D03*
X-141461Y34986D02*
D03*
X-153153Y23294D02*
D03*
X-154085Y15079D02*
D03*
Y6811D02*
D03*
Y-1457D02*
D03*
Y-9724D02*
D03*
Y-17992D02*
D03*
Y-26260D02*
D03*
X-147214Y-30857D02*
D03*
X-143552Y-23444D02*
D03*
Y-15177D02*
D03*
Y-6909D02*
D03*
Y1359D02*
D03*
Y9627D02*
D03*
Y17894D02*
D03*
X-141537Y25913D02*
D03*
X-135691Y31759D02*
D03*
X-129845Y37605D02*
D03*
X-123999Y43451D02*
D03*
X-118153Y49297D02*
D03*
X-112307Y55143D02*
D03*
X-106461Y60990D02*
D03*
X-100615Y66836D02*
D03*
X-94768Y72682D02*
D03*
X-86560Y73671D02*
D03*
X-78292D02*
D03*
X-70025D02*
D03*
X-61757D02*
D03*
X-53489D02*
D03*
X-51296Y68062D02*
D03*
X-59563D02*
D03*
X-67831D02*
D03*
X-76099D02*
D03*
X-84367D02*
D03*
X-92560Y66958D02*
D03*
X-98406Y61112D02*
D03*
X-104253Y55266D02*
D03*
X-110099Y49420D02*
D03*
X-115945Y43573D02*
D03*
X-121791Y37727D02*
D03*
X-127637Y31881D02*
D03*
X-133483Y26035D02*
D03*
X-137944Y10806D02*
D03*
Y-13997D02*
D03*
Y-22265D02*
D03*
X-138431Y-30518D02*
D03*
X-144396Y-36243D02*
D03*
X-152663Y-36367D02*
D03*
X-158877Y-30913D02*
D03*
X-159694Y-22686D02*
D03*
Y-14418D02*
D03*
Y-6151D02*
D03*
Y2117D02*
D03*
Y10385D02*
D03*
Y18652D02*
D03*
X-157703Y26677D02*
D03*
X-151857Y32523D02*
D03*
X-146010Y38369D02*
D03*
X-140164Y44215D02*
D03*
X-128472Y55907D02*
D03*
X-122626Y61754D02*
D03*
X-116780Y67600D02*
D03*
X-110933Y73446D02*
D03*
X-105087Y79292D02*
D03*
X-97659Y82923D02*
D03*
X-89391D02*
D03*
X-81124D02*
D03*
X-72856D02*
D03*
X-64588D02*
D03*
X-56321D02*
D03*
X-48053D02*
D03*
X-39785D02*
D03*
X-31518D02*
D03*
X-23250D02*
D03*
X-14982D02*
D03*
X-7061Y85291D02*
D03*
X-1215Y91137D02*
D03*
X486Y99228D02*
D03*
X-2392Y99745D02*
D03*
X-8238Y93899D02*
D03*
X-14084Y88052D02*
D03*
X-22086Y85975D02*
D03*
X-30354D02*
D03*
X-38622D02*
D03*
X-46889D02*
D03*
X-55157D02*
D03*
X-63425D02*
D03*
X-71693D02*
D03*
X-79960D02*
D03*
X-88228D02*
D03*
X-96496D02*
D03*
X-104763D02*
D03*
X-111420Y81071D02*
D03*
X-117266Y75225D02*
D03*
X-123112Y69379D02*
D03*
X-128958Y63533D02*
D03*
X-134804Y57687D02*
D03*
X-140650Y51840D02*
D03*
X-146497Y45994D02*
D03*
X-152343Y40148D02*
D03*
X-158189Y34302D02*
D03*
X-164035Y28456D02*
D03*
X-169881Y22610D02*
D03*
X-169932Y14342D02*
D03*
Y6074D02*
D03*
Y-2193D02*
D03*
Y-10461D02*
D03*
Y-18729D02*
D03*
Y-26997D02*
D03*
Y-35264D02*
D03*
Y-43532D02*
D03*
Y-51800D02*
D03*
Y-60067D02*
D03*
Y-68335D02*
D03*
Y-76603D02*
D03*
X-170906Y-84813D02*
D03*
X-176752Y-90659D02*
D03*
X-184497Y-93552D02*
D03*
X-192765D02*
D03*
X-200084Y-89708D02*
D03*
X-205931Y-83862D02*
D03*
X-213775Y-81249D02*
D03*
X-222042D02*
D03*
X-230310D02*
D03*
X-237226Y-85779D02*
D03*
X-240109Y-93528D02*
D03*
X-237408Y-101342D02*
D03*
X-230241Y-105463D02*
D03*
X-222109Y-103970D02*
D03*
X-216593Y-106385D02*
D03*
X-223403Y-111072D02*
D03*
X-231671D02*
D03*
X-239145Y-107537D02*
D03*
X-244972Y-101672D02*
D03*
X-245718Y-93438D02*
D03*
X-244623Y-85243D02*
D03*
X-238777Y-79397D02*
D03*
X-231412Y-75640D02*
D03*
X-223144D02*
D03*
X-214876D02*
D03*
X-206610Y-75794D02*
D03*
X-200499Y-81362D02*
D03*
X-194652Y-87208D02*
D03*
X-186417Y-87944D02*
D03*
X-178787Y-84762D02*
D03*
X-175541Y-77158D02*
D03*
Y-68890D02*
D03*
Y-60622D02*
D03*
Y-52355D02*
D03*
Y-44087D02*
D03*
Y-35819D02*
D03*
Y-27552D02*
D03*
Y-19284D02*
D03*
Y-11016D02*
D03*
Y-2748D02*
D03*
Y13787D02*
D03*
Y22055D02*
D03*
X-171282Y29141D02*
D03*
X-165436Y34987D02*
D03*
X-159589Y40833D02*
D03*
X-153743Y46679D02*
D03*
X-147897Y52526D02*
D03*
X-142051Y58372D02*
D03*
X-136205Y64218D02*
D03*
X-130359Y70064D02*
D03*
X-124512Y75910D02*
D03*
X-118666Y81756D02*
D03*
X-112820Y87603D02*
D03*
X-105574Y91584D02*
D03*
X-97306D02*
D03*
X-89039D02*
D03*
X-80771D02*
D03*
X-72503D02*
D03*
X-64236D02*
D03*
X-55968D02*
D03*
X-47700D02*
D03*
X-39432D02*
D03*
X-31165D02*
D03*
X-22897D02*
D03*
X-15277Y94792D02*
D03*
X-9431Y100638D02*
D03*
X-12238Y102668D02*
D03*
X-18084Y96822D02*
D03*
X-25939Y94243D02*
D03*
X-34207D02*
D03*
X-42474D02*
D03*
X-50742D02*
D03*
X-59010D02*
D03*
X-67278D02*
D03*
X-75545D02*
D03*
X-83813D02*
D03*
X-92081D02*
D03*
X-100348D02*
D03*
X-108616D02*
D03*
X-116817Y93193D02*
D03*
X-122663Y87347D02*
D03*
X-128509Y81501D02*
D03*
X-134355Y75655D02*
D03*
X-140202Y69809D02*
D03*
X-146048Y63963D02*
D03*
X-151894Y58117D02*
D03*
X-157740Y52270D02*
D03*
X-163586Y46424D02*
D03*
X-169432Y40578D02*
D03*
X-175279Y34732D02*
D03*
X-181125Y28886D02*
D03*
X-186971Y23040D02*
D03*
X-192817Y17193D02*
D03*
X-193948Y9003D02*
D03*
Y736D02*
D03*
Y-7532D02*
D03*
X-196399Y-15428D02*
D03*
X-202245Y-21274D02*
D03*
X-208091Y-27120D02*
D03*
X-216168Y-28887D02*
D03*
X-224436D02*
D03*
X-232703D02*
D03*
X-240971D02*
D03*
X-249239D02*
D03*
X-257506D02*
D03*
X-265187Y-31948D02*
D03*
X-267766Y-39803D02*
D03*
X-266730Y-48005D02*
D03*
X-260378Y-53298D02*
D03*
X-252110D02*
D03*
X-243843D02*
D03*
X-235575D02*
D03*
X-227307D02*
D03*
X-219040D02*
D03*
X-210772D02*
D03*
X-202504D02*
D03*
X-195055Y-56885D02*
D03*
X-189209Y-62731D02*
D03*
X-197470Y-62401D02*
D03*
X-204963Y-58907D02*
D03*
X-213230D02*
D03*
X-221498D02*
D03*
X-229766D02*
D03*
X-238034D02*
D03*
X-246301D02*
D03*
X-254569D02*
D03*
X-262837Y-58859D02*
D03*
X-269148Y-53519D02*
D03*
X-273375Y-46414D02*
D03*
Y-38146D02*
D03*
X-271311Y-30140D02*
D03*
X-265465Y-24294D02*
D03*
X-257259Y-23278D02*
D03*
X-248992D02*
D03*
X-240724D02*
D03*
X-232456D02*
D03*
X-224189D02*
D03*
X-215921D02*
D03*
X-208512Y-19609D02*
D03*
X-202666Y-13763D02*
D03*
X-199556Y2165D02*
D03*
Y10433D02*
D03*
X-199083Y18687D02*
D03*
X-193323Y24619D02*
D03*
X-187477Y30465D02*
D03*
X-181631Y36311D02*
D03*
X-175785Y42157D02*
D03*
X-169939Y48004D02*
D03*
X-164093Y53850D02*
D03*
X-158247Y59696D02*
D03*
X-152400Y65542D02*
D03*
X-146554Y71388D02*
D03*
X-140708Y77234D02*
D03*
X-129016Y88927D02*
D03*
X-123170Y94773D02*
D03*
X-116646Y99852D02*
D03*
X-108378D02*
D03*
X-100110D02*
D03*
X-91843D02*
D03*
X-83575D02*
D03*
X-75307D02*
D03*
X-67039D02*
D03*
X-58772D02*
D03*
X-50504D02*
D03*
X-42236D02*
D03*
X-33969D02*
D03*
X-25701D02*
D03*
X-18657Y104181D02*
D03*
X-27526Y102806D02*
D03*
X-35794D02*
D03*
X-44062D02*
D03*
X-52329D02*
D03*
X-60597D02*
D03*
X-68865D02*
D03*
X-77132D02*
D03*
X-85400D02*
D03*
X-93668D02*
D03*
X-101936D02*
D03*
X-110203D02*
D03*
X-118471D02*
D03*
X-126739D02*
D03*
X-135006D02*
D03*
X-143103Y101131D02*
D03*
X-148949Y95285D02*
D03*
X-154795Y89439D02*
D03*
X-160641Y83592D02*
D03*
X-164026Y76050D02*
D03*
Y67782D02*
D03*
X-168893Y61098D02*
D03*
X-174739Y55252D02*
D03*
X-180585Y49406D02*
D03*
X-186431Y43560D02*
D03*
X-192277Y37713D02*
D03*
X-198124Y31867D02*
D03*
X-203970Y26021D02*
D03*
X-209816Y20175D02*
D03*
X-216027Y14718D02*
D03*
X-224294Y14617D02*
D03*
X-232562D02*
D03*
X-240829D02*
D03*
X-249097D02*
D03*
X-257365D02*
D03*
X-265633D02*
D03*
X-273900D02*
D03*
X-282158Y15016D02*
D03*
X-288108Y20756D02*
D03*
X-293954Y26603D02*
D03*
X-296800Y34365D02*
D03*
Y42633D02*
D03*
Y50901D02*
D03*
X-292118Y57714D02*
D03*
X-286272Y63560D02*
D03*
X-278743Y66978D02*
D03*
X-270475D02*
D03*
X-262208D02*
D03*
X-253940D02*
D03*
X-245672D02*
D03*
X-237405D02*
D03*
X-229593Y64268D02*
D03*
X-223747Y58422D02*
D03*
X-217901Y52576D02*
D03*
X-220316Y47059D02*
D03*
X-226162Y52905D02*
D03*
X-232008Y58751D02*
D03*
X-239851Y61369D02*
D03*
X-248118D02*
D03*
X-256386D02*
D03*
X-264654D02*
D03*
X-272922D02*
D03*
X-281165Y60735D02*
D03*
X-287011Y54889D02*
D03*
X-291192Y47756D02*
D03*
Y39488D02*
D03*
X-290658Y31238D02*
D03*
X-284812Y25392D02*
D03*
X-278357Y20226D02*
D03*
X-270089D02*
D03*
X-261821D02*
D03*
X-253554D02*
D03*
X-245286D02*
D03*
X-237018D02*
D03*
X-228750D02*
D03*
X-220483D02*
D03*
X-213412Y24510D02*
D03*
X-207566Y30357D02*
D03*
X-201720Y36203D02*
D03*
X-195874Y42049D02*
D03*
X-190027Y47895D02*
D03*
X-184181Y53741D02*
D03*
X-178335Y59587D02*
D03*
X-172489Y65434D02*
D03*
X-169635Y73193D02*
D03*
X-169617Y81461D02*
D03*
X-164340Y87826D02*
D03*
X-158494Y93672D02*
D03*
X-152648Y99518D02*
D03*
X-139117Y108415D02*
D03*
X-130849D02*
D03*
X-122582D02*
D03*
X-114314D02*
D03*
X-106046D02*
D03*
X-97779D02*
D03*
X-89511D02*
D03*
X-81243D02*
D03*
X-72975D02*
D03*
X-64708D02*
D03*
X-56440D02*
D03*
X-48172D02*
D03*
X-39905D02*
D03*
X-31637D02*
D03*
X-23418Y109309D02*
D03*
X-33269Y110877D02*
D03*
X-41537D02*
D03*
X-49805D02*
D03*
X-58072D02*
D03*
X-65882Y113590D02*
D03*
X-74009Y115109D02*
D03*
X-82277D02*
D03*
X-90545D02*
D03*
X-98812D02*
D03*
X-107080D02*
D03*
X-115348D02*
D03*
X-123615D02*
D03*
X-131883D02*
D03*
X-140151D02*
D03*
X-148418D02*
D03*
X-156686D02*
D03*
X-164954D02*
D03*
X-173222D02*
D03*
X-181489D02*
D03*
X-189757D02*
D03*
X-198025D02*
D03*
X-206293D02*
D03*
X-214560D02*
D03*
X-222828D02*
D03*
X-231096D02*
D03*
X-239363D02*
D03*
X-245938Y120122D02*
D03*
X-251784Y125968D02*
D03*
X-257630Y131814D02*
D03*
X-271561Y139393D02*
D03*
X-279828D02*
D03*
X-287283Y135818D02*
D03*
X-292766Y129630D02*
D03*
Y121362D02*
D03*
Y113095D02*
D03*
X-288539Y105989D02*
D03*
X-282693Y100143D02*
D03*
X-274428Y99950D02*
D03*
X-266160D02*
D03*
X-257892D02*
D03*
X-249624D02*
D03*
X-241357D02*
D03*
X-233089D02*
D03*
X-224821D02*
D03*
X-216554D02*
D03*
X-208286D02*
D03*
X-200018D02*
D03*
X-192577Y96346D02*
D03*
X-186731Y90500D02*
D03*
X-182235Y83562D02*
D03*
X-187844Y81368D02*
D03*
X-192418Y88255D02*
D03*
X-198264Y94102D02*
D03*
X-206529Y94341D02*
D03*
X-214796D02*
D03*
X-223064D02*
D03*
X-231332D02*
D03*
X-239599D02*
D03*
X-247867D02*
D03*
X-256135D02*
D03*
X-264403D02*
D03*
X-272670D02*
D03*
X-280938D02*
D03*
X-288394Y97913D02*
D03*
X-294241Y103759D02*
D03*
X-298375Y110918D02*
D03*
Y119186D02*
D03*
Y127454D02*
D03*
X-295742Y135291D02*
D03*
X-289896Y141137D02*
D03*
X-282587Y145002D02*
D03*
X-274319D02*
D03*
X-266051D02*
D03*
X-258841Y140956D02*
D03*
X-252995Y135110D02*
D03*
X-247148Y129264D02*
D03*
X-241302Y123418D02*
D03*
X-233488Y120718D02*
D03*
X-225220D02*
D03*
X-216953D02*
D03*
X-208685D02*
D03*
X-200417D02*
D03*
X-192149D02*
D03*
X-183882D02*
D03*
X-175614D02*
D03*
X-167346D02*
D03*
X-159079D02*
D03*
X-150811D02*
D03*
X-142543D02*
D03*
X-134275D02*
D03*
X-126008D02*
D03*
X-117740D02*
D03*
X-109472D02*
D03*
X-101205D02*
D03*
X-92937D02*
D03*
X-84669D02*
D03*
X-76402D02*
D03*
X-68134D02*
D03*
X-60963Y116602D02*
D03*
X-52696Y116486D02*
D03*
X-44429D02*
D03*
X-36161D02*
D03*
X-27893D02*
D03*
X-29366Y118954D02*
D03*
X-37634D02*
D03*
X-45902D02*
D03*
X-54169D02*
D03*
X-60728Y123987D02*
D03*
X-67955Y128003D02*
D03*
X-76223D02*
D03*
X-84491D02*
D03*
X-92758D02*
D03*
X-101026D02*
D03*
X-109294D02*
D03*
X-117561D02*
D03*
X-125829D02*
D03*
X-133185Y131778D02*
D03*
X-155243Y139912D02*
D03*
X-163511D02*
D03*
X-171779D02*
D03*
X-180046D02*
D03*
X-188314D02*
D03*
X-196582D02*
D03*
X-204850D02*
D03*
X-213117D02*
D03*
X-221385D02*
D03*
X-229634Y140466D02*
D03*
X-235546Y146246D02*
D03*
X-241392Y152092D02*
D03*
X-247239Y157938D02*
D03*
X-253085Y163784D02*
D03*
X-258931Y169630D02*
D03*
X-264777Y175476D02*
D03*
X-270557Y181388D02*
D03*
X-271111Y189637D02*
D03*
Y197905D02*
D03*
Y206173D02*
D03*
Y214441D02*
D03*
Y222708D02*
D03*
Y230976D02*
D03*
Y239244D02*
D03*
X-267648Y246751D02*
D03*
X-261802Y252597D02*
D03*
X-254384Y256249D02*
D03*
X-246117D02*
D03*
X-237849D02*
D03*
X-229581D02*
D03*
X-221396Y255086D02*
D03*
X-215550Y249240D02*
D03*
X-209959Y243150D02*
D03*
X-209794Y234883D02*
D03*
Y226616D02*
D03*
Y218348D02*
D03*
Y210080D02*
D03*
Y201813D02*
D03*
Y193545D02*
D03*
X-215403Y191352D02*
D03*
Y199619D02*
D03*
Y207887D02*
D03*
Y216155D02*
D03*
Y224422D02*
D03*
Y232690D02*
D03*
Y240958D02*
D03*
X-221146Y246905D02*
D03*
X-228522Y250641D02*
D03*
X-236790D02*
D03*
X-245057D02*
D03*
X-253325D02*
D03*
X-260287Y246181D02*
D03*
X-265503Y239766D02*
D03*
Y231498D02*
D03*
Y223230D02*
D03*
Y214963D02*
D03*
Y206695D02*
D03*
Y198427D02*
D03*
Y190160D02*
D03*
X-263506Y182137D02*
D03*
X-257659Y176291D02*
D03*
X-251813Y170445D02*
D03*
X-245967Y164598D02*
D03*
X-240121Y158752D02*
D03*
X-234275Y152906D02*
D03*
X-228429Y147060D02*
D03*
X-220305Y145521D02*
D03*
X-212038D02*
D03*
X-203770D02*
D03*
X-195502D02*
D03*
X-187234D02*
D03*
X-178967D02*
D03*
X-170699D02*
D03*
X-154164D02*
D03*
X-131880Y138405D02*
D03*
X-125144Y133611D02*
D03*
X-116876D02*
D03*
X-108608D02*
D03*
X-100341D02*
D03*
X-83805D02*
D03*
X-67270D02*
D03*
X-59526Y130716D02*
D03*
X-53680Y124870D02*
D03*
X-45418Y124562D02*
D03*
X-37150D02*
D03*
X-51671Y131349D02*
D03*
X-65532Y139223D02*
D03*
X-73800D02*
D03*
X-82068D02*
D03*
X-90335D02*
D03*
X-98603D02*
D03*
X-106871D02*
D03*
X-115138D02*
D03*
X-122307Y143342D02*
D03*
X-139846Y160880D02*
D03*
X-145692Y166726D02*
D03*
X-151538Y172572D02*
D03*
X-157384Y178418D02*
D03*
X-163231Y184265D02*
D03*
X-164714Y192398D02*
D03*
Y200666D02*
D03*
Y208933D02*
D03*
Y217201D02*
D03*
Y225469D02*
D03*
Y233737D02*
D03*
Y242004D02*
D03*
Y250272D02*
D03*
Y258540D02*
D03*
Y266808D02*
D03*
Y275075D02*
D03*
Y283343D02*
D03*
X-168354Y290766D02*
D03*
X-174200Y296612D02*
D03*
X-181719Y300050D02*
D03*
X-189987D02*
D03*
X-198255D02*
D03*
X-206522D02*
D03*
X-214790D02*
D03*
X-222898Y298431D02*
D03*
X-223419Y290180D02*
D03*
X-215433Y288041D02*
D03*
X-207165D02*
D03*
X-198897D02*
D03*
X-192086Y283355D02*
D03*
X-186240Y277509D02*
D03*
X-182235Y270275D02*
D03*
Y262008D02*
D03*
Y253740D02*
D03*
Y245472D02*
D03*
Y237205D02*
D03*
Y228937D02*
D03*
Y220669D02*
D03*
X-187844Y226780D02*
D03*
Y235047D02*
D03*
Y243315D02*
D03*
Y251583D02*
D03*
Y259850D02*
D03*
Y268118D02*
D03*
X-191954Y275291D02*
D03*
X-197801Y281138D02*
D03*
X-205966Y282432D02*
D03*
X-214234D02*
D03*
X-222502Y282444D02*
D03*
X-228878Y287707D02*
D03*
X-230363Y295840D02*
D03*
X-226250Y303012D02*
D03*
X-218417Y305659D02*
D03*
X-210149D02*
D03*
X-201882D02*
D03*
X-193614D02*
D03*
X-185346D02*
D03*
X268600Y303930D02*
D03*
X274845Y298511D02*
D03*
X277486Y290677D02*
D03*
X281836Y283646D02*
D03*
X288526Y278789D02*
D03*
X296555Y274902D02*
D03*
X288182Y273180D02*
D03*
X280749Y276801D02*
D03*
X274903Y282647D02*
D03*
X271878Y290341D02*
D03*
X267858Y297566D02*
D03*
X259646Y297835D02*
D03*
X251379Y298405D02*
D03*
X257283Y304331D02*
D03*
X265895Y304013D02*
D03*
X226483Y290130D02*
D03*
X220583Y284338D02*
D03*
X212337Y283737D02*
D03*
X204069D02*
D03*
X195801D02*
D03*
X187534D02*
D03*
X179266D02*
D03*
X170998D02*
D03*
X162730D02*
D03*
X154463D02*
D03*
X146195D02*
D03*
X137927D02*
D03*
X129660D02*
D03*
X121392D02*
D03*
X113124D02*
D03*
X104857D02*
D03*
X96589D02*
D03*
X88321D02*
D03*
X80053D02*
D03*
X71786D02*
D03*
X63518D02*
D03*
X55250D02*
D03*
X46982D02*
D03*
X39408Y280423D02*
D03*
X33562Y274577D02*
D03*
X27716Y268730D02*
D03*
X21870Y262884D02*
D03*
X16024Y257038D02*
D03*
X10178Y251192D02*
D03*
X4332Y245346D02*
D03*
X2509Y237282D02*
D03*
Y229014D02*
D03*
Y220746D02*
D03*
Y212478D02*
D03*
Y204211D02*
D03*
Y195943D02*
D03*
Y187675D02*
D03*
Y179408D02*
D03*
Y171140D02*
D03*
X-3100Y166207D02*
D03*
Y174475D02*
D03*
Y182743D02*
D03*
Y191010D02*
D03*
Y199278D02*
D03*
Y207546D02*
D03*
Y215813D02*
D03*
Y224081D02*
D03*
Y232349D02*
D03*
Y240616D02*
D03*
X-486Y248460D02*
D03*
X5360Y254306D02*
D03*
X11206Y260152D02*
D03*
X17052Y265999D02*
D03*
X22898Y271845D02*
D03*
X28745Y277691D02*
D03*
X34591Y283537D02*
D03*
X40658Y289154D02*
D03*
X48923Y289346D02*
D03*
X57191D02*
D03*
X65459D02*
D03*
X73726D02*
D03*
X81994D02*
D03*
X90262D02*
D03*
X98529D02*
D03*
X106797D02*
D03*
X115065D02*
D03*
X123333D02*
D03*
X131600D02*
D03*
X139868D02*
D03*
X148136D02*
D03*
X156403D02*
D03*
X164671D02*
D03*
X172939D02*
D03*
X181207D02*
D03*
X189474D02*
D03*
X197742D02*
D03*
X206010D02*
D03*
X214277D02*
D03*
X221602Y293180D02*
D03*
X254528Y289173D02*
D03*
X263090Y286811D02*
D03*
X268471Y281211D02*
D03*
X280164Y269519D02*
D03*
X288386Y268651D02*
D03*
X296246Y266087D02*
D03*
X302092Y260240D02*
D03*
X304576Y252355D02*
D03*
Y244087D02*
D03*
Y235819D02*
D03*
Y227552D02*
D03*
Y219284D02*
D03*
Y211016D02*
D03*
Y202748D02*
D03*
Y194481D02*
D03*
Y186213D02*
D03*
Y177945D02*
D03*
Y169678D02*
D03*
Y161410D02*
D03*
Y153142D02*
D03*
Y144874D02*
D03*
X303962Y136630D02*
D03*
X298167Y130732D02*
D03*
X298496Y138993D02*
D03*
X298967Y147248D02*
D03*
Y155515D02*
D03*
Y163783D02*
D03*
Y172051D02*
D03*
Y180318D02*
D03*
Y188586D02*
D03*
Y196854D02*
D03*
Y205122D02*
D03*
Y221657D02*
D03*
Y229925D02*
D03*
Y238193D02*
D03*
Y246460D02*
D03*
Y254728D02*
D03*
X293484Y260916D02*
D03*
X285495Y263042D02*
D03*
X277341Y264410D02*
D03*
X271495Y270256D02*
D03*
X265649Y276102D02*
D03*
X259802Y281948D02*
D03*
X279849Y259906D02*
D03*
X273698Y254381D02*
D03*
X263738Y255823D02*
D03*
X290935Y170184D02*
D03*
X296457Y161614D02*
D03*
X287992Y159744D02*
D03*
X280094Y146408D02*
D03*
X268898Y159153D02*
D03*
X263109Y160385D02*
D03*
X256938Y154882D02*
D03*
Y146614D02*
D03*
Y138347D02*
D03*
Y130079D02*
D03*
Y121811D02*
D03*
Y113543D02*
D03*
Y105276D02*
D03*
Y97008D02*
D03*
Y88740D02*
D03*
X258485Y80619D02*
D03*
X264263Y74705D02*
D03*
X264812Y66456D02*
D03*
Y58188D02*
D03*
Y49920D02*
D03*
Y41653D02*
D03*
Y33385D02*
D03*
Y25117D02*
D03*
Y16850D02*
D03*
X263281Y8725D02*
D03*
X256753Y3652D02*
D03*
X254151Y9261D02*
D03*
X259204Y15805D02*
D03*
Y24073D02*
D03*
Y32341D02*
D03*
Y40609D02*
D03*
Y48876D02*
D03*
Y57144D02*
D03*
Y65412D02*
D03*
X257641Y73531D02*
D03*
X251866Y79447D02*
D03*
X251329Y87697D02*
D03*
Y95965D02*
D03*
Y104233D02*
D03*
Y112500D02*
D03*
Y120768D02*
D03*
Y129036D02*
D03*
Y137303D02*
D03*
Y145571D02*
D03*
Y153839D02*
D03*
X252876Y161961D02*
D03*
X260094Y165994D02*
D03*
X262894Y172244D02*
D03*
X269012Y167291D02*
D03*
X285039Y166732D02*
D03*
X285335Y172343D02*
D03*
X275734Y142682D02*
D03*
X266781Y131967D02*
D03*
Y123699D02*
D03*
Y115431D02*
D03*
Y107164D02*
D03*
Y98896D02*
D03*
Y90628D02*
D03*
X271444Y83801D02*
D03*
X274852Y76268D02*
D03*
Y68001D02*
D03*
Y59733D02*
D03*
Y51465D02*
D03*
Y43198D02*
D03*
Y34930D02*
D03*
Y26662D02*
D03*
Y18394D02*
D03*
X279194Y11359D02*
D03*
X274869Y-3900D02*
D03*
X267419Y-7486D02*
D03*
X259547Y-10039D02*
D03*
X255413Y-5413D02*
D03*
X263146Y-1877D02*
D03*
X271125Y288D02*
D03*
X273672Y8153D02*
D03*
X269282Y15159D02*
D03*
X269243Y23427D02*
D03*
Y31694D02*
D03*
Y39962D02*
D03*
Y48230D02*
D03*
Y56498D02*
D03*
Y64765D02*
D03*
Y73033D02*
D03*
X266486Y80827D02*
D03*
X261196Y87181D02*
D03*
X261172Y95449D02*
D03*
Y103717D02*
D03*
Y111985D02*
D03*
Y120252D02*
D03*
Y128520D02*
D03*
X267575Y142521D02*
D03*
X292270Y108865D02*
D03*
X297939Y102847D02*
D03*
X301969Y95177D02*
D03*
X295177Y95374D02*
D03*
X290850Y102004D02*
D03*
X286662Y109132D02*
D03*
X286567Y117399D02*
D03*
X280118Y117520D02*
D03*
X285533Y101521D02*
D03*
X284252Y93012D02*
D03*
X276870Y94587D02*
D03*
X279924Y103909D02*
D03*
Y112176D02*
D03*
X95892Y93961D02*
D03*
X102136Y88542D02*
D03*
X107983Y82696D02*
D03*
X113829Y76850D02*
D03*
X119675Y71004D02*
D03*
X125498Y65135D02*
D03*
X126230Y56900D02*
D03*
Y48632D02*
D03*
Y40365D02*
D03*
X122958Y32772D02*
D03*
X117112Y26926D02*
D03*
X111266Y21079D02*
D03*
X103205Y19243D02*
D03*
X94937D02*
D03*
X86669D02*
D03*
X78606Y21070D02*
D03*
X72760Y26916D02*
D03*
X68062Y33719D02*
D03*
X73671Y35913D02*
D03*
X78445Y29163D02*
D03*
X85499Y24852D02*
D03*
X93767D02*
D03*
X102035D02*
D03*
X109838Y27584D02*
D03*
X115684Y33430D02*
D03*
X120621Y40062D02*
D03*
Y48330D02*
D03*
Y56597D02*
D03*
X118234Y64513D02*
D03*
X112388Y70359D02*
D03*
X106541Y76205D02*
D03*
X100695Y82051D02*
D03*
X94849Y87897D02*
D03*
X86599Y88436D02*
D03*
X78331D02*
D03*
X70064D02*
D03*
X61796D02*
D03*
X53528D02*
D03*
X45260D02*
D03*
X36993D02*
D03*
X30810Y82947D02*
D03*
X24964Y77100D02*
D03*
X19118Y71254D02*
D03*
X15600Y63772D02*
D03*
Y55505D02*
D03*
Y47237D02*
D03*
Y38969D02*
D03*
X12883Y31161D02*
D03*
X7036Y25315D02*
D03*
X1190Y19468D02*
D03*
X-8514Y6310D02*
D03*
X-12823Y-746D02*
D03*
X-18669Y-6592D02*
D03*
X-24516Y-12438D02*
D03*
X-30362Y-18284D02*
D03*
X-32137Y-26359D02*
D03*
Y-34627D02*
D03*
Y-42895D02*
D03*
Y-51162D02*
D03*
Y-59430D02*
D03*
Y-67698D02*
D03*
Y-75965D02*
D03*
Y-84233D02*
D03*
Y-92501D02*
D03*
Y-100769D02*
D03*
Y-109036D02*
D03*
X-31991Y-117303D02*
D03*
X-27491Y-26084D02*
D03*
X-21645Y-20238D02*
D03*
X-15799Y-14392D02*
D03*
X-9953Y-8546D02*
D03*
X-1426Y5122D02*
D03*
X3536Y11734D02*
D03*
X9382Y17581D02*
D03*
X15228Y23427D02*
D03*
X22049Y28100D02*
D03*
X30317D02*
D03*
X38584D02*
D03*
X46833Y28654D02*
D03*
X50837Y35887D02*
D03*
X46946Y43182D02*
D03*
X38698Y43751D02*
D03*
X30742Y46000D02*
D03*
X24973Y51922D02*
D03*
X24459Y60174D02*
D03*
X25870Y68320D02*
D03*
X31716Y74167D02*
D03*
X37563Y80013D02*
D03*
X44856Y83907D02*
D03*
X53123D02*
D03*
X61391D02*
D03*
X69659D02*
D03*
X77927D02*
D03*
X86082Y82549D02*
D03*
X89714Y75122D02*
D03*
X85639Y67928D02*
D03*
X77406Y67176D02*
D03*
X69138D02*
D03*
X60870D02*
D03*
X52649Y66301D02*
D03*
X58800Y60777D02*
D03*
X67068D02*
D03*
X75335Y60671D02*
D03*
X81537Y55204D02*
D03*
X88078Y50147D02*
D03*
X95530Y53728D02*
D03*
X95621Y61995D02*
D03*
X101230Y64188D02*
D03*
Y55921D02*
D03*
X98031Y48297D02*
D03*
X90667Y44538D02*
D03*
X82575Y46235D02*
D03*
X76729Y52081D02*
D03*
X69059Y55168D02*
D03*
X60791D02*
D03*
X52524Y55214D02*
D03*
X46414Y60784D02*
D03*
X47408Y68992D02*
D03*
X54754Y72785D02*
D03*
X63022D02*
D03*
X71290D02*
D03*
X79557D02*
D03*
X73396Y78298D02*
D03*
X65129D02*
D03*
X56861D02*
D03*
X48593D02*
D03*
X40859Y75377D02*
D03*
X35013Y69531D02*
D03*
X30068Y62905D02*
D03*
Y54637D02*
D03*
X36432Y49360D02*
D03*
X44700D02*
D03*
X52194Y45867D02*
D03*
X56446Y38776D02*
D03*
X56220Y30512D02*
D03*
X50579Y24467D02*
D03*
X42551Y22491D02*
D03*
X34283D02*
D03*
X26016D02*
D03*
X18590Y18856D02*
D03*
X12744Y13010D02*
D03*
X6898Y7164D02*
D03*
X4182Y-645D02*
D03*
X-753Y-7278D02*
D03*
X-6599Y-13124D02*
D03*
X-12445Y-18971D02*
D03*
X-18292Y-24817D02*
D03*
X-24138Y-30663D02*
D03*
X-25247Y-38856D02*
D03*
Y-47124D02*
D03*
Y-55391D02*
D03*
Y-63659D02*
D03*
Y-71927D02*
D03*
Y-80194D02*
D03*
Y-88462D02*
D03*
Y-96730D02*
D03*
Y-104998D02*
D03*
Y-113265D02*
D03*
X-18330Y-31982D02*
D03*
X-12484Y-26136D02*
D03*
X-6638Y-20290D02*
D03*
X-792Y-14444D02*
D03*
X5054Y-8598D02*
D03*
X10901Y-2752D02*
D03*
X16747Y3095D02*
D03*
X22593Y8941D02*
D03*
X28518Y14706D02*
D03*
X36771Y15206D02*
D03*
X45039D02*
D03*
X53306D02*
D03*
X61574D02*
D03*
X69842D02*
D03*
X78110D02*
D03*
X86377D02*
D03*
X94645D02*
D03*
X102913D02*
D03*
X111180D02*
D03*
X119448D02*
D03*
X127716D02*
D03*
X135984D02*
D03*
X144251D02*
D03*
X152519D02*
D03*
X159150Y10268D02*
D03*
X164997Y4422D02*
D03*
X170843Y-1424D02*
D03*
X182535Y-13116D02*
D03*
X188381Y-18962D02*
D03*
X194227Y-24809D02*
D03*
X196997Y-32599D02*
D03*
X195770Y-40775D02*
D03*
X189924Y-46621D02*
D03*
X181786Y-48080D02*
D03*
X174556Y-52091D02*
D03*
X177755Y-59715D02*
D03*
X185977Y-60581D02*
D03*
X194245D02*
D03*
X202513D02*
D03*
X210781D02*
D03*
X217538Y-65344D02*
D03*
X225347Y-68062D02*
D03*
X233615D02*
D03*
X226988Y-73671D02*
D03*
X218720Y-73596D02*
D03*
X212459Y-68197D02*
D03*
X204439Y-66190D02*
D03*
X196171D02*
D03*
X187903D02*
D03*
X179636D02*
D03*
X172364Y-62255D02*
D03*
X168948Y-54727D02*
D03*
X171510Y-46866D02*
D03*
X178513Y-42471D02*
D03*
X186758Y-41855D02*
D03*
X191389Y-35006D02*
D03*
X188681Y-27194D02*
D03*
X182834Y-21348D02*
D03*
X176988Y-15502D02*
D03*
X171142Y-9655D02*
D03*
X165296Y-3809D02*
D03*
X159450Y2037D02*
D03*
X145516Y9597D02*
D03*
X137248D02*
D03*
X128980D02*
D03*
X120713D02*
D03*
X112445D02*
D03*
X104177D02*
D03*
X95909D02*
D03*
X87642D02*
D03*
X79374D02*
D03*
X71106D02*
D03*
X62839D02*
D03*
X54571D02*
D03*
X46303D02*
D03*
X38036D02*
D03*
X29872Y8288D02*
D03*
X24026Y2442D02*
D03*
X18180Y-3404D02*
D03*
X12334Y-9251D02*
D03*
X6487Y-15097D02*
D03*
X641Y-20943D02*
D03*
X-5205Y-26789D02*
D03*
X-11051Y-32635D02*
D03*
X-16897Y-38481D02*
D03*
X-18454Y-46601D02*
D03*
Y-54869D02*
D03*
Y-63137D02*
D03*
Y-71404D02*
D03*
Y-79672D02*
D03*
Y-87940D02*
D03*
Y-96207D02*
D03*
Y-104475D02*
D03*
X-15819Y-46696D02*
D03*
X-9973Y-40849D02*
D03*
X1719Y-29157D02*
D03*
X7566Y-23311D02*
D03*
X13412Y-17465D02*
D03*
X19258Y-11619D02*
D03*
X25104Y-5772D02*
D03*
X30950Y74D02*
D03*
X38605Y3198D02*
D03*
X46873D02*
D03*
X55140D02*
D03*
X63408D02*
D03*
X71676D02*
D03*
X79943D02*
D03*
X88211D02*
D03*
X96479D02*
D03*
X104747D02*
D03*
X113014D02*
D03*
X121282D02*
D03*
X129550Y3135D02*
D03*
X135832Y-2240D02*
D03*
X141678Y-8086D02*
D03*
X153370Y-19778D02*
D03*
X159038Y-25798D02*
D03*
X159300Y-34061D02*
D03*
Y-42329D02*
D03*
Y-50596D02*
D03*
Y-58864D02*
D03*
Y-67132D02*
D03*
Y-75400D02*
D03*
Y-83667D02*
D03*
Y-91935D02*
D03*
Y-100203D02*
D03*
X161914Y-108046D02*
D03*
X169348Y-111664D02*
D03*
X177318Y-109464D02*
D03*
X182530Y-103047D02*
D03*
Y-94779D02*
D03*
Y-86511D02*
D03*
X187207Y-79693D02*
D03*
X193550Y-74391D02*
D03*
X201818Y-74361D02*
D03*
X209205Y-78074D02*
D03*
X214957Y-84013D02*
D03*
X208672Y-85473D02*
D03*
X202502Y-79970D02*
D03*
X194257Y-80575D02*
D03*
X188411Y-86422D02*
D03*
X188139Y-94685D02*
D03*
Y-102952D02*
D03*
X184392Y-110322D02*
D03*
X178546Y-116168D02*
D03*
X170352Y-117273D02*
D03*
X162152Y-116217D02*
D03*
X156306Y-110370D02*
D03*
X153692Y-102527D02*
D03*
Y-94259D02*
D03*
Y-85991D02*
D03*
Y-77724D02*
D03*
Y-69456D02*
D03*
Y-61188D02*
D03*
Y-52921D02*
D03*
Y-44653D02*
D03*
Y-36385D02*
D03*
Y-28117D02*
D03*
X147889Y-22229D02*
D03*
X142042Y-16382D02*
D03*
X136196Y-10536D02*
D03*
X122403Y-2411D02*
D03*
X114135D02*
D03*
X105867D02*
D03*
X97600D02*
D03*
X89332D02*
D03*
X81064D02*
D03*
X72797D02*
D03*
X64529D02*
D03*
X56261D02*
D03*
X47993D02*
D03*
X39726D02*
D03*
X32457Y-6351D02*
D03*
X26611Y-12197D02*
D03*
X20765Y-18043D02*
D03*
X14919Y-23889D02*
D03*
X9073Y-29736D02*
D03*
X3227Y-35582D02*
D03*
X-2620Y-41428D02*
D03*
X-8466Y-47274D02*
D03*
X-11663Y-54899D02*
D03*
Y-63166D02*
D03*
Y-71434D02*
D03*
Y-79702D02*
D03*
Y-87970D02*
D03*
Y-96237D02*
D03*
Y-104505D02*
D03*
X-6478Y-105062D02*
D03*
X-2411Y-97864D02*
D03*
Y-89596D02*
D03*
Y-81328D02*
D03*
Y-73060D02*
D03*
Y-64793D02*
D03*
Y-56525D02*
D03*
X984Y-48987D02*
D03*
X12677Y-37294D02*
D03*
X18588Y-31514D02*
D03*
X26837Y-30955D02*
D03*
X33975Y-35127D02*
D03*
X37253Y-42717D02*
D03*
X36216Y-50919D02*
D03*
X30370Y-56766D02*
D03*
X24523Y-62612D02*
D03*
X20029Y-69551D02*
D03*
Y-77819D02*
D03*
Y-86086D02*
D03*
X23661Y-93514D02*
D03*
X31727Y-95326D02*
D03*
X39995D02*
D03*
X46408Y-90108D02*
D03*
Y-81840D02*
D03*
Y-73572D02*
D03*
Y-65304D02*
D03*
Y-57037D02*
D03*
Y-48769D02*
D03*
Y-40501D02*
D03*
Y-32234D02*
D03*
Y-23966D02*
D03*
Y-15698D02*
D03*
X51284Y-9021D02*
D03*
X59491Y-8022D02*
D03*
X66912Y-11667D02*
D03*
X69241Y-19600D02*
D03*
Y-27868D02*
D03*
Y-36135D02*
D03*
Y-44403D02*
D03*
Y-52671D02*
D03*
Y-60938D02*
D03*
Y-69206D02*
D03*
X72502Y-76804D02*
D03*
X78981Y-81940D02*
D03*
X87249D02*
D03*
X95516D02*
D03*
X103783Y-82046D02*
D03*
X109860Y-87652D02*
D03*
X109669Y-95917D02*
D03*
X103334Y-101230D02*
D03*
X95066D02*
D03*
X86798D02*
D03*
X78531D02*
D03*
X84714Y-95621D02*
D03*
X92982D02*
D03*
X101250D02*
D03*
X99463Y-87549D02*
D03*
X91195D02*
D03*
X82928D02*
D03*
X74689Y-86858D02*
D03*
X68810Y-81044D02*
D03*
X63633Y-74598D02*
D03*
Y-66331D02*
D03*
Y-58063D02*
D03*
Y-49795D02*
D03*
Y-41528D02*
D03*
Y-33260D02*
D03*
Y-24992D02*
D03*
Y-16725D02*
D03*
X55965Y-13631D02*
D03*
X52017Y-20895D02*
D03*
Y-29163D02*
D03*
Y-37431D02*
D03*
Y-45698D02*
D03*
Y-53966D02*
D03*
Y-62234D02*
D03*
Y-70501D02*
D03*
Y-78769D02*
D03*
Y-87037D02*
D03*
X51336Y-95276D02*
D03*
X45196Y-100813D02*
D03*
X36929Y-100934D02*
D03*
X28662D02*
D03*
X20750Y-98535D02*
D03*
X14971Y-92622D02*
D03*
X14420Y-84373D02*
D03*
Y-76105D02*
D03*
Y-67837D02*
D03*
X18536Y-60667D02*
D03*
X24383Y-54821D02*
D03*
X30229Y-48975D02*
D03*
X31644Y-40829D02*
D03*
X24562Y-36564D02*
D03*
X17331Y-40572D02*
D03*
X11484Y-46419D02*
D03*
X5638Y-52265D02*
D03*
X3198Y-60164D02*
D03*
Y-68432D02*
D03*
Y-76700D02*
D03*
Y-84967D02*
D03*
Y-93235D02*
D03*
Y-101503D02*
D03*
X-1670Y-108186D02*
D03*
X4374Y-111837D02*
D03*
X12433Y-109991D02*
D03*
X20700D02*
D03*
X28968D02*
D03*
X37236D02*
D03*
X45504D02*
D03*
X53771D02*
D03*
X62039D02*
D03*
X70307D02*
D03*
X78574D02*
D03*
X86842D02*
D03*
X95110D02*
D03*
X103378D02*
D03*
X111645D02*
D03*
X119913D02*
D03*
X128166Y-109502D02*
D03*
X134012Y-103656D02*
D03*
X138140Y-96492D02*
D03*
Y-88225D02*
D03*
Y-79957D02*
D03*
Y-71689D02*
D03*
Y-63421D02*
D03*
Y-55154D02*
D03*
Y-46886D02*
D03*
Y-38618D02*
D03*
X135558Y-30764D02*
D03*
X129712Y-24918D02*
D03*
X123866Y-19072D02*
D03*
X115894Y-16879D02*
D03*
X107626D02*
D03*
X99359D02*
D03*
X91091D02*
D03*
X85875Y-23294D02*
D03*
X89575Y-30688D02*
D03*
X97775Y-31743D02*
D03*
X106043D02*
D03*
X114311D02*
D03*
X122497Y-32901D02*
D03*
X128343Y-38747D02*
D03*
X129773Y-46890D02*
D03*
Y-55158D02*
D03*
Y-63425D02*
D03*
Y-71693D02*
D03*
X124678Y-78205D02*
D03*
X116457Y-79084D02*
D03*
X109877Y-74079D02*
D03*
X108613Y-65908D02*
D03*
Y-57641D02*
D03*
X104547Y-50442D02*
D03*
X96286Y-50790D02*
D03*
X92667Y-58223D02*
D03*
X87288Y-63298D02*
D03*
X87058Y-55034D02*
D03*
X91242Y-47903D02*
D03*
X98918Y-44833D02*
D03*
X107176Y-45245D02*
D03*
X113123Y-50988D02*
D03*
X114222Y-59182D02*
D03*
Y-67450D02*
D03*
X119883Y-73475D02*
D03*
X124164Y-66402D02*
D03*
Y-58135D02*
D03*
Y-49867D02*
D03*
X123308Y-41644D02*
D03*
X116241Y-37352D02*
D03*
X107973D02*
D03*
X99706D02*
D03*
X91438D02*
D03*
X84240Y-33285D02*
D03*
X80266Y-26034D02*
D03*
X81084Y-17807D02*
D03*
X86955Y-11986D02*
D03*
X95192Y-11270D02*
D03*
X103459D02*
D03*
X111727D02*
D03*
X119995D02*
D03*
X127489Y-14763D02*
D03*
X133335Y-20609D02*
D03*
X139181Y-26455D02*
D03*
X143749Y-33346D02*
D03*
Y-41614D02*
D03*
Y-49882D02*
D03*
Y-58149D02*
D03*
Y-66417D02*
D03*
Y-74685D02*
D03*
Y-82952D02*
D03*
Y-91220D02*
D03*
Y-99488D02*
D03*
X139205Y-106395D02*
D03*
X133359Y-112241D02*
D03*
X125804Y-115600D02*
D03*
X117536D02*
D03*
X109269D02*
D03*
X101001D02*
D03*
X92733D02*
D03*
X84466D02*
D03*
X76198D02*
D03*
X67930D02*
D03*
X59662D02*
D03*
X51395D02*
D03*
X43127D02*
D03*
X34859D02*
D03*
X26592D02*
D03*
X18324D02*
D03*
X3503Y-120640D02*
D03*
X10265Y-165306D02*
D03*
X18532D02*
D03*
X26800D02*
D03*
X35068D02*
D03*
X43336D02*
D03*
X51603D02*
D03*
X59871D02*
D03*
X68139D02*
D03*
X76406D02*
D03*
X84674D02*
D03*
X92942D02*
D03*
X101209D02*
D03*
X109477D02*
D03*
X117745D02*
D03*
X126013D02*
D03*
X134280D02*
D03*
X142548D02*
D03*
X150816D02*
D03*
X159083D02*
D03*
X167351D02*
D03*
X175619D02*
D03*
X183887D02*
D03*
X192154D02*
D03*
X200422D02*
D03*
X208690D02*
D03*
X216635Y-167591D02*
D03*
X219340Y-175404D02*
D03*
X215345Y-182642D02*
D03*
X207105Y-183316D02*
D03*
X198837D02*
D03*
X190569D02*
D03*
X182302D02*
D03*
X174034D02*
D03*
X165766D02*
D03*
X157499D02*
D03*
X140963D02*
D03*
X132695D02*
D03*
X124550Y-184731D02*
D03*
X130564Y-190404D02*
D03*
X138832D02*
D03*
X147099D02*
D03*
X155367D02*
D03*
X163635D02*
D03*
X171903D02*
D03*
X180170D02*
D03*
X188438D02*
D03*
X196706D02*
D03*
X204973D02*
D03*
X213241D02*
D03*
X221508Y-190551D02*
D03*
X227631Y-196106D02*
D03*
X233477Y-201952D02*
D03*
X231062Y-207469D02*
D03*
X225216Y-201623D02*
D03*
X219143Y-196013D02*
D03*
X210875D02*
D03*
X202608D02*
D03*
X194340D02*
D03*
X186072D02*
D03*
X177805D02*
D03*
X169537D02*
D03*
X161269D02*
D03*
X153001D02*
D03*
X144734D02*
D03*
X136466D02*
D03*
X128198D02*
D03*
X120594Y-192769D02*
D03*
X118849Y-184687D02*
D03*
X123692Y-177986D02*
D03*
X131955Y-177707D02*
D03*
X140223D02*
D03*
X148490D02*
D03*
X156758D02*
D03*
X165026D02*
D03*
X173293D02*
D03*
X181561D02*
D03*
X189829D02*
D03*
X198097D02*
D03*
X206364D02*
D03*
X213731Y-173954D02*
D03*
X206043Y-170915D02*
D03*
X197775D02*
D03*
X189507D02*
D03*
X181239D02*
D03*
X172972D02*
D03*
X164704D02*
D03*
X156436D02*
D03*
X148169D02*
D03*
X139901D02*
D03*
X131633D02*
D03*
X123365D02*
D03*
X115098D02*
D03*
X106830D02*
D03*
X98562D02*
D03*
X90295D02*
D03*
X82027D02*
D03*
X73759D02*
D03*
X65491D02*
D03*
X57224D02*
D03*
X48956D02*
D03*
X40688D02*
D03*
X32421D02*
D03*
X24153D02*
D03*
X15885D02*
D03*
X7617D02*
D03*
X689Y-170177D02*
D03*
X-709Y-177018D02*
D03*
X7559Y-177018D02*
D03*
X15827D02*
D03*
X24095D02*
D03*
X32362D02*
D03*
X40630D02*
D03*
X48898D02*
D03*
X57165D02*
D03*
X65433D02*
D03*
X73701D02*
D03*
X81969D02*
D03*
X90236D02*
D03*
X97143Y-181563D02*
D03*
X102989Y-187409D02*
D03*
X108835Y-193255D02*
D03*
X114681Y-199101D02*
D03*
X120528Y-204947D02*
D03*
X128779Y-205463D02*
D03*
X137047D02*
D03*
X145315D02*
D03*
X153582D02*
D03*
X161850D02*
D03*
X170118D02*
D03*
X178385D02*
D03*
X186653D02*
D03*
X194003Y-209249D02*
D03*
X196551Y-217114D02*
D03*
X192498Y-224321D02*
D03*
X184753Y-227214D02*
D03*
X176485D02*
D03*
X168218D02*
D03*
X163237Y-233813D02*
D03*
X170025Y-238534D02*
D03*
X178292D02*
D03*
X186560D02*
D03*
X194480Y-240908D02*
D03*
X197982Y-248397D02*
D03*
X195364Y-256240D02*
D03*
X187724Y-259399D02*
D03*
X179456D02*
D03*
X171188D02*
D03*
X162921D02*
D03*
X161343Y-267515D02*
D03*
X169406Y-269341D02*
D03*
X177674D02*
D03*
X185942D02*
D03*
X194209D02*
D03*
X202477D02*
D03*
X209794Y-265492D02*
D03*
Y-257225D02*
D03*
Y-248957D02*
D03*
X215403Y-246763D02*
D03*
Y-255031D02*
D03*
Y-263299D02*
D03*
X212904Y-271180D02*
D03*
X205546Y-274950D02*
D03*
X197278D02*
D03*
X189011D02*
D03*
X180743D02*
D03*
X172475D02*
D03*
X164207D02*
D03*
X156928Y-271031D02*
D03*
X154578Y-263105D02*
D03*
X158381Y-255764D02*
D03*
X166410Y-253790D02*
D03*
X174677D02*
D03*
X182945D02*
D03*
X191120Y-252552D02*
D03*
X190001Y-244361D02*
D03*
X181736Y-244143D02*
D03*
X173468D02*
D03*
X165201Y-244054D02*
D03*
X158968Y-238623D02*
D03*
X157629Y-230464D02*
D03*
X162214Y-223584D02*
D03*
X170241Y-221605D02*
D03*
X178509D02*
D03*
X186776D02*
D03*
X190942Y-214463D02*
D03*
X183402Y-211072D02*
D03*
X175134D02*
D03*
X166866D02*
D03*
X158599D02*
D03*
X150331D02*
D03*
X142063D02*
D03*
X125528D02*
D03*
X117371Y-209723D02*
D03*
X111525Y-203877D02*
D03*
X105679Y-198030D02*
D03*
X99832Y-192184D02*
D03*
X93986Y-186338D02*
D03*
X86598Y-182627D02*
D03*
X78330D02*
D03*
X70063D02*
D03*
X61795D02*
D03*
X53527D02*
D03*
X45260D02*
D03*
X36992D02*
D03*
X28724D02*
D03*
X20457D02*
D03*
X12189D02*
D03*
X3921D02*
D03*
X-4256Y-181403D02*
D03*
X-9252Y-176476D02*
D03*
X1456Y-187353D02*
D03*
X9510Y-189223D02*
D03*
X17777D02*
D03*
X26045D02*
D03*
X34313D02*
D03*
X42580D02*
D03*
X50848D02*
D03*
X59116D02*
D03*
X67383D02*
D03*
X75276Y-191684D02*
D03*
X78789Y-199169D02*
D03*
X77114Y-207265D02*
D03*
X70052Y-211564D02*
D03*
X61784D02*
D03*
X53516D02*
D03*
X45249D02*
D03*
X36981D02*
D03*
X28713D02*
D03*
X20606Y-213183D02*
D03*
X22126Y-221310D02*
D03*
X30392Y-221507D02*
D03*
X38659D02*
D03*
X46927D02*
D03*
X55195D02*
D03*
X63462D02*
D03*
X71730D02*
D03*
X79998D02*
D03*
X87788Y-224275D02*
D03*
X93634Y-230121D02*
D03*
X99481Y-235967D02*
D03*
X102411Y-243699D02*
D03*
Y-251966D02*
D03*
X102002Y-260224D02*
D03*
X96259Y-266172D02*
D03*
X89110Y-270324D02*
D03*
X80842D02*
D03*
X72574D02*
D03*
X64307D02*
D03*
X56039D02*
D03*
X47771D02*
D03*
X39504D02*
D03*
X31236D02*
D03*
X22988Y-269747D02*
D03*
X17082Y-263961D02*
D03*
X14617Y-256070D02*
D03*
Y-247802D02*
D03*
X18953Y-240762D02*
D03*
X26485Y-237353D02*
D03*
X34753D02*
D03*
X43020D02*
D03*
X51288D02*
D03*
X59556D02*
D03*
X61749Y-242962D02*
D03*
X53481D02*
D03*
X45214D02*
D03*
X36946D02*
D03*
X28678D02*
D03*
X21187Y-246460D02*
D03*
X20226Y-254672D02*
D03*
X23370Y-262318D02*
D03*
X31283Y-264715D02*
D03*
X39551D02*
D03*
X47818D02*
D03*
X56086D02*
D03*
X64354D02*
D03*
X72622D02*
D03*
X80889D02*
D03*
X89157D02*
D03*
X95308Y-259191D02*
D03*
X96802Y-251059D02*
D03*
Y-242792D02*
D03*
X91794Y-236213D02*
D03*
X85948Y-230367D02*
D03*
X78347Y-227115D02*
D03*
X70079D02*
D03*
X61811D02*
D03*
X53543D02*
D03*
X45276D02*
D03*
X37008D02*
D03*
X28740D02*
D03*
X20474Y-226979D02*
D03*
X14454Y-221312D02*
D03*
X14125Y-213051D02*
D03*
X19318Y-206618D02*
D03*
X27560Y-205956D02*
D03*
X35827D02*
D03*
X44095D02*
D03*
X52363D02*
D03*
X60630D02*
D03*
X68898D02*
D03*
X73180Y-198883D02*
D03*
X65973Y-194832D02*
D03*
X57705D02*
D03*
X49437D02*
D03*
X41170D02*
D03*
X32902D02*
D03*
X24634D02*
D03*
X16366D02*
D03*
X8099D02*
D03*
X-96Y-193733D02*
D03*
X-5942Y-187886D02*
D03*
X-11788Y-182040D02*
D03*
X-15945Y-176575D02*
D03*
X-16631Y-182470D02*
D03*
X-12722Y-189755D02*
D03*
X-6876Y-195602D02*
D03*
X-1029Y-201448D02*
D03*
X3198Y-208553D02*
D03*
Y-216821D02*
D03*
Y-225088D02*
D03*
Y-233356D02*
D03*
Y-241624D02*
D03*
Y-249891D02*
D03*
X2937Y-258155D02*
D03*
X-2729Y-264176D02*
D03*
X-8575Y-270022D02*
D03*
X-12353Y-277376D02*
D03*
Y-285644D02*
D03*
X-8302Y-292850D02*
D03*
X-1527Y-297589D02*
D03*
X6741D02*
D03*
X13714Y-293147D02*
D03*
X19560Y-287301D02*
D03*
X27625Y-285483D02*
D03*
X35893D02*
D03*
X43402Y-288944D02*
D03*
X49248Y-294790D02*
D03*
X57062Y-297491D02*
D03*
X65329D02*
D03*
X73597D02*
D03*
X81865D02*
D03*
X90133D02*
D03*
X98400D02*
D03*
X106668D02*
D03*
X114936D02*
D03*
X122787Y-294900D02*
D03*
X128633Y-289054D02*
D03*
X134479Y-283208D02*
D03*
X138830Y-276177D02*
D03*
X136518Y-268239D02*
D03*
X128950Y-264911D02*
D03*
X121136Y-262208D02*
D03*
X116979Y-255062D02*
D03*
X118238Y-246890D02*
D03*
X124541Y-241539D02*
D03*
X132808Y-241487D02*
D03*
X139322Y-236395D02*
D03*
X138840Y-228141D02*
D03*
X131390Y-224556D02*
D03*
X123123D02*
D03*
X114855D02*
D03*
X106589Y-224399D02*
D03*
X110454Y-218948D02*
D03*
X118721D02*
D03*
X126989D02*
D03*
X135257D02*
D03*
X142148Y-223516D02*
D03*
X144930Y-231302D02*
D03*
X144582Y-239562D02*
D03*
X138855Y-245524D02*
D03*
X130738Y-247096D02*
D03*
X123014Y-250046D02*
D03*
X124945Y-258085D02*
D03*
X133123Y-259302D02*
D03*
X140040Y-263830D02*
D03*
X144438Y-270831D02*
D03*
Y-279099D02*
D03*
X139727Y-285893D02*
D03*
X133881Y-291739D02*
D03*
X128035Y-297585D02*
D03*
X121798Y-303012D02*
D03*
X113531Y-303100D02*
D03*
X105263D02*
D03*
X96995D02*
D03*
X88727D02*
D03*
X80460D02*
D03*
X72192D02*
D03*
X63924D02*
D03*
X55657D02*
D03*
X47633Y-301107D02*
D03*
X41787Y-295260D02*
D03*
X34647Y-291092D02*
D03*
X26379D02*
D03*
X19349Y-295444D02*
D03*
X13503Y-301290D02*
D03*
X5459Y-303198D02*
D03*
X-2809D02*
D03*
X-9988Y-299096D02*
D03*
X-15834Y-293250D02*
D03*
X-17962Y-285261D02*
D03*
Y-276993D02*
D03*
X-15566Y-269080D02*
D03*
X-9720Y-263234D02*
D03*
X-2411Y-249251D02*
D03*
Y-240983D02*
D03*
Y-232716D02*
D03*
Y-224448D02*
D03*
Y-216180D02*
D03*
X-2496Y-207913D02*
D03*
X-8343Y-202067D02*
D03*
X-14189Y-196221D02*
D03*
X-20035Y-190374D02*
D03*
X-22240Y-182406D02*
D03*
Y-174138D02*
D03*
X-27740Y-170829D02*
D03*
X-27904Y-179095D02*
D03*
Y-187363D02*
D03*
Y-195631D02*
D03*
Y-203899D02*
D03*
Y-212166D02*
D03*
Y-220434D02*
D03*
Y-228702D02*
D03*
Y-236969D02*
D03*
Y-245237D02*
D03*
Y-253505D02*
D03*
Y-261772D02*
D03*
Y-270040D02*
D03*
X-31428Y-285787D02*
D03*
X-37274Y-291634D02*
D03*
X-43599Y-296957D02*
D03*
X-51867Y-296997D02*
D03*
X-60135D02*
D03*
X-68402D02*
D03*
X-76670D02*
D03*
X-84938D02*
D03*
X-93205D02*
D03*
X-101473D02*
D03*
X-109741D02*
D03*
X-118008D02*
D03*
X-126276D02*
D03*
X-134544D02*
D03*
X-142812D02*
D03*
X-151079D02*
D03*
X-159347D02*
D03*
X-167300Y-294737D02*
D03*
X-173146Y-288891D02*
D03*
X-174458Y-280728D02*
D03*
X-172763Y-272636D02*
D03*
X-166917Y-266790D02*
D03*
X-158889Y-264814D02*
D03*
X-150621D02*
D03*
X-142353D02*
D03*
X-125818D02*
D03*
X-117550D02*
D03*
X-109283D02*
D03*
X-101015D02*
D03*
X-92747D02*
D03*
X-84479D02*
D03*
X-76212D02*
D03*
X-67944D02*
D03*
X-59676D02*
D03*
X-52789Y-260240D02*
D03*
X-51033Y-252161D02*
D03*
X-54951Y-244881D02*
D03*
X-62993Y-242962D02*
D03*
X-56847Y-237353D02*
D03*
X-49965Y-241935D02*
D03*
X-45424Y-248844D02*
D03*
Y-257112D02*
D03*
X-49123Y-264506D02*
D03*
X-55147Y-270168D02*
D03*
X-63411Y-270423D02*
D03*
X-71679D02*
D03*
X-79947D02*
D03*
X-88214D02*
D03*
X-96482D02*
D03*
X-104750D02*
D03*
X-113017D02*
D03*
X-121285D02*
D03*
X-129553D02*
D03*
X-137821D02*
D03*
X-154356D02*
D03*
X-162624Y-270428D02*
D03*
X-168849Y-284534D02*
D03*
X-163375Y-290730D02*
D03*
X-155134Y-291389D02*
D03*
X-146866D02*
D03*
X-138599D02*
D03*
X-130331D02*
D03*
X-122063D02*
D03*
X-113795D02*
D03*
X-105528D02*
D03*
X-97260D02*
D03*
X-88992D02*
D03*
X-80725D02*
D03*
X-72457D02*
D03*
X-64189D02*
D03*
X-55921D02*
D03*
X-47654D02*
D03*
X-40618Y-287046D02*
D03*
X-34772Y-281200D02*
D03*
X-33513Y-273029D02*
D03*
Y-264761D02*
D03*
Y-256493D02*
D03*
Y-248225D02*
D03*
Y-239958D02*
D03*
Y-231690D02*
D03*
Y-223422D02*
D03*
Y-215155D02*
D03*
Y-206887D02*
D03*
Y-198619D02*
D03*
Y-190351D02*
D03*
Y-182084D02*
D03*
Y-173816D02*
D03*
X-30836Y-165994D02*
D03*
X-38010Y-169971D02*
D03*
X-44094Y-175569D02*
D03*
X-52360Y-175737D02*
D03*
X-60628D02*
D03*
X-68896D02*
D03*
X-77163D02*
D03*
X-85431D02*
D03*
X-93699D02*
D03*
X-101967D02*
D03*
X-110234D02*
D03*
X-118502D02*
D03*
X-126770D02*
D03*
X-135037D02*
D03*
X-137225Y-183710D02*
D03*
X-129195Y-185680D02*
D03*
X-120928D02*
D03*
X-112660D02*
D03*
X-104392D02*
D03*
X-96125D02*
D03*
X-87857D02*
D03*
X-79589D02*
D03*
X-71321D02*
D03*
X-63054D02*
D03*
X-55445Y-188915D02*
D03*
X-52904Y-196783D02*
D03*
X-55926Y-204479D02*
D03*
X-63755Y-207135D02*
D03*
X-72023D02*
D03*
X-80291D02*
D03*
X-88558D02*
D03*
X-96826D02*
D03*
X-105094D02*
D03*
X-113362D02*
D03*
X-121629D02*
D03*
X-129897D02*
D03*
X-136621Y-211945D02*
D03*
X-139322Y-219760D02*
D03*
Y-228027D02*
D03*
X-135815Y-235515D02*
D03*
X-127802Y-237550D02*
D03*
X-119534D02*
D03*
X-111266D02*
D03*
X-102998D02*
D03*
X-94731D02*
D03*
X-88707Y-231887D02*
D03*
X-82861Y-226041D02*
D03*
X-75705Y-221900D02*
D03*
X-67437D02*
D03*
X-59169D02*
D03*
X-52172Y-217497D02*
D03*
X-46655Y-219912D02*
D03*
X-52501Y-225758D02*
D03*
X-60581Y-227509D02*
D03*
X-68849D02*
D03*
X-77088Y-228199D02*
D03*
X-82934Y-234045D02*
D03*
X-88780Y-239892D02*
D03*
X-96375Y-243159D02*
D03*
X-104642D02*
D03*
X-112910D02*
D03*
X-121178D02*
D03*
X-129446D02*
D03*
X-137580Y-241681D02*
D03*
X-143426Y-235835D02*
D03*
X-144930Y-227705D02*
D03*
Y-219438D02*
D03*
X-143849Y-211241D02*
D03*
X-138002Y-205395D02*
D03*
X-130695Y-201526D02*
D03*
X-122428D02*
D03*
X-114160D02*
D03*
X-105892D02*
D03*
X-97625D02*
D03*
X-89357D02*
D03*
X-81089D02*
D03*
X-72821D02*
D03*
X-64554D02*
D03*
X-58513Y-195881D02*
D03*
X-65388Y-191289D02*
D03*
X-73655D02*
D03*
X-81923D02*
D03*
X-90191D02*
D03*
X-98458D02*
D03*
X-106726D02*
D03*
X-114994D02*
D03*
X-123262D02*
D03*
X-131529D02*
D03*
X-139557Y-189311D02*
D03*
X-143356Y-181967D02*
D03*
X-141628Y-173882D02*
D03*
X-125993Y-170129D02*
D03*
X-117726D02*
D03*
X-109458D02*
D03*
X-101190D02*
D03*
X-92922D02*
D03*
X-84655D02*
D03*
X-76387D02*
D03*
X-68119D02*
D03*
X-59852D02*
D03*
X-51584D02*
D03*
X-43679Y-167707D02*
D03*
X-37832Y-161861D02*
D03*
X-39639Y-157562D02*
D03*
X-47502Y-160116D02*
D03*
X-55761Y-160504D02*
D03*
X-64029D02*
D03*
X-72296D02*
D03*
X-80564D02*
D03*
X-88832D02*
D03*
X-97099D02*
D03*
X-105367D02*
D03*
X-113635D02*
D03*
X-121903D02*
D03*
X-130170D02*
D03*
X-138438D02*
D03*
X-154796Y-162207D02*
D03*
X-155463Y-170448D02*
D03*
Y-178715D02*
D03*
Y-186983D02*
D03*
Y-195251D02*
D03*
Y-203519D02*
D03*
Y-211786D02*
D03*
X-157934Y-219676D02*
D03*
X-163781Y-225522D02*
D03*
X-169627Y-231368D02*
D03*
X-177782Y-232726D02*
D03*
X-186050D02*
D03*
X-194318D02*
D03*
X-200748Y-227529D02*
D03*
X-206594Y-221683D02*
D03*
X-212337Y-215735D02*
D03*
X-212745Y-207477D02*
D03*
Y-199210D02*
D03*
Y-190942D02*
D03*
X-215790Y-183255D02*
D03*
X-221636Y-177409D02*
D03*
X-228853Y-173375D02*
D03*
X-237120D02*
D03*
X-245369Y-173941D02*
D03*
X-251215Y-179787D02*
D03*
X-255956Y-186561D02*
D03*
Y-194828D02*
D03*
Y-203096D02*
D03*
Y-211364D02*
D03*
Y-219632D02*
D03*
Y-227899D02*
D03*
X-253999Y-235932D02*
D03*
X-248153Y-241778D02*
D03*
X-242307Y-247625D02*
D03*
X-234345Y-249853D02*
D03*
X-226080Y-249673D02*
D03*
X-220233Y-243827D02*
D03*
X-220598Y-252123D02*
D03*
X-228162Y-255462D02*
D03*
X-236429D02*
D03*
X-244442Y-253422D02*
D03*
X-250288Y-247576D02*
D03*
X-256134Y-241730D02*
D03*
X-261504Y-235443D02*
D03*
X-261564Y-227176D02*
D03*
Y-218908D02*
D03*
Y-210640D02*
D03*
Y-202373D02*
D03*
Y-194105D02*
D03*
Y-185837D02*
D03*
X-257824Y-178464D02*
D03*
X-251977Y-172618D02*
D03*
X-245283Y-167766D02*
D03*
X-237015D02*
D03*
X-228747D02*
D03*
X-220862Y-170251D02*
D03*
X-215016Y-176097D02*
D03*
X-209169Y-181943D02*
D03*
X-207137Y-189957D02*
D03*
Y-198225D02*
D03*
Y-206493D02*
D03*
X-205709Y-214636D02*
D03*
X-199863Y-220482D02*
D03*
X-194017Y-226328D02*
D03*
X-185786Y-227117D02*
D03*
X-177519D02*
D03*
X-169959Y-223769D02*
D03*
X-164113Y-217923D02*
D03*
X-161072Y-210235D02*
D03*
Y-201967D02*
D03*
Y-193699D02*
D03*
Y-185432D02*
D03*
Y-177164D02*
D03*
Y-168896D02*
D03*
X-160807Y-160633D02*
D03*
X-154758Y-154996D02*
D03*
X-146491Y-154896D02*
D03*
X-138224D02*
D03*
X-129956D02*
D03*
X-121688D02*
D03*
X-113420D02*
D03*
X-105153D02*
D03*
X-96885D02*
D03*
X-88617D02*
D03*
X-80350D02*
D03*
X-72082D02*
D03*
X-63814D02*
D03*
X-55546D02*
D03*
X-47312Y-154157D02*
D03*
X-39449Y-151602D02*
D03*
X-39763Y-147829D02*
D03*
X-47861Y-146164D02*
D03*
X-55797Y-143848D02*
D03*
X-64065D02*
D03*
X-72333D02*
D03*
X-80601D02*
D03*
X-88868D02*
D03*
X-97136D02*
D03*
X-105404D02*
D03*
X-113671D02*
D03*
X-121939D02*
D03*
X-130207D02*
D03*
X-138475D02*
D03*
X-155010D02*
D03*
X-163278D02*
D03*
X-169738Y-138688D02*
D03*
X-170422Y-130449D02*
D03*
X-166699Y-123067D02*
D03*
X-159318Y-119341D02*
D03*
X-151050D02*
D03*
X-143372Y-116276D02*
D03*
X-137526Y-110430D02*
D03*
X-131679Y-104584D02*
D03*
X-127608Y-97388D02*
D03*
X-129166Y-89269D02*
D03*
X-137065Y-86829D02*
D03*
X-143407Y-81524D02*
D03*
X-144635Y-73348D02*
D03*
X-140518Y-66178D02*
D03*
X-133350Y-62058D02*
D03*
X-125082D02*
D03*
X-118334Y-57281D02*
D03*
X-113730Y-50415D02*
D03*
Y-42147D02*
D03*
Y-33879D02*
D03*
Y-25611D02*
D03*
Y-17344D02*
D03*
Y-9076D02*
D03*
Y-808D02*
D03*
X-108134Y13647D02*
D03*
X-100077Y15501D02*
D03*
X-91809D02*
D03*
X-83541D02*
D03*
X-75279Y15793D02*
D03*
X-74550Y24029D02*
D03*
X-82742Y25148D02*
D03*
X-90743Y27230D02*
D03*
X-94635Y34524D02*
D03*
X-92545Y42523D02*
D03*
X-85096Y46112D02*
D03*
X-83893Y40503D02*
D03*
X-89026Y34022D02*
D03*
X-81431Y30757D02*
D03*
X-73172Y30368D02*
D03*
X-67515Y24338D02*
D03*
X-67546Y16071D02*
D03*
X-73326Y10159D02*
D03*
X-81590Y9893D02*
D03*
X-89858D02*
D03*
X-98125D02*
D03*
X-106108Y7741D02*
D03*
X-108121Y-278D02*
D03*
Y-8546D02*
D03*
Y-16814D02*
D03*
Y-25081D02*
D03*
Y-33349D02*
D03*
Y-41617D02*
D03*
Y-49884D02*
D03*
X-110820Y-57699D02*
D03*
X-116666Y-63545D02*
D03*
X-123833Y-67667D02*
D03*
X-132101D02*
D03*
X-138850Y-72442D02*
D03*
X-136601Y-80398D02*
D03*
X-128496Y-82029D02*
D03*
X-122675Y-87900D02*
D03*
X-121999Y-96140D02*
D03*
X-123444Y-104280D02*
D03*
X-129291Y-110127D02*
D03*
X-135137Y-115973D02*
D03*
X-140983Y-121819D02*
D03*
X-148635Y-124950D02*
D03*
X-156903D02*
D03*
X-164314Y-128614D02*
D03*
X-155550Y-138239D02*
D03*
X-147283D02*
D03*
X-139015D02*
D03*
X-130747D02*
D03*
X-122479D02*
D03*
X-114212D02*
D03*
X-105944D02*
D03*
X-97676D02*
D03*
X-89409D02*
D03*
X-81141D02*
D03*
X-72873D02*
D03*
X-64606D02*
D03*
X-56338D02*
D03*
X-48073Y-138448D02*
D03*
X-40716Y-142221D02*
D03*
X-46326Y-134412D02*
D03*
X-53361Y-130068D02*
D03*
X-61629D02*
D03*
X-69896D02*
D03*
X-78164D02*
D03*
X-86432D02*
D03*
X-94699D02*
D03*
X-102967D02*
D03*
X-109938Y-125623D02*
D03*
X-114615Y-118805D02*
D03*
Y-110538D02*
D03*
Y-102270D02*
D03*
Y-94002D02*
D03*
Y-85734D02*
D03*
Y-77467D02*
D03*
X-110678Y-70197D02*
D03*
X-104832Y-64350D02*
D03*
X-101328Y-56862D02*
D03*
Y-48594D02*
D03*
Y-40327D02*
D03*
Y-32059D02*
D03*
Y-23791D02*
D03*
Y-15524D02*
D03*
Y-7256D02*
D03*
X-98309Y441D02*
D03*
X-90447Y3001D02*
D03*
X-83047Y-684D02*
D03*
X-80955Y-8683D02*
D03*
Y-16951D02*
D03*
Y-25219D02*
D03*
Y-33486D02*
D03*
Y-41754D02*
D03*
Y-50022D02*
D03*
Y-58289D02*
D03*
Y-66557D02*
D03*
X-84974Y-73783D02*
D03*
X-90820Y-79629D02*
D03*
X-94243Y-87155D02*
D03*
Y-95423D02*
D03*
X-93925Y-103684D02*
D03*
X-88079Y-109530D02*
D03*
X-80207Y-112058D02*
D03*
X-71939D02*
D03*
X-63798Y-110619D02*
D03*
X-59497Y-103558D02*
D03*
Y-95290D02*
D03*
X-64812Y-88957D02*
D03*
X-72726Y-86564D02*
D03*
X-80471Y-89457D02*
D03*
X-82060Y-99858D02*
D03*
X-86171Y-92685D02*
D03*
X-83731Y-84785D02*
D03*
X-76404Y-80955D02*
D03*
X-68136D02*
D03*
X-60894Y-84943D02*
D03*
X-55048Y-90790D02*
D03*
X-53888Y-98975D02*
D03*
Y-107243D02*
D03*
X-58993Y-113747D02*
D03*
X-66273Y-117667D02*
D03*
X-74541D02*
D03*
X-82808D02*
D03*
X-90610Y-114931D02*
D03*
X-96456Y-109084D02*
D03*
X-99852Y-101546D02*
D03*
Y-93278D02*
D03*
Y-85011D02*
D03*
X-96553Y-77429D02*
D03*
X-90707Y-71583D02*
D03*
X-86564Y-64428D02*
D03*
Y-56161D02*
D03*
Y-47893D02*
D03*
Y-39625D02*
D03*
Y-31357D02*
D03*
Y-23090D02*
D03*
Y-14822D02*
D03*
Y-6554D02*
D03*
X-94199Y-3381D02*
D03*
X-95719Y-11508D02*
D03*
Y-19776D02*
D03*
Y-28043D02*
D03*
Y-36311D02*
D03*
Y-44579D02*
D03*
Y-52846D02*
D03*
Y-61114D02*
D03*
X-100447Y-67897D02*
D03*
X-106293Y-73743D02*
D03*
X-109007Y-81553D02*
D03*
Y-89820D02*
D03*
Y-98088D02*
D03*
Y-106356D02*
D03*
Y-114624D02*
D03*
X-105512Y-122116D02*
D03*
X-97583Y-124459D02*
D03*
X-89316D02*
D03*
X-81048D02*
D03*
X-72780D02*
D03*
X-64512D02*
D03*
X-56245D02*
D03*
X-47993Y-124968D02*
D03*
X-42070Y-130736D02*
D03*
X-34194Y-131725D02*
D03*
X-40040Y-125878D02*
D03*
X-45886Y-120032D02*
D03*
X-48375Y-112148D02*
D03*
Y-103880D02*
D03*
Y-95613D02*
D03*
X-49340Y-87401D02*
D03*
X-55186Y-81555D02*
D03*
X-61032Y-75709D02*
D03*
X-66879Y-69863D02*
D03*
X-72725Y-64017D02*
D03*
X-76131Y-56483D02*
D03*
Y-48216D02*
D03*
Y-39948D02*
D03*
Y-31680D02*
D03*
Y-23413D02*
D03*
Y-15145D02*
D03*
X-67637Y-1467D02*
D03*
X-61791Y4380D02*
D03*
X-61171Y12624D02*
D03*
Y20892D02*
D03*
Y29160D02*
D03*
Y37427D02*
D03*
X-55974Y43858D02*
D03*
X-49848Y49410D02*
D03*
X-41582Y49556D02*
D03*
X-33314D02*
D03*
X-25047D02*
D03*
X-16779D02*
D03*
X-8511D02*
D03*
X-907Y46310D02*
D03*
X1328Y38350D02*
D03*
X-3425Y31585D02*
D03*
X-11641Y30660D02*
D03*
X-19908D02*
D03*
X-28176D02*
D03*
X-36444D02*
D03*
X-42176Y24702D02*
D03*
X-38923Y17101D02*
D03*
X-30672Y16577D02*
D03*
X-24361Y11235D02*
D03*
X-24276Y2968D02*
D03*
X-30386Y-2603D02*
D03*
X-38653Y-2706D02*
D03*
X-46641Y-4839D02*
D03*
X-52487Y-10685D02*
D03*
X-56054Y-18144D02*
D03*
Y-26411D02*
D03*
Y-34679D02*
D03*
Y-42947D02*
D03*
Y-51214D02*
D03*
X-51865Y-58342D02*
D03*
X-46019Y-64189D02*
D03*
X-54634Y-63505D02*
D03*
X-60480Y-57659D02*
D03*
X-61663Y-49476D02*
D03*
Y-41208D02*
D03*
Y-32941D02*
D03*
Y-24673D02*
D03*
Y-16405D02*
D03*
X-58500Y-8766D02*
D03*
X-52654Y-2920D02*
D03*
X-46592Y2702D02*
D03*
X-38327Y2903D02*
D03*
X-30259Y4711D02*
D03*
X-35655Y10975D02*
D03*
X-43459Y13705D02*
D03*
X-47785Y20751D02*
D03*
X-47567Y29016D02*
D03*
X-41932Y35065D02*
D03*
X-33752Y36269D02*
D03*
X-25485D02*
D03*
X-17217D02*
D03*
X-8949D02*
D03*
X-12014Y43948D02*
D03*
X-20282D02*
D03*
X-28549D02*
D03*
X-36817D02*
D03*
X-45085D02*
D03*
X-52186Y39714D02*
D03*
X-55562Y32167D02*
D03*
Y23899D02*
D03*
Y15631D02*
D03*
Y7364D02*
D03*
X-58574Y-336D02*
D03*
X-64421Y-6182D02*
D03*
X-70267Y-12028D02*
D03*
X-70522Y-20292D02*
D03*
Y-28559D02*
D03*
Y-36827D02*
D03*
Y-45095D02*
D03*
Y-53363D02*
D03*
X-67682Y-61127D02*
D03*
X-61836Y-66973D02*
D03*
X-55990Y-72820D02*
D03*
X-50144Y-78666D02*
D03*
X-44298Y-84512D02*
D03*
X-42766Y-92637D02*
D03*
Y-100904D02*
D03*
Y-109172D02*
D03*
X-40788Y-117199D02*
D03*
X-34941Y-123045D02*
D03*
X-37745Y-115053D02*
D03*
Y-106785D02*
D03*
Y-98517D02*
D03*
Y-90250D02*
D03*
Y-81982D02*
D03*
Y-65446D02*
D03*
Y-57179D02*
D03*
Y-48911D02*
D03*
Y-40643D02*
D03*
Y-32376D02*
D03*
Y-24108D02*
D03*
X-36029Y-16020D02*
D03*
X-30183Y-10174D02*
D03*
X-24337Y-4328D02*
D03*
X-18491Y1518D02*
D03*
X-14123Y8538D02*
D03*
X-10327Y15883D02*
D03*
X-4481Y21729D02*
D03*
X1365Y27575D02*
D03*
X9991Y41208D02*
D03*
Y49475D02*
D03*
Y57743D02*
D03*
Y66011D02*
D03*
X13451Y73520D02*
D03*
X19297Y79366D02*
D03*
X25144Y85212D02*
D03*
X30990Y91058D02*
D03*
X38699Y94045D02*
D03*
X46967D02*
D03*
X55235D02*
D03*
X63502D02*
D03*
X71770D02*
D03*
X80038D02*
D03*
X88305D02*
D03*
X292176Y73823D02*
D03*
Y65556D02*
D03*
X288830Y57995D02*
D03*
X285088Y50623D02*
D03*
Y42355D02*
D03*
Y34087D02*
D03*
Y25820D02*
D03*
X285883Y17590D02*
D03*
X291730Y11744D02*
D03*
X297576Y5898D02*
D03*
X303403Y33D02*
D03*
X304147Y-8201D02*
D03*
Y-16469D02*
D03*
Y-24737D02*
D03*
Y-33005D02*
D03*
Y-41272D02*
D03*
X299592Y-48173D02*
D03*
X293746Y-54019D02*
D03*
X287900Y-59865D02*
D03*
X287038Y-68088D02*
D03*
X280279Y-84680D02*
D03*
X274295Y-90385D02*
D03*
X266034Y-90699D02*
D03*
X258377Y-93818D02*
D03*
X252531Y-99664D02*
D03*
X246685Y-105510D02*
D03*
X238737Y-119352D02*
D03*
Y-127620D02*
D03*
X236309Y-135733D02*
D03*
X233128Y-128101D02*
D03*
Y-119834D02*
D03*
X233273Y-111567D02*
D03*
X238823Y-105439D02*
D03*
X244669Y-99593D02*
D03*
X250515Y-93747D02*
D03*
X256362Y-87901D02*
D03*
X264137Y-85090D02*
D03*
X272392Y-84636D02*
D03*
X278238Y-78790D02*
D03*
X281429Y-71163D02*
D03*
Y-62895D02*
D03*
X284581Y-55252D02*
D03*
X290427Y-49406D02*
D03*
X296274Y-43560D02*
D03*
X298538Y-35608D02*
D03*
Y-27340D02*
D03*
Y-19072D02*
D03*
Y-10805D02*
D03*
X298091Y-2549D02*
D03*
X292245Y3297D02*
D03*
X286399Y9143D02*
D03*
X280553Y14989D02*
D03*
X279479Y23187D02*
D03*
Y31455D02*
D03*
Y39722D02*
D03*
Y47990D02*
D03*
X279647Y56256D02*
D03*
X285244Y62341D02*
D03*
X234055Y-24016D02*
D03*
X227803Y-29617D02*
D03*
X228711Y-37835D02*
D03*
X234557Y-43681D02*
D03*
X240403Y-49527D02*
D03*
X246249Y-55374D02*
D03*
X252095Y-61220D02*
D03*
X255855Y-68583D02*
D03*
Y-76850D02*
D03*
X251552Y-83910D02*
D03*
X245706Y-89756D02*
D03*
X239860Y-95602D02*
D03*
X234014Y-101448D02*
D03*
X228168Y-107294D02*
D03*
X222321Y-113141D02*
D03*
X216475Y-118987D02*
D03*
X210629Y-124833D02*
D03*
X204783Y-130679D02*
D03*
X198937Y-136525D02*
D03*
X193091Y-142371D02*
D03*
X185043Y-144267D02*
D03*
X176775D02*
D03*
X168508D02*
D03*
X160240D02*
D03*
X151972D02*
D03*
X143704D02*
D03*
X127169D02*
D03*
X118901D02*
D03*
X110634D02*
D03*
X102366D02*
D03*
X94098D02*
D03*
X85831D02*
D03*
X77563D02*
D03*
X69295D02*
D03*
X61027D02*
D03*
X52760D02*
D03*
X44492D02*
D03*
X36224D02*
D03*
X27957D02*
D03*
X23077Y-138658D02*
D03*
X31345D02*
D03*
X39612D02*
D03*
X47880D02*
D03*
X56148D02*
D03*
X64416D02*
D03*
X72683D02*
D03*
X80951D02*
D03*
X89219D02*
D03*
X97486D02*
D03*
X105754D02*
D03*
X114022D02*
D03*
X122290D02*
D03*
X130557D02*
D03*
X138825D02*
D03*
X155360D02*
D03*
X163628D02*
D03*
X171896D02*
D03*
X180164D02*
D03*
X188431D02*
D03*
X194494Y-133037D02*
D03*
X200340Y-127190D02*
D03*
X206186Y-121344D02*
D03*
X212032Y-115498D02*
D03*
X217878Y-109652D02*
D03*
X223724Y-103806D02*
D03*
X229571Y-97960D02*
D03*
X235417Y-92114D02*
D03*
X241263Y-86267D02*
D03*
X247109Y-80421D02*
D03*
X250247Y-72772D02*
D03*
X247814Y-64870D02*
D03*
X241968Y-59024D02*
D03*
X236122Y-53178D02*
D03*
X230275Y-47332D02*
D03*
X224429Y-41486D02*
D03*
X221999Y-33583D02*
D03*
X223942Y-25547D02*
D03*
X229134Y-19390D02*
D03*
X235634Y-13855D02*
D03*
X-3642Y-173031D02*
D03*
D17*
X299213Y-299213D02*
D03*
X-299213D02*
D03*
X299213Y299213D02*
D03*
X-299213D02*
D03*
D18*
X281273Y149213D02*
D03*
X282283Y-100689D02*
D03*
Y-103543D02*
D03*
Y-106398D02*
D03*
Y-109350D02*
D03*
X308268Y-199705D02*
D03*
X284744Y-188583D02*
D03*
X297342Y-197933D02*
D03*
X299803Y-194980D02*
D03*
X301083Y-188976D02*
D03*
X296063Y-194980D02*
D03*
X301083Y-185531D02*
D03*
X301378Y-181398D02*
D03*
X297146Y-206638D02*
D03*
X283022Y-197097D02*
D03*
X296752Y-190453D02*
D03*
X227950Y-283366D02*
D03*
X233760Y-285138D02*
D03*
X304331Y-157677D02*
D03*
X281594Y-171063D02*
D03*
X280709Y-174016D02*
D03*
X283957Y-174114D02*
D03*
X287205D02*
D03*
X284055Y-168799D02*
D03*
X294390Y-5709D02*
D03*
X293307Y-18898D02*
D03*
X295534Y76596D02*
D03*
X305807Y38780D02*
D03*
Y19193D02*
D03*
X302736Y34017D02*
D03*
X229823Y1772D02*
D03*
X196161Y298228D02*
D03*
X194488Y303051D02*
D03*
X282480Y-190748D02*
D03*
X284449Y-194095D02*
D03*
X283760Y-200787D02*
D03*
X293406Y163189D02*
D03*
X281299Y255315D02*
D03*
X290978Y-243081D02*
D03*
X290480Y-171053D02*
D03*
Y-173983D02*
D03*
X304972Y-97871D02*
D03*
X297124Y-209200D02*
D03*
X299627Y-148369D02*
D03*
X282729Y114984D02*
D03*
X273887Y145633D02*
D03*
X303346Y-129156D02*
D03*
Y-126673D02*
D03*
X265061Y-146577D02*
D03*
X287698Y-134449D02*
D03*
X300926Y18739D02*
D03*
X300445Y37948D02*
D03*
X279053Y-222118D02*
D03*
X281454Y-219486D02*
D03*
X293307Y-220563D02*
D03*
X240966Y-280934D02*
D03*
X230965Y-280903D02*
D03*
X284967Y-272298D02*
D03*
X302736Y54247D02*
D03*
X293917Y34110D02*
D03*
X300952Y121286D02*
D03*
X297988Y54144D02*
D03*
X301108Y125341D02*
D03*
X281082Y77715D02*
D03*
X295570Y72327D02*
D03*
X239965Y288943D02*
D03*
X236920Y298326D02*
D03*
X286365Y-260013D02*
D03*
X292125Y-259787D02*
D03*
X293205Y-266311D02*
D03*
X287604Y-264865D02*
D03*
X284584Y-266027D02*
D03*
X294379Y-94193D02*
D03*
X253359Y-146464D02*
D03*
X288486Y-146676D02*
D03*
X289470Y-143920D02*
D03*
X287797Y-137325D02*
D03*
X141240Y-123130D02*
D03*
X142618Y-128642D02*
D03*
X142913Y-156496D02*
D03*
X140453Y-158563D02*
D03*
X286126Y-225998D02*
D03*
X229331Y281496D02*
D03*
X231988Y279823D02*
D03*
X234941Y281496D02*
D03*
X240846Y283563D02*
D03*
X293406Y275984D02*
D03*
X298524Y-109744D02*
D03*
X296555Y-107677D02*
D03*
X294587Y-109941D02*
D03*
X294291Y-105709D02*
D03*
X292224Y-103642D02*
D03*
X288976Y-103051D02*
D03*
X289862Y-105807D02*
D03*
X297146Y-142618D02*
D03*
X289862Y-132185D02*
D03*
X300113Y-136030D02*
D03*
X280413Y-157677D02*
D03*
X293012Y-167913D02*
D03*
X278576Y120339D02*
D03*
M02*
