M48
;Layer_Color=9474304
;FILE_FORMAT=2:4
INCH
;TYPE=PLATED
T1F00S00C0.0098
T2F00S00C0.0315
T3F00S00C0.0354
T4F00S00C0.1260
%
T01
X027756Y-030906
X028917Y-031086
X028402Y-029700
X029582Y-028479
X028809Y-027589
X028497Y-027230
X028458Y-026603
X028760Y-026487
X028637Y-026001
X029212Y-025979
X029320Y-026631
X027771Y-026531
X027736Y-024281
X027746Y-023278
X027764Y-022614
X027905Y-022212
X028145Y-021949
X028613Y-022600
X029331Y-022056
X030531Y-022057
Y-022411
X030906Y-022638
X030886Y-021388
X030531Y-020945
X029712Y-020920
X027764Y-021039
X029098Y-024308
X030906Y-024213
X030906Y-025787
X030906Y-027362
X031035Y-028867
X027106Y-027790
X025787Y-027756
X024213Y-027756
X024097Y-028093
X023097Y-028090
X022795Y-028337
X023376Y-028514
X022518Y-027785
X021063Y-027756
X019488Y-027756
X017913Y-027756
X016339Y-027756
X014764Y-027756
X014764Y-026378
X014764Y-024804
X014764Y-023229
X014764Y-021654
X013583Y-021260
X013583Y-022638
X013583Y-023819
X013583Y-025591
X013583Y-027166
X013189Y-027756
X011614Y-027756
X012008Y-030906
X013583Y-030906
X015158Y-030906
X016732Y-030906
X018307Y-030906
X019882Y-030906
X021457Y-030906
X023032Y-030906
X024606Y-030906
X026181Y-030906
X010433Y-030906
X008858Y-030906
X007284Y-030906
X005709Y-030906
X004134Y-030906
X002559Y-030906
X000984Y-030906
X-000591Y-030906
X-002165Y-030906
X-003740Y-030906
X-002559Y-027756
X-000984Y-027756
X000591Y-027756
X000591Y-026378
X000591Y-024803
X000591Y-023229
X000590Y-021654
X-000591Y-022441
X-000591Y-024016
X-000591Y-025591
X-000591Y-020866
X002165Y-027756
X003740Y-027756
X005315Y-027756
X006890Y-027756
X008465Y-027756
X010039Y-027756
X-004134Y-027756
X-005709Y-027756
X-007283Y-027756
X-008858Y-027756
X-010433Y-027756
X-012008Y-027756
X-013583Y-027756
X-013583Y-026379
X-013583Y-024804
X-013583Y-023229
X-013583Y-021654
X-014764Y-022441
X-014764Y-020867
X-014764Y-024016
X-014764Y-025591
X-014764Y-027166
X-015157Y-027756
X-016732Y-027756
X-018307Y-027756
X-017913Y-030906
X-019488Y-030906
X-016339Y-030906
X-014764Y-030906
X-013189Y-030906
X-011614Y-030906
X-010039Y-030906
X-008465Y-030906
X-006890Y-030906
X-005315Y-030906
X-021063Y-030906
X-022638Y-030906
X-024213Y-030906
X-025787Y-030906
X-027362Y-030906
X-028858Y-031033
X-028435Y-029692
X-029525Y-028446
X-031085Y-028904
X-030906Y-027756
X-030906Y-026181
X-030906Y-024606
X-030906Y-023032
X-030906Y-021457
X-027756Y-021063
X-027756Y-022638
X-027756Y-024213
X-027756Y-025787
X-027756Y-027756
X-026181Y-027756
X-024606Y-027756
X-023031Y-027756
X-021457Y-027756
X-019882Y-027756
X-020079Y-014764
X-021653Y-014764
X-023228Y-014764
X-024803Y-014764
X-026378Y-014764
X-027756Y-014764
X-027756Y-016339
X-027756Y-017913
X-027756Y-019488
X-030906Y-019882
X-030906Y-018307
X-030906Y-016732
X-030906Y-015158
X-030906Y-013583
X-030906Y-012008
X-030906Y-010433
X-030906Y-008858
X-030906Y-007284
X-030906Y-005709
X-027756Y-005315
X-027756Y-006890
X-027756Y-008465
X-027756Y-010039
X-027756Y-011614
X-027756Y-013189
X-027165Y-013583
X-025590Y-013583
X-024016Y-013583
X-022441Y-013583
X-020866Y-013583
X-019291Y-013583
X-018897Y-014764
X-016929Y-014764
X-015354Y-014764
X-014764Y-014567
X-013779Y-014764
X-013583Y-015355
X-013583Y-016930
X-013583Y-018111
X-014764Y-017717
X-014764Y-019292
X-013583Y-020079
X-014764Y-016142
X-014567Y-013583
X-014764Y-012992
X-014764Y-011418
X-014764Y-009843
X-014764Y-008268
X-014764Y-006693
X-014764Y-005118
X-013583Y-005906
X-013583Y-007481
X-013583Y-009055
X-013583Y-010630
X-013583Y-012205
X-013583Y-013780
X-012992Y-013583
X-011417Y-013583
X-009842Y-013583
X-008267Y-013583
X-006693Y-013583
X-005118Y-013583
X-004331Y-014764
X-005905Y-014764
X-007480Y-014764
X-009055Y-014764
X-010630Y-014764
X-012205Y-014764
X-016142Y-013583
X-017716Y-013583
X-003622Y-013533
X-002614Y-014177
X-000349Y-014172
Y-014521
X000000
X000000Y-014173
X000350Y-014172
Y-014521
Y-013823
X000000
X-000349
X000291Y-012947
X000320Y-012386
X-000207Y-011762
X000590Y-010630
X000590Y-009055
X000590Y-007480
X000590Y-005906
X-000591Y-006693
X-000591Y-005118
X-000591Y-008268
X-000591Y-009843
X001644Y-013761
X001910Y-014508
X001969Y-014764
X003544Y-014764
X005118Y-014764
X006693Y-014764
X008268Y-014764
X009843Y-014764
X011418Y-014764
X010630Y-013583
X009055Y-013583
X007481Y-013583
X005906Y-013583
X004331Y-013583
X002854
X000228Y-015531
X000314Y-016077
X-000236Y-016772
X000590Y-018504
X000590Y-020079
X-000591Y-019292
X013583Y-019882
X014764Y-020079
X014764Y-018504
X014764Y-017520
X013583Y-017717
X013583Y-016142
X014045Y-015856
X014291Y-015650
X014764Y-015355
X014567Y-014764
X014764Y-013780
X015355Y-013583
X016929Y-013583
X018504Y-013583
X019292Y-014764
X020866Y-014764
X020689Y-013593
X021654Y-013583
X023229Y-013583
X024990Y-013614
X024555Y-014372
X025054Y-014771
X025336Y-014646
X025959Y-014336
X026506Y-014658
X026831Y-013760
X023858Y-014764
X022441Y-014764
X017717Y-014764
X016142Y-014764
X013583Y-014567
X012992Y-014764
X012205Y-013583
X013780Y-013583
X013582Y-013043
X014262Y-012864
X014124Y-012313
X014764Y-012205
X014764Y-010630
X014764Y-009055
X014764Y-007481
X014764Y-005906
X013583Y-006693
X013583Y-008268
X013583Y-009843
X013583Y-011418
X013583Y-005118
X027756Y-005984
X027756Y-007559
X027756Y-009134
X028228Y-010069
Y-010354
Y-010640
Y-010935
X027746Y-010974
Y-011604
X027776Y-013130
Y-013760
X027461Y-014390
X028947Y-014392
X028849Y-014668
X029705Y-014569
X029715Y-014262
X030023Y-014466
X029963Y-014837
X030011Y-013603
X030335Y-012916
Y-012667
X030915Y-013445
X031122Y-014626
X031093Y-015758
X030433Y-015768
X031132Y-016890
X031093Y-018287
X030138Y-018140
X030108Y-018553
Y-018898
X029675Y-019045
X029606Y-019498
X029980
X029734Y-019793
X029715Y-020664
X030591Y-020315
X030827Y-019970
X030906Y-019488
X028445Y-019409
X028302Y-019710
X028376Y-020079
X028248Y-019075
X028474Y-018858
X027764Y-019464
X027743Y-018151
X028071Y-017402
X028396Y-017411
X028720
X029048Y-017398
Y-017105
X029301Y-016791
X028406Y-016880
X028159Y-017106
X027746Y-016929
Y-015600
X028041Y-015768
X028780Y-013733
X028770Y-013445
X028986Y-013218
Y-010581
X028898Y-010305
X029222Y-010364
X029429Y-010571
X029656Y-010768
X029852Y-010974
X029459Y-010994
X029438Y-009419
X029388Y-008208
Y-007193
X030906Y-006890
X030906Y-005315
X030906Y-008465
X030906Y-010039
X030497Y-009787
X031126Y-011868
X030906Y-003740
X030906Y-002165
X030906Y-000591
X029439Y-000571
X029331Y-001890
X027756Y-001260
X027756Y-002835
X027756Y-004409
X028150Y000315
X027756Y001890
X027756Y003465
X027756Y005039
X027756Y006614
X028108Y007771
X027722Y008315
X027722Y009890
X030906Y010433
X030906Y008858
X030906Y007283
X029557Y007233
X029553Y007660
X029799Y005414
X030274Y005425
X030878Y005391
X030906Y005709
X031037Y004380
X030581Y003878
X030045Y003795
X030274Y003402
X031012Y003357
X029392Y003411
X030093Y001874
X030581Y001919
X030906Y000984
X026378Y000591
X024410Y000591
X023228Y000591
X022982Y000177
X022441Y-000591
X020866
X019291Y-000590
X017717Y-000590
X016142Y-000590
X014567Y-000590
X014764Y-001181
X014764Y000394
X015354Y000591
X016929Y000591
X018701Y000591
X020079Y000591
X021654Y000591
X025039Y-000591
X012992Y-000590
X012205Y000591
X013780Y000591
X014764Y001968
X014764Y003543
X014764Y005118
X014764Y006693
X014764Y008268
X014764Y009842
X013582Y009055
X013582Y007480
X013582Y005905
X013582Y004331
X013582Y002756
X013583Y-001969
X013583Y-003544
X014764Y-004331
X011417Y-000590
X009843Y-000590
X008268Y-000590
X006693Y-000590
X005118Y-000590
X003543Y-000590
X001969Y-000590
X000394Y-000590
X000590Y000394
X001181Y000591
X002756Y000591
X004331Y000591
X005906Y000591
X007480Y000591
X009055Y000591
X010630Y000591
X-000394Y000591
X-000591Y001181
X-000591Y002756
X-000591Y004035
X000590Y003543
X000590Y001968
X000590Y005118
X000590Y006693
X000590Y008268
X000590Y009842
X-000591Y009055
X-000591Y007480
X-000591Y005905
X-000591Y-000394
X-001181Y-000590
X-002756Y-000590
X-003543Y000591
X-001968Y000591
X000548Y-001832
X000590Y-004331
X-000591Y-003543
X-004331Y-000590
X-005905Y-000590
X-007480Y-000590
X-009055Y-000590
X-010630Y-000590
X-012205Y-000590
X-013779Y-000590
X-013583Y-001181
X-013583Y-002756
X-013583Y-004331
X-014764Y-003937
X-014764Y-001969
X-014764Y-000394
X-015354Y-000590
X-016929Y-000590
X-018504Y-000590
X-019291Y000591
X-017716Y000591
X-016142Y000591
X-014567Y000591
X-014764Y001181
X-014764Y002756
X-014764Y004331
X-014764Y005905
X-014764Y007480
X-014764Y009055
X-013583Y009842
X-013583Y008268
X-013583Y006693
X-013583Y005118
X-013583Y003543
X-013583Y001968
X-013583Y000394
X-012992Y000591
X-011417Y000591
X-009842Y000591
X-008268Y000591
X-006693Y000591
X-005118Y000591
X-020866Y000591
X-022441Y000591
X-024016Y000591
X-025590Y000591
X-027165Y000591
X-027756Y000984
X-027756Y-000591
X-026378Y-000590
X-024803Y-000590
X-023228Y-000590
X-021653Y-000590
X-020079Y-000590
X-027756Y-002165
X-027756Y-003740
X-030906Y-004134
X-030906Y-002559
X-030906Y-000984
X-030906Y000591
X-030906Y002165
X-030906Y003740
X-030906Y005315
X-030906Y006890
X-030906Y008465
X-030906Y010039
X-027756Y010433
X-027756Y008858
X-027756Y007283
X-027756Y005709
X-027756Y004134
X-027756Y002559
X-027756Y012008
X-027756Y013583
X-026378Y013583
X-024803Y013583
X-023228Y013583
X-021654Y013583
X-020079Y013583
X-020866Y014764
X-022441Y014764
X-024016Y014764
X-025591Y014764
X-027165Y014764
X-027756Y015157
X-027756Y016732
X-027756Y018307
X-027756Y019882
X-027756Y021457
X-027756Y023031
X-027756Y024606
X-030906Y024213
X-030906Y025787
X-030906Y022638
X-030906Y021063
X-030906Y019488
X-030906Y017913
X-030906Y016339
X-030906Y014764
X-030906Y013189
X-030906Y011614
X-018504Y013583
X-016929Y013583
X-015354Y013583
X-014764Y013779
X-013780Y013583
X-013583Y012992
X-013583Y011417
X-014764Y010630
X-014764Y012205
X-014567Y014764
X-014764Y015354
X-014764Y016338
X-013583Y015551
X-013583Y014567
X-012992Y014764
X-011417Y014764
X-009843Y014764
X-008268Y014764
X-006693Y014764
X-005118Y014764
X-004331Y013583
X-005906Y013583
X-007480Y013583
X-009055Y013583
X-010630Y013583
X-012205Y013583
X-016142Y014764
X-017717Y014764
X-019291Y014764
X-014764Y018504
X-014764Y020079
X-014764Y021653
X-014764Y023228
X-014764Y024803
X-013583Y025590
X-013583Y024016
X-013583Y022441
X-013583Y020866
X-013583Y019291
X-013583Y017716
X-003543Y014764
X-002510Y013957
X-001491Y014455
X-001186Y014435
X-000349Y014524
X000000
X000350
Y014174
Y013825
X000000
X-000000Y014173
X-000349Y014174
Y013825
X001393Y014396
X001664Y014505
X002697Y014508
X004331Y014764
X006299Y014764
X007480Y014764
X009055Y014764
X010630Y014764
X011417Y013583
X009842Y013583
X008268Y013583
X006693Y013583
X005315Y013583
X-000000Y011604
X000002Y010876
X-000591Y010630
X-000591Y016929
X-000591Y018504
X-000591Y020079
X-000591Y021653
X-000591Y023228
X-000591Y024803
X000590Y024016
X000590Y022441
X000590Y020866
X000590Y019291
X000590Y017716
X000335Y016082
X000585Y026089
X013601Y026147
X013582Y024803
X013582Y023228
X013582Y021653
X013582Y020472
X014763Y020866
X014763Y019291
X014763Y017716
X014763Y016142
X014763Y014567
X015354Y014764
X013779Y014764
X013582Y015354
X013582Y013779
X012992Y013583
X014567Y013583
X014764Y012992
X014764Y011417
X013582Y010630
X013582Y012205
X012205Y014764
X013582Y016929
X013582Y018504
X014763Y022441
X014763Y024016
X014763Y025787
X016929Y014764
X018504Y014764
X020079Y014764
X021653Y014764
X023228Y014764
X024803Y014764
X026378Y014764
X025960Y013553
X024016Y013583
X022441Y013583
X020866Y013583
X019291Y013583
X017716Y013583
X016142Y013583
X027165Y013583
X027722Y013039
X027858Y012034
X027722Y011464
X028273Y011498
X030095Y012129
X030111Y012534
X030906Y012008
X030906Y013583
X030965Y014764
X030974Y015945
X030994Y017136
X031033Y018248
X031073Y019518
X031112Y020738
X031152Y021811
X031142Y022972
X031135Y024319
X030906Y025394
X029745Y024258
Y023386
Y022541
Y021272
Y020102
Y019256
Y018437
X027726Y018554
Y017767
X027726Y016683
X027746Y015266
X028127Y014921
X027389Y014563
X029341Y016319
X027726Y019341
Y020008
Y021097
Y021516
Y022639
Y023278
Y024066
Y024853
Y025392
X028130Y025531
X027733Y026094
X027736Y027293
X027362Y027756
X029341Y027598
X029634Y026953
X029671Y028429
X031010Y028915
X030906Y027756
X030906Y026181
X028393Y029600
X027756Y030906
X028926Y031083
X026181Y030906
X024606Y030906
X023031Y030906
X023267Y030507
X023692Y029833
X023996Y028894
X024085Y028356
X024213Y027756
X023494Y028150
X023199Y027982
X022933Y028150
X022638Y027756
X021063Y027756
X019488Y027756
X017913Y027756
X016339Y027756
X014764Y027756
X014087Y027255
X013189Y027756
X011614Y027756
X012008Y030905
X013583Y030905
X015157Y030905
X016732Y030905
X018307Y030905
X019882Y030905
X019449Y030305
X019616Y029823
X021457Y030905
X024648Y028533
X025787Y027756
X010039Y027756
X008465Y027756
X006890Y027756
X005315Y027756
X004006
X002165Y027756
X000591Y027756
X-000984Y027756
X-002559Y027756
X-000591Y026378
X-000591Y030905
X-002165Y030905
X-003740Y030905
X000984Y030905
X002559Y030905
X004134Y030905
X005709Y030905
X007283Y030905
X008858Y030905
X010433Y030905
X-005315Y030905
X-006890Y030905
X-008465Y030905
X-010039Y030905
X-011614Y030905
X-013189Y030905
X-014764Y030905
X-016339Y030905
X-017913Y030905
X-019488Y030905
X-018307Y027756
X-016732Y027756
X-015157Y027756
X-013583Y027756
X-013583Y027165
X-014764Y026378
X-012008Y027756
X-010433Y027756
X-008858Y027756
X-007283Y027756
X-005709Y027756
X-004134Y027756
X-019882Y027756
X-021457Y027756
X-023031Y027756
X-024606Y027756
X-026181Y027756
X-027756Y027756
X-027756Y026181
X-029654Y028393
X-031058Y028838
X-030906Y027362
X-028394Y029716
X-028938Y031086
X-027362Y030905
X-025787Y030905
X-024213Y030905
X-022638Y030905
X-021063Y030905
T02
X021260Y-024016
X024016Y-021260
X009843
X007087Y-024016
X-007087
X-004331Y-021260
X-018504
X-021260Y-024016
Y-009843
X-018504Y-007087
X-007087Y-009843
X-004331Y-007087
X009843
X007087Y-009843
X021260
X024016Y-007087
X021260Y004331
X024016Y007087
X009843
X007087Y004331
X-007087
X-004331Y007087
X-018504
X-021260Y004331
Y018504
X-018504Y021260
X-007087Y018504
X-004331Y021260
X009843
X007087Y018504
X021260
X024016Y021260
T03
X014531Y-030098
X015531
X016531
X017531
X018531
X019531
X020531
X021532
X022532
X023532
X024532
X025532
X026532
T04
X029921Y-029921
X-029921
X029921Y029921
X-029921
M30
