M48
;Layer_Color=9474304
;FILE_FORMAT=2:4
INCH
;TYPE=PLATED
T1F00S00C0.0098
%
T01
X027387Y-029705
X027848Y-028582
X028261Y-028853
X029057Y-027282
X029637Y-027127
X029903Y-025992
X027188Y-025876
X027320Y-023035
X028247Y-022635
X028522Y-021619
X028260Y-020986
X029306Y-021047
X027696Y-021706
X024380Y-021624
X024491Y-021053
X023983Y-020740
X023106Y-020747
X023496Y-021227
X023809Y-021736
X024043Y-022157
X023013Y-022150
X023153Y-022682
X023535Y-023238
X024081Y-023422
X024652Y-023215
X024787Y-024074
X025391Y-024731
X026574Y-024765
X026173Y-025548
X024854Y-025519
X023656Y-025543
X023284Y-024915
X023854Y-024490
X022820Y-024325
X022893Y-023441
X022032Y-022875
Y-024095
X021747Y-023825
X021609Y-024406
X021540Y-024676
X020979Y-024896
X020920Y-024406
X020782Y-023825
X021264Y-023501
X021540Y-025503
X022032Y-025316
X022680Y-025311
X023188Y-026480
X023137Y-027189
X023217Y-027668
X023724Y-028586
X023163Y-029246
X023011Y-029770
X022506Y-028886
X021997Y-028884
X021014Y-028948
X021011Y-029766
X020461Y-028006
X020555Y-027495
X019728
X018901
X018074
X017248
X016421
X016134Y-026751
X015693Y-027103
X015458Y-026310
X015838Y-025576
X016292Y-025940
X017119
X017946
X018772
X019112Y-025255
X019536Y-025624
X019798Y-024840
X019448Y-024091
X019000Y-024436
X018174Y-024414
X017347
X016520Y-024405
X017002Y-023853
X017829
X018656
X018475Y-022721
X018678Y-022161
X017851
X017649Y-022721
X016822
X017024Y-022161
X016221Y-022358
X016324Y-023381
X015763Y-023046
X015897Y-023862
X014458Y-023956
X013932Y-023639
X013884Y-022814
X014215Y-022352
X014493Y-023130
X013139Y-022456
X012312
X012699Y-021895
X011872
X011737Y-020972
X012553Y-021107
X014206
X015033
X015860
X016687
X017513
X018340
X019094Y-021446
X019655Y-021711
X019400Y-020925
X019250Y-022432
X018294Y-025379
X017468
X016641
X016941Y-026934
X017767
X018594
X019421
X020248
X020979Y-026549
X021540Y-026330
X022032Y-026536
X021290Y-027118
X021640Y-027692
X020979Y-025722
X019240Y-028006
X019311Y-028805
X018248Y-028717
X018051Y-029921
X017003Y-029596
X013973Y-028589
X013448Y-028321
X013388Y-029174
X012863Y-028905
X012803Y-029758
X012279Y-029490
X012180Y-030301
X012114Y-026221
X012494Y-025809
X013312Y-025930
X012895Y-026491
X013652Y-026824
X014004Y-026383
X014444Y-027083
Y-027910
X013883Y-027618
X013885Y-024552
X013074Y-024710
X013281Y-024149
X012454Y-024154
X012301Y-025005
X011824Y-024689
X011698Y-025506
X013526Y-021895
X026358Y-026905
X026876Y-027337
X026824Y-029246
X026167Y-029731
X025604Y-029246
X024946Y-029731
X024383Y-029246
X011494Y-029749
X011353Y-030310
X010526
X010667Y-029749
X009840
X009700Y-030310
X008873
X009013Y-029749
X008186
X008046Y-030310
X007219
X007360Y-029749
X006533
X006392Y-030310
X005566
X005706Y-029749
X004925Y-029479
X004763Y-030111
X004179Y-029526
X004340Y-028894
X003465Y-029109
X003589Y-028548
X002763
X002638Y-029109
X001956Y-028730
X001935Y-029544
X001371Y-029315
X001350Y-030129
X000546Y-030320
X000674Y-029759
X-000153
X-000281Y-030320
X-000999Y-029910
X-000830Y-029285
X-001583Y-029325
X-001796Y-028526
X-001235Y-028564
Y-027738
X-001796Y-027699
X-001557Y-026908
X-000858Y-027002
X-000972Y-026323
X-000273Y-026418
X000294Y-025816
X000320Y-024989
X-000241Y-024925
Y-024098
X000320Y-024162
Y-023336
X-000241Y-023272
Y-022445
X000320Y-022509
Y-021682
X-000241Y-021618
X-000250Y-020791
X000320Y-020855
X001412Y-021305
X002061Y-021318
X002213Y-022131
X002047Y-022698
X002874Y-022712
X003039Y-022151
X003866
X003701Y-022712
X004528
X004693Y-022151
X005519
X005354Y-022712
X006181
X006346Y-022151
X007173
X007008Y-022712
X007835
X008000Y-022151
X008779Y-022428
X008595Y-023037
X009363Y-023012
X009179Y-023621
X009948Y-023597
X009680Y-024279
X010241Y-024370
Y-025197
X009680Y-025106
X009531Y-025919
X010200Y-026022
X009626Y-026617
X008916Y-026472
X008911Y-027032
X008084
X008089Y-026472
X007262
X007257Y-027032
X006431
X006435Y-026472
X005609
X005604Y-027032
X004777
X004782Y-026472
X003955
X003950Y-027032
X003124
X003128Y-026472
X002337Y-026232
X002299Y-026975
X001708Y-026396
X001462Y-025607
X002023Y-025467
X002119Y-024646
X001462Y-024780
X001895Y-024076
X002648Y-023735
X002868Y-024296
X003695
X003475Y-023735
X004302
X004521Y-024296
X005348
X005129Y-023735
X005956
X006175Y-024296
X006696Y-024365
Y-023676
X007277Y-023538
X007602Y-024020
X007277Y-024503
X007005Y-021156
X006178
X005352
X004525
X003698
X002871
X001445Y-022131
X-002790Y-022043
Y-021217
X-003351Y-021515
X-003855Y-021466
X-003966Y-020896
X-003351Y-022342
Y-023169
Y-023996
Y-024823
Y-025649
Y-026476
Y-027303
X-002790Y-027004
Y-026177
Y-025350
Y-024524
Y-023697
Y-022870
X-003477Y-028120
X-003143Y-028579
X-004062Y-028705
X-003727Y-029163
X007711Y-020727
X009478Y-020896
X009367Y-021466
X009875Y-021779
X010362Y-021292
X010049Y-020784
X011045Y-021895
X010659Y-022440
X011485Y-022456
X-004363Y-021779
X-004665Y-021991
X-005217Y-021750
X-004850Y-021292
X-004537Y-020784
X-005250Y-022576
X-006058Y-022751
X-005917Y-022190
X-006744
X-006885Y-022751
X-007709Y-022820
X-007570Y-022190
X-008286Y-022604
X-008293Y-023405
X-008871Y-023189
X-008878Y-023989
X-009473Y-023755
X-009637Y-024316
X-010464
X-010300Y-023755
X-011127
X-011291Y-024316
X-012118
X-011953Y-023755
X-012780
X-012945Y-024316
X-013758Y-024168
X-013581Y-023551
X-014343Y-023583
X-014493Y-022771
X-013932Y-022803
Y-021976
X-014493Y-021944
X-014385Y-021124
X-013662Y-021195
X-015546Y-021179
X-016107Y-021023
X-016411Y-021792
X-016378Y-022552
X-016996Y-022377
X-016963Y-023137
X-017778Y-023273
X-017752Y-022712
X-018579
X-018605Y-023273
X-019432
X-019402Y-022633
X-018991Y-021450
X-018853Y-020870
X-018164
X-018026Y-021450
X-018509Y-021775
X-015793Y-021968
X-015889Y-026481
X-015062
X-014235
X-013782Y-027042
X-012955
X-012129
X-011302
X-010475
X-009648
X-008821
X-007995
X-007168
X-006341
X-005515Y-027017
X-005968Y-026481
X-006794
X-007621
X-008448
X-009275
X-010101
X-010928
X-011755
X-012582
X-012206Y-029139
X-013033
X-013860
X-014687
X-015513
X-016338Y-029073
X-016730Y-029474
X-015935Y-029700
X-015108
X-014281
X-013454
X-012628
X-011801
X-010974
X-010147
X-009321
X-008494
X-007667
X-006840
X-006013
X-005187
X-004360Y-029696
X-004765Y-029139
X-005592
X-006419
X-007246
X-008072
X-008899
X-009726
X-010553
X-011380
X-015436Y-027042
X-016262Y-027043
X-016692Y-026679
X-017276Y-027264
X-017446Y-028073
X-016885Y-028453
X-017315Y-028889
X-007277Y-024493
X-006696Y-024356
X-006299Y-024296
X-005495Y-024488
X-004997Y-024194
X-005103Y-025216
X-004542Y-024884
Y-025711
X-005279Y-026024
X-004912Y-026451
X-005685Y-023735
X-006696Y-023667
X-007277Y-023529
X-007602Y-024011
X-020784Y-024222
X-020896Y-023651
X-021466Y-023540
X-021779Y-024048
X-022023Y-024383
X-022060Y-025212
X-022608Y-024967
X-022816Y-025546
X-023643
X-023435Y-024985
X-024231Y-024762
X-024444Y-025342
X-025029Y-024758
X-024815Y-024178
X-025613Y-024173
X-025400Y-023593
X-026150Y-023544
X-026156Y-022718
X-025596Y-022790
Y-021963
X-026156Y-021891
Y-021064
X-025596Y-021136
X-021275Y-020748
X-021234Y-021573
X-020571Y-021464
X-020659Y-022168
X-019986Y-022048
X-020075Y-022753
X-021292Y-024535
X-020714Y-020649
Y-019822
X-021275Y-019921
Y-019094
X-020714Y-018996
X-020917Y-018194
X-021579Y-018326
X-021502Y-017610
X-022164Y-017741
X-022086Y-017025
X-022875Y-016777
X-022885Y-017338
X-023712
X-023701Y-016777
X-024528
X-024537Y-017394
X-025198Y-017262
X-025121Y-017979
X-025782Y-017846
X-025596Y-018656
X-026156Y-018584
Y-019410
X-025596Y-019483
Y-020310
X-026156Y-020237
X-023915Y-010754
X-023741Y-010134
X-024497Y-010167
X-024572Y-009344
X-024011Y-009353
X-023723Y-008578
X-024462Y-008524
X-023878Y-007940
X-023031Y-008125
X-023141Y-007564
X-022314
X-022204Y-008125
X-021377
X-021488Y-007564
X-020661Y-007579
X-020593Y-008386
X-020050Y-008136
X-020008Y-008971
X-020896Y-009478
X-021466Y-009367
X-021779Y-009875
X-021659Y-010639
X-021292Y-010362
X-020784Y-010049
X-022211Y-010397
X-022340Y-011107
X-023167
X-023024Y-010546
X-022977Y-005891
X-022731Y-005330
X-023558
X-023803Y-005891
X-024630
X-024384Y-005330
X-025211
X-025457Y-005891
X-026284Y-005886
X-026038Y-005330
X-026915Y-005352
X-021904Y-005330
X-022150Y-005891
X-021323
X-021077Y-005330
X-020250
X-020496Y-005891
X-019747Y-006240
X-019505Y-005688
X-018921Y-006273
X-018536Y-006567
X-018028Y-006880
X-017554Y-006889
X-016993Y-006834
Y-006007
X-017554Y-006062
Y-005235
X-016993Y-005180
Y-007660
X-017554Y-007716
X-018140Y-007451
X-018710Y-007562
X-019023Y-007054
X-019465Y-008721
X-019276Y-009355
X-018450
X-018642Y-008794
X-017879Y-008476
X-017091Y-008481
X-017675Y-009066
X-017217Y-010442
X-016937Y-010956
X-017802Y-011027
X-017522Y-011541
X-018386Y-011612
X-018107Y-012125
X-018784Y-012336
Y-013163
X-018224Y-012944
Y-013770
X-018784Y-013990
X-018224Y-014597
Y-015424
X-018784Y-015643
Y-016470
X-018224Y-016251
Y-017078
X-018784Y-017297
Y-018124
X-018224Y-017904
Y-018731
X-018784Y-018950
Y-019777
X-018224Y-019558
Y-020385
X-018784Y-020604
X-016107Y-020197
X-015546Y-020352
Y-019525
X-016107Y-019370
Y-018543
X-015546Y-018698
Y-017872
X-016107Y-017716
Y-016890
X-015546Y-017045
X-015480Y-016221
X-015476Y-015500
X-014649Y-015490
X-013822
X-013844Y-016050
X-013017
X-012996Y-015490
X-012169
X-012190Y-016050
X-011363
X-011342Y-015490
X-010515
X-010537Y-016050
X-009710
X-009689Y-015490
X-008862
X-008883Y-016050
X-008056
X-008035Y-015490
X-007208
X-007230Y-016050
X-006403
X-006381Y-015490
X-005555
X-005576Y-016050
X-004750Y-016012
X-004731Y-015416
X-004786Y-014616
X-004807Y-013845
X-004633Y-013441
X-004207Y-013074
X-004799Y-012497
X-004589Y-012003
X-004838Y-011215
Y-010388
Y-009561
X-004277Y-009264
Y-010090
Y-010917
X-005389Y-010724
Y-009898
X-005950Y-009529
Y-010356
X-006896Y-010329
X-007477Y-010192
Y-009503
X-006896Y-009365
X-006571Y-009847
X-006481Y-008896
X-006089Y-008494
X-005519Y-008156
X-005014Y-007867
X-004537Y-007562
X-004850Y-007054
X-004602Y-006419
X-004363Y-006567
X-005463Y-006350
X-005186Y-005834
X-006048Y-005766
X-006768Y-006113
X-007272Y-006402
X-008096Y-006656
X-008656Y-006443
Y-005616
X-008096Y-005829
X-007613Y-005648
X-007052Y-005336
X-005605Y-005121
X-006184Y-006697
X-006688Y-006986
X-006103Y-007571
X-005599Y-007282
X-005505Y-009079
X-004934Y-008740
X-004430Y-008451
X-006814Y-008096
X-007640
X-007273Y-008656
X-008047Y-008946
X-008373Y-008479
X-008617Y-009268
X-009424Y-009542
X-009985Y-009328
Y-010155
X-009392Y-010368
X-009646Y-010908
X-008808Y-010953
X-009061Y-011493
X-008281Y-011767
X-008021Y-011206
X-007194
X-007454Y-011767
X-006627
X-006451Y-012446
X-007278
X-008105
X-008932
X-009758
X-009470Y-013007
X-008643
X-007816
X-006990
X-006163
X-005336
X-005624Y-012446
X-005899Y-011375
X-006380Y-011062
X-006461Y-013824
X-006407Y-014385
X-005580
X-005634Y-013824
X-007287
X-007233Y-014385
X-008060
X-008114Y-013824
X-008941
X-008887Y-014385
X-009714
X-009768Y-013824
X-010594
X-010540Y-014385
X-011367
X-011421Y-013824
X-012248
X-012194Y-014385
X-013021
X-013075Y-013824
X-013901
X-013847Y-014385
X-014728Y-013824
X-015555
X-015501Y-014385
X-016328
X-016974Y-013869
X-017042Y-013045
X-016431Y-012861
X-016670Y-012307
X-015932Y-011934
X-015690Y-012495
X-014863
X-015105Y-011934
X-014337Y-011628
X-014098Y-012182
X-013514Y-011597
X-013753Y-011043
X-012929Y-011013
X-013168Y-010458
X-012344Y-010428
X-012200Y-009614
X-012761Y-009739
X-012917Y-008927
X-012267Y-008790
X-011462Y-008573
Y-009400
Y-010227
Y-011054
Y-011881
X-010901Y-011462
Y-010636
Y-009809
Y-008982
Y-008155
X-011462Y-007747
X-011068Y-007020
X-010629Y-007374
X-010483Y-006435
X-010045Y-006790
X-009572Y-006111
Y-005285
X-010133Y-005686
X-011082Y-005770
X-011833Y-005728
X-011667Y-006355
X-012508Y-006206
X-012383Y-006767
X-013210
X-013335Y-006206
X-014052Y-006618
X-013885Y-007244
X-014464Y-007335
X-015241Y-007495
X-015802Y-007657
Y-008484
X-015241Y-008322
X-015242Y-009149
X-016048Y-009273
X-015768Y-009787
X-016632Y-009858
X-016353Y-010371
X-015802Y-006830
X-015078Y-006685
X-015334Y-006148
X-014493Y-006100
X-014750Y-005564
X-013908Y-005516
X-013660Y-008040
X-013707Y-008683
X-014341Y-008152
X-012850Y-008203
X-009985Y-008501
X-009424Y-008715
X-009082Y-007963
X-009655Y-007743
X-009071Y-007158
X-008497Y-007378
X-008206Y-009986
X-010551Y-012212
X-010994Y-012562
X-010297Y-013007
X-010119Y-017013
X-010197Y-017574
X-009370
X-009292Y-017013
X-008465
X-008543Y-017574
X-007716
X-007639Y-017013
X-006812
X-006890Y-017574
X-006063
X-005985Y-017013
X-005158
X-005236Y-017574
X-004409Y-017557
X-004368Y-016771
X-005545Y-018892
X-005851Y-019588
X-005290Y-019678
X-005593Y-020448
X-006376Y-020714
X-006455Y-020153
X-007282
X-007202Y-020714
X-008029
X-008109Y-020153
X-008936
X-008856Y-020714
X-009683
X-009762Y-020153
X-010589
X-010509Y-020714
X-011336
X-011416Y-020153
X-012243
X-012163Y-020714
X-012990
X-013070Y-020153
X-013153Y-019129
X-012920Y-018568
X-012093
X-012326Y-019129
X-011499
X-011266Y-018568
X-010439
X-010673Y-019129
X-009846
X-009612Y-018568
X-008786
X-009019Y-019129
X-008192
X-007959Y-018568
X-007132
X-007366Y-019129
X-006539
X-006305Y-018568
X-011023Y-017574
X-010946Y-017013
X-011773
X-011850Y-017574
X-012677
X-012599Y-017013
X-013504Y-017574
X-014163Y-017388
X-014336Y-018197
X-013723Y-018371
X-013956Y-018931
X-013800Y-020539
X-016081Y-016063
X-003783Y-016186
X-003964Y-015756
X-003945Y-015160
X-003976Y-014783
X-004072Y-014222
X-003254Y-014155
X-003183Y-013502
X-003419Y-013172
X-002971Y-012854
X-002357Y-013124
X-002524Y-013636
X-002514Y-014708
X-002357Y-015220
X-002091Y-015693
X-001727Y-016096
X-001294Y-016421
X-000802Y-016647
X-000969Y-017197
X-000925Y-017648
X-001594Y-017657
X-001616Y-017103
X-002224Y-017414
X-002238Y-016633
X-003084Y-016599
X-002774Y-017083
X-002790Y-017910
Y-018736
Y-019563
Y-020390
X-003351Y-020689
Y-019862
Y-019035
Y-018208
Y-017382
X-003801Y-016997
X-002697Y-016155
X-003031Y-015492
X-003198Y-014843
X-003494Y-012305
X-004004Y-012588
X-004079Y-011720
X-003775Y-011505
X-003199Y-011730
X-003214Y-010904
X-003775Y-010678
Y-009852
X-003214Y-010077
Y-009250
X-003775Y-009025
Y-008198
X-003214Y-008423
Y-007597
Y-006770
X-003855Y-006880
X-003775Y-006545
Y-005718
X-003214Y-005943
Y-005116
X-002525Y-005539
X-001845Y-005487
X-001166Y-005490
Y-006317
X-001845Y-006314
X-002525Y-006366
Y-007193
X-001845Y-007140
X-001166Y-007143
Y-007970
X-001845Y-007967
X-002525Y-008019
Y-008846
X-001845Y-008794
X-001166Y-008797
Y-009624
X-001845Y-009621
X-002525Y-009673
Y-010500
X-001845Y-010447
X-001166Y-010451
X-000648Y-010506
X-000167Y-010819
X-000246Y-011211
X000437Y-011184
X000817Y-011588
X000350Y-012064
X000941Y-012566
X001598Y-012381
X002377Y-012471
X002518Y-013041
X002308Y-013866
X003134
X003961
X004788
X005615
X006442
X007268
X008095
X008922
X009749
X010575
X011402
X011063Y-014427
X010237
X009410
X008583
X007756
X006930
X006103
X005276
X004449
X003622
X002796
X002550Y-015588
X002680Y-016531
X002415Y-017091
X002409Y-017702
X001583
X001589Y-017091
X001853Y-016531
X001026
X000762Y-017091
X000756Y-017702
X-000071Y-017702
X-000364Y-017303
X000069Y-017018
X000392Y-018263
X000146Y-018735
X-000010Y-019373
X-000103Y-020145
X-000834Y-020207
X-000688Y-019560
X-001419Y-019622
X-001272Y-018976
X-002003Y-019037
X-002224Y-018241
X-001663Y-018247
X-001179Y-018204
X-000426Y-018140
X-000594Y-018789
X000951Y-018922
X000810Y-019483
X001637
X001778Y-018922
X002605
X002463Y-019483
X003290
X003431Y-018922
X004258
X004117Y-019483
X004944
X005085Y-018922
X005912
X005770Y-019483
X006597
X006738Y-018922
X007006Y-018263
X007833
X008660
X009024Y-017702
X009029Y-017091
X009294Y-016531
X008467
X008203Y-017091
X008197Y-017702
X007370
X007376Y-017091
X007641Y-016531
X006814
X006549Y-017091
X006543Y-017702
X005717
X005722Y-017091
X005987Y-016531
X005160
X004896Y-017091
X004890Y-017702
X004063
X004069Y-017091
X004334Y-016531
X003507
X003242Y-017091
X003236Y-017702
X002872Y-018263
X003699
X004526
X005353
X006180
X007528Y-019168
X007318Y-019888
X007879Y-019917
X006890Y-020596
X006063
X005236
X004409
X003583
X002756
X001932Y-020662
X002046Y-018263
X001219
X001330Y-015588
X001520Y-014667
X001159Y-013310
X001378Y-013061
X001832Y-011560
X002070Y-010999
X001243
X002897
X002659Y-011560
X003486
X003724Y-010999
X004550
X004313Y-011560
X005139
X005377Y-010999
X006204
X005966Y-011560
X006793
X007031Y-010999
X006896Y-010320
X007477Y-010182
X007853Y-010123
X008680
X008471Y-009562
X009298
X009507Y-010123
X010333
X010125Y-009562
X010967Y-009592
X010986Y-008765
X009946Y-008755
X009120
X008293
X007469Y-008686
X007477Y-009493
X006896Y-009356
X006571Y-009838
X005134Y-009528
X005202Y-008704
Y-007877
Y-007050
Y-006223
Y-005397
X004641Y-005704
Y-006530
Y-007357
Y-008184
Y-009011
X004000Y-009533
X003173
X002866Y-010093
X003693
X004520Y-010081
X002075Y-009853
X002366Y-009351
X001497Y-009262
X001442Y-008437
X002003Y-008609
Y-007782
X001442Y-007610
Y-006784
X002003Y-006955
X001854Y-006067
X002452Y-006261
X002438Y-005482
X003037Y-005677
X000564Y-005226
X000320Y-006016
Y-006843
Y-007670
Y-008497
Y-009323
Y-010150
X-000241Y-009786
Y-008960
Y-008133
Y-007306
Y-006479
Y-005652
X-003966Y-007451
X-002525Y-011327
X-002120Y-011760
X-001548Y-011431
X-001294Y-011933
X-000792Y-011736
X-000940Y-011193
X-001717Y-012267
X-002081Y-012661
X-002618Y-012241
X003598Y-012471
X003739Y-013041
X004959
X004818Y-012471
X006039
X006180Y-013041
X007400
X007259Y-012471
X008480
X008621Y-013041
X009841
X009700Y-012471
X010921
X011062Y-013041
X010927Y-011560
X011165Y-010999
X010338
X010100Y-011560
X009273
X009511Y-010999
X008684
X008447Y-011560
X007620
X007857Y-010999
X007898Y-008194
X008725
X009552
X009636Y-007562
X010207Y-007451
X010318Y-006880
X009810Y-006567
X009323Y-007054
X009267Y-005822
X008706Y-005503
X008729Y-006330
X006924Y-006094
Y-005267
X006363Y-005806
Y-006633
Y-007460
X006924Y-006921
X007250Y-007680
X006881Y-008104
X010378Y-008205
X010988Y-007408
X010861Y-006591
X011422Y-006745
Y-005918
X010861Y-005764
X011312Y-005099
X011094Y-015588
X010948Y-016531
X010683Y-017091
X011510
X009856
X010121Y-016531
X009873Y-015588
X008653
X007432
X006212
X004991
X003771
X009714Y-018156
X009399Y-018634
X010299Y-018741
X009983Y-019218
X010884Y-019326
X010568Y-019803
X011468Y-019910
X011152Y-020388
X012053Y-020495
X012878Y-020546
X013705
X014531
X015358
X016185
X017012
X017839
X018665
X018607Y-019601
X018844Y-019040
X018017
X017780Y-019601
X016954
X017190Y-019040
X016363
X016127Y-019601
X015300
X015537Y-019040
X014710
X014473Y-019601
X013647
X013883Y-019040
X013056
X012820Y-019601
X012059Y-019277
X011885Y-018469
X012455Y-018473
X012369Y-017799
X012337Y-017091
X012601Y-016531
X011774
X012314Y-015588
X012717Y-014427
X011890
X012229Y-013866
X013056
X013882
X014370Y-014427
X015197
X016024
X016851
X017678
X017721Y-015057
X016501
X016363Y-013866
X015536
X017190
X018016
X018843
X019309Y-014237
X018504Y-014427
X018941Y-015057
X020162
X021382
X022603
X023004Y-015066
X023904Y-015890
X024515Y-016380
X024504Y-017508
X025633Y-017480
X026053Y-018239
X026972Y-017515
X026672Y-016580
X026969Y-016272
X026063Y-016173
X026318Y-015550
X026536Y-014933
X025797Y-014835
X025807Y-014596
X025384Y-014370
X025000Y-014321
X025315Y-013713
X025463Y-013486
X025748Y-013467
Y-013703
X024744Y-013378
X024503Y-012785
X023874Y-012762
X023313Y-012810
Y-011983
X023874Y-011935
X023327Y-011157
X022817Y-010729
X022372Y-010381
X021737Y-010033
X021600Y-009452
X020911
X020773Y-010033
X021255Y-010358
X021788Y-010965
X022232Y-011314
X021648Y-011899
X021203Y-011550
X021063Y-012483
X020619Y-012134
X020478Y-013068
X020034Y-012719
X019894Y-013653
X019449Y-013304
X018439Y-011032
X017732Y-010946
X017855Y-011617
X017035Y-011727
X016935Y-011166
X016191Y-010805
X015631Y-011037
X015369Y-010253
X015930Y-010020
Y-009194
X015369Y-009426
Y-008599
X015930Y-008367
Y-007540
X015369Y-007772
Y-006946
X015930Y-006713
Y-005886
X015369Y-006119
Y-005292
X014375Y-005815
Y-006642
Y-007468
Y-008295
Y-009122
Y-009949
X013814Y-009649
Y-008822
Y-007996
Y-007169
Y-006342
Y-005515
X012977Y-005516
Y-006343
Y-007169
X012416Y-006640
Y-005813
X011988Y-007348
X011646Y-007908
X012468Y-007820
X012817Y-010950
X013336Y-011224
X013401Y-010366
X013921Y-010639
X014209Y-012045
X013361Y-012471
X012141
X012282Y-013041
X012580Y-011560
X011754
X011991Y-010999
X016215Y-011622
X018253Y-010305
X018814Y-010295
Y-009468
X018253Y-009478
Y-008651
X018841Y-008642
X018721Y-007969
X019426Y-008058
X019355Y-007439
X020182Y-007436
X020250Y-007997
X020921Y-007807
X020867Y-008547
X021496Y-008401
X021872Y-007360
X022699Y-007367
X022535Y-006806
X023361
X023625Y-006747
Y-007436
X024206Y-007574
X024531Y-007091
X025025Y-007277
X025586Y-007685
Y-006858
X025210Y-006122
X024781Y-006487
X024206Y-006609
X024197Y-005902
X024625Y-005537
X023612Y-005318
X021754Y-006534
X021246Y-006820
X021078Y-006058
X020251
X020444Y-006619
X019617
X019425Y-006058
X018598
X018790Y-006619
X017964
X017776Y-005971
X017236Y-006226
X016895Y-005473
X017456Y-005209
X022957Y-009796
X023401Y-010145
X023882Y-010544
X024668Y-010551
X024467Y-009959
X025253Y-009966
X025052Y-009375
X025838Y-009382
X025636Y-008790
X025155Y-008391
X024711Y-008042
X024571Y-008976
X024126Y-008627
X023986Y-009560
X023542Y-009211
X026603Y-009070
X026414Y-008509
X026270Y-009984
X025646Y-010972
X025988Y-011972
X026831Y-013130
X027146
Y-013445
X026831
X027146Y-013760
Y-014075
X026831
Y-014390
X027146
X023631Y-013573
X022727Y-017237
X021934Y-017540
X021373Y-017395
X021664Y-016759
X020869Y-016531
X020604Y-017091
X020636Y-017771
X020710Y-018332
X019884
X019810Y-017771
X019777Y-017091
X020042Y-016531
X019215
X018951Y-017091
X018983Y-017771
X019057Y-018332
X018230
X018156Y-017771
X018124Y-017091
X018389Y-016531
X017562
X017297Y-017091
X017329Y-017771
X017403Y-018332
X016577
X016503Y-017771
X016470Y-017091
X016735Y-016531
X015908
X015644Y-017091
X015676Y-017771
X015750Y-018332
X014849Y-017771
X014817Y-017091
X015082Y-016531
X014255
X013990Y-017091
X014022Y-017771
X014096Y-018332
X013270
X013195Y-017771
X013163Y-017091
X013428Y-016531
X019671Y-019040
X019434Y-019601
X020261
X020497Y-019040
X021324
X021088Y-019601
X021914
X022151Y-019055
X022763Y-019611
X022522Y-020162
X023348Y-020195
X023706Y-019315
X024787Y-019881
X026007
X022843Y-018452
X021535Y-018264
X028643Y-017814
X029461Y-017501
X030394Y-017546
X030441Y-016379
X029369Y-015736
X029084Y-015675
X028494Y-016073
X027874Y-016427
X028376Y-014894
X028091Y-014390
Y-014075
Y-013760
Y-013445
Y-013130
X027776Y-013445
X027461
Y-013130
Y-013760
Y-014075
X027776
Y-014390
X029154Y-014638
X029568Y-013976
X029380Y-013664
Y-013427
X029438Y-012981
X029203Y-012975
X029547Y-012431
X029567Y-011890
X030404
Y-012293
X030315Y-013937
X028415Y-012637
X028612Y-012362
X027323Y-011909
X027162Y-011628
X027319Y-010023
X027430Y-009039
X027239Y-008464
X028028Y-008468
X027824Y-007879
X028143Y-007116
Y-006289
X028790Y-005986
X028458Y-005525
X029375Y-005402
X028704Y-006809
X028373Y-009110
X030324Y-009243
X029798Y-010188
X027177Y-020228
X029043Y-004941
X029959Y-004817
X029627Y-004356
X030415Y-004127
Y-003300
X029854Y-003561
Y-002734
X030415Y-002474
Y-001647
X029854Y-001907
Y-001080
X030415Y-000820
X030340Y000003
X029809Y-000255
X029758Y000590
X029224Y000330
X029173Y001174
X028640Y000914
X028588Y001759
X028806Y001939
X028885Y002726
X028509Y002582
X027948Y002319
X027485Y002666
Y003493
X027948Y003145
X028509Y003409
X029001Y003501
X029788Y003399
X029684Y004212
X028509Y004236
X027948Y003972
X027485Y004320
Y005147
X027948Y004799
X028509Y005062
X028878Y004705
X028883Y005799
X028524Y006234
X029218Y006556
Y007382
X028317Y007362
X028156Y008268
X027602Y008716
X027687Y009459
X028425Y009301
X028935Y008852
X029518Y009537
X030197Y009518
X030276Y008750
X029715Y008268
X029794Y010285
X029085Y010200
X028553Y010152
X027992Y010391
X027485Y007627
Y006800
Y005973
X027965Y005626
X028055Y001499
X027919Y001136
X027367Y000815
X027485Y001839
X027487Y-000390
X028156Y-001626
X028260Y-002153
X029410Y-001513
X029684Y002169
X026924Y002343
X026481Y002512
X025920Y002407
Y001581
X026481Y001685
X026928Y001516
X026328Y000872
X025415Y000926
X025675Y000365
X025541Y-000541
X024760Y-000586
X024792Y-000098
X024663Y000799
X023764Y000172
X023795Y-000448
X023563Y-001385
X023406Y-002402
X022913Y-001939
X022394Y-002555
X022780Y-002962
X022871Y-003784
X022443Y-004149
X022200Y-003358
X023028Y-004733
X023456Y-004368
X024040Y-004953
X024130Y-002072
X024599Y-002120
X024898Y-001550
X025819Y-002153
X027040
X026936Y-001626
X026742Y-000749
X026315Y-000188
X027112Y000029
X025955Y-001004
X025920Y003234
X026481Y003338
X026924Y003169
Y003996
X026481Y004165
X025920Y004061
Y004888
X026481Y004992
X026924Y004823
Y005650
X026481Y005819
X025920Y005714
Y006541
X026481Y006646
X026924Y006477
Y007303
X026426Y007471
X025764Y007353
X025849Y008062
X025187Y007945
X025133Y008770
X025694Y008874
X026120Y008718
X026117Y009545
X025694Y009701
X025133Y009596
Y010423
X026117Y010372
X026678Y009890
Y009063
X026649Y008083
X027144Y008380
X024296Y008182
X024356Y007477
X023667
X023735Y007963
Y008789
X024296Y009009
Y009835
X023735Y009616
X023312Y010326
X021703Y010391
X021013Y010494
X020832Y009688
X021393Y009625
X021144Y008922
X021893Y008967
X021729Y008337
X022477Y008382
X022721Y007592
X022161Y007632
Y006806
X022745Y006766
X022607Y006110
X023330Y006181
X023192Y005526
X023914Y005596
X023777Y004941
X024499Y005012
X024316Y004314
X024877Y004276
Y003450
X024316Y003487
X024525Y002701
X023841Y002811
X023941Y002117
X023144Y001895
X023095Y002456
X022268Y002435
X022331Y001747
X021662Y001872
X021746Y001163
X021078Y001287
X021161Y000578
X020493Y000703
X020577Y-000007
X019763Y-000152
X019721Y000408
X018936Y-000152
X018169Y000155
X018224Y000893
X017584Y000740
X017639Y001478
X017000Y001324
X017055Y002062
X016415Y001909
X016470Y002647
X015830Y002493
X015886Y003232
X015246Y003078
X015301Y003816
X014716Y004401
X014077Y004247
X014296Y005113
X013735Y005000
X012623Y004863
X012062Y004833
Y004006
X012623Y004036
X012296Y003277
X011568Y003343
X011711Y002693
X011945Y001521
X012071Y000960
X012128Y000320
X012240Y-000241
X011999Y-001127
X011589Y-001688
X012387Y-001907
X012749Y-001476
X013333Y-002061
X012971Y-002492
X013918Y-002646
X013556Y-003076
X013814Y-003862
Y-004689
X012977Y-004689
X012416Y-004987
X012331Y-004164
X012834Y-003875
X012250Y-003290
X011624Y-003735
X014375Y-003335
Y-004161
Y-004988
X015369Y-004465
X015930Y-004233
Y-003406
X015369Y-003639
Y-002812
X015904Y-002580
X015337Y-001978
X014789Y-002223
X014204Y-001638
X014168Y-000809
X013620Y-001054
X013583Y-000224
X012955Y000314
X012898Y000960
X012772Y001521
X013598
X013725Y000960
X014552
X014425Y001521
X015252
X015915Y001027
X015945Y000204
X016500Y000442
X016530Y-000381
X017084Y-000142
X017114Y-000966
X017699Y-001550
X018254Y-001312
X018283Y-002135
X018838Y-001896
X018868Y-002719
X019423Y-002481
X019700Y-003260
X019139Y-003501
X019577Y-004077
X018676Y-004185
X018992Y-004662
X018179Y-004808
X017851Y-004247
X017151Y-004687
X015930Y-005060
X015810Y005019
X016007Y005610
X015268Y005643
X015261Y006470
X015822Y006416
X015685Y007231
X014906Y007217
X015100Y007816
X014322Y007801
X014516Y008401
X013922Y008525
X014142Y009322
X014888Y009139
X015715
X015705Y009700
X016532
X016541Y009139
X017368
X017358Y009700
X018185
X018195Y009139
X019004Y009307
X018873Y010158
X019434Y010013
X019582Y007784
X020408Y007574
X020331Y008135
X021127Y007911
X020979Y006976
X021540Y007195
Y006368
X020979Y006149
Y005322
X020911Y004721
X021600
X021737Y004140
X021255Y003815
X020773Y004140
X019869Y004460
X019228Y004526
X019329Y003834
X018505Y003771
X018460Y004832
Y005659
Y006485
X018437Y007312
X017899Y006838
Y006011
Y005184
X017922Y004358
X016636Y004989
X017170Y005620
Y006447
X016609Y006176
Y007003
X017000Y007732
X017817Y007859
X019316Y007001
X019877Y006941
Y006114
X019316Y006175
Y005348
X019877Y005287
X021540Y005542
X023529Y006896
X024011Y006571
X024493Y006896
X014154Y006754
X013497Y006619
X012550Y006514
X011823Y006451
X011967Y007100
X012912Y007203
X012985Y007923
X012327Y007788
X012400Y008508
X011743Y008373
X011816Y009093
X012062Y005660
X012623Y005690
X014296Y005940
X011239Y007036
X011383Y007685
X010654Y007621
X010329Y007277
X010192Y006696
X010123Y006419
X009562Y006200
X009503Y006696
X009365Y007277
X008971Y007512
X009847Y007602
X010070Y008205
X010214Y008854
X009485Y008790
X009589Y009396
X009795Y009819
X009828Y010380
X009002
X008968Y009819
X008831Y009404
X008660Y008844
X008608Y008255
X007793Y008391
X007833Y008844
X008004Y009404
X008141Y009819
X008175Y010380
X007348
X007314Y009819
X007177Y009404
X007006Y008844
X006966Y008391
X006139
X006180Y008844
X006350Y009404
X006487Y009819
X006521Y010380
X005694
X005661Y009819
X005523Y009404
X005353Y008844
X005312Y008391
X004486
X004526Y008844
X004697Y009404
X004834Y009819
X004868Y010380
X004041
X004007Y009819
X003870Y009404
X003699Y008844
X003099Y009106
X003180Y009819
X003214Y010380
X002439Y010185
X001363Y009725
X000802Y009534
Y008707
X000314Y008756
X-000121Y009114
X-000239Y009974
X000049Y009923
X-000943Y010064
X-001224Y010267
X-001866Y010418
X-001808Y009682
X-001528Y009479
X-000824Y009390
X-000706Y008529
X-000271Y008171
X-000150Y007382
X000155Y006895
X-000735Y006798
X-000429Y006310
X-001319Y006213
X-001014Y005725
X-000851Y004956
X-001678
X-001799Y005468
X-002626
X-002505Y004956
X-003331
X-003453Y005468
X-003779Y006028
X-002952
X-002125
X-002028Y004395
X-001201
X-000895Y003627
X-001722
X-002548
X-003375
X-003644Y003066
X-002818
X-001991
X-001164
X-000342Y003159
X000137Y002758
X000704Y002531
X000938Y001758
X001274Y001301
X000354Y001173
X000690Y000716
X-000143Y000512
X-000851Y000631
X-001412Y000854
X-001282Y-000075
X-001849Y000152
X-002428Y000297
X-002434Y-000433
X-003039Y-000260
X-003026Y000471
X-003833Y000290
X-003865Y-000271
X-003603Y-001602
X-003036Y-001828
X-003018Y-001017
X-002452Y-001244
X-002165Y-002024
X-001829Y-002482
X-001248Y-002614
X-001245Y-001897
X-000664Y-002029
X-000660Y-001312
X-000079Y-001444
X-000075Y-000728
X000505Y-000860
X001233Y-000925
X001090Y-000275
X001818Y-000340
X001675Y000309
X002403Y000244
X002259Y000894
X002987Y000829
X002852Y001471
X003677Y001521
X003804Y000960
X003860Y000320
X003973Y-000241
X004799
X004687Y000320
X004630Y000960
X004504Y001521
X005331
X005457Y000960
X005514Y000320
X005626Y-000241
X006453
X006341Y000320
X006284Y000960
X006157Y001521
X006984
X007111Y000960
X007168Y000320
X007280Y-000241
X008106
X007994Y000320
X007937Y000960
X007811Y001521
X007861Y002107
X007844Y002916
X007276Y002692
X007367Y003591
X007436Y003940
X006747
X006806Y003372
X006609Y004521
X007091Y004846
X007574Y004521
X008257Y004623
X008808Y005015
X009067Y004454
X009803Y004830
X009553Y005373
X010123Y005592
X008154Y005520
X007673Y005208
X007533Y006067
X006707Y006078
X006906Y005517
X006079
X005880Y006078
X006087Y006718
X006302Y007278
X006513Y007830
X007340
X007129Y007278
X006914Y006718
X007741
X007956Y007278
X008564Y006793
X005265Y006630
X004741Y006899
X004641Y006078
X005252Y005521
X005219Y004587
X004695Y004318
X004470Y004936
X003643
X003870Y004375
X003074Y004600
X003007Y005464
X002497Y005192
X002446Y006017
X003007Y006290
X002587Y006832
X002496Y007710
X001930Y007937
X001316Y008073
X001345Y007352
X000740Y007479
X000434Y007967
X-000971Y007731
X-001798
X-002625
X-003452
X-003152Y008292
X-003035Y008598
X-003116Y009158
X-003421Y009424
X-003397Y009985
X-003579Y010281
X-002753
X-002570Y009985
X-002594Y009424
X-002290Y009158
X-002209Y008598
X-002325Y008292
X-001498
X-001408Y008805
X-003862Y008598
X-003979Y008292
X-003943Y009158
X-003815Y007082
X-003682Y004395
X-002855
X-003067Y001658
X-003892Y001710
X-003565Y001098
X-002436Y001123
X-001033Y001588
X-000448Y002173
X000119Y001947
X001523Y002343
X001859Y001886
X002602Y002249
X003428
X004255
X003858Y002810
X003032
X002205
X001288Y003116
X001560Y003897
X000999Y004121
Y004948
X001560Y004724
Y005550
X000999Y005774
Y006601
X001560Y006377
X001912Y007125
X003172Y007417
X003501Y006953
X004086Y007538
X003756Y008001
X003081Y008295
X002514Y008521
X001363Y008898
X000802Y010361
X004859Y007830
X005686
X005475Y007278
X005645Y003878
X005622Y003051
X005084Y003589
X004683Y002865
X005058Y002447
X005128Y-000902
X005949Y-000802
X005597Y-001363
X006363Y-001672
Y-002499
Y-003326
Y-004153
Y-004980
X006924Y-004440
Y-003614
Y-002787
Y-001960
X006691Y-001167
X008108Y-001781
X008027Y-002603
X008588Y-002329
X008957Y-003069
X008424Y-003328
X009144Y-003735
X009971
X009778Y-003174
X010604
X010797Y-003735
X010718Y-004524
X010455Y-005044
X009629Y-005079
X009124Y-004790
X009892Y-004483
X009936Y-001688
X010763
X011173Y-001127
X010346
X009519
X008695Y-001199
X009109Y-001688
X008933Y-000241
X008821Y000320
X008764Y000960
X008638Y001521
X008667Y001924
X008550Y002485
X009377
X009494Y001924
X009464Y001521
X009591Y000960
X009648Y000320
X009760Y-000241
X010587
X010475Y000320
X010418Y000960
X010291Y001521
X010320Y001924
X010203Y002485
X010984Y002758
X011127Y002108
X011118Y001521
X011244Y000960
X011301Y000320
X011414Y-000241
X011431Y-003174
X005202Y-002916
Y-002090
X004641Y-002397
Y-003223
Y-004050
Y-004877
X005202Y-004570
Y-003743
X003725Y-004272
X003164Y-004083
X003397Y-003513
X002456Y-003656
X002684Y-003096
X001859Y-003151
X001733Y-004057
X001268Y-003729
X001148Y-004642
X000098Y-004899
X-000262Y-004143
X-000997Y-004085
X-000847Y-004727
X-001582Y-004670
X-001845Y-004660
X-002525Y-004712
Y-003886
X-001690Y-003848
X-001833Y-003198
X-002414Y-003066
X-002749Y-002608
X-003214Y-002636
X-003775Y-002411
Y-003238
X-003214Y-003463
Y-004289
X-003775Y-004064
Y-004891
X-001105Y-003264
X-000520Y-002679
X000172Y-002916
X000907Y-002974
X000757Y-002331
X001492Y-002389
X001341Y-001746
X002077Y-001804
X001926Y-001162
X002661Y-001220
X002510Y-000577
X003246Y-000635
X003095Y000007
X000418Y-000065
X000649Y-001510
X000064Y-002094
X000323Y-003558
X-001580Y-001439
X-001867Y-000659
X-000995Y-000855
X000133Y003835
X-000091Y004631
X004641Y-001570
X003622Y-005092
X003023Y-004897
X010798Y008270
X011158Y008957
X011231Y009677
X010573Y009542
X010647Y010262
X-004406Y010281
X-004224Y009985
X-004247Y009424
X-004770Y009158
X-005074Y009424
X-005050Y009985
X-005233Y010281
X-006060
X-005877Y009985
X-005901Y009424
X-005597Y009158
X-005516Y008598
X-005632Y008292
X-006459
X-006342Y008598
X-006424Y009158
X-006728Y009424
X-006704Y009985
X-006886Y010281
X-007713
X-007531Y009985
X-007555Y009424
X-007250Y009158
X-007169Y008598
X-007286Y008292
X-008112
X-007996Y008598
X-008077Y009158
X-008381Y009424
X-008357Y009985
X-008540Y010281
X-009367
X-009184Y009985
X-009208Y009424
X-008904Y009158
X-008823Y008598
X-008939Y008292
X-009766
X-009650Y008598
X-009731Y009158
X-010035Y009424
X-010011Y009985
X-010194Y010281
X-011020
X-010838Y009985
X-010862Y009424
X-010557Y009158
X-010476Y008598
X-010509Y007929
X-010054Y007591
X-009477Y007268
X-009239Y007731
X-008412
X-008656Y007367
X-008437Y006806
X-007610
X-007829Y007367
X-007586Y007731
X-006759
X-007002Y007367
X-006783Y006806
X-005956
X-006176Y007367
X-005932Y007731
X-005105
X-005349Y007367
X-004721Y007426
Y006737
X-005130Y006806
X-005433Y006028
X-006259
X-007086
X-007913
X-008740
X-008414Y005468
X-007587
X-006760
X-006896Y004808
X-007477Y004671
Y003982
X-006896Y003844
X-006571Y004326
X-005597Y004386
X-005219Y003971
X-005556Y003217
Y002390
Y001563
Y000736
X-006179Y000438
X-005857Y-000034
X-005850Y-000877
X-005249Y-001069
X-005265Y-000292
X-004664Y-000484
X-004659Y000270
X-004346Y001371
X-004778Y002075
X-004757Y002902
X-004218Y002470
X-004193Y003507
X-004508Y004395
X-004158Y004956
X-004280Y005468
X-005106
X-004985Y004941
X-004606Y006028
X-004140Y006600
Y007564
X-004805Y008292
X-004689Y008598
X-005933Y005468
X-006117Y003743
Y002916
Y002089
Y001262
X-006755Y001607
X-007528Y001579
X-007333Y001016
X-008159Y000989
X-008354Y001550
X-009181
X-008986Y000989
X-009045Y000300
X-009420Y-000338
X-009831Y000044
X-009813Y000989
X-010008Y001550
X-010813Y001365
X-010611Y000774
X-010812Y-000028
X-011373Y-000081
Y-000908
X-010812Y-000855
X-010133Y-000726
Y-001552
X-010812Y-001681
X-011373Y-001734
Y-002561
X-010812Y-002508
X-010133Y-002379
Y-003206
X-010812Y-003335
X-011373Y-003388
Y-004215
X-010812Y-004162
X-010133Y-004033
Y-004859
X-010812Y-004988
X-011373Y-005041
X-012739Y-004346
X-012996Y-003810
X-012288Y-003653
Y-002826
X-012849Y-002996
Y-002170
X-012288Y-002000
Y-001173
X-012849Y-001343
Y-000516
X-012288Y-000346
Y000481
X-012849Y000311
Y001138
X-012288Y001307
X-012029Y002092
X-012316Y002598
X-011444Y002677
X-011731Y003183
X-010860Y003262
X-011147Y003768
X-010275Y003846
X-010562Y004352
X-009690Y004431
X-009254Y004252
X-009106Y005015
X-009393Y005522
X-010425Y005527
X-010646Y006099
X-009841Y006111
X-010061Y006684
X-009256Y006696
X-010638Y007006
X-011093Y007345
X-011142Y008107
X-011867Y008176
X-011727Y007522
X-012451Y007591
X-012311Y006938
X-013036Y007006
X-012896Y006353
X-013620Y006422
X-013480Y005769
X-014205Y005837
X-014065Y005184
X-014790Y005253
X-014650Y004599
X-015374Y004668
X-015234Y004015
X-015959Y004083
X-015819Y003430
X-016544Y003499
X-016403Y002846
X-017128Y002914
X-016988Y002261
X-017554Y002205
Y001379
X-016993Y001434
Y000607
Y-000219
X-017554Y-000275
Y-001102
X-016993Y-001046
Y-001873
X-017554Y-001928
Y-002755
X-016993Y-002700
Y-003526
X-017554Y-003582
Y-004409
X-016993Y-004353
X-015888Y-003091
X-015969Y-002269
Y-001442
Y-000615
Y000212
Y001038
Y001865
X-015409Y001508
Y000681
Y-000146
Y-000972
Y-001799
Y-002626
X-014721Y-003086
X-014440Y-003624
X-015266Y-003637
X-013843Y-003052
X-013794Y-002226
X-014355Y-002344
Y-001518
X-013794Y-001400
X-014355Y-000691
Y000136
Y000963
X-013794Y001081
X-014355Y001789
X-014154Y002591
X-013348Y002603
X-013569Y003176
X-012764Y003188
X-012985Y003760
X-012179Y003773
X-012400Y004345
X-011594Y004357
X-011815Y004930
X-011010Y004942
X-011231Y005514
X-011808Y005837
X-012263Y006175
X-012392Y005252
X-012847Y005591
X-012977Y004668
X-013562Y004083
X-014016Y004422
X-014146Y003499
X-014601Y003837
X-015186Y003252
X-015315Y002329
X-015770Y002668
X-015774Y005227
X-016409Y005385
X-016359Y004642
X-016994Y004800
X-016943Y004058
X-017578Y004216
X-017528Y003473
X-018163Y003631
X-018112Y002889
X-018748Y003047
X-018697Y002304
X-019332Y002462
X-019282Y001719
X-019395Y000900
Y000074
Y-000753
X-019640Y-001543
X-019228Y003771
X-019587Y004205
X-018643Y004356
X-019003Y004790
X-018059Y004941
X-018418Y005374
X-017474Y005525
X-017834Y005959
X-016889Y006110
X-017249Y006543
X-016964Y007319
X-016962Y008146
X-016403Y007605
Y006778
X-015825Y005970
X-015189Y005812
X-015240Y006554
X-014605Y006396
X-014655Y007139
X-014020Y006981
X-014071Y007723
X-013436Y007565
X-012851Y008150
X-012902Y008893
X-012266Y008735
X-012317Y009477
X-011682Y009319
X-011665Y009985
X-011847Y010281
X-012674
X-013501
X-014310Y010113
X-015265Y009952
X-014895Y009528
X-015849Y009367
X-015479Y008944
X-016434Y008783
X-016064Y008359
X-018224Y008356
X-018784Y008137
X-018853Y007477
X-018164
X-018026Y006896
X-018509Y006571
X-018991Y006896
X-019242Y008826
X-018673Y009050
X-019258Y009635
X-011282Y008760
X-011678Y006760
X-011223Y006422
X-009977Y004937
X-008510Y004611
X-008389Y004050
X-008903Y003402
X-009464Y003452
X-009074Y002723
X-008274Y002515
X-008143Y003076
X-007317Y003037
X-007455Y002403
X-006752Y002434
X-006764Y-000147
X-006442Y-000618
X-007027Y-001203
X-007052Y-002029
Y-002856
Y-003683
Y-004509
X-007613Y-004822
X-008096Y-005002
X-008656Y-004789
Y-003963
X-008096Y-004175
X-007613Y-003995
Y-003168
X-008096Y-003349
X-008656Y-003136
Y-002309
X-008096Y-002522
X-007613Y-002341
Y-001514
X-008096Y-001695
X-008656Y-001482
Y-000655
X-008096Y-000868
X-008305Y-000068
X-009572Y-001151
Y-001978
Y-002804
Y-003631
Y-004458
X-006166Y-004121
X-005605Y-004295
Y-003468
X-006166Y-003294
Y-002467
X-005605Y-002641
Y-001814
X-006166Y-001641
Y-004948
X-013324Y-004931
X-014165Y-004979
X-012846Y001964
X-019908Y001869
X-019956Y001043
Y000217
X-020267Y-001376
X-020224Y-002127
X-020851Y-001961
X-020809Y-002712
X-021617Y-002889
X-021592Y-002328
X-022419
X-022444Y-002889
X-023270
X-023246Y-002328
X-024072
X-024097Y-002889
X-024924
X-024899Y-002328
X-025726
X-025751Y-002889
X-026519Y-003195
X-027131Y-003014
X-027338Y-003815
X-026777Y-003980
X-026673Y-004801
X-027338Y-004641
X-026546Y-002429
X-026563Y001462
X-025736
X-024910
X-024083
X-023256
X-022429
X-021603Y001472
X-022048Y002023
X-022875
X-023702
X-024529
X-025355
X-026182
X-027009
X-027836
X-028216Y001502
X-027390Y001462
X-028811Y002076
X-028481Y002539
X-029395Y002660
X-029066Y003124
X-029119Y003949
Y004776
X-029680Y005090
Y004263
Y003437
X-029212Y005771
X-028701Y005489
X-028627Y006356
X-028117Y006074
X-027874Y006698
X-027048
X-027292Y006137
X-026465
X-026221Y006698
X-025394
X-025639Y006137
X-024812
X-024567Y006698
X-023740
X-023985Y006137
X-023201Y005875
X-022959Y006427
X-022375Y005842
X-022616Y005290
X-021790Y005258
X-022032Y004706
X-021779Y004363
X-021466Y003855
X-020896Y003966
X-020784Y004537
X-021292Y004850
X-020757Y003036
X-020397Y002602
X-021341Y002451
X-020982Y002017
X-019812Y003187
X-020172Y003620
X-019826Y009410
X-020002Y009995
X-020829
X-020653Y009434
X-021480
X-021655Y009995
X-022482
X-022306Y009434
X-023133
X-023309Y009995
X-024136
X-023960Y009434
X-024787
X-024962Y009995
X-025789
X-025613Y009434
X-026440
X-026616Y009995
X-027443
X-027267Y009434
X-028094
X-028269Y010014
X-028839Y009791
X-029424Y010376
X-028854Y010599
X-029277Y011309
X-029838Y011092
Y011919
X-029277Y012136
Y012963
X-029838Y012745
X-029574Y013529
X-028728Y013582
X-028990Y014114
X-028259Y014500
X-027432
X-026605
X-027156Y013939
X-027983
X-025884Y014096
X-025763Y013181
X-025299Y013511
X-025178Y012597
X-024715Y012926
X-024594Y012012
X-024130Y012342
X-023936Y011511
X-023110
X-023349Y012072
X-022522
X-022283Y011511
X-021456
X-021695Y012072
X-020868
X-020629Y011511
X-019802
X-020042Y012072
X-020485Y013991
X-020377Y014552
X-021204
X-021312Y013991
X-022139
X-022031Y014552
X-022843Y014706
X-022963Y014047
X-023555Y014625
X-023427Y015291
X-024139Y015209
X-024012Y015875
X-024724Y015794
X-024597Y016460
X-025308Y016378
X-025181Y017044
X-025893Y016963
X-025766Y017629
X-026478Y017548
X-026351Y018214
X-027056Y018139
X-027111Y018964
X-026550Y019016
Y019843
X-027111Y019791
Y020617
X-026550Y020670
Y021496
X-027111Y021444
Y022271
X-026550Y022323
Y023150
X-027111Y023098
Y023924
X-026550Y023977
X-026765Y024675
X-026029Y024618
X-026180Y025260
X-025333Y025064
X-025438Y025625
X-024612
X-024506Y025064
X-023679
X-023785Y025625
X-022958
X-022852Y025064
X-022115Y024690
X-021555Y024924
X-021540Y024096
X-020996Y024315
X-020979Y023488
X-021540Y023269
Y022442
X-020979Y022662
Y021835
X-021540Y021615
Y020789
X-020979Y021008
Y020181
X-021540Y019962
Y019135
X-021609Y018894
X-020920
X-020979Y019354
X-020782Y018313
X-021264Y017989
X-021747Y018313
X-022140Y025509
X-018784Y025158
X-018224Y025374
Y024547
X-018784Y024332
Y023505
X-018224Y023720
Y022894
X-018784Y022678
X-018853Y021650
X-018164
X-018224Y022067
X-018026Y021069
X-018509Y020745
X-018991Y021069
X-016471Y020893
Y020067
Y019240
X-015911Y018841
Y019668
Y020495
Y021321
Y022148
Y022975
Y023802
Y024628
Y025455
X-016471Y025854
Y025027
Y024200
Y023374
Y022547
Y021720
X-014424Y021914
Y021087
Y020261
Y019434
X-013863Y019766
Y020593
Y021420
Y022246
Y023073
Y023900
Y024727
Y025554
X-014424Y025221
Y024395
Y023568
Y022741
X-011845Y022649
Y021822
Y020995
X-011039Y020756
X-011384Y020309
X-010454Y020171
X-010800Y019724
X-009991Y019552
X-009164
X-008338
X-007511
X-006684
X-005857
X-005500Y020030
X-006322Y020113
X-007149
X-007976
X-008802
X-009629
X-009608Y021504
X-009108Y021798
X-008969Y020980
X-008142Y020979
X-008323Y021540
X-007496
X-007315Y020979
X-006488
X-006669Y021540
X-005842
X-005662Y020979
X-004721Y020911
Y021600
X-005015Y021540
X-004140Y021737
Y020773
X-004915Y019445
X-005252Y018989
X-004338Y018853
X-004286Y018028
X-004847Y018268
Y017441
X-004286Y017201
Y016374
X-004847Y016615
Y015788
X-004286Y015548
X-004148Y014733
X-004447Y014238
X-005349Y014110
X-006086Y014483
X-006913
X-007740
X-008567
X-009393
X-010220
X-011047
X-010687Y013922
X-010861Y013361
X-010929Y012800
X-010947Y012072
X-010708Y011511
X-010605Y010841
X-011431
X-011535Y011511
X-011774Y012072
X-011756Y012800
X-011688Y013361
X-011514Y013922
X-012231Y014334
X-011835Y014732
X-012420Y015317
X-013005Y015901
X-013985Y016088
X-013589Y016486
X-014569Y016673
X-014174Y017070
X-015154Y017257
X-014758Y017655
X-015738Y017842
X-015343Y018240
X-016323Y018426
X-014107Y018671
X-013619Y018976
X-013522Y018086
X-013034Y018392
X-012937Y017501
X-012450Y017807
X-012353Y016917
X-011865Y017222
X-011768Y016332
X-011281Y016638
X-011125Y015812
X-010299
X-010497Y016373
X-009671
X-009472Y015812
X-008645
X-008844Y016373
X-008027Y016503
X-007824Y015913
X-007240Y016497
X-007443Y017088
X-006806Y017201
X-006737Y018114
X-007426
X-007564Y018694
X-007082Y019019
X-006600Y018694
X-006553Y013922
X-006727Y013361
X-006796Y012800
X-006813Y012072
X-007640
X-007622Y012800
X-008449
X-008381Y013361
X-008207Y013922
X-007380
X-009034
X-009860
X-010034Y013361
X-010103Y012800
X-010120Y012072
X-009881Y011511
X-009778Y010841
X-008951
X-009054Y011511
X-009294Y012072
X-009276Y012800
X-008467Y012072
X-008228Y011511
X-008124Y010841
X-007298
X-007401Y011511
X-006588Y011359
X-006471Y010841
X-005644
X-005807Y011088
X-004980
X-004817Y010841
X-004154Y011088
X-004443Y011649
X-004590Y011895
X-004542Y012456
X-005368Y012487
X-005417Y011895
X-005270Y011649
X-006096Y011660
X-006073Y012399
X-005953Y013072
X-005167Y013135
X-004764Y013525
X-004847Y014961
X-005227Y023804
X-006053
X-006880
X-007707
X-008534
X-008166Y024365
X-007339
X-006512
X-005685
X-004861Y024433
X-004441Y024060
X-004395Y025116
Y025942
X-008992Y024340
X-009595Y023774
X-009225Y023351
X-009444Y022554
X-010005Y022230
Y023056
X-011285Y023199
Y024026
Y024852
Y025679
X-011845Y025956
Y025129
Y024302
Y023475
X-011285Y022372
Y021545
X-014424Y026048
X-018784Y025985
X-018723Y014552
X-018831Y013991
X-018005
X-017897Y014552
X-017070
X-017178Y013991
X-016351
X-015524
X-015416Y014552
X-015081Y012072
X-014842Y011511
X-014015
X-013912Y010841
X-013085
X-013188Y011511
X-013428Y012072
X-014254
X-015908
X-015669Y011511
X-016495
X-016735Y012072
X-017561
X-017322Y011511
X-018149
X-018388Y012072
X-019215
X-018976Y011511
X-019658Y013991
X-019550Y014552
X-013188Y013841
X-013318Y013178
X-012514Y013361
X-012583Y012800
X-012601Y012072
X-012362Y011511
X-012258Y010841
X-003990
X-003164
X-003327Y011088
X-003616Y011649
X-003763Y011895
X-003715Y012456
X-004016Y013172
X-003862Y013653
X-003564Y014148
X-002982Y013878
X-002981Y013233
X-002431Y013386
X-002239Y012880
X-001914Y012447
X-001511Y012093
X-001048Y011817
X-000536Y011650
X-000673Y010973
X-001320Y011203
X-001880Y011575
X-002399Y012014
X-002937Y011895
X-002789Y011649
X-002743Y012625
X-002342Y010931
X000670Y010975
X000537Y011650
X001048Y011817
X001557Y012044
X002022Y012361
X002318Y012842
X002466Y013372
X002638Y013907
X002079Y014039
X002286Y014266
X002121Y015011
X002682Y014992
Y015819
X002121Y015838
Y016665
X001602Y016696
X002682Y016646
Y017472
X002121Y017492
Y018318
X002682Y018299
Y019126
X002121Y019145
X001602Y019137
Y020358
X002121Y019972
X002682Y019953
Y020780
X002121Y020799
Y021626
X001602Y021578
X002682Y021606
Y022433
X002121Y022452
Y023279
X002692Y023260
X002595Y023956
X002096Y023915
X001678Y024743
X001602Y025704
X001121Y026015
X001018Y025119
X000536Y025431
X000433Y024535
X-000049Y024846
X-000310Y024062
Y023235
Y022408
Y021581
Y020755
Y019928
Y019101
Y018274
Y017447
Y016621
X000251Y017114
Y017941
Y018768
Y019594
Y020421
Y021248
Y022075
Y022901
Y023728
X001602Y022799
X003903Y022425
X004464Y022685
Y021858
X003903Y021598
Y020771
X004464Y021031
Y020204
X003903Y019944
X004095Y019140
X004633Y019395
X004680Y018556
X005218Y018811
X005437Y018224
X006264
X006696Y018155
Y018844
X006044Y018784
X007277Y018982
X007602Y018499
X007277Y018017
X007013Y017121
X007195Y016560
X006368
X006186Y017121
X005360
X005542Y016560
X004715
X004533Y017121
X003732Y016914
X003925Y016314
X003351Y016181
X003601Y015392
X004334Y015595
X004346Y015035
X005137Y015398
X005005Y014535
X005566Y014691
X005459Y013871
X004459Y013740
X004874Y013287
X004873Y012944
X004700Y012383
X005527
X005700Y012944
X006524Y013013
X007081Y012777
X007134Y012206
X007396Y011645
X007138Y011320
X006311
X006569Y011645
X005742
X005484Y011320
X004657
X004915Y011645
X004089
X003831Y011320
X003004Y011333
X003262Y011645
X003424Y010759
X004250
X005077
X005904
X006731
X007557
X008384
X009211
X010038
X010864
X011272Y011320
X010445
X009618
X008791
X007964
X008222Y011665
X007960Y012206
X008828Y012227
X008571Y012763
X009385Y012908
X009646Y012348
X010473
X010212Y012908
X011038
X011300Y012348
X010730Y013962
X010927Y014523
X010100
X009904Y013962
X009077
X009273Y014523
X008446
X008250Y013946
X007693Y014182
X007666Y013361
X007108Y013597
X006354Y012383
X003873
X004076Y013072
X003258Y013194
X003445Y013740
X003056Y012505
X002460Y011936
X001981Y011476
X001854Y010769
X001363Y010551
X001318Y011142
X002614Y010929
X001585Y015476
X000462Y015691
X-000645Y015902
X-001677Y015966
X-002413Y016029
X-003009Y016226
X-003273Y015442
X-002712Y015258
X-003112Y014631
X-002256Y014568
X-001639Y015153
X-001954Y016717
X-002515Y016888
Y017715
X-001954Y017543
Y018370
X-002515Y018542
Y019369
X-001954Y019197
Y020024
X-002515Y020195
Y021022
X-001954Y020850
Y021677
X-002515Y021849
Y022676
X-001954Y022504
Y023331
X-002515Y023503
Y024329
X-001954Y024157
Y024984
X-002515Y025156
Y025983
X-001954Y025811
X-000660Y025649
X002541Y025606
X002959Y024778
X003180Y024541
X003861Y024429
X003764Y025126
X003822Y025641
X004349Y025710
X004446Y025014
X005243Y025231
X005172Y025792
X005999
X006070Y025231
X006897
X006825Y025792
X007652
X007724Y025231
X008550
X008479Y025792
X009306
X009377Y025231
X010204
X010132Y025792
X010959
X011031Y025231
X010871Y023971
X010045
X009218
X009496Y023411
X010323
X011150
X010748Y022377
X010630Y021651
X010362Y021292
X010049Y020784
X009478Y020896
X009367Y021466
X009875Y021779
X011440Y021816
X011383Y019293
X010319Y019231
X009775Y018981
X009580Y019601
X008786Y019370
X008977Y018767
X008401Y018638
Y017812
X008962Y017941
X008612Y017192
X007835Y017208
X008020Y016614
X009985Y016528
X010546Y016782
Y017609
X009985Y017355
Y018182
X010546Y018436
X010468Y015857
X011017Y016103
X011128Y015359
X008345Y021564
X008401Y022389
X007840Y022258
X007872Y023085
X008710Y023155
X008443Y023682
X006291Y023505
X005880Y023123
X005064Y023253
X004698Y023792
X005524Y023814
X004092Y023229
X003276Y023844
X006166Y022347
X006727Y021976
Y022803
X006292Y021530
X007430Y021540
X007743Y020997
X006916Y020988
X001602Y017917
X-003815Y021255
X-003868Y024657
X-003834Y025483
X011786Y025792
X011857Y025231
X012684
X012613Y025792
X013440
X013511Y025231
X014338
X014266Y025792
X015092Y025748
X015113Y024945
X015659Y025146
X015674Y024320
X016747Y024334
Y023507
Y022680
X017308Y023169
Y023995
X017372Y024820
X016904Y025145
X017489Y025730
X018311Y025822
X018071Y025261
X018898
X019137Y025822
X019963Y025778
X019724Y025243
X020557Y025204
X020241Y024598
X020802Y024414
Y023587
X020241Y023771
Y022945
X020802Y022760
Y021934
X020241Y022118
Y021291
X020802Y021107
Y020280
X020241Y020464
Y019637
X020802Y019453
X021227Y019023
X021736Y018710
X021624Y018140
X021053Y018028
X020740Y018536
X020511Y018856
X019075Y018809
Y019636
Y020463
X018514Y020043
Y019216
X018645Y018400
X019229Y017815
X019636Y018202
X019814Y017230
X020220Y017617
X020950Y017229
X021777
X022604Y017222
X022085Y016668
X021258
X020432Y016680
X020418Y015654
X020316Y015094
X021143
X021245Y015654
X022072
X021970Y015094
X022790Y015198
X022731Y016153
X023292Y015855
X023227Y016679
X024109Y017017
X024670Y017138
Y017965
X024109Y017844
X023731Y018579
X023784Y019320
X023146Y019164
X023199Y019904
X022562Y019748
X022615Y020489
X021977Y020333
X021895Y021156
X022456Y021300
Y022127
X021895Y021982
Y022809
X022456Y022954
Y023780
X021895Y023636
Y024463
X022456Y024607
X022061Y025273
X022891Y025310
X022646Y025857
X023468Y025940
X023715Y025379
X024294Y025890
X024435Y024972
X024886Y025314
X025591Y025591
Y024803
X025152Y024531
Y023704
X025591Y024016
Y023228
Y022441
Y021654
Y020866
Y020079
Y019291
Y018504
Y017717
Y016929
X026009Y016599
X026311Y016038
X026890Y015915
X026901Y016729
X026289Y017224
X025288Y016196
X024670Y016312
X024109Y016190
Y015364
X024670Y015485
X025133Y015384
X025694Y015488
Y014661
X025133Y014557
Y013730
X024670Y013831
Y013005
X025133Y012904
X025694Y013008
X026117Y012852
Y012025
X025694Y012181
X025133Y012077
Y011250
X025694Y011354
X026117Y011198
X026678Y011543
Y012370
Y013197
X026758Y014252
X025694Y013835
X024109Y014537
X024017Y012888
X024228Y012306
X023360Y012387
X023555Y011826
X022728
X022534Y012387
X021707
X021901Y011826
X021075
X020908Y012599
X020404Y012310
X020162Y013100
X019858Y013869
X020369Y014152
X019599Y014454
X019489Y015094
X019591Y015654
X018765
X018663Y015094
X018781Y014335
X019035Y013796
X018196Y013750
X018450Y013211
X017612Y013166
X017866Y012627
X017087Y012348
X016826Y012908
X015999
X016261Y012348
X015434
X015172Y012908
X014346
X014607Y012348
X013519Y012908
X012692
X012954Y012348
X012127
X011865Y012908
X011557Y013962
X011753Y014523
X012580
X012384Y013962
X013211
X013407Y014523
X014234
X014037Y013962
X014864
X015060Y014523
X015887
X015691Y013962
X016518
X016714Y014523
X017296Y014242
X017332Y015071
X017880Y014826
X017938Y015634
X017468Y016402
X017291Y017018
X017938Y017082
X017868Y017906
X017154Y017834
X017278Y018485
X016453Y018532
X016338Y017971
X015512
X015626Y018532
X014799
X014685Y017971
X013858
X013973Y018532
X013146
X013031Y017971
X012205
X012319Y018532
X011556Y018484
X011944Y019269
X011797Y020008
X012601Y020202
X012682Y019641
X013509
X013427Y020202
X014254
X014336Y019641
X015160Y019704
X015060Y020387
X015749Y020284
X015841Y021106
X015281Y021184
X015539Y021875
X014747Y021816
X013921
X014055Y022377
X013229
X013094Y021816
X012267
X012402Y022377
X011575
X011976Y023411
X012803
X012525Y023971
X011698
X013352
X014178
X014457Y023411
X015260Y023604
X017264Y022035
X017667Y022424
X017848Y021450
X018252Y021839
X018433Y020865
X018837Y021255
X023540Y021466
X023651Y020896
X024222Y020784
X024535Y021292
X024048Y021779
X024592Y022506
Y023333
Y024160
X025152Y022877
X025139Y022051
X024368Y018735
X023881Y010551
X023261Y011097
X022434Y011107
X022515Y010546
X021608Y011068
X019384Y010838
X018712Y011320
X017886
X017059
X016232
X015405
X014998Y010759
X015825
X016652
X017479
X018305
X014172
X013345
X012518
X011691
X012098Y011320
X012925
X013752
X013368Y016166
X013210Y016727
X014037
X014195Y016166
X015022
X014864Y016727
X015690
X015848Y016166
X016675
X016517Y016727
X012410Y016518
X012586Y015900
X011826Y015933
X011955Y015365
X025694Y010528
X026678Y010716
X026374Y025582
X027370Y025438
X027215Y026019
X027985Y025991
X028494Y025807
X029124Y025758
X029348Y026092
X030209Y026024
X029897Y025473
X030458Y025235
Y024409
X029897Y024646
Y023819
X030458Y023582
Y022755
X029897Y022992
Y022166
X030458Y021928
Y021102
Y020275
X029897Y020512
Y019685
X030458Y019448
Y018621
X029897Y018859
Y018032
X030458Y017795
Y016968
X029897Y017205
Y016378
X029646Y016161
X030458Y016141
Y015314
X029897Y015552
Y014725
X030458Y014487
X030396Y013663
X029850Y013899
X029381Y013839
X028514Y013804
X028937Y013183
X029817Y013073
X029717Y012599
X029564Y011596
X029227Y010887
X028666Y010913
X028657Y011740
X028012Y011752
X027992Y011218
X028158Y012599
X028009Y014641
X027573Y014268
X028523Y015315
X028853Y015651
X028799Y015974
X028504Y016673
X028253Y016911
X028533Y017234
X029094Y017018
X028549Y026304
X028839Y026865
X028818Y027318
X028853Y027879
X028075Y027680
X028016Y026952
X027734Y026441
X029625Y026609
X029656Y027490
X028184Y028365
X027490Y028265
X027749Y029068
X027188Y029034
X027484Y029851
X026786Y029757
X026860Y030393
X026589Y030401
X025728Y030433
X025965Y029783
X025138Y029840
X024947Y029459
X025453Y028917
X026309Y028681
X025980Y028195
X026847Y028121
X026565Y027610
X027149Y027026
X024060Y027133
X023100Y026380
X021879
X020659
X019438
X018218
X016997
X015777
X014556
X013336
X012115
X011633Y027291
X012853
X012966Y028374
X013160Y028935
X012333
X012139Y028374
X011912Y029791
X013132
X014353
X015573
X015640Y028935
X015446Y028374
X016273
X016467Y028935
X017294
X017100Y028374
X017927
X018121Y028935
X018947
X018753Y028374
X019580
X019774Y028935
X020601
X020407Y028374
X021234
X021428Y028935
X022160Y029318
X022648Y029013
X023450Y028853
X024362Y028679
X025043Y028191
X024362Y030238
X022058Y028434
X021397Y027291
X020176
X018956
X017735
X016515
X015294
X014619Y028374
X014814Y028935
X013987
X013793Y028374
X016794Y029791
X018014
X019827Y030134
X010691Y029791
X010680Y028935
X010486Y028374
X011312
X011506Y028935
X009853
X009659Y028374
X008832
X009026Y028935
X008199
X008005Y028374
X007179
X007373Y028935
X006546
X006352Y028374
X005525
X005719Y028935
X004892
X004698Y028374
X003941Y028042
X003459Y028354
X003356Y027458
X002874Y027769
X002772Y026873
X002290Y027184
X002187Y026288
X001705Y026600
X003404Y026469
X004793Y026380
X006013
X007234
X008454
X009675
X010895
X010412Y027291
X009192
X007972
X006751
X005531
X004310Y027286
X004066Y028915
X004589Y029791
X005809
X007030
X008250
X009471
X003368
X002152Y029691
X002122Y030573
X001375Y030045
X001289Y028828
X000512Y029182
X-000351Y028319
X-000437Y027102
X-001954Y027465
Y028291
X-002515Y028463
X-002839Y029224
X-002543Y029721
X-003423Y029808
X-003128Y030306
X-003949Y030399
X-001978Y029118
X-001954Y026638
X-002515Y026810
X-003955Y026301
X-004540Y026885
X-004977Y026529
X-005804Y026540
X-006630
X-007457
X-008284
X-008640Y027196
X-009061Y026824
X-009224Y027780
X-009645Y027408
X-009857Y028207
Y029034
X-009296Y028604
X-009087Y029404
X-009503Y029781
X-008909Y030356
X-008083Y030399
X-007256
X-006430
X-005603
X-004776
X-005076Y029838
X-004250
X-005903
X-006730
X-007557
X-008384
X-007818Y027101
X-006992
X-006165
X-005338
X-011285Y027333
Y028159
X-011845Y028436
X-011319Y028986
X-012257Y029153
X-011892Y029582
X-012675Y029847
X-013502Y029840
X-013073Y029286
X-014128Y029300
X-013779Y028856
X-013863Y028034
Y027207
Y026380
X-014424Y026875
Y027702
Y028528
X-015911Y028762
Y027936
Y027109
Y026282
X-016471Y026681
Y027508
Y028334
X-016835Y029077
X-016397Y029431
X-016981Y030016
X-017420Y029661
X-017606Y030558
X-018535Y030566
X-019361
X-018999Y030005
X-018172
X-018624Y027751
X-019195Y027529
X-019209Y028335
X-018784Y026812
X-018224Y027028
Y026201
X-011845Y026782
X-011285Y026506
X-019780Y028114
X-019890Y028804
X-020717
X-020597Y028243
X-021423
X-021543Y028804
X-022342Y029018
X-022888Y028771
X-023036Y029584
X-022290Y029843
X-022625Y030301
X-021842Y030566
X-021015
X-020188
X-019825Y030005
X-020652
X-021479
X-022250Y028244
M30
