G04 Layer_Color=16711935*
%FSLAX25Y25*%
%MOIN*%
G70*
G01*
G75*
%ADD15C,0.05118*%
%ADD23C,0.00394*%
%ADD76C,0.04724*%
%ADD77C,0.24810*%
%ADD78C,0.06306*%
G04:AMPARAMS|DCode=79|XSize=63.06mil|YSize=63.06mil|CornerRadius=4.95mil|HoleSize=0mil|Usage=FLASHONLY|Rotation=0.000|XOffset=0mil|YOffset=0mil|HoleType=Round|Shape=RoundedRectangle|*
%AMROUNDEDRECTD79*
21,1,0.06306,0.05315,0,0,0.0*
21,1,0.05315,0.06306,0,0,0.0*
1,1,0.00991,0.02658,-0.02658*
1,1,0.00991,-0.02658,-0.02658*
1,1,0.00991,-0.02658,0.02658*
1,1,0.00991,0.02658,0.02658*
%
%ADD79ROUNDEDRECTD79*%
G04:AMPARAMS|DCode=80|XSize=27.62mil|YSize=27.62mil|CornerRadius=4.36mil|HoleSize=0mil|Usage=FLASHONLY|Rotation=270.000|XOffset=0mil|YOffset=0mil|HoleType=Round|Shape=RoundedRectangle|*
%AMROUNDEDRECTD80*
21,1,0.02762,0.01890,0,0,270.0*
21,1,0.01890,0.02762,0,0,270.0*
1,1,0.00872,-0.00945,-0.00945*
1,1,0.00872,-0.00945,0.00945*
1,1,0.00872,0.00945,0.00945*
1,1,0.00872,0.00945,-0.00945*
%
%ADD80ROUNDEDRECTD80*%
G04:AMPARAMS|DCode=81|XSize=27.62mil|YSize=27.62mil|CornerRadius=4.36mil|HoleSize=0mil|Usage=FLASHONLY|Rotation=180.000|XOffset=0mil|YOffset=0mil|HoleType=Round|Shape=RoundedRectangle|*
%AMROUNDEDRECTD81*
21,1,0.02762,0.01890,0,0,180.0*
21,1,0.01890,0.02762,0,0,180.0*
1,1,0.00872,-0.00945,0.00945*
1,1,0.00872,0.00945,0.00945*
1,1,0.00872,0.00945,-0.00945*
1,1,0.00872,-0.00945,-0.00945*
%
%ADD81ROUNDEDRECTD81*%
G04:AMPARAMS|DCode=82|XSize=23.69mil|YSize=23.69mil|CornerRadius=4.46mil|HoleSize=0mil|Usage=FLASHONLY|Rotation=180.000|XOffset=0mil|YOffset=0mil|HoleType=Round|Shape=RoundedRectangle|*
%AMROUNDEDRECTD82*
21,1,0.02369,0.01476,0,0,180.0*
21,1,0.01476,0.02369,0,0,180.0*
1,1,0.00892,-0.00738,0.00738*
1,1,0.00892,0.00738,0.00738*
1,1,0.00892,0.00738,-0.00738*
1,1,0.00892,-0.00738,-0.00738*
%
%ADD82ROUNDEDRECTD82*%
G04:AMPARAMS|DCode=83|XSize=27.62mil|YSize=22.5mil|CornerRadius=3.85mil|HoleSize=0mil|Usage=FLASHONLY|Rotation=315.000|XOffset=0mil|YOffset=0mil|HoleType=Round|Shape=RoundedRectangle|*
%AMROUNDEDRECTD83*
21,1,0.02762,0.01480,0,0,315.0*
21,1,0.01992,0.02250,0,0,315.0*
1,1,0.00770,0.00181,-0.01228*
1,1,0.00770,-0.01228,0.00181*
1,1,0.00770,-0.00181,0.01228*
1,1,0.00770,0.01228,-0.00181*
%
%ADD83ROUNDEDRECTD83*%
G04:AMPARAMS|DCode=84|XSize=27.62mil|YSize=22.5mil|CornerRadius=3.85mil|HoleSize=0mil|Usage=FLASHONLY|Rotation=225.000|XOffset=0mil|YOffset=0mil|HoleType=Round|Shape=RoundedRectangle|*
%AMROUNDEDRECTD84*
21,1,0.02762,0.01480,0,0,225.0*
21,1,0.01992,0.02250,0,0,225.0*
1,1,0.00770,-0.01228,-0.00181*
1,1,0.00770,0.00181,0.01228*
1,1,0.00770,0.01228,0.00181*
1,1,0.00770,-0.00181,-0.01228*
%
%ADD84ROUNDEDRECTD84*%
G04:AMPARAMS|DCode=85|XSize=27.62mil|YSize=22.5mil|CornerRadius=3.85mil|HoleSize=0mil|Usage=FLASHONLY|Rotation=0.000|XOffset=0mil|YOffset=0mil|HoleType=Round|Shape=RoundedRectangle|*
%AMROUNDEDRECTD85*
21,1,0.02762,0.01480,0,0,0.0*
21,1,0.01992,0.02250,0,0,0.0*
1,1,0.00770,0.00996,-0.00740*
1,1,0.00770,-0.00996,-0.00740*
1,1,0.00770,-0.00996,0.00740*
1,1,0.00770,0.00996,0.00740*
%
%ADD85ROUNDEDRECTD85*%
G04:AMPARAMS|DCode=86|XSize=23.69mil|YSize=27.62mil|CornerRadius=3.97mil|HoleSize=0mil|Usage=FLASHONLY|Rotation=270.000|XOffset=0mil|YOffset=0mil|HoleType=Round|Shape=RoundedRectangle|*
%AMROUNDEDRECTD86*
21,1,0.02369,0.01969,0,0,270.0*
21,1,0.01575,0.02762,0,0,270.0*
1,1,0.00794,-0.00984,-0.00787*
1,1,0.00794,-0.00984,0.00787*
1,1,0.00794,0.00984,0.00787*
1,1,0.00794,0.00984,-0.00787*
%
%ADD86ROUNDEDRECTD86*%
G04:AMPARAMS|DCode=87|XSize=16.21mil|YSize=17.39mil|CornerRadius=5.17mil|HoleSize=0mil|Usage=FLASHONLY|Rotation=90.000|XOffset=0mil|YOffset=0mil|HoleType=Round|Shape=RoundedRectangle|*
%AMROUNDEDRECTD87*
21,1,0.01621,0.00704,0,0,90.0*
21,1,0.00586,0.01739,0,0,90.0*
1,1,0.01035,0.00352,0.00293*
1,1,0.01035,0.00352,-0.00293*
1,1,0.01035,-0.00352,-0.00293*
1,1,0.01035,-0.00352,0.00293*
%
%ADD87ROUNDEDRECTD87*%
G04:AMPARAMS|DCode=88|XSize=16.21mil|YSize=17.39mil|CornerRadius=5.17mil|HoleSize=0mil|Usage=FLASHONLY|Rotation=180.000|XOffset=0mil|YOffset=0mil|HoleType=Round|Shape=RoundedRectangle|*
%AMROUNDEDRECTD88*
21,1,0.01621,0.00704,0,0,180.0*
21,1,0.00586,0.01739,0,0,180.0*
1,1,0.01035,-0.00293,0.00352*
1,1,0.01035,0.00293,0.00352*
1,1,0.01035,0.00293,-0.00352*
1,1,0.01035,-0.00293,-0.00352*
%
%ADD88ROUNDEDRECTD88*%
G04:AMPARAMS|DCode=89|XSize=27.62mil|YSize=22.5mil|CornerRadius=3.85mil|HoleSize=0mil|Usage=FLASHONLY|Rotation=270.000|XOffset=0mil|YOffset=0mil|HoleType=Round|Shape=RoundedRectangle|*
%AMROUNDEDRECTD89*
21,1,0.02762,0.01480,0,0,270.0*
21,1,0.01992,0.02250,0,0,270.0*
1,1,0.00770,-0.00740,-0.00996*
1,1,0.00770,-0.00740,0.00996*
1,1,0.00770,0.00740,0.00996*
1,1,0.00770,0.00740,-0.00996*
%
%ADD89ROUNDEDRECTD89*%
G04:AMPARAMS|DCode=90|XSize=23.69mil|YSize=27.62mil|CornerRadius=3.97mil|HoleSize=0mil|Usage=FLASHONLY|Rotation=180.000|XOffset=0mil|YOffset=0mil|HoleType=Round|Shape=RoundedRectangle|*
%AMROUNDEDRECTD90*
21,1,0.02369,0.01969,0,0,180.0*
21,1,0.01575,0.02762,0,0,180.0*
1,1,0.00794,-0.00787,0.00984*
1,1,0.00794,0.00787,0.00984*
1,1,0.00794,0.00787,-0.00984*
1,1,0.00794,-0.00787,-0.00984*
%
%ADD90ROUNDEDRECTD90*%
G04:AMPARAMS|DCode=91|XSize=23.69mil|YSize=27.62mil|CornerRadius=3.97mil|HoleSize=0mil|Usage=FLASHONLY|Rotation=315.000|XOffset=0mil|YOffset=0mil|HoleType=Round|Shape=RoundedRectangle|*
%AMROUNDEDRECTD91*
21,1,0.02369,0.01969,0,0,315.0*
21,1,0.01575,0.02762,0,0,315.0*
1,1,0.00794,-0.00139,-0.01253*
1,1,0.00794,-0.01253,-0.00139*
1,1,0.00794,0.00139,0.01253*
1,1,0.00794,0.01253,0.00139*
%
%ADD91ROUNDEDRECTD91*%
%ADD92C,0.04337*%
G04:AMPARAMS|DCode=93|XSize=45.34mil|YSize=92.58mil|CornerRadius=6.13mil|HoleSize=0mil|Usage=FLASHONLY|Rotation=90.000|XOffset=0mil|YOffset=0mil|HoleType=Round|Shape=RoundedRectangle|*
%AMROUNDEDRECTD93*
21,1,0.04534,0.08032,0,0,90.0*
21,1,0.03307,0.09258,0,0,90.0*
1,1,0.01227,0.04016,0.01654*
1,1,0.01227,0.04016,-0.01654*
1,1,0.01227,-0.04016,-0.01654*
1,1,0.01227,-0.04016,0.01654*
%
%ADD93ROUNDEDRECTD93*%
G04:AMPARAMS|DCode=94|XSize=45.34mil|YSize=47.31mil|CornerRadius=6.13mil|HoleSize=0mil|Usage=FLASHONLY|Rotation=90.000|XOffset=0mil|YOffset=0mil|HoleType=Round|Shape=RoundedRectangle|*
%AMROUNDEDRECTD94*
21,1,0.04534,0.03504,0,0,90.0*
21,1,0.03307,0.04731,0,0,90.0*
1,1,0.01227,0.01752,0.01654*
1,1,0.01227,0.01752,-0.01654*
1,1,0.01227,-0.01752,-0.01654*
1,1,0.01227,-0.01752,0.01654*
%
%ADD94ROUNDEDRECTD94*%
G04:AMPARAMS|DCode=95|XSize=33.07mil|YSize=12.6mil|CornerRadius=2.4mil|HoleSize=0mil|Usage=FLASHONLY|Rotation=90.000|XOffset=0mil|YOffset=0mil|HoleType=Round|Shape=RoundedRectangle|*
%AMROUNDEDRECTD95*
21,1,0.03307,0.00780,0,0,90.0*
21,1,0.02827,0.01260,0,0,90.0*
1,1,0.00480,0.00390,0.01413*
1,1,0.00480,0.00390,-0.01413*
1,1,0.00480,-0.00390,-0.01413*
1,1,0.00480,-0.00390,0.01413*
%
%ADD95ROUNDEDRECTD95*%
G04:AMPARAMS|DCode=96|XSize=33.07mil|YSize=12.6mil|CornerRadius=2.4mil|HoleSize=0mil|Usage=FLASHONLY|Rotation=0.000|XOffset=0mil|YOffset=0mil|HoleType=Round|Shape=RoundedRectangle|*
%AMROUNDEDRECTD96*
21,1,0.03307,0.00780,0,0,0.0*
21,1,0.02827,0.01260,0,0,0.0*
1,1,0.00480,0.01413,-0.00390*
1,1,0.00480,-0.01413,-0.00390*
1,1,0.00480,-0.01413,0.00390*
1,1,0.00480,0.01413,0.00390*
%
%ADD96ROUNDEDRECTD96*%
G04:AMPARAMS|DCode=97|XSize=155.51mil|YSize=155.51mil|CornerRadius=5.76mil|HoleSize=0mil|Usage=FLASHONLY|Rotation=90.000|XOffset=0mil|YOffset=0mil|HoleType=Round|Shape=RoundedRectangle|*
%AMROUNDEDRECTD97*
21,1,0.15551,0.14400,0,0,90.0*
21,1,0.14400,0.15551,0,0,90.0*
1,1,0.01152,0.07200,0.07200*
1,1,0.01152,0.07200,-0.07200*
1,1,0.01152,-0.07200,-0.07200*
1,1,0.01152,-0.07200,0.07200*
%
%ADD97ROUNDEDRECTD97*%
G04:AMPARAMS|DCode=98|XSize=31.56mil|YSize=37.47mil|CornerRadius=5.45mil|HoleSize=0mil|Usage=FLASHONLY|Rotation=270.000|XOffset=0mil|YOffset=0mil|HoleType=Round|Shape=RoundedRectangle|*
%AMROUNDEDRECTD98*
21,1,0.03156,0.02658,0,0,270.0*
21,1,0.02067,0.03747,0,0,270.0*
1,1,0.01089,-0.01329,-0.01034*
1,1,0.01089,-0.01329,0.01034*
1,1,0.01089,0.01329,0.01034*
1,1,0.01089,0.01329,-0.01034*
%
%ADD98ROUNDEDRECTD98*%
G04:AMPARAMS|DCode=99|XSize=39.43mil|YSize=35.5mil|CornerRadius=5.15mil|HoleSize=0mil|Usage=FLASHONLY|Rotation=90.000|XOffset=0mil|YOffset=0mil|HoleType=Round|Shape=RoundedRectangle|*
%AMROUNDEDRECTD99*
21,1,0.03943,0.02520,0,0,90.0*
21,1,0.02913,0.03550,0,0,90.0*
1,1,0.01030,0.01260,0.01457*
1,1,0.01030,0.01260,-0.01457*
1,1,0.01030,-0.01260,-0.01457*
1,1,0.01030,-0.01260,0.01457*
%
%ADD99ROUNDEDRECTD99*%
G04:AMPARAMS|DCode=100|XSize=15.81mil|YSize=15.81mil|CornerRadius=2.59mil|HoleSize=0mil|Usage=FLASHONLY|Rotation=90.000|XOffset=0mil|YOffset=0mil|HoleType=Round|Shape=RoundedRectangle|*
%AMROUNDEDRECTD100*
21,1,0.01581,0.01063,0,0,90.0*
21,1,0.01063,0.01581,0,0,90.0*
1,1,0.00518,0.00532,0.00532*
1,1,0.00518,0.00532,-0.00532*
1,1,0.00518,-0.00532,-0.00532*
1,1,0.00518,-0.00532,0.00532*
%
%ADD100ROUNDEDRECTD100*%
G04:AMPARAMS|DCode=101|XSize=37.47mil|YSize=35.5mil|CornerRadius=5.94mil|HoleSize=0mil|Usage=FLASHONLY|Rotation=270.000|XOffset=0mil|YOffset=0mil|HoleType=Round|Shape=RoundedRectangle|*
%AMROUNDEDRECTD101*
21,1,0.03747,0.02362,0,0,270.0*
21,1,0.02559,0.03550,0,0,270.0*
1,1,0.01187,-0.01181,-0.01280*
1,1,0.01187,-0.01181,0.01280*
1,1,0.01187,0.01181,0.01280*
1,1,0.01187,0.01181,-0.01280*
%
%ADD101ROUNDEDRECTD101*%
G04:AMPARAMS|DCode=102|XSize=44mil|YSize=104mil|CornerRadius=7mil|HoleSize=0mil|Usage=FLASHONLY|Rotation=180.000|XOffset=0mil|YOffset=0mil|HoleType=Round|Shape=RoundedRectangle|*
%AMROUNDEDRECTD102*
21,1,0.04400,0.09000,0,0,180.0*
21,1,0.03000,0.10400,0,0,180.0*
1,1,0.01400,-0.01500,0.04500*
1,1,0.01400,0.01500,0.04500*
1,1,0.01400,0.01500,-0.04500*
1,1,0.01400,-0.01500,-0.04500*
%
%ADD102ROUNDEDRECTD102*%
G04:AMPARAMS|DCode=103|XSize=37.47mil|YSize=63.06mil|CornerRadius=6.18mil|HoleSize=0mil|Usage=FLASHONLY|Rotation=0.000|XOffset=0mil|YOffset=0mil|HoleType=Round|Shape=RoundedRectangle|*
%AMROUNDEDRECTD103*
21,1,0.03747,0.05069,0,0,0.0*
21,1,0.02510,0.06306,0,0,0.0*
1,1,0.01237,0.01255,-0.02535*
1,1,0.01237,-0.01255,-0.02535*
1,1,0.01237,-0.01255,0.02535*
1,1,0.01237,0.01255,0.02535*
%
%ADD103ROUNDEDRECTD103*%
G04:AMPARAMS|DCode=104|XSize=35.5mil|YSize=63.06mil|CornerRadius=5.94mil|HoleSize=0mil|Usage=FLASHONLY|Rotation=0.000|XOffset=0mil|YOffset=0mil|HoleType=Round|Shape=RoundedRectangle|*
%AMROUNDEDRECTD104*
21,1,0.03550,0.05118,0,0,0.0*
21,1,0.02362,0.06306,0,0,0.0*
1,1,0.01187,0.01181,-0.02559*
1,1,0.01187,-0.01181,-0.02559*
1,1,0.01187,-0.01181,0.02559*
1,1,0.01187,0.01181,0.02559*
%
%ADD104ROUNDEDRECTD104*%
G04:AMPARAMS|DCode=105|XSize=31.56mil|YSize=37.47mil|CornerRadius=5.45mil|HoleSize=0mil|Usage=FLASHONLY|Rotation=180.000|XOffset=0mil|YOffset=0mil|HoleType=Round|Shape=RoundedRectangle|*
%AMROUNDEDRECTD105*
21,1,0.03156,0.02658,0,0,180.0*
21,1,0.02067,0.03747,0,0,180.0*
1,1,0.01089,-0.01034,0.01329*
1,1,0.01089,0.01034,0.01329*
1,1,0.01089,0.01034,-0.01329*
1,1,0.01089,-0.01034,-0.01329*
%
%ADD105ROUNDEDRECTD105*%
G04:AMPARAMS|DCode=106|XSize=33.47mil|YSize=181.1mil|CornerRadius=4.92mil|HoleSize=0mil|Usage=FLASHONLY|Rotation=270.000|XOffset=0mil|YOffset=0mil|HoleType=Round|Shape=RoundedRectangle|*
%AMROUNDEDRECTD106*
21,1,0.03347,0.17126,0,0,270.0*
21,1,0.02362,0.18110,0,0,270.0*
1,1,0.00984,-0.08563,-0.01181*
1,1,0.00984,-0.08563,0.01181*
1,1,0.00984,0.08563,0.01181*
1,1,0.00984,0.08563,-0.01181*
%
%ADD106ROUNDEDRECTD106*%
G04:AMPARAMS|DCode=107|XSize=33.47mil|YSize=181.1mil|CornerRadius=4.92mil|HoleSize=0mil|Usage=FLASHONLY|Rotation=0.000|XOffset=0mil|YOffset=0mil|HoleType=Round|Shape=RoundedRectangle|*
%AMROUNDEDRECTD107*
21,1,0.03347,0.17126,0,0,0.0*
21,1,0.02362,0.18110,0,0,0.0*
1,1,0.00984,0.01181,-0.08563*
1,1,0.00984,-0.01181,-0.08563*
1,1,0.00984,-0.01181,0.08563*
1,1,0.00984,0.01181,0.08563*
%
%ADD107ROUNDEDRECTD107*%
G04:AMPARAMS|DCode=108|XSize=33.47mil|YSize=153.54mil|CornerRadius=4.92mil|HoleSize=0mil|Usage=FLASHONLY|Rotation=270.000|XOffset=0mil|YOffset=0mil|HoleType=Round|Shape=RoundedRectangle|*
%AMROUNDEDRECTD108*
21,1,0.03347,0.14370,0,0,270.0*
21,1,0.02362,0.15354,0,0,270.0*
1,1,0.00984,-0.07185,-0.01181*
1,1,0.00984,-0.07185,0.01181*
1,1,0.00984,0.07185,0.01181*
1,1,0.00984,0.07185,-0.01181*
%
%ADD108ROUNDEDRECTD108*%
G04:AMPARAMS|DCode=109|XSize=33.47mil|YSize=153.54mil|CornerRadius=4.92mil|HoleSize=0mil|Usage=FLASHONLY|Rotation=180.000|XOffset=0mil|YOffset=0mil|HoleType=Round|Shape=RoundedRectangle|*
%AMROUNDEDRECTD109*
21,1,0.03347,0.14370,0,0,180.0*
21,1,0.02362,0.15354,0,0,180.0*
1,1,0.00984,-0.01181,0.07185*
1,1,0.00984,0.01181,0.07185*
1,1,0.00984,0.01181,-0.07185*
1,1,0.00984,-0.01181,-0.07185*
%
%ADD109ROUNDEDRECTD109*%
%ADD110C,0.01127*%
G04:AMPARAMS|DCode=111|XSize=16.6mil|YSize=17.39mil|CornerRadius=3.58mil|HoleSize=0mil|Usage=FLASHONLY|Rotation=0.000|XOffset=0mil|YOffset=0mil|HoleType=Round|Shape=RoundedRectangle|*
%AMROUNDEDRECTD111*
21,1,0.01660,0.01024,0,0,0.0*
21,1,0.00945,0.01739,0,0,0.0*
1,1,0.00715,0.00472,-0.00512*
1,1,0.00715,-0.00472,-0.00512*
1,1,0.00715,-0.00472,0.00512*
1,1,0.00715,0.00472,0.00512*
%
%ADD111ROUNDEDRECTD111*%
G04:AMPARAMS|DCode=112|XSize=57.15mil|YSize=41.4mil|CornerRadius=6.68mil|HoleSize=0mil|Usage=FLASHONLY|Rotation=270.000|XOffset=0mil|YOffset=0mil|HoleType=Round|Shape=RoundedRectangle|*
%AMROUNDEDRECTD112*
21,1,0.05715,0.02805,0,0,270.0*
21,1,0.04380,0.04140,0,0,270.0*
1,1,0.01335,-0.01403,-0.02190*
1,1,0.01335,-0.01403,0.02190*
1,1,0.01335,0.01403,0.02190*
1,1,0.01335,0.01403,-0.02190*
%
%ADD112ROUNDEDRECTD112*%
G04:AMPARAMS|DCode=113|XSize=33mil|YSize=114mil|CornerRadius=9.25mil|HoleSize=0mil|Usage=FLASHONLY|Rotation=270.000|XOffset=0mil|YOffset=0mil|HoleType=Round|Shape=RoundedRectangle|*
%AMROUNDEDRECTD113*
21,1,0.03300,0.09550,0,0,270.0*
21,1,0.01450,0.11400,0,0,270.0*
1,1,0.01850,-0.04775,-0.00725*
1,1,0.01850,-0.04775,0.00725*
1,1,0.01850,0.04775,0.00725*
1,1,0.01850,0.04775,-0.00725*
%
%ADD113ROUNDEDRECTD113*%
G04:AMPARAMS|DCode=114|XSize=15.81mil|YSize=15.81mil|CornerRadius=2.59mil|HoleSize=0mil|Usage=FLASHONLY|Rotation=0.000|XOffset=0mil|YOffset=0mil|HoleType=Round|Shape=RoundedRectangle|*
%AMROUNDEDRECTD114*
21,1,0.01581,0.01063,0,0,0.0*
21,1,0.01063,0.01581,0,0,0.0*
1,1,0.00518,0.00532,-0.00532*
1,1,0.00518,-0.00532,-0.00532*
1,1,0.00518,-0.00532,0.00532*
1,1,0.00518,0.00532,0.00532*
%
%ADD114ROUNDEDRECTD114*%
%ADD115R,0.04337X0.04337*%
%ADD116R,0.02723X0.01187*%
%ADD117R,0.03392X0.01187*%
%ADD118R,0.01187X0.02723*%
%ADD119R,0.01187X0.03392*%
%ADD120R,0.04337X0.04337*%
%ADD121R,0.04337X0.03156*%
%ADD122R,0.01772X0.02134*%
G04:AMPARAMS|DCode=123|XSize=21.34mil|YSize=17.72mil|CornerRadius=0mil|HoleSize=0mil|Usage=FLASHONLY|Rotation=225.000|XOffset=0mil|YOffset=0mil|HoleType=Round|Shape=Rectangle|*
%AMROTATEDRECTD123*
4,1,4,0.00128,0.01381,0.01381,0.00128,-0.00128,-0.01381,-0.01381,-0.00128,0.00128,0.01381,0.0*
%
%ADD123ROTATEDRECTD123*%

%ADD124R,0.02134X0.01772*%
G36*
X291431Y84958D02*
X291653Y84737D01*
X291773Y84447D01*
Y84290D01*
Y83267D01*
X296064D01*
Y82086D01*
X291627D01*
X291431Y81891D01*
X291142Y81771D01*
X287756D01*
Y81771D01*
X287599D01*
X287310Y81891D01*
X287115Y82086D01*
X282678D01*
Y83267D01*
X286969D01*
Y84290D01*
X287122Y84306D01*
X287406Y84423D01*
X287624Y84640D01*
X287741Y84924D01*
X287756Y85078D01*
X290985D01*
Y85078D01*
X291142D01*
X291431Y84958D01*
D02*
G37*
G36*
X242183Y-7874D02*
X242907Y-7151D01*
X242907D01*
X242907D01*
D01*
X243026Y-7248D01*
X243310Y-7366D01*
X243617D01*
X243901Y-7248D01*
X244020Y-7151D01*
X246304Y-9434D01*
X246304Y-9434D01*
X246414Y-9545D01*
X246534Y-9834D01*
Y-10147D01*
X246414Y-10437D01*
X246304Y-10548D01*
X245580Y-11271D01*
X248614Y-14306D01*
X247779Y-15141D01*
X244641Y-12003D01*
X244365D01*
X244076Y-11883D01*
X243965Y-11772D01*
X241682Y-9489D01*
X241682D01*
Y-9489D01*
X241571Y-9378D01*
X241451Y-9089D01*
Y-8813D01*
X238314Y-5676D01*
X239149Y-4840D01*
X242183Y-7874D01*
D02*
G37*
G36*
X4135Y-136222D02*
X5513Y-137600D01*
X5513Y-147246D01*
X-5510Y-147246D01*
X-5510Y-136222D01*
X4135Y-136222D01*
D02*
G37*
G36*
X244213Y296989D02*
X245236D01*
X245251Y296835D01*
X245369Y296551D01*
X245586Y296334D01*
X245870Y296216D01*
X246024Y296201D01*
Y292972D01*
X246024D01*
Y292815D01*
X245904Y292526D01*
X245682Y292304D01*
X245393Y292185D01*
X244213D01*
Y287893D01*
X243032D01*
Y292331D01*
X242836Y292526D01*
X242717Y292815D01*
Y292972D01*
Y296201D01*
X242717D01*
Y296358D01*
X242836Y296647D01*
X243032Y296842D01*
Y301279D01*
X244213D01*
Y296989D01*
D02*
G37*
G36*
X5511Y136219D02*
X-5513Y136219D01*
X-5513Y145865D01*
X-4135Y147243D01*
X5511Y147243D01*
X5511Y136219D01*
D02*
G37*
G36*
X291432Y128267D02*
X291653Y128046D01*
X291773Y127756D01*
Y127600D01*
Y126576D01*
X296065D01*
Y125395D01*
X291627D01*
X291432Y125200D01*
X291143Y125080D01*
X287757D01*
Y125080D01*
X287600D01*
X287311Y125200D01*
X287116Y125395D01*
X282679D01*
Y126576D01*
X286969D01*
Y127600D01*
X287123Y127615D01*
X287407Y127732D01*
X287624Y127950D01*
X287741Y128233D01*
X287757Y128387D01*
X290986D01*
Y128387D01*
X291143D01*
X291432Y128267D01*
D02*
G37*
D15*
X-185039Y212598D02*
D03*
X-212598Y185039D02*
D03*
X212598Y-240158D02*
D03*
X240158Y-212598D02*
D03*
X98425D02*
D03*
X70866Y-240158D02*
D03*
X-70866D02*
D03*
X-43307Y-212598D02*
D03*
X-185039D02*
D03*
X-212598Y-240158D02*
D03*
X212598Y-98425D02*
D03*
X240158Y-70866D02*
D03*
X98425D02*
D03*
X70866Y-98425D02*
D03*
X-70866D02*
D03*
X-43307Y-70866D02*
D03*
X-185039D02*
D03*
X-212598Y-98425D02*
D03*
X212598Y43307D02*
D03*
X240158Y70866D02*
D03*
X98425D02*
D03*
X70866Y43307D02*
D03*
X-70866D02*
D03*
X-43307Y70866D02*
D03*
X-185039D02*
D03*
X-212598Y43307D02*
D03*
X212598Y185039D02*
D03*
X240158Y212598D02*
D03*
X98425D02*
D03*
X70866Y185039D02*
D03*
X-70866D02*
D03*
X-43307Y212598D02*
D03*
D23*
X290985Y81771D02*
G03*
X291773Y82558I0J787D01*
G01*
Y84290D02*
G03*
X290985Y85078I-787J0D01*
G01*
X286969Y82558D02*
G03*
X287756Y81771I787J0D01*
G01*
X286969Y84290D02*
G03*
X287756Y85078I0J787D01*
G01*
X286969Y127600D02*
G03*
X287757Y128387I0J787D01*
G01*
X286969Y125867D02*
G03*
X287757Y125080I787J0D01*
G01*
X291773Y127600D02*
G03*
X290986Y128387I-787J0D01*
G01*
Y125080D02*
G03*
X291773Y125867I0J787D01*
G01*
X243965Y-11772D02*
G03*
X245079Y-11772I557J557D01*
G01*
X246304Y-10548D02*
G03*
X246304Y-9434I-557J557D01*
G01*
X241682Y-8375D02*
G03*
X241682Y-9489I557J-557D01*
G01*
X242907Y-7151D02*
G03*
X244020Y-7151I557J557D01*
G01*
X245236Y296989D02*
G03*
X246024Y296201I787J0D01*
G01*
X243504Y296989D02*
G03*
X242717Y296201I0J-787D01*
G01*
X245236Y292185D02*
G03*
X246024Y292972I0J787D01*
G01*
X242717D02*
G03*
X243504Y292185I787J0D01*
G01*
X286969Y82558D02*
Y84290D01*
X287756Y81771D02*
X290985D01*
X291773Y82558D02*
Y84290D01*
X287756Y85078D02*
X290985D01*
X287757Y128387D02*
X290986D01*
X291773Y125867D02*
Y127600D01*
X287757Y125080D02*
X290986D01*
X286969Y125867D02*
Y127600D01*
X241682Y-8375D02*
X242907Y-7151D01*
X241682Y-9489D02*
X243965Y-11772D01*
X245079D02*
X246304Y-10548D01*
X244020Y-7151D02*
X246304Y-9434D01*
X246024Y292972D02*
Y296201D01*
X243504Y292185D02*
X245236D01*
X242717Y292972D02*
Y296201D01*
X243504Y296989D02*
X245236D01*
D76*
X314961Y305512D02*
G03*
X305512Y314961I-9449J0D01*
G01*
Y-314961D02*
G03*
X314961Y-305512I0J9449D01*
G01*
X-314961D02*
G03*
X-305512Y-314961I9449J0D01*
G01*
Y314961D02*
G03*
X-314961Y305512I0J-9449D01*
G01*
X-305512Y-314961D02*
X305512D01*
X314961Y-305512D02*
Y305512D01*
X-305512Y314961D02*
X305512D01*
X-314961Y-305512D02*
Y305512D01*
D77*
X299213Y-299213D02*
D03*
X-299213D02*
D03*
X299213Y299213D02*
D03*
X-299213D02*
D03*
D78*
X255321Y-300984D02*
D03*
X245321D02*
D03*
X235321D02*
D03*
X225321D02*
D03*
X215321D02*
D03*
X155309D02*
D03*
X265321D02*
D03*
X165309D02*
D03*
X175309D02*
D03*
X185309D02*
D03*
X195309D02*
D03*
X205309D02*
D03*
D79*
X145309D02*
D03*
D80*
X285906Y163189D02*
D03*
X289449D02*
D03*
X268582Y163189D02*
D03*
X265039D02*
D03*
X273888Y149168D02*
D03*
X277431D02*
D03*
X297525Y-97767D02*
D03*
X301068D02*
D03*
X284233Y-76761D02*
D03*
X287777D02*
D03*
D81*
X273887Y152711D02*
D03*
Y149168D02*
D03*
X289448Y166732D02*
D03*
Y163189D02*
D03*
X265039Y166732D02*
D03*
Y163189D02*
D03*
X293799Y-203051D02*
D03*
Y-206594D02*
D03*
X288091Y257776D02*
D03*
Y254233D02*
D03*
X297539Y-94193D02*
D03*
Y-97737D02*
D03*
X284233Y-76761D02*
D03*
Y-73217D02*
D03*
X297147Y-224160D02*
D03*
Y-220617D02*
D03*
D82*
X302756Y-203051D02*
D03*
X298622D02*
D03*
D83*
X251598Y286276D02*
D03*
X249566Y284244D02*
D03*
X280544Y90780D02*
D03*
X278511Y88748D02*
D03*
X281062Y133961D02*
D03*
X283094Y135994D02*
D03*
D84*
X250192Y301100D02*
D03*
X248160Y303133D02*
D03*
X236838Y-16750D02*
D03*
X238870Y-18782D02*
D03*
X298197Y90780D02*
D03*
X300229Y88748D02*
D03*
X297960Y134240D02*
D03*
X295928Y136272D02*
D03*
D85*
X234157Y294492D02*
D03*
Y291618D02*
D03*
X254980Y-10227D02*
D03*
Y-13101D02*
D03*
D86*
X255983Y286191D02*
D03*
X259526D02*
D03*
X226974Y294586D02*
D03*
X230517Y294586D02*
D03*
X256716Y301209D02*
D03*
X260259D02*
D03*
X293210Y-139272D02*
D03*
X289667D02*
D03*
X6549Y-129958D02*
D03*
X10092D02*
D03*
D87*
X16184Y-141434D02*
D03*
Y-143599D02*
D03*
X13768Y-139297D02*
D03*
Y-141463D02*
D03*
Y-141463D02*
D03*
Y-143628D02*
D03*
X11504Y-143529D02*
D03*
Y-141364D02*
D03*
X255316Y-137817D02*
D03*
Y-139983D02*
D03*
X248820Y-139960D02*
D03*
Y-142125D02*
D03*
X261813D02*
D03*
Y-139960D02*
D03*
X291734Y-141853D02*
D03*
Y-144018D02*
D03*
D88*
X290566Y18736D02*
D03*
X292731D02*
D03*
X280512Y-160138D02*
D03*
X282677D02*
D03*
X303651Y-148369D02*
D03*
X301486D02*
D03*
X290570Y37948D02*
D03*
X292736D02*
D03*
X297854D02*
D03*
X295688D02*
D03*
X298008Y18739D02*
D03*
X295842D02*
D03*
X261911Y-145669D02*
D03*
X259746D02*
D03*
X261616Y-137325D02*
D03*
X259450D02*
D03*
X281793Y-124705D02*
D03*
X283958D02*
D03*
X253151Y-139960D02*
D03*
X250986D02*
D03*
X287698Y-129845D02*
D03*
X289864D02*
D03*
X261616Y-135160D02*
D03*
X259450D02*
D03*
X261911Y-147835D02*
D03*
X259746D02*
D03*
X289273Y-136713D02*
D03*
X291439D02*
D03*
X289273Y-134449D02*
D03*
X291439D02*
D03*
X300690Y-224160D02*
D03*
X302855D02*
D03*
X300690Y-220617D02*
D03*
X302855D02*
D03*
X1822Y153740D02*
D03*
X-343D02*
D03*
X-244Y156004D02*
D03*
X1921D02*
D03*
X-2410D02*
D03*
X-244D02*
D03*
X-260Y158338D02*
D03*
X1905D02*
D03*
X282941Y156506D02*
D03*
X285107D02*
D03*
X280579Y156506D02*
D03*
X278414Y156506D02*
D03*
X280579Y163199D02*
D03*
X278414D02*
D03*
X276052Y156506D02*
D03*
X273886D02*
D03*
X276052Y163199D02*
D03*
X273886Y163199D02*
D03*
D89*
X243503Y-739D02*
D03*
X240629D02*
D03*
X289135Y73523D02*
D03*
X286261D02*
D03*
X289466Y115964D02*
D03*
X292340D02*
D03*
D90*
X280362Y98324D02*
D03*
Y94780D02*
D03*
X298576Y98244D02*
D03*
Y94701D02*
D03*
X307396Y50477D02*
D03*
Y46934D02*
D03*
X307467Y30819D02*
D03*
Y27276D02*
D03*
X294391Y-146183D02*
D03*
Y-142640D02*
D03*
X-11761Y148389D02*
D03*
Y151932D02*
D03*
D91*
X258141Y-7187D02*
D03*
X260646Y-4681D02*
D03*
X231692Y-21763D02*
D03*
X234197Y-19257D02*
D03*
X248040Y3951D02*
D03*
X250545Y6457D02*
D03*
D92*
X227950Y-247863D02*
D03*
Y-258099D02*
D03*
X262202Y-290973D02*
D03*
X270470Y-235659D02*
D03*
Y-245895D02*
D03*
X263580Y-273454D02*
D03*
X268895Y-225225D02*
D03*
X271454Y-267351D02*
D03*
X266927Y-257509D02*
D03*
X276376Y-276210D02*
D03*
X228147Y-229359D02*
D03*
X231651Y-238690D02*
D03*
X241612Y-238532D02*
D03*
X241730Y-248454D02*
D03*
X236415Y-280934D02*
D03*
X237990Y-227469D02*
D03*
X199016Y-288531D02*
D03*
X190349Y-292450D02*
D03*
X236605Y-290974D02*
D03*
D93*
X300768Y-70855D02*
D03*
Y-82666D02*
D03*
D94*
X294469Y-76761D02*
D03*
D95*
X281695Y-147421D02*
D03*
X280120D02*
D03*
X278545D02*
D03*
X276970D02*
D03*
X275395D02*
D03*
X273820D02*
D03*
X272246D02*
D03*
X270671D02*
D03*
X269096D02*
D03*
X267521D02*
D03*
Y-127775D02*
D03*
X269096D02*
D03*
X270671D02*
D03*
X272246D02*
D03*
X273820D02*
D03*
X275395D02*
D03*
X276970D02*
D03*
X278545D02*
D03*
X280120D02*
D03*
X281695D02*
D03*
D96*
X264785Y-144685D02*
D03*
Y-143110D02*
D03*
Y-141535D02*
D03*
Y-139960D02*
D03*
Y-138385D02*
D03*
Y-136811D02*
D03*
Y-135236D02*
D03*
Y-133661D02*
D03*
Y-132086D02*
D03*
Y-130511D02*
D03*
X284431D02*
D03*
Y-132086D02*
D03*
Y-133661D02*
D03*
Y-135236D02*
D03*
Y-136811D02*
D03*
Y-138385D02*
D03*
Y-139960D02*
D03*
Y-141535D02*
D03*
Y-143110D02*
D03*
Y-144685D02*
D03*
D97*
X274608Y-137598D02*
D03*
D98*
X253348Y-151673D02*
D03*
X258860D02*
D03*
D99*
X269490Y-159153D02*
D03*
Y-153641D02*
D03*
X265159D02*
D03*
Y-159153D02*
D03*
D100*
X259746Y-139960D02*
D03*
X257383D02*
D03*
D101*
X297836Y-136439D02*
D03*
X303348D02*
D03*
X297836Y-131715D02*
D03*
X303348D02*
D03*
D102*
X300098Y-122539D02*
D03*
X291098D02*
D03*
D103*
X293899Y-152384D02*
D03*
D104*
X287994D02*
D03*
D105*
X255907Y-131102D02*
D03*
Y-125591D02*
D03*
D106*
X299706Y-178150D02*
D03*
X249509D02*
D03*
X249509Y-113189D02*
D03*
X299706D02*
D03*
D107*
X307088Y-170768D02*
D03*
X242128Y-170768D02*
D03*
Y-120571D02*
D03*
X307088Y-120571D02*
D03*
D108*
X274608Y-178150D02*
D03*
Y-113189D02*
D03*
D109*
X242128Y-145669D02*
D03*
X307088D02*
D03*
D110*
X283661Y-165847D02*
D03*
X282874Y-164469D02*
D03*
X283661Y-163091D02*
D03*
X282087Y-165847D02*
D03*
X281299Y-164469D02*
D03*
X282087Y-163091D02*
D03*
X280512Y-165847D02*
D03*
Y-163091D02*
D03*
D111*
X276476D02*
D03*
Y-165453D02*
D03*
D112*
X297146Y-214416D02*
D03*
X303445D02*
D03*
D113*
X283831Y-230361D02*
D03*
Y-235361D02*
D03*
Y-240361D02*
D03*
Y-245361D02*
D03*
Y-255361D02*
D03*
X299831D02*
D03*
Y-245361D02*
D03*
Y-240361D02*
D03*
Y-235361D02*
D03*
Y-230361D02*
D03*
Y-250361D02*
D03*
X283831D02*
D03*
D114*
X280579Y158672D02*
D03*
X280579Y161034D02*
D03*
X277233Y158672D02*
D03*
X277233Y161034D02*
D03*
X273886Y158672D02*
D03*
Y161034D02*
D03*
D115*
X-1Y141731D02*
D03*
D116*
X-8308Y147243D02*
D03*
Y136219D02*
D03*
X8307D02*
D03*
Y147243D02*
D03*
X-8305Y-136222D02*
D03*
Y-147246D02*
D03*
X8309D02*
D03*
Y-136222D02*
D03*
D117*
X-7973Y145668D02*
D03*
Y144093D02*
D03*
Y142518D02*
D03*
Y140944D02*
D03*
Y139369D02*
D03*
Y137794D02*
D03*
X7972D02*
D03*
Y139369D02*
D03*
Y140944D02*
D03*
Y142518D02*
D03*
Y144093D02*
D03*
Y145668D02*
D03*
X-7971Y-137797D02*
D03*
Y-139372D02*
D03*
Y-140946D02*
D03*
Y-142521D02*
D03*
Y-144096D02*
D03*
Y-145671D02*
D03*
X7974D02*
D03*
Y-144096D02*
D03*
Y-142521D02*
D03*
Y-140946D02*
D03*
Y-139372D02*
D03*
Y-137797D02*
D03*
D118*
X-5512Y133424D02*
D03*
X5511D02*
D03*
Y150038D02*
D03*
X-5512D02*
D03*
X5513Y-133427D02*
D03*
X-5510D02*
D03*
Y-150041D02*
D03*
X5513D02*
D03*
D119*
X-3938Y133759D02*
D03*
X-2363D02*
D03*
X-788D02*
D03*
X787D02*
D03*
X2362D02*
D03*
X3936D02*
D03*
Y149704D02*
D03*
X2362D02*
D03*
X787D02*
D03*
X-788D02*
D03*
X-2363D02*
D03*
X-3938D02*
D03*
X3939Y-133761D02*
D03*
X2364D02*
D03*
X789D02*
D03*
X-786D02*
D03*
X-2361D02*
D03*
X-3935D02*
D03*
Y-149706D02*
D03*
X-2361D02*
D03*
X-786D02*
D03*
X789D02*
D03*
X2364D02*
D03*
X3939D02*
D03*
D120*
X2Y-141734D02*
D03*
D121*
X292736Y23514D02*
D03*
Y27264D02*
D03*
Y31014D02*
D03*
X302736D02*
D03*
Y27264D02*
D03*
Y23514D02*
D03*
X292736Y43199D02*
D03*
Y46949D02*
D03*
Y50699D02*
D03*
X302736D02*
D03*
Y46949D02*
D03*
Y43199D02*
D03*
D122*
X285631Y79019D02*
D03*
X289371D02*
D03*
X293111D02*
D03*
Y86334D02*
D03*
X289371D02*
D03*
X285631D02*
D03*
X285632Y129643D02*
D03*
X289372D02*
D03*
X293112D02*
D03*
Y122328D02*
D03*
X289372D02*
D03*
X285632D02*
D03*
D123*
X238233Y-9932D02*
D03*
X240878Y-12577D02*
D03*
X243523Y-15222D02*
D03*
X248695Y-10049D02*
D03*
X246050Y-7405D02*
D03*
X243406Y-4760D02*
D03*
D124*
X247280Y298326D02*
D03*
Y294586D02*
D03*
Y290846D02*
D03*
X239965D02*
D03*
Y294586D02*
D03*
Y298326D02*
D03*
M02*
