G04 Layer_Color=8388736*
%FSLAX25Y25*%
%MOIN*%
G70*
G01*
G75*
%ADD15C,0.05118*%
%ADD76C,0.04724*%
%ADD77C,0.24810*%
%ADD78C,0.06306*%
G04:AMPARAMS|DCode=79|XSize=63.06mil|YSize=63.06mil|CornerRadius=4.95mil|HoleSize=0mil|Usage=FLASHONLY|Rotation=0.000|XOffset=0mil|YOffset=0mil|HoleType=Round|Shape=RoundedRectangle|*
%AMROUNDEDRECTD79*
21,1,0.06306,0.05315,0,0,0.0*
21,1,0.05315,0.06306,0,0,0.0*
1,1,0.00991,0.02658,-0.02658*
1,1,0.00991,-0.02658,-0.02658*
1,1,0.00991,-0.02658,0.02658*
1,1,0.00991,0.02658,0.02658*
%
%ADD79ROUNDEDRECTD79*%
D15*
X-185039Y212598D02*
D03*
X-212598Y185039D02*
D03*
X212598Y-240158D02*
D03*
X240158Y-212598D02*
D03*
X98425D02*
D03*
X70866Y-240158D02*
D03*
X-70866D02*
D03*
X-43307Y-212598D02*
D03*
X-185039D02*
D03*
X-212598Y-240158D02*
D03*
X212598Y-98425D02*
D03*
X240158Y-70866D02*
D03*
X98425D02*
D03*
X70866Y-98425D02*
D03*
X-70866D02*
D03*
X-43307Y-70866D02*
D03*
X-185039D02*
D03*
X-212598Y-98425D02*
D03*
X212598Y43307D02*
D03*
X240158Y70866D02*
D03*
X98425D02*
D03*
X70866Y43307D02*
D03*
X-70866D02*
D03*
X-43307Y70866D02*
D03*
X-185039D02*
D03*
X-212598Y43307D02*
D03*
X212598Y185039D02*
D03*
X240158Y212598D02*
D03*
X98425D02*
D03*
X70866Y185039D02*
D03*
X-70866D02*
D03*
X-43307Y212598D02*
D03*
D76*
X314961Y305512D02*
G03*
X305512Y314961I-9449J0D01*
G01*
Y-314961D02*
G03*
X314961Y-305512I0J9449D01*
G01*
X-314961D02*
G03*
X-305512Y-314961I9449J0D01*
G01*
Y314961D02*
G03*
X-314961Y305512I0J-9449D01*
G01*
X-305512Y-314961D02*
X305512D01*
X314961Y-305512D02*
Y305512D01*
X-305512Y314961D02*
X305512D01*
X-314961Y-305512D02*
Y305512D01*
D77*
X299213Y-299213D02*
D03*
X-299213D02*
D03*
X299213Y299213D02*
D03*
X-299213D02*
D03*
D78*
X255321Y-300984D02*
D03*
X245321D02*
D03*
X235321D02*
D03*
X225321D02*
D03*
X215321D02*
D03*
X155309D02*
D03*
X265321D02*
D03*
X165309D02*
D03*
X175309D02*
D03*
X185309D02*
D03*
X195309D02*
D03*
X205309D02*
D03*
D79*
X145309D02*
D03*
M02*
