G04 Layer_Color=32896*
%FSLAX25Y25*%
%MOIN*%
G70*
G01*
G75*
%ADD12C,0.01000*%
%ADD13C,0.00600*%
%ADD14C,0.00591*%
G36*
X270783Y140605D02*
X270426D01*
Y142456D01*
X269396D01*
Y140790D01*
X269038D01*
Y142456D01*
X268119D01*
Y140676D01*
X267761D01*
Y142857D01*
X270783D01*
Y140605D01*
D02*
G37*
G36*
X-305982Y33765D02*
X-305787Y33745D01*
X-305702Y33730D01*
X-305617Y33710D01*
X-305537Y33695D01*
X-305462Y33675D01*
X-305392Y33655D01*
X-305332Y33640D01*
X-305282Y33620D01*
X-305237Y33605D01*
X-305202Y33595D01*
X-305172Y33585D01*
X-305157Y33575D01*
X-305152D01*
X-305067Y33535D01*
X-304982Y33490D01*
X-304907Y33445D01*
X-304837Y33395D01*
X-304767Y33345D01*
X-304707Y33295D01*
X-304652Y33250D01*
X-304607Y33200D01*
X-304562Y33155D01*
X-304522Y33115D01*
X-304492Y33075D01*
X-304467Y33045D01*
X-304442Y33015D01*
X-304427Y32995D01*
X-304422Y32985D01*
X-304417Y32980D01*
X-304372Y32905D01*
X-304337Y32825D01*
X-304302Y32740D01*
X-304272Y32655D01*
X-304227Y32485D01*
X-304197Y32325D01*
X-304187Y32250D01*
X-304182Y32185D01*
X-304177Y32120D01*
X-304172Y32070D01*
X-304167Y32025D01*
Y31990D01*
Y31970D01*
Y31965D01*
X-304172Y31855D01*
X-304182Y31750D01*
X-304197Y31650D01*
X-304217Y31555D01*
X-304242Y31465D01*
X-304272Y31380D01*
X-304297Y31305D01*
X-304332Y31230D01*
X-304362Y31170D01*
X-304387Y31115D01*
X-304417Y31065D01*
X-304442Y31025D01*
X-304462Y30990D01*
X-304477Y30970D01*
X-304487Y30955D01*
X-304492Y30950D01*
X-304557Y30875D01*
X-304627Y30805D01*
X-304702Y30740D01*
X-304782Y30685D01*
X-304862Y30630D01*
X-304937Y30585D01*
X-305017Y30540D01*
X-305092Y30505D01*
X-305167Y30470D01*
X-305232Y30445D01*
X-305292Y30420D01*
X-305342Y30400D01*
X-305387Y30390D01*
X-305422Y30380D01*
X-305442Y30370D01*
X-305447D01*
X-305577Y30880D01*
X-305487Y30905D01*
X-305407Y30930D01*
X-305332Y30960D01*
X-305257Y30990D01*
X-305192Y31025D01*
X-305132Y31055D01*
X-305077Y31090D01*
X-305032Y31125D01*
X-304987Y31155D01*
X-304952Y31185D01*
X-304917Y31215D01*
X-304892Y31235D01*
X-304872Y31255D01*
X-304857Y31270D01*
X-304852Y31280D01*
X-304847Y31285D01*
X-304802Y31340D01*
X-304767Y31400D01*
X-304732Y31460D01*
X-304707Y31525D01*
X-304662Y31645D01*
X-304632Y31760D01*
X-304622Y31810D01*
X-304617Y31860D01*
X-304612Y31900D01*
X-304607Y31940D01*
X-304602Y31970D01*
Y31990D01*
Y32005D01*
Y32010D01*
X-304612Y32140D01*
X-304632Y32260D01*
X-304657Y32370D01*
X-304692Y32470D01*
X-304727Y32550D01*
X-304742Y32585D01*
X-304752Y32610D01*
X-304767Y32635D01*
X-304772Y32650D01*
X-304782Y32660D01*
Y32665D01*
X-304857Y32770D01*
X-304942Y32860D01*
X-305032Y32935D01*
X-305122Y33000D01*
X-305202Y33050D01*
X-305237Y33065D01*
X-305267Y33080D01*
X-305292Y33095D01*
X-305312Y33105D01*
X-305322Y33110D01*
X-305327D01*
X-305467Y33155D01*
X-305617Y33190D01*
X-305757Y33215D01*
X-305892Y33230D01*
X-305952Y33240D01*
X-306007D01*
X-306057Y33245D01*
X-306102Y33250D01*
X-306182D01*
X-306322Y33245D01*
X-306457Y33230D01*
X-306582Y33210D01*
X-306697Y33190D01*
X-306742Y33180D01*
X-306787Y33170D01*
X-306827Y33160D01*
X-306862Y33150D01*
X-306887Y33140D01*
X-306907Y33135D01*
X-306917Y33130D01*
X-306922D01*
X-307052Y33080D01*
X-307162Y33015D01*
X-307262Y32945D01*
X-307342Y32875D01*
X-307407Y32815D01*
X-307452Y32765D01*
X-307472Y32745D01*
X-307482Y32730D01*
X-307492Y32720D01*
Y32715D01*
X-307532Y32655D01*
X-307562Y32595D01*
X-307617Y32470D01*
X-307657Y32345D01*
X-307682Y32230D01*
X-307687Y32175D01*
X-307697Y32125D01*
X-307702Y32080D01*
Y32045D01*
X-307707Y32015D01*
Y31990D01*
Y31975D01*
Y31970D01*
X-307697Y31830D01*
X-307677Y31705D01*
X-307647Y31595D01*
X-307612Y31500D01*
X-307572Y31425D01*
X-307557Y31395D01*
X-307542Y31370D01*
X-307532Y31350D01*
X-307522Y31335D01*
X-307512Y31330D01*
Y31325D01*
X-307472Y31280D01*
X-307432Y31235D01*
X-307337Y31155D01*
X-307237Y31090D01*
X-307137Y31035D01*
X-307047Y30990D01*
X-307007Y30975D01*
X-306972Y30960D01*
X-306942Y30950D01*
X-306922Y30940D01*
X-306907Y30935D01*
X-306902D01*
X-307022Y30435D01*
X-307117Y30465D01*
X-307212Y30505D01*
X-307297Y30545D01*
X-307377Y30590D01*
X-307447Y30635D01*
X-307517Y30680D01*
X-307577Y30725D01*
X-307632Y30770D01*
X-307682Y30815D01*
X-307727Y30855D01*
X-307762Y30895D01*
X-307792Y30925D01*
X-307817Y30950D01*
X-307832Y30975D01*
X-307842Y30985D01*
X-307847Y30990D01*
X-307897Y31065D01*
X-307947Y31145D01*
X-307982Y31225D01*
X-308017Y31305D01*
X-308047Y31390D01*
X-308072Y31470D01*
X-308107Y31620D01*
X-308117Y31690D01*
X-308127Y31755D01*
X-308132Y31815D01*
X-308137Y31865D01*
X-308142Y31905D01*
Y31935D01*
Y31955D01*
Y31960D01*
Y32055D01*
X-308132Y32145D01*
X-308107Y32320D01*
X-308067Y32480D01*
X-308047Y32550D01*
X-308027Y32620D01*
X-308002Y32680D01*
X-307982Y32735D01*
X-307962Y32780D01*
X-307942Y32820D01*
X-307927Y32850D01*
X-307917Y32875D01*
X-307912Y32890D01*
X-307907Y32895D01*
X-307862Y32970D01*
X-307812Y33045D01*
X-307702Y33175D01*
X-307592Y33290D01*
X-307482Y33380D01*
X-307427Y33420D01*
X-307382Y33455D01*
X-307337Y33485D01*
X-307302Y33505D01*
X-307272Y33525D01*
X-307247Y33540D01*
X-307232Y33545D01*
X-307227Y33550D01*
X-307142Y33590D01*
X-307052Y33625D01*
X-306877Y33680D01*
X-306702Y33720D01*
X-306617Y33735D01*
X-306537Y33745D01*
X-306462Y33755D01*
X-306397Y33765D01*
X-306337Y33770D01*
X-306282D01*
X-306242Y33775D01*
X-306182D01*
X-305982Y33765D01*
D02*
G37*
G36*
X270783Y138962D02*
X270779Y138864D01*
X270776Y138769D01*
X270768Y138687D01*
X270756Y138616D01*
X270748Y138557D01*
X270744Y138534D01*
X270740Y138514D01*
X270736Y138498D01*
Y138487D01*
X270732Y138483D01*
Y138479D01*
X270713Y138404D01*
X270689Y138333D01*
X270661Y138270D01*
X270638Y138219D01*
X270618Y138176D01*
X270599Y138145D01*
X270587Y138125D01*
X270583Y138117D01*
X270540Y138062D01*
X270497Y138007D01*
X270449Y137960D01*
X270406Y137921D01*
X270367Y137885D01*
X270335Y137862D01*
X270316Y137842D01*
X270308Y137838D01*
X270241Y137795D01*
X270166Y137752D01*
X270092Y137716D01*
X270021Y137689D01*
X269962Y137665D01*
X269935Y137657D01*
X269911Y137650D01*
X269895Y137642D01*
X269879Y137638D01*
X269872Y137634D01*
X269868D01*
X269765Y137606D01*
X269659Y137587D01*
X269557Y137571D01*
X269463Y137563D01*
X269420Y137559D01*
X269380Y137555D01*
X269345D01*
X269318Y137551D01*
X269258D01*
X269113Y137555D01*
X268975Y137571D01*
X268913Y137579D01*
X268854Y137591D01*
X268799Y137602D01*
X268748Y137610D01*
X268700Y137622D01*
X268661Y137634D01*
X268626Y137646D01*
X268594Y137653D01*
X268571Y137661D01*
X268555Y137669D01*
X268543Y137673D01*
X268539D01*
X268425Y137720D01*
X268327Y137779D01*
X268237Y137838D01*
X268162Y137897D01*
X268131Y137925D01*
X268103Y137948D01*
X268079Y137972D01*
X268060Y137991D01*
X268044Y138007D01*
X268032Y138019D01*
X268028Y138027D01*
X268024Y138031D01*
X267969Y138101D01*
X267922Y138176D01*
X267887Y138251D01*
X267856Y138321D01*
X267836Y138381D01*
X267828Y138408D01*
X267820Y138432D01*
X267816Y138447D01*
X267812Y138463D01*
X267808Y138471D01*
Y138475D01*
X267793Y138549D01*
X267781Y138636D01*
X267773Y138726D01*
X267765Y138813D01*
Y138887D01*
X267761Y138923D01*
Y138950D01*
Y138974D01*
Y138994D01*
Y139005D01*
Y139009D01*
Y140051D01*
X270783D01*
Y138962D01*
D02*
G37*
G36*
X269679Y152238D02*
X269758Y152230D01*
X269832Y152222D01*
X269899Y152214D01*
X269962Y152206D01*
X270017Y152194D01*
X270068Y152183D01*
X270115Y152175D01*
X270155Y152163D01*
X270190Y152155D01*
X270217Y152143D01*
X270241Y152139D01*
X270257Y152131D01*
X270265Y152128D01*
X270269D01*
X270367Y152076D01*
X270449Y152018D01*
X270524Y151955D01*
X270583Y151892D01*
X270630Y151833D01*
X270661Y151786D01*
X270673Y151770D01*
X270681Y151754D01*
X270689Y151746D01*
Y151742D01*
X270736Y151636D01*
X270772Y151518D01*
X270799Y151405D01*
X270815Y151294D01*
X270823Y151243D01*
X270827Y151196D01*
X270830Y151153D01*
Y151118D01*
X270834Y151086D01*
Y151067D01*
Y151051D01*
Y151047D01*
X270830Y150968D01*
X270827Y150890D01*
X270819Y150819D01*
X270807Y150752D01*
X270795Y150689D01*
X270783Y150634D01*
X270768Y150579D01*
X270752Y150532D01*
X270736Y150489D01*
X270721Y150450D01*
X270709Y150418D01*
X270697Y150391D01*
X270685Y150371D01*
X270677Y150355D01*
X270669Y150347D01*
Y150343D01*
X270638Y150296D01*
X270603Y150249D01*
X270528Y150171D01*
X270457Y150108D01*
X270386Y150057D01*
X270327Y150017D01*
X270300Y150002D01*
X270276Y149990D01*
X270261Y149982D01*
X270245Y149974D01*
X270237Y149970D01*
X270233D01*
X270182Y149950D01*
X270127Y149935D01*
X270009Y149907D01*
X269887Y149891D01*
X269769Y149876D01*
X269718Y149872D01*
X269667Y149868D01*
X269624D01*
X269585Y149864D01*
X267761D01*
Y150265D01*
X269506D01*
X269608Y150269D01*
X269703Y150273D01*
X269789Y150280D01*
X269868Y150292D01*
X269938Y150308D01*
X270001Y150324D01*
X270056Y150339D01*
X270104Y150359D01*
X270147Y150375D01*
X270182Y150394D01*
X270214Y150410D01*
X270237Y150422D01*
X270253Y150438D01*
X270265Y150446D01*
X270272Y150450D01*
X270276Y150453D01*
X270312Y150493D01*
X270339Y150536D01*
X270367Y150583D01*
X270390Y150630D01*
X270426Y150736D01*
X270449Y150839D01*
X270457Y150886D01*
X270461Y150933D01*
X270465Y150976D01*
X270469Y151012D01*
X270473Y151039D01*
Y151063D01*
Y151078D01*
Y151082D01*
X270469Y151177D01*
X270457Y151259D01*
X270441Y151334D01*
X270422Y151397D01*
X270406Y151448D01*
X270390Y151487D01*
X270378Y151511D01*
X270375Y151514D01*
Y151518D01*
X270331Y151581D01*
X270288Y151632D01*
X270237Y151676D01*
X270194Y151711D01*
X270151Y151739D01*
X270119Y151754D01*
X270096Y151766D01*
X270092Y151770D01*
X270088D01*
X270048Y151782D01*
X270009Y151794D01*
X269919Y151809D01*
X269820Y151825D01*
X269726Y151833D01*
X269683D01*
X269640Y151837D01*
X269604D01*
X269569Y151841D01*
X267761D01*
Y152242D01*
X269597D01*
X269679Y152238D01*
D02*
G37*
G36*
X270783Y148822D02*
X268209D01*
X270783Y147950D01*
Y147592D01*
X268252Y146708D01*
X270783D01*
Y146323D01*
X267761D01*
Y146861D01*
X269864Y147588D01*
X269978Y147628D01*
X270076Y147659D01*
X270159Y147687D01*
X270229Y147710D01*
X270280Y147726D01*
X270320Y147738D01*
X270343Y147746D01*
X270351Y147750D01*
X270288Y147769D01*
X270217Y147793D01*
X270143Y147816D01*
X270072Y147840D01*
X270005Y147860D01*
X269978Y147871D01*
X269950Y147879D01*
X269931Y147887D01*
X269915Y147891D01*
X269907Y147895D01*
X269903D01*
X267761Y148610D01*
Y149208D01*
X270783D01*
Y148822D01*
D02*
G37*
G36*
Y145278D02*
X269557D01*
Y144507D01*
X269553Y144393D01*
X269545Y144287D01*
X269534Y144189D01*
X269514Y144099D01*
X269494Y144020D01*
X269471Y143945D01*
X269447Y143883D01*
X269424Y143824D01*
X269400Y143776D01*
X269373Y143733D01*
X269353Y143698D01*
X269333Y143670D01*
X269314Y143651D01*
X269302Y143635D01*
X269294Y143627D01*
X269290Y143623D01*
X269239Y143580D01*
X269184Y143541D01*
X269129Y143509D01*
X269074Y143482D01*
X269019Y143454D01*
X268968Y143434D01*
X268862Y143407D01*
X268818Y143395D01*
X268775Y143387D01*
X268736Y143383D01*
X268700Y143379D01*
X268673Y143376D01*
X268638D01*
X268555Y143379D01*
X268480Y143391D01*
X268410Y143407D01*
X268347Y143423D01*
X268296Y143438D01*
X268256Y143454D01*
X268245Y143462D01*
X268233Y143466D01*
X268229Y143470D01*
X268225D01*
X268158Y143505D01*
X268099Y143544D01*
X268048Y143588D01*
X268009Y143627D01*
X267977Y143658D01*
X267954Y143690D01*
X267938Y143706D01*
X267934Y143713D01*
X267899Y143772D01*
X267867Y143835D01*
X267844Y143894D01*
X267824Y143953D01*
X267808Y144004D01*
X267800Y144047D01*
X267796Y144063D01*
X267793Y144071D01*
Y144079D01*
Y144083D01*
X267781Y144146D01*
X267773Y144220D01*
X267769Y144299D01*
X267765Y144370D01*
X267761Y144437D01*
Y144468D01*
Y144492D01*
Y144515D01*
Y144531D01*
Y144539D01*
Y144543D01*
Y145678D01*
X270783D01*
Y145278D01*
D02*
G37*
G36*
X262303Y171927D02*
X261387Y171597D01*
Y170331D01*
X262303Y169981D01*
Y169529D01*
X259281Y170759D01*
Y171196D01*
X262303Y172347D01*
Y171927D01*
D02*
G37*
G36*
Y168343D02*
Y167926D01*
X259281Y166747D01*
Y167152D01*
X261478Y167969D01*
X261568Y168005D01*
X261659Y168036D01*
X261745Y168064D01*
X261820Y168087D01*
X261883Y168107D01*
X261906Y168115D01*
X261930Y168122D01*
X261949Y168126D01*
X261961Y168130D01*
X261969Y168134D01*
X261973D01*
X261887Y168158D01*
X261796Y168185D01*
X261714Y168213D01*
X261639Y168236D01*
X261572Y168260D01*
X261545Y168268D01*
X261521Y168276D01*
X261505Y168284D01*
X261490Y168288D01*
X261482Y168291D01*
X261478D01*
X259281Y169078D01*
Y169514D01*
X262303Y168343D01*
D02*
G37*
G36*
Y164130D02*
X261946D01*
Y165981D01*
X260916D01*
Y164314D01*
X260558D01*
Y165981D01*
X259639D01*
Y164200D01*
X259281D01*
Y166382D01*
X262303D01*
Y164130D01*
D02*
G37*
G36*
X-304232Y36695D02*
X-305792D01*
Y35715D01*
X-305797Y35570D01*
X-305807Y35435D01*
X-305822Y35310D01*
X-305847Y35195D01*
X-305872Y35095D01*
X-305902Y35000D01*
X-305932Y34920D01*
X-305962Y34845D01*
X-305992Y34785D01*
X-306027Y34730D01*
X-306052Y34685D01*
X-306077Y34650D01*
X-306102Y34625D01*
X-306117Y34605D01*
X-306127Y34595D01*
X-306132Y34590D01*
X-306197Y34535D01*
X-306267Y34485D01*
X-306337Y34445D01*
X-306407Y34410D01*
X-306477Y34375D01*
X-306542Y34350D01*
X-306677Y34315D01*
X-306732Y34300D01*
X-306787Y34290D01*
X-306837Y34285D01*
X-306882Y34280D01*
X-306917Y34275D01*
X-306962D01*
X-307067Y34280D01*
X-307162Y34295D01*
X-307252Y34315D01*
X-307332Y34335D01*
X-307397Y34355D01*
X-307447Y34375D01*
X-307462Y34385D01*
X-307477Y34390D01*
X-307482Y34395D01*
X-307487D01*
X-307572Y34440D01*
X-307647Y34490D01*
X-307712Y34545D01*
X-307762Y34595D01*
X-307802Y34635D01*
X-307832Y34675D01*
X-307852Y34695D01*
X-307857Y34705D01*
X-307902Y34780D01*
X-307942Y34860D01*
X-307972Y34935D01*
X-307997Y35010D01*
X-308017Y35075D01*
X-308027Y35130D01*
X-308032Y35150D01*
X-308037Y35160D01*
Y35170D01*
Y35175D01*
X-308052Y35255D01*
X-308062Y35350D01*
X-308067Y35450D01*
X-308072Y35540D01*
X-308077Y35625D01*
Y35665D01*
Y35695D01*
Y35725D01*
Y35745D01*
Y35755D01*
Y35760D01*
Y37205D01*
X-304232D01*
Y36695D01*
D02*
G37*
G36*
X260877Y179425D02*
X260959Y179421D01*
X261108Y179402D01*
X261179Y179390D01*
X261246Y179374D01*
X261309Y179358D01*
X261368Y179339D01*
X261419Y179323D01*
X261466Y179307D01*
X261505Y179292D01*
X261541Y179280D01*
X261568Y179268D01*
X261588Y179260D01*
X261600Y179252D01*
X261604D01*
X261729Y179178D01*
X261788Y179138D01*
X261839Y179095D01*
X261891Y179052D01*
X261938Y179009D01*
X261977Y178969D01*
X262016Y178926D01*
X262048Y178887D01*
X262075Y178851D01*
X262103Y178820D01*
X262122Y178793D01*
X262138Y178769D01*
X262150Y178753D01*
X262154Y178741D01*
X262158Y178737D01*
X262193Y178675D01*
X262221Y178608D01*
X262248Y178545D01*
X262272Y178482D01*
X262307Y178356D01*
X262331Y178242D01*
X262338Y178187D01*
X262343Y178140D01*
X262346Y178101D01*
X262350Y178065D01*
X262354Y178034D01*
Y178014D01*
Y177999D01*
Y177995D01*
X262350Y177920D01*
X262346Y177845D01*
X262327Y177708D01*
X262311Y177641D01*
X262295Y177578D01*
X262280Y177523D01*
X262260Y177468D01*
X262244Y177421D01*
X262228Y177378D01*
X262213Y177342D01*
X262197Y177311D01*
X262185Y177283D01*
X262177Y177268D01*
X262170Y177256D01*
Y177252D01*
X262256Y177130D01*
X262331Y177016D01*
X262393Y176906D01*
X262445Y176808D01*
X262464Y176765D01*
X262484Y176725D01*
X262500Y176690D01*
X262511Y176658D01*
X262523Y176635D01*
X262531Y176619D01*
X262535Y176607D01*
Y176603D01*
X262260Y176482D01*
X262225Y176572D01*
X262181Y176662D01*
X262134Y176749D01*
X262087Y176828D01*
X262048Y176894D01*
X262028Y176926D01*
X262012Y176949D01*
X262000Y176969D01*
X261989Y176985D01*
X261985Y176992D01*
X261981Y176997D01*
X261894Y176918D01*
X261808Y176847D01*
X261721Y176788D01*
X261639Y176741D01*
X261572Y176702D01*
X261541Y176686D01*
X261517Y176674D01*
X261494Y176666D01*
X261478Y176658D01*
X261470Y176655D01*
X261466D01*
X261352Y176615D01*
X261234Y176588D01*
X261120Y176568D01*
X261018Y176556D01*
X260971Y176548D01*
X260928Y176544D01*
X260888D01*
X260857Y176541D01*
X260712D01*
X260629Y176548D01*
X260476Y176568D01*
X260405Y176580D01*
X260342Y176596D01*
X260279Y176611D01*
X260220Y176627D01*
X260169Y176647D01*
X260126Y176662D01*
X260083Y176678D01*
X260051Y176690D01*
X260024Y176702D01*
X260004Y176710D01*
X259992Y176714D01*
X259988Y176717D01*
X259863Y176792D01*
X259804Y176831D01*
X259749Y176871D01*
X259701Y176914D01*
X259654Y176957D01*
X259611Y177000D01*
X259576Y177040D01*
X259540Y177079D01*
X259513Y177114D01*
X259489Y177150D01*
X259466Y177177D01*
X259450Y177201D01*
X259438Y177216D01*
X259434Y177228D01*
X259430Y177232D01*
X259395Y177295D01*
X259364Y177362D01*
X259336Y177425D01*
X259312Y177492D01*
X259277Y177617D01*
X259254Y177731D01*
X259246Y177786D01*
X259242Y177833D01*
X259238Y177877D01*
X259234Y177912D01*
X259230Y177944D01*
Y177963D01*
Y177979D01*
Y177983D01*
X259234Y178061D01*
X259238Y178136D01*
X259261Y178278D01*
X259273Y178340D01*
X259289Y178403D01*
X259309Y178462D01*
X259324Y178513D01*
X259344Y178565D01*
X259360Y178604D01*
X259379Y178643D01*
X259391Y178675D01*
X259403Y178698D01*
X259415Y178718D01*
X259419Y178730D01*
X259422Y178734D01*
X259462Y178793D01*
X259501Y178851D01*
X259591Y178954D01*
X259686Y179044D01*
X259776Y179115D01*
X259819Y179146D01*
X259859Y179174D01*
X259894Y179197D01*
X259926Y179213D01*
X259949Y179229D01*
X259969Y179241D01*
X259981Y179244D01*
X259984Y179248D01*
X260055Y179280D01*
X260126Y179307D01*
X260263Y179355D01*
X260401Y179386D01*
X260464Y179398D01*
X260527Y179405D01*
X260582Y179413D01*
X260633Y179421D01*
X260680Y179425D01*
X260719D01*
X260751Y179429D01*
X260794D01*
X260877Y179425D01*
D02*
G37*
G36*
X262303Y175487D02*
Y175067D01*
X260004Y174430D01*
X259945Y174415D01*
X259886Y174399D01*
X259823Y174383D01*
X259768Y174367D01*
X259721Y174355D01*
X259682Y174348D01*
X259666Y174344D01*
X259654D01*
X259650Y174340D01*
X259647D01*
X259662Y174336D01*
X259682Y174332D01*
X259729Y174316D01*
X259788Y174301D01*
X259851Y174285D01*
X259910Y174269D01*
X259957Y174253D01*
X259977Y174249D01*
X259992Y174246D01*
X260000Y174241D01*
X260004D01*
X262303Y173609D01*
Y173220D01*
X259281Y172390D01*
Y172795D01*
X261226Y173271D01*
X261360Y173302D01*
X261486Y173334D01*
X261596Y173357D01*
X261647Y173369D01*
X261694Y173381D01*
X261733Y173389D01*
X261773Y173397D01*
X261804Y173404D01*
X261832Y173408D01*
X261855Y173412D01*
X261871Y173416D01*
X261879Y173420D01*
X261883D01*
X261694Y173452D01*
X261505Y173491D01*
X261415Y173511D01*
X261325Y173530D01*
X261242Y173550D01*
X261159Y173570D01*
X261089Y173585D01*
X261022Y173605D01*
X260959Y173621D01*
X260912Y173632D01*
X260869Y173644D01*
X260837Y173652D01*
X260822Y173656D01*
X260814Y173660D01*
X259281Y174088D01*
Y174572D01*
X261325Y175145D01*
X261344Y175149D01*
X261372Y175157D01*
X261403Y175165D01*
X261442Y175177D01*
X261486Y175185D01*
X261533Y175197D01*
X261631Y175220D01*
X261725Y175244D01*
X261769Y175256D01*
X261804Y175263D01*
X261836Y175271D01*
X261863Y175279D01*
X261879Y175283D01*
X261883D01*
X261769Y175303D01*
X261659Y175322D01*
X261553Y175346D01*
X261458Y175365D01*
X261419Y175373D01*
X261380Y175381D01*
X261348Y175389D01*
X261321Y175397D01*
X261297Y175401D01*
X261281Y175405D01*
X261270Y175409D01*
X261266D01*
X259281Y175865D01*
Y176277D01*
X262303Y175487D01*
D02*
G37*
G36*
X270783Y152721D02*
X270426D01*
Y154207D01*
X267761D01*
Y154607D01*
X270783D01*
Y152721D01*
D02*
G37*
G36*
X293113Y-94544D02*
X293266Y-94560D01*
X293333Y-94572D01*
X293400Y-94587D01*
X293462Y-94599D01*
X293521Y-94615D01*
X293576Y-94631D01*
X293624Y-94643D01*
X293663Y-94658D01*
X293698Y-94670D01*
X293726Y-94678D01*
X293749Y-94686D01*
X293761Y-94694D01*
X293765D01*
X293832Y-94725D01*
X293899Y-94761D01*
X293958Y-94796D01*
X294013Y-94835D01*
X294068Y-94874D01*
X294115Y-94914D01*
X294158Y-94949D01*
X294193Y-94988D01*
X294229Y-95024D01*
X294260Y-95055D01*
X294284Y-95087D01*
X294303Y-95110D01*
X294323Y-95134D01*
X294335Y-95149D01*
X294339Y-95157D01*
X294343Y-95161D01*
X294378Y-95220D01*
X294406Y-95283D01*
X294433Y-95350D01*
X294457Y-95417D01*
X294492Y-95550D01*
X294516Y-95676D01*
X294524Y-95735D01*
X294528Y-95786D01*
X294531Y-95837D01*
X294535Y-95877D01*
X294539Y-95912D01*
Y-95939D01*
Y-95955D01*
Y-95959D01*
X294535Y-96046D01*
X294528Y-96128D01*
X294516Y-96207D01*
X294500Y-96281D01*
X294480Y-96352D01*
X294457Y-96419D01*
X294437Y-96478D01*
X294410Y-96537D01*
X294386Y-96584D01*
X294366Y-96627D01*
X294343Y-96667D01*
X294323Y-96698D01*
X294307Y-96725D01*
X294296Y-96741D01*
X294288Y-96753D01*
X294284Y-96757D01*
X294233Y-96816D01*
X294178Y-96871D01*
X294119Y-96922D01*
X294056Y-96965D01*
X293993Y-97008D01*
X293934Y-97044D01*
X293871Y-97079D01*
X293812Y-97107D01*
X293753Y-97134D01*
X293702Y-97154D01*
X293655Y-97174D01*
X293616Y-97189D01*
X293580Y-97197D01*
X293553Y-97205D01*
X293537Y-97213D01*
X293533D01*
X293431Y-96812D01*
X293502Y-96792D01*
X293565Y-96773D01*
X293624Y-96749D01*
X293683Y-96725D01*
X293734Y-96698D01*
X293781Y-96674D01*
X293824Y-96647D01*
X293859Y-96619D01*
X293895Y-96596D01*
X293922Y-96572D01*
X293950Y-96549D01*
X293969Y-96533D01*
X293985Y-96517D01*
X293997Y-96505D01*
X294001Y-96497D01*
X294005Y-96494D01*
X294040Y-96450D01*
X294068Y-96403D01*
X294095Y-96356D01*
X294115Y-96305D01*
X294150Y-96211D01*
X294174Y-96120D01*
X294182Y-96081D01*
X294186Y-96042D01*
X294190Y-96010D01*
X294193Y-95979D01*
X294197Y-95955D01*
Y-95939D01*
Y-95928D01*
Y-95924D01*
X294190Y-95822D01*
X294174Y-95727D01*
X294154Y-95641D01*
X294127Y-95562D01*
X294099Y-95499D01*
X294087Y-95472D01*
X294079Y-95452D01*
X294068Y-95433D01*
X294064Y-95421D01*
X294056Y-95413D01*
Y-95409D01*
X293997Y-95326D01*
X293930Y-95256D01*
X293859Y-95197D01*
X293789Y-95146D01*
X293726Y-95106D01*
X293698Y-95095D01*
X293675Y-95083D01*
X293655Y-95071D01*
X293639Y-95063D01*
X293631Y-95059D01*
X293628D01*
X293517Y-95024D01*
X293400Y-94996D01*
X293289Y-94977D01*
X293183Y-94965D01*
X293136Y-94957D01*
X293093D01*
X293054Y-94953D01*
X293018Y-94949D01*
X292955D01*
X292845Y-94953D01*
X292739Y-94965D01*
X292641Y-94981D01*
X292551Y-94996D01*
X292515Y-95004D01*
X292480Y-95012D01*
X292448Y-95020D01*
X292421Y-95028D01*
X292401Y-95036D01*
X292386Y-95039D01*
X292378Y-95043D01*
X292374D01*
X292272Y-95083D01*
X292185Y-95134D01*
X292107Y-95189D01*
X292044Y-95244D01*
X291993Y-95291D01*
X291957Y-95330D01*
X291942Y-95346D01*
X291934Y-95358D01*
X291926Y-95366D01*
Y-95370D01*
X291894Y-95417D01*
X291871Y-95464D01*
X291828Y-95562D01*
X291796Y-95660D01*
X291776Y-95751D01*
X291773Y-95794D01*
X291765Y-95833D01*
X291761Y-95869D01*
Y-95896D01*
X291757Y-95920D01*
Y-95939D01*
Y-95951D01*
Y-95955D01*
X291765Y-96065D01*
X291780Y-96163D01*
X291804Y-96250D01*
X291831Y-96325D01*
X291863Y-96384D01*
X291875Y-96407D01*
X291886Y-96427D01*
X291894Y-96443D01*
X291902Y-96454D01*
X291910Y-96458D01*
Y-96462D01*
X291942Y-96497D01*
X291973Y-96533D01*
X292048Y-96596D01*
X292126Y-96647D01*
X292205Y-96690D01*
X292276Y-96725D01*
X292307Y-96737D01*
X292335Y-96749D01*
X292358Y-96757D01*
X292374Y-96765D01*
X292386Y-96769D01*
X292390D01*
X292295Y-97162D01*
X292221Y-97138D01*
X292146Y-97107D01*
X292079Y-97075D01*
X292016Y-97040D01*
X291961Y-97004D01*
X291906Y-96969D01*
X291859Y-96934D01*
X291816Y-96898D01*
X291776Y-96863D01*
X291741Y-96832D01*
X291714Y-96800D01*
X291690Y-96776D01*
X291670Y-96757D01*
X291659Y-96737D01*
X291651Y-96729D01*
X291647Y-96725D01*
X291607Y-96667D01*
X291568Y-96604D01*
X291541Y-96541D01*
X291513Y-96478D01*
X291490Y-96411D01*
X291470Y-96348D01*
X291442Y-96230D01*
X291435Y-96175D01*
X291427Y-96124D01*
X291423Y-96077D01*
X291419Y-96038D01*
X291415Y-96006D01*
Y-95983D01*
Y-95967D01*
Y-95963D01*
Y-95888D01*
X291423Y-95818D01*
X291442Y-95680D01*
X291474Y-95554D01*
X291490Y-95499D01*
X291505Y-95444D01*
X291525Y-95397D01*
X291541Y-95354D01*
X291556Y-95319D01*
X291572Y-95287D01*
X291584Y-95263D01*
X291592Y-95244D01*
X291596Y-95232D01*
X291600Y-95228D01*
X291635Y-95169D01*
X291674Y-95110D01*
X291761Y-95008D01*
X291847Y-94918D01*
X291934Y-94847D01*
X291977Y-94815D01*
X292012Y-94788D01*
X292048Y-94764D01*
X292075Y-94749D01*
X292099Y-94733D01*
X292118Y-94721D01*
X292130Y-94717D01*
X292134Y-94713D01*
X292201Y-94682D01*
X292272Y-94654D01*
X292409Y-94611D01*
X292547Y-94580D01*
X292614Y-94568D01*
X292676Y-94560D01*
X292735Y-94552D01*
X292787Y-94544D01*
X292834Y-94540D01*
X292877D01*
X292908Y-94537D01*
X292955D01*
X293113Y-94544D01*
D02*
G37*
G36*
X294488Y-98793D02*
X294484Y-98891D01*
X294480Y-98985D01*
X294473Y-99068D01*
X294461Y-99138D01*
X294453Y-99197D01*
X294449Y-99221D01*
X294445Y-99241D01*
X294441Y-99256D01*
Y-99268D01*
X294437Y-99272D01*
Y-99276D01*
X294418Y-99351D01*
X294394Y-99421D01*
X294366Y-99484D01*
X294343Y-99535D01*
X294323Y-99579D01*
X294303Y-99610D01*
X294292Y-99630D01*
X294288Y-99638D01*
X294245Y-99693D01*
X294201Y-99748D01*
X294154Y-99795D01*
X294111Y-99834D01*
X294072Y-99870D01*
X294040Y-99893D01*
X294021Y-99913D01*
X294013Y-99917D01*
X293946Y-99960D01*
X293871Y-100003D01*
X293796Y-100039D01*
X293726Y-100066D01*
X293667Y-100090D01*
X293639Y-100097D01*
X293616Y-100105D01*
X293600Y-100113D01*
X293584Y-100117D01*
X293576Y-100121D01*
X293572D01*
X293470Y-100148D01*
X293364Y-100168D01*
X293262Y-100184D01*
X293168Y-100192D01*
X293125Y-100196D01*
X293085Y-100200D01*
X293050D01*
X293022Y-100204D01*
X292963D01*
X292818Y-100200D01*
X292680Y-100184D01*
X292618Y-100176D01*
X292559Y-100164D01*
X292503Y-100152D01*
X292452Y-100145D01*
X292405Y-100133D01*
X292366Y-100121D01*
X292331Y-100109D01*
X292299Y-100101D01*
X292276Y-100093D01*
X292260Y-100086D01*
X292248Y-100082D01*
X292244D01*
X292130Y-100034D01*
X292032Y-99976D01*
X291942Y-99917D01*
X291867Y-99858D01*
X291835Y-99830D01*
X291808Y-99807D01*
X291784Y-99783D01*
X291765Y-99763D01*
X291749Y-99748D01*
X291737Y-99736D01*
X291733Y-99728D01*
X291729Y-99724D01*
X291674Y-99653D01*
X291627Y-99579D01*
X291592Y-99504D01*
X291560Y-99433D01*
X291541Y-99374D01*
X291533Y-99347D01*
X291525Y-99323D01*
X291521Y-99308D01*
X291517Y-99292D01*
X291513Y-99284D01*
Y-99280D01*
X291497Y-99205D01*
X291486Y-99119D01*
X291478Y-99028D01*
X291470Y-98942D01*
Y-98867D01*
X291466Y-98832D01*
Y-98804D01*
Y-98781D01*
Y-98761D01*
Y-98749D01*
Y-98746D01*
Y-97704D01*
X294488D01*
Y-98793D01*
D02*
G37*
G36*
X293113Y-100644D02*
X293266Y-100659D01*
X293333Y-100671D01*
X293400Y-100687D01*
X293462Y-100699D01*
X293521Y-100714D01*
X293576Y-100730D01*
X293624Y-100742D01*
X293663Y-100758D01*
X293698Y-100769D01*
X293726Y-100777D01*
X293749Y-100785D01*
X293761Y-100793D01*
X293765D01*
X293832Y-100824D01*
X293899Y-100860D01*
X293958Y-100895D01*
X294013Y-100935D01*
X294068Y-100974D01*
X294115Y-101013D01*
X294158Y-101049D01*
X294193Y-101088D01*
X294229Y-101123D01*
X294260Y-101155D01*
X294284Y-101186D01*
X294303Y-101210D01*
X294323Y-101233D01*
X294335Y-101249D01*
X294339Y-101257D01*
X294343Y-101261D01*
X294378Y-101320D01*
X294406Y-101383D01*
X294433Y-101449D01*
X294457Y-101516D01*
X294492Y-101650D01*
X294516Y-101776D01*
X294524Y-101834D01*
X294528Y-101886D01*
X294531Y-101937D01*
X294535Y-101976D01*
X294539Y-102011D01*
Y-102039D01*
Y-102055D01*
Y-102058D01*
X294535Y-102145D01*
X294528Y-102227D01*
X294516Y-102306D01*
X294500Y-102381D01*
X294480Y-102452D01*
X294457Y-102518D01*
X294437Y-102577D01*
X294410Y-102636D01*
X294386Y-102683D01*
X294366Y-102727D01*
X294343Y-102766D01*
X294323Y-102797D01*
X294307Y-102825D01*
X294296Y-102840D01*
X294288Y-102852D01*
X294284Y-102856D01*
X294233Y-102915D01*
X294178Y-102970D01*
X294119Y-103021D01*
X294056Y-103065D01*
X293993Y-103108D01*
X293934Y-103143D01*
X293871Y-103179D01*
X293812Y-103206D01*
X293753Y-103234D01*
X293702Y-103253D01*
X293655Y-103273D01*
X293616Y-103289D01*
X293580Y-103296D01*
X293553Y-103304D01*
X293537Y-103312D01*
X293533D01*
X293431Y-102911D01*
X293502Y-102892D01*
X293565Y-102872D01*
X293624Y-102848D01*
X293683Y-102825D01*
X293734Y-102797D01*
X293781Y-102774D01*
X293824Y-102746D01*
X293859Y-102719D01*
X293895Y-102695D01*
X293922Y-102672D01*
X293950Y-102648D01*
X293969Y-102632D01*
X293985Y-102617D01*
X293997Y-102605D01*
X294001Y-102597D01*
X294005Y-102593D01*
X294040Y-102550D01*
X294068Y-102503D01*
X294095Y-102455D01*
X294115Y-102404D01*
X294150Y-102310D01*
X294174Y-102220D01*
X294182Y-102180D01*
X294186Y-102141D01*
X294190Y-102110D01*
X294193Y-102078D01*
X294197Y-102055D01*
Y-102039D01*
Y-102027D01*
Y-102023D01*
X294190Y-101921D01*
X294174Y-101827D01*
X294154Y-101740D01*
X294127Y-101662D01*
X294099Y-101599D01*
X294087Y-101571D01*
X294079Y-101551D01*
X294068Y-101532D01*
X294064Y-101520D01*
X294056Y-101512D01*
Y-101508D01*
X293997Y-101426D01*
X293930Y-101355D01*
X293859Y-101296D01*
X293789Y-101245D01*
X293726Y-101206D01*
X293698Y-101194D01*
X293675Y-101182D01*
X293655Y-101170D01*
X293639Y-101162D01*
X293631Y-101158D01*
X293628D01*
X293517Y-101123D01*
X293400Y-101096D01*
X293289Y-101076D01*
X293183Y-101064D01*
X293136Y-101056D01*
X293093D01*
X293054Y-101052D01*
X293018Y-101049D01*
X292955D01*
X292845Y-101052D01*
X292739Y-101064D01*
X292641Y-101080D01*
X292551Y-101096D01*
X292515Y-101103D01*
X292480Y-101111D01*
X292448Y-101119D01*
X292421Y-101127D01*
X292401Y-101135D01*
X292386Y-101139D01*
X292378Y-101143D01*
X292374D01*
X292272Y-101182D01*
X292185Y-101233D01*
X292107Y-101288D01*
X292044Y-101343D01*
X291993Y-101390D01*
X291957Y-101430D01*
X291942Y-101445D01*
X291934Y-101457D01*
X291926Y-101465D01*
Y-101469D01*
X291894Y-101516D01*
X291871Y-101563D01*
X291828Y-101662D01*
X291796Y-101760D01*
X291776Y-101850D01*
X291773Y-101893D01*
X291765Y-101933D01*
X291761Y-101968D01*
Y-101996D01*
X291757Y-102019D01*
Y-102039D01*
Y-102051D01*
Y-102055D01*
X291765Y-102165D01*
X291780Y-102263D01*
X291804Y-102349D01*
X291831Y-102424D01*
X291863Y-102483D01*
X291875Y-102506D01*
X291886Y-102526D01*
X291894Y-102542D01*
X291902Y-102554D01*
X291910Y-102558D01*
Y-102561D01*
X291942Y-102597D01*
X291973Y-102632D01*
X292048Y-102695D01*
X292126Y-102746D01*
X292205Y-102789D01*
X292276Y-102825D01*
X292307Y-102837D01*
X292335Y-102848D01*
X292358Y-102856D01*
X292374Y-102864D01*
X292386Y-102868D01*
X292390D01*
X292295Y-103261D01*
X292221Y-103237D01*
X292146Y-103206D01*
X292079Y-103175D01*
X292016Y-103139D01*
X291961Y-103104D01*
X291906Y-103068D01*
X291859Y-103033D01*
X291816Y-102998D01*
X291776Y-102962D01*
X291741Y-102931D01*
X291714Y-102900D01*
X291690Y-102876D01*
X291670Y-102856D01*
X291659Y-102837D01*
X291651Y-102829D01*
X291647Y-102825D01*
X291607Y-102766D01*
X291568Y-102703D01*
X291541Y-102640D01*
X291513Y-102577D01*
X291490Y-102510D01*
X291470Y-102447D01*
X291442Y-102330D01*
X291435Y-102275D01*
X291427Y-102224D01*
X291423Y-102176D01*
X291419Y-102137D01*
X291415Y-102106D01*
Y-102082D01*
Y-102066D01*
Y-102062D01*
Y-101988D01*
X291423Y-101917D01*
X291442Y-101779D01*
X291474Y-101654D01*
X291490Y-101599D01*
X291505Y-101544D01*
X291525Y-101497D01*
X291541Y-101453D01*
X291556Y-101418D01*
X291572Y-101386D01*
X291584Y-101363D01*
X291592Y-101343D01*
X291596Y-101331D01*
X291600Y-101328D01*
X291635Y-101268D01*
X291674Y-101210D01*
X291761Y-101107D01*
X291847Y-101017D01*
X291934Y-100946D01*
X291977Y-100915D01*
X292012Y-100887D01*
X292048Y-100864D01*
X292075Y-100848D01*
X292099Y-100832D01*
X292118Y-100821D01*
X292130Y-100817D01*
X292134Y-100813D01*
X292201Y-100781D01*
X292272Y-100754D01*
X292409Y-100710D01*
X292547Y-100679D01*
X292614Y-100667D01*
X292676Y-100659D01*
X292735Y-100652D01*
X292787Y-100644D01*
X292834Y-100640D01*
X292877D01*
X292908Y-100636D01*
X292955D01*
X293113Y-100644D01*
D02*
G37*
G36*
X294488Y-89652D02*
Y-90068D01*
X291466Y-91247D01*
Y-90842D01*
X293663Y-90025D01*
X293753Y-89989D01*
X293844Y-89958D01*
X293930Y-89930D01*
X294005Y-89907D01*
X294068Y-89887D01*
X294091Y-89879D01*
X294115Y-89872D01*
X294134Y-89868D01*
X294146Y-89864D01*
X294154Y-89860D01*
X294158D01*
X294072Y-89836D01*
X293981Y-89809D01*
X293899Y-89781D01*
X293824Y-89758D01*
X293757Y-89734D01*
X293730Y-89726D01*
X293706Y-89718D01*
X293690Y-89710D01*
X293675Y-89706D01*
X293667Y-89702D01*
X293663D01*
X291466Y-88916D01*
Y-88480D01*
X294488Y-89652D01*
D02*
G37*
G36*
X-305152Y24845D02*
X-304232D01*
Y24375D01*
X-305152D01*
Y23855D01*
X-305587D01*
Y24375D01*
X-308077D01*
Y24760D01*
X-305587Y26515D01*
X-305152D01*
Y24845D01*
D02*
G37*
G36*
X294488Y-92693D02*
X294484Y-92791D01*
X294480Y-92886D01*
X294473Y-92968D01*
X294461Y-93039D01*
X294453Y-93098D01*
X294449Y-93122D01*
X294445Y-93141D01*
X294441Y-93157D01*
Y-93169D01*
X294437Y-93173D01*
Y-93177D01*
X294418Y-93251D01*
X294394Y-93322D01*
X294366Y-93385D01*
X294343Y-93436D01*
X294323Y-93479D01*
X294303Y-93511D01*
X294292Y-93530D01*
X294288Y-93538D01*
X294245Y-93593D01*
X294201Y-93648D01*
X294154Y-93695D01*
X294111Y-93735D01*
X294072Y-93770D01*
X294040Y-93794D01*
X294021Y-93813D01*
X294013Y-93817D01*
X293946Y-93861D01*
X293871Y-93904D01*
X293796Y-93939D01*
X293726Y-93967D01*
X293667Y-93990D01*
X293639Y-93998D01*
X293616Y-94006D01*
X293600Y-94014D01*
X293584Y-94018D01*
X293576Y-94022D01*
X293572D01*
X293470Y-94049D01*
X293364Y-94069D01*
X293262Y-94085D01*
X293168Y-94092D01*
X293125Y-94096D01*
X293085Y-94100D01*
X293050D01*
X293022Y-94104D01*
X292963D01*
X292818Y-94100D01*
X292680Y-94085D01*
X292618Y-94077D01*
X292559Y-94065D01*
X292503Y-94053D01*
X292452Y-94045D01*
X292405Y-94033D01*
X292366Y-94022D01*
X292331Y-94010D01*
X292299Y-94002D01*
X292276Y-93994D01*
X292260Y-93986D01*
X292248Y-93982D01*
X292244D01*
X292130Y-93935D01*
X292032Y-93876D01*
X291942Y-93817D01*
X291867Y-93758D01*
X291835Y-93731D01*
X291808Y-93707D01*
X291784Y-93684D01*
X291765Y-93664D01*
X291749Y-93648D01*
X291737Y-93637D01*
X291733Y-93629D01*
X291729Y-93625D01*
X291674Y-93554D01*
X291627Y-93479D01*
X291592Y-93405D01*
X291560Y-93334D01*
X291541Y-93275D01*
X291533Y-93247D01*
X291525Y-93224D01*
X291521Y-93208D01*
X291517Y-93192D01*
X291513Y-93185D01*
Y-93181D01*
X291497Y-93106D01*
X291486Y-93019D01*
X291478Y-92929D01*
X291470Y-92843D01*
Y-92768D01*
X291466Y-92733D01*
Y-92705D01*
Y-92681D01*
Y-92662D01*
Y-92650D01*
Y-92646D01*
Y-91605D01*
X294488D01*
Y-92693D01*
D02*
G37*
G36*
X281009Y142717D02*
X280588D01*
X280258Y143632D01*
X278993D01*
X278643Y142717D01*
X278191D01*
X279421Y145739D01*
X279857D01*
X281009Y142717D01*
D02*
G37*
G36*
X275043D02*
X272791D01*
Y143074D01*
X274642D01*
Y144104D01*
X272976D01*
Y144462D01*
X274642D01*
Y145381D01*
X272862D01*
Y145739D01*
X275043D01*
Y142717D01*
D02*
G37*
G36*
X286723Y145786D02*
X286798Y145782D01*
X286939Y145758D01*
X287002Y145747D01*
X287065Y145731D01*
X287124Y145711D01*
X287175Y145695D01*
X287226Y145676D01*
X287265Y145660D01*
X287305Y145641D01*
X287336Y145629D01*
X287360Y145617D01*
X287379Y145605D01*
X287391Y145601D01*
X287395Y145597D01*
X287454Y145558D01*
X287513Y145519D01*
X287615Y145428D01*
X287705Y145334D01*
X287776Y145244D01*
X287808Y145200D01*
X287835Y145161D01*
X287859Y145126D01*
X287874Y145094D01*
X287890Y145071D01*
X287902Y145051D01*
X287906Y145039D01*
X287910Y145035D01*
X287941Y144965D01*
X287969Y144894D01*
X288016Y144756D01*
X288047Y144619D01*
X288059Y144556D01*
X288067Y144493D01*
X288075Y144438D01*
X288083Y144387D01*
X288087Y144340D01*
Y144300D01*
X288090Y144269D01*
Y144245D01*
Y144230D01*
Y144226D01*
X288087Y144143D01*
X288083Y144061D01*
X288063Y143911D01*
X288051Y143841D01*
X288035Y143774D01*
X288020Y143711D01*
X288000Y143652D01*
X287984Y143601D01*
X287969Y143554D01*
X287953Y143514D01*
X287941Y143479D01*
X287929Y143451D01*
X287922Y143432D01*
X287914Y143420D01*
Y143416D01*
X287839Y143290D01*
X287800Y143231D01*
X287756Y143180D01*
X287713Y143129D01*
X287670Y143082D01*
X287631Y143043D01*
X287587Y143003D01*
X287548Y142972D01*
X287513Y142945D01*
X287481Y142917D01*
X287454Y142897D01*
X287430Y142882D01*
X287415Y142870D01*
X287403Y142866D01*
X287399Y142862D01*
X287336Y142827D01*
X287269Y142799D01*
X287206Y142772D01*
X287143Y142748D01*
X287018Y142713D01*
X286904Y142689D01*
X286849Y142681D01*
X286802Y142677D01*
X286762Y142673D01*
X286727Y142669D01*
X286695Y142666D01*
X286656D01*
X286581Y142669D01*
X286507Y142673D01*
X286369Y142693D01*
X286302Y142709D01*
X286240Y142724D01*
X286185Y142740D01*
X286129Y142760D01*
X286082Y142775D01*
X286039Y142791D01*
X286004Y142807D01*
X285972Y142823D01*
X285945Y142834D01*
X285929Y142842D01*
X285917Y142850D01*
X285913D01*
X285791Y142764D01*
X285678Y142689D01*
X285567Y142626D01*
X285469Y142575D01*
X285426Y142555D01*
X285387Y142536D01*
X285351Y142520D01*
X285320Y142508D01*
X285296Y142497D01*
X285281Y142489D01*
X285269Y142485D01*
X285265D01*
X285143Y142760D01*
X285233Y142795D01*
X285324Y142838D01*
X285410Y142885D01*
X285489Y142933D01*
X285556Y142972D01*
X285587Y142992D01*
X285611Y143007D01*
X285630Y143019D01*
X285646Y143031D01*
X285654Y143035D01*
X285658Y143039D01*
X285579Y143125D01*
X285508Y143212D01*
X285450Y143298D01*
X285402Y143381D01*
X285363Y143447D01*
X285347Y143479D01*
X285336Y143502D01*
X285328Y143526D01*
X285320Y143542D01*
X285316Y143550D01*
Y143554D01*
X285277Y143668D01*
X285249Y143786D01*
X285229Y143900D01*
X285218Y144002D01*
X285210Y144049D01*
X285206Y144092D01*
Y144131D01*
X285202Y144163D01*
Y144190D01*
Y144210D01*
Y144222D01*
Y144226D01*
Y144308D01*
X285210Y144391D01*
X285229Y144544D01*
X285241Y144615D01*
X285257Y144678D01*
X285273Y144740D01*
X285289Y144799D01*
X285308Y144851D01*
X285324Y144894D01*
X285340Y144937D01*
X285351Y144968D01*
X285363Y144996D01*
X285371Y145016D01*
X285375Y145027D01*
X285379Y145031D01*
X285454Y145157D01*
X285493Y145216D01*
X285532Y145271D01*
X285575Y145318D01*
X285619Y145365D01*
X285662Y145409D01*
X285701Y145444D01*
X285740Y145479D01*
X285776Y145507D01*
X285811Y145530D01*
X285839Y145554D01*
X285862Y145570D01*
X285878Y145581D01*
X285890Y145585D01*
X285894Y145589D01*
X285957Y145625D01*
X286023Y145656D01*
X286086Y145684D01*
X286153Y145707D01*
X286279Y145743D01*
X286393Y145766D01*
X286448Y145774D01*
X286495Y145778D01*
X286538Y145782D01*
X286574Y145786D01*
X286605Y145790D01*
X286644D01*
X286723Y145786D01*
D02*
G37*
G36*
X-304232Y28305D02*
X-304237Y28170D01*
X-304242Y28050D01*
X-304252Y27945D01*
X-304262Y27855D01*
X-304272Y27785D01*
X-304277Y27755D01*
X-304282Y27730D01*
X-304287Y27710D01*
X-304292Y27695D01*
Y27690D01*
Y27685D01*
X-304317Y27595D01*
X-304347Y27510D01*
X-304382Y27440D01*
X-304412Y27380D01*
X-304437Y27330D01*
X-304462Y27295D01*
X-304477Y27270D01*
X-304482Y27265D01*
X-304537Y27205D01*
X-304592Y27150D01*
X-304652Y27100D01*
X-304712Y27060D01*
X-304762Y27025D01*
X-304802Y27000D01*
X-304832Y26985D01*
X-304842Y26980D01*
X-304932Y26940D01*
X-305017Y26915D01*
X-305102Y26895D01*
X-305177Y26880D01*
X-305247Y26870D01*
X-305297Y26865D01*
X-305342D01*
X-305462Y26875D01*
X-305572Y26895D01*
X-305672Y26925D01*
X-305757Y26960D01*
X-305827Y26995D01*
X-305877Y27025D01*
X-305897Y27035D01*
X-305912Y27045D01*
X-305917Y27055D01*
X-305922D01*
X-306007Y27130D01*
X-306082Y27215D01*
X-306142Y27305D01*
X-306192Y27390D01*
X-306232Y27470D01*
X-306247Y27505D01*
X-306257Y27530D01*
X-306267Y27555D01*
X-306272Y27575D01*
X-306277Y27585D01*
Y27590D01*
X-306327Y27495D01*
X-306387Y27415D01*
X-306442Y27345D01*
X-306497Y27285D01*
X-306547Y27240D01*
X-306587Y27210D01*
X-306612Y27190D01*
X-306622Y27185D01*
X-306707Y27140D01*
X-306787Y27105D01*
X-306867Y27085D01*
X-306942Y27065D01*
X-307002Y27055D01*
X-307052Y27050D01*
X-307092D01*
X-307192Y27055D01*
X-307282Y27075D01*
X-307367Y27100D01*
X-307442Y27125D01*
X-307507Y27155D01*
X-307557Y27180D01*
X-307587Y27200D01*
X-307592Y27205D01*
X-307597D01*
X-307682Y27265D01*
X-307757Y27335D01*
X-307817Y27400D01*
X-307867Y27470D01*
X-307907Y27530D01*
X-307937Y27575D01*
X-307947Y27595D01*
X-307952Y27610D01*
X-307957Y27615D01*
Y27620D01*
X-307997Y27725D01*
X-308027Y27840D01*
X-308047Y27960D01*
X-308062Y28070D01*
X-308072Y28170D01*
Y28215D01*
X-308077Y28250D01*
Y28280D01*
Y28305D01*
Y28320D01*
Y28325D01*
Y29765D01*
X-304232D01*
Y28305D01*
D02*
G37*
G36*
X284149Y142717D02*
X283728D01*
X283092Y145016D01*
X283076Y145074D01*
X283060Y145133D01*
X283044Y145196D01*
X283029Y145251D01*
X283017Y145299D01*
X283009Y145338D01*
X283005Y145354D01*
Y145365D01*
X283001Y145369D01*
Y145373D01*
X282997Y145358D01*
X282993Y145338D01*
X282978Y145291D01*
X282962Y145232D01*
X282946Y145169D01*
X282930Y145110D01*
X282915Y145063D01*
X282911Y145043D01*
X282907Y145027D01*
X282903Y145019D01*
Y145016D01*
X282270Y142717D01*
X281881D01*
X281052Y145739D01*
X281457D01*
X281932Y143793D01*
X281964Y143660D01*
X281995Y143534D01*
X282019Y143424D01*
X282031Y143373D01*
X282042Y143326D01*
X282050Y143286D01*
X282058Y143247D01*
X282066Y143216D01*
X282070Y143188D01*
X282074Y143165D01*
X282078Y143149D01*
X282082Y143141D01*
Y143137D01*
X282113Y143326D01*
X282152Y143514D01*
X282172Y143605D01*
X282192Y143695D01*
X282211Y143778D01*
X282231Y143860D01*
X282247Y143931D01*
X282266Y143998D01*
X282282Y144061D01*
X282294Y144108D01*
X282306Y144151D01*
X282313Y144182D01*
X282317Y144198D01*
X282321Y144206D01*
X282750Y145739D01*
X283233D01*
X283807Y143695D01*
X283811Y143675D01*
X283819Y143648D01*
X283826Y143616D01*
X283838Y143577D01*
X283846Y143534D01*
X283858Y143487D01*
X283881Y143389D01*
X283905Y143294D01*
X283917Y143251D01*
X283925Y143216D01*
X283933Y143184D01*
X283941Y143157D01*
X283944Y143141D01*
Y143137D01*
X283964Y143251D01*
X283984Y143361D01*
X284007Y143467D01*
X284027Y143561D01*
X284035Y143601D01*
X284043Y143640D01*
X284050Y143672D01*
X284058Y143699D01*
X284062Y143723D01*
X284066Y143738D01*
X284070Y143750D01*
Y143754D01*
X284526Y145739D01*
X284939D01*
X284149Y142717D01*
D02*
G37*
G36*
X277004D02*
X276587D01*
X275408Y145739D01*
X275813D01*
X276631Y143542D01*
X276666Y143451D01*
X276697Y143361D01*
X276725Y143275D01*
X276749Y143200D01*
X276768Y143137D01*
X276776Y143114D01*
X276784Y143090D01*
X276788Y143070D01*
X276792Y143058D01*
X276796Y143051D01*
Y143047D01*
X276819Y143133D01*
X276847Y143224D01*
X276874Y143306D01*
X276898Y143381D01*
X276922Y143447D01*
X276929Y143475D01*
X276937Y143499D01*
X276945Y143514D01*
X276949Y143530D01*
X276953Y143538D01*
Y143542D01*
X277739Y145739D01*
X278175D01*
X277004Y142717D01*
D02*
G37*
G36*
X-300277Y6793D02*
X-300183Y6788D01*
X-299995Y6762D01*
X-299827Y6725D01*
X-299748Y6704D01*
X-299675Y6683D01*
X-299612Y6662D01*
X-299549Y6641D01*
X-299497Y6620D01*
X-299455Y6605D01*
X-299418Y6589D01*
X-299392Y6578D01*
X-299376Y6568D01*
X-299371D01*
X-299203Y6474D01*
X-299051Y6363D01*
X-298989Y6311D01*
X-298926Y6254D01*
X-298868Y6196D01*
X-298816Y6143D01*
X-298774Y6091D01*
X-298732Y6044D01*
X-298700Y6002D01*
X-298674Y5965D01*
X-298648Y5934D01*
X-298632Y5913D01*
X-298627Y5897D01*
X-298622Y5892D01*
X-298574Y5808D01*
X-298533Y5719D01*
X-298496Y5635D01*
X-298464Y5546D01*
X-298417Y5373D01*
X-298386Y5216D01*
X-298370Y5143D01*
X-298365Y5080D01*
X-298360Y5022D01*
X-298354Y4970D01*
X-298349Y4933D01*
Y4902D01*
Y4881D01*
Y4875D01*
X-298354Y4776D01*
X-298360Y4682D01*
X-298386Y4503D01*
X-298428Y4336D01*
X-298449Y4262D01*
X-298475Y4189D01*
X-298496Y4126D01*
X-298517Y4068D01*
X-298538Y4021D01*
X-298559Y3979D01*
X-298574Y3948D01*
X-298585Y3922D01*
X-298595Y3906D01*
Y3901D01*
X-298643Y3817D01*
X-298695Y3738D01*
X-298816Y3597D01*
X-298936Y3476D01*
X-298994Y3424D01*
X-299051Y3377D01*
X-299109Y3335D01*
X-299156Y3298D01*
X-299203Y3272D01*
X-299245Y3246D01*
X-299277Y3225D01*
X-299303Y3209D01*
X-299319Y3204D01*
X-299324Y3199D01*
X-299418Y3157D01*
X-299513Y3115D01*
X-299701Y3052D01*
X-299885Y3010D01*
X-299974Y2994D01*
X-300057Y2978D01*
X-300136Y2968D01*
X-300204Y2957D01*
X-300267Y2952D01*
X-300319D01*
X-300367Y2947D01*
X-300534D01*
X-300644Y2957D01*
X-300849Y2984D01*
X-300943Y2999D01*
X-301032Y3020D01*
X-301116Y3041D01*
X-301189Y3062D01*
X-301257Y3088D01*
X-301320Y3109D01*
X-301373Y3131D01*
X-301420Y3146D01*
X-301456Y3162D01*
X-301483Y3172D01*
X-301498Y3178D01*
X-301504Y3183D01*
X-301671Y3282D01*
X-301750Y3335D01*
X-301823Y3387D01*
X-301886Y3445D01*
X-301949Y3503D01*
X-302007Y3560D01*
X-302054Y3613D01*
X-302101Y3665D01*
X-302138Y3712D01*
X-302169Y3759D01*
X-302201Y3796D01*
X-302222Y3827D01*
X-302237Y3848D01*
X-302242Y3864D01*
X-302248Y3869D01*
X-302295Y3953D01*
X-302337Y4042D01*
X-302374Y4126D01*
X-302405Y4215D01*
X-302452Y4383D01*
X-302484Y4535D01*
X-302494Y4608D01*
X-302499Y4671D01*
X-302504Y4729D01*
X-302510Y4776D01*
X-302515Y4818D01*
Y4844D01*
Y4865D01*
Y4870D01*
X-302510Y5027D01*
X-302489Y5174D01*
X-302463Y5316D01*
X-302426Y5446D01*
X-302384Y5572D01*
X-302337Y5688D01*
X-302284Y5792D01*
X-302232Y5887D01*
X-302174Y5971D01*
X-302127Y6049D01*
X-302075Y6112D01*
X-302033Y6164D01*
X-301996Y6206D01*
X-301970Y6238D01*
X-301949Y6259D01*
X-301944Y6264D01*
X-301834Y6358D01*
X-301713Y6442D01*
X-301588Y6510D01*
X-301462Y6573D01*
X-301331Y6626D01*
X-301200Y6667D01*
X-301074Y6704D01*
X-300948Y6730D01*
X-300833Y6751D01*
X-300723Y6772D01*
X-300629Y6783D01*
X-300545Y6788D01*
X-300471Y6793D01*
X-300419Y6798D01*
X-300377D01*
X-300277Y6793D01*
D02*
G37*
G36*
X295177Y175881D02*
Y175461D01*
X292878Y174824D01*
X292819Y174808D01*
X292760Y174792D01*
X292697Y174777D01*
X292642Y174761D01*
X292595Y174749D01*
X292556Y174741D01*
X292540Y174737D01*
X292528D01*
X292524Y174733D01*
X292520D01*
X292536Y174730D01*
X292556Y174726D01*
X292603Y174710D01*
X292662Y174694D01*
X292725Y174679D01*
X292784Y174663D01*
X292831Y174647D01*
X292851Y174643D01*
X292866Y174639D01*
X292874Y174635D01*
X292878D01*
X295177Y174003D01*
Y173613D01*
X292155Y172784D01*
Y173189D01*
X294100Y173664D01*
X294234Y173696D01*
X294360Y173727D01*
X294470Y173751D01*
X294521Y173763D01*
X294568Y173775D01*
X294607Y173782D01*
X294647Y173790D01*
X294678Y173798D01*
X294706Y173802D01*
X294729Y173806D01*
X294745Y173810D01*
X294753Y173814D01*
X294757D01*
X294568Y173845D01*
X294379Y173885D01*
X294289Y173904D01*
X294199Y173924D01*
X294116Y173944D01*
X294034Y173963D01*
X293963Y173979D01*
X293896Y173999D01*
X293833Y174014D01*
X293786Y174026D01*
X293743Y174038D01*
X293711Y174046D01*
X293696Y174050D01*
X293688Y174054D01*
X292155Y174482D01*
Y174965D01*
X294199Y175539D01*
X294218Y175543D01*
X294246Y175551D01*
X294277Y175559D01*
X294317Y175571D01*
X294360Y175578D01*
X294407Y175590D01*
X294505Y175614D01*
X294600Y175637D01*
X294643Y175649D01*
X294678Y175657D01*
X294709Y175665D01*
X294737Y175673D01*
X294753Y175677D01*
X294757D01*
X294643Y175696D01*
X294533Y175716D01*
X294426Y175740D01*
X294332Y175759D01*
X294293Y175767D01*
X294254Y175775D01*
X294222Y175783D01*
X294195Y175791D01*
X294171Y175795D01*
X294155Y175798D01*
X294144Y175802D01*
X294140D01*
X292155Y176258D01*
Y176671D01*
X295177Y175881D01*
D02*
G37*
G36*
X-298417Y19877D02*
X-298423Y19747D01*
X-298428Y19621D01*
X-298438Y19511D01*
X-298454Y19416D01*
X-298464Y19338D01*
X-298470Y19306D01*
X-298475Y19280D01*
X-298480Y19259D01*
Y19243D01*
X-298485Y19238D01*
Y19233D01*
X-298512Y19133D01*
X-298543Y19039D01*
X-298580Y18955D01*
X-298611Y18887D01*
X-298637Y18830D01*
X-298664Y18788D01*
X-298679Y18761D01*
X-298685Y18751D01*
X-298742Y18677D01*
X-298800Y18604D01*
X-298863Y18541D01*
X-298920Y18489D01*
X-298973Y18442D01*
X-299015Y18410D01*
X-299041Y18384D01*
X-299051Y18379D01*
X-299140Y18321D01*
X-299240Y18264D01*
X-299340Y18216D01*
X-299434Y18180D01*
X-299513Y18148D01*
X-299549Y18138D01*
X-299581Y18127D01*
X-299602Y18117D01*
X-299623Y18112D01*
X-299633Y18106D01*
X-299638D01*
X-299775Y18070D01*
X-299916Y18044D01*
X-300052Y18022D01*
X-300178Y18012D01*
X-300236Y18007D01*
X-300288Y18002D01*
X-300335D01*
X-300372Y17996D01*
X-300450D01*
X-300644Y18002D01*
X-300828Y18022D01*
X-300912Y18033D01*
X-300990Y18049D01*
X-301063Y18064D01*
X-301132Y18075D01*
X-301195Y18091D01*
X-301247Y18106D01*
X-301294Y18122D01*
X-301336Y18133D01*
X-301367Y18143D01*
X-301388Y18154D01*
X-301404Y18159D01*
X-301409D01*
X-301561Y18222D01*
X-301692Y18300D01*
X-301813Y18379D01*
X-301912Y18458D01*
X-301954Y18494D01*
X-301991Y18526D01*
X-302022Y18557D01*
X-302049Y18583D01*
X-302070Y18604D01*
X-302085Y18620D01*
X-302091Y18630D01*
X-302096Y18636D01*
X-302169Y18730D01*
X-302232Y18830D01*
X-302279Y18929D01*
X-302321Y19023D01*
X-302347Y19102D01*
X-302358Y19139D01*
X-302368Y19170D01*
X-302374Y19191D01*
X-302379Y19212D01*
X-302384Y19222D01*
Y19228D01*
X-302405Y19327D01*
X-302421Y19443D01*
X-302431Y19563D01*
X-302442Y19678D01*
Y19778D01*
X-302447Y19825D01*
Y19862D01*
Y19893D01*
Y19919D01*
Y19935D01*
Y19940D01*
Y21329D01*
X-298417D01*
Y19877D01*
D02*
G37*
G36*
X295177Y172320D02*
X294262Y171990D01*
Y170725D01*
X295177Y170375D01*
Y169923D01*
X292155Y171153D01*
Y171590D01*
X295177Y172741D01*
Y172320D01*
D02*
G37*
G36*
X288888Y157283D02*
X287800D01*
X287701Y157287D01*
X287607Y157291D01*
X287524Y157299D01*
X287454Y157311D01*
X287395Y157319D01*
X287371Y157323D01*
X287351Y157327D01*
X287336Y157331D01*
X287324D01*
X287320Y157334D01*
X287316D01*
X287242Y157354D01*
X287171Y157378D01*
X287108Y157405D01*
X287057Y157429D01*
X287014Y157448D01*
X286982Y157468D01*
X286963Y157480D01*
X286955Y157484D01*
X286900Y157527D01*
X286845Y157570D01*
X286797Y157617D01*
X286758Y157661D01*
X286723Y157700D01*
X286699Y157731D01*
X286680Y157751D01*
X286676Y157759D01*
X286632Y157826D01*
X286589Y157901D01*
X286554Y157975D01*
X286526Y158046D01*
X286503Y158105D01*
X286495Y158132D01*
X286487Y158156D01*
X286479Y158172D01*
X286475Y158187D01*
X286471Y158195D01*
Y158199D01*
X286444Y158301D01*
X286424Y158407D01*
X286408Y158510D01*
X286401Y158604D01*
X286397Y158647D01*
X286393Y158686D01*
Y158722D01*
X286389Y158749D01*
Y158777D01*
Y158793D01*
Y158804D01*
Y158808D01*
X286393Y158954D01*
X286408Y159091D01*
X286416Y159154D01*
X286428Y159213D01*
X286440Y159268D01*
X286448Y159319D01*
X286459Y159366D01*
X286471Y159406D01*
X286483Y159441D01*
X286491Y159473D01*
X286499Y159496D01*
X286507Y159512D01*
X286510Y159524D01*
Y159528D01*
X286558Y159642D01*
X286617Y159740D01*
X286676Y159830D01*
X286735Y159905D01*
X286762Y159936D01*
X286786Y159964D01*
X286809Y159987D01*
X286829Y160007D01*
X286845Y160023D01*
X286856Y160035D01*
X286864Y160038D01*
X286868Y160042D01*
X286939Y160097D01*
X287014Y160144D01*
X287088Y160180D01*
X287159Y160211D01*
X287218Y160231D01*
X287245Y160239D01*
X287269Y160247D01*
X287285Y160251D01*
X287300Y160255D01*
X287308Y160258D01*
X287312D01*
X287387Y160274D01*
X287473Y160286D01*
X287564Y160294D01*
X287650Y160302D01*
X287725D01*
X287760Y160306D01*
X288888D01*
Y157283D01*
D02*
G37*
G36*
X-298417Y15078D02*
X-302447D01*
Y15612D01*
X-298417D01*
Y15078D01*
D02*
G37*
G36*
X293751Y179819D02*
X293833Y179815D01*
X293983Y179795D01*
X294053Y179783D01*
X294120Y179768D01*
X294183Y179752D01*
X294242Y179732D01*
X294293Y179717D01*
X294340Y179701D01*
X294379Y179685D01*
X294415Y179674D01*
X294442Y179662D01*
X294462Y179654D01*
X294474Y179646D01*
X294478D01*
X294603Y179571D01*
X294662Y179532D01*
X294713Y179489D01*
X294764Y179446D01*
X294812Y179402D01*
X294851Y179363D01*
X294890Y179320D01*
X294922Y179280D01*
X294949Y179245D01*
X294977Y179214D01*
X294996Y179186D01*
X295012Y179163D01*
X295024Y179147D01*
X295028Y179135D01*
X295032Y179131D01*
X295067Y179068D01*
X295095Y179001D01*
X295122Y178939D01*
X295146Y178876D01*
X295181Y178750D01*
X295205Y178636D01*
X295213Y178581D01*
X295216Y178534D01*
X295220Y178495D01*
X295224Y178459D01*
X295228Y178428D01*
Y178408D01*
Y178392D01*
Y178388D01*
X295224Y178314D01*
X295220Y178239D01*
X295201Y178102D01*
X295185Y178035D01*
X295169Y177972D01*
X295154Y177917D01*
X295134Y177862D01*
X295118Y177815D01*
X295103Y177771D01*
X295087Y177736D01*
X295071Y177705D01*
X295059Y177677D01*
X295051Y177661D01*
X295044Y177649D01*
Y177646D01*
X295130Y177524D01*
X295205Y177410D01*
X295268Y177300D01*
X295319Y177201D01*
X295338Y177158D01*
X295358Y177119D01*
X295374Y177084D01*
X295386Y177052D01*
X295397Y177029D01*
X295405Y177013D01*
X295409Y177001D01*
Y176997D01*
X295134Y176875D01*
X295099Y176966D01*
X295055Y177056D01*
X295008Y177143D01*
X294961Y177221D01*
X294922Y177288D01*
X294902Y177319D01*
X294886Y177343D01*
X294875Y177363D01*
X294863Y177378D01*
X294859Y177386D01*
X294855Y177390D01*
X294768Y177312D01*
X294682Y177241D01*
X294596Y177182D01*
X294513Y177135D01*
X294446Y177095D01*
X294415Y177080D01*
X294391Y177068D01*
X294368Y177060D01*
X294352Y177052D01*
X294344Y177048D01*
X294340D01*
X294226Y177009D01*
X294108Y176981D01*
X293994Y176962D01*
X293892Y176950D01*
X293845Y176942D01*
X293802Y176938D01*
X293762D01*
X293731Y176934D01*
X293585D01*
X293503Y176942D01*
X293350Y176962D01*
X293279Y176974D01*
X293216Y176989D01*
X293153Y177005D01*
X293094Y177021D01*
X293043Y177040D01*
X293000Y177056D01*
X292957Y177072D01*
X292925Y177084D01*
X292898Y177095D01*
X292878Y177103D01*
X292866Y177107D01*
X292862Y177111D01*
X292737Y177186D01*
X292678Y177225D01*
X292623Y177264D01*
X292576Y177308D01*
X292528Y177351D01*
X292485Y177394D01*
X292450Y177433D01*
X292414Y177473D01*
X292387Y177508D01*
X292363Y177543D01*
X292340Y177571D01*
X292324Y177594D01*
X292312Y177610D01*
X292308Y177622D01*
X292304Y177626D01*
X292269Y177689D01*
X292237Y177756D01*
X292210Y177819D01*
X292186Y177885D01*
X292151Y178011D01*
X292127Y178125D01*
X292120Y178180D01*
X292116Y178227D01*
X292112Y178270D01*
X292108Y178306D01*
X292104Y178337D01*
Y178357D01*
Y178373D01*
Y178377D01*
X292108Y178455D01*
X292112Y178530D01*
X292135Y178671D01*
X292147Y178734D01*
X292163Y178797D01*
X292182Y178856D01*
X292198Y178907D01*
X292218Y178958D01*
X292234Y178998D01*
X292253Y179037D01*
X292265Y179068D01*
X292277Y179092D01*
X292289Y179112D01*
X292292Y179123D01*
X292297Y179127D01*
X292336Y179186D01*
X292375Y179245D01*
X292465Y179347D01*
X292560Y179438D01*
X292650Y179508D01*
X292693Y179540D01*
X292733Y179567D01*
X292768Y179591D01*
X292799Y179607D01*
X292823Y179622D01*
X292843Y179634D01*
X292854Y179638D01*
X292859Y179642D01*
X292929Y179674D01*
X293000Y179701D01*
X293138Y179748D01*
X293275Y179780D01*
X293338Y179791D01*
X293401Y179799D01*
X293456Y179807D01*
X293507Y179815D01*
X293554Y179819D01*
X293593D01*
X293625Y179823D01*
X293668D01*
X293751Y179819D01*
D02*
G37*
G36*
X-298417Y35765D02*
X-298423Y35624D01*
X-298428Y35498D01*
X-298438Y35388D01*
X-298449Y35294D01*
X-298459Y35220D01*
X-298464Y35189D01*
X-298470Y35163D01*
X-298475Y35142D01*
X-298480Y35126D01*
Y35121D01*
Y35115D01*
X-298506Y35021D01*
X-298538Y34932D01*
X-298574Y34859D01*
X-298606Y34796D01*
X-298632Y34743D01*
X-298658Y34707D01*
X-298674Y34681D01*
X-298679Y34675D01*
X-298737Y34612D01*
X-298795Y34555D01*
X-298857Y34502D01*
X-298920Y34460D01*
X-298973Y34424D01*
X-299015Y34398D01*
X-299046Y34382D01*
X-299057Y34377D01*
X-299151Y34335D01*
X-299240Y34308D01*
X-299329Y34288D01*
X-299408Y34272D01*
X-299481Y34261D01*
X-299533Y34256D01*
X-299581D01*
X-299706Y34266D01*
X-299822Y34288D01*
X-299926Y34319D01*
X-300015Y34356D01*
X-300089Y34392D01*
X-300141Y34424D01*
X-300162Y34434D01*
X-300178Y34445D01*
X-300183Y34455D01*
X-300188D01*
X-300277Y34534D01*
X-300356Y34623D01*
X-300419Y34717D01*
X-300471Y34806D01*
X-300513Y34890D01*
X-300529Y34927D01*
X-300539Y34953D01*
X-300550Y34979D01*
X-300555Y35000D01*
X-300560Y35011D01*
Y35016D01*
X-300613Y34916D01*
X-300676Y34833D01*
X-300733Y34759D01*
X-300791Y34696D01*
X-300843Y34649D01*
X-300885Y34618D01*
X-300912Y34597D01*
X-300922Y34591D01*
X-301011Y34544D01*
X-301095Y34508D01*
X-301179Y34487D01*
X-301257Y34466D01*
X-301320Y34455D01*
X-301373Y34450D01*
X-301415D01*
X-301519Y34455D01*
X-301614Y34476D01*
X-301703Y34502D01*
X-301781Y34528D01*
X-301850Y34560D01*
X-301902Y34586D01*
X-301933Y34607D01*
X-301939Y34612D01*
X-301944D01*
X-302033Y34675D01*
X-302112Y34749D01*
X-302174Y34817D01*
X-302227Y34890D01*
X-302269Y34953D01*
X-302300Y35000D01*
X-302311Y35021D01*
X-302316Y35037D01*
X-302321Y35042D01*
Y35047D01*
X-302363Y35157D01*
X-302395Y35278D01*
X-302415Y35404D01*
X-302431Y35519D01*
X-302442Y35624D01*
Y35671D01*
X-302447Y35708D01*
Y35739D01*
Y35765D01*
Y35781D01*
Y35786D01*
Y37295D01*
X-298417D01*
Y35765D01*
D02*
G37*
G36*
X-300277Y33680D02*
X-300183Y33674D01*
X-299995Y33648D01*
X-299827Y33612D01*
X-299748Y33591D01*
X-299675Y33570D01*
X-299612Y33549D01*
X-299549Y33528D01*
X-299497Y33507D01*
X-299455Y33491D01*
X-299418Y33475D01*
X-299392Y33465D01*
X-299376Y33454D01*
X-299371D01*
X-299203Y33360D01*
X-299051Y33250D01*
X-298989Y33198D01*
X-298926Y33140D01*
X-298868Y33082D01*
X-298816Y33030D01*
X-298774Y32978D01*
X-298732Y32930D01*
X-298700Y32888D01*
X-298674Y32852D01*
X-298648Y32820D01*
X-298632Y32799D01*
X-298627Y32784D01*
X-298622Y32778D01*
X-298574Y32695D01*
X-298533Y32605D01*
X-298496Y32522D01*
X-298464Y32432D01*
X-298417Y32260D01*
X-298386Y32102D01*
X-298370Y32029D01*
X-298365Y31966D01*
X-298360Y31909D01*
X-298354Y31856D01*
X-298349Y31819D01*
Y31788D01*
Y31767D01*
Y31762D01*
X-298354Y31662D01*
X-298360Y31568D01*
X-298386Y31390D01*
X-298428Y31222D01*
X-298449Y31149D01*
X-298475Y31075D01*
X-298496Y31012D01*
X-298517Y30955D01*
X-298538Y30908D01*
X-298559Y30866D01*
X-298574Y30834D01*
X-298585Y30808D01*
X-298595Y30792D01*
Y30787D01*
X-298643Y30703D01*
X-298695Y30625D01*
X-298816Y30483D01*
X-298936Y30363D01*
X-298994Y30310D01*
X-299051Y30263D01*
X-299109Y30221D01*
X-299156Y30185D01*
X-299203Y30158D01*
X-299245Y30132D01*
X-299277Y30111D01*
X-299303Y30095D01*
X-299319Y30090D01*
X-299324Y30085D01*
X-299418Y30043D01*
X-299513Y30001D01*
X-299701Y29938D01*
X-299885Y29896D01*
X-299974Y29881D01*
X-300057Y29865D01*
X-300136Y29855D01*
X-300204Y29844D01*
X-300267Y29839D01*
X-300319D01*
X-300367Y29833D01*
X-300534D01*
X-300644Y29844D01*
X-300849Y29870D01*
X-300943Y29886D01*
X-301032Y29907D01*
X-301116Y29928D01*
X-301189Y29949D01*
X-301257Y29975D01*
X-301320Y29996D01*
X-301373Y30017D01*
X-301420Y30033D01*
X-301456Y30048D01*
X-301483Y30059D01*
X-301498Y30064D01*
X-301504Y30069D01*
X-301671Y30169D01*
X-301750Y30221D01*
X-301823Y30274D01*
X-301886Y30331D01*
X-301949Y30389D01*
X-302007Y30447D01*
X-302054Y30499D01*
X-302101Y30551D01*
X-302138Y30599D01*
X-302169Y30646D01*
X-302201Y30682D01*
X-302222Y30714D01*
X-302237Y30735D01*
X-302242Y30751D01*
X-302248Y30756D01*
X-302295Y30840D01*
X-302337Y30929D01*
X-302374Y31012D01*
X-302405Y31102D01*
X-302452Y31269D01*
X-302484Y31421D01*
X-302494Y31495D01*
X-302499Y31558D01*
X-302504Y31615D01*
X-302510Y31662D01*
X-302515Y31704D01*
Y31730D01*
Y31751D01*
Y31757D01*
X-302510Y31914D01*
X-302489Y32061D01*
X-302463Y32202D01*
X-302426Y32333D01*
X-302384Y32459D01*
X-302337Y32574D01*
X-302284Y32679D01*
X-302232Y32773D01*
X-302174Y32857D01*
X-302127Y32936D01*
X-302075Y32998D01*
X-302033Y33051D01*
X-301996Y33093D01*
X-301970Y33124D01*
X-301949Y33145D01*
X-301944Y33150D01*
X-301834Y33245D01*
X-301713Y33329D01*
X-301588Y33397D01*
X-301462Y33460D01*
X-301331Y33512D01*
X-301200Y33554D01*
X-301074Y33591D01*
X-300948Y33617D01*
X-300833Y33638D01*
X-300723Y33659D01*
X-300629Y33669D01*
X-300545Y33674D01*
X-300471Y33680D01*
X-300419Y33685D01*
X-300377D01*
X-300277Y33680D01*
D02*
G37*
G36*
X-298417Y29026D02*
X-299638Y28586D01*
Y26899D01*
X-298417Y26433D01*
Y25830D01*
X-302447Y27470D01*
Y28052D01*
X-298417Y29587D01*
Y29026D01*
D02*
G37*
G36*
X295177Y168736D02*
Y168320D01*
X292155Y167141D01*
Y167545D01*
X294352Y168363D01*
X294442Y168398D01*
X294533Y168430D01*
X294619Y168457D01*
X294694Y168481D01*
X294757Y168500D01*
X294780Y168508D01*
X294804Y168516D01*
X294824Y168520D01*
X294835Y168524D01*
X294843Y168528D01*
X294847D01*
X294761Y168552D01*
X294670Y168579D01*
X294588Y168607D01*
X294513Y168630D01*
X294446Y168654D01*
X294419Y168662D01*
X294395Y168669D01*
X294379Y168677D01*
X294364Y168681D01*
X294356Y168685D01*
X294352D01*
X292155Y169471D01*
Y169907D01*
X295177Y168736D01*
D02*
G37*
G36*
Y164523D02*
X294819D01*
Y166374D01*
X293790D01*
Y164708D01*
X293432D01*
Y166374D01*
X292513D01*
Y164594D01*
X292155D01*
Y166775D01*
X295177D01*
Y164523D01*
D02*
G37*
G36*
X-298417Y24856D02*
X-300204D01*
Y24237D01*
Y24164D01*
X-300199Y24106D01*
Y24054D01*
X-300194Y24012D01*
X-300188Y23980D01*
Y23959D01*
X-300183Y23949D01*
Y23944D01*
X-300152Y23855D01*
X-300136Y23813D01*
X-300115Y23776D01*
X-300099Y23745D01*
X-300084Y23724D01*
X-300078Y23708D01*
X-300073Y23703D01*
X-300037Y23655D01*
X-300000Y23608D01*
X-299953Y23561D01*
X-299905Y23519D01*
X-299869Y23483D01*
X-299832Y23456D01*
X-299811Y23436D01*
X-299801Y23430D01*
X-299722Y23367D01*
X-299633Y23304D01*
X-299544Y23242D01*
X-299455Y23179D01*
X-299376Y23126D01*
X-299340Y23100D01*
X-299308Y23079D01*
X-299287Y23063D01*
X-299266Y23053D01*
X-299256Y23042D01*
X-299251D01*
X-298417Y22513D01*
Y21843D01*
X-299507Y22539D01*
X-299623Y22618D01*
X-299727Y22697D01*
X-299822Y22770D01*
X-299895Y22838D01*
X-299958Y22901D01*
X-300005Y22943D01*
X-300031Y22974D01*
X-300042Y22980D01*
Y22985D01*
X-300078Y23032D01*
X-300115Y23079D01*
X-300183Y23184D01*
X-300209Y23231D01*
X-300230Y23268D01*
X-300241Y23294D01*
X-300246Y23304D01*
X-300262Y23200D01*
X-300283Y23100D01*
X-300309Y23011D01*
X-300335Y22927D01*
X-300367Y22849D01*
X-300398Y22775D01*
X-300430Y22712D01*
X-300461Y22655D01*
X-300492Y22607D01*
X-300524Y22566D01*
X-300550Y22529D01*
X-300571Y22498D01*
X-300592Y22477D01*
X-300608Y22456D01*
X-300613Y22450D01*
X-300618Y22445D01*
X-300676Y22398D01*
X-300733Y22351D01*
X-300796Y22314D01*
X-300854Y22283D01*
X-300974Y22235D01*
X-301090Y22204D01*
X-301189Y22183D01*
X-301231Y22178D01*
X-301268Y22173D01*
X-301299Y22167D01*
X-301341D01*
X-301462Y22173D01*
X-301577Y22194D01*
X-301682Y22220D01*
X-301771Y22251D01*
X-301844Y22283D01*
X-301902Y22309D01*
X-301923Y22319D01*
X-301939Y22330D01*
X-301944Y22335D01*
X-301949D01*
X-302043Y22403D01*
X-302127Y22477D01*
X-302195Y22550D01*
X-302248Y22623D01*
X-302290Y22686D01*
X-302316Y22738D01*
X-302326Y22760D01*
X-302332Y22775D01*
X-302337Y22780D01*
Y22786D01*
X-302358Y22838D01*
X-302374Y22901D01*
X-302400Y23032D01*
X-302421Y23168D01*
X-302431Y23299D01*
X-302436Y23362D01*
X-302442Y23420D01*
Y23467D01*
X-302447Y23514D01*
Y23551D01*
Y23577D01*
Y23598D01*
Y23603D01*
Y25390D01*
X-298417D01*
Y24856D01*
D02*
G37*
G36*
X291694Y157283D02*
X289442D01*
Y157641D01*
X291293D01*
Y158671D01*
X289627D01*
Y159028D01*
X291293D01*
Y159948D01*
X289513D01*
Y160306D01*
X291694D01*
Y157283D01*
D02*
G37*
G36*
X261543Y156988D02*
X261143D01*
Y158214D01*
X260372D01*
X260258Y158218D01*
X260152Y158226D01*
X260054Y158238D01*
X259964Y158258D01*
X259885Y158277D01*
X259810Y158301D01*
X259748Y158324D01*
X259688Y158348D01*
X259641Y158372D01*
X259598Y158399D01*
X259563Y158419D01*
X259535Y158438D01*
X259516Y158458D01*
X259500Y158470D01*
X259492Y158478D01*
X259488Y158482D01*
X259445Y158533D01*
X259406Y158588D01*
X259374Y158643D01*
X259347Y158698D01*
X259319Y158753D01*
X259299Y158804D01*
X259272Y158910D01*
X259260Y158953D01*
X259252Y158996D01*
X259248Y159036D01*
X259244Y159071D01*
X259241Y159099D01*
Y159118D01*
Y159130D01*
Y159134D01*
X259244Y159216D01*
X259256Y159291D01*
X259272Y159362D01*
X259288Y159425D01*
X259303Y159476D01*
X259319Y159515D01*
X259327Y159527D01*
X259331Y159539D01*
X259335Y159543D01*
Y159547D01*
X259370Y159613D01*
X259409Y159672D01*
X259453Y159723D01*
X259492Y159763D01*
X259524Y159794D01*
X259555Y159818D01*
X259571Y159834D01*
X259578Y159837D01*
X259637Y159873D01*
X259700Y159904D01*
X259759Y159928D01*
X259818Y159948D01*
X259869Y159963D01*
X259912Y159971D01*
X259928Y159975D01*
X259936Y159979D01*
X259948D01*
X260011Y159991D01*
X260085Y159999D01*
X260164Y160003D01*
X260235Y160006D01*
X260302Y160010D01*
X261543D01*
Y156988D01*
D02*
G37*
G36*
X258722D02*
X256470D01*
Y157346D01*
X258321D01*
Y158376D01*
X256655D01*
Y158733D01*
X258321D01*
Y159653D01*
X256541D01*
Y160010D01*
X258722D01*
Y156988D01*
D02*
G37*
G36*
X255916D02*
X254827D01*
X254729Y156992D01*
X254634Y156996D01*
X254552Y157004D01*
X254481Y157016D01*
X254422Y157024D01*
X254399Y157027D01*
X254379Y157031D01*
X254363Y157035D01*
X254352D01*
X254348Y157039D01*
X254344D01*
X254269Y157059D01*
X254198Y157082D01*
X254135Y157110D01*
X254084Y157134D01*
X254041Y157153D01*
X254010Y157173D01*
X253990Y157185D01*
X253982Y157189D01*
X253927Y157232D01*
X253872Y157275D01*
X253825Y157322D01*
X253786Y157366D01*
X253750Y157405D01*
X253727Y157436D01*
X253707Y157456D01*
X253703Y157464D01*
X253660Y157530D01*
X253617Y157605D01*
X253581Y157680D01*
X253554Y157751D01*
X253530Y157810D01*
X253522Y157837D01*
X253515Y157861D01*
X253507Y157876D01*
X253503Y157892D01*
X253499Y157900D01*
Y157904D01*
X253471Y158006D01*
X253452Y158112D01*
X253436Y158214D01*
X253428Y158309D01*
X253424Y158352D01*
X253420Y158391D01*
Y158427D01*
X253416Y158454D01*
Y158482D01*
Y158497D01*
Y158509D01*
Y158513D01*
X253420Y158658D01*
X253436Y158796D01*
X253444Y158859D01*
X253455Y158918D01*
X253467Y158973D01*
X253475Y159024D01*
X253487Y159071D01*
X253499Y159110D01*
X253511Y159146D01*
X253518Y159177D01*
X253526Y159201D01*
X253534Y159216D01*
X253538Y159228D01*
Y159232D01*
X253585Y159346D01*
X253644Y159444D01*
X253703Y159535D01*
X253762Y159609D01*
X253790Y159641D01*
X253813Y159669D01*
X253837Y159692D01*
X253856Y159712D01*
X253872Y159727D01*
X253884Y159739D01*
X253892Y159743D01*
X253896Y159747D01*
X253966Y159802D01*
X254041Y159849D01*
X254116Y159885D01*
X254187Y159916D01*
X254245Y159936D01*
X254273Y159944D01*
X254297Y159951D01*
X254312Y159955D01*
X254328Y159959D01*
X254336Y159963D01*
X254340D01*
X254415Y159979D01*
X254501Y159991D01*
X254591Y159999D01*
X254678Y160006D01*
X254752D01*
X254788Y160010D01*
X255916D01*
Y156988D01*
D02*
G37*
G36*
X265073D02*
X264687D01*
Y159562D01*
X263815Y156988D01*
X263457D01*
X262573Y159519D01*
Y156988D01*
X262188D01*
Y160010D01*
X262726D01*
X263454Y157908D01*
X263493Y157794D01*
X263524Y157696D01*
X263552Y157613D01*
X263575Y157542D01*
X263591Y157491D01*
X263603Y157452D01*
X263611Y157428D01*
X263615Y157421D01*
X263634Y157483D01*
X263658Y157554D01*
X263681Y157629D01*
X263705Y157700D01*
X263725Y157766D01*
X263736Y157794D01*
X263744Y157821D01*
X263752Y157841D01*
X263756Y157857D01*
X263760Y157865D01*
Y157869D01*
X264475Y160010D01*
X265073D01*
Y156988D01*
D02*
G37*
G36*
X268107Y158262D02*
Y158175D01*
X268103Y158092D01*
X268095Y158014D01*
X268087Y157939D01*
X268079Y157872D01*
X268071Y157810D01*
X268059Y157755D01*
X268048Y157703D01*
X268040Y157656D01*
X268028Y157617D01*
X268020Y157582D01*
X268008Y157554D01*
X268004Y157530D01*
X267997Y157515D01*
X267993Y157507D01*
Y157503D01*
X267941Y157405D01*
X267883Y157322D01*
X267820Y157248D01*
X267757Y157189D01*
X267698Y157141D01*
X267651Y157110D01*
X267635Y157098D01*
X267619Y157090D01*
X267611Y157082D01*
X267607D01*
X267501Y157035D01*
X267384Y157000D01*
X267269Y156973D01*
X267160Y156957D01*
X267108Y156949D01*
X267061Y156945D01*
X267018Y156941D01*
X266983D01*
X266951Y156937D01*
X266912D01*
X266833Y156941D01*
X266755Y156945D01*
X266684Y156953D01*
X266617Y156965D01*
X266554Y156976D01*
X266499Y156988D01*
X266444Y157004D01*
X266397Y157020D01*
X266354Y157035D01*
X266315Y157051D01*
X266283Y157063D01*
X266255Y157075D01*
X266236Y157086D01*
X266220Y157094D01*
X266212Y157102D01*
X266208D01*
X266161Y157134D01*
X266114Y157169D01*
X266036Y157244D01*
X265973Y157314D01*
X265921Y157385D01*
X265882Y157444D01*
X265866Y157472D01*
X265855Y157495D01*
X265847Y157511D01*
X265839Y157527D01*
X265835Y157535D01*
Y157538D01*
X265815Y157589D01*
X265800Y157644D01*
X265772Y157762D01*
X265756Y157884D01*
X265741Y158002D01*
X265737Y158053D01*
X265733Y158104D01*
Y158148D01*
X265729Y158187D01*
Y158218D01*
Y158242D01*
Y158258D01*
Y158262D01*
Y160010D01*
X266130D01*
Y158265D01*
X266134Y158163D01*
X266138Y158069D01*
X266145Y157983D01*
X266157Y157904D01*
X266173Y157833D01*
X266189Y157770D01*
X266205Y157715D01*
X266224Y157668D01*
X266240Y157625D01*
X266260Y157589D01*
X266275Y157558D01*
X266287Y157535D01*
X266303Y157519D01*
X266311Y157507D01*
X266315Y157499D01*
X266318Y157495D01*
X266358Y157460D01*
X266401Y157432D01*
X266448Y157405D01*
X266495Y157381D01*
X266601Y157346D01*
X266704Y157322D01*
X266751Y157314D01*
X266798Y157310D01*
X266841Y157307D01*
X266877Y157303D01*
X266904Y157299D01*
X266947D01*
X267042Y157303D01*
X267124Y157314D01*
X267199Y157330D01*
X267262Y157350D01*
X267313Y157366D01*
X267352Y157381D01*
X267376Y157393D01*
X267379Y157397D01*
X267384D01*
X267446Y157440D01*
X267497Y157483D01*
X267541Y157535D01*
X267576Y157578D01*
X267603Y157621D01*
X267619Y157652D01*
X267631Y157676D01*
X267635Y157680D01*
Y157684D01*
X267647Y157723D01*
X267659Y157762D01*
X267674Y157853D01*
X267690Y157951D01*
X267698Y158045D01*
Y158089D01*
X267702Y158132D01*
Y158167D01*
X267706Y158203D01*
Y158226D01*
Y158250D01*
Y158262D01*
Y158265D01*
Y160010D01*
X268107D01*
Y158262D01*
D02*
G37*
G36*
X270472Y156988D02*
X268586D01*
Y157346D01*
X270072D01*
Y160010D01*
X270472D01*
Y156988D01*
D02*
G37*
G36*
X301079Y158557D02*
Y158470D01*
X301075Y158388D01*
X301067Y158309D01*
X301059Y158235D01*
X301051Y158168D01*
X301044Y158105D01*
X301032Y158050D01*
X301020Y157999D01*
X301012Y157952D01*
X301000Y157912D01*
X300993Y157877D01*
X300981Y157849D01*
X300977Y157826D01*
X300969Y157810D01*
X300965Y157802D01*
Y157798D01*
X300914Y157700D01*
X300855Y157617D01*
X300792Y157543D01*
X300729Y157484D01*
X300670Y157437D01*
X300623Y157405D01*
X300607Y157394D01*
X300592Y157386D01*
X300584Y157378D01*
X300580D01*
X300474Y157331D01*
X300356Y157295D01*
X300242Y157268D01*
X300132Y157252D01*
X300081Y157244D01*
X300034Y157240D01*
X299990Y157236D01*
X299955D01*
X299924Y157232D01*
X299884D01*
X299806Y157236D01*
X299727Y157240D01*
X299656Y157248D01*
X299590Y157260D01*
X299527Y157272D01*
X299472Y157283D01*
X299417Y157299D01*
X299370Y157315D01*
X299326Y157331D01*
X299287Y157346D01*
X299255Y157358D01*
X299228Y157370D01*
X299208Y157382D01*
X299193Y157390D01*
X299185Y157397D01*
X299181D01*
X299134Y157429D01*
X299086Y157464D01*
X299008Y157539D01*
X298945Y157610D01*
X298894Y157680D01*
X298855Y157739D01*
X298839Y157767D01*
X298827Y157790D01*
X298819Y157806D01*
X298811Y157822D01*
X298808Y157830D01*
Y157834D01*
X298788Y157885D01*
X298772Y157940D01*
X298745Y158058D01*
X298729Y158179D01*
X298713Y158297D01*
X298709Y158349D01*
X298705Y158400D01*
Y158443D01*
X298701Y158482D01*
Y158514D01*
Y158537D01*
Y158553D01*
Y158557D01*
Y160306D01*
X299102D01*
Y158561D01*
X299106Y158458D01*
X299110Y158364D01*
X299118Y158278D01*
X299130Y158199D01*
X299146Y158128D01*
X299161Y158065D01*
X299177Y158010D01*
X299197Y157963D01*
X299212Y157920D01*
X299232Y157885D01*
X299248Y157853D01*
X299259Y157830D01*
X299275Y157814D01*
X299283Y157802D01*
X299287Y157794D01*
X299291Y157790D01*
X299330Y157755D01*
X299373Y157728D01*
X299421Y157700D01*
X299468Y157676D01*
X299574Y157641D01*
X299676Y157617D01*
X299723Y157610D01*
X299770Y157606D01*
X299814Y157602D01*
X299849Y157598D01*
X299876Y157594D01*
X299920D01*
X300014Y157598D01*
X300097Y157610D01*
X300171Y157625D01*
X300234Y157645D01*
X300285Y157661D01*
X300325Y157676D01*
X300348Y157688D01*
X300352Y157692D01*
X300356D01*
X300419Y157735D01*
X300470Y157779D01*
X300513Y157830D01*
X300549Y157873D01*
X300576Y157916D01*
X300592Y157948D01*
X300604Y157971D01*
X300607Y157975D01*
Y157979D01*
X300619Y158018D01*
X300631Y158058D01*
X300647Y158148D01*
X300662Y158246D01*
X300670Y158341D01*
Y158384D01*
X300674Y158427D01*
Y158463D01*
X300678Y158498D01*
Y158521D01*
Y158545D01*
Y158557D01*
Y158561D01*
Y160306D01*
X301079D01*
Y158557D01*
D02*
G37*
G36*
X303445Y157283D02*
X301558D01*
Y157641D01*
X303044D01*
Y160306D01*
X303445D01*
Y157283D01*
D02*
G37*
G36*
X294516D02*
X294115D01*
Y158510D01*
X293345D01*
X293231Y158514D01*
X293125Y158521D01*
X293026Y158533D01*
X292936Y158553D01*
X292858Y158572D01*
X292783Y158596D01*
X292720Y158620D01*
X292661Y158643D01*
X292614Y158667D01*
X292571Y158694D01*
X292535Y158714D01*
X292508Y158734D01*
X292488Y158753D01*
X292472Y158765D01*
X292464Y158773D01*
X292460Y158777D01*
X292417Y158828D01*
X292378Y158883D01*
X292347Y158938D01*
X292319Y158993D01*
X292291Y159048D01*
X292272Y159099D01*
X292244Y159205D01*
X292233Y159248D01*
X292225Y159292D01*
X292221Y159331D01*
X292217Y159366D01*
X292213Y159394D01*
Y159414D01*
Y159425D01*
Y159429D01*
X292217Y159512D01*
X292229Y159586D01*
X292244Y159657D01*
X292260Y159720D01*
X292276Y159771D01*
X292291Y159810D01*
X292299Y159822D01*
X292303Y159834D01*
X292307Y159838D01*
Y159842D01*
X292343Y159909D01*
X292382Y159968D01*
X292425Y160019D01*
X292464Y160058D01*
X292496Y160090D01*
X292527Y160113D01*
X292543Y160129D01*
X292551Y160133D01*
X292610Y160168D01*
X292673Y160199D01*
X292732Y160223D01*
X292791Y160243D01*
X292842Y160258D01*
X292885Y160266D01*
X292901Y160270D01*
X292909Y160274D01*
X292920D01*
X292983Y160286D01*
X293058Y160294D01*
X293137Y160298D01*
X293207Y160302D01*
X293274Y160306D01*
X294516D01*
Y157283D01*
D02*
G37*
G36*
X-298417Y9513D02*
X-300246D01*
Y7621D01*
X-300723D01*
Y9513D01*
X-301970D01*
Y7328D01*
X-302447D01*
Y10047D01*
X-298417D01*
Y9513D01*
D02*
G37*
G36*
X298045Y157283D02*
X297660D01*
Y159858D01*
X296788Y157283D01*
X296430D01*
X295546Y159814D01*
Y157283D01*
X295160D01*
Y160306D01*
X295699D01*
X296426Y158203D01*
X296465Y158089D01*
X296497Y157991D01*
X296524Y157908D01*
X296548Y157838D01*
X296564Y157787D01*
X296575Y157747D01*
X296583Y157724D01*
X296587Y157716D01*
X296607Y157779D01*
X296630Y157849D01*
X296654Y157924D01*
X296677Y157995D01*
X296697Y158062D01*
X296709Y158089D01*
X296717Y158117D01*
X296725Y158136D01*
X296728Y158152D01*
X296732Y158160D01*
Y158164D01*
X297448Y160306D01*
X298045D01*
Y157283D01*
D02*
G37*
G36*
X-298417Y13631D02*
X-301577D01*
X-298417Y11520D01*
Y10970D01*
X-302447D01*
Y11483D01*
X-299282D01*
X-302447Y13600D01*
Y14145D01*
X-298417D01*
Y13631D01*
D02*
G37*
G36*
X266539Y127451D02*
X266183D01*
Y130726D01*
X266539D01*
Y127451D01*
D02*
G37*
G36*
X265423Y126455D02*
X261394D01*
Y126990D01*
X265423D01*
Y126455D01*
D02*
G37*
G36*
Y125009D02*
X262263D01*
X265423Y122897D01*
Y122347D01*
X261394D01*
Y122861D01*
X264559D01*
X261394Y124978D01*
Y125522D01*
X265423D01*
Y125009D01*
D02*
G37*
G36*
Y135211D02*
X261394D01*
Y135746D01*
X265423D01*
Y135211D01*
D02*
G37*
G36*
X-304232Y1890D02*
Y1435D01*
X-307017Y385D01*
Y875D01*
X-305317Y1490D01*
X-305207Y1530D01*
X-305102Y1565D01*
X-305012Y1595D01*
X-304937Y1620D01*
X-304872Y1640D01*
X-304827Y1655D01*
X-304797Y1660D01*
X-304792Y1665D01*
X-304787D01*
X-304892Y1695D01*
X-304997Y1725D01*
X-305092Y1755D01*
X-305177Y1785D01*
X-305247Y1810D01*
X-305302Y1830D01*
X-305322Y1835D01*
X-305337Y1840D01*
X-305342Y1845D01*
X-305347D01*
X-307017Y2440D01*
Y2940D01*
X-304232Y1890D01*
D02*
G37*
G36*
X265423Y132822D02*
X265418Y132691D01*
X265413Y132565D01*
X265402Y132455D01*
X265387Y132361D01*
X265376Y132282D01*
X265371Y132251D01*
X265366Y132224D01*
X265360Y132203D01*
Y132188D01*
X265355Y132183D01*
Y132177D01*
X265329Y132078D01*
X265298Y131983D01*
X265261Y131899D01*
X265229Y131831D01*
X265203Y131774D01*
X265177Y131732D01*
X265161Y131706D01*
X265156Y131695D01*
X265098Y131622D01*
X265041Y131548D01*
X264978Y131485D01*
X264920Y131433D01*
X264868Y131386D01*
X264826Y131354D01*
X264800Y131328D01*
X264789Y131323D01*
X264700Y131265D01*
X264601Y131208D01*
X264501Y131161D01*
X264407Y131124D01*
X264328Y131093D01*
X264291Y131082D01*
X264260Y131072D01*
X264239Y131061D01*
X264218Y131056D01*
X264208Y131051D01*
X264202D01*
X264066Y131014D01*
X263925Y130988D01*
X263788Y130967D01*
X263663Y130956D01*
X263605Y130951D01*
X263553Y130946D01*
X263505D01*
X263469Y130941D01*
X263390D01*
X263196Y130946D01*
X263013Y130967D01*
X262929Y130977D01*
X262850Y130993D01*
X262777Y131009D01*
X262709Y131019D01*
X262646Y131035D01*
X262594Y131051D01*
X262546Y131066D01*
X262505Y131077D01*
X262473Y131087D01*
X262452Y131098D01*
X262436Y131103D01*
X262431D01*
X262279Y131166D01*
X262148Y131245D01*
X262028Y131323D01*
X261928Y131402D01*
X261886Y131438D01*
X261850Y131470D01*
X261818Y131501D01*
X261792Y131527D01*
X261771Y131548D01*
X261755Y131564D01*
X261750Y131575D01*
X261745Y131580D01*
X261671Y131674D01*
X261609Y131774D01*
X261561Y131873D01*
X261519Y131968D01*
X261493Y132046D01*
X261483Y132083D01*
X261472Y132114D01*
X261467Y132135D01*
X261462Y132156D01*
X261457Y132167D01*
Y132172D01*
X261436Y132272D01*
X261420Y132387D01*
X261409Y132507D01*
X261399Y132623D01*
Y132722D01*
X261394Y132769D01*
Y132806D01*
Y132837D01*
Y132864D01*
Y132879D01*
Y132885D01*
Y134273D01*
X265423D01*
Y132822D01*
D02*
G37*
G36*
X255089Y180181D02*
X255083Y180039D01*
X255078Y179914D01*
X255068Y179804D01*
X255057Y179709D01*
X255047Y179636D01*
X255041Y179604D01*
X255036Y179578D01*
X255031Y179557D01*
X255026Y179542D01*
Y179536D01*
Y179531D01*
X254999Y179437D01*
X254968Y179348D01*
X254931Y179274D01*
X254900Y179211D01*
X254874Y179159D01*
X254848Y179122D01*
X254832Y179096D01*
X254827Y179091D01*
X254769Y179028D01*
X254711Y178970D01*
X254648Y178918D01*
X254586Y178876D01*
X254533Y178839D01*
X254491Y178813D01*
X254460Y178797D01*
X254449Y178792D01*
X254355Y178750D01*
X254266Y178724D01*
X254177Y178703D01*
X254098Y178687D01*
X254025Y178677D01*
X253973Y178672D01*
X253925D01*
X253800Y178682D01*
X253684Y178703D01*
X253579Y178735D01*
X253490Y178771D01*
X253417Y178808D01*
X253365Y178839D01*
X253344Y178850D01*
X253328Y178860D01*
X253323Y178871D01*
X253317D01*
X253228Y178949D01*
X253150Y179039D01*
X253087Y179133D01*
X253034Y179222D01*
X252993Y179306D01*
X252977Y179342D01*
X252966Y179369D01*
X252956Y179395D01*
X252951Y179416D01*
X252945Y179426D01*
Y179431D01*
X252893Y179332D01*
X252830Y179248D01*
X252772Y179175D01*
X252715Y179112D01*
X252662Y179065D01*
X252621Y179033D01*
X252594Y179012D01*
X252584Y179007D01*
X252495Y178960D01*
X252411Y178923D01*
X252327Y178902D01*
X252249Y178881D01*
X252186Y178871D01*
X252133Y178866D01*
X252091D01*
X251987Y178871D01*
X251892Y178892D01*
X251803Y178918D01*
X251725Y178944D01*
X251656Y178976D01*
X251604Y179002D01*
X251573Y179023D01*
X251567Y179028D01*
X251562D01*
X251473Y179091D01*
X251394Y179164D01*
X251331Y179232D01*
X251279Y179306D01*
X251237Y179369D01*
X251206Y179416D01*
X251195Y179437D01*
X251190Y179452D01*
X251185Y179458D01*
Y179463D01*
X251143Y179573D01*
X251111Y179693D01*
X251091Y179819D01*
X251075Y179935D01*
X251064Y180039D01*
Y180087D01*
X251059Y180123D01*
Y180155D01*
Y180181D01*
Y180196D01*
Y180202D01*
Y181711D01*
X255089D01*
Y180181D01*
D02*
G37*
G36*
X-304232Y8940D02*
X-305937D01*
Y8350D01*
Y8280D01*
X-305932Y8225D01*
Y8175D01*
X-305927Y8135D01*
X-305922Y8105D01*
Y8085D01*
X-305917Y8075D01*
Y8070D01*
X-305887Y7985D01*
X-305872Y7945D01*
X-305852Y7910D01*
X-305837Y7880D01*
X-305822Y7860D01*
X-305817Y7845D01*
X-305812Y7840D01*
X-305777Y7795D01*
X-305742Y7750D01*
X-305697Y7705D01*
X-305652Y7665D01*
X-305617Y7630D01*
X-305582Y7605D01*
X-305562Y7585D01*
X-305552Y7580D01*
X-305477Y7520D01*
X-305392Y7460D01*
X-305307Y7400D01*
X-305222Y7340D01*
X-305147Y7290D01*
X-305112Y7265D01*
X-305082Y7245D01*
X-305062Y7230D01*
X-305042Y7220D01*
X-305032Y7210D01*
X-305027D01*
X-304232Y6705D01*
Y6065D01*
X-305272Y6730D01*
X-305382Y6805D01*
X-305482Y6880D01*
X-305572Y6950D01*
X-305642Y7015D01*
X-305702Y7075D01*
X-305747Y7115D01*
X-305772Y7145D01*
X-305782Y7150D01*
Y7155D01*
X-305817Y7200D01*
X-305852Y7245D01*
X-305917Y7345D01*
X-305942Y7390D01*
X-305962Y7425D01*
X-305972Y7450D01*
X-305977Y7460D01*
X-305992Y7360D01*
X-306012Y7265D01*
X-306037Y7180D01*
X-306062Y7100D01*
X-306092Y7025D01*
X-306122Y6955D01*
X-306152Y6895D01*
X-306182Y6840D01*
X-306212Y6795D01*
X-306242Y6755D01*
X-306267Y6720D01*
X-306287Y6690D01*
X-306307Y6670D01*
X-306322Y6650D01*
X-306327Y6645D01*
X-306332Y6640D01*
X-306387Y6595D01*
X-306442Y6550D01*
X-306502Y6515D01*
X-306557Y6485D01*
X-306672Y6440D01*
X-306782Y6410D01*
X-306877Y6390D01*
X-306917Y6385D01*
X-306952Y6380D01*
X-306982Y6375D01*
X-307022D01*
X-307137Y6380D01*
X-307247Y6400D01*
X-307347Y6425D01*
X-307432Y6455D01*
X-307502Y6485D01*
X-307557Y6510D01*
X-307577Y6520D01*
X-307592Y6530D01*
X-307597Y6535D01*
X-307602D01*
X-307692Y6600D01*
X-307772Y6670D01*
X-307837Y6740D01*
X-307887Y6810D01*
X-307927Y6870D01*
X-307952Y6920D01*
X-307962Y6940D01*
X-307967Y6955D01*
X-307972Y6960D01*
Y6965D01*
X-307992Y7015D01*
X-308007Y7075D01*
X-308032Y7200D01*
X-308052Y7330D01*
X-308062Y7455D01*
X-308067Y7515D01*
X-308072Y7570D01*
Y7615D01*
X-308077Y7660D01*
Y7695D01*
Y7720D01*
Y7740D01*
Y7745D01*
Y9450D01*
X-304232D01*
Y8940D01*
D02*
G37*
G36*
X255089Y177398D02*
X253302D01*
Y176780D01*
Y176707D01*
X253307Y176649D01*
Y176597D01*
X253312Y176555D01*
X253317Y176523D01*
Y176502D01*
X253323Y176492D01*
Y176487D01*
X253354Y176398D01*
X253370Y176356D01*
X253391Y176319D01*
X253407Y176287D01*
X253422Y176267D01*
X253428Y176251D01*
X253433Y176246D01*
X253469Y176198D01*
X253506Y176151D01*
X253553Y176104D01*
X253600Y176062D01*
X253637Y176025D01*
X253674Y175999D01*
X253695Y175978D01*
X253705Y175973D01*
X253784Y175910D01*
X253873Y175847D01*
X253962Y175784D01*
X254051Y175722D01*
X254130Y175669D01*
X254166Y175643D01*
X254198Y175622D01*
X254219Y175606D01*
X254240Y175596D01*
X254250Y175585D01*
X254255D01*
X255089Y175056D01*
Y174385D01*
X253999Y175082D01*
X253883Y175161D01*
X253779Y175240D01*
X253684Y175313D01*
X253611Y175381D01*
X253548Y175444D01*
X253501Y175486D01*
X253475Y175517D01*
X253464Y175522D01*
Y175528D01*
X253428Y175575D01*
X253391Y175622D01*
X253323Y175727D01*
X253296Y175774D01*
X253276Y175811D01*
X253265Y175837D01*
X253260Y175847D01*
X253244Y175742D01*
X253223Y175643D01*
X253197Y175554D01*
X253171Y175470D01*
X253139Y175391D01*
X253108Y175318D01*
X253076Y175255D01*
X253045Y175198D01*
X253014Y175150D01*
X252982Y175109D01*
X252956Y175072D01*
X252935Y175040D01*
X252914Y175019D01*
X252898Y174998D01*
X252893Y174993D01*
X252888Y174988D01*
X252830Y174941D01*
X252772Y174894D01*
X252710Y174857D01*
X252652Y174826D01*
X252532Y174778D01*
X252416Y174747D01*
X252317Y174726D01*
X252275Y174721D01*
X252238Y174715D01*
X252207Y174710D01*
X252165D01*
X252044Y174715D01*
X251929Y174736D01*
X251824Y174763D01*
X251735Y174794D01*
X251662Y174826D01*
X251604Y174852D01*
X251583Y174862D01*
X251567Y174873D01*
X251562Y174878D01*
X251557D01*
X251463Y174946D01*
X251379Y175019D01*
X251311Y175093D01*
X251258Y175166D01*
X251216Y175229D01*
X251190Y175281D01*
X251180Y175302D01*
X251174Y175318D01*
X251169Y175323D01*
Y175329D01*
X251148Y175381D01*
X251132Y175444D01*
X251106Y175575D01*
X251085Y175711D01*
X251075Y175842D01*
X251069Y175905D01*
X251064Y175963D01*
Y176010D01*
X251059Y176057D01*
Y176094D01*
Y176120D01*
Y176141D01*
Y176146D01*
Y177933D01*
X255089D01*
Y177398D01*
D02*
G37*
G36*
Y188953D02*
X253192D01*
Y186867D01*
X255089D01*
Y186332D01*
X251059D01*
Y186867D01*
X252715D01*
Y188953D01*
X251059D01*
Y189487D01*
X255089D01*
Y188953D01*
D02*
G37*
G36*
X253386Y184310D02*
X255089D01*
Y183775D01*
X253386D01*
X251059Y182167D01*
Y182790D01*
X252249Y183571D01*
X252390Y183665D01*
X252526Y183749D01*
X252647Y183823D01*
X252752Y183891D01*
X252799Y183917D01*
X252841Y183943D01*
X252877Y183964D01*
X252904Y183985D01*
X252930Y183995D01*
X252945Y184006D01*
X252956Y184017D01*
X252961D01*
X252835Y184090D01*
X252710Y184158D01*
X252594Y184226D01*
X252495Y184289D01*
X252406Y184347D01*
X252369Y184368D01*
X252338Y184388D01*
X252311Y184404D01*
X252296Y184415D01*
X252285Y184420D01*
X252280Y184425D01*
X251059Y185222D01*
Y185861D01*
X253386Y184310D01*
D02*
G37*
G36*
X-305472Y5790D02*
X-305357Y5780D01*
X-305252Y5760D01*
X-305147Y5740D01*
X-305057Y5715D01*
X-304967Y5685D01*
X-304892Y5650D01*
X-304817Y5615D01*
X-304757Y5585D01*
X-304702Y5550D01*
X-304657Y5520D01*
X-304617Y5495D01*
X-304587Y5475D01*
X-304567Y5455D01*
X-304552Y5445D01*
X-304547Y5440D01*
X-304482Y5370D01*
X-304422Y5295D01*
X-304372Y5215D01*
X-304332Y5135D01*
X-304292Y5055D01*
X-304262Y4975D01*
X-304237Y4895D01*
X-304217Y4820D01*
X-304202Y4750D01*
X-304192Y4680D01*
X-304182Y4620D01*
X-304177Y4570D01*
Y4530D01*
X-304172Y4495D01*
Y4475D01*
Y4470D01*
X-304177Y4380D01*
X-304182Y4295D01*
X-304207Y4140D01*
X-304227Y4070D01*
X-304247Y4005D01*
X-304267Y3945D01*
X-304292Y3890D01*
X-304312Y3840D01*
X-304332Y3800D01*
X-304352Y3760D01*
X-304372Y3730D01*
X-304387Y3705D01*
X-304397Y3690D01*
X-304407Y3680D01*
Y3675D01*
X-304502Y3570D01*
X-304612Y3480D01*
X-304722Y3405D01*
X-304827Y3345D01*
X-304922Y3305D01*
X-304967Y3285D01*
X-305002Y3275D01*
X-305032Y3260D01*
X-305052Y3255D01*
X-305067Y3250D01*
X-305072D01*
X-305137Y3740D01*
X-305032Y3780D01*
X-304942Y3830D01*
X-304862Y3880D01*
X-304802Y3925D01*
X-304757Y3965D01*
X-304722Y4000D01*
X-304702Y4020D01*
X-304697Y4030D01*
X-304652Y4100D01*
X-304617Y4175D01*
X-304597Y4250D01*
X-304577Y4315D01*
X-304567Y4380D01*
X-304562Y4425D01*
Y4445D01*
Y4460D01*
Y4465D01*
Y4470D01*
X-304567Y4535D01*
X-304572Y4595D01*
X-304602Y4710D01*
X-304637Y4810D01*
X-304682Y4895D01*
X-304727Y4960D01*
X-304767Y5015D01*
X-304782Y5030D01*
X-304792Y5045D01*
X-304797Y5050D01*
X-304802Y5055D01*
X-304852Y5095D01*
X-304902Y5130D01*
X-305012Y5190D01*
X-305127Y5235D01*
X-305242Y5270D01*
X-305342Y5290D01*
X-305387Y5295D01*
X-305427Y5300D01*
X-305457Y5305D01*
X-305482Y5310D01*
X-305502D01*
Y3235D01*
X-305557Y3230D01*
X-305627D01*
X-305752Y3235D01*
X-305872Y3245D01*
X-305982Y3265D01*
X-306087Y3285D01*
X-306182Y3310D01*
X-306267Y3340D01*
X-306347Y3375D01*
X-306422Y3405D01*
X-306487Y3440D01*
X-306542Y3475D01*
X-306587Y3505D01*
X-306627Y3530D01*
X-306657Y3550D01*
X-306677Y3570D01*
X-306692Y3580D01*
X-306697Y3585D01*
X-306762Y3655D01*
X-306822Y3725D01*
X-306872Y3800D01*
X-306917Y3880D01*
X-306952Y3955D01*
X-306982Y4030D01*
X-307012Y4105D01*
X-307032Y4175D01*
X-307047Y4240D01*
X-307057Y4305D01*
X-307067Y4360D01*
X-307072Y4405D01*
X-307077Y4445D01*
Y4475D01*
Y4495D01*
Y4500D01*
X-307072Y4605D01*
X-307062Y4705D01*
X-307042Y4800D01*
X-307017Y4890D01*
X-306987Y4970D01*
X-306952Y5050D01*
X-306917Y5120D01*
X-306882Y5185D01*
X-306847Y5240D01*
X-306812Y5290D01*
X-306777Y5335D01*
X-306747Y5370D01*
X-306722Y5400D01*
X-306702Y5420D01*
X-306692Y5430D01*
X-306687Y5435D01*
X-306612Y5500D01*
X-306532Y5555D01*
X-306442Y5600D01*
X-306352Y5645D01*
X-306262Y5680D01*
X-306172Y5705D01*
X-306082Y5730D01*
X-305997Y5750D01*
X-305917Y5765D01*
X-305842Y5775D01*
X-305772Y5785D01*
X-305712Y5790D01*
X-305667D01*
X-305627Y5795D01*
X-305597D01*
X-305472Y5790D01*
D02*
G37*
G36*
X265423Y139361D02*
X263636D01*
Y138743D01*
Y138670D01*
X263642Y138612D01*
Y138559D01*
X263647Y138518D01*
X263652Y138486D01*
Y138465D01*
X263657Y138455D01*
Y138450D01*
X263689Y138360D01*
X263704Y138319D01*
X263725Y138282D01*
X263741Y138250D01*
X263757Y138229D01*
X263762Y138214D01*
X263767Y138208D01*
X263804Y138161D01*
X263841Y138114D01*
X263888Y138067D01*
X263935Y138025D01*
X263972Y137988D01*
X264008Y137962D01*
X264029Y137941D01*
X264040Y137936D01*
X264119Y137873D01*
X264208Y137810D01*
X264297Y137747D01*
X264386Y137685D01*
X264464Y137632D01*
X264501Y137606D01*
X264532Y137585D01*
X264553Y137569D01*
X264574Y137559D01*
X264585Y137548D01*
X264590D01*
X265423Y137019D01*
Y136348D01*
X264333Y137045D01*
X264218Y137124D01*
X264113Y137202D01*
X264019Y137276D01*
X263946Y137344D01*
X263883Y137407D01*
X263836Y137449D01*
X263809Y137480D01*
X263799Y137485D01*
Y137491D01*
X263762Y137538D01*
X263725Y137585D01*
X263657Y137690D01*
X263631Y137737D01*
X263610Y137774D01*
X263600Y137800D01*
X263595Y137810D01*
X263579Y137705D01*
X263558Y137606D01*
X263532Y137517D01*
X263505Y137433D01*
X263474Y137354D01*
X263442Y137281D01*
X263411Y137218D01*
X263380Y137161D01*
X263348Y137113D01*
X263317Y137071D01*
X263291Y137035D01*
X263270Y137003D01*
X263249Y136982D01*
X263233Y136961D01*
X263228Y136956D01*
X263222Y136951D01*
X263165Y136904D01*
X263107Y136856D01*
X263044Y136820D01*
X262987Y136788D01*
X262866Y136741D01*
X262751Y136710D01*
X262651Y136689D01*
X262609Y136684D01*
X262573Y136678D01*
X262541Y136673D01*
X262499D01*
X262379Y136678D01*
X262263Y136699D01*
X262159Y136725D01*
X262070Y136757D01*
X261996Y136788D01*
X261939Y136815D01*
X261918Y136825D01*
X261902Y136836D01*
X261897Y136841D01*
X261892D01*
X261797Y136909D01*
X261713Y136982D01*
X261645Y137056D01*
X261593Y137129D01*
X261551Y137192D01*
X261525Y137244D01*
X261514Y137265D01*
X261509Y137281D01*
X261504Y137286D01*
Y137292D01*
X261483Y137344D01*
X261467Y137407D01*
X261441Y137538D01*
X261420Y137674D01*
X261409Y137805D01*
X261404Y137868D01*
X261399Y137926D01*
Y137973D01*
X261394Y138020D01*
Y138057D01*
Y138083D01*
Y138104D01*
Y138109D01*
Y139896D01*
X265423D01*
Y139361D01*
D02*
G37*
G36*
X287930Y-96874D02*
Y-97430D01*
X283901Y-99002D01*
Y-98462D01*
X286830Y-97372D01*
X286950Y-97325D01*
X287071Y-97283D01*
X287186Y-97246D01*
X287286Y-97215D01*
X287369Y-97189D01*
X287401Y-97178D01*
X287432Y-97168D01*
X287458Y-97163D01*
X287474Y-97157D01*
X287485Y-97152D01*
X287490D01*
X287375Y-97121D01*
X287254Y-97084D01*
X287144Y-97047D01*
X287045Y-97016D01*
X286955Y-96984D01*
X286919Y-96974D01*
X286887Y-96964D01*
X286866Y-96953D01*
X286845Y-96948D01*
X286835Y-96943D01*
X286830D01*
X283901Y-95894D01*
Y-95313D01*
X287930Y-96874D01*
D02*
G37*
G36*
X-305932Y-6470D02*
X-305747Y-6480D01*
X-305582Y-6500D01*
X-305427Y-6525D01*
X-305282Y-6550D01*
X-305157Y-6585D01*
X-305042Y-6620D01*
X-304937Y-6655D01*
X-304847Y-6690D01*
X-304772Y-6720D01*
X-304707Y-6755D01*
X-304652Y-6780D01*
X-304612Y-6805D01*
X-304587Y-6825D01*
X-304567Y-6835D01*
X-304562Y-6840D01*
X-304492Y-6905D01*
X-304432Y-6970D01*
X-304377Y-7040D01*
X-304332Y-7110D01*
X-304297Y-7185D01*
X-304262Y-7260D01*
X-304237Y-7330D01*
X-304217Y-7400D01*
X-304202Y-7465D01*
X-304187Y-7525D01*
X-304177Y-7575D01*
X-304172Y-7625D01*
Y-7660D01*
X-304167Y-7690D01*
Y-7710D01*
Y-7715D01*
X-304172Y-7790D01*
X-304177Y-7865D01*
X-304202Y-8000D01*
X-304237Y-8120D01*
X-304282Y-8220D01*
X-304302Y-8265D01*
X-304322Y-8300D01*
X-304342Y-8335D01*
X-304357Y-8360D01*
X-304372Y-8380D01*
X-304382Y-8400D01*
X-304392Y-8405D01*
Y-8410D01*
X-304482Y-8510D01*
X-304587Y-8595D01*
X-304692Y-8665D01*
X-304797Y-8725D01*
X-304887Y-8770D01*
X-304927Y-8790D01*
X-304962Y-8805D01*
X-304992Y-8815D01*
X-305012Y-8825D01*
X-305027Y-8830D01*
X-305032D01*
X-305112Y-8855D01*
X-305197Y-8875D01*
X-305377Y-8910D01*
X-305562Y-8935D01*
X-305737Y-8955D01*
X-305817Y-8960D01*
X-305892Y-8965D01*
X-305957D01*
X-306012Y-8970D01*
X-306232D01*
X-306332Y-8965D01*
X-306422Y-8960D01*
X-306507Y-8955D01*
X-306592Y-8950D01*
X-306662Y-8940D01*
X-306732Y-8935D01*
X-306792Y-8925D01*
X-306847Y-8915D01*
X-306897Y-8910D01*
X-306937Y-8900D01*
X-306972Y-8895D01*
X-306997Y-8890D01*
X-307017Y-8885D01*
X-307027Y-8880D01*
X-307032D01*
X-307152Y-8845D01*
X-307267Y-8810D01*
X-307362Y-8770D01*
X-307447Y-8730D01*
X-307517Y-8695D01*
X-307567Y-8670D01*
X-307582Y-8660D01*
X-307597Y-8650D01*
X-307602Y-8645D01*
X-307607D01*
X-307692Y-8585D01*
X-307762Y-8520D01*
X-307822Y-8455D01*
X-307877Y-8395D01*
X-307917Y-8340D01*
X-307942Y-8300D01*
X-307962Y-8270D01*
X-307967Y-8265D01*
Y-8260D01*
X-308007Y-8170D01*
X-308037Y-8075D01*
X-308062Y-7985D01*
X-308077Y-7900D01*
X-308087Y-7825D01*
Y-7795D01*
X-308092Y-7765D01*
Y-7745D01*
Y-7730D01*
Y-7720D01*
Y-7715D01*
Y-7640D01*
X-308082Y-7565D01*
X-308057Y-7430D01*
X-308022Y-7310D01*
X-307982Y-7210D01*
X-307957Y-7165D01*
X-307937Y-7130D01*
X-307917Y-7095D01*
X-307902Y-7070D01*
X-307887Y-7050D01*
X-307877Y-7035D01*
X-307872Y-7025D01*
X-307867Y-7020D01*
X-307777Y-6925D01*
X-307672Y-6840D01*
X-307562Y-6770D01*
X-307462Y-6710D01*
X-307367Y-6665D01*
X-307327Y-6645D01*
X-307292Y-6630D01*
X-307262Y-6620D01*
X-307242Y-6610D01*
X-307227Y-6605D01*
X-307222D01*
X-307142Y-6580D01*
X-307057Y-6560D01*
X-306877Y-6525D01*
X-306692Y-6500D01*
X-306517Y-6485D01*
X-306437Y-6475D01*
X-306362D01*
X-306297Y-6470D01*
X-306242Y-6465D01*
X-306127D01*
X-305932Y-6470D01*
D02*
G37*
G36*
X287930Y-100930D02*
X287925Y-101061D01*
X287920Y-101187D01*
X287909Y-101297D01*
X287893Y-101391D01*
X287883Y-101470D01*
X287878Y-101501D01*
X287873Y-101528D01*
X287867Y-101549D01*
Y-101564D01*
X287862Y-101569D01*
Y-101575D01*
X287836Y-101674D01*
X287804Y-101769D01*
X287768Y-101852D01*
X287736Y-101920D01*
X287710Y-101978D01*
X287684Y-102020D01*
X287668Y-102046D01*
X287663Y-102057D01*
X287605Y-102130D01*
X287548Y-102204D01*
X287485Y-102266D01*
X287427Y-102319D01*
X287375Y-102366D01*
X287333Y-102397D01*
X287307Y-102424D01*
X287296Y-102429D01*
X287207Y-102486D01*
X287107Y-102544D01*
X287008Y-102591D01*
X286914Y-102628D01*
X286835Y-102659D01*
X286798Y-102670D01*
X286767Y-102680D01*
X286746Y-102691D01*
X286725Y-102696D01*
X286714Y-102701D01*
X286709D01*
X286573Y-102738D01*
X286432Y-102764D01*
X286295Y-102785D01*
X286170Y-102796D01*
X286112Y-102801D01*
X286059Y-102806D01*
X286012D01*
X285976Y-102811D01*
X285897D01*
X285703Y-102806D01*
X285520Y-102785D01*
X285436Y-102775D01*
X285357Y-102759D01*
X285284Y-102743D01*
X285216Y-102733D01*
X285153Y-102717D01*
X285101Y-102701D01*
X285053Y-102685D01*
X285011Y-102675D01*
X284980Y-102665D01*
X284959Y-102654D01*
X284943Y-102649D01*
X284938D01*
X284786Y-102586D01*
X284655Y-102507D01*
X284535Y-102429D01*
X284435Y-102350D01*
X284393Y-102313D01*
X284356Y-102282D01*
X284325Y-102251D01*
X284299Y-102224D01*
X284278Y-102204D01*
X284262Y-102188D01*
X284257Y-102177D01*
X284252Y-102172D01*
X284178Y-102078D01*
X284115Y-101978D01*
X284068Y-101879D01*
X284026Y-101784D01*
X284000Y-101706D01*
X283990Y-101669D01*
X283979Y-101637D01*
X283974Y-101617D01*
X283969Y-101596D01*
X283963Y-101585D01*
Y-101580D01*
X283943Y-101480D01*
X283927Y-101365D01*
X283916Y-101245D01*
X283906Y-101129D01*
Y-101030D01*
X283901Y-100983D01*
Y-100946D01*
Y-100914D01*
Y-100888D01*
Y-100873D01*
Y-100867D01*
Y-99479D01*
X287930D01*
Y-100930D01*
D02*
G37*
G36*
X-305932Y-9455D02*
X-305747Y-9465D01*
X-305582Y-9485D01*
X-305427Y-9510D01*
X-305282Y-9535D01*
X-305157Y-9570D01*
X-305042Y-9605D01*
X-304937Y-9640D01*
X-304847Y-9675D01*
X-304772Y-9705D01*
X-304707Y-9740D01*
X-304652Y-9765D01*
X-304612Y-9790D01*
X-304587Y-9810D01*
X-304567Y-9820D01*
X-304562Y-9825D01*
X-304492Y-9890D01*
X-304432Y-9955D01*
X-304377Y-10025D01*
X-304332Y-10095D01*
X-304297Y-10170D01*
X-304262Y-10245D01*
X-304237Y-10315D01*
X-304217Y-10385D01*
X-304202Y-10450D01*
X-304187Y-10510D01*
X-304177Y-10560D01*
X-304172Y-10610D01*
Y-10645D01*
X-304167Y-10675D01*
Y-10695D01*
Y-10700D01*
X-304172Y-10775D01*
X-304177Y-10850D01*
X-304202Y-10985D01*
X-304237Y-11105D01*
X-304282Y-11205D01*
X-304302Y-11250D01*
X-304322Y-11285D01*
X-304342Y-11320D01*
X-304357Y-11345D01*
X-304372Y-11365D01*
X-304382Y-11385D01*
X-304392Y-11390D01*
Y-11395D01*
X-304482Y-11495D01*
X-304587Y-11580D01*
X-304692Y-11650D01*
X-304797Y-11710D01*
X-304887Y-11755D01*
X-304927Y-11775D01*
X-304962Y-11790D01*
X-304992Y-11800D01*
X-305012Y-11810D01*
X-305027Y-11815D01*
X-305032D01*
X-305112Y-11840D01*
X-305197Y-11860D01*
X-305377Y-11895D01*
X-305562Y-11920D01*
X-305737Y-11940D01*
X-305817Y-11945D01*
X-305892Y-11950D01*
X-305957D01*
X-306012Y-11955D01*
X-306232D01*
X-306332Y-11950D01*
X-306422Y-11945D01*
X-306507Y-11940D01*
X-306592Y-11935D01*
X-306662Y-11925D01*
X-306732Y-11920D01*
X-306792Y-11910D01*
X-306847Y-11900D01*
X-306897Y-11895D01*
X-306937Y-11885D01*
X-306972Y-11880D01*
X-306997Y-11875D01*
X-307017Y-11870D01*
X-307027Y-11865D01*
X-307032D01*
X-307152Y-11830D01*
X-307267Y-11795D01*
X-307362Y-11755D01*
X-307447Y-11715D01*
X-307517Y-11680D01*
X-307567Y-11655D01*
X-307582Y-11645D01*
X-307597Y-11635D01*
X-307602Y-11630D01*
X-307607D01*
X-307692Y-11570D01*
X-307762Y-11505D01*
X-307822Y-11440D01*
X-307877Y-11380D01*
X-307917Y-11325D01*
X-307942Y-11285D01*
X-307962Y-11255D01*
X-307967Y-11250D01*
Y-11245D01*
X-308007Y-11155D01*
X-308037Y-11060D01*
X-308062Y-10970D01*
X-308077Y-10885D01*
X-308087Y-10810D01*
Y-10780D01*
X-308092Y-10750D01*
Y-10730D01*
Y-10715D01*
Y-10705D01*
Y-10700D01*
Y-10625D01*
X-308082Y-10550D01*
X-308057Y-10415D01*
X-308022Y-10295D01*
X-307982Y-10195D01*
X-307957Y-10150D01*
X-307937Y-10115D01*
X-307917Y-10080D01*
X-307902Y-10055D01*
X-307887Y-10035D01*
X-307877Y-10020D01*
X-307872Y-10010D01*
X-307867Y-10005D01*
X-307777Y-9910D01*
X-307672Y-9825D01*
X-307562Y-9755D01*
X-307462Y-9695D01*
X-307367Y-9650D01*
X-307327Y-9630D01*
X-307292Y-9615D01*
X-307262Y-9605D01*
X-307242Y-9595D01*
X-307227Y-9590D01*
X-307222D01*
X-307142Y-9565D01*
X-307057Y-9545D01*
X-306877Y-9510D01*
X-306692Y-9485D01*
X-306517Y-9470D01*
X-306437Y-9460D01*
X-306362D01*
X-306297Y-9455D01*
X-306242Y-9450D01*
X-306127D01*
X-305932Y-9455D01*
D02*
G37*
G36*
X287930Y-88758D02*
X286295D01*
Y-89785D01*
X286290Y-89937D01*
X286280Y-90078D01*
X286264Y-90209D01*
X286238Y-90330D01*
X286211Y-90434D01*
X286180Y-90534D01*
X286149Y-90618D01*
X286117Y-90696D01*
X286086Y-90759D01*
X286049Y-90817D01*
X286023Y-90864D01*
X285997Y-90901D01*
X285970Y-90927D01*
X285955Y-90948D01*
X285944Y-90958D01*
X285939Y-90964D01*
X285871Y-91021D01*
X285797Y-91074D01*
X285724Y-91116D01*
X285651Y-91152D01*
X285577Y-91189D01*
X285509Y-91215D01*
X285368Y-91252D01*
X285310Y-91268D01*
X285252Y-91278D01*
X285200Y-91283D01*
X285153Y-91289D01*
X285116Y-91294D01*
X285069D01*
X284959Y-91289D01*
X284859Y-91273D01*
X284765Y-91252D01*
X284681Y-91231D01*
X284613Y-91210D01*
X284561Y-91189D01*
X284545Y-91179D01*
X284529Y-91173D01*
X284524Y-91168D01*
X284519D01*
X284430Y-91121D01*
X284351Y-91069D01*
X284283Y-91011D01*
X284231Y-90958D01*
X284189Y-90917D01*
X284157Y-90875D01*
X284136Y-90854D01*
X284131Y-90843D01*
X284084Y-90764D01*
X284042Y-90681D01*
X284011Y-90602D01*
X283984Y-90523D01*
X283963Y-90455D01*
X283953Y-90398D01*
X283948Y-90377D01*
X283943Y-90366D01*
Y-90356D01*
Y-90351D01*
X283927Y-90267D01*
X283916Y-90167D01*
X283911Y-90062D01*
X283906Y-89968D01*
X283901Y-89879D01*
Y-89837D01*
Y-89806D01*
Y-89774D01*
Y-89753D01*
Y-89743D01*
Y-89737D01*
Y-88223D01*
X287930D01*
Y-88758D01*
D02*
G37*
G36*
Y-92096D02*
X286709Y-92536D01*
Y-94223D01*
X287930Y-94689D01*
Y-95292D01*
X283901Y-93652D01*
Y-93070D01*
X287930Y-91535D01*
Y-92096D01*
D02*
G37*
G36*
X-304232Y-3190D02*
X-305397Y-3610D01*
Y-5220D01*
X-304232Y-5665D01*
Y-6240D01*
X-308077Y-4675D01*
Y-4120D01*
X-304232Y-2655D01*
Y-3190D01*
D02*
G37*
G36*
X265423Y142144D02*
X265418Y142002D01*
X265413Y141876D01*
X265402Y141766D01*
X265392Y141672D01*
X265381Y141599D01*
X265376Y141567D01*
X265371Y141541D01*
X265366Y141520D01*
X265360Y141504D01*
Y141499D01*
Y141494D01*
X265334Y141400D01*
X265303Y141311D01*
X265266Y141237D01*
X265235Y141174D01*
X265208Y141122D01*
X265182Y141085D01*
X265166Y141059D01*
X265161Y141054D01*
X265104Y140991D01*
X265046Y140933D01*
X264983Y140881D01*
X264920Y140839D01*
X264868Y140802D01*
X264826Y140776D01*
X264794Y140760D01*
X264784Y140755D01*
X264690Y140713D01*
X264601Y140687D01*
X264511Y140666D01*
X264433Y140650D01*
X264359Y140640D01*
X264307Y140635D01*
X264260D01*
X264134Y140645D01*
X264019Y140666D01*
X263914Y140698D01*
X263825Y140734D01*
X263752Y140771D01*
X263699Y140802D01*
X263678Y140813D01*
X263663Y140823D01*
X263657Y140834D01*
X263652D01*
X263563Y140912D01*
X263484Y141001D01*
X263422Y141096D01*
X263369Y141185D01*
X263327Y141269D01*
X263312Y141305D01*
X263301Y141332D01*
X263291Y141358D01*
X263285Y141379D01*
X263280Y141389D01*
Y141394D01*
X263228Y141295D01*
X263165Y141211D01*
X263107Y141138D01*
X263050Y141075D01*
X262997Y141028D01*
X262955Y140996D01*
X262929Y140975D01*
X262918Y140970D01*
X262829Y140923D01*
X262746Y140886D01*
X262662Y140865D01*
X262583Y140844D01*
X262520Y140834D01*
X262468Y140829D01*
X262426D01*
X262321Y140834D01*
X262227Y140855D01*
X262138Y140881D01*
X262059Y140907D01*
X261991Y140938D01*
X261939Y140965D01*
X261907Y140986D01*
X261902Y140991D01*
X261897D01*
X261808Y141054D01*
X261729Y141127D01*
X261666Y141195D01*
X261614Y141269D01*
X261572Y141332D01*
X261540Y141379D01*
X261530Y141400D01*
X261525Y141415D01*
X261519Y141421D01*
Y141426D01*
X261477Y141536D01*
X261446Y141656D01*
X261425Y141782D01*
X261409Y141897D01*
X261399Y142002D01*
Y142049D01*
X261394Y142086D01*
Y142118D01*
Y142144D01*
Y142159D01*
Y142165D01*
Y143674D01*
X265423D01*
Y142144D01*
D02*
G37*
G36*
X-304232Y-710D02*
X-304772D01*
Y-170D01*
X-304232D01*
Y-710D01*
D02*
G37*
G36*
X287930Y-104996D02*
X287925Y-105127D01*
X287920Y-105253D01*
X287909Y-105363D01*
X287893Y-105457D01*
X287883Y-105536D01*
X287878Y-105568D01*
X287873Y-105594D01*
X287867Y-105615D01*
Y-105630D01*
X287862Y-105636D01*
Y-105641D01*
X287836Y-105740D01*
X287804Y-105835D01*
X287768Y-105919D01*
X287736Y-105987D01*
X287710Y-106044D01*
X287684Y-106086D01*
X287668Y-106113D01*
X287663Y-106123D01*
X287605Y-106196D01*
X287548Y-106270D01*
X287485Y-106333D01*
X287427Y-106385D01*
X287375Y-106432D01*
X287333Y-106464D01*
X287307Y-106490D01*
X287296Y-106495D01*
X287207Y-106553D01*
X287107Y-106610D01*
X287008Y-106658D01*
X286914Y-106694D01*
X286835Y-106726D01*
X286798Y-106736D01*
X286767Y-106747D01*
X286746Y-106757D01*
X286725Y-106762D01*
X286714Y-106767D01*
X286709D01*
X286573Y-106804D01*
X286432Y-106830D01*
X286295Y-106851D01*
X286170Y-106862D01*
X286112Y-106867D01*
X286059Y-106872D01*
X286012D01*
X285976Y-106878D01*
X285897D01*
X285703Y-106872D01*
X285520Y-106851D01*
X285436Y-106841D01*
X285357Y-106825D01*
X285284Y-106809D01*
X285216Y-106799D01*
X285153Y-106783D01*
X285101Y-106767D01*
X285053Y-106752D01*
X285011Y-106741D01*
X284980Y-106731D01*
X284959Y-106720D01*
X284943Y-106715D01*
X284938D01*
X284786Y-106652D01*
X284655Y-106574D01*
X284535Y-106495D01*
X284435Y-106416D01*
X284393Y-106380D01*
X284356Y-106348D01*
X284325Y-106317D01*
X284299Y-106291D01*
X284278Y-106270D01*
X284262Y-106254D01*
X284257Y-106244D01*
X284252Y-106238D01*
X284178Y-106144D01*
X284115Y-106044D01*
X284068Y-105945D01*
X284026Y-105851D01*
X284000Y-105772D01*
X283990Y-105735D01*
X283979Y-105704D01*
X283974Y-105683D01*
X283969Y-105662D01*
X283963Y-105651D01*
Y-105646D01*
X283943Y-105547D01*
X283927Y-105431D01*
X283916Y-105311D01*
X283906Y-105195D01*
Y-105096D01*
X283901Y-105049D01*
Y-105012D01*
Y-104981D01*
Y-104955D01*
Y-104939D01*
Y-104934D01*
Y-103545D01*
X287930D01*
Y-104996D01*
D02*
G37*
G36*
X265423Y150916D02*
X263526D01*
Y148830D01*
X265423D01*
Y148295D01*
X261394D01*
Y148830D01*
X263050D01*
Y150916D01*
X261394D01*
Y151450D01*
X265423D01*
Y150916D01*
D02*
G37*
G36*
X263720Y146273D02*
X265423D01*
Y145738D01*
X263720D01*
X261394Y144130D01*
Y144753D01*
X262583Y145534D01*
X262725Y145628D01*
X262861Y145712D01*
X262981Y145785D01*
X263086Y145854D01*
X263133Y145880D01*
X263175Y145906D01*
X263212Y145927D01*
X263238Y145948D01*
X263264Y145958D01*
X263280Y145969D01*
X263291Y145979D01*
X263296D01*
X263170Y146053D01*
X263044Y146121D01*
X262929Y146189D01*
X262829Y146252D01*
X262740Y146309D01*
X262704Y146330D01*
X262672Y146351D01*
X262646Y146367D01*
X262630Y146378D01*
X262620Y146383D01*
X262615Y146388D01*
X261394Y147185D01*
Y147824D01*
X263720Y146273D01*
D02*
G37*
G36*
X301382Y174287D02*
X297353D01*
Y174821D01*
X301382D01*
Y174287D01*
D02*
G37*
G36*
Y171897D02*
X301377Y171766D01*
X301372Y171641D01*
X301361Y171530D01*
X301346Y171436D01*
X301335Y171358D01*
X301330Y171326D01*
X301325Y171300D01*
X301320Y171279D01*
Y171263D01*
X301314Y171258D01*
Y171253D01*
X301288Y171153D01*
X301257Y171059D01*
X301220Y170975D01*
X301189Y170907D01*
X301162Y170849D01*
X301136Y170807D01*
X301120Y170781D01*
X301115Y170771D01*
X301058Y170697D01*
X301000Y170624D01*
X300937Y170561D01*
X300880Y170509D01*
X300827Y170461D01*
X300785Y170430D01*
X300759Y170404D01*
X300748Y170399D01*
X300659Y170341D01*
X300560Y170283D01*
X300460Y170236D01*
X300366Y170200D01*
X300287Y170168D01*
X300251Y170158D01*
X300219Y170147D01*
X300198Y170137D01*
X300177Y170131D01*
X300167Y170126D01*
X300162D01*
X300025Y170089D01*
X299884Y170063D01*
X299748Y170042D01*
X299622Y170032D01*
X299564Y170027D01*
X299512Y170021D01*
X299465D01*
X299428Y170016D01*
X299349D01*
X299155Y170021D01*
X298972Y170042D01*
X298888Y170053D01*
X298810Y170069D01*
X298736Y170084D01*
X298668Y170095D01*
X298605Y170110D01*
X298553Y170126D01*
X298506Y170142D01*
X298464Y170152D01*
X298432Y170163D01*
X298411Y170173D01*
X298396Y170178D01*
X298391D01*
X298238Y170241D01*
X298108Y170320D01*
X297987Y170399D01*
X297887Y170477D01*
X297846Y170514D01*
X297809Y170545D01*
X297777Y170577D01*
X297751Y170603D01*
X297730Y170624D01*
X297714Y170640D01*
X297709Y170650D01*
X297704Y170655D01*
X297631Y170750D01*
X297568Y170849D01*
X297521Y170949D01*
X297479Y171043D01*
X297452Y171122D01*
X297442Y171158D01*
X297431Y171190D01*
X297426Y171211D01*
X297421Y171232D01*
X297416Y171242D01*
Y171247D01*
X297395Y171347D01*
X297379Y171462D01*
X297369Y171583D01*
X297358Y171698D01*
Y171798D01*
X297353Y171845D01*
Y171881D01*
Y171913D01*
Y171939D01*
Y171955D01*
Y171960D01*
Y173349D01*
X301382D01*
Y171897D01*
D02*
G37*
G36*
X302499Y166526D02*
X302142D01*
Y169801D01*
X302499D01*
Y166526D01*
D02*
G37*
G36*
X301382Y181219D02*
X301377Y181078D01*
X301372Y180952D01*
X301361Y180842D01*
X301351Y180748D01*
X301341Y180674D01*
X301335Y180643D01*
X301330Y180617D01*
X301325Y180596D01*
X301320Y180580D01*
Y180575D01*
Y180569D01*
X301293Y180475D01*
X301262Y180386D01*
X301225Y180313D01*
X301194Y180250D01*
X301168Y180197D01*
X301142Y180161D01*
X301126Y180134D01*
X301120Y180129D01*
X301063Y180066D01*
X301005Y180009D01*
X300942Y179956D01*
X300880Y179914D01*
X300827Y179878D01*
X300785Y179851D01*
X300754Y179836D01*
X300743Y179831D01*
X300649Y179789D01*
X300560Y179762D01*
X300471Y179742D01*
X300392Y179726D01*
X300319Y179715D01*
X300266Y179710D01*
X300219D01*
X300094Y179720D01*
X299978Y179742D01*
X299873Y179773D01*
X299784Y179810D01*
X299711Y179846D01*
X299658Y179878D01*
X299638Y179888D01*
X299622Y179899D01*
X299617Y179909D01*
X299611D01*
X299522Y179988D01*
X299444Y180077D01*
X299381Y180171D01*
X299328Y180260D01*
X299287Y180344D01*
X299271Y180381D01*
X299260Y180407D01*
X299250Y180433D01*
X299245Y180454D01*
X299239Y180465D01*
Y180470D01*
X299187Y180370D01*
X299124Y180286D01*
X299066Y180213D01*
X299009Y180150D01*
X298956Y180103D01*
X298915Y180072D01*
X298888Y180051D01*
X298878Y180045D01*
X298789Y179998D01*
X298705Y179962D01*
X298621Y179941D01*
X298542Y179920D01*
X298480Y179909D01*
X298427Y179904D01*
X298385D01*
X298280Y179909D01*
X298186Y179930D01*
X298097Y179956D01*
X298018Y179982D01*
X297950Y180014D01*
X297898Y180040D01*
X297867Y180061D01*
X297861Y180066D01*
X297856D01*
X297767Y180129D01*
X297688Y180203D01*
X297625Y180271D01*
X297573Y180344D01*
X297531Y180407D01*
X297500Y180454D01*
X297489Y180475D01*
X297484Y180491D01*
X297479Y180496D01*
Y180501D01*
X297437Y180611D01*
X297405Y180732D01*
X297384Y180858D01*
X297369Y180973D01*
X297358Y181078D01*
Y181125D01*
X297353Y181161D01*
Y181193D01*
Y181219D01*
Y181235D01*
Y181240D01*
Y182749D01*
X301382D01*
Y181219D01*
D02*
G37*
G36*
X-306687Y20380D02*
X-306592Y20370D01*
X-306497Y20355D01*
X-306412Y20335D01*
X-306332Y20310D01*
X-306257Y20280D01*
X-306187Y20250D01*
X-306127Y20220D01*
X-306072Y20190D01*
X-306022Y20160D01*
X-305977Y20130D01*
X-305947Y20105D01*
X-305917Y20085D01*
X-305897Y20070D01*
X-305887Y20060D01*
X-305882Y20055D01*
X-305822Y19990D01*
X-305767Y19925D01*
X-305722Y19860D01*
X-305682Y19790D01*
X-305647Y19720D01*
X-305622Y19655D01*
X-305597Y19590D01*
X-305582Y19530D01*
X-305567Y19470D01*
X-305557Y19420D01*
X-305547Y19370D01*
X-305542Y19330D01*
X-305537Y19295D01*
Y19270D01*
Y19255D01*
Y19250D01*
X-305542Y19145D01*
X-305557Y19045D01*
X-305582Y18955D01*
X-305607Y18880D01*
X-305632Y18810D01*
X-305657Y18765D01*
X-305662Y18745D01*
X-305672Y18730D01*
X-305677Y18725D01*
Y18720D01*
X-305732Y18635D01*
X-305792Y18555D01*
X-305852Y18490D01*
X-305912Y18435D01*
X-305962Y18390D01*
X-306007Y18355D01*
X-306032Y18335D01*
X-306042Y18330D01*
X-305947D01*
X-305837Y18335D01*
X-305732Y18340D01*
X-305632Y18350D01*
X-305547Y18365D01*
X-305472Y18380D01*
X-305442Y18385D01*
X-305417Y18390D01*
X-305397Y18395D01*
X-305382D01*
X-305372Y18400D01*
X-305367D01*
X-305267Y18425D01*
X-305177Y18455D01*
X-305102Y18485D01*
X-305037Y18515D01*
X-304987Y18540D01*
X-304947Y18555D01*
X-304927Y18570D01*
X-304917Y18575D01*
X-304857Y18615D01*
X-304807Y18660D01*
X-304762Y18705D01*
X-304722Y18750D01*
X-304692Y18785D01*
X-304672Y18815D01*
X-304657Y18840D01*
X-304652Y18845D01*
X-304622Y18910D01*
X-304597Y18975D01*
X-304582Y19040D01*
X-304567Y19095D01*
X-304562Y19150D01*
X-304557Y19190D01*
Y19215D01*
Y19220D01*
Y19225D01*
X-304562Y19315D01*
X-304577Y19400D01*
X-304602Y19470D01*
X-304627Y19530D01*
X-304652Y19580D01*
X-304677Y19615D01*
X-304692Y19635D01*
X-304697Y19645D01*
X-304757Y19700D01*
X-304827Y19745D01*
X-304902Y19785D01*
X-304982Y19810D01*
X-305047Y19835D01*
X-305107Y19850D01*
X-305127Y19855D01*
X-305142D01*
X-305152Y19860D01*
X-305157D01*
X-305122Y20315D01*
X-305037Y20300D01*
X-304962Y20285D01*
X-304887Y20265D01*
X-304822Y20240D01*
X-304757Y20210D01*
X-304697Y20185D01*
X-304647Y20155D01*
X-304597Y20125D01*
X-304557Y20095D01*
X-304522Y20070D01*
X-304487Y20045D01*
X-304462Y20020D01*
X-304442Y20000D01*
X-304427Y19985D01*
X-304422Y19980D01*
X-304417Y19975D01*
X-304372Y19920D01*
X-304337Y19860D01*
X-304302Y19800D01*
X-304272Y19740D01*
X-304227Y19615D01*
X-304197Y19500D01*
X-304187Y19445D01*
X-304182Y19395D01*
X-304177Y19355D01*
X-304172Y19315D01*
X-304167Y19285D01*
Y19260D01*
Y19245D01*
Y19240D01*
X-304172Y19160D01*
X-304177Y19085D01*
X-304202Y18945D01*
X-304237Y18820D01*
X-304282Y18710D01*
X-304302Y18665D01*
X-304322Y18620D01*
X-304342Y18585D01*
X-304357Y18555D01*
X-304372Y18530D01*
X-304382Y18515D01*
X-304392Y18505D01*
Y18500D01*
X-304487Y18385D01*
X-304592Y18290D01*
X-304702Y18205D01*
X-304812Y18140D01*
X-304907Y18085D01*
X-304947Y18065D01*
X-304987Y18050D01*
X-305017Y18035D01*
X-305037Y18025D01*
X-305052Y18020D01*
X-305057D01*
X-305142Y17990D01*
X-305232Y17965D01*
X-305422Y17925D01*
X-305622Y17900D01*
X-305717Y17890D01*
X-305807Y17880D01*
X-305897Y17875D01*
X-305977Y17870D01*
X-306047Y17865D01*
X-306112Y17860D01*
X-306362D01*
X-306482Y17865D01*
X-306592Y17875D01*
X-306697Y17885D01*
X-306797Y17900D01*
X-306882Y17910D01*
X-306962Y17925D01*
X-307037Y17940D01*
X-307102Y17960D01*
X-307157Y17975D01*
X-307202Y17985D01*
X-307242Y18000D01*
X-307272Y18010D01*
X-307297Y18020D01*
X-307307Y18025D01*
X-307312D01*
X-307447Y18090D01*
X-307562Y18165D01*
X-307657Y18245D01*
X-307742Y18320D01*
X-307802Y18390D01*
X-307852Y18445D01*
X-307867Y18465D01*
X-307877Y18480D01*
X-307887Y18490D01*
Y18495D01*
X-307957Y18615D01*
X-308007Y18735D01*
X-308042Y18850D01*
X-308067Y18955D01*
X-308082Y19045D01*
X-308087Y19085D01*
Y19115D01*
X-308092Y19145D01*
Y19165D01*
Y19175D01*
Y19180D01*
X-308087Y19275D01*
X-308077Y19365D01*
X-308057Y19455D01*
X-308037Y19535D01*
X-308007Y19610D01*
X-307977Y19680D01*
X-307947Y19750D01*
X-307912Y19805D01*
X-307877Y19860D01*
X-307847Y19910D01*
X-307817Y19950D01*
X-307787Y19985D01*
X-307767Y20010D01*
X-307747Y20030D01*
X-307737Y20040D01*
X-307732Y20045D01*
X-307662Y20105D01*
X-307592Y20155D01*
X-307512Y20200D01*
X-307437Y20240D01*
X-307357Y20275D01*
X-307277Y20300D01*
X-307127Y20340D01*
X-307062Y20355D01*
X-306997Y20365D01*
X-306937Y20375D01*
X-306887Y20380D01*
X-306847Y20385D01*
X-306792D01*
X-306687Y20380D01*
D02*
G37*
G36*
X301382Y178437D02*
X299596D01*
Y177818D01*
Y177745D01*
X299601Y177687D01*
Y177635D01*
X299606Y177593D01*
X299611Y177562D01*
Y177541D01*
X299617Y177530D01*
Y177525D01*
X299648Y177436D01*
X299664Y177394D01*
X299685Y177357D01*
X299700Y177326D01*
X299716Y177305D01*
X299721Y177289D01*
X299727Y177284D01*
X299763Y177237D01*
X299800Y177190D01*
X299847Y177143D01*
X299894Y177101D01*
X299931Y177064D01*
X299968Y177038D01*
X299989Y177017D01*
X299999Y177011D01*
X300078Y176949D01*
X300167Y176886D01*
X300256Y176823D01*
X300345Y176760D01*
X300424Y176707D01*
X300460Y176681D01*
X300492Y176660D01*
X300513Y176645D01*
X300534Y176634D01*
X300544Y176624D01*
X300549D01*
X301382Y176094D01*
Y175424D01*
X300293Y176121D01*
X300177Y176199D01*
X300073Y176278D01*
X299978Y176351D01*
X299905Y176419D01*
X299842Y176482D01*
X299795Y176524D01*
X299769Y176556D01*
X299758Y176561D01*
Y176566D01*
X299721Y176613D01*
X299685Y176660D01*
X299617Y176765D01*
X299590Y176812D01*
X299570Y176849D01*
X299559Y176875D01*
X299554Y176886D01*
X299538Y176781D01*
X299517Y176681D01*
X299491Y176592D01*
X299465Y176508D01*
X299433Y176430D01*
X299402Y176356D01*
X299370Y176294D01*
X299339Y176236D01*
X299307Y176189D01*
X299276Y176147D01*
X299250Y176110D01*
X299229Y176079D01*
X299208Y176058D01*
X299192Y176037D01*
X299187Y176032D01*
X299182Y176026D01*
X299124Y175979D01*
X299066Y175932D01*
X299004Y175895D01*
X298946Y175864D01*
X298825Y175817D01*
X298710Y175785D01*
X298610Y175764D01*
X298569Y175759D01*
X298532Y175754D01*
X298500Y175749D01*
X298459D01*
X298338Y175754D01*
X298223Y175775D01*
X298118Y175801D01*
X298029Y175832D01*
X297955Y175864D01*
X297898Y175890D01*
X297877Y175901D01*
X297861Y175911D01*
X297856Y175916D01*
X297851D01*
X297756Y175984D01*
X297673Y176058D01*
X297604Y176131D01*
X297552Y176205D01*
X297510Y176267D01*
X297484Y176320D01*
X297474Y176341D01*
X297468Y176356D01*
X297463Y176362D01*
Y176367D01*
X297442Y176419D01*
X297426Y176482D01*
X297400Y176613D01*
X297379Y176750D01*
X297369Y176880D01*
X297363Y176943D01*
X297358Y177001D01*
Y177048D01*
X297353Y177095D01*
Y177132D01*
Y177158D01*
Y177179D01*
Y177184D01*
Y178971D01*
X301382D01*
Y178437D01*
D02*
G37*
G36*
X307002Y-104035D02*
X306586D01*
X305406Y-101013D01*
X305811D01*
X306629Y-103210D01*
X306664Y-103300D01*
X306696Y-103391D01*
X306723Y-103477D01*
X306747Y-103552D01*
X306766Y-103615D01*
X306774Y-103639D01*
X306782Y-103662D01*
X306786Y-103682D01*
X306790Y-103693D01*
X306794Y-103701D01*
Y-103705D01*
X306817Y-103619D01*
X306845Y-103528D01*
X306872Y-103446D01*
X306896Y-103371D01*
X306920Y-103304D01*
X306927Y-103277D01*
X306935Y-103253D01*
X306943Y-103238D01*
X306947Y-103222D01*
X306951Y-103214D01*
Y-103210D01*
X307737Y-101013D01*
X308173D01*
X307002Y-104035D01*
D02*
G37*
G36*
X298478Y-102762D02*
Y-102849D01*
X298474Y-102931D01*
X298466Y-103010D01*
X298458Y-103084D01*
X298450Y-103151D01*
X298443Y-103214D01*
X298431Y-103269D01*
X298419Y-103320D01*
X298411Y-103367D01*
X298399Y-103407D01*
X298391Y-103442D01*
X298380Y-103470D01*
X298376Y-103493D01*
X298368Y-103509D01*
X298364Y-103517D01*
Y-103521D01*
X298313Y-103619D01*
X298254Y-103701D01*
X298191Y-103776D01*
X298128Y-103835D01*
X298069Y-103882D01*
X298022Y-103914D01*
X298006Y-103925D01*
X297991Y-103933D01*
X297983Y-103941D01*
X297979D01*
X297873Y-103988D01*
X297755Y-104024D01*
X297641Y-104051D01*
X297531Y-104067D01*
X297480Y-104075D01*
X297432Y-104079D01*
X297389Y-104083D01*
X297354D01*
X297323Y-104086D01*
X297283D01*
X297205Y-104083D01*
X297126Y-104079D01*
X297055Y-104071D01*
X296988Y-104059D01*
X296926Y-104047D01*
X296870Y-104035D01*
X296815Y-104020D01*
X296768Y-104004D01*
X296725Y-103988D01*
X296686Y-103973D01*
X296654Y-103961D01*
X296627Y-103949D01*
X296607Y-103937D01*
X296591Y-103929D01*
X296584Y-103921D01*
X296580D01*
X296533Y-103890D01*
X296485Y-103855D01*
X296407Y-103780D01*
X296344Y-103709D01*
X296293Y-103639D01*
X296253Y-103579D01*
X296238Y-103552D01*
X296226Y-103528D01*
X296218Y-103513D01*
X296210Y-103497D01*
X296206Y-103489D01*
Y-103485D01*
X296187Y-103434D01*
X296171Y-103379D01*
X296144Y-103261D01*
X296128Y-103139D01*
X296112Y-103022D01*
X296108Y-102970D01*
X296104Y-102919D01*
Y-102876D01*
X296100Y-102837D01*
Y-102805D01*
Y-102782D01*
Y-102766D01*
Y-102762D01*
Y-101013D01*
X296501D01*
Y-102758D01*
X296505Y-102860D01*
X296509Y-102955D01*
X296517Y-103041D01*
X296529Y-103120D01*
X296544Y-103191D01*
X296560Y-103253D01*
X296576Y-103308D01*
X296595Y-103356D01*
X296611Y-103399D01*
X296631Y-103434D01*
X296646Y-103466D01*
X296658Y-103489D01*
X296674Y-103505D01*
X296682Y-103517D01*
X296686Y-103524D01*
X296690Y-103528D01*
X296729Y-103564D01*
X296772Y-103591D01*
X296819Y-103619D01*
X296867Y-103642D01*
X296973Y-103678D01*
X297075Y-103701D01*
X297122Y-103709D01*
X297169Y-103713D01*
X297212Y-103717D01*
X297248Y-103721D01*
X297275Y-103725D01*
X297319D01*
X297413Y-103721D01*
X297495Y-103709D01*
X297570Y-103693D01*
X297633Y-103674D01*
X297684Y-103658D01*
X297723Y-103642D01*
X297747Y-103631D01*
X297751Y-103627D01*
X297755D01*
X297818Y-103584D01*
X297869Y-103540D01*
X297912Y-103489D01*
X297947Y-103446D01*
X297975Y-103403D01*
X297991Y-103371D01*
X298002Y-103348D01*
X298006Y-103344D01*
Y-103340D01*
X298018Y-103300D01*
X298030Y-103261D01*
X298046Y-103171D01*
X298061Y-103073D01*
X298069Y-102978D01*
Y-102935D01*
X298073Y-102892D01*
Y-102856D01*
X298077Y-102821D01*
Y-102797D01*
Y-102774D01*
Y-102762D01*
Y-102758D01*
Y-101013D01*
X298478D01*
Y-102762D01*
D02*
G37*
G36*
X300368Y-100970D02*
X300506Y-100990D01*
X300632Y-101021D01*
X300687Y-101037D01*
X300742Y-101053D01*
X300789Y-101072D01*
X300832Y-101088D01*
X300867Y-101104D01*
X300899Y-101119D01*
X300922Y-101131D01*
X300942Y-101139D01*
X300954Y-101143D01*
X300958Y-101147D01*
X301017Y-101182D01*
X301076Y-101222D01*
X301178Y-101308D01*
X301268Y-101394D01*
X301339Y-101481D01*
X301370Y-101524D01*
X301398Y-101559D01*
X301421Y-101595D01*
X301437Y-101622D01*
X301453Y-101646D01*
X301465Y-101666D01*
X301469Y-101677D01*
X301473Y-101681D01*
X301504Y-101748D01*
X301532Y-101819D01*
X301575Y-101956D01*
X301606Y-102094D01*
X301618Y-102161D01*
X301626Y-102224D01*
X301634Y-102283D01*
X301642Y-102334D01*
X301645Y-102381D01*
Y-102424D01*
X301649Y-102456D01*
Y-102483D01*
Y-102499D01*
Y-102503D01*
X301642Y-102660D01*
X301626Y-102813D01*
X301614Y-102880D01*
X301598Y-102947D01*
X301587Y-103010D01*
X301571Y-103069D01*
X301555Y-103124D01*
X301543Y-103171D01*
X301528Y-103210D01*
X301516Y-103245D01*
X301508Y-103273D01*
X301500Y-103297D01*
X301492Y-103308D01*
Y-103312D01*
X301461Y-103379D01*
X301425Y-103446D01*
X301390Y-103505D01*
X301351Y-103560D01*
X301311Y-103615D01*
X301272Y-103662D01*
X301237Y-103705D01*
X301198Y-103741D01*
X301162Y-103776D01*
X301131Y-103807D01*
X301099Y-103831D01*
X301076Y-103851D01*
X301052Y-103870D01*
X301036Y-103882D01*
X301028Y-103886D01*
X301025Y-103890D01*
X300966Y-103925D01*
X300903Y-103953D01*
X300836Y-103980D01*
X300769Y-104004D01*
X300636Y-104039D01*
X300510Y-104063D01*
X300451Y-104071D01*
X300400Y-104075D01*
X300349Y-104079D01*
X300309Y-104083D01*
X300274Y-104086D01*
X300227D01*
X300140Y-104083D01*
X300058Y-104075D01*
X299979Y-104063D01*
X299904Y-104047D01*
X299834Y-104028D01*
X299767Y-104004D01*
X299708Y-103984D01*
X299649Y-103957D01*
X299602Y-103933D01*
X299559Y-103914D01*
X299519Y-103890D01*
X299488Y-103870D01*
X299460Y-103855D01*
X299445Y-103843D01*
X299433Y-103835D01*
X299429Y-103831D01*
X299370Y-103780D01*
X299315Y-103725D01*
X299264Y-103666D01*
X299221Y-103603D01*
X299177Y-103540D01*
X299142Y-103481D01*
X299107Y-103418D01*
X299079Y-103359D01*
X299052Y-103300D01*
X299032Y-103249D01*
X299012Y-103202D01*
X298997Y-103163D01*
X298989Y-103128D01*
X298981Y-103100D01*
X298973Y-103084D01*
Y-103080D01*
X299374Y-102978D01*
X299394Y-103049D01*
X299413Y-103112D01*
X299437Y-103171D01*
X299460Y-103230D01*
X299488Y-103281D01*
X299512Y-103328D01*
X299539Y-103371D01*
X299567Y-103407D01*
X299590Y-103442D01*
X299614Y-103470D01*
X299637Y-103497D01*
X299653Y-103517D01*
X299669Y-103532D01*
X299680Y-103544D01*
X299688Y-103548D01*
X299692Y-103552D01*
X299735Y-103587D01*
X299783Y-103615D01*
X299830Y-103642D01*
X299881Y-103662D01*
X299975Y-103698D01*
X300066Y-103721D01*
X300105Y-103729D01*
X300144Y-103733D01*
X300176Y-103737D01*
X300207Y-103741D01*
X300231Y-103745D01*
X300262D01*
X300364Y-103737D01*
X300459Y-103721D01*
X300545Y-103701D01*
X300624Y-103674D01*
X300687Y-103646D01*
X300714Y-103635D01*
X300734Y-103627D01*
X300753Y-103615D01*
X300765Y-103611D01*
X300773Y-103603D01*
X300777D01*
X300859Y-103544D01*
X300930Y-103477D01*
X300989Y-103407D01*
X301040Y-103336D01*
X301080Y-103273D01*
X301091Y-103245D01*
X301103Y-103222D01*
X301115Y-103202D01*
X301123Y-103187D01*
X301127Y-103179D01*
Y-103175D01*
X301162Y-103065D01*
X301190Y-102947D01*
X301209Y-102837D01*
X301221Y-102731D01*
X301229Y-102683D01*
Y-102640D01*
X301233Y-102601D01*
X301237Y-102566D01*
Y-102538D01*
Y-102518D01*
Y-102507D01*
Y-102503D01*
X301233Y-102393D01*
X301221Y-102287D01*
X301205Y-102188D01*
X301190Y-102098D01*
X301182Y-102063D01*
X301174Y-102027D01*
X301166Y-101996D01*
X301158Y-101968D01*
X301150Y-101949D01*
X301146Y-101933D01*
X301143Y-101925D01*
Y-101921D01*
X301103Y-101819D01*
X301052Y-101732D01*
X300997Y-101654D01*
X300942Y-101591D01*
X300895Y-101540D01*
X300856Y-101505D01*
X300840Y-101489D01*
X300828Y-101481D01*
X300820Y-101473D01*
X300816D01*
X300769Y-101442D01*
X300722Y-101418D01*
X300624Y-101375D01*
X300525Y-101343D01*
X300435Y-101324D01*
X300392Y-101320D01*
X300353Y-101312D01*
X300317Y-101308D01*
X300290D01*
X300266Y-101304D01*
X300231D01*
X300121Y-101312D01*
X300022Y-101328D01*
X299936Y-101351D01*
X299861Y-101379D01*
X299802Y-101410D01*
X299779Y-101422D01*
X299759Y-101434D01*
X299743Y-101442D01*
X299732Y-101450D01*
X299728Y-101457D01*
X299724D01*
X299688Y-101489D01*
X299653Y-101520D01*
X299590Y-101595D01*
X299539Y-101673D01*
X299496Y-101752D01*
X299460Y-101823D01*
X299449Y-101854D01*
X299437Y-101882D01*
X299429Y-101905D01*
X299421Y-101921D01*
X299417Y-101933D01*
Y-101937D01*
X299024Y-101842D01*
X299048Y-101768D01*
X299079Y-101693D01*
X299111Y-101626D01*
X299146Y-101564D01*
X299181Y-101508D01*
X299217Y-101453D01*
X299252Y-101406D01*
X299288Y-101363D01*
X299323Y-101324D01*
X299354Y-101288D01*
X299386Y-101261D01*
X299409Y-101237D01*
X299429Y-101218D01*
X299449Y-101206D01*
X299457Y-101198D01*
X299460Y-101194D01*
X299519Y-101155D01*
X299582Y-101115D01*
X299645Y-101088D01*
X299708Y-101060D01*
X299775Y-101037D01*
X299838Y-101017D01*
X299956Y-100990D01*
X300011Y-100982D01*
X300062Y-100974D01*
X300109Y-100970D01*
X300148Y-100966D01*
X300180Y-100962D01*
X300297D01*
X300368Y-100970D01*
D02*
G37*
G36*
X-306702Y22925D02*
X-306742Y22840D01*
X-306782Y22755D01*
X-306822Y22680D01*
X-306857Y22615D01*
X-306887Y22560D01*
X-306897Y22540D01*
X-306907Y22525D01*
X-306912Y22520D01*
Y22515D01*
X-306972Y22415D01*
X-307032Y22330D01*
X-307087Y22250D01*
X-307137Y22185D01*
X-307177Y22135D01*
X-307212Y22095D01*
X-307232Y22075D01*
X-307237Y22065D01*
X-304232D01*
Y21595D01*
X-308092D01*
Y21900D01*
X-307997Y21955D01*
X-307907Y22020D01*
X-307817Y22090D01*
X-307742Y22155D01*
X-307672Y22220D01*
X-307622Y22270D01*
X-307602Y22290D01*
X-307587Y22305D01*
X-307582Y22315D01*
X-307577Y22320D01*
X-307482Y22435D01*
X-307397Y22550D01*
X-307317Y22670D01*
X-307252Y22775D01*
X-307202Y22870D01*
X-307177Y22910D01*
X-307162Y22945D01*
X-307147Y22970D01*
X-307137Y22990D01*
X-307127Y23005D01*
Y23010D01*
X-306667D01*
X-306702Y22925D01*
D02*
G37*
G36*
X299480Y166343D02*
X299590Y166338D01*
X299790Y166311D01*
X299884Y166296D01*
X299973Y166275D01*
X300057Y166254D01*
X300135Y166227D01*
X300203Y166207D01*
X300266Y166186D01*
X300319Y166165D01*
X300366Y166149D01*
X300403Y166133D01*
X300429Y166123D01*
X300445Y166112D01*
X300450D01*
X300618Y166013D01*
X300696Y165960D01*
X300764Y165903D01*
X300832Y165845D01*
X300895Y165787D01*
X300948Y165735D01*
X301000Y165677D01*
X301042Y165625D01*
X301079Y165578D01*
X301115Y165536D01*
X301142Y165499D01*
X301162Y165468D01*
X301178Y165447D01*
X301183Y165431D01*
X301189Y165426D01*
X301236Y165342D01*
X301273Y165253D01*
X301309Y165169D01*
X301341Y165085D01*
X301388Y164918D01*
X301419Y164766D01*
X301430Y164692D01*
X301435Y164629D01*
X301440Y164577D01*
X301445Y164530D01*
X301451Y164488D01*
Y164462D01*
Y164441D01*
Y164435D01*
X301445Y164336D01*
X301440Y164236D01*
X301414Y164053D01*
X301393Y163964D01*
X301372Y163880D01*
X301351Y163807D01*
X301325Y163733D01*
X301304Y163670D01*
X301283Y163613D01*
X301262Y163566D01*
X301241Y163524D01*
X301225Y163487D01*
X301215Y163466D01*
X301204Y163450D01*
Y163445D01*
X301320Y163283D01*
X301419Y163131D01*
X301503Y162984D01*
X301571Y162853D01*
X301597Y162795D01*
X301624Y162743D01*
X301644Y162696D01*
X301660Y162654D01*
X301676Y162622D01*
X301686Y162601D01*
X301692Y162586D01*
Y162581D01*
X301325Y162418D01*
X301278Y162539D01*
X301220Y162659D01*
X301157Y162774D01*
X301094Y162879D01*
X301042Y162968D01*
X301016Y163010D01*
X300995Y163042D01*
X300979Y163068D01*
X300963Y163089D01*
X300958Y163099D01*
X300953Y163104D01*
X300837Y163000D01*
X300722Y162905D01*
X300607Y162827D01*
X300497Y162764D01*
X300408Y162712D01*
X300366Y162690D01*
X300335Y162675D01*
X300303Y162664D01*
X300282Y162654D01*
X300272Y162649D01*
X300266D01*
X300114Y162596D01*
X299957Y162559D01*
X299805Y162533D01*
X299669Y162518D01*
X299606Y162507D01*
X299549Y162502D01*
X299496D01*
X299454Y162497D01*
X299260D01*
X299150Y162507D01*
X298946Y162533D01*
X298852Y162549D01*
X298768Y162570D01*
X298684Y162591D01*
X298605Y162612D01*
X298537Y162638D01*
X298480Y162659D01*
X298422Y162680D01*
X298380Y162696D01*
X298343Y162712D01*
X298317Y162722D01*
X298301Y162727D01*
X298296Y162732D01*
X298129Y162832D01*
X298050Y162884D01*
X297976Y162937D01*
X297914Y162995D01*
X297851Y163052D01*
X297793Y163110D01*
X297746Y163162D01*
X297699Y163215D01*
X297662Y163262D01*
X297631Y163309D01*
X297599Y163346D01*
X297578Y163377D01*
X297563Y163398D01*
X297557Y163414D01*
X297552Y163419D01*
X297505Y163503D01*
X297463Y163592D01*
X297426Y163676D01*
X297395Y163765D01*
X297348Y163932D01*
X297316Y164084D01*
X297306Y164158D01*
X297301Y164221D01*
X297295Y164278D01*
X297290Y164325D01*
X297285Y164367D01*
Y164393D01*
Y164415D01*
Y164420D01*
X297290Y164524D01*
X297295Y164624D01*
X297327Y164813D01*
X297342Y164897D01*
X297363Y164980D01*
X297390Y165059D01*
X297411Y165127D01*
X297437Y165195D01*
X297458Y165248D01*
X297484Y165300D01*
X297500Y165342D01*
X297515Y165373D01*
X297531Y165400D01*
X297536Y165415D01*
X297542Y165421D01*
X297594Y165499D01*
X297646Y165578D01*
X297767Y165714D01*
X297893Y165834D01*
X298013Y165929D01*
X298071Y165971D01*
X298123Y166007D01*
X298170Y166039D01*
X298212Y166060D01*
X298244Y166081D01*
X298270Y166096D01*
X298286Y166102D01*
X298291Y166107D01*
X298385Y166149D01*
X298480Y166186D01*
X298663Y166249D01*
X298846Y166290D01*
X298930Y166306D01*
X299014Y166317D01*
X299087Y166327D01*
X299155Y166338D01*
X299218Y166343D01*
X299271D01*
X299313Y166348D01*
X299370D01*
X299480Y166343D01*
D02*
G37*
G36*
X305061Y-104035D02*
X304676D01*
Y-101461D01*
X303803Y-104035D01*
X303445D01*
X302561Y-101505D01*
Y-104035D01*
X302176D01*
Y-101013D01*
X302714D01*
X303442Y-103116D01*
X303481Y-103230D01*
X303512Y-103328D01*
X303540Y-103411D01*
X303563Y-103481D01*
X303579Y-103532D01*
X303591Y-103572D01*
X303599Y-103595D01*
X303603Y-103603D01*
X303622Y-103540D01*
X303646Y-103470D01*
X303669Y-103395D01*
X303693Y-103324D01*
X303713Y-103257D01*
X303725Y-103230D01*
X303732Y-103202D01*
X303740Y-103183D01*
X303744Y-103167D01*
X303748Y-103159D01*
Y-103155D01*
X304463Y-101013D01*
X305061D01*
Y-104035D01*
D02*
G37*
G36*
X-306702Y16955D02*
X-306742Y16870D01*
X-306782Y16785D01*
X-306822Y16710D01*
X-306857Y16645D01*
X-306887Y16590D01*
X-306897Y16570D01*
X-306907Y16555D01*
X-306912Y16550D01*
Y16545D01*
X-306972Y16445D01*
X-307032Y16360D01*
X-307087Y16280D01*
X-307137Y16215D01*
X-307177Y16165D01*
X-307212Y16125D01*
X-307232Y16105D01*
X-307237Y16095D01*
X-304232D01*
Y15625D01*
X-308092D01*
Y15930D01*
X-307997Y15985D01*
X-307907Y16050D01*
X-307817Y16120D01*
X-307742Y16185D01*
X-307672Y16250D01*
X-307622Y16300D01*
X-307602Y16320D01*
X-307587Y16335D01*
X-307582Y16345D01*
X-307577Y16350D01*
X-307482Y16465D01*
X-307397Y16580D01*
X-307317Y16700D01*
X-307252Y16805D01*
X-307202Y16900D01*
X-307177Y16940D01*
X-307162Y16975D01*
X-307147Y17000D01*
X-307137Y17020D01*
X-307127Y17035D01*
Y17040D01*
X-306667D01*
X-306702Y16955D01*
D02*
G37*
G36*
X256205Y165488D02*
X255848D01*
Y168763D01*
X256205D01*
Y165488D01*
D02*
G37*
G36*
X255089Y164492D02*
X251059D01*
Y165027D01*
X255089D01*
Y164492D01*
D02*
G37*
G36*
Y173248D02*
X251059D01*
Y173783D01*
X255089D01*
Y173248D01*
D02*
G37*
G36*
Y170859D02*
X255083Y170728D01*
X255078Y170602D01*
X255068Y170492D01*
X255052Y170398D01*
X255041Y170319D01*
X255036Y170288D01*
X255031Y170262D01*
X255026Y170240D01*
Y170225D01*
X255020Y170220D01*
Y170214D01*
X254994Y170115D01*
X254963Y170020D01*
X254926Y169937D01*
X254895Y169869D01*
X254869Y169811D01*
X254842Y169769D01*
X254827Y169743D01*
X254821Y169732D01*
X254764Y169659D01*
X254706Y169586D01*
X254643Y169523D01*
X254586Y169470D01*
X254533Y169423D01*
X254491Y169392D01*
X254465Y169365D01*
X254455Y169360D01*
X254365Y169302D01*
X254266Y169245D01*
X254166Y169198D01*
X254072Y169161D01*
X253993Y169130D01*
X253957Y169119D01*
X253925Y169109D01*
X253904Y169098D01*
X253883Y169093D01*
X253873Y169088D01*
X253868D01*
X253731Y169051D01*
X253590Y169025D01*
X253454Y169004D01*
X253328Y168993D01*
X253270Y168988D01*
X253218Y168983D01*
X253171D01*
X253134Y168978D01*
X253056D01*
X252862Y168983D01*
X252678Y169004D01*
X252594Y169014D01*
X252516Y169030D01*
X252442Y169046D01*
X252374Y169056D01*
X252311Y169072D01*
X252259Y169088D01*
X252212Y169103D01*
X252170Y169114D01*
X252138Y169124D01*
X252117Y169135D01*
X252102Y169140D01*
X252097D01*
X251945Y169203D01*
X251814Y169282D01*
X251693Y169360D01*
X251593Y169439D01*
X251552Y169475D01*
X251515Y169507D01*
X251483Y169538D01*
X251457Y169565D01*
X251436Y169586D01*
X251421Y169601D01*
X251415Y169612D01*
X251410Y169617D01*
X251337Y169711D01*
X251274Y169811D01*
X251227Y169910D01*
X251185Y170005D01*
X251159Y170083D01*
X251148Y170120D01*
X251138Y170151D01*
X251132Y170172D01*
X251127Y170193D01*
X251122Y170204D01*
Y170209D01*
X251101Y170309D01*
X251085Y170424D01*
X251075Y170544D01*
X251064Y170660D01*
Y170759D01*
X251059Y170806D01*
Y170843D01*
Y170875D01*
Y170901D01*
Y170916D01*
Y170922D01*
Y172310D01*
X255089D01*
Y170859D01*
D02*
G37*
G36*
X301382Y189991D02*
X299486D01*
Y187905D01*
X301382D01*
Y187371D01*
X297353D01*
Y187905D01*
X299009D01*
Y189991D01*
X297353D01*
Y190525D01*
X301382D01*
Y189991D01*
D02*
G37*
G36*
X-307622Y13250D02*
X-304232D01*
Y12740D01*
X-307622D01*
Y11475D01*
X-308077D01*
Y14515D01*
X-307622D01*
Y13250D01*
D02*
G37*
G36*
X299679Y185348D02*
X301382D01*
Y184814D01*
X299679D01*
X297353Y183205D01*
Y183829D01*
X298542Y184609D01*
X298684Y184704D01*
X298820Y184788D01*
X298941Y184861D01*
X299045Y184929D01*
X299093Y184955D01*
X299134Y184982D01*
X299171Y185002D01*
X299197Y185023D01*
X299224Y185034D01*
X299239Y185044D01*
X299250Y185055D01*
X299255D01*
X299129Y185128D01*
X299004Y185196D01*
X298888Y185265D01*
X298789Y185327D01*
X298700Y185385D01*
X298663Y185406D01*
X298632Y185427D01*
X298605Y185443D01*
X298590Y185453D01*
X298579Y185458D01*
X298574Y185464D01*
X297353Y186260D01*
Y186899D01*
X299679Y185348D01*
D02*
G37*
%LPC*%
G36*
X270426Y139650D02*
X268119D01*
Y139017D01*
Y138950D01*
X268123Y138891D01*
Y138836D01*
X268127Y138785D01*
X268134Y138738D01*
X268139Y138695D01*
X268142Y138656D01*
X268150Y138624D01*
X268154Y138593D01*
X268162Y138569D01*
X268166Y138546D01*
X268170Y138530D01*
X268174Y138514D01*
X268178Y138506D01*
X268182Y138498D01*
X268201Y138459D01*
X268221Y138420D01*
X268272Y138345D01*
X268327Y138282D01*
X268386Y138227D01*
X268437Y138184D01*
X268480Y138149D01*
X268500Y138137D01*
X268512Y138129D01*
X268520Y138121D01*
X268524D01*
X268575Y138094D01*
X268630Y138070D01*
X268744Y138031D01*
X268865Y138003D01*
X268983Y137984D01*
X269038Y137976D01*
X269090Y137972D01*
X269133Y137968D01*
X269172D01*
X269203Y137964D01*
X269251D01*
X269373Y137968D01*
X269486Y137976D01*
X269585Y137991D01*
X269628Y137999D01*
X269671Y138003D01*
X269707Y138011D01*
X269738Y138019D01*
X269765Y138027D01*
X269789Y138035D01*
X269809Y138039D01*
X269820Y138042D01*
X269828Y138046D01*
X269832D01*
X269919Y138078D01*
X269993Y138113D01*
X270060Y138149D01*
X270115Y138184D01*
X270159Y138219D01*
X270190Y138243D01*
X270210Y138259D01*
X270217Y138267D01*
X270253Y138306D01*
X270284Y138353D01*
X270308Y138396D01*
X270331Y138439D01*
X270347Y138479D01*
X270359Y138510D01*
X270367Y138530D01*
X270371Y138534D01*
Y138538D01*
X270390Y138604D01*
X270402Y138683D01*
X270414Y138762D01*
X270418Y138836D01*
X270422Y138903D01*
X270426Y138931D01*
Y138954D01*
Y138978D01*
Y138994D01*
Y139001D01*
Y139005D01*
Y139650D01*
D02*
G37*
G36*
X269199Y145278D02*
X268119D01*
Y144507D01*
Y144460D01*
Y144413D01*
X268123Y144334D01*
X268127Y144272D01*
X268131Y144220D01*
X268139Y144185D01*
X268142Y144158D01*
X268146Y144142D01*
Y144138D01*
X268166Y144083D01*
X268194Y144032D01*
X268221Y143989D01*
X268252Y143953D01*
X268280Y143926D01*
X268303Y143902D01*
X268319Y143890D01*
X268327Y143886D01*
X268378Y143855D01*
X268433Y143831D01*
X268488Y143812D01*
X268539Y143800D01*
X268583Y143792D01*
X268618Y143788D01*
X268649D01*
X268744Y143796D01*
X268822Y143816D01*
X268893Y143839D01*
X268952Y143871D01*
X268999Y143902D01*
X269031Y143926D01*
X269050Y143945D01*
X269058Y143953D01*
X269082Y143985D01*
X269105Y144024D01*
X269141Y144106D01*
X269164Y144197D01*
X269180Y144287D01*
X269192Y144370D01*
X269196Y144405D01*
Y144437D01*
X269199Y144464D01*
Y144484D01*
Y144495D01*
Y144500D01*
Y145278D01*
D02*
G37*
G36*
X261061Y171483D02*
X260177Y171152D01*
X260071Y171113D01*
X259965Y171082D01*
X259867Y171054D01*
X259780Y171031D01*
X259741Y171019D01*
X259705Y171011D01*
X259674Y171003D01*
X259647Y170999D01*
X259623Y170995D01*
X259607Y170991D01*
X259599Y170987D01*
X259595D01*
X259694Y170956D01*
X259800Y170925D01*
X259906Y170889D01*
X260004Y170854D01*
X260051Y170838D01*
X260094Y170822D01*
X260134Y170807D01*
X260165Y170795D01*
X260193Y170787D01*
X260212Y170779D01*
X260224Y170771D01*
X260228D01*
X261061Y170457D01*
Y171483D01*
D02*
G37*
G36*
X-306247Y36695D02*
X-307622D01*
Y35715D01*
Y35655D01*
Y35595D01*
X-307617Y35495D01*
X-307612Y35415D01*
X-307607Y35350D01*
X-307597Y35305D01*
X-307592Y35270D01*
X-307587Y35250D01*
Y35245D01*
X-307562Y35175D01*
X-307527Y35110D01*
X-307492Y35055D01*
X-307452Y35010D01*
X-307417Y34975D01*
X-307387Y34945D01*
X-307367Y34930D01*
X-307357Y34925D01*
X-307292Y34885D01*
X-307222Y34855D01*
X-307152Y34830D01*
X-307087Y34815D01*
X-307032Y34805D01*
X-306987Y34800D01*
X-306947D01*
X-306827Y34810D01*
X-306727Y34835D01*
X-306637Y34865D01*
X-306562Y34905D01*
X-306502Y34945D01*
X-306462Y34975D01*
X-306437Y35000D01*
X-306427Y35010D01*
X-306397Y35050D01*
X-306367Y35100D01*
X-306322Y35205D01*
X-306292Y35320D01*
X-306272Y35435D01*
X-306257Y35540D01*
X-306252Y35585D01*
Y35625D01*
X-306247Y35660D01*
Y35685D01*
Y35700D01*
Y35705D01*
Y36695D01*
D02*
G37*
G36*
X260822Y179016D02*
X260794D01*
X260684Y179013D01*
X260582Y179005D01*
X260484Y178989D01*
X260397Y178969D01*
X260315Y178950D01*
X260240Y178926D01*
X260173Y178899D01*
X260110Y178871D01*
X260059Y178844D01*
X260012Y178816D01*
X259973Y178793D01*
X259941Y178773D01*
X259914Y178753D01*
X259898Y178737D01*
X259886Y178730D01*
X259882Y178726D01*
X259827Y178667D01*
X259780Y178608D01*
X259741Y178549D01*
X259705Y178486D01*
X259674Y178423D01*
X259650Y178360D01*
X259631Y178301D01*
X259615Y178242D01*
X259603Y178191D01*
X259591Y178140D01*
X259584Y178097D01*
X259580Y178058D01*
X259576Y178026D01*
Y178003D01*
Y177987D01*
Y177983D01*
X259584Y177873D01*
X259599Y177771D01*
X259623Y177680D01*
X259650Y177602D01*
X259666Y177566D01*
X259682Y177535D01*
X259694Y177507D01*
X259705Y177488D01*
X259713Y177468D01*
X259721Y177456D01*
X259729Y177448D01*
Y177445D01*
X259792Y177358D01*
X259859Y177287D01*
X259929Y177224D01*
X259996Y177173D01*
X260059Y177130D01*
X260087Y177114D01*
X260106Y177103D01*
X260126Y177091D01*
X260142Y177083D01*
X260150Y177079D01*
X260153D01*
X260260Y177036D01*
X260370Y177004D01*
X260476Y176985D01*
X260578Y176969D01*
X260621Y176965D01*
X260664Y176961D01*
X260700Y176957D01*
X260731Y176953D01*
X260794D01*
X260912Y176957D01*
X261022Y176969D01*
X261124Y176985D01*
X261219Y177008D01*
X261305Y177036D01*
X261384Y177063D01*
X261454Y177099D01*
X261517Y177130D01*
X261576Y177162D01*
X261623Y177193D01*
X261666Y177224D01*
X261702Y177252D01*
X261725Y177276D01*
X261745Y177291D01*
X261757Y177303D01*
X261761Y177307D01*
X261694Y177397D01*
X261635Y177492D01*
X261584Y177586D01*
X261545Y177676D01*
X261525Y177716D01*
X261509Y177755D01*
X261497Y177790D01*
X261490Y177818D01*
X261482Y177841D01*
X261474Y177861D01*
X261470Y177873D01*
Y177877D01*
X261761Y177975D01*
X261784Y177896D01*
X261808Y177826D01*
X261839Y177759D01*
X261867Y177700D01*
X261891Y177649D01*
X261914Y177610D01*
X261930Y177586D01*
X261934Y177582D01*
Y177578D01*
X261961Y177649D01*
X261981Y177720D01*
X261993Y177790D01*
X262000Y177849D01*
X262008Y177904D01*
X262012Y177947D01*
Y177963D01*
Y177975D01*
Y177979D01*
Y177983D01*
X262008Y178065D01*
X262000Y178144D01*
X261985Y178219D01*
X261961Y178289D01*
X261938Y178356D01*
X261914Y178415D01*
X261883Y178474D01*
X261855Y178525D01*
X261828Y178568D01*
X261796Y178608D01*
X261773Y178643D01*
X261745Y178675D01*
X261725Y178694D01*
X261710Y178714D01*
X261702Y178722D01*
X261698Y178726D01*
X261635Y178777D01*
X261568Y178820D01*
X261497Y178859D01*
X261423Y178895D01*
X261348Y178922D01*
X261274Y178946D01*
X261199Y178965D01*
X261128Y178981D01*
X261061Y178993D01*
X260998Y179001D01*
X260939Y179009D01*
X260892Y179013D01*
X260849D01*
X260822Y179016D01*
D02*
G37*
G36*
X294131Y-98105D02*
X291824D01*
Y-98738D01*
Y-98804D01*
X291828Y-98863D01*
Y-98918D01*
X291831Y-98970D01*
X291839Y-99017D01*
X291843Y-99060D01*
X291847Y-99099D01*
X291855Y-99131D01*
X291859Y-99162D01*
X291867Y-99186D01*
X291871Y-99209D01*
X291875Y-99225D01*
X291879Y-99241D01*
X291883Y-99248D01*
X291886Y-99256D01*
X291906Y-99296D01*
X291926Y-99335D01*
X291977Y-99410D01*
X292032Y-99472D01*
X292091Y-99528D01*
X292142Y-99571D01*
X292185Y-99606D01*
X292205Y-99618D01*
X292217Y-99626D01*
X292225Y-99634D01*
X292228D01*
X292280Y-99661D01*
X292335Y-99685D01*
X292448Y-99724D01*
X292570Y-99752D01*
X292688Y-99771D01*
X292743Y-99779D01*
X292794Y-99783D01*
X292838Y-99787D01*
X292877D01*
X292908Y-99791D01*
X292955D01*
X293077Y-99787D01*
X293191Y-99779D01*
X293289Y-99763D01*
X293333Y-99756D01*
X293376Y-99752D01*
X293411Y-99744D01*
X293443Y-99736D01*
X293470Y-99728D01*
X293494Y-99720D01*
X293513Y-99716D01*
X293525Y-99712D01*
X293533Y-99708D01*
X293537D01*
X293624Y-99677D01*
X293698Y-99642D01*
X293765Y-99606D01*
X293820Y-99571D01*
X293863Y-99535D01*
X293895Y-99512D01*
X293914Y-99496D01*
X293922Y-99488D01*
X293958Y-99449D01*
X293989Y-99402D01*
X294013Y-99359D01*
X294036Y-99315D01*
X294052Y-99276D01*
X294064Y-99245D01*
X294072Y-99225D01*
X294075Y-99221D01*
Y-99217D01*
X294095Y-99150D01*
X294107Y-99072D01*
X294119Y-98993D01*
X294123Y-98918D01*
X294127Y-98852D01*
X294131Y-98824D01*
Y-98800D01*
Y-98777D01*
Y-98761D01*
Y-98753D01*
Y-98749D01*
Y-98105D01*
D02*
G37*
G36*
X-305587Y26055D02*
X-307322Y24845D01*
X-305587D01*
Y26055D01*
D02*
G37*
G36*
X294131Y-92005D02*
X291824D01*
Y-92638D01*
Y-92705D01*
X291828Y-92764D01*
Y-92819D01*
X291831Y-92870D01*
X291839Y-92917D01*
X291843Y-92961D01*
X291847Y-93000D01*
X291855Y-93031D01*
X291859Y-93063D01*
X291867Y-93086D01*
X291871Y-93110D01*
X291875Y-93126D01*
X291879Y-93141D01*
X291883Y-93149D01*
X291886Y-93157D01*
X291906Y-93196D01*
X291926Y-93236D01*
X291977Y-93310D01*
X292032Y-93373D01*
X292091Y-93428D01*
X292142Y-93471D01*
X292185Y-93507D01*
X292205Y-93519D01*
X292217Y-93526D01*
X292225Y-93534D01*
X292228D01*
X292280Y-93562D01*
X292335Y-93585D01*
X292448Y-93625D01*
X292570Y-93652D01*
X292688Y-93672D01*
X292743Y-93680D01*
X292794Y-93684D01*
X292838Y-93688D01*
X292877D01*
X292908Y-93691D01*
X292955D01*
X293077Y-93688D01*
X293191Y-93680D01*
X293289Y-93664D01*
X293333Y-93656D01*
X293376Y-93652D01*
X293411Y-93644D01*
X293443Y-93637D01*
X293470Y-93629D01*
X293494Y-93621D01*
X293513Y-93617D01*
X293525Y-93613D01*
X293533Y-93609D01*
X293537D01*
X293624Y-93577D01*
X293698Y-93542D01*
X293765Y-93507D01*
X293820Y-93471D01*
X293863Y-93436D01*
X293895Y-93413D01*
X293914Y-93397D01*
X293922Y-93389D01*
X293958Y-93350D01*
X293989Y-93302D01*
X294013Y-93259D01*
X294036Y-93216D01*
X294052Y-93177D01*
X294064Y-93145D01*
X294072Y-93126D01*
X294075Y-93122D01*
Y-93118D01*
X294095Y-93051D01*
X294107Y-92972D01*
X294119Y-92894D01*
X294123Y-92819D01*
X294127Y-92752D01*
X294131Y-92725D01*
Y-92701D01*
Y-92678D01*
Y-92662D01*
Y-92654D01*
Y-92650D01*
Y-92005D01*
D02*
G37*
G36*
X279649Y145424D02*
X279618Y145326D01*
X279586Y145220D01*
X279551Y145114D01*
X279515Y145016D01*
X279500Y144968D01*
X279484Y144925D01*
X279468Y144886D01*
X279456Y144854D01*
X279449Y144827D01*
X279441Y144807D01*
X279433Y144796D01*
Y144792D01*
X279118Y143958D01*
X280144D01*
X279814Y144843D01*
X279775Y144949D01*
X279743Y145055D01*
X279716Y145153D01*
X279692Y145240D01*
X279680Y145279D01*
X279673Y145314D01*
X279665Y145346D01*
X279661Y145373D01*
X279657Y145397D01*
X279653Y145413D01*
X279649Y145420D01*
Y145424D01*
D02*
G37*
G36*
X286687Y145444D02*
X286644D01*
X286534Y145436D01*
X286432Y145420D01*
X286342Y145397D01*
X286263Y145369D01*
X286228Y145354D01*
X286196Y145338D01*
X286169Y145326D01*
X286149Y145314D01*
X286129Y145306D01*
X286118Y145299D01*
X286110Y145291D01*
X286106D01*
X286019Y145228D01*
X285949Y145161D01*
X285886Y145090D01*
X285835Y145024D01*
X285791Y144961D01*
X285776Y144933D01*
X285764Y144913D01*
X285752Y144894D01*
X285744Y144878D01*
X285740Y144870D01*
Y144866D01*
X285697Y144760D01*
X285666Y144650D01*
X285646Y144544D01*
X285630Y144442D01*
X285626Y144399D01*
X285623Y144355D01*
X285619Y144320D01*
X285615Y144289D01*
Y144261D01*
Y144241D01*
Y144230D01*
Y144226D01*
X285619Y144108D01*
X285630Y143998D01*
X285646Y143895D01*
X285670Y143801D01*
X285697Y143715D01*
X285725Y143636D01*
X285760Y143565D01*
X285791Y143502D01*
X285823Y143444D01*
X285854Y143396D01*
X285886Y143353D01*
X285913Y143318D01*
X285937Y143294D01*
X285953Y143275D01*
X285964Y143263D01*
X285968Y143259D01*
X286059Y143326D01*
X286153Y143385D01*
X286247Y143436D01*
X286338Y143475D01*
X286377Y143495D01*
X286416Y143510D01*
X286452Y143522D01*
X286479Y143530D01*
X286503Y143538D01*
X286523Y143546D01*
X286534Y143550D01*
X286538D01*
X286636Y143259D01*
X286558Y143235D01*
X286487Y143212D01*
X286420Y143180D01*
X286361Y143153D01*
X286310Y143129D01*
X286271Y143106D01*
X286247Y143090D01*
X286243Y143086D01*
X286240D01*
X286310Y143058D01*
X286381Y143039D01*
X286452Y143027D01*
X286511Y143019D01*
X286566Y143011D01*
X286609Y143007D01*
X286644D01*
X286727Y143011D01*
X286805Y143019D01*
X286880Y143035D01*
X286951Y143058D01*
X287018Y143082D01*
X287077Y143106D01*
X287136Y143137D01*
X287187Y143165D01*
X287230Y143192D01*
X287269Y143224D01*
X287305Y143247D01*
X287336Y143275D01*
X287356Y143294D01*
X287375Y143310D01*
X287383Y143318D01*
X287387Y143322D01*
X287438Y143385D01*
X287481Y143451D01*
X287521Y143522D01*
X287556Y143597D01*
X287584Y143672D01*
X287607Y143746D01*
X287627Y143821D01*
X287643Y143892D01*
X287654Y143958D01*
X287662Y144021D01*
X287670Y144080D01*
X287674Y144127D01*
Y144171D01*
X287678Y144198D01*
Y144218D01*
Y144226D01*
X287674Y144336D01*
X287666Y144438D01*
X287650Y144536D01*
X287631Y144623D01*
X287611Y144705D01*
X287587Y144780D01*
X287560Y144847D01*
X287532Y144910D01*
X287505Y144961D01*
X287477Y145008D01*
X287454Y145047D01*
X287434Y145079D01*
X287415Y145106D01*
X287399Y145122D01*
X287391Y145133D01*
X287387Y145137D01*
X287328Y145192D01*
X287269Y145240D01*
X287210Y145279D01*
X287147Y145314D01*
X287085Y145346D01*
X287022Y145369D01*
X286963Y145389D01*
X286904Y145405D01*
X286853Y145416D01*
X286802Y145428D01*
X286758Y145436D01*
X286719Y145440D01*
X286687Y145444D01*
D02*
G37*
G36*
X-306462Y29255D02*
X-307622D01*
Y28490D01*
Y28415D01*
Y28345D01*
X-307617Y28280D01*
X-307612Y28225D01*
X-307607Y28170D01*
Y28120D01*
X-307602Y28080D01*
X-307597Y28040D01*
X-307587Y27980D01*
X-307577Y27940D01*
X-307572Y27915D01*
X-307567Y27905D01*
X-307542Y27845D01*
X-307512Y27790D01*
X-307482Y27750D01*
X-307447Y27710D01*
X-307417Y27680D01*
X-307392Y27660D01*
X-307372Y27650D01*
X-307367Y27645D01*
X-307312Y27615D01*
X-307252Y27590D01*
X-307197Y27575D01*
X-307147Y27560D01*
X-307102Y27555D01*
X-307062Y27550D01*
X-307032D01*
X-306957Y27555D01*
X-306892Y27565D01*
X-306832Y27580D01*
X-306787Y27600D01*
X-306747Y27620D01*
X-306717Y27635D01*
X-306697Y27645D01*
X-306692Y27650D01*
X-306647Y27690D01*
X-306607Y27740D01*
X-306577Y27785D01*
X-306547Y27835D01*
X-306527Y27880D01*
X-306512Y27915D01*
X-306507Y27935D01*
X-306502Y27945D01*
X-306487Y28005D01*
X-306477Y28080D01*
X-306472Y28160D01*
X-306467Y28240D01*
X-306462Y28310D01*
Y28370D01*
Y28395D01*
Y28410D01*
Y28420D01*
Y28425D01*
Y29255D01*
D02*
G37*
G36*
X-304687D02*
X-306007D01*
Y28370D01*
X-306002Y28240D01*
X-305997Y28130D01*
X-305987Y28030D01*
X-305977Y27955D01*
X-305962Y27890D01*
X-305952Y27845D01*
X-305947Y27820D01*
X-305942Y27810D01*
X-305912Y27740D01*
X-305882Y27680D01*
X-305842Y27630D01*
X-305807Y27585D01*
X-305772Y27550D01*
X-305742Y27525D01*
X-305722Y27510D01*
X-305717Y27505D01*
X-305657Y27465D01*
X-305592Y27440D01*
X-305532Y27420D01*
X-305472Y27405D01*
X-305422Y27395D01*
X-305382Y27390D01*
X-305347D01*
X-305282Y27395D01*
X-305217Y27400D01*
X-305162Y27415D01*
X-305117Y27430D01*
X-305077Y27445D01*
X-305047Y27455D01*
X-305027Y27465D01*
X-305022Y27470D01*
X-304972Y27500D01*
X-304932Y27530D01*
X-304892Y27565D01*
X-304862Y27595D01*
X-304837Y27625D01*
X-304822Y27645D01*
X-304812Y27660D01*
X-304807Y27665D01*
X-304782Y27710D01*
X-304757Y27760D01*
X-304742Y27805D01*
X-304727Y27855D01*
X-304717Y27895D01*
X-304707Y27925D01*
X-304702Y27945D01*
Y27955D01*
X-304697Y28000D01*
X-304692Y28050D01*
X-304687Y28165D01*
Y28215D01*
Y28260D01*
Y28290D01*
Y28295D01*
Y28300D01*
Y29255D01*
D02*
G37*
G36*
X-300335Y6248D02*
X-300367D01*
X-300529Y6243D01*
X-300681Y6233D01*
X-300822Y6212D01*
X-300954Y6185D01*
X-301069Y6154D01*
X-301174Y6123D01*
X-301268Y6086D01*
X-301352Y6044D01*
X-301425Y6007D01*
X-301488Y5971D01*
X-301546Y5939D01*
X-301588Y5908D01*
X-301619Y5881D01*
X-301645Y5861D01*
X-301656Y5850D01*
X-301661Y5845D01*
X-301729Y5766D01*
X-301792Y5688D01*
X-301844Y5604D01*
X-301886Y5520D01*
X-301928Y5436D01*
X-301960Y5358D01*
X-301986Y5279D01*
X-302007Y5206D01*
X-302022Y5132D01*
X-302033Y5069D01*
X-302043Y5012D01*
X-302049Y4964D01*
X-302054Y4922D01*
Y4896D01*
Y4875D01*
Y4870D01*
X-302043Y4723D01*
X-302022Y4587D01*
X-301991Y4467D01*
X-301954Y4362D01*
X-301933Y4315D01*
X-301912Y4273D01*
X-301897Y4236D01*
X-301881Y4210D01*
X-301870Y4184D01*
X-301860Y4168D01*
X-301850Y4157D01*
Y4152D01*
X-301766Y4037D01*
X-301677Y3943D01*
X-301582Y3859D01*
X-301493Y3791D01*
X-301409Y3733D01*
X-301373Y3712D01*
X-301346Y3696D01*
X-301320Y3681D01*
X-301299Y3670D01*
X-301289Y3665D01*
X-301284D01*
X-301142Y3607D01*
X-300995Y3565D01*
X-300849Y3539D01*
X-300718Y3518D01*
X-300655Y3513D01*
X-300597Y3508D01*
X-300550Y3503D01*
X-300508Y3497D01*
X-300424D01*
X-300283Y3503D01*
X-300152Y3513D01*
X-300026Y3534D01*
X-299911Y3560D01*
X-299801Y3586D01*
X-299706Y3623D01*
X-299612Y3654D01*
X-299533Y3691D01*
X-299460Y3728D01*
X-299397Y3765D01*
X-299345Y3801D01*
X-299303Y3827D01*
X-299266Y3854D01*
X-299245Y3875D01*
X-299230Y3885D01*
X-299224Y3890D01*
X-299151Y3964D01*
X-299088Y4042D01*
X-299030Y4126D01*
X-298983Y4210D01*
X-298941Y4294D01*
X-298910Y4372D01*
X-298878Y4456D01*
X-298857Y4530D01*
X-298842Y4603D01*
X-298826Y4671D01*
X-298816Y4729D01*
X-298810Y4781D01*
Y4823D01*
X-298805Y4854D01*
Y4875D01*
Y4881D01*
X-298810Y4991D01*
X-298821Y5090D01*
X-298842Y5190D01*
X-298868Y5279D01*
X-298899Y5368D01*
X-298936Y5446D01*
X-298973Y5525D01*
X-299015Y5588D01*
X-299051Y5651D01*
X-299088Y5703D01*
X-299125Y5751D01*
X-299156Y5787D01*
X-299182Y5819D01*
X-299203Y5845D01*
X-299214Y5855D01*
X-299219Y5861D01*
X-299303Y5929D01*
X-299387Y5986D01*
X-299481Y6039D01*
X-299575Y6086D01*
X-299670Y6123D01*
X-299764Y6154D01*
X-299858Y6180D01*
X-299953Y6201D01*
X-300037Y6217D01*
X-300115Y6227D01*
X-300183Y6238D01*
X-300246Y6243D01*
X-300299D01*
X-300335Y6248D01*
D02*
G37*
G36*
X-298894Y20795D02*
X-301970D01*
Y19951D01*
Y19862D01*
X-301965Y19783D01*
Y19710D01*
X-301960Y19642D01*
X-301949Y19579D01*
X-301944Y19521D01*
X-301939Y19469D01*
X-301928Y19427D01*
X-301923Y19385D01*
X-301912Y19354D01*
X-301907Y19322D01*
X-301902Y19301D01*
X-301897Y19280D01*
X-301891Y19270D01*
X-301886Y19259D01*
X-301860Y19207D01*
X-301834Y19154D01*
X-301766Y19055D01*
X-301692Y18971D01*
X-301614Y18898D01*
X-301546Y18840D01*
X-301488Y18793D01*
X-301462Y18777D01*
X-301446Y18767D01*
X-301436Y18756D01*
X-301430D01*
X-301362Y18720D01*
X-301289Y18688D01*
X-301137Y18636D01*
X-300974Y18599D01*
X-300817Y18573D01*
X-300744Y18562D01*
X-300676Y18557D01*
X-300618Y18552D01*
X-300566D01*
X-300524Y18546D01*
X-300461D01*
X-300299Y18552D01*
X-300147Y18562D01*
X-300015Y18583D01*
X-299958Y18594D01*
X-299900Y18599D01*
X-299853Y18609D01*
X-299811Y18620D01*
X-299775Y18630D01*
X-299743Y18641D01*
X-299717Y18646D01*
X-299701Y18651D01*
X-299691Y18657D01*
X-299685D01*
X-299570Y18699D01*
X-299471Y18746D01*
X-299381Y18793D01*
X-299308Y18840D01*
X-299251Y18887D01*
X-299209Y18919D01*
X-299182Y18939D01*
X-299172Y18950D01*
X-299125Y19002D01*
X-299083Y19065D01*
X-299051Y19123D01*
X-299020Y19181D01*
X-298999Y19233D01*
X-298983Y19275D01*
X-298973Y19301D01*
X-298968Y19306D01*
Y19312D01*
X-298941Y19401D01*
X-298926Y19505D01*
X-298910Y19610D01*
X-298905Y19710D01*
X-298899Y19799D01*
X-298894Y19836D01*
Y19867D01*
Y19898D01*
Y19919D01*
Y19930D01*
Y19935D01*
Y20795D01*
D02*
G37*
G36*
X293935Y171876D02*
X293051Y171546D01*
X292945Y171507D01*
X292839Y171476D01*
X292741Y171448D01*
X292654Y171424D01*
X292615Y171413D01*
X292579Y171405D01*
X292548Y171397D01*
X292520Y171393D01*
X292497Y171389D01*
X292481Y171385D01*
X292473Y171381D01*
X292469D01*
X292568Y171350D01*
X292674Y171318D01*
X292780Y171283D01*
X292878Y171248D01*
X292925Y171232D01*
X292969Y171216D01*
X293008Y171200D01*
X293039Y171189D01*
X293067Y171181D01*
X293086Y171173D01*
X293098Y171165D01*
X293102D01*
X293935Y170851D01*
Y171876D01*
D02*
G37*
G36*
X288487Y159948D02*
X287788D01*
X287729Y159944D01*
X287674D01*
X287623Y159940D01*
X287576Y159932D01*
X287532Y159928D01*
X287493Y159924D01*
X287462Y159917D01*
X287430Y159913D01*
X287407Y159905D01*
X287383Y159901D01*
X287367Y159897D01*
X287351Y159893D01*
X287344Y159889D01*
X287336Y159885D01*
X287297Y159865D01*
X287257Y159846D01*
X287182Y159795D01*
X287120Y159740D01*
X287065Y159681D01*
X287021Y159630D01*
X286986Y159586D01*
X286974Y159567D01*
X286966Y159555D01*
X286959Y159547D01*
Y159543D01*
X286931Y159492D01*
X286907Y159437D01*
X286868Y159323D01*
X286841Y159201D01*
X286821Y159083D01*
X286813Y159028D01*
X286809Y158977D01*
X286805Y158934D01*
Y158895D01*
X286801Y158863D01*
Y158836D01*
Y158820D01*
Y158816D01*
X286805Y158694D01*
X286813Y158580D01*
X286829Y158482D01*
X286837Y158439D01*
X286841Y158396D01*
X286848Y158360D01*
X286856Y158329D01*
X286864Y158301D01*
X286872Y158278D01*
X286876Y158258D01*
X286880Y158246D01*
X286884Y158238D01*
Y158235D01*
X286915Y158148D01*
X286951Y158073D01*
X286986Y158007D01*
X287021Y157952D01*
X287057Y157908D01*
X287080Y157877D01*
X287096Y157857D01*
X287104Y157849D01*
X287143Y157814D01*
X287190Y157783D01*
X287234Y157759D01*
X287277Y157735D01*
X287316Y157720D01*
X287348Y157708D01*
X287367Y157700D01*
X287371Y157696D01*
X287375D01*
X287442Y157676D01*
X287521Y157665D01*
X287599Y157653D01*
X287674Y157649D01*
X287741Y157645D01*
X287768Y157641D01*
X288487D01*
Y159948D01*
D02*
G37*
G36*
X293696Y179410D02*
X293668D01*
X293558Y179406D01*
X293456Y179398D01*
X293358Y179383D01*
X293271Y179363D01*
X293189Y179343D01*
X293114Y179320D01*
X293047Y179292D01*
X292984Y179265D01*
X292933Y179237D01*
X292886Y179210D01*
X292847Y179186D01*
X292815Y179166D01*
X292788Y179147D01*
X292772Y179131D01*
X292760Y179123D01*
X292756Y179119D01*
X292701Y179060D01*
X292654Y179001D01*
X292615Y178943D01*
X292579Y178880D01*
X292548Y178817D01*
X292524Y178754D01*
X292505Y178695D01*
X292489Y178636D01*
X292477Y178585D01*
X292465Y178534D01*
X292458Y178491D01*
X292454Y178451D01*
X292450Y178420D01*
Y178396D01*
Y178381D01*
Y178377D01*
X292458Y178267D01*
X292473Y178164D01*
X292497Y178074D01*
X292524Y177995D01*
X292540Y177960D01*
X292556Y177929D01*
X292568Y177901D01*
X292579Y177881D01*
X292587Y177862D01*
X292595Y177850D01*
X292603Y177842D01*
Y177838D01*
X292666Y177752D01*
X292733Y177681D01*
X292804Y177618D01*
X292870Y177567D01*
X292933Y177524D01*
X292961Y177508D01*
X292980Y177496D01*
X293000Y177485D01*
X293016Y177477D01*
X293023Y177473D01*
X293027D01*
X293134Y177429D01*
X293244Y177398D01*
X293350Y177378D01*
X293452Y177363D01*
X293495Y177359D01*
X293538Y177355D01*
X293574Y177351D01*
X293605Y177347D01*
X293668D01*
X293786Y177351D01*
X293896Y177363D01*
X293998Y177378D01*
X294092Y177402D01*
X294179Y177429D01*
X294257Y177457D01*
X294328Y177492D01*
X294391Y177524D01*
X294450Y177555D01*
X294497Y177587D01*
X294541Y177618D01*
X294576Y177646D01*
X294600Y177669D01*
X294619Y177685D01*
X294631Y177697D01*
X294635Y177701D01*
X294568Y177791D01*
X294509Y177885D01*
X294458Y177980D01*
X294419Y178070D01*
X294399Y178109D01*
X294383Y178149D01*
X294372Y178184D01*
X294364Y178211D01*
X294356Y178235D01*
X294348Y178255D01*
X294344Y178267D01*
Y178270D01*
X294635Y178369D01*
X294658Y178290D01*
X294682Y178219D01*
X294713Y178153D01*
X294741Y178094D01*
X294764Y178042D01*
X294788Y178003D01*
X294804Y177980D01*
X294808Y177976D01*
Y177972D01*
X294835Y178042D01*
X294855Y178113D01*
X294867Y178184D01*
X294875Y178243D01*
X294882Y178298D01*
X294886Y178341D01*
Y178357D01*
Y178369D01*
Y178373D01*
Y178377D01*
X294882Y178459D01*
X294875Y178538D01*
X294859Y178612D01*
X294835Y178683D01*
X294812Y178750D01*
X294788Y178809D01*
X294757Y178868D01*
X294729Y178919D01*
X294702Y178962D01*
X294670Y179001D01*
X294647Y179037D01*
X294619Y179068D01*
X294600Y179088D01*
X294584Y179108D01*
X294576Y179115D01*
X294572Y179119D01*
X294509Y179171D01*
X294442Y179214D01*
X294372Y179253D01*
X294297Y179288D01*
X294222Y179316D01*
X294147Y179339D01*
X294073Y179359D01*
X294002Y179375D01*
X293935Y179387D01*
X293872Y179394D01*
X293813Y179402D01*
X293766Y179406D01*
X293723D01*
X293696Y179410D01*
D02*
G37*
G36*
X-300754Y36761D02*
X-301970D01*
Y35959D01*
Y35881D01*
Y35807D01*
X-301965Y35739D01*
X-301960Y35681D01*
X-301954Y35624D01*
Y35571D01*
X-301949Y35529D01*
X-301944Y35487D01*
X-301933Y35425D01*
X-301923Y35383D01*
X-301918Y35357D01*
X-301912Y35346D01*
X-301886Y35283D01*
X-301855Y35225D01*
X-301823Y35184D01*
X-301787Y35142D01*
X-301755Y35110D01*
X-301729Y35089D01*
X-301708Y35079D01*
X-301703Y35074D01*
X-301645Y35042D01*
X-301582Y35016D01*
X-301525Y35000D01*
X-301472Y34984D01*
X-301425Y34979D01*
X-301383Y34974D01*
X-301352D01*
X-301273Y34979D01*
X-301205Y34990D01*
X-301142Y35005D01*
X-301095Y35026D01*
X-301053Y35047D01*
X-301022Y35063D01*
X-301001Y35074D01*
X-300995Y35079D01*
X-300948Y35121D01*
X-300906Y35173D01*
X-300875Y35220D01*
X-300843Y35273D01*
X-300822Y35320D01*
X-300807Y35357D01*
X-300801Y35377D01*
X-300796Y35388D01*
X-300781Y35451D01*
X-300770Y35529D01*
X-300765Y35613D01*
X-300760Y35697D01*
X-300754Y35770D01*
Y35833D01*
Y35860D01*
Y35875D01*
Y35886D01*
Y35891D01*
Y36761D01*
D02*
G37*
G36*
X-298894D02*
X-300277D01*
Y35833D01*
X-300272Y35697D01*
X-300267Y35582D01*
X-300257Y35477D01*
X-300246Y35398D01*
X-300230Y35330D01*
X-300220Y35283D01*
X-300215Y35257D01*
X-300209Y35246D01*
X-300178Y35173D01*
X-300147Y35110D01*
X-300105Y35058D01*
X-300068Y35011D01*
X-300031Y34974D01*
X-300000Y34948D01*
X-299979Y34932D01*
X-299974Y34927D01*
X-299911Y34885D01*
X-299843Y34859D01*
X-299780Y34838D01*
X-299717Y34822D01*
X-299664Y34811D01*
X-299623Y34806D01*
X-299586D01*
X-299518Y34811D01*
X-299450Y34817D01*
X-299392Y34833D01*
X-299345Y34848D01*
X-299303Y34864D01*
X-299271Y34874D01*
X-299251Y34885D01*
X-299245Y34890D01*
X-299193Y34922D01*
X-299151Y34953D01*
X-299109Y34990D01*
X-299078Y35021D01*
X-299051Y35052D01*
X-299036Y35074D01*
X-299025Y35089D01*
X-299020Y35094D01*
X-298994Y35142D01*
X-298968Y35194D01*
X-298952Y35241D01*
X-298936Y35294D01*
X-298926Y35335D01*
X-298915Y35367D01*
X-298910Y35388D01*
Y35398D01*
X-298905Y35445D01*
X-298899Y35498D01*
X-298894Y35618D01*
Y35671D01*
Y35718D01*
Y35750D01*
Y35755D01*
Y35760D01*
Y36761D01*
D02*
G37*
G36*
X-300335Y33135D02*
X-300367D01*
X-300529Y33130D01*
X-300681Y33119D01*
X-300822Y33098D01*
X-300954Y33072D01*
X-301069Y33040D01*
X-301174Y33009D01*
X-301268Y32972D01*
X-301352Y32930D01*
X-301425Y32894D01*
X-301488Y32857D01*
X-301546Y32825D01*
X-301588Y32794D01*
X-301619Y32768D01*
X-301645Y32747D01*
X-301656Y32737D01*
X-301661Y32731D01*
X-301729Y32653D01*
X-301792Y32574D01*
X-301844Y32490D01*
X-301886Y32406D01*
X-301928Y32322D01*
X-301960Y32244D01*
X-301986Y32165D01*
X-302007Y32092D01*
X-302022Y32019D01*
X-302033Y31956D01*
X-302043Y31898D01*
X-302049Y31851D01*
X-302054Y31809D01*
Y31783D01*
Y31762D01*
Y31757D01*
X-302043Y31610D01*
X-302022Y31474D01*
X-301991Y31353D01*
X-301954Y31248D01*
X-301933Y31201D01*
X-301912Y31159D01*
X-301897Y31122D01*
X-301881Y31096D01*
X-301870Y31070D01*
X-301860Y31054D01*
X-301850Y31044D01*
Y31039D01*
X-301766Y30923D01*
X-301677Y30829D01*
X-301582Y30745D01*
X-301493Y30677D01*
X-301409Y30619D01*
X-301373Y30599D01*
X-301346Y30583D01*
X-301320Y30567D01*
X-301299Y30557D01*
X-301289Y30551D01*
X-301284D01*
X-301142Y30494D01*
X-300995Y30452D01*
X-300849Y30426D01*
X-300718Y30405D01*
X-300655Y30399D01*
X-300597Y30394D01*
X-300550Y30389D01*
X-300508Y30384D01*
X-300424D01*
X-300283Y30389D01*
X-300152Y30399D01*
X-300026Y30420D01*
X-299911Y30447D01*
X-299801Y30473D01*
X-299706Y30509D01*
X-299612Y30541D01*
X-299533Y30578D01*
X-299460Y30614D01*
X-299397Y30651D01*
X-299345Y30688D01*
X-299303Y30714D01*
X-299266Y30740D01*
X-299245Y30761D01*
X-299230Y30771D01*
X-299224Y30777D01*
X-299151Y30850D01*
X-299088Y30929D01*
X-299030Y31012D01*
X-298983Y31096D01*
X-298941Y31180D01*
X-298910Y31259D01*
X-298878Y31343D01*
X-298857Y31416D01*
X-298842Y31489D01*
X-298826Y31558D01*
X-298816Y31615D01*
X-298810Y31668D01*
Y31709D01*
X-298805Y31741D01*
Y31762D01*
Y31767D01*
X-298810Y31877D01*
X-298821Y31977D01*
X-298842Y32076D01*
X-298868Y32165D01*
X-298899Y32254D01*
X-298936Y32333D01*
X-298973Y32412D01*
X-299015Y32474D01*
X-299051Y32537D01*
X-299088Y32590D01*
X-299125Y32637D01*
X-299156Y32674D01*
X-299182Y32705D01*
X-299203Y32731D01*
X-299214Y32742D01*
X-299219Y32747D01*
X-299303Y32815D01*
X-299387Y32873D01*
X-299481Y32925D01*
X-299575Y32972D01*
X-299670Y33009D01*
X-299764Y33040D01*
X-299858Y33067D01*
X-299953Y33088D01*
X-300037Y33103D01*
X-300115Y33114D01*
X-300183Y33124D01*
X-300246Y33130D01*
X-300299D01*
X-300335Y33135D01*
D02*
G37*
G36*
X-300073Y28434D02*
X-301252Y27994D01*
X-301394Y27942D01*
X-301535Y27900D01*
X-301666Y27863D01*
X-301781Y27832D01*
X-301834Y27816D01*
X-301881Y27806D01*
X-301923Y27795D01*
X-301960Y27790D01*
X-301991Y27785D01*
X-302012Y27779D01*
X-302022Y27774D01*
X-302028D01*
X-301897Y27732D01*
X-301755Y27690D01*
X-301614Y27643D01*
X-301483Y27596D01*
X-301420Y27575D01*
X-301362Y27554D01*
X-301310Y27533D01*
X-301268Y27517D01*
X-301231Y27507D01*
X-301205Y27496D01*
X-301189Y27486D01*
X-301184D01*
X-300073Y27067D01*
Y28434D01*
D02*
G37*
G36*
X-300665Y24856D02*
X-302002D01*
Y23582D01*
Y23504D01*
X-301991Y23425D01*
X-301986Y23357D01*
X-301970Y23294D01*
X-301960Y23231D01*
X-301944Y23179D01*
X-301923Y23132D01*
X-301907Y23090D01*
X-301870Y23016D01*
X-301844Y22969D01*
X-301823Y22938D01*
X-301813Y22927D01*
X-301740Y22859D01*
X-301661Y22807D01*
X-301582Y22770D01*
X-301509Y22744D01*
X-301441Y22728D01*
X-301388Y22723D01*
X-301367Y22718D01*
X-301341D01*
X-301268Y22723D01*
X-301205Y22733D01*
X-301142Y22754D01*
X-301090Y22770D01*
X-301043Y22791D01*
X-301011Y22812D01*
X-300985Y22822D01*
X-300980Y22828D01*
X-300922Y22870D01*
X-300870Y22922D01*
X-300828Y22974D01*
X-300796Y23021D01*
X-300770Y23069D01*
X-300754Y23105D01*
X-300744Y23132D01*
X-300739Y23142D01*
X-300712Y23226D01*
X-300697Y23315D01*
X-300681Y23415D01*
X-300676Y23504D01*
X-300671Y23587D01*
X-300665Y23624D01*
Y23650D01*
Y23676D01*
Y23697D01*
Y23708D01*
Y23713D01*
Y24856D01*
D02*
G37*
G36*
X261143Y159653D02*
X260278D01*
X260199Y159649D01*
X260137Y159645D01*
X260085Y159641D01*
X260050Y159633D01*
X260023Y159629D01*
X260007Y159625D01*
X260003D01*
X259948Y159606D01*
X259897Y159578D01*
X259854Y159550D01*
X259818Y159519D01*
X259791Y159492D01*
X259767Y159468D01*
X259755Y159452D01*
X259751Y159444D01*
X259720Y159393D01*
X259696Y159338D01*
X259677Y159283D01*
X259665Y159232D01*
X259657Y159189D01*
X259653Y159154D01*
Y159130D01*
Y159126D01*
Y159122D01*
X259661Y159028D01*
X259681Y158949D01*
X259704Y158879D01*
X259736Y158820D01*
X259767Y158772D01*
X259791Y158741D01*
X259810Y158721D01*
X259818Y158713D01*
X259850Y158690D01*
X259889Y158666D01*
X259971Y158631D01*
X260062Y158607D01*
X260152Y158592D01*
X260235Y158580D01*
X260270Y158576D01*
X260302D01*
X260329Y158572D01*
X261143D01*
Y159653D01*
D02*
G37*
G36*
X255515D02*
X254815D01*
X254756Y159649D01*
X254701D01*
X254650Y159645D01*
X254603Y159637D01*
X254560Y159633D01*
X254521Y159629D01*
X254489Y159621D01*
X254458Y159617D01*
X254434Y159609D01*
X254411Y159606D01*
X254395Y159602D01*
X254379Y159598D01*
X254371Y159594D01*
X254363Y159590D01*
X254324Y159570D01*
X254285Y159550D01*
X254210Y159500D01*
X254147Y159444D01*
X254092Y159386D01*
X254049Y159334D01*
X254014Y159291D01*
X254002Y159272D01*
X253994Y159260D01*
X253986Y159252D01*
Y159248D01*
X253959Y159197D01*
X253935Y159142D01*
X253896Y159028D01*
X253868Y158906D01*
X253849Y158788D01*
X253841Y158733D01*
X253837Y158682D01*
X253833Y158639D01*
Y158599D01*
X253829Y158568D01*
Y158540D01*
Y158525D01*
Y158521D01*
X253833Y158399D01*
X253841Y158285D01*
X253856Y158187D01*
X253864Y158144D01*
X253868Y158100D01*
X253876Y158065D01*
X253884Y158034D01*
X253892Y158006D01*
X253900Y157983D01*
X253904Y157963D01*
X253907Y157951D01*
X253911Y157943D01*
Y157939D01*
X253943Y157853D01*
X253978Y157778D01*
X254014Y157711D01*
X254049Y157656D01*
X254084Y157613D01*
X254108Y157582D01*
X254124Y157562D01*
X254132Y157554D01*
X254171Y157519D01*
X254218Y157487D01*
X254261Y157464D01*
X254304Y157440D01*
X254344Y157424D01*
X254375Y157413D01*
X254395Y157405D01*
X254399Y157401D01*
X254403D01*
X254469Y157381D01*
X254548Y157369D01*
X254627Y157358D01*
X254701Y157354D01*
X254768Y157350D01*
X254796Y157346D01*
X255515D01*
Y159653D01*
D02*
G37*
G36*
X294115Y159948D02*
X293250D01*
X293172Y159944D01*
X293109Y159940D01*
X293058Y159936D01*
X293022Y159928D01*
X292995Y159924D01*
X292979Y159921D01*
X292975D01*
X292920Y159901D01*
X292869Y159873D01*
X292826Y159846D01*
X292791Y159814D01*
X292763Y159787D01*
X292740Y159763D01*
X292728Y159748D01*
X292724Y159740D01*
X292692Y159689D01*
X292669Y159634D01*
X292649Y159579D01*
X292637Y159528D01*
X292630Y159484D01*
X292626Y159449D01*
Y159425D01*
Y159421D01*
Y159417D01*
X292633Y159323D01*
X292653Y159245D01*
X292677Y159174D01*
X292708Y159115D01*
X292740Y159068D01*
X292763Y159036D01*
X292783Y159017D01*
X292791Y159009D01*
X292822Y158985D01*
X292861Y158962D01*
X292944Y158926D01*
X293034Y158903D01*
X293125Y158887D01*
X293207Y158875D01*
X293243Y158871D01*
X293274D01*
X293302Y158867D01*
X294115D01*
Y159948D01*
D02*
G37*
G36*
X264946Y133739D02*
X261871D01*
Y132895D01*
Y132806D01*
X261876Y132727D01*
Y132654D01*
X261881Y132586D01*
X261892Y132523D01*
X261897Y132465D01*
X261902Y132413D01*
X261912Y132371D01*
X261918Y132329D01*
X261928Y132298D01*
X261933Y132266D01*
X261939Y132245D01*
X261944Y132224D01*
X261949Y132214D01*
X261954Y132203D01*
X261981Y132151D01*
X262007Y132099D01*
X262075Y131999D01*
X262148Y131915D01*
X262227Y131842D01*
X262295Y131784D01*
X262353Y131737D01*
X262379Y131721D01*
X262394Y131711D01*
X262405Y131700D01*
X262410D01*
X262478Y131664D01*
X262552Y131632D01*
X262704Y131580D01*
X262866Y131543D01*
X263023Y131517D01*
X263097Y131507D01*
X263165Y131501D01*
X263222Y131496D01*
X263275D01*
X263317Y131491D01*
X263380D01*
X263542Y131496D01*
X263694Y131507D01*
X263825Y131527D01*
X263883Y131538D01*
X263940Y131543D01*
X263987Y131554D01*
X264029Y131564D01*
X264066Y131575D01*
X264097Y131585D01*
X264124Y131590D01*
X264139Y131596D01*
X264150Y131601D01*
X264155D01*
X264270Y131643D01*
X264370Y131690D01*
X264459Y131737D01*
X264532Y131784D01*
X264590Y131831D01*
X264632Y131863D01*
X264658Y131884D01*
X264669Y131894D01*
X264716Y131947D01*
X264758Y132009D01*
X264789Y132067D01*
X264821Y132125D01*
X264842Y132177D01*
X264857Y132219D01*
X264868Y132245D01*
X264873Y132251D01*
Y132256D01*
X264899Y132345D01*
X264915Y132450D01*
X264931Y132554D01*
X264936Y132654D01*
X264941Y132743D01*
X264946Y132780D01*
Y132811D01*
Y132843D01*
Y132864D01*
Y132874D01*
Y132879D01*
Y133739D01*
D02*
G37*
G36*
X254612Y181176D02*
X253228D01*
Y180249D01*
X253234Y180113D01*
X253239Y179997D01*
X253249Y179893D01*
X253260Y179814D01*
X253276Y179746D01*
X253286Y179699D01*
X253291Y179673D01*
X253296Y179662D01*
X253328Y179589D01*
X253359Y179526D01*
X253401Y179473D01*
X253438Y179426D01*
X253475Y179390D01*
X253506Y179363D01*
X253527Y179348D01*
X253532Y179342D01*
X253595Y179300D01*
X253663Y179274D01*
X253726Y179253D01*
X253789Y179238D01*
X253841Y179227D01*
X253883Y179222D01*
X253920D01*
X253988Y179227D01*
X254056Y179232D01*
X254114Y179248D01*
X254161Y179264D01*
X254203Y179279D01*
X254235Y179290D01*
X254255Y179300D01*
X254261Y179306D01*
X254313Y179337D01*
X254355Y179369D01*
X254397Y179405D01*
X254428Y179437D01*
X254455Y179468D01*
X254470Y179489D01*
X254481Y179505D01*
X254486Y179510D01*
X254512Y179557D01*
X254538Y179610D01*
X254554Y179657D01*
X254570Y179709D01*
X254580Y179751D01*
X254591Y179782D01*
X254596Y179804D01*
Y179814D01*
X254601Y179861D01*
X254607Y179914D01*
X254612Y180034D01*
Y180087D01*
Y180134D01*
Y180165D01*
Y180170D01*
Y180175D01*
Y181176D01*
D02*
G37*
G36*
X252752D02*
X251536D01*
Y180375D01*
Y180296D01*
Y180223D01*
X251541Y180155D01*
X251546Y180097D01*
X251552Y180039D01*
Y179987D01*
X251557Y179945D01*
X251562Y179903D01*
X251573Y179840D01*
X251583Y179798D01*
X251588Y179772D01*
X251593Y179762D01*
X251620Y179699D01*
X251651Y179641D01*
X251683Y179599D01*
X251719Y179557D01*
X251751Y179526D01*
X251777Y179505D01*
X251798Y179494D01*
X251803Y179489D01*
X251861Y179458D01*
X251924Y179431D01*
X251981Y179416D01*
X252034Y179400D01*
X252081Y179395D01*
X252123Y179390D01*
X252154D01*
X252233Y179395D01*
X252301Y179405D01*
X252364Y179421D01*
X252411Y179442D01*
X252453Y179463D01*
X252484Y179479D01*
X252505Y179489D01*
X252510Y179494D01*
X252558Y179536D01*
X252600Y179589D01*
X252631Y179636D01*
X252662Y179688D01*
X252683Y179735D01*
X252699Y179772D01*
X252704Y179793D01*
X252710Y179804D01*
X252725Y179866D01*
X252736Y179945D01*
X252741Y180029D01*
X252746Y180113D01*
X252752Y180186D01*
Y180249D01*
Y180275D01*
Y180291D01*
Y180301D01*
Y180306D01*
Y181176D01*
D02*
G37*
G36*
X-306377Y8940D02*
X-307652D01*
Y7725D01*
Y7650D01*
X-307642Y7575D01*
X-307637Y7510D01*
X-307622Y7450D01*
X-307612Y7390D01*
X-307597Y7340D01*
X-307577Y7295D01*
X-307562Y7255D01*
X-307527Y7185D01*
X-307502Y7140D01*
X-307482Y7110D01*
X-307472Y7100D01*
X-307402Y7035D01*
X-307327Y6985D01*
X-307252Y6950D01*
X-307182Y6925D01*
X-307117Y6910D01*
X-307067Y6905D01*
X-307047Y6900D01*
X-307022D01*
X-306952Y6905D01*
X-306892Y6915D01*
X-306832Y6935D01*
X-306782Y6950D01*
X-306737Y6970D01*
X-306707Y6990D01*
X-306682Y7000D01*
X-306677Y7005D01*
X-306622Y7045D01*
X-306572Y7095D01*
X-306532Y7145D01*
X-306502Y7190D01*
X-306477Y7235D01*
X-306462Y7270D01*
X-306452Y7295D01*
X-306447Y7305D01*
X-306422Y7385D01*
X-306407Y7470D01*
X-306392Y7565D01*
X-306387Y7650D01*
X-306382Y7730D01*
X-306377Y7765D01*
Y7790D01*
Y7815D01*
Y7835D01*
Y7845D01*
Y7850D01*
Y8940D01*
D02*
G37*
G36*
X252841Y177398D02*
X251504D01*
Y176125D01*
Y176046D01*
X251515Y175968D01*
X251520Y175900D01*
X251536Y175837D01*
X251546Y175774D01*
X251562Y175722D01*
X251583Y175674D01*
X251599Y175633D01*
X251635Y175559D01*
X251662Y175512D01*
X251683Y175480D01*
X251693Y175470D01*
X251766Y175402D01*
X251845Y175349D01*
X251924Y175313D01*
X251997Y175287D01*
X252065Y175271D01*
X252117Y175266D01*
X252138Y175260D01*
X252165D01*
X252238Y175266D01*
X252301Y175276D01*
X252364Y175297D01*
X252416Y175313D01*
X252463Y175334D01*
X252495Y175355D01*
X252521Y175365D01*
X252526Y175371D01*
X252584Y175412D01*
X252636Y175465D01*
X252678Y175517D01*
X252710Y175564D01*
X252736Y175611D01*
X252752Y175648D01*
X252762Y175674D01*
X252767Y175685D01*
X252794Y175769D01*
X252809Y175858D01*
X252825Y175957D01*
X252830Y176046D01*
X252835Y176130D01*
X252841Y176167D01*
Y176193D01*
Y176219D01*
Y176240D01*
Y176251D01*
Y176256D01*
Y177398D01*
D02*
G37*
G36*
X-305892Y5285D02*
X-306022Y5270D01*
X-306132Y5240D01*
X-306232Y5200D01*
X-306317Y5155D01*
X-306382Y5115D01*
X-306427Y5080D01*
X-306457Y5055D01*
X-306467Y5045D01*
X-306507Y5000D01*
X-306542Y4955D01*
X-306592Y4865D01*
X-306632Y4770D01*
X-306662Y4685D01*
X-306677Y4610D01*
X-306682Y4575D01*
Y4550D01*
X-306687Y4525D01*
Y4510D01*
Y4500D01*
Y4495D01*
X-306682Y4430D01*
X-306677Y4365D01*
X-306642Y4250D01*
X-306602Y4150D01*
X-306552Y4065D01*
X-306497Y4000D01*
X-306457Y3950D01*
X-306437Y3935D01*
X-306422Y3920D01*
X-306417Y3910D01*
X-306412D01*
X-306342Y3860D01*
X-306257Y3820D01*
X-306172Y3790D01*
X-306087Y3765D01*
X-306012Y3750D01*
X-305977Y3740D01*
X-305947D01*
X-305927Y3735D01*
X-305907Y3730D01*
X-305892D01*
Y5285D01*
D02*
G37*
G36*
X263175Y139361D02*
X261839D01*
Y138088D01*
Y138009D01*
X261850Y137931D01*
X261855Y137863D01*
X261871Y137800D01*
X261881Y137737D01*
X261897Y137685D01*
X261918Y137637D01*
X261933Y137595D01*
X261970Y137522D01*
X261996Y137475D01*
X262017Y137443D01*
X262028Y137433D01*
X262101Y137365D01*
X262180Y137312D01*
X262258Y137276D01*
X262332Y137250D01*
X262400Y137234D01*
X262452Y137229D01*
X262473Y137223D01*
X262499D01*
X262573Y137229D01*
X262636Y137239D01*
X262698Y137260D01*
X262751Y137276D01*
X262798Y137297D01*
X262829Y137318D01*
X262856Y137328D01*
X262861Y137333D01*
X262918Y137375D01*
X262971Y137428D01*
X263013Y137480D01*
X263044Y137527D01*
X263071Y137574D01*
X263086Y137611D01*
X263097Y137637D01*
X263102Y137648D01*
X263128Y137732D01*
X263144Y137821D01*
X263160Y137920D01*
X263165Y138009D01*
X263170Y138093D01*
X263175Y138130D01*
Y138156D01*
Y138182D01*
Y138203D01*
Y138214D01*
Y138219D01*
Y139361D01*
D02*
G37*
G36*
X-306037Y-6950D02*
X-306127D01*
X-306297Y-6955D01*
X-306452Y-6960D01*
X-306597Y-6970D01*
X-306727Y-6990D01*
X-306847Y-7005D01*
X-306952Y-7025D01*
X-307047Y-7050D01*
X-307127Y-7070D01*
X-307202Y-7095D01*
X-307262Y-7115D01*
X-307312Y-7135D01*
X-307352Y-7155D01*
X-307382Y-7170D01*
X-307407Y-7180D01*
X-307417Y-7185D01*
X-307422Y-7190D01*
X-307472Y-7230D01*
X-307517Y-7270D01*
X-307552Y-7310D01*
X-307582Y-7355D01*
X-307632Y-7440D01*
X-307667Y-7525D01*
X-307687Y-7595D01*
X-307697Y-7655D01*
X-307702Y-7680D01*
Y-7695D01*
Y-7705D01*
Y-7710D01*
X-307697Y-7770D01*
X-307687Y-7830D01*
X-307672Y-7885D01*
X-307652Y-7935D01*
X-307602Y-8030D01*
X-307547Y-8110D01*
X-307487Y-8175D01*
X-307437Y-8220D01*
X-307417Y-8240D01*
X-307402Y-8250D01*
X-307392Y-8260D01*
X-307387D01*
X-307322Y-8300D01*
X-307242Y-8335D01*
X-307157Y-8365D01*
X-307062Y-8390D01*
X-306957Y-8410D01*
X-306852Y-8430D01*
X-306642Y-8455D01*
X-306542Y-8465D01*
X-306442Y-8475D01*
X-306357Y-8480D01*
X-306282D01*
X-306217Y-8485D01*
X-305957D01*
X-305802Y-8475D01*
X-305662Y-8465D01*
X-305532Y-8450D01*
X-305417Y-8435D01*
X-305312Y-8415D01*
X-305222Y-8395D01*
X-305142Y-8375D01*
X-305072Y-8350D01*
X-305017Y-8330D01*
X-304967Y-8310D01*
X-304932Y-8295D01*
X-304902Y-8280D01*
X-304882Y-8270D01*
X-304872Y-8265D01*
X-304867Y-8260D01*
X-304812Y-8220D01*
X-304767Y-8175D01*
X-304722Y-8130D01*
X-304687Y-8080D01*
X-304657Y-8035D01*
X-304632Y-7990D01*
X-304597Y-7905D01*
X-304572Y-7830D01*
X-304567Y-7795D01*
X-304562Y-7770D01*
X-304557Y-7745D01*
Y-7730D01*
Y-7720D01*
Y-7715D01*
X-304562Y-7655D01*
X-304572Y-7600D01*
X-304587Y-7545D01*
X-304607Y-7495D01*
X-304657Y-7400D01*
X-304712Y-7320D01*
X-304767Y-7255D01*
X-304817Y-7210D01*
X-304837Y-7195D01*
X-304852Y-7180D01*
X-304862Y-7175D01*
X-304867Y-7170D01*
X-304932Y-7130D01*
X-305012Y-7100D01*
X-305097Y-7070D01*
X-305197Y-7045D01*
X-305297Y-7020D01*
X-305402Y-7005D01*
X-305612Y-6980D01*
X-305717Y-6970D01*
X-305812Y-6960D01*
X-305897Y-6955D01*
X-305972D01*
X-306037Y-6950D01*
D02*
G37*
G36*
X287453Y-100013D02*
X284377D01*
Y-100857D01*
Y-100946D01*
X284383Y-101024D01*
Y-101098D01*
X284388Y-101166D01*
X284398Y-101229D01*
X284404Y-101286D01*
X284409Y-101339D01*
X284419Y-101381D01*
X284425Y-101423D01*
X284435Y-101454D01*
X284440Y-101486D01*
X284446Y-101507D01*
X284451Y-101528D01*
X284456Y-101538D01*
X284461Y-101549D01*
X284487Y-101601D01*
X284514Y-101653D01*
X284582Y-101753D01*
X284655Y-101837D01*
X284734Y-101910D01*
X284802Y-101968D01*
X284859Y-102015D01*
X284886Y-102031D01*
X284901Y-102041D01*
X284912Y-102051D01*
X284917D01*
X284985Y-102088D01*
X285059Y-102120D01*
X285211Y-102172D01*
X285373Y-102209D01*
X285530Y-102235D01*
X285604Y-102245D01*
X285672Y-102251D01*
X285729Y-102256D01*
X285782D01*
X285824Y-102261D01*
X285887D01*
X286049Y-102256D01*
X286201Y-102245D01*
X286332Y-102224D01*
X286390Y-102214D01*
X286447Y-102209D01*
X286494Y-102198D01*
X286536Y-102188D01*
X286573Y-102177D01*
X286604Y-102167D01*
X286631Y-102162D01*
X286646Y-102156D01*
X286657Y-102151D01*
X286662D01*
X286777Y-102109D01*
X286877Y-102062D01*
X286966Y-102015D01*
X287039Y-101968D01*
X287097Y-101920D01*
X287139Y-101889D01*
X287165Y-101868D01*
X287176Y-101858D01*
X287223Y-101805D01*
X287265Y-101742D01*
X287296Y-101685D01*
X287328Y-101627D01*
X287349Y-101575D01*
X287364Y-101533D01*
X287375Y-101507D01*
X287380Y-101501D01*
Y-101496D01*
X287406Y-101407D01*
X287422Y-101302D01*
X287438Y-101197D01*
X287443Y-101098D01*
X287448Y-101009D01*
X287453Y-100972D01*
Y-100941D01*
Y-100909D01*
Y-100888D01*
Y-100878D01*
Y-100873D01*
Y-100013D01*
D02*
G37*
G36*
X-306037Y-9935D02*
X-306127D01*
X-306297Y-9940D01*
X-306452Y-9945D01*
X-306597Y-9955D01*
X-306727Y-9975D01*
X-306847Y-9990D01*
X-306952Y-10010D01*
X-307047Y-10035D01*
X-307127Y-10055D01*
X-307202Y-10080D01*
X-307262Y-10100D01*
X-307312Y-10120D01*
X-307352Y-10140D01*
X-307382Y-10155D01*
X-307407Y-10165D01*
X-307417Y-10170D01*
X-307422Y-10175D01*
X-307472Y-10215D01*
X-307517Y-10255D01*
X-307552Y-10295D01*
X-307582Y-10340D01*
X-307632Y-10425D01*
X-307667Y-10510D01*
X-307687Y-10580D01*
X-307697Y-10640D01*
X-307702Y-10665D01*
Y-10680D01*
Y-10690D01*
Y-10695D01*
X-307697Y-10755D01*
X-307687Y-10815D01*
X-307672Y-10870D01*
X-307652Y-10920D01*
X-307602Y-11015D01*
X-307547Y-11095D01*
X-307487Y-11160D01*
X-307437Y-11205D01*
X-307417Y-11225D01*
X-307402Y-11235D01*
X-307392Y-11245D01*
X-307387D01*
X-307322Y-11285D01*
X-307242Y-11320D01*
X-307157Y-11350D01*
X-307062Y-11375D01*
X-306957Y-11395D01*
X-306852Y-11415D01*
X-306642Y-11440D01*
X-306542Y-11450D01*
X-306442Y-11460D01*
X-306357Y-11465D01*
X-306282D01*
X-306217Y-11470D01*
X-305957D01*
X-305802Y-11460D01*
X-305662Y-11450D01*
X-305532Y-11435D01*
X-305417Y-11420D01*
X-305312Y-11400D01*
X-305222Y-11380D01*
X-305142Y-11360D01*
X-305072Y-11335D01*
X-305017Y-11315D01*
X-304967Y-11295D01*
X-304932Y-11280D01*
X-304902Y-11265D01*
X-304882Y-11255D01*
X-304872Y-11250D01*
X-304867Y-11245D01*
X-304812Y-11205D01*
X-304767Y-11160D01*
X-304722Y-11115D01*
X-304687Y-11065D01*
X-304657Y-11020D01*
X-304632Y-10975D01*
X-304597Y-10890D01*
X-304572Y-10815D01*
X-304567Y-10780D01*
X-304562Y-10755D01*
X-304557Y-10730D01*
Y-10715D01*
Y-10705D01*
Y-10700D01*
X-304562Y-10640D01*
X-304572Y-10585D01*
X-304587Y-10530D01*
X-304607Y-10480D01*
X-304657Y-10385D01*
X-304712Y-10305D01*
X-304767Y-10240D01*
X-304817Y-10195D01*
X-304837Y-10180D01*
X-304852Y-10165D01*
X-304862Y-10160D01*
X-304867Y-10155D01*
X-304932Y-10115D01*
X-305012Y-10085D01*
X-305097Y-10055D01*
X-305197Y-10030D01*
X-305297Y-10005D01*
X-305402Y-9990D01*
X-305612Y-9965D01*
X-305717Y-9955D01*
X-305812Y-9945D01*
X-305897Y-9940D01*
X-305972D01*
X-306037Y-9935D01*
D02*
G37*
G36*
X285818Y-88758D02*
X284377D01*
Y-89785D01*
Y-89848D01*
Y-89910D01*
X284383Y-90015D01*
X284388Y-90099D01*
X284393Y-90167D01*
X284404Y-90214D01*
X284409Y-90251D01*
X284414Y-90272D01*
Y-90277D01*
X284440Y-90351D01*
X284477Y-90419D01*
X284514Y-90476D01*
X284556Y-90523D01*
X284592Y-90560D01*
X284624Y-90592D01*
X284645Y-90607D01*
X284655Y-90613D01*
X284723Y-90654D01*
X284797Y-90686D01*
X284870Y-90712D01*
X284938Y-90728D01*
X284996Y-90738D01*
X285043Y-90744D01*
X285085D01*
X285211Y-90733D01*
X285315Y-90707D01*
X285410Y-90675D01*
X285488Y-90634D01*
X285551Y-90592D01*
X285593Y-90560D01*
X285619Y-90534D01*
X285630Y-90523D01*
X285661Y-90482D01*
X285693Y-90429D01*
X285740Y-90319D01*
X285771Y-90199D01*
X285792Y-90078D01*
X285808Y-89968D01*
X285813Y-89921D01*
Y-89879D01*
X285818Y-89842D01*
Y-89816D01*
Y-89800D01*
Y-89795D01*
Y-88758D01*
D02*
G37*
G36*
X286274Y-92688D02*
X285095Y-93128D01*
X284954Y-93180D01*
X284812Y-93222D01*
X284681Y-93259D01*
X284566Y-93290D01*
X284514Y-93306D01*
X284467Y-93316D01*
X284425Y-93327D01*
X284388Y-93332D01*
X284356Y-93337D01*
X284335Y-93343D01*
X284325Y-93348D01*
X284320D01*
X284451Y-93390D01*
X284592Y-93432D01*
X284734Y-93479D01*
X284865Y-93526D01*
X284928Y-93547D01*
X284985Y-93568D01*
X285038Y-93589D01*
X285080Y-93605D01*
X285116Y-93615D01*
X285142Y-93626D01*
X285158Y-93636D01*
X285163D01*
X286274Y-94055D01*
Y-92688D01*
D02*
G37*
G36*
X-305812Y-3755D02*
X-306937Y-4175D01*
X-307072Y-4225D01*
X-307207Y-4265D01*
X-307332Y-4300D01*
X-307442Y-4330D01*
X-307492Y-4345D01*
X-307537Y-4355D01*
X-307577Y-4365D01*
X-307612Y-4370D01*
X-307642Y-4375D01*
X-307662Y-4380D01*
X-307672Y-4385D01*
X-307677D01*
X-307552Y-4425D01*
X-307417Y-4465D01*
X-307282Y-4510D01*
X-307157Y-4555D01*
X-307097Y-4575D01*
X-307042Y-4595D01*
X-306992Y-4615D01*
X-306952Y-4630D01*
X-306917Y-4640D01*
X-306892Y-4650D01*
X-306877Y-4660D01*
X-306872D01*
X-305812Y-5060D01*
Y-3755D01*
D02*
G37*
G36*
X263086Y143139D02*
X261871D01*
Y142338D01*
Y142259D01*
Y142186D01*
X261876Y142118D01*
X261881Y142060D01*
X261886Y142002D01*
Y141950D01*
X261892Y141908D01*
X261897Y141866D01*
X261907Y141803D01*
X261918Y141761D01*
X261923Y141735D01*
X261928Y141725D01*
X261954Y141662D01*
X261986Y141604D01*
X262017Y141562D01*
X262054Y141520D01*
X262085Y141489D01*
X262112Y141468D01*
X262133Y141457D01*
X262138Y141452D01*
X262195Y141421D01*
X262258Y141394D01*
X262316Y141379D01*
X262368Y141363D01*
X262416Y141358D01*
X262457Y141352D01*
X262489D01*
X262567Y141358D01*
X262636Y141368D01*
X262698Y141384D01*
X262746Y141405D01*
X262788Y141426D01*
X262819Y141442D01*
X262840Y141452D01*
X262845Y141457D01*
X262892Y141499D01*
X262934Y141552D01*
X262966Y141599D01*
X262997Y141651D01*
X263018Y141698D01*
X263034Y141735D01*
X263039Y141756D01*
X263044Y141766D01*
X263060Y141829D01*
X263071Y141908D01*
X263076Y141992D01*
X263081Y142076D01*
X263086Y142149D01*
Y142212D01*
Y142238D01*
Y142254D01*
Y142264D01*
Y142270D01*
Y143139D01*
D02*
G37*
G36*
X264946D02*
X263563D01*
Y142212D01*
X263568Y142076D01*
X263574Y141960D01*
X263584Y141856D01*
X263595Y141777D01*
X263610Y141709D01*
X263621Y141662D01*
X263626Y141635D01*
X263631Y141625D01*
X263663Y141552D01*
X263694Y141489D01*
X263736Y141436D01*
X263773Y141389D01*
X263809Y141352D01*
X263841Y141326D01*
X263862Y141311D01*
X263867Y141305D01*
X263930Y141263D01*
X263998Y141237D01*
X264061Y141216D01*
X264124Y141200D01*
X264176Y141190D01*
X264218Y141185D01*
X264255D01*
X264323Y141190D01*
X264391Y141195D01*
X264449Y141211D01*
X264496Y141227D01*
X264538Y141242D01*
X264569Y141253D01*
X264590Y141263D01*
X264595Y141269D01*
X264648Y141300D01*
X264690Y141332D01*
X264732Y141368D01*
X264763Y141400D01*
X264789Y141431D01*
X264805Y141452D01*
X264815Y141468D01*
X264821Y141473D01*
X264847Y141520D01*
X264873Y141573D01*
X264889Y141620D01*
X264904Y141672D01*
X264915Y141714D01*
X264925Y141745D01*
X264931Y141766D01*
Y141777D01*
X264936Y141824D01*
X264941Y141876D01*
X264946Y141997D01*
Y142049D01*
Y142097D01*
Y142128D01*
Y142133D01*
Y142139D01*
Y143139D01*
D02*
G37*
G36*
X287453Y-104079D02*
X284377D01*
Y-104923D01*
Y-105012D01*
X284383Y-105091D01*
Y-105164D01*
X284388Y-105232D01*
X284398Y-105295D01*
X284404Y-105353D01*
X284409Y-105405D01*
X284419Y-105447D01*
X284425Y-105489D01*
X284435Y-105520D01*
X284440Y-105552D01*
X284446Y-105573D01*
X284451Y-105594D01*
X284456Y-105604D01*
X284461Y-105615D01*
X284487Y-105667D01*
X284514Y-105719D01*
X284582Y-105819D01*
X284655Y-105903D01*
X284734Y-105976D01*
X284802Y-106034D01*
X284859Y-106081D01*
X284886Y-106097D01*
X284901Y-106107D01*
X284912Y-106118D01*
X284917D01*
X284985Y-106154D01*
X285059Y-106186D01*
X285211Y-106238D01*
X285373Y-106275D01*
X285530Y-106301D01*
X285604Y-106312D01*
X285672Y-106317D01*
X285729Y-106322D01*
X285782D01*
X285824Y-106327D01*
X285887D01*
X286049Y-106322D01*
X286201Y-106312D01*
X286332Y-106291D01*
X286390Y-106280D01*
X286447Y-106275D01*
X286494Y-106264D01*
X286536Y-106254D01*
X286573Y-106244D01*
X286604Y-106233D01*
X286631Y-106228D01*
X286646Y-106223D01*
X286657Y-106217D01*
X286662D01*
X286777Y-106175D01*
X286877Y-106128D01*
X286966Y-106081D01*
X287039Y-106034D01*
X287097Y-105987D01*
X287139Y-105955D01*
X287165Y-105934D01*
X287176Y-105924D01*
X287223Y-105871D01*
X287265Y-105809D01*
X287296Y-105751D01*
X287328Y-105693D01*
X287349Y-105641D01*
X287364Y-105599D01*
X287375Y-105573D01*
X287380Y-105568D01*
Y-105562D01*
X287406Y-105473D01*
X287422Y-105368D01*
X287438Y-105264D01*
X287443Y-105164D01*
X287448Y-105075D01*
X287453Y-105038D01*
Y-105007D01*
Y-104975D01*
Y-104955D01*
Y-104944D01*
Y-104939D01*
Y-104079D01*
D02*
G37*
G36*
X300906Y172814D02*
X297830D01*
Y171971D01*
Y171881D01*
X297835Y171803D01*
Y171730D01*
X297840Y171661D01*
X297851Y171598D01*
X297856Y171541D01*
X297861Y171488D01*
X297872Y171447D01*
X297877Y171405D01*
X297887Y171373D01*
X297893Y171342D01*
X297898Y171321D01*
X297903Y171300D01*
X297908Y171289D01*
X297914Y171279D01*
X297940Y171227D01*
X297966Y171174D01*
X298034Y171074D01*
X298108Y170991D01*
X298186Y170917D01*
X298254Y170860D01*
X298312Y170812D01*
X298338Y170797D01*
X298354Y170786D01*
X298364Y170776D01*
X298370D01*
X298438Y170739D01*
X298511Y170708D01*
X298663Y170655D01*
X298825Y170619D01*
X298983Y170592D01*
X299056Y170582D01*
X299124Y170577D01*
X299182Y170571D01*
X299234D01*
X299276Y170566D01*
X299339D01*
X299501Y170571D01*
X299653Y170582D01*
X299784Y170603D01*
X299842Y170613D01*
X299900Y170619D01*
X299947Y170629D01*
X299989Y170640D01*
X300025Y170650D01*
X300057Y170661D01*
X300083Y170666D01*
X300099Y170671D01*
X300109Y170676D01*
X300114D01*
X300230Y170718D01*
X300329Y170765D01*
X300418Y170812D01*
X300492Y170860D01*
X300549Y170907D01*
X300591Y170938D01*
X300618Y170959D01*
X300628Y170970D01*
X300675Y171022D01*
X300717Y171085D01*
X300748Y171143D01*
X300780Y171200D01*
X300801Y171253D01*
X300817Y171295D01*
X300827Y171321D01*
X300832Y171326D01*
Y171331D01*
X300858Y171420D01*
X300874Y171525D01*
X300890Y171630D01*
X300895Y171730D01*
X300900Y171819D01*
X300906Y171855D01*
Y171887D01*
Y171918D01*
Y171939D01*
Y171950D01*
Y171955D01*
Y172814D01*
D02*
G37*
G36*
X299045Y182215D02*
X297830D01*
Y181413D01*
Y181334D01*
Y181261D01*
X297835Y181193D01*
X297840Y181135D01*
X297846Y181078D01*
Y181025D01*
X297851Y180983D01*
X297856Y180941D01*
X297867Y180879D01*
X297877Y180837D01*
X297882Y180810D01*
X297887Y180800D01*
X297914Y180737D01*
X297945Y180679D01*
X297976Y180638D01*
X298013Y180596D01*
X298045Y180564D01*
X298071Y180543D01*
X298092Y180533D01*
X298097Y180527D01*
X298155Y180496D01*
X298218Y180470D01*
X298275Y180454D01*
X298328Y180438D01*
X298375Y180433D01*
X298417Y180428D01*
X298448D01*
X298527Y180433D01*
X298595Y180444D01*
X298658Y180459D01*
X298705Y180480D01*
X298747Y180501D01*
X298778Y180517D01*
X298799Y180527D01*
X298804Y180533D01*
X298852Y180575D01*
X298893Y180627D01*
X298925Y180674D01*
X298956Y180727D01*
X298977Y180774D01*
X298993Y180810D01*
X298998Y180831D01*
X299004Y180842D01*
X299019Y180905D01*
X299030Y180983D01*
X299035Y181067D01*
X299040Y181151D01*
X299045Y181224D01*
Y181287D01*
Y181314D01*
Y181329D01*
Y181340D01*
Y181345D01*
Y182215D01*
D02*
G37*
G36*
X300906D02*
X299522D01*
Y181287D01*
X299528Y181151D01*
X299533Y181036D01*
X299543Y180931D01*
X299554Y180852D01*
X299570Y180784D01*
X299580Y180737D01*
X299585Y180711D01*
X299590Y180700D01*
X299622Y180627D01*
X299653Y180564D01*
X299695Y180512D01*
X299732Y180465D01*
X299769Y180428D01*
X299800Y180402D01*
X299821Y180386D01*
X299826Y180381D01*
X299889Y180339D01*
X299957Y180313D01*
X300020Y180292D01*
X300083Y180276D01*
X300135Y180265D01*
X300177Y180260D01*
X300214D01*
X300282Y180265D01*
X300350Y180271D01*
X300408Y180286D01*
X300455Y180302D01*
X300497Y180318D01*
X300528Y180328D01*
X300549Y180339D01*
X300555Y180344D01*
X300607Y180376D01*
X300649Y180407D01*
X300691Y180444D01*
X300722Y180475D01*
X300748Y180507D01*
X300764Y180527D01*
X300775Y180543D01*
X300780Y180549D01*
X300806Y180596D01*
X300832Y180648D01*
X300848Y180695D01*
X300864Y180748D01*
X300874Y180789D01*
X300885Y180821D01*
X300890Y180842D01*
Y180852D01*
X300895Y180900D01*
X300900Y180952D01*
X300906Y181072D01*
Y181125D01*
Y181172D01*
Y181203D01*
Y181209D01*
Y181214D01*
Y182215D01*
D02*
G37*
G36*
X-306742Y19900D02*
X-306777D01*
X-306852Y19895D01*
X-306922Y19890D01*
X-307052Y19865D01*
X-307167Y19825D01*
X-307262Y19785D01*
X-307302Y19765D01*
X-307342Y19745D01*
X-307372Y19725D01*
X-307397Y19705D01*
X-307417Y19690D01*
X-307432Y19680D01*
X-307437Y19670D01*
X-307442D01*
X-307487Y19625D01*
X-307527Y19580D01*
X-307562Y19535D01*
X-307592Y19490D01*
X-307637Y19395D01*
X-307672Y19310D01*
X-307687Y19235D01*
X-307692Y19205D01*
X-307697Y19180D01*
X-307702Y19155D01*
Y19140D01*
Y19130D01*
Y19125D01*
X-307697Y19070D01*
X-307692Y19015D01*
X-307667Y18910D01*
X-307627Y18820D01*
X-307582Y18745D01*
X-307537Y18685D01*
X-307502Y18640D01*
X-307472Y18610D01*
X-307467Y18600D01*
X-307462D01*
X-307417Y18560D01*
X-307367Y18530D01*
X-307262Y18475D01*
X-307152Y18435D01*
X-307052Y18410D01*
X-306957Y18395D01*
X-306917Y18390D01*
X-306882D01*
X-306857Y18385D01*
X-306742D01*
X-306672Y18395D01*
X-306542Y18420D01*
X-306432Y18455D01*
X-306342Y18490D01*
X-306272Y18530D01*
X-306242Y18550D01*
X-306222Y18565D01*
X-306202Y18580D01*
X-306187Y18590D01*
X-306182Y18595D01*
X-306177Y18600D01*
X-306137Y18640D01*
X-306102Y18685D01*
X-306047Y18770D01*
X-306007Y18860D01*
X-305982Y18945D01*
X-305962Y19020D01*
X-305957Y19055D01*
Y19080D01*
X-305952Y19105D01*
Y19120D01*
Y19130D01*
Y19135D01*
X-305957Y19195D01*
X-305962Y19255D01*
X-305987Y19360D01*
X-306022Y19455D01*
X-306067Y19535D01*
X-306107Y19600D01*
X-306142Y19645D01*
X-306167Y19675D01*
X-306177Y19680D01*
Y19685D01*
X-306222Y19725D01*
X-306267Y19755D01*
X-306367Y19810D01*
X-306467Y19845D01*
X-306562Y19875D01*
X-306647Y19890D01*
X-306682Y19895D01*
X-306717D01*
X-306742Y19900D01*
D02*
G37*
G36*
X299134Y178437D02*
X297798D01*
Y177163D01*
Y177085D01*
X297809Y177006D01*
X297814Y176938D01*
X297830Y176875D01*
X297840Y176812D01*
X297856Y176760D01*
X297877Y176713D01*
X297893Y176671D01*
X297929Y176597D01*
X297955Y176550D01*
X297976Y176519D01*
X297987Y176508D01*
X298060Y176440D01*
X298139Y176388D01*
X298218Y176351D01*
X298291Y176325D01*
X298359Y176309D01*
X298411Y176304D01*
X298432Y176299D01*
X298459D01*
X298532Y176304D01*
X298595Y176314D01*
X298658Y176336D01*
X298710Y176351D01*
X298757Y176372D01*
X298789Y176393D01*
X298815Y176404D01*
X298820Y176409D01*
X298878Y176451D01*
X298930Y176503D01*
X298972Y176556D01*
X299004Y176603D01*
X299030Y176650D01*
X299045Y176687D01*
X299056Y176713D01*
X299061Y176723D01*
X299087Y176807D01*
X299103Y176896D01*
X299119Y176996D01*
X299124Y177085D01*
X299129Y177169D01*
X299134Y177205D01*
Y177232D01*
Y177258D01*
Y177279D01*
Y177289D01*
Y177294D01*
Y178437D01*
D02*
G37*
G36*
X299407Y165798D02*
X299370D01*
X299224Y165793D01*
X299087Y165782D01*
X298956Y165761D01*
X298841Y165735D01*
X298731Y165709D01*
X298632Y165677D01*
X298542Y165641D01*
X298459Y165604D01*
X298391Y165567D01*
X298328Y165531D01*
X298275Y165499D01*
X298233Y165473D01*
X298197Y165447D01*
X298176Y165426D01*
X298160Y165415D01*
X298155Y165410D01*
X298081Y165331D01*
X298018Y165253D01*
X297966Y165174D01*
X297919Y165091D01*
X297877Y165007D01*
X297846Y164923D01*
X297819Y164844D01*
X297798Y164766D01*
X297783Y164698D01*
X297767Y164629D01*
X297756Y164572D01*
X297751Y164519D01*
X297746Y164477D01*
Y164446D01*
Y164425D01*
Y164420D01*
X297756Y164273D01*
X297777Y164137D01*
X297809Y164016D01*
X297846Y163911D01*
X297867Y163864D01*
X297887Y163822D01*
X297903Y163786D01*
X297919Y163760D01*
X297929Y163733D01*
X297940Y163718D01*
X297950Y163707D01*
Y163702D01*
X298034Y163587D01*
X298123Y163492D01*
X298218Y163408D01*
X298307Y163340D01*
X298391Y163283D01*
X298427Y163262D01*
X298453Y163246D01*
X298480Y163230D01*
X298500Y163220D01*
X298511Y163215D01*
X298516D01*
X298658Y163157D01*
X298804Y163115D01*
X298946Y163089D01*
X299082Y163068D01*
X299140Y163063D01*
X299197Y163057D01*
X299245Y163052D01*
X299287Y163047D01*
X299370D01*
X299528Y163052D01*
X299674Y163068D01*
X299811Y163089D01*
X299936Y163120D01*
X300051Y163157D01*
X300156Y163194D01*
X300251Y163241D01*
X300335Y163283D01*
X300413Y163325D01*
X300476Y163366D01*
X300534Y163408D01*
X300581Y163445D01*
X300612Y163477D01*
X300638Y163497D01*
X300654Y163513D01*
X300659Y163519D01*
X300570Y163639D01*
X300492Y163765D01*
X300424Y163891D01*
X300371Y164011D01*
X300345Y164063D01*
X300324Y164116D01*
X300308Y164163D01*
X300298Y164200D01*
X300287Y164231D01*
X300277Y164257D01*
X300272Y164273D01*
Y164278D01*
X300659Y164409D01*
X300691Y164304D01*
X300722Y164210D01*
X300764Y164121D01*
X300801Y164042D01*
X300832Y163974D01*
X300864Y163922D01*
X300885Y163891D01*
X300890Y163885D01*
Y163880D01*
X300927Y163974D01*
X300953Y164069D01*
X300969Y164163D01*
X300979Y164242D01*
X300990Y164315D01*
X300995Y164373D01*
Y164393D01*
Y164409D01*
Y164415D01*
Y164420D01*
X300990Y164530D01*
X300979Y164635D01*
X300958Y164734D01*
X300927Y164828D01*
X300895Y164918D01*
X300864Y164996D01*
X300822Y165075D01*
X300785Y165143D01*
X300748Y165200D01*
X300707Y165253D01*
X300675Y165300D01*
X300638Y165342D01*
X300612Y165368D01*
X300591Y165394D01*
X300581Y165405D01*
X300575Y165410D01*
X300492Y165478D01*
X300403Y165536D01*
X300308Y165588D01*
X300209Y165635D01*
X300109Y165672D01*
X300010Y165703D01*
X299910Y165730D01*
X299816Y165751D01*
X299727Y165766D01*
X299643Y165777D01*
X299564Y165787D01*
X299501Y165793D01*
X299444D01*
X299407Y165798D01*
D02*
G37*
G36*
X254612Y171776D02*
X251536D01*
Y170932D01*
Y170843D01*
X251541Y170765D01*
Y170691D01*
X251546Y170623D01*
X251557Y170560D01*
X251562Y170502D01*
X251567Y170450D01*
X251578Y170408D01*
X251583Y170366D01*
X251593Y170335D01*
X251599Y170303D01*
X251604Y170282D01*
X251609Y170262D01*
X251614Y170251D01*
X251620Y170240D01*
X251646Y170188D01*
X251672Y170136D01*
X251740Y170036D01*
X251814Y169952D01*
X251892Y169879D01*
X251960Y169821D01*
X252018Y169774D01*
X252044Y169758D01*
X252060Y169748D01*
X252070Y169738D01*
X252076D01*
X252144Y169701D01*
X252217Y169669D01*
X252369Y169617D01*
X252532Y169580D01*
X252689Y169554D01*
X252762Y169544D01*
X252830Y169538D01*
X252888Y169533D01*
X252940D01*
X252982Y169528D01*
X253045D01*
X253207Y169533D01*
X253359Y169544D01*
X253490Y169565D01*
X253548Y169575D01*
X253606Y169580D01*
X253653Y169591D01*
X253695Y169601D01*
X253731Y169612D01*
X253763Y169622D01*
X253789Y169627D01*
X253805Y169633D01*
X253815Y169638D01*
X253820D01*
X253936Y169680D01*
X254035Y169727D01*
X254124Y169774D01*
X254198Y169821D01*
X254255Y169869D01*
X254297Y169900D01*
X254324Y169921D01*
X254334Y169931D01*
X254381Y169984D01*
X254423Y170047D01*
X254455Y170104D01*
X254486Y170162D01*
X254507Y170214D01*
X254523Y170256D01*
X254533Y170282D01*
X254538Y170288D01*
Y170293D01*
X254565Y170382D01*
X254580Y170487D01*
X254596Y170592D01*
X254601Y170691D01*
X254607Y170780D01*
X254612Y170817D01*
Y170848D01*
Y170880D01*
Y170901D01*
Y170911D01*
Y170916D01*
Y171776D01*
D02*
G37*
%LPD*%
D12*
X-7087Y149211D02*
G03*
X-7087Y149211I-394J0D01*
G01*
X7876Y-134254D02*
G03*
X7876Y-134254I-394J0D01*
G01*
D13*
X295797Y-99660D02*
X296781D01*
X295797D02*
Y-99267D01*
X299340Y-99660D02*
Y-99267D01*
X301899Y-99660D02*
X303080D01*
Y-98479D01*
Y-96904D02*
Y-95723D01*
X301899D02*
X303080D01*
X298356Y-99660D02*
X299340D01*
X299537Y-95723D02*
X300718D01*
X299537D02*
Y-94542D01*
X298356Y-92180D02*
X299537D01*
Y-93361D02*
Y-92180D01*
X295698Y-96904D02*
Y-95723D01*
X295600Y-93361D02*
Y-92180D01*
X296781D01*
X272145Y147244D02*
X273130D01*
X272145D02*
Y147637D01*
X275689Y147244D02*
Y147637D01*
X278248Y147244D02*
X279429D01*
Y148425D01*
Y150000D02*
Y151181D01*
X278248D02*
X279429D01*
X274704Y147244D02*
X275689D01*
X275886Y151181D02*
X277067D01*
X275886D02*
Y152362D01*
X274704Y154724D02*
X275886D01*
Y153543D02*
Y154724D01*
X272047Y150000D02*
Y151181D01*
X271949Y153543D02*
Y154724D01*
X273130D01*
X263287Y161220D02*
X264271D01*
X263287D02*
Y161614D01*
X266830Y161220D02*
Y161614D01*
X269389Y161220D02*
X270570D01*
Y162401D01*
Y163976D02*
Y165157D01*
X269389D02*
X270570D01*
X265846Y161220D02*
X266830D01*
X267027Y165157D02*
X268208D01*
X267027D02*
Y166338D01*
X265846Y168701D02*
X267027D01*
Y167519D02*
Y168701D01*
X263189Y163976D02*
Y165157D01*
X263090Y167519D02*
Y168701D01*
X264271D01*
X283957Y161220D02*
Y162401D01*
Y161220D02*
X285138D01*
X287500Y161319D02*
X288681D01*
X283957Y165157D02*
X285138D01*
X283957Y163976D02*
Y165157D01*
X286319D02*
X287500D01*
Y166338D01*
X291437Y163976D02*
Y164960D01*
X287500Y167519D02*
Y168701D01*
X288681D01*
X290256D02*
X291437D01*
Y167519D02*
Y168701D01*
X291044Y164960D02*
X291437D01*
X291044Y161417D02*
X291437D01*
Y162401D01*
D14*
X-297039Y-37705D02*
Y-33768D01*
Y-37705D02*
X-293102D01*
X-273425Y-37303D02*
Y-33366D01*
X-277362Y-37303D02*
X-273425D01*
X-297039Y33161D02*
Y37098D01*
X-293102D01*
X-273425Y33563D02*
Y37500D01*
X-277362D02*
X-273425D01*
M02*
