G04*
G04 #@! TF.GenerationSoftware,Altium Limited,Altium Designer,20.0.13 (296)*
G04*
G04 Layer_Color=128*
%FSLAX24Y24*%
%MOIN*%
G70*
G01*
G75*
%ADD14R,0.0236X0.0217*%
G04:AMPARAMS|DCode=20|XSize=19.7mil|YSize=23.6mil|CornerRadius=0mil|HoleSize=0mil|Usage=FLASHONLY|Rotation=135.000|XOffset=0mil|YOffset=0mil|HoleType=Round|Shape=Rectangle|*
%AMROTATEDRECTD20*
4,1,4,0.0153,0.0014,-0.0014,-0.0153,-0.0153,-0.0014,0.0014,0.0153,0.0153,0.0014,0.0*
%
%ADD20ROTATEDRECTD20*%

G04:AMPARAMS|DCode=22|XSize=19.7mil|YSize=23.6mil|CornerRadius=0mil|HoleSize=0mil|Usage=FLASHONLY|Rotation=45.000|XOffset=0mil|YOffset=0mil|HoleType=Round|Shape=Rectangle|*
%AMROTATEDRECTD22*
4,1,4,0.0014,-0.0153,-0.0153,0.0014,-0.0014,0.0153,0.0153,-0.0014,0.0014,-0.0153,0.0*
%
%ADD22ROTATEDRECTD22*%

%ADD78R,0.0236X0.0197*%
G04:AMPARAMS|DCode=79|XSize=11.8mil|YSize=21.7mil|CornerRadius=3mil|HoleSize=0mil|Usage=FLASHONLY|Rotation=270.000|XOffset=0mil|YOffset=0mil|HoleType=Round|Shape=RoundedRectangle|*
%AMROUNDEDRECTD79*
21,1,0.0118,0.0157,0,0,270.0*
21,1,0.0059,0.0217,0,0,270.0*
1,1,0.0059,-0.0079,-0.0030*
1,1,0.0059,-0.0079,0.0030*
1,1,0.0059,0.0079,0.0030*
1,1,0.0059,0.0079,-0.0030*
%
%ADD79ROUNDEDRECTD79*%
%ADD82R,0.0402X0.0862*%
%ADD83R,0.1500X0.0500*%
%ADD84R,0.0295X0.0315*%
G04:AMPARAMS|DCode=85|XSize=31.5mil|YSize=29.5mil|CornerRadius=0mil|HoleSize=0mil|Usage=FLASHONLY|Rotation=225.000|XOffset=0mil|YOffset=0mil|HoleType=Round|Shape=Rectangle|*
%AMROTATEDRECTD85*
4,1,4,0.0007,0.0216,0.0216,0.0007,-0.0007,-0.0216,-0.0216,-0.0007,0.0007,0.0216,0.0*
%
%ADD85ROTATEDRECTD85*%

G04:AMPARAMS|DCode=86|XSize=31.5mil|YSize=29.5mil|CornerRadius=0mil|HoleSize=0mil|Usage=FLASHONLY|Rotation=135.000|XOffset=0mil|YOffset=0mil|HoleType=Round|Shape=Rectangle|*
%AMROTATEDRECTD86*
4,1,4,0.0216,-0.0007,0.0007,-0.0216,-0.0216,0.0007,-0.0007,0.0216,0.0216,-0.0007,0.0*
%
%ADD86ROTATEDRECTD86*%

%ADD87R,0.0315X0.0295*%
G04:AMPARAMS|DCode=99|XSize=59.1mil|YSize=29.5mil|CornerRadius=6.4mil|HoleSize=0mil|Usage=FLASHONLY|Rotation=270.000|XOffset=0mil|YOffset=0mil|HoleType=Round|Shape=RoundedRectangle|*
%AMROUNDEDRECTD99*
21,1,0.0591,0.0167,0,0,270.0*
21,1,0.0463,0.0295,0,0,270.0*
1,1,0.0128,-0.0084,-0.0231*
1,1,0.0128,-0.0084,0.0231*
1,1,0.0128,0.0084,0.0231*
1,1,0.0128,0.0084,-0.0231*
%
%ADD99ROUNDEDRECTD99*%
D14*
X36130Y31172D02*
D03*
X35736D02*
D03*
X36642Y31172D02*
D03*
X37035D02*
D03*
X38138Y28574D02*
D03*
X37744D02*
D03*
X38650D02*
D03*
X39043D02*
D03*
X47783Y34558D02*
D03*
X48177D02*
D03*
X48728Y34204D02*
D03*
X48335D02*
D03*
X47744Y31645D02*
D03*
X47350D02*
D03*
X47390Y34204D02*
D03*
X47783D02*
D03*
X48571Y32038D02*
D03*
X48177D02*
D03*
X39043Y28220D02*
D03*
X38650D02*
D03*
X37744D02*
D03*
X38138D02*
D03*
X37035Y31527D02*
D03*
X36642D02*
D03*
X35736Y31527D02*
D03*
X36130D02*
D03*
X39043Y27865D02*
D03*
X38650D02*
D03*
X37744D02*
D03*
X38138D02*
D03*
X37035Y31920D02*
D03*
X36642D02*
D03*
X35736D02*
D03*
X36130D02*
D03*
X47114Y31212D02*
D03*
X47508D02*
D03*
D20*
X23865Y53907D02*
D03*
X24143Y54186D02*
D03*
X24694Y22847D02*
D03*
X24416Y22569D02*
D03*
X54894Y24875D02*
D03*
X54616Y24597D02*
D03*
X54022Y55876D02*
D03*
X54301Y56154D02*
D03*
X54025Y56430D02*
D03*
X53747Y56151D02*
D03*
X54337Y24891D02*
D03*
X54616Y25170D02*
D03*
X24692Y22293D02*
D03*
X24970Y22571D02*
D03*
X24419Y53910D02*
D03*
X24140Y53632D02*
D03*
D22*
X22883Y54025D02*
D03*
X22605Y54304D02*
D03*
X24852Y23868D02*
D03*
X24573Y24146D02*
D03*
X55833Y24697D02*
D03*
X56112Y24419D02*
D03*
X53865Y54855D02*
D03*
X54143Y54576D02*
D03*
X53868Y54301D02*
D03*
X53589Y54579D02*
D03*
X24849Y24416D02*
D03*
X25127Y24138D02*
D03*
X22329Y53989D02*
D03*
X22608Y53710D02*
D03*
X56387Y24695D02*
D03*
X56109Y24973D02*
D03*
D78*
X40224Y40779D02*
D03*
X39831D02*
D03*
X41051Y40346D02*
D03*
X40657D02*
D03*
X38650Y27511D02*
D03*
X39043D02*
D03*
X40657Y40700D02*
D03*
X41051D02*
D03*
X39831Y41133D02*
D03*
X40224D02*
D03*
X36130Y32275D02*
D03*
X35736D02*
D03*
X36642D02*
D03*
X37035D02*
D03*
X38138Y27511D02*
D03*
X37744D02*
D03*
D79*
X47860Y32582D02*
D03*
Y32779D02*
D03*
Y32975D02*
D03*
Y33172D02*
D03*
X48565Y32582D02*
D03*
Y32779D02*
D03*
Y32975D02*
D03*
Y33172D02*
D03*
D82*
X26870Y48307D02*
D03*
Y49461D02*
D03*
X30870Y48307D02*
D03*
X27870D02*
D03*
X28870Y48307D02*
D03*
X23870Y48307D02*
D03*
X24870D02*
D03*
X30870Y49461D02*
D03*
X27870D02*
D03*
X28870D02*
D03*
X23870D02*
D03*
X24870D02*
D03*
X29870Y48307D02*
D03*
X25870D02*
D03*
X29870Y49461D02*
D03*
X25870D02*
D03*
X31870D02*
D03*
Y48307D02*
D03*
X35870Y49461D02*
D03*
X39870D02*
D03*
X35870Y48307D02*
D03*
X39870D02*
D03*
X34870Y49461D02*
D03*
X33870D02*
D03*
X38870D02*
D03*
X37870D02*
D03*
X40870D02*
D03*
X34870Y48307D02*
D03*
X33870D02*
D03*
X38870Y48307D02*
D03*
X37870Y48307D02*
D03*
X40870D02*
D03*
X36870Y49461D02*
D03*
Y48307D02*
D03*
X36870Y29307D02*
D03*
Y30461D02*
D03*
X38870Y29307D02*
D03*
X37870D02*
D03*
X34870D02*
D03*
X33870D02*
D03*
X38870Y30461D02*
D03*
X37870D02*
D03*
X34870D02*
D03*
X33870D02*
D03*
X35870Y29307D02*
D03*
X35870Y30461D02*
D03*
X51470Y48307D02*
D03*
X45470D02*
D03*
X51470Y49461D02*
D03*
X45470D02*
D03*
X50470Y48307D02*
D03*
X49470Y48307D02*
D03*
X47470D02*
D03*
X46470D02*
D03*
X43470D02*
D03*
X42470D02*
D03*
X50470Y49461D02*
D03*
X49470D02*
D03*
X47470D02*
D03*
X46470D02*
D03*
X43470D02*
D03*
X42470D02*
D03*
X48470Y48307D02*
D03*
X44470Y48307D02*
D03*
X48470Y49461D02*
D03*
X44470D02*
D03*
X45870Y29307D02*
D03*
X41870D02*
D03*
X45870Y30461D02*
D03*
X41870D02*
D03*
X46870Y29307D02*
D03*
X47870D02*
D03*
X42870D02*
D03*
X43870D02*
D03*
X40870D02*
D03*
X46870Y30461D02*
D03*
X47870D02*
D03*
X42870Y30461D02*
D03*
X43870Y30461D02*
D03*
X40870D02*
D03*
X44870Y29307D02*
D03*
Y30461D02*
D03*
D83*
X34195Y40884D02*
D03*
X32445D02*
D03*
X34195Y39884D02*
D03*
X32445D02*
D03*
X34195Y38884D02*
D03*
X32445D02*
D03*
D84*
X47872Y31212D02*
D03*
X48404D02*
D03*
X41199Y41133D02*
D03*
X40667D02*
D03*
X47242Y32078D02*
D03*
X47774D02*
D03*
X48352Y33771D02*
D03*
X47821D02*
D03*
D85*
X53068Y56833D02*
D03*
X53444Y56457D02*
D03*
X25155Y22187D02*
D03*
X25530Y21811D02*
D03*
D86*
X56611Y25040D02*
D03*
X56987Y25415D02*
D03*
X22184Y53572D02*
D03*
X21808Y53196D02*
D03*
D87*
X49181Y32934D02*
D03*
Y32403D02*
D03*
X47232Y32481D02*
D03*
Y33013D02*
D03*
D99*
X48213Y32877D02*
D03*
M02*
