G04 ================== begin FILE IDENTIFICATION RECORD ==================*
G04 Layout Name:  MCU035_BOOSTXL-AoA_PCB.brd*
G04 Film Name:    MCU035_BOOSTXL-AoA_Layer3*
G04 File Format:  Gerber RS274X*
G04 File Origin:  Cadence Allegro 17.2-S032*
G04 Origin Date:  Fri Mar 23 08:36:47 2018*
G04 *
G04 Layer:  BOARD GEOMETRY/DESIGN_OUTLINE*
G04 Layer:  BOARD GEOMETRY/CUTOUT*
G04 Layer:  VIA CLASS/LAYER3*
G04 Layer:  PIN/LAYER3*
G04 Layer:  ETCH/LAYER3*
G04 Layer:  DRAWING FORMAT/ANTENNA_GROUND*
G04 *
G04 Offset:    (0.000 0.000)*
G04 Mirror:    No*
G04 Mode:      Positive*
G04 Rotation:  0*
G04 FullContactRelief:  No*
G04 UndefLineWidth:     0.000*
G04 ================== end FILE IDENTIFICATION RECORD ====================*
%FSLAX25Y25*MOMM*%
%IR0*IPPOS*OFA0.00000B0.00000*MIA0B0*SFA1.00000B1.00000*%
%ADD11C,1.65*%
%ADD10C,.5*%
G75*
%LPD*%
G75*
G36*
G01X3501000Y5702900D02*
X2207000Y6996900D01*
Y7124200D01*
X1945400Y7385800D01*
X884700Y6325100D01*
X913000Y6296800D01*
X1945400Y7329200D01*
X2157500Y7117100D01*
Y6975700D01*
X3430300Y5702900D01*
X3310100Y5582700D01*
X3345400Y5547300D01*
X3501000Y5702900D01*
G37*
G36*
G01X3684800Y5886700D02*
X2390800Y7180700D01*
X2263600D01*
X2001900Y7442400D01*
X3062600Y8503000D01*
X3090900Y8474700D01*
X2058500Y7442400D01*
X2270600Y7230200D01*
X2412100D01*
X3684800Y5957400D01*
X3805100Y6077600D01*
X3840400Y6042300D01*
X3684800Y5886700D01*
G37*
G36*
G01X5820300Y8022200D02*
X5785000Y8057500D01*
X5905200Y8177700D01*
X4632400Y9450500D01*
Y9592000D01*
X4420200Y9804100D01*
X3387900Y8771700D01*
X3359600Y8800000D01*
X4420200Y9860700D01*
X4681900Y9599000D01*
Y9471700D01*
X5975900Y8177700D01*
X5820300Y8022200D01*
G37*
G36*
G01X6159700Y8361600D02*
X4865700Y9655600D01*
X4738400D01*
X4476800Y9917200D01*
X5537500Y10977900D01*
X5565800Y10949600D01*
X4533400Y9917200D01*
X4745500Y9705100D01*
X4886900D01*
X6159700Y8432300D01*
X6279900Y8552500D01*
X6315300Y8517200D01*
X6159700Y8361600D01*
G37*
G36*
G01X8295200Y10497100D02*
X8259800Y10532400D01*
X8380000Y10652600D01*
X7107200Y11925400D01*
Y12066800D01*
X6895100Y12279000D01*
X5862700Y11246600D01*
X5834500Y11274900D01*
X6895100Y12335500D01*
X7156700Y12073900D01*
Y11946600D01*
X8450700Y10652600D01*
X8295200Y10497100D01*
G37*
G36*
G01X8634600Y10836500D02*
X7340600Y12130500D01*
X7213300D01*
X6951700Y12392100D01*
X8012300Y13452800D01*
X8040600Y13424500D01*
X7008300Y12392100D01*
X7220400Y12180000D01*
X7361800D01*
X8634600Y10907200D01*
X8754800Y11027400D01*
X8790200Y10992000D01*
X8634600Y10836500D01*
G37*
G36*
G01X11858400Y10834600D02*
X13152400Y12128600D01*
X13279700D01*
X13541300Y12390300D01*
X12480600Y13450900D01*
X12452400Y13422600D01*
X13484700Y12390300D01*
X13272600Y12178100D01*
X13131200D01*
X11858400Y10905300D01*
X11738200Y11025500D01*
X11702800Y10990200D01*
X11858400Y10834600D01*
G37*
G36*
G01X12042200Y10650800D02*
X13336200Y11944800D01*
Y12072100D01*
X13597900Y12333700D01*
X14658500Y11273000D01*
X14630300Y11244700D01*
X13597900Y12277100D01*
X13385700Y12065000D01*
Y11923600D01*
X12113000Y10650800D01*
X12233200Y10530600D01*
X12197800Y10495200D01*
X12042200Y10650800D01*
G37*
G36*
G01X14177700Y8515300D02*
X14213100Y8550700D01*
X14333300Y8430500D01*
X15606100Y9703300D01*
X15747500D01*
X15959600Y9915400D01*
X14927200Y10947800D01*
X14955500Y10976000D01*
X16016200Y9915400D01*
X15754600Y9653800D01*
X15627300D01*
X14333300Y8359800D01*
X14177700Y8515300D01*
G37*
G36*
G01X14517100Y8175900D02*
X15811100Y9469900D01*
Y9597200D01*
X16072800Y9858800D01*
X17133400Y8798200D01*
X17105100Y8769900D01*
X16072800Y9802200D01*
X15860600Y9590100D01*
Y9448700D01*
X14587800Y8175900D01*
X14708000Y8055700D01*
X14672700Y8020300D01*
X14517100Y8175900D01*
G37*
G36*
G01X16652600Y6040400D02*
X16687900Y6075800D01*
X16808100Y5955600D01*
X18080900Y7228400D01*
X18222400D01*
X18434500Y7440500D01*
X17402100Y8472900D01*
X17430400Y8501200D01*
X18491100Y7440500D01*
X18229400Y7178900D01*
X18102100D01*
X16808100Y5884900D01*
X16652600Y6040400D01*
G37*
G36*
G01X16992000Y5701000D02*
X18286000Y6995000D01*
Y7122300D01*
X18547600Y7383900D01*
X19608300Y6323300D01*
X19580000Y6295000D01*
X18547600Y7327400D01*
X18335500Y7115200D01*
Y6973800D01*
X17062700Y5701000D01*
X17182900Y5580800D01*
X17147600Y5545500D01*
X16992000Y5701000D01*
G37*
G54D10*
X2130000Y6785000D03*
X2300000Y6620000D03*
X2055000Y6990000D03*
X2575000Y4105000D03*
X2480000Y6440000D03*
X2635000Y6285000D03*
X2395000Y7330000D03*
X2625000Y7235000D03*
X3085000Y3650000D03*
X2945000Y3790000D03*
X2820000Y4345000D03*
X3030000Y4545000D03*
X3195000Y4725000D03*
X2795000Y6125000D03*
X2960000Y5960000D03*
X3165000Y5760000D03*
X3120000Y6740000D03*
X2935000Y6920000D03*
X2790000Y7065000D03*
X3500000Y3220000D03*
X3365000Y3365000D03*
X3225000Y3495000D03*
X3540000Y5065000D03*
X3380000Y4900000D03*
X3345000Y5580000D03*
X3505000Y5405000D03*
X3460000Y6400000D03*
X3290000Y6570000D03*
X3900000Y2765000D03*
X3755000Y2940000D03*
X3625000Y3085000D03*
X3645000Y3625000D03*
X3635000Y4150000D03*
X3650000Y4620000D03*
X3710000Y5220000D03*
X3860000Y5375000D03*
X3990000Y5870000D03*
X3805000Y6040000D03*
X3650000Y6215000D03*
X4240000Y2595000D03*
X4045000Y2610000D03*
X4270000Y3045000D03*
X4260000Y3645000D03*
X4245000Y4160000D03*
X4250000Y4760000D03*
X4380000Y5385000D03*
X4140000D03*
X4375000Y5660000D03*
X4130000Y5650000D03*
X4310000Y5815000D03*
X4470000Y2590000D03*
X4725000Y2585000D03*
X4625000Y5380000D03*
X4620000Y5660000D03*
X4470000Y5995000D03*
X4625000Y6140000D03*
X4795000Y6305000D03*
X4595000Y9265000D03*
X4765000Y9095000D03*
X4530000Y9515000D03*
X4980000Y2585000D03*
X5260000Y2590000D03*
X5115000Y3075000D03*
X5090000Y3615000D03*
X5080000Y4155000D03*
X5060000Y4755000D03*
X5115000Y5380000D03*
X4865000Y5375000D03*
X5110000Y5670000D03*
X4860000Y5655000D03*
X5110000Y6015000D03*
X4965000Y6470000D03*
X5115000Y6625000D03*
X5260000Y6785000D03*
X4935000Y8925000D03*
X5105000Y8760000D03*
X4880000Y9825000D03*
X5080000Y9735000D03*
X5260000Y9555000D03*
X5550000Y2590000D03*
X5610000Y5365000D03*
X5365000Y5370000D03*
X5660000Y5680000D03*
X5365000Y5685000D03*
X5540000Y6235000D03*
X5375000Y6385000D03*
X5410000Y6940000D03*
X5350000Y6625000D03*
X5565000Y7095000D03*
X5480000Y8385000D03*
X5300000Y8570000D03*
X5625000Y9180000D03*
X5445000Y9370000D03*
X5820000Y2580000D03*
X5985000Y3075000D03*
X5975000Y3585000D03*
X5960000Y4160000D03*
X5950000Y4765000D03*
X5870000Y5365000D03*
X5940000Y5690000D03*
X5895000Y5980000D03*
X5705000Y6080000D03*
X5755000Y6485000D03*
X5900000Y6335000D03*
X5770000Y6810000D03*
X5710000Y6675000D03*
X6045000Y7115000D03*
X5710000Y7235000D03*
X5910000Y6970000D03*
X5980000Y7515000D03*
X5845000Y7380000D03*
X5820000Y8055000D03*
X5970000Y7895000D03*
X5680000Y8205000D03*
X5820000Y8995000D03*
X5975000Y8835000D03*
X6100000Y2580000D03*
X6390000D03*
X6455000Y5495000D03*
X6340000Y5385000D03*
X6125000Y5370000D03*
X6465000Y6010000D03*
X6310000Y5860000D03*
X6160000Y5725000D03*
Y5990000D03*
X6410000Y6445000D03*
X6290000Y6320000D03*
X6095000Y6260000D03*
X6205000Y6775000D03*
X6170000Y7235000D03*
X6305000Y7370000D03*
X6420000Y7485000D03*
X6260000Y7780000D03*
X6110000Y7640000D03*
X6290000Y8525000D03*
X6450000Y8370000D03*
X6130000Y8675000D03*
X6670000Y2580000D03*
X6575000Y5625000D03*
X6710000Y5760000D03*
X6840000Y5900000D03*
X6875000Y6415000D03*
X6760000Y6280000D03*
X6620000Y6150000D03*
X6675000Y6685000D03*
X6540000Y6570000D03*
X6910000Y6910000D03*
X6800000Y6800000D03*
X6635000Y7190000D03*
X6555000Y7620000D03*
X6870000Y7690000D03*
X6520000Y8045000D03*
X6585000Y7830000D03*
X6745000Y7865000D03*
X6725000Y8050000D03*
X6690000Y8215000D03*
X6860000Y8385000D03*
X6980000Y2580000D03*
X7280000Y2590000D03*
X7085000Y3085000D03*
X7070000Y3580000D03*
X7050000Y4140000D03*
X7035000Y4775000D03*
X7030000Y5395000D03*
X6990000Y6040000D03*
X7110000Y6170000D03*
X7230000Y6290000D03*
X7100000Y6690000D03*
X6980000Y6565000D03*
X7330000Y6930000D03*
X7220000Y6820000D03*
X7040000Y7040000D03*
X7300000Y7290000D03*
X7170000Y7160000D03*
X7185000Y7430000D03*
X7015000Y7530000D03*
X7085000Y8160000D03*
X7100000Y7985000D03*
X7215000Y7855000D03*
X7315000Y8440000D03*
X7020000Y8545000D03*
X7175000Y8295000D03*
X7180000Y8705000D03*
X7330000Y8855000D03*
X7085000Y11730000D03*
X7245000Y11575000D03*
X7005000Y11940000D03*
X7530000Y2580000D03*
X7470000Y6480000D03*
X7340000Y6420000D03*
X7680000Y6480000D03*
X7420000Y6720000D03*
X7660000D03*
X7560000Y7170000D03*
X7450000Y7050000D03*
X7740000Y7170000D03*
X7670000Y7420000D03*
X7370000Y7765000D03*
X7590000Y7750000D03*
X7600000Y8130000D03*
X7440000Y8565000D03*
X7580000Y8710000D03*
X7710000Y8835000D03*
X7480000Y9010000D03*
X7660000Y9195000D03*
X7740000Y11080000D03*
X7405000Y11420000D03*
X7565000Y11250000D03*
X7355000Y12280000D03*
X7575000Y12185000D03*
X7735000Y12025000D03*
X7850000Y2580000D03*
X8110000D03*
Y2950000D03*
X7910000Y6480000D03*
X8130000D03*
X7900000Y6720000D03*
X8130000D03*
X7900000Y7170000D03*
X8080000D03*
X7870000Y7420000D03*
X8070000D03*
X7805000Y7760000D03*
X7945000Y7855000D03*
X8130000Y7850000D03*
X7840000Y8955000D03*
X7980000Y9080000D03*
X8120000Y9210000D03*
X7830000Y9365000D03*
X7995000Y9525000D03*
X8155000Y9685000D03*
X7910000Y10905000D03*
X8100000Y10715000D03*
X7895000Y11865000D03*
X8060000Y11705000D03*
X8380000Y2580000D03*
X8350000Y6480000D03*
X8550000D03*
X8330000Y6720000D03*
X8520000D03*
X8290000Y7170000D03*
X8500000Y7150000D03*
X8290000Y7410000D03*
X8560000Y7610000D03*
X8480000Y7420000D03*
X8340000Y7850000D03*
X8570000D03*
X8510000Y8140000D03*
X8520000Y8550000D03*
X8160000Y8635000D03*
X8250000Y9350000D03*
X8550000Y9110000D03*
X8390000Y9500000D03*
X8535000Y9620000D03*
X8305000Y9835000D03*
X8455000Y9995000D03*
X8295000Y10530000D03*
X8455000Y10365000D03*
X8410000Y11350000D03*
X8240000Y11520000D03*
X8630000Y2580000D03*
X8870000D03*
X8760000Y5735000D03*
X8765000Y6100000D03*
X8770000Y6490000D03*
X8780000Y6890000D03*
X8670000Y6740000D03*
X8900000Y6620000D03*
X8950000Y6850000D03*
X8690000Y7170000D03*
X8980000Y7090000D03*
X8830000Y7170000D03*
X8890000Y7000000D03*
X8955200Y7175000D03*
X8579000Y7296000D03*
X8760000Y7620000D03*
X8690000Y7440000D03*
X8950000Y7450000D03*
X8910000Y7560000D03*
X8830000Y7440000D03*
X8950000Y7725000D03*
X8770000Y7850000D03*
X8980000Y7860000D03*
X8680000Y9775000D03*
X8835000Y9925000D03*
X8625000Y10160000D03*
X8755000Y10990000D03*
X8930000Y10820000D03*
X8595000Y11165000D03*
X9160000Y2590000D03*
X9240000Y2940000D03*
X9220000Y3750000D03*
X9230000Y4530000D03*
X9235000Y5145000D03*
X9220000Y5750000D03*
X9185000Y6325000D03*
X9160200Y6500000D03*
X9375000Y6265000D03*
X9150000Y6860000D03*
X9050000Y6730000D03*
X9100000Y7296000D03*
X9240000Y7010000D03*
X9330000Y7160000D03*
X9335000Y7350000D03*
X9220000Y7540000D03*
X9160000Y7740000D03*
X9300000Y7425000D03*
X9050000Y8175000D03*
X9255000Y8120000D03*
X9230000Y8320000D03*
X9190000Y8570000D03*
X8990000Y9490000D03*
X9010000Y10110000D03*
X9055000Y10585000D03*
X9075000Y10340000D03*
X9255000Y10790000D03*
X9385000Y12660000D03*
X9450000Y2580000D03*
X9760000D03*
X9755000Y5660000D03*
X9675000Y6100000D03*
X9525000Y6325000D03*
X9450000Y6210000D03*
Y6440000D03*
X9765000Y6510000D03*
X9780000Y6325000D03*
X9810000Y6190000D03*
X9535000Y6210000D03*
X9530000Y6515000D03*
X9470000Y6910000D03*
X9730000Y6920000D03*
X9675000Y6700000D03*
X9760000D03*
X9400000Y6745000D03*
X9525000Y6625000D03*
X9540000Y7160000D03*
X9440000Y7060000D03*
X9690000Y7110000D03*
X9600000Y7450000D03*
X9440000Y7440000D03*
X9505000Y7670000D03*
X9400000Y7665000D03*
X9605000Y7670000D03*
X9660000Y8110000D03*
X9450000Y8175000D03*
X9510000Y7950000D03*
X9455000Y8050000D03*
X9430000Y8490000D03*
X9680000Y8300000D03*
X9510000Y8490000D03*
X9700000Y8575000D03*
X9777500Y8497500D03*
X9600000Y8575000D03*
X9420000Y8640000D03*
X9680000Y8880000D03*
X9430000Y8905000D03*
X9550000Y8625000D03*
X9590000Y9120000D03*
X9440000Y10970000D03*
X9690000Y10760000D03*
X9625000Y11160000D03*
X9550000Y12495000D03*
X10080000Y2580000D03*
X9880000Y6105000D03*
X9970000Y6490000D03*
Y6270000D03*
X10100000Y6300000D03*
X10080000Y6440000D03*
X10120000Y6160000D03*
X9880000Y6355000D03*
X9980000Y6720000D03*
X10130000Y6860000D03*
X10100000Y6560000D03*
X9875000Y6925000D03*
X9960000Y7140000D03*
X10000000Y6960000D03*
X10090000Y7030000D03*
Y7140000D03*
X9960000Y7440000D03*
X9940000Y7620000D03*
Y7850000D03*
Y8130000D03*
X9930000Y8390000D03*
Y8620000D03*
Y8800000D03*
X9815000Y11345000D03*
X9990000Y11520000D03*
X10175000Y11710000D03*
X10340000Y2580000D03*
X10270000Y2940000D03*
Y3710000D03*
X10500000Y5685000D03*
X10250000Y6150000D03*
X10400000Y6300000D03*
X10390000Y6160000D03*
X10420000Y6460000D03*
X10550000Y6160000D03*
X10555000Y6320000D03*
X10420000Y6870000D03*
X10410000Y6690000D03*
X10530000Y6750000D03*
X10440000Y7030000D03*
Y7150000D03*
X10570000D03*
X10260000Y7440000D03*
X10240000Y7620000D03*
X10570000Y7440000D03*
X10580000Y7630000D03*
X10250000Y8150000D03*
X10260000Y7860000D03*
X10580000Y7850000D03*
Y8120000D03*
X10240000Y8390000D03*
X10590000Y8400000D03*
X10270000Y8810000D03*
X10240000Y8620000D03*
X10600000Y8630000D03*
X10580000Y8810000D03*
X10225000Y9110000D03*
X10275000Y9630000D03*
X10235000Y10745000D03*
X10570000Y11450000D03*
X10420000Y11600000D03*
X10250000D03*
X10315000Y11725000D03*
X10650000Y2580000D03*
X10960000D03*
X11025000Y6425000D03*
X10950000Y6200000D03*
X10820000Y6455000D03*
X10640000Y6950000D03*
X10925000Y6850000D03*
X10950000Y6750000D03*
X10730000Y6760000D03*
Y6580000D03*
X10960000Y6550000D03*
X10775000Y6950000D03*
X10760000Y7090000D03*
X10910000Y7180000D03*
X10920000Y6970000D03*
X10900000Y7440000D03*
X10930000Y7680000D03*
X11025000Y7925000D03*
X10930000Y8000000D03*
X11025000Y8350000D03*
X10880000Y8330000D03*
X10750000Y8525000D03*
X10940000Y8530000D03*
X11020000Y8435000D03*
X10940000Y8690000D03*
X10750000Y9110000D03*
X11030000Y10980000D03*
X10840000Y10750000D03*
X10720000Y11300000D03*
X10865000Y11150000D03*
X10940000Y12500000D03*
X11300000Y2580000D03*
X11230000Y2930000D03*
X11240000Y3700000D03*
X11280000Y4510000D03*
X11135000Y5700000D03*
X11225000Y6100000D03*
X11150000Y5925000D03*
X11175000Y6300000D03*
X11455000Y6335000D03*
X11430000Y6790000D03*
X11340000Y6900000D03*
X11130000Y7170000D03*
X11110000Y6960000D03*
X11300000Y7020000D03*
X11400000Y7304000D03*
X11280000Y7620000D03*
X11120000Y7440000D03*
X11110000Y7680000D03*
X11225000Y7475000D03*
X11260000Y8120000D03*
X11350000Y7790000D03*
X11090000Y8010000D03*
X11425000Y8350000D03*
X11410000Y8490000D03*
X11150000Y8525000D03*
X11300000Y8620000D03*
X11100000Y8660000D03*
X11320000Y9105000D03*
X11250000Y9515000D03*
X11410000Y10055000D03*
X11390000Y10240000D03*
X11355000Y10665000D03*
X11420000Y10395000D03*
X11185000Y10835000D03*
X11110000Y12670000D03*
X11600000Y2580000D03*
X11750000Y5160000D03*
X11730000Y5800000D03*
X11760000Y6480000D03*
X11740000Y6150000D03*
X11530000Y6690000D03*
X11640000Y6590000D03*
X11730000Y6900000D03*
X11840000Y6790000D03*
X11550000Y6875000D03*
Y7150000D03*
X11660000Y7170000D03*
X11610000Y7030000D03*
X11800000Y7170000D03*
X11530000Y7530000D03*
X11650000Y7450000D03*
X11580000Y7600000D03*
X11800000Y7440000D03*
X11740000Y7640000D03*
X11550000Y7775000D03*
X11525000Y7425000D03*
X11510000Y7930000D03*
X11720000Y7890000D03*
X11780000Y9130000D03*
X11670000Y9770000D03*
X11800000Y9640000D03*
X11530000Y9900000D03*
X11755000Y10265000D03*
X11495000Y10520000D03*
X11740000Y10990000D03*
X11545000Y10810000D03*
X11890000Y2580000D03*
X12200000Y2590000D03*
X12180000Y2930000D03*
X11940000Y6460000D03*
X12150000D03*
X11990000Y6700000D03*
X12170000D03*
X11960000Y7170000D03*
X12130000D03*
X12021000Y7304000D03*
X11960000Y7440000D03*
X11920000Y7630000D03*
X12140000D03*
X12130000Y7440000D03*
X11920000Y7890000D03*
X12120000D03*
X12050000Y8410000D03*
Y9390000D03*
X12180000Y9260000D03*
X12220000Y9800000D03*
X11930000Y9520000D03*
X12070000Y9950000D03*
X11910000Y10110000D03*
X12015000Y10340000D03*
X12200000Y10530000D03*
X11880000Y11140000D03*
X12040000Y11300000D03*
X12180000Y11450000D03*
X12520000Y2590000D03*
X12370000Y6450000D03*
X12590000D03*
X12380000Y6700000D03*
Y6910000D03*
X12580000Y6700000D03*
X12320000Y7170000D03*
X12480000D03*
X12630000D03*
X12330000Y7640000D03*
X12320000Y7440000D03*
X12500000D03*
X12595000Y7640000D03*
X12345000Y7890000D03*
X12560000Y7900000D03*
X12450000Y9020000D03*
X12600000Y8870000D03*
X12640000Y9380000D03*
X12310000Y9150000D03*
X12490000Y9530000D03*
X12350000Y9670000D03*
X12395000Y10710000D03*
X12560000Y10880000D03*
X12360000Y11625000D03*
X12545000Y11810000D03*
X12800000Y2590000D03*
X13000000Y6130000D03*
X13110000Y6010000D03*
X12740000Y6370000D03*
X12870000Y6240000D03*
X13060000Y6400000D03*
X12770000Y6690000D03*
X12930000Y6550000D03*
X13010000Y6910000D03*
X12770000Y7140000D03*
X12890000Y7030000D03*
X13020000Y7280000D03*
X12720000Y7440000D03*
X12890000Y7390000D03*
X12965000Y7520000D03*
X12770000Y7875000D03*
X12895000Y7785000D03*
X13095000D03*
X13105000Y8395000D03*
X12940000Y8565000D03*
X13060000Y8960000D03*
X12755000Y8735000D03*
X12920000Y9100000D03*
X12760000Y9260000D03*
X12745000Y11070000D03*
X12915000Y11235000D03*
X13080000Y11405000D03*
X12735000Y12005000D03*
X12915000Y12190000D03*
X13140000Y2590000D03*
X13440000D03*
X13190000Y2940000D03*
Y3650000D03*
X13180000Y4400000D03*
X13170000Y4910000D03*
X13230000Y5380000D03*
X13505000Y5595000D03*
X13240000Y5890000D03*
X13370000Y5740000D03*
X13470000Y6010000D03*
X13200000Y6270000D03*
X13320000Y6170000D03*
X13480000Y6450000D03*
X13140000Y6790000D03*
X13250000Y6680000D03*
X13360000Y6570000D03*
X13420000Y6880000D03*
X13170000Y7150000D03*
X13300000Y7010000D03*
X13195000Y7515000D03*
X13430000Y7520000D03*
X13285000Y7815000D03*
X13410000Y7925000D03*
X13400000Y8085000D03*
X13265000Y8230000D03*
X13510000Y8510000D03*
X13200000Y8820000D03*
X13345000Y8680000D03*
X13415000Y11735000D03*
X13240000Y11560000D03*
X13170000Y12280000D03*
X13485000Y11950000D03*
X13750000Y2590000D03*
X13635000Y5460000D03*
X13820000Y5375000D03*
X13620000Y5870000D03*
X13785000Y5725000D03*
X13870000Y6050000D03*
X13805000Y6485000D03*
X13915000Y6370000D03*
X13625000Y6320000D03*
X13745000Y6180000D03*
X13550000Y6750000D03*
X13675000Y6615000D03*
X13800000Y7120000D03*
X13930000Y7630000D03*
X13875000Y7770000D03*
X13565000Y7660000D03*
X13830000Y8180000D03*
X13695000Y7800000D03*
X13715000Y7980000D03*
X13910000Y7910000D03*
X13665000Y8340000D03*
X14170000Y2590000D03*
X14065000Y5375000D03*
X14310000D03*
X13960000Y5650000D03*
X14205000Y5635000D03*
X14070000Y5935000D03*
X14295000Y5930000D03*
X14045000Y6265000D03*
X14195000Y6215000D03*
X14230000Y6680000D03*
X14260000Y7290000D03*
X14250000Y7770000D03*
X14150000Y7410000D03*
X14030000Y7520000D03*
X13980000Y8030000D03*
X14215000Y8515000D03*
X14025000Y8340000D03*
X14500000Y2590000D03*
X14490000Y2965000D03*
X14500000Y3675000D03*
X14505000Y4380000D03*
X14485000Y4895000D03*
X14545000Y5375000D03*
X14770000D03*
X14470000Y5635000D03*
X14725000Y5640000D03*
X14535000Y5935000D03*
X14705000Y6000000D03*
X14375000Y6210000D03*
X14520000Y6280000D03*
X14635000Y6380000D03*
X14740000Y6485000D03*
X14635000Y6895000D03*
X14740000Y6785000D03*
X14670000Y7350000D03*
X14505000Y7025000D03*
X14380000Y7160000D03*
X14540000Y7480000D03*
X14390000Y7625000D03*
X14500000Y7870000D03*
X14675000Y8055000D03*
X14380000Y8695000D03*
X14560000Y8875000D03*
X14745000Y9055000D03*
X14790000Y2580000D03*
X15120000Y2590000D03*
X15000000Y5380000D03*
X14975000Y5630000D03*
X14840000Y6130000D03*
X14945000Y6260000D03*
X15050000Y6380000D03*
X15110000Y6910000D03*
X14775000Y6630000D03*
X15080000Y6570000D03*
X15075000Y6755000D03*
X14970000Y7050000D03*
X14820000Y7200000D03*
X14855000Y8220000D03*
X15040000Y8410000D03*
X14905000Y9220000D03*
X15080000Y9395000D03*
X15420000Y2585000D03*
X15245000Y5625000D03*
X15510000Y5630000D03*
X15265000Y5390000D03*
X15530000Y5385000D03*
X15520000Y6500000D03*
X15390000Y6630000D03*
X15240000Y6780000D03*
X15225000Y8595000D03*
X15415000Y8780000D03*
X15580000Y8950000D03*
X15240000Y9555000D03*
X15395000Y9710000D03*
X15690000Y2585000D03*
X15935000Y2590000D03*
X15735000Y2965000D03*
X15725000Y3650000D03*
X15730000Y4385000D03*
X15685000Y4885000D03*
X15780000Y5635000D03*
X15815000Y5380000D03*
X15940000Y6060000D03*
X15655000Y6350000D03*
X15810000Y6205000D03*
X15900000Y9270000D03*
X15740000Y9105000D03*
X15665000Y9805000D03*
X15965000Y9495000D03*
X16160000Y2595000D03*
X16030000Y5630000D03*
X16280000Y5620000D03*
X16050000Y5380000D03*
X16315000Y5385000D03*
X16095000Y5910000D03*
X16245000Y5765000D03*
X16615000Y2770000D03*
X16800000Y2960000D03*
X16670000Y3635000D03*
X16630000Y4390000D03*
X16825000Y5185000D03*
X16600000Y4910000D03*
X16645000Y5365000D03*
X16500000Y5865000D03*
X16690000Y6040000D03*
X16970000Y3135000D03*
X17110000Y3280000D03*
X17145000Y4865000D03*
X16980000Y5025000D03*
X16975000Y5390000D03*
X17150000Y5580000D03*
X17030000Y6395000D03*
X16845000Y6215000D03*
X17200000Y6570000D03*
X17260000Y3435000D03*
X17435000Y3595000D03*
X17580000Y3745000D03*
X17600000Y4410000D03*
X17450000Y4570000D03*
X17300000Y4720000D03*
X17490000Y5915000D03*
X17315000Y5740000D03*
X17375000Y6740000D03*
X17540000Y6905000D03*
X17730000Y3890000D03*
X17905000Y4050000D03*
X17855000Y4165000D03*
X17745000Y4275000D03*
X17670000Y6090000D03*
X18025000Y6445000D03*
X17840000Y6260000D03*
X17880000Y7250000D03*
X17710000Y7080000D03*
X18355000Y6770000D03*
X18195000Y6610000D03*
X18105000Y7335000D03*
X18435000Y6995000D03*
G54D11*
X7973000Y3657000D03*
Y3911000D03*
Y4165000D03*
Y4419000D03*
Y4673000D03*
Y4927000D03*
Y5181000D03*
Y5435000D03*
Y5689000D03*
Y5943000D03*
X8227000Y3657000D03*
Y3911000D03*
Y4165000D03*
Y4419000D03*
Y4673000D03*
Y4927000D03*
Y5181000D03*
Y5435000D03*
Y5689000D03*
Y5943000D03*
X12273000Y3657000D03*
Y3911000D03*
Y4165000D03*
Y4419000D03*
Y4673000D03*
Y4927000D03*
Y5181000D03*
Y5435000D03*
Y5689000D03*
Y5943000D03*
X12527000Y3657000D03*
Y3911000D03*
Y4165000D03*
Y4419000D03*
Y4673000D03*
Y4927000D03*
Y5181000D03*
Y5435000D03*
Y5689000D03*
Y5943000D03*
M02*
