G04*
G04 #@! TF.GenerationSoftware,Altium Limited,Altium Designer,25.0.2 (28)*
G04*
G04 Layer_Color=65535*
%FSLAX24Y24*%
%MOIN*%
G70*
G04*
G04 #@! TF.SameCoordinates,4B7BC283-7035-4C9F-97D5-5998C8FB6373*
G04*
G04*
G04 #@! TF.FilePolarity,Positive*
G04*
G01*
G75*
%ADD10C,0.0059*%
%ADD11C,0.0039*%
%ADD12C,0.0060*%
%ADD13C,0.0050*%
G36*
X29505Y76350D02*
X29395D01*
X28967Y77133D01*
Y76350D01*
X28863D01*
Y77346D01*
X28973D01*
X29403Y76561D01*
Y77346D01*
X29505D01*
Y76350D01*
D02*
G37*
G36*
X31904Y77348D02*
X31914Y77347D01*
X31926Y77345D01*
X31940Y77343D01*
X31954Y77338D01*
X31969Y77334D01*
X31984Y77328D01*
X32001Y77322D01*
X32016Y77314D01*
X32031Y77304D01*
X32047Y77292D01*
X32060Y77280D01*
X32073Y77265D01*
X32074Y77264D01*
X32076Y77262D01*
X32078Y77256D01*
X32083Y77250D01*
X32088Y77242D01*
X32094Y77232D01*
X32099Y77221D01*
X32106Y77209D01*
X32111Y77196D01*
X32117Y77181D01*
X32128Y77148D01*
X32132Y77131D01*
X32134Y77112D01*
X32136Y77092D01*
X32137Y77073D01*
Y77072D01*
Y77068D01*
Y77063D01*
X32136Y77056D01*
Y77047D01*
X32135Y77038D01*
X32133Y77027D01*
X32131Y77015D01*
X32125Y76986D01*
X32116Y76956D01*
X32104Y76923D01*
X32095Y76906D01*
X32086Y76890D01*
X32085Y76889D01*
X32084Y76886D01*
X32081Y76881D01*
X32076Y76875D01*
X32070Y76866D01*
X32063Y76855D01*
X32054Y76843D01*
X32043Y76829D01*
X32031Y76812D01*
X32017Y76796D01*
X32002Y76776D01*
X31984Y76756D01*
X31966Y76734D01*
X31944Y76710D01*
X31921Y76685D01*
X31896Y76658D01*
X31895Y76657D01*
X31891Y76654D01*
X31887Y76650D01*
X31882Y76643D01*
X31874Y76637D01*
X31866Y76628D01*
X31848Y76608D01*
X31827Y76587D01*
X31808Y76567D01*
X31792Y76548D01*
X31784Y76539D01*
X31779Y76533D01*
X31778Y76532D01*
X31775Y76527D01*
X31770Y76521D01*
X31764Y76512D01*
X31757Y76502D01*
X31750Y76491D01*
X31737Y76467D01*
X32139D01*
Y76350D01*
X31599D01*
Y76351D01*
Y76353D01*
Y76358D01*
Y76362D01*
X31600Y76370D01*
X31601Y76377D01*
X31602Y76386D01*
X31603Y76397D01*
X31608Y76420D01*
X31616Y76447D01*
X31627Y76477D01*
X31634Y76492D01*
X31641Y76509D01*
X31642Y76510D01*
X31643Y76513D01*
X31647Y76517D01*
X31650Y76524D01*
X31655Y76533D01*
X31662Y76543D01*
X31670Y76555D01*
X31679Y76568D01*
X31690Y76583D01*
X31702Y76598D01*
X31716Y76616D01*
X31731Y76634D01*
X31747Y76654D01*
X31766Y76674D01*
X31785Y76696D01*
X31807Y76717D01*
X31808Y76718D01*
X31814Y76724D01*
X31820Y76730D01*
X31830Y76740D01*
X31841Y76752D01*
X31854Y76765D01*
X31869Y76781D01*
X31884Y76797D01*
X31914Y76832D01*
X31945Y76868D01*
X31959Y76886D01*
X31971Y76902D01*
X31983Y76918D01*
X31992Y76934D01*
Y76935D01*
X31994Y76937D01*
X31996Y76941D01*
X31999Y76947D01*
X32002Y76953D01*
X32006Y76961D01*
X32014Y76981D01*
X32022Y77003D01*
X32029Y77026D01*
X32034Y77051D01*
X32036Y77076D01*
Y77077D01*
Y77079D01*
Y77084D01*
X32035Y77089D01*
Y77096D01*
X32034Y77103D01*
X32030Y77121D01*
X32025Y77140D01*
X32017Y77161D01*
X32006Y77182D01*
X31991Y77200D01*
Y77202D01*
X31989Y77203D01*
X31983Y77208D01*
X31973Y77216D01*
X31960Y77225D01*
X31944Y77233D01*
X31925Y77241D01*
X31905Y77246D01*
X31893Y77249D01*
X31874D01*
X31869Y77247D01*
X31863D01*
X31855Y77246D01*
X31839Y77242D01*
X31822Y77235D01*
X31802Y77227D01*
X31782Y77214D01*
X31773Y77205D01*
X31765Y77196D01*
Y77195D01*
X31763Y77194D01*
X31760Y77191D01*
X31758Y77186D01*
X31755Y77181D01*
X31750Y77175D01*
X31746Y77168D01*
X31743Y77159D01*
X31738Y77148D01*
X31734Y77137D01*
X31731Y77125D01*
X31726Y77112D01*
X31722Y77082D01*
X31720Y77049D01*
X31617Y77062D01*
Y77064D01*
X31618Y77068D01*
Y77075D01*
X31619Y77085D01*
X31622Y77097D01*
X31624Y77111D01*
X31627Y77125D01*
X31631Y77141D01*
X31641Y77176D01*
X31648Y77194D01*
X31655Y77213D01*
X31664Y77229D01*
X31674Y77246D01*
X31685Y77262D01*
X31697Y77276D01*
X31698Y77277D01*
X31700Y77279D01*
X31705Y77282D01*
X31710Y77288D01*
X31717Y77293D01*
X31725Y77299D01*
X31735Y77305D01*
X31747Y77313D01*
X31759Y77320D01*
X31773Y77326D01*
X31789Y77332D01*
X31805Y77338D01*
X31823Y77343D01*
X31842Y77346D01*
X31862Y77348D01*
X31883Y77349D01*
X31895D01*
X31904Y77348D01*
D02*
G37*
G36*
X31353Y76350D02*
X31253D01*
Y77128D01*
X31252Y77126D01*
X31247Y77121D01*
X31239Y77113D01*
X31228Y77102D01*
X31215Y77090D01*
X31199Y77076D01*
X31180Y77061D01*
X31159Y77044D01*
X31158D01*
X31157Y77042D01*
X31154Y77040D01*
X31149Y77038D01*
X31138Y77030D01*
X31124Y77020D01*
X31108Y77010D01*
X31090Y76999D01*
X31072Y76990D01*
X31053Y76981D01*
Y77098D01*
X31054Y77099D01*
X31056Y77100D01*
X31061Y77102D01*
X31067Y77106D01*
X31074Y77111D01*
X31083Y77116D01*
X31102Y77129D01*
X31124Y77147D01*
X31149Y77167D01*
X31174Y77188D01*
X31199Y77214D01*
X31200Y77215D01*
X31202Y77217D01*
X31205Y77220D01*
X31208Y77226D01*
X31214Y77232D01*
X31220Y77239D01*
X31233Y77257D01*
X31248Y77277D01*
X31263Y77300D01*
X31276Y77324D01*
X31287Y77349D01*
X31353D01*
Y76350D01*
D02*
G37*
G36*
X30276Y77229D02*
X30006D01*
Y76350D01*
X29898D01*
Y77229D01*
X29629D01*
Y77346D01*
X30276D01*
Y77229D01*
D02*
G37*
G36*
X28779Y76350D02*
X28655D01*
X28560Y76652D01*
X28217D01*
X28128Y76350D01*
X28016D01*
X28329Y77346D01*
X28445D01*
X28779Y76350D01*
D02*
G37*
G36*
X30937Y76176D02*
X30289D01*
Y76245D01*
X30937D01*
Y76176D01*
D02*
G37*
G36*
X9825Y76350D02*
X9715D01*
X9287Y77133D01*
Y76350D01*
X9183D01*
Y77346D01*
X9293D01*
X9723Y76561D01*
Y77346D01*
X9825D01*
Y76350D01*
D02*
G37*
G36*
X12307D02*
X12207D01*
Y77128D01*
X12206Y77126D01*
X12201Y77121D01*
X12193Y77113D01*
X12182Y77102D01*
X12169Y77090D01*
X12152Y77076D01*
X12134Y77061D01*
X12113Y77044D01*
X12112D01*
X12111Y77042D01*
X12108Y77040D01*
X12103Y77038D01*
X12092Y77030D01*
X12078Y77020D01*
X12062Y77010D01*
X12044Y76999D01*
X12026Y76990D01*
X12007Y76981D01*
Y77098D01*
X12008Y77099D01*
X12010Y77100D01*
X12015Y77102D01*
X12021Y77106D01*
X12028Y77111D01*
X12037Y77116D01*
X12056Y77129D01*
X12078Y77147D01*
X12103Y77167D01*
X12128Y77188D01*
X12152Y77214D01*
X12154Y77215D01*
X12156Y77217D01*
X12159Y77220D01*
X12162Y77226D01*
X12168Y77232D01*
X12174Y77239D01*
X12187Y77257D01*
X12202Y77277D01*
X12217Y77300D01*
X12230Y77324D01*
X12241Y77349D01*
X12307D01*
Y76350D01*
D02*
G37*
G36*
X11673D02*
X11573D01*
Y77128D01*
X11572Y77126D01*
X11567Y77121D01*
X11559Y77113D01*
X11548Y77102D01*
X11535Y77090D01*
X11519Y77076D01*
X11500Y77061D01*
X11479Y77044D01*
X11478D01*
X11477Y77042D01*
X11474Y77040D01*
X11469Y77038D01*
X11458Y77030D01*
X11444Y77020D01*
X11428Y77010D01*
X11410Y76999D01*
X11392Y76990D01*
X11373Y76981D01*
Y77098D01*
X11374Y77099D01*
X11376Y77100D01*
X11381Y77102D01*
X11387Y77106D01*
X11394Y77111D01*
X11403Y77116D01*
X11422Y77129D01*
X11444Y77147D01*
X11469Y77167D01*
X11494Y77188D01*
X11519Y77214D01*
X11520Y77215D01*
X11522Y77217D01*
X11525Y77220D01*
X11528Y77226D01*
X11534Y77232D01*
X11540Y77239D01*
X11553Y77257D01*
X11568Y77277D01*
X11583Y77300D01*
X11596Y77324D01*
X11607Y77349D01*
X11673D01*
Y76350D01*
D02*
G37*
G36*
X10596Y77229D02*
X10326D01*
Y76350D01*
X10218D01*
Y77229D01*
X9949D01*
Y77346D01*
X10596D01*
Y77229D01*
D02*
G37*
G36*
X9099Y76350D02*
X8975D01*
X8880Y76652D01*
X8537D01*
X8448Y76350D01*
X8336D01*
X8649Y77346D01*
X8765D01*
X9099Y76350D01*
D02*
G37*
G36*
X11257Y76176D02*
X10609D01*
Y76245D01*
X11257D01*
Y76176D01*
D02*
G37*
G36*
X9825Y56670D02*
X9715D01*
X9287Y57453D01*
Y56670D01*
X9183D01*
Y57666D01*
X9293D01*
X9723Y56881D01*
Y57666D01*
X9825D01*
Y56670D01*
D02*
G37*
G36*
X11673D02*
X11573D01*
Y57448D01*
X11572Y57446D01*
X11567Y57441D01*
X11559Y57433D01*
X11548Y57422D01*
X11535Y57410D01*
X11519Y57396D01*
X11500Y57381D01*
X11479Y57364D01*
X11478D01*
X11477Y57362D01*
X11474Y57360D01*
X11469Y57358D01*
X11458Y57350D01*
X11444Y57340D01*
X11428Y57330D01*
X11410Y57319D01*
X11392Y57310D01*
X11373Y57301D01*
Y57418D01*
X11374Y57419D01*
X11376Y57420D01*
X11381Y57422D01*
X11387Y57426D01*
X11394Y57431D01*
X11403Y57436D01*
X11422Y57449D01*
X11444Y57467D01*
X11469Y57487D01*
X11494Y57508D01*
X11519Y57534D01*
X11520Y57535D01*
X11522Y57537D01*
X11525Y57540D01*
X11528Y57546D01*
X11534Y57552D01*
X11540Y57559D01*
X11553Y57577D01*
X11568Y57597D01*
X11583Y57620D01*
X11596Y57644D01*
X11607Y57669D01*
X11673D01*
Y56670D01*
D02*
G37*
G36*
X10596Y57549D02*
X10326D01*
Y56670D01*
X10218D01*
Y57549D01*
X9949D01*
Y57666D01*
X10596D01*
Y57549D01*
D02*
G37*
G36*
X9099Y56670D02*
X8975D01*
X8880Y56972D01*
X8537D01*
X8448Y56670D01*
X8336D01*
X8649Y57666D01*
X8765D01*
X9099Y56670D01*
D02*
G37*
G36*
X12207Y57668D02*
X12216D01*
X12226Y57666D01*
X12237Y57664D01*
X12249Y57660D01*
X12263Y57656D01*
X12277Y57651D01*
X12292Y57644D01*
X12308Y57635D01*
X12323Y57625D01*
X12338Y57613D01*
X12352Y57599D01*
X12367Y57583D01*
X12380Y57564D01*
X12381Y57563D01*
X12383Y57559D01*
X12387Y57551D01*
X12393Y57540D01*
X12398Y57527D01*
X12406Y57510D01*
X12414Y57490D01*
X12421Y57467D01*
X12429Y57441D01*
X12436Y57410D01*
X12443Y57377D01*
X12449Y57341D01*
X12454Y57301D01*
X12459Y57258D01*
X12461Y57211D01*
X12462Y57161D01*
Y57160D01*
Y57158D01*
Y57154D01*
Y57150D01*
Y57144D01*
Y57137D01*
X12461Y57120D01*
X12460Y57100D01*
X12459Y57076D01*
X12456Y57048D01*
X12453Y57020D01*
X12450Y56990D01*
X12445Y56959D01*
X12440Y56928D01*
X12433Y56896D01*
X12426Y56866D01*
X12416Y56836D01*
X12406Y56808D01*
X12394Y56783D01*
X12393Y56782D01*
X12391Y56777D01*
X12387Y56771D01*
X12382Y56763D01*
X12374Y56753D01*
X12366Y56742D01*
X12356Y56730D01*
X12344Y56718D01*
X12331Y56706D01*
X12316Y56694D01*
X12300Y56683D01*
X12281Y56673D01*
X12262Y56666D01*
X12241Y56659D01*
X12218Y56655D01*
X12194Y56654D01*
X12189D01*
X12183Y56655D01*
X12174Y56656D01*
X12164Y56657D01*
X12154Y56660D01*
X12140Y56664D01*
X12127Y56668D01*
X12112Y56674D01*
X12097Y56681D01*
X12081Y56691D01*
X12065Y56702D01*
X12049Y56715D01*
X12033Y56730D01*
X12018Y56748D01*
X12004Y56767D01*
X12003Y56768D01*
X12001Y56773D01*
X11997Y56779D01*
X11992Y56789D01*
X11986Y56802D01*
X11981Y56818D01*
X11973Y56837D01*
X11967Y56859D01*
X11960Y56884D01*
X11954Y56914D01*
X11947Y56946D01*
X11942Y56982D01*
X11936Y57021D01*
X11933Y57064D01*
X11931Y57111D01*
X11929Y57161D01*
Y57162D01*
Y57164D01*
Y57167D01*
Y57172D01*
Y57178D01*
Y57185D01*
X11931Y57202D01*
X11932Y57223D01*
X11933Y57247D01*
X11935Y57273D01*
X11938Y57302D01*
X11942Y57332D01*
X11946Y57363D01*
X11951Y57395D01*
X11958Y57426D01*
X11966Y57457D01*
X11974Y57487D01*
X11984Y57515D01*
X11996Y57540D01*
X11997Y57541D01*
X11999Y57546D01*
X12004Y57552D01*
X12009Y57560D01*
X12016Y57570D01*
X12025Y57581D01*
X12034Y57593D01*
X12046Y57605D01*
X12060Y57617D01*
X12075Y57629D01*
X12091Y57640D01*
X12109Y57649D01*
X12128Y57657D01*
X12149Y57664D01*
X12172Y57668D01*
X12196Y57669D01*
X12202D01*
X12207Y57668D01*
D02*
G37*
G36*
X11257Y56496D02*
X10609D01*
Y56565D01*
X11257D01*
Y56496D01*
D02*
G37*
G36*
X9825Y36980D02*
X9715D01*
X9287Y37763D01*
Y36980D01*
X9183D01*
Y37976D01*
X9293D01*
X9723Y37191D01*
Y37976D01*
X9825D01*
Y36980D01*
D02*
G37*
G36*
X11566Y37978D02*
X11572D01*
X11580Y37977D01*
X11599Y37973D01*
X11621Y37967D01*
X11644Y37958D01*
X11669Y37945D01*
X11682Y37938D01*
X11695Y37929D01*
X11696Y37928D01*
X11698Y37927D01*
X11701Y37923D01*
X11705Y37919D01*
X11711Y37915D01*
X11717Y37908D01*
X11725Y37900D01*
X11733Y37892D01*
X11740Y37882D01*
X11749Y37871D01*
X11758Y37858D01*
X11766Y37845D01*
X11774Y37830D01*
X11783Y37815D01*
X11791Y37798D01*
X11797Y37780D01*
Y37779D01*
X11798Y37776D01*
X11801Y37770D01*
X11803Y37763D01*
X11806Y37752D01*
X11808Y37740D01*
X11811Y37726D01*
X11816Y37709D01*
X11819Y37689D01*
X11822Y37669D01*
X11825Y37646D01*
X11828Y37621D01*
X11830Y37593D01*
X11832Y37564D01*
X11833Y37533D01*
Y37499D01*
Y37498D01*
Y37497D01*
Y37494D01*
Y37491D01*
Y37480D01*
X11832Y37465D01*
Y37448D01*
X11831Y37428D01*
X11830Y37406D01*
X11829Y37382D01*
X11827Y37357D01*
X11823Y37331D01*
X11817Y37279D01*
X11813Y37252D01*
X11807Y37226D01*
X11801Y37202D01*
X11794Y37180D01*
Y37179D01*
X11792Y37176D01*
X11790Y37169D01*
X11787Y37162D01*
X11783Y37153D01*
X11779Y37142D01*
X11773Y37130D01*
X11767Y37118D01*
X11751Y37091D01*
X11734Y37063D01*
X11713Y37037D01*
X11701Y37026D01*
X11689Y37015D01*
X11688D01*
X11686Y37013D01*
X11682Y37011D01*
X11677Y37007D01*
X11672Y37003D01*
X11664Y36999D01*
X11655Y36994D01*
X11645Y36990D01*
X11623Y36980D01*
X11598Y36971D01*
X11570Y36966D01*
X11556Y36965D01*
X11540Y36964D01*
X11532D01*
X11525Y36965D01*
X11517Y36966D01*
X11508Y36967D01*
X11486Y36971D01*
X11462Y36979D01*
X11449Y36985D01*
X11435Y36991D01*
X11422Y36998D01*
X11409Y37006D01*
X11397Y37016D01*
X11385Y37027D01*
X11384Y37028D01*
X11383Y37030D01*
X11380Y37034D01*
X11375Y37039D01*
X11370Y37046D01*
X11364Y37053D01*
X11359Y37063D01*
X11352Y37074D01*
X11346Y37086D01*
X11339Y37100D01*
X11334Y37115D01*
X11327Y37131D01*
X11322Y37150D01*
X11317Y37168D01*
X11314Y37189D01*
X11311Y37211D01*
X11407Y37221D01*
Y37218D01*
X11408Y37214D01*
X11410Y37206D01*
X11413Y37197D01*
X11416Y37185D01*
X11420Y37171D01*
X11426Y37157D01*
X11432Y37143D01*
X11441Y37128D01*
X11451Y37113D01*
X11462Y37100D01*
X11474Y37088D01*
X11488Y37078D01*
X11504Y37071D01*
X11523Y37066D01*
X11543Y37064D01*
X11545D01*
X11551Y37065D01*
X11561Y37066D01*
X11573Y37069D01*
X11587Y37073D01*
X11602Y37078D01*
X11618Y37087D01*
X11633Y37098D01*
X11635Y37100D01*
X11640Y37105D01*
X11647Y37113D01*
X11657Y37127D01*
X11668Y37143D01*
X11675Y37153D01*
X11680Y37164D01*
X11686Y37176D01*
X11692Y37189D01*
X11698Y37204D01*
X11703Y37220D01*
Y37221D01*
X11704Y37224D01*
X11705Y37228D01*
X11708Y37235D01*
X11710Y37244D01*
X11712Y37253D01*
X11715Y37265D01*
X11717Y37277D01*
X11720Y37293D01*
X11723Y37308D01*
X11725Y37324D01*
X11727Y37343D01*
X11731Y37381D01*
X11732Y37424D01*
Y37448D01*
X11731Y37447D01*
X11728Y37444D01*
X11726Y37439D01*
X11720Y37428D01*
X11710Y37414D01*
X11698Y37399D01*
X11684Y37382D01*
X11666Y37367D01*
X11647Y37353D01*
X11646D01*
X11645Y37352D01*
X11639Y37347D01*
X11628Y37342D01*
X11615Y37335D01*
X11598Y37329D01*
X11580Y37323D01*
X11560Y37319D01*
X11539Y37318D01*
X11535D01*
X11529Y37319D01*
X11523D01*
X11514Y37320D01*
X11504Y37322D01*
X11492Y37326D01*
X11480Y37329D01*
X11467Y37333D01*
X11454Y37339D01*
X11440Y37346D01*
X11425Y37354D01*
X11410Y37364D01*
X11396Y37376D01*
X11382Y37389D01*
X11368Y37404D01*
X11367Y37405D01*
X11364Y37409D01*
X11361Y37413D01*
X11357Y37421D01*
X11351Y37429D01*
X11345Y37440D01*
X11338Y37452D01*
X11332Y37467D01*
X11325Y37483D01*
X11319Y37500D01*
X11312Y37520D01*
X11306Y37542D01*
X11302Y37565D01*
X11299Y37589D01*
X11297Y37615D01*
X11296Y37642D01*
Y37645D01*
Y37649D01*
Y37658D01*
X11297Y37669D01*
X11298Y37682D01*
X11300Y37697D01*
X11302Y37714D01*
X11305Y37732D01*
X11314Y37771D01*
X11320Y37792D01*
X11327Y37812D01*
X11336Y37833D01*
X11346Y37852D01*
X11357Y37871D01*
X11370Y37888D01*
X11371Y37889D01*
X11373Y37893D01*
X11378Y37897D01*
X11383Y37903D01*
X11391Y37909D01*
X11399Y37917D01*
X11409Y37926D01*
X11421Y37934D01*
X11433Y37942D01*
X11447Y37951D01*
X11463Y37958D01*
X11479Y37965D01*
X11496Y37970D01*
X11514Y37975D01*
X11533Y37978D01*
X11552Y37979D01*
X11560D01*
X11566Y37978D01*
D02*
G37*
G36*
X10596Y37859D02*
X10326D01*
Y36980D01*
X10218D01*
Y37859D01*
X9949D01*
Y37976D01*
X10596D01*
Y37859D01*
D02*
G37*
G36*
X9099Y36980D02*
X8975D01*
X8880Y37282D01*
X8537D01*
X8448Y36980D01*
X8336D01*
X8649Y37976D01*
X8765D01*
X9099Y36980D01*
D02*
G37*
G36*
X11257Y36806D02*
X10609D01*
Y36875D01*
X11257D01*
Y36806D01*
D02*
G37*
G36*
X10219Y1946D02*
X10109D01*
X9680Y2728D01*
Y1946D01*
X9576D01*
Y2942D01*
X9687D01*
X10116Y2157D01*
Y2942D01*
X10219D01*
Y1946D01*
D02*
G37*
G36*
X10990Y2825D02*
X10720D01*
Y1946D01*
X10612D01*
Y2825D01*
X10343D01*
Y2942D01*
X10990D01*
Y2825D01*
D02*
G37*
G36*
X9492Y1946D02*
X9369D01*
X9274Y2247D01*
X8931D01*
X8842Y1946D01*
X8729D01*
X9043Y2942D01*
X9159D01*
X9492Y1946D01*
D02*
G37*
G36*
X11975Y2944D02*
X11982Y2943D01*
X11993Y2940D01*
X12004Y2938D01*
X12016Y2936D01*
X12043Y2927D01*
X12058Y2921D01*
X12072Y2914D01*
X12086Y2905D01*
X12100Y2896D01*
X12113Y2885D01*
X12126Y2872D01*
X12128Y2870D01*
X12130Y2868D01*
X12133Y2864D01*
X12137Y2858D01*
X12142Y2852D01*
X12148Y2843D01*
X12154Y2832D01*
X12160Y2821D01*
X12167Y2808D01*
X12172Y2794D01*
X12179Y2779D01*
X12183Y2762D01*
X12188Y2745D01*
X12191Y2726D01*
X12193Y2705D01*
X12194Y2685D01*
Y2684D01*
Y2681D01*
Y2678D01*
Y2673D01*
X12193Y2666D01*
Y2660D01*
X12191Y2642D01*
X12187Y2623D01*
X12181Y2603D01*
X12173Y2582D01*
X12164Y2562D01*
X12163Y2560D01*
X12158Y2555D01*
X12152Y2545D01*
X12142Y2534D01*
X12129Y2522D01*
X12113Y2509D01*
X12095Y2497D01*
X12074Y2485D01*
X12075D01*
X12077Y2484D01*
X12081Y2481D01*
X12086Y2479D01*
X12099Y2473D01*
X12116Y2463D01*
X12134Y2450D01*
X12153Y2433D01*
X12170Y2414D01*
X12187Y2391D01*
Y2390D01*
X12189Y2387D01*
X12190Y2384D01*
X12193Y2379D01*
X12196Y2373D01*
X12200Y2366D01*
X12203Y2357D01*
X12207Y2346D01*
X12211Y2335D01*
X12214Y2323D01*
X12220Y2296D01*
X12225Y2264D01*
X12227Y2229D01*
Y2228D01*
Y2223D01*
Y2216D01*
X12226Y2207D01*
X12225Y2196D01*
X12223Y2183D01*
X12220Y2168D01*
X12217Y2152D01*
X12213Y2136D01*
X12208Y2118D01*
X12202Y2100D01*
X12194Y2081D01*
X12185Y2064D01*
X12175Y2046D01*
X12164Y2029D01*
X12149Y2012D01*
X12148Y2011D01*
X12146Y2009D01*
X12142Y2005D01*
X12135Y1999D01*
X12128Y1993D01*
X12119Y1986D01*
X12108Y1979D01*
X12097Y1971D01*
X12083Y1963D01*
X12069Y1956D01*
X12053Y1949D01*
X12036Y1943D01*
X12018Y1937D01*
X11999Y1933D01*
X11979Y1930D01*
X11958Y1929D01*
X11953D01*
X11947Y1930D01*
X11940D01*
X11930Y1932D01*
X11918Y1934D01*
X11905Y1936D01*
X11891Y1940D01*
X11876Y1945D01*
X11861Y1950D01*
X11844Y1957D01*
X11828Y1964D01*
X11813Y1974D01*
X11796Y1985D01*
X11781Y1998D01*
X11766Y2012D01*
X11765Y2014D01*
X11762Y2017D01*
X11759Y2021D01*
X11754Y2028D01*
X11748Y2037D01*
X11742Y2046D01*
X11735Y2058D01*
X11728Y2071D01*
X11721Y2087D01*
X11713Y2103D01*
X11707Y2121D01*
X11701Y2140D01*
X11696Y2161D01*
X11693Y2184D01*
X11690Y2207D01*
X11689Y2232D01*
Y2233D01*
Y2237D01*
Y2242D01*
X11690Y2249D01*
Y2257D01*
X11691Y2267D01*
X11693Y2278D01*
X11695Y2290D01*
X11699Y2316D01*
X11707Y2345D01*
X11717Y2372D01*
X11730Y2397D01*
Y2398D01*
X11732Y2400D01*
X11734Y2404D01*
X11737Y2408D01*
X11746Y2419D01*
X11759Y2432D01*
X11775Y2446D01*
X11794Y2462D01*
X11817Y2475D01*
X11842Y2485D01*
X11841D01*
X11840Y2486D01*
X11837Y2488D01*
X11832Y2490D01*
X11822Y2496D01*
X11808Y2504D01*
X11794Y2515D01*
X11779Y2529D01*
X11765Y2545D01*
X11752Y2562D01*
Y2563D01*
X11750Y2564D01*
X11749Y2568D01*
X11747Y2571D01*
X11742Y2583D01*
X11737Y2597D01*
X11732Y2616D01*
X11726Y2638D01*
X11723Y2662D01*
X11722Y2689D01*
Y2690D01*
Y2695D01*
Y2700D01*
X11723Y2708D01*
X11724Y2717D01*
X11725Y2728D01*
X11728Y2740D01*
X11731Y2755D01*
X11738Y2783D01*
X11744Y2798D01*
X11750Y2814D01*
X11758Y2829D01*
X11767Y2844D01*
X11777Y2858D01*
X11789Y2873D01*
X11790Y2874D01*
X11792Y2876D01*
X11795Y2879D01*
X11801Y2884D01*
X11807Y2889D01*
X11815Y2896D01*
X11825Y2902D01*
X11835Y2909D01*
X11847Y2915D01*
X11859Y2922D01*
X11873Y2928D01*
X11888Y2934D01*
X11903Y2938D01*
X11921Y2942D01*
X11938Y2944D01*
X11957Y2945D01*
X11967D01*
X11975Y2944D01*
D02*
G37*
G36*
X11651Y1772D02*
X11003D01*
Y1841D01*
X11651D01*
Y1772D01*
D02*
G37*
G36*
X29899Y1946D02*
X29789D01*
X29360Y2728D01*
Y1946D01*
X29256D01*
Y2942D01*
X29367D01*
X29796Y2157D01*
Y2942D01*
X29899D01*
Y1946D01*
D02*
G37*
G36*
X31904Y2833D02*
X31903Y2831D01*
X31898Y2827D01*
X31892Y2818D01*
X31884Y2805D01*
X31873Y2790D01*
X31861Y2772D01*
X31848Y2750D01*
X31833Y2725D01*
X31817Y2698D01*
X31801Y2668D01*
X31783Y2635D01*
X31765Y2599D01*
X31747Y2561D01*
X31730Y2521D01*
X31712Y2478D01*
X31695Y2433D01*
Y2432D01*
X31694Y2430D01*
X31693Y2427D01*
X31691Y2422D01*
X31690Y2416D01*
X31686Y2409D01*
X31684Y2400D01*
X31681Y2391D01*
X31674Y2369D01*
X31665Y2343D01*
X31658Y2313D01*
X31649Y2280D01*
X31639Y2244D01*
X31630Y2206D01*
X31622Y2165D01*
X31614Y2124D01*
X31606Y2080D01*
X31601Y2037D01*
X31595Y1991D01*
X31592Y1946D01*
X31491D01*
Y1947D01*
Y1951D01*
Y1959D01*
X31492Y1968D01*
Y1980D01*
X31493Y1994D01*
X31494Y2010D01*
X31496Y2029D01*
X31498Y2050D01*
X31500Y2071D01*
X31504Y2096D01*
X31507Y2121D01*
X31511Y2148D01*
X31517Y2176D01*
X31522Y2206D01*
X31529Y2237D01*
Y2239D01*
X31531Y2244D01*
X31533Y2253D01*
X31535Y2265D01*
X31540Y2280D01*
X31544Y2298D01*
X31550Y2317D01*
X31556Y2339D01*
X31563Y2362D01*
X31571Y2387D01*
X31579Y2414D01*
X31589Y2441D01*
X31610Y2498D01*
X31633Y2555D01*
X31634Y2557D01*
X31636Y2561D01*
X31639Y2569D01*
X31645Y2580D01*
X31650Y2593D01*
X31658Y2608D01*
X31665Y2625D01*
X31675Y2643D01*
X31685Y2663D01*
X31696Y2684D01*
X31720Y2726D01*
X31746Y2770D01*
X31775Y2811D01*
X31377D01*
Y2928D01*
X31904D01*
Y2833D01*
D02*
G37*
G36*
X30670Y2825D02*
X30400D01*
Y1946D01*
X30292D01*
Y2825D01*
X30023D01*
Y2942D01*
X30670D01*
Y2825D01*
D02*
G37*
G36*
X29172Y1946D02*
X29049D01*
X28954Y2247D01*
X28611D01*
X28522Y1946D01*
X28409D01*
X28723Y2942D01*
X28839D01*
X29172Y1946D01*
D02*
G37*
G36*
X31331Y1772D02*
X30683D01*
Y1841D01*
X31331D01*
Y1772D01*
D02*
G37*
G36*
X51362Y2944D02*
X51370Y2943D01*
X51379Y2942D01*
X51400Y2937D01*
X51424Y2930D01*
X51437Y2924D01*
X51451Y2919D01*
X51464Y2911D01*
X51477Y2902D01*
X51489Y2892D01*
X51501Y2881D01*
X51502Y2880D01*
X51504Y2878D01*
X51506Y2875D01*
X51511Y2869D01*
X51516Y2863D01*
X51522Y2855D01*
X51528Y2845D01*
X51535Y2834D01*
X51541Y2822D01*
X51548Y2809D01*
X51554Y2794D01*
X51560Y2778D01*
X51566Y2759D01*
X51571Y2740D01*
X51575Y2720D01*
X51578Y2698D01*
X51479Y2688D01*
Y2689D01*
X51478Y2691D01*
Y2696D01*
X51477Y2700D01*
X51473Y2713D01*
X51468Y2729D01*
X51463Y2748D01*
X51455Y2766D01*
X51446Y2782D01*
X51436Y2796D01*
Y2797D01*
X51434Y2798D01*
X51430Y2804D01*
X51421Y2811D01*
X51410Y2820D01*
X51396Y2829D01*
X51379Y2837D01*
X51361Y2842D01*
X51351Y2844D01*
X51337D01*
X51331Y2843D01*
X51326Y2842D01*
X51318Y2841D01*
X51310Y2839D01*
X51300Y2835D01*
X51290Y2831D01*
X51279Y2825D01*
X51268Y2818D01*
X51256Y2809D01*
X51244Y2798D01*
X51233Y2785D01*
X51221Y2771D01*
X51210Y2755D01*
X51200Y2735D01*
Y2734D01*
X51198Y2731D01*
X51196Y2725D01*
X51194Y2717D01*
X51189Y2708D01*
X51186Y2696D01*
X51182Y2681D01*
X51177Y2666D01*
X51174Y2648D01*
X51170Y2627D01*
X51165Y2604D01*
X51162Y2579D01*
X51159Y2552D01*
X51157Y2523D01*
X51155Y2492D01*
X51154Y2460D01*
X51154Y2460D01*
Y2458D01*
X51154Y2460D01*
X51155Y2462D01*
X51158Y2465D01*
X51161Y2469D01*
X51169Y2481D01*
X51178Y2496D01*
X51190Y2512D01*
X51206Y2528D01*
X51222Y2544D01*
X51241Y2558D01*
X51242D01*
X51243Y2559D01*
X51246Y2561D01*
X51249Y2563D01*
X51260Y2569D01*
X51275Y2575D01*
X51291Y2581D01*
X51310Y2586D01*
X51330Y2591D01*
X51352Y2592D01*
X51357D01*
X51362Y2591D01*
X51369D01*
X51376Y2590D01*
X51386Y2587D01*
X51397Y2584D01*
X51409Y2581D01*
X51422Y2576D01*
X51435Y2570D01*
X51449Y2563D01*
X51464Y2555D01*
X51478Y2545D01*
X51492Y2533D01*
X51506Y2519D01*
X51521Y2503D01*
X51522Y2502D01*
X51524Y2499D01*
X51527Y2494D01*
X51533Y2487D01*
X51538Y2478D01*
X51543Y2468D01*
X51550Y2455D01*
X51558Y2441D01*
X51564Y2426D01*
X51571Y2407D01*
X51576Y2388D01*
X51583Y2368D01*
X51587Y2345D01*
X51590Y2321D01*
X51593Y2296D01*
X51594Y2268D01*
Y2267D01*
Y2264D01*
Y2258D01*
Y2252D01*
X51593Y2243D01*
X51592Y2232D01*
X51590Y2221D01*
X51589Y2208D01*
X51585Y2181D01*
X51578Y2150D01*
X51569Y2118D01*
X51557Y2087D01*
Y2086D01*
X51555Y2084D01*
X51553Y2079D01*
X51550Y2074D01*
X51547Y2067D01*
X51542Y2059D01*
X51531Y2042D01*
X51518Y2022D01*
X51502Y2003D01*
X51484Y1984D01*
X51464Y1968D01*
X51463D01*
X51461Y1967D01*
X51458Y1964D01*
X51454Y1962D01*
X51442Y1956D01*
X51427Y1949D01*
X51408Y1941D01*
X51387Y1936D01*
X51363Y1932D01*
X51338Y1929D01*
X51333D01*
X51326Y1930D01*
X51317Y1932D01*
X51307Y1933D01*
X51294Y1935D01*
X51281Y1938D01*
X51266Y1944D01*
X51251Y1949D01*
X51234Y1957D01*
X51218Y1965D01*
X51200Y1976D01*
X51183Y1988D01*
X51166Y2004D01*
X51150Y2020D01*
X51135Y2040D01*
X51134Y2041D01*
X51131Y2045D01*
X51127Y2052D01*
X51123Y2062D01*
X51116Y2074D01*
X51110Y2089D01*
X51102Y2106D01*
X51095Y2128D01*
X51088Y2152D01*
X51080Y2180D01*
X51073Y2210D01*
X51067Y2244D01*
X51063Y2280D01*
X51058Y2321D01*
X51056Y2364D01*
X51055Y2411D01*
Y2413D01*
Y2415D01*
Y2419D01*
Y2425D01*
Y2431D01*
X51056Y2439D01*
Y2447D01*
Y2458D01*
X51057Y2481D01*
X51059Y2509D01*
X51061Y2538D01*
X51065Y2571D01*
X51069Y2604D01*
X51075Y2638D01*
X51081Y2672D01*
X51089Y2705D01*
X51099Y2738D01*
X51110Y2769D01*
X51122Y2796D01*
X51136Y2821D01*
X51137Y2822D01*
X51139Y2827D01*
X51145Y2832D01*
X51151Y2841D01*
X51159Y2850D01*
X51169Y2861D01*
X51179Y2872D01*
X51193Y2884D01*
X51208Y2895D01*
X51223Y2905D01*
X51241Y2916D01*
X51259Y2925D01*
X51279Y2934D01*
X51301Y2939D01*
X51323Y2944D01*
X51347Y2945D01*
X51355D01*
X51362Y2944D01*
D02*
G37*
G36*
X49589Y1946D02*
X49479D01*
X49050Y2728D01*
Y1946D01*
X48946D01*
Y2942D01*
X49057D01*
X49486Y2157D01*
Y2942D01*
X49589D01*
Y1946D01*
D02*
G37*
G36*
X50360Y2825D02*
X50090D01*
Y1946D01*
X49982D01*
Y2825D01*
X49713D01*
Y2942D01*
X50360D01*
Y2825D01*
D02*
G37*
G36*
X48862Y1946D02*
X48739D01*
X48644Y2247D01*
X48301D01*
X48212Y1946D01*
X48099D01*
X48413Y2942D01*
X48529D01*
X48862Y1946D01*
D02*
G37*
G36*
X51021Y1772D02*
X50373D01*
Y1841D01*
X51021D01*
Y1772D01*
D02*
G37*
G36*
X69269Y1946D02*
X69159D01*
X68730Y2728D01*
Y1946D01*
X68626D01*
Y2942D01*
X68737D01*
X69166Y2157D01*
Y2942D01*
X69269D01*
Y1946D01*
D02*
G37*
G36*
X71243Y2811D02*
X70914D01*
X70872Y2543D01*
X70873Y2544D01*
X70875Y2546D01*
X70879Y2548D01*
X70885Y2552D01*
X70891Y2557D01*
X70899Y2562D01*
X70909Y2569D01*
X70919Y2574D01*
X70941Y2586D01*
X70968Y2596D01*
X70982Y2600D01*
X70996Y2604D01*
X71011Y2605D01*
X71027Y2606D01*
X71037D01*
X71044Y2605D01*
X71053Y2604D01*
X71063Y2602D01*
X71075Y2598D01*
X71088Y2595D01*
X71101Y2591D01*
X71115Y2585D01*
X71131Y2578D01*
X71145Y2569D01*
X71160Y2559D01*
X71175Y2547D01*
X71191Y2534D01*
X71205Y2519D01*
X71206Y2517D01*
X71208Y2514D01*
X71211Y2510D01*
X71217Y2502D01*
X71222Y2493D01*
X71229Y2484D01*
X71237Y2470D01*
X71243Y2456D01*
X71251Y2441D01*
X71257Y2422D01*
X71264Y2404D01*
X71269Y2383D01*
X71275Y2360D01*
X71278Y2336D01*
X71280Y2311D01*
X71281Y2284D01*
Y2282D01*
Y2277D01*
Y2269D01*
X71280Y2259D01*
X71279Y2246D01*
X71277Y2232D01*
X71275Y2216D01*
X71272Y2197D01*
X71268Y2179D01*
X71263Y2158D01*
X71256Y2137D01*
X71250Y2116D01*
X71240Y2094D01*
X71230Y2074D01*
X71218Y2053D01*
X71205Y2033D01*
X71204Y2032D01*
X71202Y2029D01*
X71197Y2023D01*
X71191Y2017D01*
X71183Y2009D01*
X71174Y2000D01*
X71163Y1991D01*
X71151Y1982D01*
X71137Y1972D01*
X71122Y1962D01*
X71105Y1953D01*
X71087Y1946D01*
X71068Y1939D01*
X71047Y1934D01*
X71025Y1930D01*
X71002Y1929D01*
X70992D01*
X70984Y1930D01*
X70974Y1932D01*
X70964Y1934D01*
X70952Y1936D01*
X70939Y1938D01*
X70911Y1947D01*
X70897Y1953D01*
X70881Y1960D01*
X70866Y1969D01*
X70851Y1979D01*
X70837Y1990D01*
X70822Y2003D01*
X70821Y2004D01*
X70819Y2006D01*
X70816Y2010D01*
X70810Y2016D01*
X70805Y2023D01*
X70798Y2033D01*
X70792Y2043D01*
X70784Y2056D01*
X70778Y2069D01*
X70770Y2085D01*
X70763Y2101D01*
X70757Y2120D01*
X70750Y2139D01*
X70746Y2161D01*
X70741Y2183D01*
X70739Y2207D01*
X70844Y2217D01*
Y2216D01*
X70845Y2212D01*
Y2208D01*
X70846Y2202D01*
X70849Y2194D01*
X70851Y2184D01*
X70855Y2163D01*
X70863Y2140D01*
X70873Y2117D01*
X70885Y2096D01*
X70891Y2085D01*
X70899Y2076D01*
X70901Y2074D01*
X70906Y2068D01*
X70915Y2062D01*
X70928Y2053D01*
X70943Y2044D01*
X70960Y2038D01*
X70979Y2032D01*
X70999Y2030D01*
X71006D01*
X71011Y2031D01*
X71018Y2032D01*
X71025Y2033D01*
X71042Y2038D01*
X71062Y2045D01*
X71072Y2051D01*
X71082Y2057D01*
X71092Y2065D01*
X71103Y2074D01*
X71113Y2084D01*
X71123Y2094D01*
X71124Y2096D01*
X71125Y2098D01*
X71127Y2101D01*
X71132Y2106D01*
X71135Y2113D01*
X71139Y2122D01*
X71145Y2131D01*
X71149Y2141D01*
X71155Y2153D01*
X71159Y2167D01*
X71163Y2182D01*
X71168Y2198D01*
X71171Y2215D01*
X71173Y2233D01*
X71174Y2253D01*
X71175Y2274D01*
Y2275D01*
Y2278D01*
Y2284D01*
X71174Y2291D01*
Y2300D01*
X71173Y2311D01*
X71171Y2322D01*
X71169Y2334D01*
X71163Y2361D01*
X71155Y2388D01*
X71141Y2415D01*
X71134Y2427D01*
X71125Y2439D01*
X71124Y2440D01*
X71123Y2441D01*
X71120Y2444D01*
X71116Y2447D01*
X71105Y2457D01*
X71090Y2468D01*
X71073Y2479D01*
X71051Y2489D01*
X71027Y2496D01*
X71014Y2497D01*
X70999Y2498D01*
X70992D01*
X70983Y2497D01*
X70971Y2494D01*
X70958Y2491D01*
X70944Y2487D01*
X70928Y2480D01*
X70913Y2472D01*
X70911Y2470D01*
X70906Y2467D01*
X70900Y2462D01*
X70890Y2453D01*
X70880Y2443D01*
X70870Y2431D01*
X70861Y2418D01*
X70851Y2402D01*
X70757Y2416D01*
X70837Y2928D01*
X71243D01*
Y2811D01*
D02*
G37*
G36*
X70040Y2825D02*
X69770D01*
Y1946D01*
X69662D01*
Y2825D01*
X69393D01*
Y2942D01*
X70040D01*
Y2825D01*
D02*
G37*
G36*
X68542Y1946D02*
X68419D01*
X68324Y2247D01*
X67981D01*
X67892Y1946D01*
X67779D01*
X68093Y2942D01*
X68209D01*
X68542Y1946D01*
D02*
G37*
G36*
X70701Y1772D02*
X70053D01*
Y1841D01*
X70701D01*
Y1772D01*
D02*
G37*
G36*
X69229Y36980D02*
X69091D01*
X68562Y37771D01*
Y36980D01*
X68434D01*
Y37989D01*
X68571D01*
X69101Y37197D01*
Y37989D01*
X69229D01*
Y36980D01*
D02*
G37*
G36*
X71568Y37335D02*
X71704D01*
Y37222D01*
X71568D01*
Y36980D01*
X71444D01*
Y37222D01*
X71005D01*
Y37335D01*
X71466Y37989D01*
X71568D01*
Y37335D01*
D02*
G37*
G36*
X70175Y37870D02*
X69843D01*
Y36980D01*
X69709D01*
Y37870D01*
X69377D01*
Y37989D01*
X70175D01*
Y37870D01*
D02*
G37*
G36*
X68329Y36980D02*
X68177D01*
X68060Y37285D01*
X67636D01*
X67527Y36980D01*
X67386D01*
X67772Y37989D01*
X67916D01*
X68329Y36980D01*
D02*
G37*
G36*
X71004Y36700D02*
X70183D01*
Y36790D01*
X71004D01*
Y36700D01*
D02*
G37*
G36*
X70619Y57668D02*
X70628Y57667D01*
X70637Y57665D01*
X70648Y57663D01*
X70660Y57660D01*
X70687Y57652D01*
X70701Y57645D01*
X70715Y57639D01*
X70729Y57630D01*
X70742Y57620D01*
X70757Y57609D01*
X70770Y57596D01*
X70771Y57595D01*
X70773Y57593D01*
X70776Y57588D01*
X70781Y57583D01*
X70786Y57575D01*
X70792Y57566D01*
X70798Y57557D01*
X70805Y57546D01*
X70811Y57533D01*
X70818Y57518D01*
X70823Y57503D01*
X70829Y57487D01*
X70833Y57470D01*
X70836Y57452D01*
X70838Y57432D01*
X70840Y57411D01*
Y57410D01*
Y57408D01*
Y57405D01*
Y57400D01*
X70838Y57394D01*
Y57387D01*
X70836Y57371D01*
X70832Y57352D01*
X70828Y57331D01*
X70820Y57312D01*
X70810Y57291D01*
Y57290D01*
X70809Y57289D01*
X70805Y57282D01*
X70798Y57272D01*
X70789Y57261D01*
X70777Y57248D01*
X70763Y57234D01*
X70747Y57221D01*
X70728Y57209D01*
X70729D01*
X70730Y57208D01*
X70737Y57207D01*
X70746Y57204D01*
X70757Y57198D01*
X70770Y57193D01*
X70783Y57185D01*
X70797Y57175D01*
X70809Y57164D01*
X70810Y57163D01*
X70814Y57159D01*
X70820Y57152D01*
X70828Y57142D01*
X70835Y57130D01*
X70844Y57116D01*
X70853Y57100D01*
X70860Y57081D01*
Y57080D01*
X70861Y57079D01*
X70863Y57076D01*
X70864Y57072D01*
X70867Y57061D01*
X70870Y57047D01*
X70873Y57030D01*
X70877Y57010D01*
X70879Y56988D01*
X70880Y56964D01*
Y56963D01*
Y56959D01*
Y56951D01*
X70879Y56941D01*
X70878Y56930D01*
X70876Y56916D01*
X70873Y56901D01*
X70870Y56885D01*
X70866Y56868D01*
X70860Y56849D01*
X70854Y56831D01*
X70846Y56812D01*
X70836Y56794D01*
X70825Y56775D01*
X70813Y56758D01*
X70799Y56740D01*
X70798Y56739D01*
X70796Y56737D01*
X70792Y56732D01*
X70785Y56727D01*
X70777Y56720D01*
X70767Y56713D01*
X70757Y56705D01*
X70745Y56697D01*
X70731Y56689D01*
X70716Y56681D01*
X70701Y56673D01*
X70683Y56667D01*
X70666Y56661D01*
X70646Y56657D01*
X70626Y56655D01*
X70606Y56654D01*
X70596D01*
X70588Y56655D01*
X70579Y56656D01*
X70569Y56658D01*
X70558Y56660D01*
X70544Y56664D01*
X70531Y56667D01*
X70517Y56672D01*
X70502Y56678D01*
X70488Y56685D01*
X70472Y56694D01*
X70457Y56704D01*
X70443Y56716D01*
X70429Y56729D01*
X70428Y56730D01*
X70425Y56732D01*
X70422Y56737D01*
X70418Y56743D01*
X70411Y56751D01*
X70406Y56760D01*
X70398Y56771D01*
X70391Y56784D01*
X70384Y56798D01*
X70377Y56813D01*
X70370Y56830D01*
X70364Y56848D01*
X70358Y56868D01*
X70353Y56889D01*
X70349Y56911D01*
X70347Y56935D01*
X70446Y56951D01*
Y56949D01*
X70447Y56942D01*
X70449Y56932D01*
X70453Y56920D01*
X70457Y56905D01*
X70462Y56889D01*
X70469Y56871D01*
X70478Y56853D01*
X70487Y56834D01*
X70497Y56817D01*
X70511Y56800D01*
X70526Y56785D01*
X70542Y56773D01*
X70561Y56763D01*
X70581Y56756D01*
X70591Y56755D01*
X70603Y56754D01*
X70610D01*
X70616Y56755D01*
X70621Y56756D01*
X70628Y56758D01*
X70644Y56762D01*
X70663Y56768D01*
X70683Y56778D01*
X70693Y56785D01*
X70703Y56794D01*
X70713Y56802D01*
X70723Y56812D01*
X70724Y56813D01*
X70725Y56814D01*
X70727Y56818D01*
X70730Y56823D01*
X70735Y56829D01*
X70739Y56835D01*
X70743Y56844D01*
X70748Y56853D01*
X70757Y56875D01*
X70765Y56900D01*
X70771Y56929D01*
X70773Y56946D01*
Y56962D01*
Y56963D01*
Y56966D01*
Y56971D01*
X70772Y56976D01*
Y56984D01*
X70771Y56993D01*
X70767Y57012D01*
X70762Y57034D01*
X70753Y57058D01*
X70741Y57081D01*
X70735Y57092D01*
X70726Y57102D01*
Y57103D01*
X70724Y57104D01*
X70718Y57111D01*
X70708Y57119D01*
X70694Y57129D01*
X70678Y57139D01*
X70659Y57147D01*
X70637Y57153D01*
X70625Y57154D01*
X70613Y57155D01*
X70608D01*
X70602Y57154D01*
X70594Y57153D01*
X70584Y57152D01*
X70572Y57150D01*
X70559Y57146D01*
X70543Y57141D01*
X70555Y57249D01*
X70571Y57247D01*
X70578D01*
X70583Y57248D01*
X70589D01*
X70597Y57249D01*
X70613Y57253D01*
X70633Y57258D01*
X70653Y57266D01*
X70672Y57277D01*
X70691Y57292D01*
X70692Y57293D01*
X70693Y57294D01*
X70699Y57301D01*
X70706Y57311D01*
X70715Y57325D01*
X70723Y57342D01*
X70730Y57363D01*
X70736Y57386D01*
X70738Y57399D01*
Y57413D01*
Y57414D01*
Y57417D01*
Y57420D01*
X70737Y57425D01*
X70736Y57437D01*
X70734Y57454D01*
X70728Y57471D01*
X70722Y57490D01*
X70712Y57508D01*
X70699Y57526D01*
X70696Y57528D01*
X70692Y57533D01*
X70683Y57539D01*
X70672Y57548D01*
X70658Y57555D01*
X70642Y57562D01*
X70623Y57566D01*
X70603Y57569D01*
X70598D01*
X70594Y57567D01*
X70583Y57566D01*
X70570Y57563D01*
X70554Y57558D01*
X70538Y57550D01*
X70522Y57539D01*
X70505Y57524D01*
X70503Y57522D01*
X70499Y57515D01*
X70492Y57505D01*
X70484Y57490D01*
X70476Y57471D01*
X70468Y57448D01*
X70461Y57421D01*
X70456Y57389D01*
X70356Y57411D01*
Y57412D01*
X70358Y57417D01*
X70359Y57423D01*
X70361Y57432D01*
X70363Y57443D01*
X70366Y57455D01*
X70370Y57468D01*
X70374Y57483D01*
X70385Y57514D01*
X70400Y57546D01*
X70418Y57576D01*
X70429Y57590D01*
X70441Y57604D01*
X70442Y57605D01*
X70444Y57607D01*
X70447Y57610D01*
X70453Y57613D01*
X70459Y57619D01*
X70467Y57624D01*
X70476Y57630D01*
X70485Y57636D01*
X70497Y57643D01*
X70510Y57648D01*
X70537Y57659D01*
X70552Y57663D01*
X70569Y57666D01*
X70585Y57668D01*
X70602Y57669D01*
X70612D01*
X70619Y57668D01*
D02*
G37*
G36*
X68875Y56670D02*
X68765D01*
X68337Y57453D01*
Y56670D01*
X68233D01*
Y57666D01*
X68343D01*
X68773Y56881D01*
Y57666D01*
X68875D01*
Y56670D01*
D02*
G37*
G36*
X69646Y57549D02*
X69376D01*
Y56670D01*
X69268D01*
Y57549D01*
X68999D01*
Y57666D01*
X69646D01*
Y57549D01*
D02*
G37*
G36*
X68149Y56670D02*
X68025D01*
X67930Y56972D01*
X67587D01*
X67498Y56670D01*
X67386D01*
X67699Y57666D01*
X67815D01*
X68149Y56670D01*
D02*
G37*
G36*
X70307Y56496D02*
X69659D01*
Y56565D01*
X70307D01*
Y56496D01*
D02*
G37*
G36*
X68875Y76350D02*
X68765D01*
X68337Y77133D01*
Y76350D01*
X68233D01*
Y77346D01*
X68343D01*
X68773Y76561D01*
Y77346D01*
X68875D01*
Y76350D01*
D02*
G37*
G36*
X70640Y77348D02*
X70651Y77347D01*
X70663Y77345D01*
X70676Y77343D01*
X70690Y77338D01*
X70705Y77334D01*
X70720Y77328D01*
X70737Y77322D01*
X70752Y77314D01*
X70767Y77304D01*
X70783Y77292D01*
X70796Y77280D01*
X70809Y77265D01*
X70810Y77264D01*
X70812Y77262D01*
X70814Y77256D01*
X70819Y77250D01*
X70824Y77242D01*
X70830Y77232D01*
X70835Y77221D01*
X70842Y77209D01*
X70847Y77196D01*
X70853Y77181D01*
X70864Y77148D01*
X70868Y77131D01*
X70870Y77112D01*
X70872Y77092D01*
X70873Y77073D01*
Y77072D01*
Y77068D01*
Y77063D01*
X70872Y77056D01*
Y77047D01*
X70871Y77038D01*
X70869Y77027D01*
X70867Y77015D01*
X70861Y76986D01*
X70852Y76956D01*
X70840Y76923D01*
X70831Y76906D01*
X70822Y76890D01*
X70821Y76889D01*
X70820Y76886D01*
X70817Y76881D01*
X70812Y76875D01*
X70806Y76866D01*
X70799Y76855D01*
X70790Y76843D01*
X70779Y76829D01*
X70767Y76812D01*
X70753Y76796D01*
X70738Y76776D01*
X70720Y76756D01*
X70702Y76734D01*
X70680Y76710D01*
X70657Y76685D01*
X70632Y76658D01*
X70631Y76657D01*
X70628Y76654D01*
X70623Y76650D01*
X70618Y76643D01*
X70610Y76637D01*
X70602Y76628D01*
X70584Y76608D01*
X70563Y76587D01*
X70544Y76567D01*
X70528Y76548D01*
X70520Y76539D01*
X70515Y76533D01*
X70514Y76532D01*
X70511Y76527D01*
X70506Y76521D01*
X70500Y76512D01*
X70493Y76502D01*
X70487Y76491D01*
X70473Y76467D01*
X70875D01*
Y76350D01*
X70335D01*
Y76351D01*
Y76353D01*
Y76358D01*
Y76362D01*
X70336Y76370D01*
X70337Y76377D01*
X70338Y76386D01*
X70339Y76397D01*
X70344Y76420D01*
X70352Y76447D01*
X70363Y76477D01*
X70370Y76492D01*
X70377Y76509D01*
X70378Y76510D01*
X70379Y76513D01*
X70383Y76517D01*
X70386Y76524D01*
X70391Y76533D01*
X70398Y76543D01*
X70406Y76555D01*
X70416Y76568D01*
X70426Y76583D01*
X70438Y76598D01*
X70452Y76616D01*
X70467Y76634D01*
X70483Y76654D01*
X70502Y76674D01*
X70522Y76696D01*
X70543Y76717D01*
X70544Y76718D01*
X70550Y76724D01*
X70557Y76730D01*
X70566Y76740D01*
X70577Y76752D01*
X70590Y76765D01*
X70605Y76781D01*
X70620Y76797D01*
X70651Y76832D01*
X70681Y76868D01*
X70695Y76886D01*
X70707Y76902D01*
X70719Y76918D01*
X70728Y76934D01*
Y76935D01*
X70730Y76937D01*
X70732Y76941D01*
X70735Y76947D01*
X70738Y76953D01*
X70742Y76961D01*
X70750Y76981D01*
X70758Y77003D01*
X70765Y77026D01*
X70770Y77051D01*
X70772Y77076D01*
Y77077D01*
Y77079D01*
Y77084D01*
X70771Y77089D01*
Y77096D01*
X70770Y77103D01*
X70766Y77121D01*
X70761Y77140D01*
X70753Y77161D01*
X70742Y77182D01*
X70727Y77200D01*
Y77202D01*
X70725Y77203D01*
X70719Y77208D01*
X70710Y77216D01*
X70696Y77225D01*
X70680Y77233D01*
X70661Y77241D01*
X70641Y77246D01*
X70629Y77249D01*
X70610D01*
X70605Y77247D01*
X70599D01*
X70591Y77246D01*
X70575Y77242D01*
X70558Y77235D01*
X70538Y77227D01*
X70518Y77214D01*
X70510Y77205D01*
X70501Y77196D01*
Y77195D01*
X70499Y77194D01*
X70496Y77191D01*
X70494Y77186D01*
X70491Y77181D01*
X70487Y77175D01*
X70482Y77168D01*
X70479Y77159D01*
X70475Y77148D01*
X70470Y77137D01*
X70467Y77125D01*
X70462Y77112D01*
X70458Y77082D01*
X70456Y77049D01*
X70353Y77062D01*
Y77064D01*
X70354Y77068D01*
Y77075D01*
X70355Y77085D01*
X70358Y77097D01*
X70360Y77111D01*
X70363Y77125D01*
X70367Y77141D01*
X70377Y77176D01*
X70384Y77194D01*
X70391Y77213D01*
X70400Y77229D01*
X70410Y77246D01*
X70421Y77262D01*
X70433Y77276D01*
X70434Y77277D01*
X70436Y77279D01*
X70441Y77282D01*
X70446Y77288D01*
X70453Y77293D01*
X70461Y77299D01*
X70471Y77305D01*
X70483Y77313D01*
X70495Y77320D01*
X70510Y77326D01*
X70525Y77332D01*
X70541Y77338D01*
X70559Y77343D01*
X70578Y77346D01*
X70598Y77348D01*
X70619Y77349D01*
X70631D01*
X70640Y77348D01*
D02*
G37*
G36*
X69646Y77229D02*
X69376D01*
Y76350D01*
X69268D01*
Y77229D01*
X68999D01*
Y77346D01*
X69646D01*
Y77229D01*
D02*
G37*
G36*
X68149Y76350D02*
X68025D01*
X67930Y76652D01*
X67587D01*
X67498Y76350D01*
X67386D01*
X67699Y77346D01*
X67815D01*
X68149Y76350D01*
D02*
G37*
G36*
X70307Y76176D02*
X69659D01*
Y76245D01*
X70307D01*
Y76176D01*
D02*
G37*
G36*
X49195Y76350D02*
X49085D01*
X48657Y77133D01*
Y76350D01*
X48553D01*
Y77346D01*
X48663D01*
X49093Y76561D01*
Y77346D01*
X49195D01*
Y76350D01*
D02*
G37*
G36*
X51043D02*
X50943D01*
Y77128D01*
X50942Y77126D01*
X50937Y77121D01*
X50929Y77113D01*
X50918Y77102D01*
X50905Y77090D01*
X50889Y77076D01*
X50870Y77061D01*
X50849Y77044D01*
X50848D01*
X50847Y77042D01*
X50844Y77040D01*
X50839Y77038D01*
X50828Y77030D01*
X50814Y77020D01*
X50798Y77010D01*
X50780Y76999D01*
X50762Y76990D01*
X50743Y76981D01*
Y77098D01*
X50744Y77099D01*
X50746Y77100D01*
X50751Y77102D01*
X50757Y77106D01*
X50764Y77111D01*
X50773Y77116D01*
X50792Y77129D01*
X50814Y77147D01*
X50839Y77167D01*
X50864Y77188D01*
X50889Y77214D01*
X50890Y77215D01*
X50892Y77217D01*
X50895Y77220D01*
X50898Y77226D01*
X50904Y77232D01*
X50910Y77239D01*
X50924Y77257D01*
X50938Y77277D01*
X50953Y77300D01*
X50966Y77324D01*
X50977Y77349D01*
X51043D01*
Y76350D01*
D02*
G37*
G36*
X49966Y77229D02*
X49696D01*
Y76350D01*
X49588D01*
Y77229D01*
X49319D01*
Y77346D01*
X49966D01*
Y77229D01*
D02*
G37*
G36*
X48469Y76350D02*
X48345D01*
X48250Y76652D01*
X47907D01*
X47818Y76350D01*
X47706D01*
X48019Y77346D01*
X48135D01*
X48469Y76350D01*
D02*
G37*
G36*
X50627Y76176D02*
X49979D01*
Y76245D01*
X50627D01*
Y76176D01*
D02*
G37*
%LPC*%
G36*
X28384Y77241D02*
Y77240D01*
X28383Y77237D01*
Y77231D01*
X28381Y77225D01*
X28380Y77216D01*
X28377Y77206D01*
X28375Y77194D01*
X28373Y77181D01*
X28370Y77168D01*
X28367Y77152D01*
X28359Y77121D01*
X28350Y77086D01*
X28339Y77051D01*
X28249Y76759D01*
X28527D01*
X28442Y77034D01*
Y77035D01*
X28440Y77040D01*
X28439Y77046D01*
X28435Y77055D01*
X28432Y77066D01*
X28429Y77079D01*
X28424Y77092D01*
X28420Y77108D01*
X28410Y77140D01*
X28400Y77175D01*
X28392Y77209D01*
X28387Y77226D01*
X28384Y77241D01*
D02*
G37*
G36*
X8704D02*
Y77240D01*
X8703Y77237D01*
Y77231D01*
X8701Y77225D01*
X8700Y77216D01*
X8697Y77206D01*
X8695Y77194D01*
X8693Y77181D01*
X8690Y77168D01*
X8687Y77152D01*
X8679Y77121D01*
X8670Y77086D01*
X8659Y77051D01*
X8569Y76759D01*
X8847D01*
X8762Y77034D01*
Y77035D01*
X8760Y77040D01*
X8759Y77046D01*
X8755Y77055D01*
X8752Y77066D01*
X8749Y77079D01*
X8744Y77092D01*
X8740Y77108D01*
X8730Y77140D01*
X8720Y77175D01*
X8712Y77209D01*
X8707Y77226D01*
X8704Y77241D01*
D02*
G37*
G36*
Y57561D02*
Y57560D01*
X8703Y57557D01*
Y57551D01*
X8701Y57545D01*
X8700Y57536D01*
X8697Y57526D01*
X8695Y57514D01*
X8693Y57501D01*
X8690Y57488D01*
X8687Y57472D01*
X8679Y57441D01*
X8670Y57406D01*
X8659Y57371D01*
X8569Y57079D01*
X8847D01*
X8762Y57354D01*
Y57355D01*
X8760Y57360D01*
X8759Y57366D01*
X8755Y57375D01*
X8752Y57386D01*
X8749Y57399D01*
X8744Y57412D01*
X8740Y57428D01*
X8730Y57460D01*
X8720Y57495D01*
X8712Y57529D01*
X8707Y57546D01*
X8704Y57561D01*
D02*
G37*
G36*
X12192Y57569D02*
X12185D01*
X12181Y57567D01*
X12168Y57564D01*
X12151Y57558D01*
X12143Y57553D01*
X12134Y57548D01*
X12124Y57541D01*
X12114Y57534D01*
X12104Y57524D01*
X12096Y57512D01*
X12086Y57500D01*
X12077Y57484D01*
Y57483D01*
X12075Y57480D01*
X12073Y57476D01*
X12069Y57468D01*
X12066Y57458D01*
X12063Y57445D01*
X12058Y57431D01*
X12054Y57413D01*
X12050Y57393D01*
X12045Y57369D01*
X12042Y57342D01*
X12039Y57313D01*
X12036Y57280D01*
X12033Y57244D01*
X12032Y57205D01*
X12031Y57161D01*
Y57160D01*
Y57159D01*
Y57154D01*
Y57150D01*
Y57144D01*
Y57138D01*
X12032Y57122D01*
Y57102D01*
X12033Y57080D01*
X12036Y57055D01*
X12037Y57030D01*
X12042Y56975D01*
X12046Y56948D01*
X12051Y56922D01*
X12056Y56896D01*
X12062Y56873D01*
X12069Y56854D01*
X12077Y56836D01*
X12078Y56835D01*
X12079Y56833D01*
X12081Y56829D01*
X12086Y56823D01*
X12096Y56810D01*
X12110Y56796D01*
X12127Y56781D01*
X12148Y56767D01*
X12159Y56762D01*
X12171Y56758D01*
X12184Y56755D01*
X12197Y56754D01*
X12201D01*
X12204Y56755D01*
X12209D01*
X12221Y56759D01*
X12238Y56765D01*
X12246Y56770D01*
X12256Y56775D01*
X12265Y56782D01*
X12275Y56789D01*
X12285Y56799D01*
X12295Y56810D01*
X12304Y56823D01*
X12313Y56837D01*
X12314Y56838D01*
X12315Y56842D01*
X12318Y56846D01*
X12321Y56854D01*
X12324Y56864D01*
X12328Y56877D01*
X12333Y56891D01*
X12337Y56909D01*
X12342Y56929D01*
X12345Y56953D01*
X12349Y56979D01*
X12352Y57009D01*
X12356Y57042D01*
X12358Y57078D01*
X12360Y57117D01*
Y57161D01*
Y57162D01*
Y57164D01*
Y57167D01*
Y57172D01*
Y57177D01*
Y57184D01*
X12359Y57200D01*
Y57220D01*
X12358Y57242D01*
X12356Y57267D01*
X12355Y57292D01*
X12349Y57347D01*
X12345Y57374D01*
X12340Y57400D01*
X12335Y57425D01*
X12328Y57448D01*
X12322Y57468D01*
X12313Y57486D01*
Y57487D01*
X12311Y57489D01*
X12309Y57493D01*
X12304Y57499D01*
X12295Y57512D01*
X12280Y57527D01*
X12263Y57542D01*
X12242Y57555D01*
X12231Y57561D01*
X12218Y57565D01*
X12205Y57567D01*
X12192Y57569D01*
D02*
G37*
G36*
X11563Y37879D02*
X11557D01*
X11552Y37877D01*
X11540Y37875D01*
X11525Y37871D01*
X11507Y37862D01*
X11497Y37858D01*
X11487Y37851D01*
X11477Y37844D01*
X11467Y37835D01*
X11457Y37825D01*
X11447Y37813D01*
Y37812D01*
X11445Y37810D01*
X11443Y37806D01*
X11440Y37801D01*
X11435Y37794D01*
X11431Y37787D01*
X11427Y37777D01*
X11422Y37767D01*
X11418Y37755D01*
X11414Y37742D01*
X11409Y37728D01*
X11405Y37712D01*
X11402Y37695D01*
X11399Y37677D01*
X11398Y37659D01*
X11397Y37639D01*
Y37638D01*
Y37635D01*
Y37629D01*
X11398Y37623D01*
Y37615D01*
X11399Y37605D01*
X11404Y37583D01*
X11409Y37558D01*
X11418Y37533D01*
X11430Y37507D01*
X11437Y37495D01*
X11445Y37484D01*
X11446Y37483D01*
X11447Y37482D01*
X11454Y37475D01*
X11464Y37465D01*
X11478Y37456D01*
X11494Y37445D01*
X11514Y37435D01*
X11537Y37428D01*
X11549Y37427D01*
X11561Y37426D01*
X11568D01*
X11572Y37427D01*
X11585Y37429D01*
X11601Y37434D01*
X11618Y37440D01*
X11638Y37450D01*
X11646Y37457D01*
X11656Y37465D01*
X11666Y37474D01*
X11675Y37484D01*
X11676Y37485D01*
X11677Y37487D01*
X11679Y37491D01*
X11682Y37495D01*
X11686Y37500D01*
X11690Y37508D01*
X11695Y37517D01*
X11699Y37527D01*
X11703Y37538D01*
X11707Y37550D01*
X11711Y37564D01*
X11714Y37578D01*
X11717Y37594D01*
X11720Y37611D01*
X11722Y37629D01*
Y37649D01*
Y37650D01*
Y37653D01*
Y37659D01*
X11721Y37667D01*
Y37675D01*
X11720Y37686D01*
X11717Y37698D01*
X11716Y37710D01*
X11710Y37738D01*
X11701Y37765D01*
X11690Y37792D01*
X11682Y37805D01*
X11674Y37817D01*
Y37818D01*
X11672Y37820D01*
X11665Y37827D01*
X11655Y37837D01*
X11642Y37848D01*
X11626Y37859D01*
X11607Y37869D01*
X11586Y37876D01*
X11575Y37877D01*
X11563Y37879D01*
D02*
G37*
G36*
X8704Y37871D02*
Y37870D01*
X8703Y37867D01*
Y37861D01*
X8701Y37855D01*
X8700Y37846D01*
X8697Y37836D01*
X8695Y37824D01*
X8693Y37811D01*
X8690Y37798D01*
X8687Y37782D01*
X8679Y37751D01*
X8670Y37716D01*
X8659Y37681D01*
X8569Y37389D01*
X8847D01*
X8762Y37664D01*
Y37665D01*
X8760Y37670D01*
X8759Y37676D01*
X8755Y37685D01*
X8752Y37696D01*
X8749Y37709D01*
X8744Y37722D01*
X8740Y37738D01*
X8730Y37770D01*
X8720Y37805D01*
X8712Y37839D01*
X8707Y37856D01*
X8704Y37871D01*
D02*
G37*
G36*
X9098Y2837D02*
Y2835D01*
X9097Y2832D01*
Y2827D01*
X9094Y2820D01*
X9093Y2811D01*
X9091Y2802D01*
X9089Y2790D01*
X9087Y2776D01*
X9084Y2763D01*
X9080Y2748D01*
X9073Y2716D01*
X9064Y2681D01*
X9053Y2646D01*
X8962Y2355D01*
X9241D01*
X9156Y2630D01*
Y2631D01*
X9153Y2635D01*
X9152Y2642D01*
X9149Y2651D01*
X9146Y2662D01*
X9143Y2675D01*
X9138Y2688D01*
X9134Y2703D01*
X9124Y2736D01*
X9114Y2771D01*
X9105Y2805D01*
X9101Y2821D01*
X9098Y2837D01*
D02*
G37*
G36*
X11957Y2844D02*
X11955D01*
X11948Y2843D01*
X11937Y2842D01*
X11925Y2839D01*
X11910Y2833D01*
X11895Y2826D01*
X11878Y2815D01*
X11863Y2801D01*
X11861Y2798D01*
X11856Y2793D01*
X11851Y2783D01*
X11843Y2771D01*
X11836Y2755D01*
X11830Y2736D01*
X11826Y2715D01*
X11824Y2692D01*
Y2691D01*
Y2689D01*
Y2686D01*
X11825Y2680D01*
Y2674D01*
X11826Y2667D01*
X11828Y2651D01*
X11834Y2631D01*
X11840Y2613D01*
X11849Y2593D01*
X11862Y2575D01*
X11864Y2573D01*
X11869Y2569D01*
X11877Y2562D01*
X11889Y2555D01*
X11902Y2546D01*
X11919Y2539D01*
X11937Y2535D01*
X11958Y2533D01*
X11964D01*
X11968Y2534D01*
X11978Y2535D01*
X11991Y2538D01*
X12006Y2544D01*
X12022Y2550D01*
X12038Y2561D01*
X12053Y2575D01*
X12055Y2578D01*
X12060Y2583D01*
X12065Y2593D01*
X12073Y2605D01*
X12081Y2621D01*
X12086Y2640D01*
X12090Y2662D01*
X12093Y2686D01*
Y2687D01*
Y2689D01*
Y2692D01*
X12091Y2698D01*
X12090Y2710D01*
X12087Y2726D01*
X12083Y2744D01*
X12075Y2762D01*
X12065Y2782D01*
X12052Y2799D01*
X12050Y2802D01*
X12044Y2806D01*
X12037Y2814D01*
X12025Y2822D01*
X12012Y2830D01*
X11995Y2838D01*
X11977Y2842D01*
X11957Y2844D01*
D02*
G37*
G36*
X11956Y2432D02*
X11949D01*
X11945Y2431D01*
X11932Y2429D01*
X11916Y2426D01*
X11897Y2419D01*
X11877Y2409D01*
X11867Y2403D01*
X11858Y2395D01*
X11848Y2386D01*
X11839Y2376D01*
Y2375D01*
X11837Y2374D01*
X11835Y2371D01*
X11831Y2367D01*
X11828Y2361D01*
X11824Y2355D01*
X11819Y2347D01*
X11815Y2337D01*
X11806Y2316D01*
X11799Y2292D01*
X11793Y2264D01*
X11792Y2249D01*
X11791Y2232D01*
Y2231D01*
Y2228D01*
Y2223D01*
X11792Y2217D01*
Y2209D01*
X11793Y2200D01*
X11797Y2180D01*
X11803Y2157D01*
X11812Y2132D01*
X11824Y2108D01*
X11831Y2097D01*
X11840Y2086D01*
X11841Y2085D01*
X11842Y2084D01*
X11849Y2077D01*
X11860Y2068D01*
X11873Y2058D01*
X11890Y2047D01*
X11911Y2039D01*
X11933Y2032D01*
X11945Y2031D01*
X11958Y2030D01*
X11965D01*
X11970Y2031D01*
X11976Y2032D01*
X11983Y2033D01*
X12000Y2037D01*
X12018Y2043D01*
X12038Y2053D01*
X12048Y2058D01*
X12058Y2066D01*
X12067Y2074D01*
X12076Y2084D01*
X12077Y2085D01*
X12078Y2086D01*
X12081Y2089D01*
X12084Y2093D01*
X12087Y2099D01*
X12091Y2105D01*
X12096Y2113D01*
X12101Y2122D01*
X12110Y2143D01*
X12118Y2168D01*
X12123Y2196D01*
X12125Y2212D01*
Y2229D01*
Y2230D01*
Y2233D01*
Y2238D01*
X12124Y2244D01*
Y2252D01*
X12123Y2261D01*
X12119Y2281D01*
X12113Y2304D01*
X12105Y2329D01*
X12091Y2353D01*
X12084Y2364D01*
X12075Y2375D01*
X12074Y2376D01*
X12073Y2378D01*
X12066Y2384D01*
X12055Y2393D01*
X12041Y2404D01*
X12024Y2415D01*
X12004Y2423D01*
X11981Y2430D01*
X11969Y2431D01*
X11956Y2432D01*
D02*
G37*
G36*
X28778Y2837D02*
Y2835D01*
X28777Y2832D01*
Y2827D01*
X28774Y2820D01*
X28773Y2811D01*
X28771Y2802D01*
X28769Y2790D01*
X28767Y2776D01*
X28764Y2763D01*
X28760Y2748D01*
X28753Y2716D01*
X28744Y2681D01*
X28733Y2646D01*
X28642Y2355D01*
X28921D01*
X28836Y2630D01*
Y2631D01*
X28833Y2635D01*
X28832Y2642D01*
X28829Y2651D01*
X28826Y2662D01*
X28823Y2675D01*
X28818Y2688D01*
X28814Y2703D01*
X28804Y2736D01*
X28794Y2771D01*
X28785Y2805D01*
X28781Y2821D01*
X28778Y2837D01*
D02*
G37*
G36*
X51333Y2484D02*
X51326D01*
X51322Y2482D01*
X51310Y2480D01*
X51294Y2476D01*
X51276Y2469D01*
X51257Y2458D01*
X51247Y2452D01*
X51237Y2444D01*
X51228Y2435D01*
X51219Y2425D01*
Y2423D01*
X51217Y2422D01*
X51214Y2419D01*
X51211Y2414D01*
X51208Y2408D01*
X51204Y2402D01*
X51199Y2393D01*
X51195Y2383D01*
X51190Y2373D01*
X51186Y2361D01*
X51182Y2348D01*
X51178Y2334D01*
X51173Y2303D01*
X51172Y2286D01*
X51171Y2268D01*
Y2267D01*
Y2264D01*
Y2257D01*
X51172Y2251D01*
Y2241D01*
X51173Y2231D01*
X51175Y2219D01*
X51177Y2206D01*
X51183Y2179D01*
X51192Y2149D01*
X51205Y2121D01*
X51212Y2108D01*
X51221Y2094D01*
X51222Y2093D01*
X51223Y2091D01*
X51226Y2089D01*
X51230Y2085D01*
X51241Y2074D01*
X51255Y2063D01*
X51272Y2051D01*
X51292Y2040D01*
X51303Y2035D01*
X51315Y2033D01*
X51327Y2031D01*
X51339Y2030D01*
X51345D01*
X51349Y2031D01*
X51360Y2033D01*
X51374Y2038D01*
X51390Y2045D01*
X51409Y2056D01*
X51418Y2063D01*
X51428Y2071D01*
X51436Y2080D01*
X51445Y2091D01*
X51446Y2092D01*
X51447Y2094D01*
X51449Y2098D01*
X51453Y2102D01*
X51456Y2109D01*
X51460Y2116D01*
X51465Y2125D01*
X51469Y2135D01*
X51473Y2147D01*
X51477Y2159D01*
X51481Y2173D01*
X51484Y2188D01*
X51488Y2205D01*
X51490Y2222D01*
X51492Y2241D01*
Y2261D01*
Y2262D01*
Y2265D01*
Y2270D01*
X51491Y2278D01*
Y2287D01*
X51490Y2298D01*
X51488Y2309D01*
X51487Y2321D01*
X51481Y2347D01*
X51472Y2374D01*
X51460Y2400D01*
X51454Y2414D01*
X51445Y2425D01*
Y2426D01*
X51443Y2427D01*
X51437Y2433D01*
X51428Y2443D01*
X51413Y2454D01*
X51397Y2465D01*
X51378Y2475D01*
X51357Y2481D01*
X51345Y2482D01*
X51333Y2484D01*
D02*
G37*
G36*
X48468Y2837D02*
Y2835D01*
X48467Y2832D01*
Y2827D01*
X48464Y2820D01*
X48463Y2811D01*
X48461Y2802D01*
X48459Y2790D01*
X48457Y2776D01*
X48454Y2763D01*
X48450Y2748D01*
X48443Y2716D01*
X48434Y2681D01*
X48423Y2646D01*
X48332Y2355D01*
X48611D01*
X48526Y2630D01*
Y2631D01*
X48523Y2635D01*
X48522Y2642D01*
X48519Y2651D01*
X48516Y2662D01*
X48513Y2675D01*
X48508Y2688D01*
X48504Y2703D01*
X48494Y2736D01*
X48484Y2771D01*
X48475Y2805D01*
X48471Y2821D01*
X48468Y2837D01*
D02*
G37*
G36*
X68148D02*
Y2835D01*
X68147Y2832D01*
Y2827D01*
X68144Y2820D01*
X68143Y2811D01*
X68141Y2802D01*
X68139Y2790D01*
X68137Y2776D01*
X68134Y2763D01*
X68130Y2748D01*
X68123Y2716D01*
X68114Y2681D01*
X68103Y2646D01*
X68012Y2355D01*
X68291D01*
X68206Y2630D01*
Y2631D01*
X68203Y2635D01*
X68202Y2642D01*
X68199Y2651D01*
X68196Y2662D01*
X68193Y2675D01*
X68188Y2688D01*
X68184Y2703D01*
X68174Y2736D01*
X68164Y2771D01*
X68155Y2805D01*
X68151Y2821D01*
X68148Y2837D01*
D02*
G37*
G36*
X71444Y37790D02*
X71126Y37335D01*
X71444D01*
Y37790D01*
D02*
G37*
G36*
X67840Y37884D02*
Y37883D01*
X67839Y37880D01*
X67838Y37874D01*
X67837Y37868D01*
X67835Y37858D01*
X67833Y37848D01*
X67829Y37836D01*
X67826Y37823D01*
X67823Y37809D01*
X67819Y37793D01*
X67809Y37761D01*
X67798Y37726D01*
X67786Y37689D01*
X67674Y37393D01*
X68019D01*
X67913Y37673D01*
Y37674D01*
X67910Y37679D01*
X67908Y37685D01*
X67905Y37695D01*
X67901Y37705D01*
X67896Y37718D01*
X67891Y37732D01*
X67885Y37747D01*
X67874Y37781D01*
X67862Y37816D01*
X67850Y37851D01*
X67840Y37884D01*
D02*
G37*
G36*
X67754Y57561D02*
Y57560D01*
X67753Y57557D01*
Y57551D01*
X67751Y57545D01*
X67750Y57536D01*
X67747Y57526D01*
X67745Y57514D01*
X67743Y57501D01*
X67740Y57488D01*
X67737Y57472D01*
X67729Y57441D01*
X67720Y57406D01*
X67709Y57371D01*
X67619Y57079D01*
X67897D01*
X67812Y57354D01*
Y57355D01*
X67810Y57360D01*
X67809Y57366D01*
X67805Y57375D01*
X67802Y57386D01*
X67799Y57399D01*
X67794Y57412D01*
X67790Y57428D01*
X67780Y57460D01*
X67770Y57495D01*
X67762Y57529D01*
X67757Y57546D01*
X67754Y57561D01*
D02*
G37*
G36*
Y77241D02*
Y77240D01*
X67753Y77237D01*
Y77231D01*
X67751Y77225D01*
X67750Y77216D01*
X67747Y77206D01*
X67745Y77194D01*
X67743Y77181D01*
X67740Y77168D01*
X67737Y77152D01*
X67729Y77121D01*
X67720Y77086D01*
X67709Y77051D01*
X67619Y76759D01*
X67897D01*
X67812Y77034D01*
Y77035D01*
X67810Y77040D01*
X67809Y77046D01*
X67805Y77055D01*
X67802Y77066D01*
X67799Y77079D01*
X67794Y77092D01*
X67790Y77108D01*
X67780Y77140D01*
X67770Y77175D01*
X67762Y77209D01*
X67757Y77226D01*
X67754Y77241D01*
D02*
G37*
G36*
X48074D02*
Y77240D01*
X48073Y77237D01*
Y77231D01*
X48071Y77225D01*
X48070Y77216D01*
X48067Y77206D01*
X48065Y77194D01*
X48063Y77181D01*
X48060Y77168D01*
X48057Y77152D01*
X48049Y77121D01*
X48040Y77086D01*
X48029Y77051D01*
X47939Y76759D01*
X48217D01*
X48132Y77034D01*
Y77035D01*
X48130Y77040D01*
X48129Y77046D01*
X48125Y77055D01*
X48122Y77066D01*
X48119Y77079D01*
X48114Y77092D01*
X48110Y77108D01*
X48100Y77140D01*
X48090Y77175D01*
X48082Y77209D01*
X48077Y77226D01*
X48074Y77241D01*
D02*
G37*
%LPD*%
D10*
X36193Y33094D02*
G03*
X36193Y33094I-276J0D01*
G01*
X39106Y27574D02*
G03*
X39106Y27574I-276J0D01*
G01*
X38201D02*
G03*
X38201Y27574I-276J0D01*
G01*
X37098Y33094D02*
G03*
X37098Y33094I-276J0D01*
G01*
X40524Y26983D02*
G03*
X40524Y26983I-276J0D01*
G01*
X47768Y33401D02*
G03*
X47768Y33401I-276J0D01*
G01*
X46130Y27968D02*
G03*
X46130Y27968I-276J0D01*
G01*
X42138Y27968D02*
G03*
X42138Y27968I-276J0D01*
G01*
X3724Y2740D02*
G03*
X3724Y2740I-984J0D01*
G01*
X76953D02*
G03*
X76953Y2740I-984J0D01*
G01*
Y75969D02*
G03*
X76953Y75969I-984J0D01*
G01*
X3724D02*
G03*
X3724Y75969I-984J0D01*
G01*
D11*
X24395Y55309D02*
G03*
X24395Y55309I-49J0D01*
G01*
X38734Y39991D02*
G03*
X38734Y39991I-49J0D01*
G01*
X55358Y54362D02*
G03*
X55358Y54362I-49J0D01*
G01*
X54412Y23400D02*
G03*
X54412Y23400I-49J0D01*
G01*
X23449Y24346D02*
G03*
X23449Y24346I-49J0D01*
G01*
X23372Y56339D02*
X23428Y56395D01*
X23483Y56339D01*
X24485Y55337D02*
X24541Y55281D01*
X24485Y55225D02*
X24541Y55281D01*
X22314Y55281D02*
X22370Y55337D01*
X22314Y55281D02*
X22370Y55225D01*
X23372Y54223D02*
X23428Y54168D01*
X23483Y54223D01*
X38567Y38574D02*
X38646D01*
X38567D02*
Y38653D01*
X38567Y40070D02*
Y40149D01*
X38646D01*
X40063Y38574D02*
X40142D01*
Y38653D01*
Y40070D02*
Y40149D01*
X40063D02*
X40142D01*
X56339Y55337D02*
X56395Y55281D01*
X56339Y55225D02*
X56395Y55281D01*
X55281Y54168D02*
X55337Y54223D01*
X55225D02*
X55281Y54168D01*
X55281Y56395D02*
X55337Y56339D01*
X55225D02*
X55281Y56395D01*
X54168Y55281D02*
X54223Y55337D01*
X54168Y55281D02*
X54223Y55225D01*
X55281Y22314D02*
X55337Y22370D01*
X55225D02*
X55281Y22314D01*
X54168Y23428D02*
X54223Y23372D01*
X54168Y23428D02*
X54223Y23483D01*
X56339Y23372D02*
X56395Y23428D01*
X56339Y23483D02*
X56395Y23428D01*
X55281Y24541D02*
X55337Y24485D01*
X55225D02*
X55281Y24541D01*
X24485Y23483D02*
X24541Y23428D01*
X24485Y23372D02*
X24541Y23428D01*
X23428Y22314D02*
X23483Y22370D01*
X23372D02*
X23428Y22314D01*
X23428Y24541D02*
X23483Y24485D01*
X23372D02*
X23428Y24541D01*
X22314Y23428D02*
X22370Y23483D01*
X22314Y23428D02*
X22370Y23372D01*
D12*
X39165Y40497D02*
X39411D01*
X38722D02*
X38969D01*
X39165Y40792D02*
X39411D01*
X38722D02*
X38969D01*
X38722Y40497D02*
Y40792D01*
X39411Y40497D02*
Y40792D01*
X39165Y41599D02*
X39411D01*
X38722D02*
X38969D01*
X39165Y41895D02*
X39411D01*
X38722D02*
X38969D01*
X38722Y41599D02*
Y41895D01*
X39411Y41599D02*
Y41895D01*
X24231Y54403D02*
X24405Y54577D01*
X24544Y54716D02*
X24718Y54890D01*
X24440Y54194D02*
X24614Y54368D01*
X24753Y54508D02*
X24927Y54682D01*
X24718Y54890D02*
X24927Y54682D01*
X24231Y54403D02*
X24440Y54194D01*
X38348Y38972D02*
Y39218D01*
Y38529D02*
Y38775D01*
X38053Y38972D02*
Y39218D01*
Y38529D02*
Y38775D01*
Y38529D02*
X38348D01*
X38053Y39218D02*
X38348D01*
X24150Y24408D02*
X24324Y24234D01*
X23837Y24721D02*
X24011Y24547D01*
X24359Y24617D02*
X24533Y24443D01*
X24046Y24930D02*
X24220Y24756D01*
X23837Y24721D02*
X24046Y24930D01*
X24324Y24234D02*
X24533Y24443D01*
X38929Y38056D02*
X39175D01*
X38486D02*
X38732D01*
X38929Y38351D02*
X39175D01*
X38486D02*
X38732D01*
X38486Y38056D02*
Y38351D01*
X39175Y38056D02*
Y38351D01*
X54280Y24153D02*
X54454Y24327D01*
X53967Y23840D02*
X54141Y24014D01*
X54071Y24362D02*
X54246Y24536D01*
X53758Y24049D02*
X53932Y24223D01*
X53758Y24049D02*
X53967Y23840D01*
X54246Y24536D02*
X54454Y24327D01*
X39510Y38351D02*
X39756D01*
X39953D02*
X40199D01*
X39510Y38056D02*
X39756D01*
X39953D02*
X40199D01*
Y38351D01*
X39510Y38056D02*
Y38351D01*
X54400Y54457D02*
X54574Y54283D01*
X54713Y54144D02*
X54887Y53970D01*
X54191Y54249D02*
X54365Y54075D01*
X54505Y53935D02*
X54679Y53761D01*
X54887Y53970D01*
X54191Y54249D02*
X54400Y54457D01*
X40632Y38972D02*
Y39218D01*
Y38529D02*
Y38775D01*
X40337Y38972D02*
Y39218D01*
Y38529D02*
Y38775D01*
Y38529D02*
X40632D01*
X40337Y39218D02*
X40632D01*
X23339Y56506D02*
X23513Y56680D01*
X23026Y56193D02*
X23200Y56367D01*
X23131Y56715D02*
X23305Y56889D01*
X22817Y56402D02*
X22991Y56576D01*
X22817Y56402D02*
X23026Y56193D01*
X23305Y56889D02*
X23513Y56680D01*
X22029Y23513D02*
X22203Y23339D01*
X22342Y23200D02*
X22516Y23026D01*
X21820Y23305D02*
X21994Y23131D01*
X22133Y22991D02*
X22307Y22817D01*
X22516Y23026D01*
X21820Y23305D02*
X22029Y23513D01*
X55195Y22029D02*
X55369Y22203D01*
X55508Y22342D02*
X55682Y22516D01*
X55404Y21820D02*
X55578Y21994D01*
X55717Y22133D02*
X55891Y22307D01*
X55682Y22516D02*
X55891Y22307D01*
X55195Y22029D02*
X55404Y21820D01*
X56506Y55369D02*
X56680Y55195D01*
X56193Y55682D02*
X56367Y55508D01*
X56715Y55578D02*
X56889Y55404D01*
X56402Y55891D02*
X56576Y55717D01*
X56193Y55682D02*
X56402Y55891D01*
X56680Y55195D02*
X56889Y55404D01*
X23948Y56460D02*
X24122Y56286D01*
X24262Y56146D02*
X24436Y55972D01*
X23740Y56251D02*
X23914Y56077D01*
X24053Y55938D02*
X24227Y55764D01*
X24436Y55972D01*
X23740Y56251D02*
X23948Y56460D01*
X22440Y55601D02*
X22614Y55775D01*
X22127Y55288D02*
X22301Y55462D01*
X22231Y55810D02*
X22405Y55984D01*
X21918Y55497D02*
X22092Y55671D01*
X21918Y55497D02*
X22127Y55288D01*
X22405Y55984D02*
X22614Y55775D01*
X22228Y54732D02*
X22402Y54558D01*
X21915Y55045D02*
X22089Y54871D01*
X22437Y54941D02*
X22611Y54767D01*
X22124Y55254D02*
X22298Y55080D01*
X21915Y55045D02*
X22124Y55254D01*
X22402Y54558D02*
X22611Y54767D01*
X22249Y23948D02*
X22423Y24122D01*
X22562Y24262D02*
X22736Y24436D01*
X22458Y23740D02*
X22632Y23914D01*
X22771Y24053D02*
X22945Y24227D01*
X22736Y24436D02*
X22945Y24227D01*
X22249Y23948D02*
X22458Y23740D01*
X22933Y22614D02*
X23107Y22440D01*
X23247Y22301D02*
X23421Y22127D01*
X22725Y22405D02*
X22899Y22231D01*
X23038Y22092D02*
X23212Y21918D01*
X23421Y22127D01*
X22725Y22405D02*
X22933Y22614D01*
X23977Y22228D02*
X24151Y22402D01*
X23663Y21915D02*
X23837Y22089D01*
X23768Y22437D02*
X23942Y22611D01*
X23455Y22124D02*
X23629Y22298D01*
X23455Y22124D02*
X23663Y21915D01*
X23942Y22611D02*
X24151Y22402D01*
X54586Y22423D02*
X54760Y22249D01*
X54273Y22736D02*
X54447Y22562D01*
X54795Y22632D02*
X54969Y22458D01*
X54482Y22945D02*
X54656Y22771D01*
X54273Y22736D02*
X54482Y22945D01*
X54760Y22249D02*
X54969Y22458D01*
X56095Y22933D02*
X56269Y23107D01*
X56408Y23247D02*
X56582Y23421D01*
X56304Y22725D02*
X56478Y22899D01*
X56617Y23038D02*
X56791Y23212D01*
X56582Y23421D02*
X56791Y23212D01*
X56095Y22933D02*
X56304Y22725D01*
X56306Y24151D02*
X56480Y23977D01*
X56620Y23837D02*
X56794Y23663D01*
X56098Y23942D02*
X56272Y23768D01*
X56411Y23629D02*
X56585Y23455D01*
X56794Y23663D01*
X56098Y23942D02*
X56306Y24151D01*
X56286Y54586D02*
X56460Y54760D01*
X55972Y54273D02*
X56146Y54447D01*
X56077Y54795D02*
X56251Y54969D01*
X55764Y54482D02*
X55938Y54656D01*
X55764Y54482D02*
X55972Y54273D01*
X56251Y54969D02*
X56460Y54760D01*
X55601Y56269D02*
X55775Y56095D01*
X55288Y56582D02*
X55462Y56408D01*
X55810Y56478D02*
X55984Y56304D01*
X55497Y56791D02*
X55671Y56617D01*
X55288Y56582D02*
X55497Y56791D01*
X55775Y56095D02*
X55984Y56304D01*
X54558Y56306D02*
X54732Y56480D01*
X54871Y56620D02*
X55045Y56794D01*
X54767Y56098D02*
X54941Y56272D01*
X55080Y56411D02*
X55254Y56585D01*
X55045Y56794D02*
X55254Y56585D01*
X54558Y56306D02*
X54767Y56098D01*
X39421Y52712D02*
Y52987D01*
X38713Y52712D02*
Y52987D01*
X38968D01*
X39165D02*
X39421D01*
X38713Y52712D02*
X38968D01*
X39165D02*
X39421D01*
X38722Y54040D02*
Y54336D01*
X39411Y54040D02*
Y54336D01*
X39165Y54040D02*
X39411D01*
X38722D02*
X38969D01*
X39165Y54336D02*
X39411D01*
X38722D02*
X38969D01*
X26806Y58357D02*
X27015Y58565D01*
X26319Y58844D02*
X26528Y59053D01*
X26702Y58879D01*
X26841Y58739D02*
X27015Y58565D01*
X26319Y58844D02*
X26493Y58670D01*
X26632Y58531D02*
X26806Y58357D01*
X20101Y58858D02*
X20310Y58650D01*
X19614Y58371D02*
X19823Y58163D01*
X19614Y58371D02*
X19788Y58545D01*
X19927Y58684D02*
X20101Y58858D01*
X19823Y58163D02*
X19997Y58337D01*
X20136Y58476D02*
X20310Y58650D01*
X20099Y51684D02*
X20307Y51892D01*
X19611Y52171D02*
X19820Y52380D01*
X19994Y52206D01*
X20133Y52066D02*
X20307Y51892D01*
X19611Y52171D02*
X19785Y51997D01*
X19925Y51858D02*
X20099Y51684D01*
X20143Y27015D02*
X20352Y26806D01*
X19656Y26528D02*
X19865Y26319D01*
X19656Y26528D02*
X19830Y26702D01*
X19969Y26841D02*
X20143Y27015D01*
X19865Y26319D02*
X20039Y26493D01*
X20178Y26632D02*
X20352Y26806D01*
X19850Y20101D02*
X20059Y20310D01*
X20337Y19614D02*
X20546Y19823D01*
X20163Y19788D02*
X20337Y19614D01*
X19850Y20101D02*
X20024Y19927D01*
X20372Y19997D02*
X20546Y19823D01*
X20059Y20310D02*
X20233Y20136D01*
X26816Y20307D02*
X27025Y20099D01*
X26329Y19820D02*
X26538Y19611D01*
X26329Y19820D02*
X26503Y19994D01*
X26642Y20133D02*
X26816Y20307D01*
X26538Y19611D02*
X26712Y19785D01*
X26851Y19925D02*
X27025Y20099D01*
X51694Y20143D02*
X51903Y20352D01*
X52181Y19656D02*
X52390Y19865D01*
X52007Y19830D02*
X52181Y19656D01*
X51694Y20143D02*
X51868Y19969D01*
X52216Y20039D02*
X52390Y19865D01*
X51903Y20352D02*
X52077Y20178D01*
X58399Y20059D02*
X58607Y19850D01*
X58886Y20546D02*
X59095Y20337D01*
X58921Y20163D02*
X59095Y20337D01*
X58607Y19850D02*
X58781Y20024D01*
X58712Y20372D02*
X58886Y20546D01*
X58399Y20059D02*
X58573Y20233D01*
X58401Y26816D02*
X58610Y27025D01*
X58889Y26329D02*
X59097Y26538D01*
X58715Y26503D02*
X58889Y26329D01*
X58401Y26816D02*
X58575Y26642D01*
X58923Y26712D02*
X59097Y26538D01*
X58610Y27025D02*
X58784Y26851D01*
X58357Y51903D02*
X58565Y51694D01*
X58844Y52390D02*
X59053Y52181D01*
X58879Y52007D02*
X59053Y52181D01*
X58565Y51694D02*
X58739Y51868D01*
X58670Y52216D02*
X58844Y52390D01*
X58357Y51903D02*
X58531Y52077D01*
X58650Y58399D02*
X58858Y58607D01*
X58163Y58886D02*
X58371Y59095D01*
X58545Y58921D01*
X58684Y58781D02*
X58858Y58607D01*
X58163Y58886D02*
X58337Y58712D01*
X58476Y58573D02*
X58650Y58399D01*
X51677Y58603D02*
X51886Y58394D01*
X52164Y59090D02*
X52373Y58882D01*
X52199Y58708D02*
X52373Y58882D01*
X51886Y58394D02*
X52060Y58568D01*
X51990Y58916D02*
X52164Y59090D01*
X51677Y58603D02*
X51851Y58777D01*
X53834Y57016D02*
X54015Y57197D01*
X54154Y57337D02*
X54335Y57518D01*
X54029Y56822D02*
X54210Y57002D01*
X54349Y57142D02*
X54530Y57323D01*
X54335Y57518D02*
X54530Y57323D01*
X53834Y57016D02*
X54029Y56822D01*
X58161Y58870D02*
X58356Y58675D01*
X57660Y58369D02*
X57855Y58174D01*
X57660Y58369D02*
X57841Y58550D01*
X57980Y58689D02*
X58161Y58870D01*
X57855Y58174D02*
X58036Y58355D01*
X58175Y58494D02*
X58356Y58675D01*
X56332Y57000D02*
X56513Y56819D01*
X56012Y57320D02*
X56193Y57139D01*
X56527Y57195D02*
X56708Y57014D01*
X56207Y57515D02*
X56388Y57334D01*
X56012Y57320D02*
X56207Y57515D01*
X56513Y56819D02*
X56708Y57014D01*
X56999Y53872D02*
X57180Y54053D01*
X56679Y53552D02*
X56860Y53733D01*
X56805Y54067D02*
X56986Y54248D01*
X56484Y53747D02*
X56665Y53928D01*
X56484Y53747D02*
X56679Y53552D01*
X56986Y54248D02*
X57180Y54053D01*
X58605Y52218D02*
X58800Y52413D01*
X58104Y52719D02*
X58299Y52914D01*
X58480Y52733D01*
X58619Y52594D02*
X58800Y52413D01*
X58104Y52719D02*
X58285Y52538D01*
X58424Y52399D02*
X58605Y52218D01*
X58665Y26511D02*
X58860Y26316D01*
X58164Y26010D02*
X58359Y25815D01*
X58164Y26010D02*
X58345Y26191D01*
X58484Y26330D02*
X58665Y26511D01*
X58359Y25815D02*
X58540Y25996D01*
X58679Y26135D02*
X58860Y26316D01*
X57016Y24874D02*
X57197Y24693D01*
X57337Y24554D02*
X57517Y24373D01*
X56822Y24680D02*
X57002Y24499D01*
X57142Y24359D02*
X57323Y24178D01*
X57517Y24373D01*
X56822Y24680D02*
X57016Y24874D01*
X56819Y22196D02*
X57000Y22377D01*
X57139Y22516D02*
X57320Y22697D01*
X57014Y22001D02*
X57195Y22182D01*
X57334Y22321D02*
X57515Y22502D01*
X57320Y22697D02*
X57515Y22502D01*
X56819Y22196D02*
X57014Y22001D01*
X58675Y20352D02*
X58870Y20547D01*
X58174Y20853D02*
X58369Y21048D01*
X58550Y20867D01*
X58689Y20728D02*
X58870Y20547D01*
X58174Y20853D02*
X58355Y20673D01*
X58494Y20533D02*
X58675Y20352D01*
X53872Y21709D02*
X54053Y21528D01*
X53552Y22029D02*
X53733Y21848D01*
X54067Y21904D02*
X54248Y21723D01*
X53747Y22224D02*
X53928Y22043D01*
X53552Y22029D02*
X53747Y22224D01*
X54053Y21528D02*
X54248Y21723D01*
X52218Y20104D02*
X52413Y19909D01*
X52719Y20605D02*
X52914Y20410D01*
X52733Y20229D02*
X52914Y20410D01*
X52413Y19909D02*
X52594Y20090D01*
X52538Y20424D02*
X52719Y20605D01*
X52218Y20104D02*
X52399Y20285D01*
X24693Y21511D02*
X24874Y21692D01*
X24373Y21191D02*
X24554Y21372D01*
X24499Y21706D02*
X24680Y21887D01*
X24178Y21386D02*
X24359Y21567D01*
X24178Y21386D02*
X24373Y21191D01*
X24680Y21887D02*
X24874Y21692D01*
X26316Y19849D02*
X26511Y20044D01*
X25815Y20350D02*
X26010Y20545D01*
X26191Y20364D01*
X26330Y20225D02*
X26511Y20044D01*
X25815Y20350D02*
X25996Y20169D01*
X26135Y20030D02*
X26316Y19849D01*
X20352Y20034D02*
X20547Y19839D01*
X20853Y20535D02*
X21048Y20340D01*
X20867Y20159D02*
X21048Y20340D01*
X20547Y19839D02*
X20728Y20020D01*
X20673Y20354D02*
X20853Y20535D01*
X20352Y20034D02*
X20533Y20215D01*
X22196Y21890D02*
X22377Y21709D01*
X22516Y21570D02*
X22697Y21389D01*
X22001Y21695D02*
X22182Y21514D01*
X22321Y21375D02*
X22502Y21194D01*
X22697Y21389D01*
X22001Y21695D02*
X22196Y21890D01*
X21528Y24655D02*
X21709Y24836D01*
X21848Y24976D02*
X22029Y25157D01*
X21723Y24461D02*
X21904Y24642D01*
X22043Y24781D02*
X22224Y24962D01*
X22029Y25157D02*
X22224Y24962D01*
X21528Y24655D02*
X21723Y24461D01*
X19909Y26296D02*
X20104Y26491D01*
X20410Y25795D02*
X20605Y25990D01*
X20229Y25976D02*
X20410Y25795D01*
X19909Y26296D02*
X20090Y26115D01*
X20424Y26170D02*
X20605Y25990D01*
X20104Y26491D02*
X20285Y26310D01*
X19849Y52393D02*
X20044Y52198D01*
X20350Y52894D02*
X20545Y52699D01*
X20364Y52518D02*
X20545Y52699D01*
X20044Y52198D02*
X20225Y52379D01*
X20169Y52713D02*
X20350Y52894D01*
X19849Y52393D02*
X20030Y52574D01*
X21511Y54015D02*
X21692Y53834D01*
X21191Y54335D02*
X21372Y54154D01*
X21706Y54210D02*
X21887Y54029D01*
X21386Y54530D02*
X21567Y54349D01*
X21191Y54335D02*
X21386Y54530D01*
X21692Y53834D02*
X21887Y54029D01*
X19839Y58161D02*
X20034Y58356D01*
X20340Y57660D02*
X20535Y57855D01*
X20159Y57841D02*
X20340Y57660D01*
X19839Y58161D02*
X20020Y57980D01*
X20354Y58036D02*
X20535Y57855D01*
X20034Y58356D02*
X20215Y58175D01*
X21709Y56332D02*
X21890Y56513D01*
X21389Y56012D02*
X21570Y56193D01*
X21514Y56527D02*
X21695Y56708D01*
X21194Y56207D02*
X21375Y56388D01*
X21194Y56207D02*
X21389Y56012D01*
X21695Y56708D02*
X21890Y56513D01*
X24655Y57180D02*
X24836Y56999D01*
X24976Y56860D02*
X25157Y56679D01*
X24461Y56986D02*
X24642Y56805D01*
X24781Y56665D02*
X24962Y56484D01*
X25157Y56679D01*
X24461Y56986D02*
X24655Y57180D01*
X26296Y58800D02*
X26491Y58605D01*
X25795Y58299D02*
X25990Y58104D01*
X25795Y58299D02*
X25976Y58480D01*
X26115Y58619D02*
X26296Y58800D01*
X25990Y58104D02*
X26170Y58285D01*
X26310Y58424D02*
X26491Y58605D01*
X52191Y58675D02*
X52386Y58870D01*
X52692Y58174D02*
X52887Y58368D01*
X52511Y58355D02*
X52692Y58174D01*
X52191Y58675D02*
X52372Y58494D01*
X52706Y58549D02*
X52887Y58368D01*
X52386Y58870D02*
X52567Y58689D01*
X54266Y57016D02*
X54440Y56842D01*
X54579Y56703D02*
X54753Y56529D01*
X54057Y56808D02*
X54231Y56634D01*
X54370Y56494D02*
X54544Y56320D01*
X54753Y56529D01*
X54057Y56808D02*
X54266Y57016D01*
X56311Y56631D02*
X56485Y56805D01*
X55998Y56318D02*
X56172Y56492D01*
X56102Y56840D02*
X56276Y57014D01*
X55789Y56526D02*
X55963Y56700D01*
X55789Y56526D02*
X55998Y56318D01*
X56276Y57014D02*
X56485Y56805D01*
X56575Y54227D02*
X56749Y54053D01*
X56262Y54540D02*
X56436Y54366D01*
X56784Y54436D02*
X56958Y54262D01*
X56470Y54749D02*
X56644Y54575D01*
X56262Y54540D02*
X56470Y54749D01*
X56749Y54053D02*
X56958Y54262D01*
X54053Y21960D02*
X54227Y22134D01*
X54366Y22273D02*
X54540Y22447D01*
X54262Y21751D02*
X54436Y21925D01*
X54575Y22064D02*
X54749Y22238D01*
X54540Y22447D02*
X54749Y22238D01*
X54053Y21960D02*
X54262Y21751D01*
X56631Y22397D02*
X56805Y22223D01*
X56318Y22711D02*
X56492Y22537D01*
X56840Y22606D02*
X57014Y22432D01*
X56526Y22919D02*
X56700Y22745D01*
X56318Y22711D02*
X56526Y22919D01*
X56805Y22223D02*
X57014Y22432D01*
X56842Y24269D02*
X57016Y24443D01*
X56529Y23956D02*
X56703Y24130D01*
X56634Y24478D02*
X56808Y24652D01*
X56320Y24165D02*
X56494Y24339D01*
X56320Y24165D02*
X56529Y23956D01*
X56808Y24652D02*
X57016Y24443D01*
X21751Y24447D02*
X21960Y24655D01*
X22238Y23959D02*
X22447Y24168D01*
X22064Y24133D02*
X22238Y23959D01*
X21751Y24447D02*
X21925Y24273D01*
X22273Y24342D02*
X22447Y24168D01*
X21960Y24655D02*
X22134Y24481D01*
X22223Y21904D02*
X22432Y21695D01*
X22711Y22391D02*
X22919Y22182D01*
X22745Y22008D02*
X22919Y22182D01*
X22432Y21695D02*
X22606Y21869D01*
X22537Y22217D02*
X22711Y22391D01*
X22223Y21904D02*
X22397Y22078D01*
X24443Y21692D02*
X24652Y21901D01*
X23956Y22179D02*
X24165Y22388D01*
X24339Y22214D01*
X24478Y22075D02*
X24652Y21901D01*
X23956Y22179D02*
X24130Y22005D01*
X24269Y21866D02*
X24443Y21692D01*
X24481Y56575D02*
X24655Y56749D01*
X24168Y56262D02*
X24342Y56436D01*
X24273Y56784D02*
X24447Y56958D01*
X23959Y56470D02*
X24133Y56644D01*
X23959Y56470D02*
X24168Y56262D01*
X24447Y56958D02*
X24655Y56749D01*
X21904Y56485D02*
X22078Y56311D01*
X22217Y56172D02*
X22391Y55998D01*
X21695Y56276D02*
X21869Y56102D01*
X22008Y55963D02*
X22182Y55789D01*
X22391Y55998D01*
X21695Y56276D02*
X21904Y56485D01*
X21692Y54266D02*
X21866Y54440D01*
X22005Y54579D02*
X22179Y54753D01*
X21901Y54057D02*
X22075Y54231D01*
X22214Y54370D02*
X22388Y54544D01*
X22179Y54753D02*
X22388Y54544D01*
X21692Y54266D02*
X21901Y54057D01*
X40782Y26318D02*
Y26613D01*
X40093Y26318D02*
Y26613D01*
X40339D01*
X40536D02*
X40782D01*
X40093Y26318D02*
X40339D01*
X40536D02*
X40782D01*
X54195Y53845D02*
X54376Y54026D01*
X53874Y53525D02*
X54055Y53706D01*
X54000Y54040D02*
X54181Y54221D01*
X53680Y53720D02*
X53861Y53901D01*
X53680Y53720D02*
X53874Y53525D01*
X54181Y54221D02*
X54376Y54026D01*
X53803Y24572D02*
X53984Y24391D01*
X53483Y24892D02*
X53664Y24711D01*
X53998Y24767D02*
X54179Y24586D01*
X53678Y25087D02*
X53858Y24906D01*
X53483Y24892D02*
X53678Y25087D01*
X53984Y24391D02*
X54179Y24586D01*
X24388Y24704D02*
X24583Y24509D01*
X24889Y25205D02*
X25084Y25011D01*
X24903Y24830D02*
X25084Y25011D01*
X24583Y24509D02*
X24764Y24690D01*
X24708Y25024D02*
X24889Y25205D01*
X24388Y24704D02*
X24569Y24885D01*
X24506Y54144D02*
X24701Y54339D01*
X25007Y53643D02*
X25202Y53838D01*
X24827Y53824D02*
X25007Y53643D01*
X24506Y54144D02*
X24687Y53963D01*
X25021Y54019D02*
X25202Y53838D01*
X24701Y54339D02*
X24882Y54158D01*
X39402Y53617D02*
Y53873D01*
Y53164D02*
Y53420D01*
X39126Y53617D02*
Y53873D01*
Y53164D02*
Y53420D01*
Y53164D02*
X39402D01*
X39126Y53873D02*
X39402D01*
X39116Y40851D02*
X39411D01*
X39116Y41540D02*
X39411D01*
Y41294D02*
Y41540D01*
Y40851D02*
Y41098D01*
X39116Y41294D02*
Y41540D01*
Y40851D02*
Y41098D01*
D13*
X39539Y26275D02*
X39889D01*
X39539Y26675D02*
X39889D01*
Y26275D02*
Y26675D01*
X38839Y26375D02*
Y26575D01*
X38939Y26275D02*
Y26675D01*
Y26275D02*
X39289D01*
X38839Y26375D02*
X38939Y26275D01*
Y26675D02*
X39289D01*
X38839Y26575D02*
X38939Y26675D01*
X25267Y56570D02*
X25091Y56393D01*
X25208Y56275D01*
X25415Y56363D02*
X25473D01*
X25532Y56304D01*
Y56246D01*
X25503Y56216D01*
X25444D01*
X25415Y56246D01*
X25444Y56216D01*
X25444Y56157D01*
X25415Y56128D01*
X25356D01*
X25297Y56187D01*
Y56246D01*
X25444Y56039D02*
X25503Y55980D01*
X25473Y56010D01*
X25650Y56187D01*
X25591D01*
X25886Y55951D02*
X25797Y55980D01*
X25680D01*
X25621Y55922D01*
Y55863D01*
X25680Y55804D01*
X25739D01*
X25768Y55833D01*
Y55892D01*
X25680Y55980D01*
X20465Y55428D02*
X20642Y55251D01*
X20760Y55369D01*
X20671Y55575D02*
Y55634D01*
X20730Y55693D01*
X20789D01*
X20818Y55663D01*
Y55605D01*
X20789Y55575D01*
X20818Y55605D01*
X20877Y55605D01*
X20907Y55575D01*
Y55516D01*
X20848Y55457D01*
X20789D01*
X20995Y55605D02*
X21054Y55663D01*
X21025Y55634D01*
X20848Y55811D01*
Y55752D01*
X21084Y56046D02*
X20966Y55928D01*
X21054Y55840D01*
X21084Y55928D01*
X21113Y55958D01*
X21172D01*
X21231Y55899D01*
Y55840D01*
X21172Y55781D01*
X21113D01*
X22039Y53853D02*
X21862Y53676D01*
X21980Y53558D01*
X22186Y53647D02*
X22245D01*
X22304Y53588D01*
Y53529D01*
X22275Y53500D01*
X22216D01*
X22186Y53529D01*
X22216Y53500D01*
X22216Y53441D01*
X22186Y53411D01*
X22127D01*
X22068Y53470D01*
Y53529D01*
X22216Y53323D02*
X22275Y53264D01*
X22245Y53293D01*
X22422Y53470D01*
X22363D01*
X22451Y53087D02*
X22628Y53264D01*
X22451Y53264D01*
X22569Y53146D01*
X22158Y25270D02*
X22335Y25094D01*
X22452Y25211D01*
X22364Y25418D02*
Y25476D01*
X22423Y25535D01*
X22482D01*
X22511Y25506D01*
Y25447D01*
X22482Y25418D01*
X22511Y25447D01*
X22570Y25447D01*
X22600Y25418D01*
Y25359D01*
X22541Y25300D01*
X22482D01*
X22688Y25447D02*
X22747Y25506D01*
X22718Y25476D01*
X22541Y25653D01*
Y25594D01*
X22688Y25742D02*
Y25800D01*
X22747Y25859D01*
X22806D01*
X22835Y25830D01*
Y25771D01*
X22806Y25742D01*
X22835Y25771D01*
X22894D01*
X22924Y25742D01*
Y25683D01*
X22865Y25624D01*
X22806D01*
X22787Y21294D02*
X22610Y21117D01*
X22728Y20999D01*
X22934Y21088D02*
X22993D01*
X23052Y21029D01*
Y20970D01*
X23023Y20940D01*
X22964D01*
X22934Y20970D01*
X22964Y20940D01*
X22964Y20882D01*
X22934Y20852D01*
X22875D01*
X22816Y20911D01*
Y20970D01*
X22964Y20764D02*
X23023Y20705D01*
X22993Y20734D01*
X23170Y20911D01*
X23111D01*
X23229Y20499D02*
X23111Y20616D01*
X23347D01*
X23376Y20646D01*
Y20705D01*
X23317Y20764D01*
X23258D01*
X24874Y22042D02*
X25051Y21865D01*
X25169Y21983D01*
X25081Y22189D02*
Y22248D01*
X25140Y22307D01*
X25198D01*
X25228Y22278D01*
Y22219D01*
X25198Y22189D01*
X25228Y22219D01*
X25287Y22219D01*
X25316Y22189D01*
Y22130D01*
X25257Y22071D01*
X25198D01*
X25405Y22219D02*
X25464Y22278D01*
X25434Y22248D01*
X25257Y22425D01*
Y22366D01*
X25552D02*
X25611Y22425D01*
X25581Y22395D01*
X25405Y22572D01*
Y22513D01*
X53023Y22947D02*
X52846Y22771D01*
X52964Y22653D01*
X53170Y22741D02*
X53229D01*
X53288Y22682D01*
Y22623D01*
X53259Y22594D01*
X53200D01*
X53170Y22623D01*
X53200Y22594D01*
X53200Y22535D01*
X53170Y22506D01*
X53112D01*
X53053Y22565D01*
Y22623D01*
X53200Y22417D02*
X53259Y22358D01*
X53229Y22388D01*
X53406Y22565D01*
X53347D01*
X53494Y22417D02*
X53553D01*
X53612Y22358D01*
Y22299D01*
X53494Y22182D01*
X53436D01*
X53377Y22241D01*
Y22299D01*
X53494Y22417D01*
X57434Y22790D02*
X57610Y22613D01*
X57728Y22731D01*
X57640Y22937D02*
Y22996D01*
X57699Y23055D01*
X57758D01*
X57787Y23026D01*
Y22967D01*
X57758Y22937D01*
X57787Y22967D01*
X57846Y22967D01*
X57875Y22937D01*
Y22878D01*
X57816Y22819D01*
X57758D01*
X57816Y23114D02*
Y23173D01*
X57875Y23232D01*
X57934D01*
X58052Y23114D01*
Y23055D01*
X57993Y22996D01*
X57934D01*
X57816Y23114D01*
X58111Y23173D02*
X58170D01*
X58229Y23232D01*
Y23291D01*
X58111Y23409D01*
X58052D01*
X57993Y23350D01*
Y23291D01*
X58023Y23261D01*
X58081D01*
X58170Y23350D01*
X56173Y25664D02*
X55996Y25487D01*
X56114Y25369D01*
X56320Y25458D02*
X56379D01*
X56438Y25399D01*
Y25340D01*
X56408Y25311D01*
X56350D01*
X56320Y25340D01*
X56350Y25311D01*
X56350Y25252D01*
X56320Y25222D01*
X56261D01*
X56202Y25281D01*
Y25340D01*
X56497Y25281D02*
X56556D01*
X56615Y25222D01*
Y25163D01*
X56497Y25045D01*
X56438D01*
X56379Y25104D01*
Y25163D01*
X56497Y25281D01*
X56673Y25104D02*
X56732D01*
X56791Y25045D01*
Y24987D01*
X56762Y24957D01*
X56703D01*
Y24898D01*
X56673Y24869D01*
X56615D01*
X56556Y24928D01*
Y24987D01*
X56585Y25016D01*
X56644Y25016D01*
Y25075D01*
X56673Y25104D01*
X56644Y25016D02*
X56703Y24957D01*
X55741Y52987D02*
X55917Y52810D01*
X56035Y52928D01*
X55947Y53134D02*
Y53193D01*
X56006Y53252D01*
X56065D01*
X56094Y53222D01*
Y53164D01*
X56065Y53134D01*
X56094Y53164D01*
X56153Y53164D01*
X56182Y53134D01*
Y53075D01*
X56123Y53016D01*
X56065D01*
X56123Y53311D02*
Y53370D01*
X56182Y53429D01*
X56241D01*
X56359Y53311D01*
Y53252D01*
X56300Y53193D01*
X56241D01*
X56123Y53311D01*
X56271Y53517D02*
X56389Y53635D01*
X56418Y53605D01*
Y53370D01*
X56447Y53340D01*
X56842Y56845D02*
X56665Y56668D01*
X56783Y56551D01*
X56989Y56639D02*
X57048D01*
X57107Y56580D01*
Y56521D01*
X57078Y56492D01*
X57019D01*
X56989Y56521D01*
X57019Y56492D01*
X57019Y56433D01*
X56989Y56403D01*
X56930D01*
X56872Y56462D01*
Y56521D01*
X57166Y56462D02*
X57225D01*
X57284Y56403D01*
Y56344D01*
X57166Y56227D01*
X57107D01*
X57048Y56285D01*
Y56344D01*
X57166Y56462D01*
X57490Y56197D02*
X57402Y56227D01*
X57284D01*
X57225Y56168D01*
Y56109D01*
X57284Y56050D01*
X57343D01*
X57372Y56079D01*
Y56138D01*
X57284Y56227D01*
X53022Y56187D02*
X53199Y56011D01*
X53317Y56128D01*
X53228Y56335D02*
Y56393D01*
X53287Y56452D01*
X53346D01*
X53376Y56423D01*
Y56364D01*
X53346Y56335D01*
X53376Y56364D01*
X53434Y56364D01*
X53464Y56335D01*
Y56276D01*
X53405Y56217D01*
X53346D01*
X53405Y56511D02*
Y56570D01*
X53464Y56629D01*
X53523D01*
X53641Y56511D01*
Y56452D01*
X53582Y56393D01*
X53523D01*
X53405Y56511D01*
X53670Y56835D02*
X53552Y56717D01*
X53641Y56629D01*
X53670Y56717D01*
X53700Y56747D01*
X53758D01*
X53817Y56688D01*
Y56629D01*
X53758Y56570D01*
X53700D01*
X25573Y58744D02*
X25514D01*
X25455Y58686D01*
Y58627D01*
X25573Y58509D01*
X25632D01*
X25691Y58568D01*
Y58627D01*
X25632Y58803D02*
Y58862D01*
X25691Y58921D01*
X25750D01*
X25779Y58892D01*
Y58833D01*
X25750Y58803D01*
X25779Y58833D01*
X25838Y58833D01*
X25867Y58803D01*
Y58744D01*
X25809Y58686D01*
X25750D01*
X26044Y58921D02*
X25867Y59098D01*
Y58921D01*
X25985Y59039D01*
X26133Y59010D02*
X26191Y59068D01*
X26162Y59039D01*
X25985Y59216D01*
Y59157D01*
X19765Y57840D02*
Y57898D01*
X19706Y57957D01*
X19647D01*
X19529Y57840D01*
Y57781D01*
X19588Y57722D01*
X19647D01*
X19824Y57781D02*
X19883D01*
X19942Y57722D01*
Y57663D01*
X19912Y57633D01*
X19853D01*
X19824Y57663D01*
X19853Y57633D01*
X19853Y57574D01*
X19824Y57545D01*
X19765D01*
X19706Y57604D01*
Y57663D01*
X19942Y57368D02*
X20119Y57545D01*
X19942D01*
X20060Y57427D01*
X20177D02*
X20236D01*
X20295Y57368D01*
Y57309D01*
X20177Y57192D01*
X20119D01*
X20060Y57250D01*
Y57309D01*
X20177Y57427D01*
X20415Y52170D02*
X20357D01*
X20298Y52111D01*
Y52052D01*
X20415Y51934D01*
X20474D01*
X20533Y51993D01*
Y52052D01*
X20474Y52229D02*
Y52287D01*
X20533Y52346D01*
X20592D01*
X20622Y52317D01*
Y52258D01*
X20592Y52229D01*
X20622Y52258D01*
X20681Y52258D01*
X20710Y52229D01*
Y52170D01*
X20651Y52111D01*
X20592D01*
X20651Y52405D02*
Y52464D01*
X20710Y52523D01*
X20769D01*
X20798Y52494D01*
Y52435D01*
X20769Y52405D01*
X20798Y52435D01*
X20857Y52435D01*
X20887Y52405D01*
Y52346D01*
X20828Y52287D01*
X20769D01*
X20946Y52464D02*
X21004D01*
X21063Y52523D01*
Y52582D01*
X20946Y52700D01*
X20887D01*
X20828Y52641D01*
Y52582D01*
X20857Y52553D01*
X20916D01*
X21004Y52641D01*
X19844Y25950D02*
Y26009D01*
X19785Y26068D01*
X19726D01*
X19608Y25950D01*
Y25891D01*
X19667Y25832D01*
X19726D01*
X19903Y25891D02*
X19962D01*
X20021Y25832D01*
Y25773D01*
X19991Y25744D01*
X19932D01*
X19903Y25773D01*
X19932Y25744D01*
X19932Y25685D01*
X19903Y25655D01*
X19844D01*
X19785Y25714D01*
Y25773D01*
X20079Y25714D02*
X20138D01*
X20197Y25655D01*
Y25596D01*
X20168Y25567D01*
X20109D01*
X20079Y25596D01*
X20109Y25567D01*
X20109Y25508D01*
X20079Y25479D01*
X20021D01*
X19962Y25537D01*
Y25596D01*
X20256Y25537D02*
X20315D01*
X20374Y25479D01*
Y25420D01*
X20345Y25390D01*
X20286D01*
Y25331D01*
X20256Y25302D01*
X20197D01*
X20138Y25361D01*
Y25420D01*
X20168Y25449D01*
X20227Y25449D01*
Y25508D01*
X20256Y25537D01*
X20227Y25449D02*
X20286Y25390D01*
X20888Y19768D02*
X20829D01*
X20770Y19709D01*
Y19650D01*
X20888Y19532D01*
X20947D01*
X21006Y19591D01*
Y19650D01*
X20947Y19827D02*
Y19886D01*
X21006Y19945D01*
X21065D01*
X21094Y19915D01*
Y19856D01*
X21065Y19827D01*
X21094Y19856D01*
X21153Y19856D01*
X21182Y19827D01*
Y19768D01*
X21123Y19709D01*
X21065D01*
X21123Y20004D02*
Y20063D01*
X21182Y20122D01*
X21241D01*
X21271Y20092D01*
Y20033D01*
X21241Y20004D01*
X21271Y20033D01*
X21330Y20033D01*
X21359Y20004D01*
Y19945D01*
X21300Y19886D01*
X21241D01*
X21271Y20210D02*
X21389Y20328D01*
X21418Y20298D01*
Y20063D01*
X21447Y20033D01*
X25710Y20005D02*
Y20064D01*
X25651Y20123D01*
X25592D01*
X25474Y20005D01*
Y19946D01*
X25533Y19887D01*
X25592D01*
X25769Y19946D02*
X25828D01*
X25887Y19887D01*
Y19828D01*
X25857Y19799D01*
X25798D01*
X25769Y19828D01*
X25798Y19799D01*
X25798Y19740D01*
X25769Y19710D01*
X25710D01*
X25651Y19769D01*
Y19828D01*
X25946Y19769D02*
X26004D01*
X26063Y19710D01*
Y19651D01*
X26034Y19622D01*
X25975D01*
X25946Y19651D01*
X25975Y19622D01*
X25975Y19563D01*
X25946Y19534D01*
X25887D01*
X25828Y19593D01*
Y19651D01*
X26270Y19504D02*
X26181Y19534D01*
X26063D01*
X26004Y19475D01*
Y19416D01*
X26063Y19357D01*
X26122D01*
X26152Y19386D01*
Y19445D01*
X26063Y19534D01*
X52738Y19807D02*
X52679D01*
X52620Y19749D01*
Y19690D01*
X52738Y19572D01*
X52797D01*
X52856Y19631D01*
Y19690D01*
X52797Y19866D02*
Y19925D01*
X52856Y19984D01*
X52915D01*
X52944Y19955D01*
Y19896D01*
X52915Y19866D01*
X52944Y19896D01*
X53003Y19896D01*
X53033Y19866D01*
Y19807D01*
X52974Y19749D01*
X52915D01*
X52974Y20043D02*
Y20102D01*
X53033Y20161D01*
X53092D01*
X53121Y20131D01*
Y20073D01*
X53092Y20043D01*
X53121Y20073D01*
X53180Y20073D01*
X53210Y20043D01*
Y19984D01*
X53151Y19925D01*
X53092D01*
X53239Y20367D02*
X53121Y20249D01*
X53210Y20161D01*
X53239Y20249D01*
X53268Y20279D01*
X53327D01*
X53386Y20220D01*
Y20161D01*
X53327Y20102D01*
X53268D01*
X58781Y21265D02*
Y21324D01*
X58722Y21383D01*
X58663D01*
X58545Y21265D01*
Y21206D01*
X58604Y21147D01*
X58663D01*
X58840Y21206D02*
X58899D01*
X58958Y21147D01*
Y21088D01*
X58928Y21059D01*
X58869D01*
X58840Y21088D01*
X58869Y21059D01*
X58869Y21000D01*
X58840Y20970D01*
X58781D01*
X58722Y21029D01*
Y21088D01*
X59016Y21029D02*
X59075D01*
X59134Y20970D01*
Y20911D01*
X59105Y20882D01*
X59046D01*
X59016Y20911D01*
X59046Y20882D01*
X59046Y20823D01*
X59016Y20794D01*
X58958D01*
X58899Y20852D01*
Y20911D01*
X59134Y20617D02*
X59311Y20794D01*
X59134Y20794D01*
X59252Y20676D01*
X58644Y25713D02*
X58585D01*
X58526Y25654D01*
Y25595D01*
X58644Y25477D01*
X58703D01*
X58762Y25536D01*
Y25595D01*
X58703Y25772D02*
Y25831D01*
X58762Y25890D01*
X58821D01*
X58850Y25860D01*
Y25801D01*
X58821Y25772D01*
X58850Y25801D01*
X58909Y25801D01*
X58938Y25772D01*
Y25713D01*
X58879Y25654D01*
X58821D01*
X58879Y25949D02*
Y26008D01*
X58938Y26066D01*
X58997D01*
X59027Y26037D01*
Y25978D01*
X58997Y25949D01*
X59027Y25978D01*
X59086Y25978D01*
X59115Y25949D01*
Y25890D01*
X59056Y25831D01*
X58997D01*
X59056Y26125D02*
Y26184D01*
X59115Y26243D01*
X59174D01*
X59203Y26214D01*
Y26155D01*
X59174Y26125D01*
X59203Y26155D01*
X59262D01*
X59292Y26125D01*
Y26066D01*
X59233Y26008D01*
X59174D01*
X58741Y53115D02*
Y53174D01*
X58683Y53233D01*
X58624D01*
X58506Y53115D01*
Y53056D01*
X58565Y52997D01*
X58624D01*
X58800Y53056D02*
X58859D01*
X58918Y52997D01*
Y52938D01*
X58889Y52909D01*
X58830D01*
X58800Y52938D01*
X58830Y52909D01*
X58830Y52850D01*
X58800Y52821D01*
X58741D01*
X58683Y52880D01*
Y52938D01*
X58977Y52880D02*
X59036D01*
X59095Y52821D01*
Y52762D01*
X59065Y52732D01*
X59007D01*
X58977Y52762D01*
X59007Y52732D01*
X59007Y52673D01*
X58977Y52644D01*
X58918D01*
X58859Y52703D01*
Y52762D01*
X59124Y52438D02*
X59007Y52556D01*
X59242D01*
X59272Y52585D01*
Y52644D01*
X59213Y52703D01*
X59154D01*
X57456Y58784D02*
X57397D01*
X57339Y58725D01*
Y58666D01*
X57456Y58548D01*
X57515D01*
X57574Y58607D01*
Y58666D01*
X57515Y58843D02*
Y58902D01*
X57574Y58961D01*
X57633D01*
X57663Y58931D01*
Y58872D01*
X57633Y58843D01*
X57663Y58872D01*
X57721Y58872D01*
X57751Y58843D01*
Y58784D01*
X57692Y58725D01*
X57633D01*
X57692Y59019D02*
Y59078D01*
X57751Y59137D01*
X57810D01*
X57839Y59108D01*
Y59049D01*
X57810Y59019D01*
X57839Y59049D01*
X57898Y59049D01*
X57928Y59019D01*
Y58961D01*
X57869Y58902D01*
X57810D01*
X58016Y59049D02*
X58075Y59108D01*
X58045Y59078D01*
X57869Y59255D01*
Y59196D01*
X52838Y59069D02*
Y59128D01*
X52779Y59187D01*
X52720D01*
X52602Y59069D01*
Y59010D01*
X52661Y58951D01*
X52720D01*
X52897Y59010D02*
X52955D01*
X53014Y58951D01*
Y58892D01*
X52985Y58863D01*
X52926D01*
X52897Y58892D01*
X52926Y58863D01*
X52926Y58804D01*
X52897Y58774D01*
X52838D01*
X52779Y58833D01*
Y58892D01*
X53073Y58833D02*
X53132D01*
X53191Y58774D01*
Y58715D01*
X53162Y58686D01*
X53103D01*
X53073Y58715D01*
X53103Y58686D01*
X53103Y58627D01*
X53073Y58598D01*
X53014D01*
X52955Y58656D01*
Y58715D01*
X53250Y58656D02*
X53309D01*
X53368Y58598D01*
Y58539D01*
X53250Y58421D01*
X53191D01*
X53132Y58480D01*
Y58539D01*
X53250Y58656D01*
X39657Y40527D02*
Y40777D01*
X39782D01*
X39824Y40735D01*
Y40652D01*
X39782Y40610D01*
X39657D01*
X39741D02*
X39824Y40527D01*
X40074Y40777D02*
X39907D01*
Y40652D01*
X39991Y40693D01*
X40032D01*
X40074Y40652D01*
Y40568D01*
X40032Y40527D01*
X39949D01*
X39907Y40568D01*
X40157Y40735D02*
X40199Y40777D01*
X40282D01*
X40324Y40735D01*
Y40568D01*
X40282Y40527D01*
X40199D01*
X40157Y40568D01*
Y40735D01*
X40407Y40777D02*
X40574D01*
Y40735D01*
X40407Y40568D01*
Y40527D01*
X39657Y41629D02*
Y41879D01*
X39782D01*
X39824Y41837D01*
Y41754D01*
X39782Y41712D01*
X39657D01*
X39741D02*
X39824Y41629D01*
X40074Y41879D02*
X39907D01*
Y41754D01*
X39991Y41796D01*
X40032D01*
X40074Y41754D01*
Y41671D01*
X40032Y41629D01*
X39949D01*
X39907Y41671D01*
X40157Y41837D02*
X40199Y41879D01*
X40282D01*
X40324Y41837D01*
Y41671D01*
X40282Y41629D01*
X40199D01*
X40157Y41671D01*
Y41837D01*
X40574Y41879D02*
X40491Y41837D01*
X40407Y41754D01*
Y41671D01*
X40449Y41629D01*
X40532D01*
X40574Y41671D01*
Y41712D01*
X40532Y41754D01*
X40407D01*
X39657Y41078D02*
Y41328D01*
X39782D01*
X39824Y41286D01*
Y41203D01*
X39782Y41161D01*
X39657D01*
X39741D02*
X39824Y41078D01*
X40074Y41328D02*
X39907D01*
Y41203D01*
X39991Y41244D01*
X40032D01*
X40074Y41203D01*
Y41119D01*
X40032Y41078D01*
X39949D01*
X39907Y41119D01*
X40157Y41286D02*
X40199Y41328D01*
X40282D01*
X40324Y41286D01*
Y41119D01*
X40282Y41078D01*
X40199D01*
X40157Y41119D01*
Y41286D01*
X40574Y41328D02*
X40407D01*
Y41203D01*
X40491Y41244D01*
X40532D01*
X40574Y41203D01*
Y41119D01*
X40532Y41078D01*
X40449D01*
X40407Y41119D01*
X39657Y52981D02*
Y52731D01*
X39824D01*
X40074Y52981D02*
X39907D01*
Y52856D01*
X39991Y52898D01*
X40032D01*
X40074Y52856D01*
Y52773D01*
X40032Y52731D01*
X39949D01*
X39907Y52773D01*
X40157Y52940D02*
X40199Y52981D01*
X40282D01*
X40324Y52940D01*
Y52773D01*
X40282Y52731D01*
X40199D01*
X40157Y52773D01*
Y52940D01*
X40407Y52731D02*
X40491D01*
X40449D01*
Y52981D01*
X40407Y52940D01*
X39824Y53609D02*
X39782Y53651D01*
X39699D01*
X39657Y53609D01*
Y53442D01*
X39699Y53401D01*
X39782D01*
X39824Y53442D01*
X40074Y53651D02*
X39907D01*
Y53526D01*
X39991Y53567D01*
X40032D01*
X40074Y53526D01*
Y53442D01*
X40032Y53401D01*
X39949D01*
X39907Y53442D01*
X40157Y53609D02*
X40199Y53651D01*
X40282D01*
X40324Y53609D01*
Y53442D01*
X40282Y53401D01*
X40199D01*
X40157Y53442D01*
Y53609D01*
X40574Y53401D02*
X40407D01*
X40574Y53567D01*
Y53609D01*
X40532Y53651D01*
X40449D01*
X40407Y53609D01*
X25051Y54818D02*
X24874Y54995D01*
X24963Y55083D01*
X25022D01*
X25081Y55024D01*
X25081Y54965D01*
X24992Y54877D01*
X25051Y54936D02*
X25169Y54936D01*
X25081Y55142D02*
Y55201D01*
X25140Y55260D01*
X25198D01*
X25228Y55230D01*
Y55171D01*
X25198Y55142D01*
X25228Y55171D01*
X25287Y55171D01*
X25316Y55142D01*
Y55083D01*
X25257Y55024D01*
X25198D01*
X25493Y55260D02*
X25316Y55437D01*
Y55260D01*
X25434Y55378D01*
Y55495D02*
Y55554D01*
X25493Y55613D01*
X25552D01*
X25581Y55584D01*
Y55525D01*
X25640D01*
X25670Y55495D01*
Y55437D01*
X25611Y55378D01*
X25552D01*
X25522Y55407D01*
X25522Y55466D01*
X25464D01*
X25434Y55495D01*
X25522Y55466D02*
X25581Y55525D01*
X36980Y38401D02*
Y38651D01*
X37105D01*
X37147Y38609D01*
Y38526D01*
X37105Y38484D01*
X36980D01*
X37064D02*
X37147Y38401D01*
X37230Y38609D02*
X37272Y38651D01*
X37355D01*
X37397Y38609D01*
Y38567D01*
X37355Y38526D01*
X37314D01*
X37355D01*
X37397Y38484D01*
Y38442D01*
X37355Y38401D01*
X37272D01*
X37230Y38442D01*
X37605Y38401D02*
Y38651D01*
X37480Y38526D01*
X37647D01*
X37730Y38651D02*
X37897D01*
Y38609D01*
X37730Y38442D01*
Y38401D01*
X24508Y24070D02*
X24684Y24247D01*
X24773Y24158D01*
Y24099D01*
X24714Y24041D01*
X24655Y24041D01*
X24567Y24129D01*
X24626Y24070D02*
X24626Y23952D01*
X24832Y24041D02*
X24891D01*
X24950Y23982D01*
Y23923D01*
X24920Y23893D01*
X24861D01*
X24832Y23923D01*
X24861Y23893D01*
X24861Y23834D01*
X24832Y23805D01*
X24773D01*
X24714Y23864D01*
Y23923D01*
X24950Y23628D02*
X25126Y23805D01*
X24950D01*
X25067Y23687D01*
X25332Y23599D02*
X25244Y23628D01*
X25126D01*
X25067Y23569D01*
Y23510D01*
X25126Y23451D01*
X25185D01*
X25215Y23481D01*
Y23540D01*
X25126Y23628D01*
X37413Y37849D02*
Y38099D01*
X37538D01*
X37580Y38058D01*
Y37974D01*
X37538Y37933D01*
X37413D01*
X37497D02*
X37580Y37849D01*
X37663Y38058D02*
X37705Y38099D01*
X37788D01*
X37830Y38058D01*
Y38016D01*
X37788Y37974D01*
X37747D01*
X37788D01*
X37830Y37933D01*
Y37891D01*
X37788Y37849D01*
X37705D01*
X37663Y37891D01*
X38038Y37849D02*
Y38099D01*
X37913Y37974D01*
X38080D01*
X38330Y38099D02*
X38163D01*
Y37974D01*
X38246Y38016D01*
X38288D01*
X38330Y37974D01*
Y37891D01*
X38288Y37849D01*
X38205D01*
X38163Y37891D01*
X54635Y24492D02*
X54458Y24669D01*
X54547Y24757D01*
X54606D01*
X54665Y24698D01*
X54665Y24639D01*
X54576Y24551D01*
X54635Y24610D02*
X54753Y24610D01*
X54665Y24816D02*
Y24875D01*
X54724Y24934D01*
X54782D01*
X54812Y24904D01*
Y24845D01*
X54782Y24816D01*
X54812Y24845D01*
X54871Y24845D01*
X54900Y24816D01*
Y24757D01*
X54841Y24698D01*
X54782D01*
X55077Y24934D02*
X54900Y25110D01*
Y24934D01*
X55018Y25051D01*
X55254Y25110D02*
X55077Y25287D01*
X55077Y25110D01*
X55195Y25228D01*
X40366Y37889D02*
Y38139D01*
X40491D01*
X40533Y38097D01*
Y38014D01*
X40491Y37972D01*
X40366D01*
X40449D02*
X40533Y37889D01*
X40616Y38097D02*
X40658Y38139D01*
X40741D01*
X40783Y38097D01*
Y38055D01*
X40741Y38014D01*
X40699D01*
X40741D01*
X40783Y37972D01*
Y37931D01*
X40741Y37889D01*
X40658D01*
X40616Y37931D01*
X40991Y37889D02*
Y38139D01*
X40866Y38014D01*
X41033D01*
X41116Y38097D02*
X41158Y38139D01*
X41241D01*
X41283Y38097D01*
Y38055D01*
X41241Y38014D01*
X41199D01*
X41241D01*
X41283Y37972D01*
Y37931D01*
X41241Y37889D01*
X41158D01*
X41116Y37931D01*
X54343Y53558D02*
X54519Y53735D01*
X54608Y53646D01*
Y53588D01*
X54549Y53529D01*
X54490Y53529D01*
X54401Y53617D01*
X54460Y53558D02*
X54460Y53440D01*
X54667Y53529D02*
X54725D01*
X54784Y53470D01*
Y53411D01*
X54755Y53381D01*
X54696D01*
X54667Y53411D01*
X54696Y53381D01*
X54696Y53323D01*
X54667Y53293D01*
X54608D01*
X54549Y53352D01*
Y53411D01*
X54784Y53116D02*
X54961Y53293D01*
X54784D01*
X54902Y53175D01*
X54990Y52910D02*
X54873Y53028D01*
X55108D01*
X55138Y53057D01*
Y53116D01*
X55079Y53175D01*
X55020D01*
X40760Y38361D02*
Y38611D01*
X40885D01*
X40926Y38570D01*
Y38486D01*
X40885Y38445D01*
X40760D01*
X40843D02*
X40926Y38361D01*
X41010Y38570D02*
X41051Y38611D01*
X41135D01*
X41176Y38570D01*
Y38528D01*
X41135Y38486D01*
X41093D01*
X41135D01*
X41176Y38445D01*
Y38403D01*
X41135Y38361D01*
X41051D01*
X41010Y38403D01*
X41385Y38361D02*
Y38611D01*
X41260Y38486D01*
X41426D01*
X41510Y38361D02*
X41593D01*
X41551D01*
Y38611D01*
X41510Y38570D01*
X25108Y54645D02*
X24931Y54469D01*
X25049Y54351D01*
X25255Y54439D02*
X25314D01*
X25373Y54380D01*
Y54321D01*
X25343Y54292D01*
X25284D01*
X25255Y54321D01*
X25284Y54292D01*
X25284Y54233D01*
X25255Y54204D01*
X25196D01*
X25137Y54263D01*
Y54321D01*
X25432Y54263D02*
X25490D01*
X25549Y54204D01*
Y54145D01*
X25432Y54027D01*
X25373D01*
X25314Y54086D01*
Y54145D01*
X25432Y54263D01*
X25549Y53850D02*
X25726Y54027D01*
X25549Y54027D01*
X25667Y53909D01*
X24796Y24325D02*
X24972Y24149D01*
X25090Y24267D01*
X25002Y24473D02*
Y24532D01*
X25061Y24590D01*
X25120D01*
X25149Y24561D01*
Y24502D01*
X25120Y24473D01*
X25149Y24502D01*
X25208Y24502D01*
X25238Y24473D01*
Y24414D01*
X25179Y24355D01*
X25120D01*
X25179Y24649D02*
Y24708D01*
X25238Y24767D01*
X25296D01*
X25414Y24649D01*
Y24590D01*
X25355Y24532D01*
X25296D01*
X25179Y24649D01*
X25355Y24826D02*
Y24885D01*
X25414Y24944D01*
X25473D01*
X25503Y24914D01*
Y24856D01*
X25473Y24826D01*
X25503Y24856D01*
X25562D01*
X25591Y24826D01*
Y24767D01*
X25532Y24708D01*
X25473D01*
X53889Y25625D02*
X53713Y25448D01*
X53830Y25330D01*
X54037Y25418D02*
X54095D01*
X54154Y25360D01*
Y25301D01*
X54125Y25271D01*
X54066D01*
X54037Y25301D01*
X54066Y25271D01*
X54066Y25212D01*
X54037Y25183D01*
X53978D01*
X53919Y25242D01*
Y25301D01*
X54213Y25242D02*
X54272D01*
X54331Y25183D01*
Y25124D01*
X54213Y25006D01*
X54154D01*
X54095Y25065D01*
Y25124D01*
X54213Y25242D01*
X54361Y24800D02*
X54243Y24918D01*
X54478D01*
X54508Y24947D01*
Y25006D01*
X54449Y25065D01*
X54390D01*
X53221Y53971D02*
X53398Y53794D01*
X53515Y53912D01*
X53427Y54118D02*
Y54177D01*
X53486Y54236D01*
X53545D01*
X53574Y54207D01*
Y54148D01*
X53545Y54118D01*
X53574Y54148D01*
X53633Y54148D01*
X53663Y54118D01*
Y54059D01*
X53604Y54001D01*
X53545D01*
X53604Y54295D02*
Y54354D01*
X53663Y54413D01*
X53722D01*
X53839Y54295D01*
Y54236D01*
X53781Y54177D01*
X53722D01*
X53604Y54295D01*
X53928Y54325D02*
X53987Y54383D01*
X53957Y54354D01*
X53781Y54531D01*
Y54472D01*
X39657Y54202D02*
Y54035D01*
X39741Y53952D01*
X39824Y54035D01*
Y54202D01*
X40074D02*
X39907D01*
Y54077D01*
X39991Y54118D01*
X40032D01*
X40074Y54077D01*
Y53994D01*
X40032Y53952D01*
X39949D01*
X39907Y53994D01*
X40157Y54160D02*
X40199Y54202D01*
X40282D01*
X40324Y54160D01*
Y53994D01*
X40282Y53952D01*
X40199D01*
X40157Y53994D01*
Y54160D01*
X40574Y54202D02*
X40407D01*
Y54077D01*
X40491Y54118D01*
X40532D01*
X40574Y54077D01*
Y53994D01*
X40532Y53952D01*
X40449D01*
X40407Y53994D01*
X41232Y28651D02*
X41399D01*
X41316D01*
Y28401D01*
X41482D02*
Y28651D01*
X41607D01*
X41649Y28609D01*
Y28526D01*
X41607Y28484D01*
X41482D01*
X41899Y28651D02*
X41732D01*
Y28526D01*
X41815Y28567D01*
X41857D01*
X41899Y28526D01*
Y28442D01*
X41857Y28401D01*
X41774D01*
X41732Y28442D01*
X41982Y28609D02*
X42024Y28651D01*
X42107D01*
X42149Y28609D01*
Y28442D01*
X42107Y28401D01*
X42024D01*
X41982Y28442D01*
Y28609D01*
X42399Y28401D02*
X42232D01*
X42399Y28567D01*
Y28609D01*
X42357Y28651D01*
X42274D01*
X42232Y28609D01*
X45287Y28690D02*
X45454D01*
X45371D01*
Y28440D01*
X45537D02*
Y28690D01*
X45662D01*
X45704Y28648D01*
Y28565D01*
X45662Y28523D01*
X45537D01*
X45954Y28690D02*
X45787D01*
Y28565D01*
X45871Y28607D01*
X45912D01*
X45954Y28565D01*
Y28482D01*
X45912Y28440D01*
X45829D01*
X45787Y28482D01*
X46037Y28648D02*
X46079Y28690D01*
X46162D01*
X46204Y28648D01*
Y28482D01*
X46162Y28440D01*
X46079D01*
X46037Y28482D01*
Y28648D01*
X46287Y28440D02*
X46370D01*
X46329D01*
Y28690D01*
X46287Y28648D01*
X46862Y34044D02*
X47029D01*
X46946D01*
Y33794D01*
X47112D02*
Y34044D01*
X47237D01*
X47279Y34003D01*
Y33919D01*
X47237Y33878D01*
X47112D01*
X47487Y33794D02*
Y34044D01*
X47362Y33919D01*
X47529D01*
X47612Y34003D02*
X47654Y34044D01*
X47737D01*
X47779Y34003D01*
Y33836D01*
X47737Y33794D01*
X47654D01*
X47612Y33836D01*
Y34003D01*
X48028Y33794D02*
X47862D01*
X48028Y33961D01*
Y34003D01*
X47987Y34044D01*
X47904D01*
X47862Y34003D01*
X39657Y27627D02*
X39824D01*
X39741D01*
Y27377D01*
X39907D02*
Y27627D01*
X40032D01*
X40074Y27585D01*
Y27502D01*
X40032Y27460D01*
X39907D01*
X40282Y27377D02*
Y27627D01*
X40157Y27502D01*
X40324D01*
X40407Y27585D02*
X40449Y27627D01*
X40532D01*
X40574Y27585D01*
Y27419D01*
X40532Y27377D01*
X40449D01*
X40407Y27419D01*
Y27585D01*
X40657Y27377D02*
X40740D01*
X40699D01*
Y27627D01*
X40657Y27585D01*
X34890Y33734D02*
X35056D01*
X34973D01*
Y33484D01*
X35140D02*
Y33734D01*
X35265D01*
X35306Y33693D01*
Y33609D01*
X35265Y33568D01*
X35140D01*
X35390Y33693D02*
X35431Y33734D01*
X35515D01*
X35556Y33693D01*
Y33651D01*
X35515Y33609D01*
X35473D01*
X35515D01*
X35556Y33568D01*
Y33526D01*
X35515Y33484D01*
X35431D01*
X35390Y33526D01*
X35640Y33693D02*
X35681Y33734D01*
X35764D01*
X35806Y33693D01*
Y33526D01*
X35764Y33484D01*
X35681D01*
X35640Y33526D01*
Y33693D01*
X36014Y33484D02*
Y33734D01*
X35889Y33609D01*
X36056D01*
X36232Y32674D02*
X36399D01*
X36316D01*
Y32424D01*
X36482D02*
Y32674D01*
X36607D01*
X36649Y32633D01*
Y32549D01*
X36607Y32508D01*
X36482D01*
X36732Y32633D02*
X36774Y32674D01*
X36857D01*
X36899Y32633D01*
Y32591D01*
X36857Y32549D01*
X36815D01*
X36857D01*
X36899Y32508D01*
Y32466D01*
X36857Y32424D01*
X36774D01*
X36732Y32466D01*
X36982Y32633D02*
X37024Y32674D01*
X37107D01*
X37149Y32633D01*
Y32466D01*
X37107Y32424D01*
X37024D01*
X36982Y32466D01*
Y32633D01*
X37232D02*
X37274Y32674D01*
X37357D01*
X37399Y32633D01*
Y32591D01*
X37357Y32549D01*
X37315D01*
X37357D01*
X37399Y32508D01*
Y32466D01*
X37357Y32424D01*
X37274D01*
X37232Y32466D01*
X37295Y28257D02*
X37462D01*
X37379D01*
Y28007D01*
X37545D02*
Y28257D01*
X37670D01*
X37712Y28215D01*
Y28132D01*
X37670Y28090D01*
X37545D01*
X37795Y28215D02*
X37837Y28257D01*
X37920D01*
X37962Y28215D01*
Y28174D01*
X37920Y28132D01*
X37878D01*
X37920D01*
X37962Y28090D01*
Y28049D01*
X37920Y28007D01*
X37837D01*
X37795Y28049D01*
X38045Y28215D02*
X38087Y28257D01*
X38170D01*
X38212Y28215D01*
Y28049D01*
X38170Y28007D01*
X38087D01*
X38045Y28049D01*
Y28215D01*
X38462Y28007D02*
X38295D01*
X38462Y28174D01*
Y28215D01*
X38420Y28257D01*
X38337D01*
X38295Y28215D01*
X38280Y27155D02*
X38446D01*
X38363D01*
Y26905D01*
X38529D02*
Y27155D01*
X38654D01*
X38696Y27113D01*
Y27030D01*
X38654Y26988D01*
X38529D01*
X38779Y27113D02*
X38821Y27155D01*
X38904D01*
X38946Y27113D01*
Y27071D01*
X38904Y27030D01*
X38863D01*
X38904D01*
X38946Y26988D01*
Y26946D01*
X38904Y26905D01*
X38821D01*
X38779Y26946D01*
X39029Y27113D02*
X39071Y27155D01*
X39154D01*
X39196Y27113D01*
Y26946D01*
X39154Y26905D01*
X39071D01*
X39029Y26946D01*
Y27113D01*
X39279Y26905D02*
X39363D01*
X39321D01*
Y27155D01*
X39279Y27113D01*
X40091Y25920D02*
Y26170D01*
X40216D01*
X40257Y26129D01*
Y26045D01*
X40216Y26004D01*
X40091D01*
X40174D02*
X40257Y25920D01*
X40465D02*
Y26170D01*
X40340Y26045D01*
X40507D01*
X40590Y26129D02*
X40632Y26170D01*
X40715D01*
X40757Y26129D01*
Y25962D01*
X40715Y25920D01*
X40632D01*
X40590Y25962D01*
Y26129D01*
X41007Y25920D02*
X40840D01*
X41007Y26087D01*
Y26129D01*
X40965Y26170D01*
X40882D01*
X40840Y26129D01*
X37295Y26603D02*
Y26353D01*
X37462D01*
X37712Y26603D02*
X37545D01*
Y26353D01*
X37712D01*
X37545Y26478D02*
X37629D01*
X37795Y26603D02*
Y26353D01*
X37920D01*
X37962Y26395D01*
Y26562D01*
X37920Y26603D01*
X37795D01*
X38170Y26353D02*
Y26603D01*
X38045Y26478D01*
X38212D01*
X38295Y26562D02*
X38337Y26603D01*
X38420D01*
X38462Y26562D01*
Y26395D01*
X38420Y26353D01*
X38337D01*
X38295Y26395D01*
Y26562D01*
X38545Y26353D02*
X38628D01*
X38587D01*
Y26603D01*
X38545Y26562D01*
X22217Y54031D02*
X22393Y54207D01*
X22482Y54119D01*
Y54060D01*
X22423Y54001D01*
X22364Y54001D01*
X22275Y54089D01*
X22334Y54031D02*
X22334Y53913D01*
X22541Y54001D02*
X22599D01*
X22658Y53942D01*
Y53883D01*
X22629Y53854D01*
X22570D01*
X22541Y53883D01*
X22570Y53854D01*
X22570Y53795D01*
X22541Y53766D01*
X22482D01*
X22423Y53824D01*
Y53883D01*
X22688Y53559D02*
X22570Y53677D01*
X22806D01*
X22835Y53707D01*
Y53766D01*
X22776Y53824D01*
X22717D01*
X22894Y53648D02*
X22953D01*
X23012Y53589D01*
Y53530D01*
X22982Y53500D01*
X22923D01*
Y53442D01*
X22894Y53412D01*
X22835D01*
X22776Y53471D01*
Y53530D01*
X22806Y53559D01*
X22865Y53559D01*
Y53618D01*
X22894Y53648D01*
X22865Y53559D02*
X22923Y53500D01*
X22571Y54424D02*
X22748Y54601D01*
X22836Y54513D01*
Y54454D01*
X22777Y54395D01*
X22718Y54395D01*
X22630Y54483D01*
X22689Y54424D02*
X22689Y54306D01*
X22895Y54395D02*
X22954D01*
X23013Y54336D01*
Y54277D01*
X22983Y54248D01*
X22924D01*
X22895Y54277D01*
X22924Y54248D01*
X22924Y54189D01*
X22895Y54159D01*
X22836D01*
X22777Y54218D01*
Y54277D01*
X23042Y53953D02*
X22924Y54071D01*
X23160D01*
X23189Y54100D01*
Y54159D01*
X23130Y54218D01*
X23072D01*
X23130Y53924D02*
Y53865D01*
X23189Y53806D01*
X23248D01*
X23366Y53924D01*
Y53982D01*
X23307Y54041D01*
X23248D01*
X23219Y54012D01*
Y53953D01*
X23307Y53865D01*
X21232Y55172D02*
X21056Y55349D01*
X21144Y55437D01*
X21203D01*
X21262Y55378D01*
X21262Y55320D01*
X21173Y55231D01*
X21232Y55290D02*
X21350Y55290D01*
X21262Y55496D02*
Y55555D01*
X21321Y55614D01*
X21380D01*
X21409Y55585D01*
Y55526D01*
X21380Y55496D01*
X21409Y55526D01*
X21468Y55526D01*
X21497Y55496D01*
Y55437D01*
X21438Y55378D01*
X21380D01*
X21438Y55673D02*
Y55732D01*
X21497Y55791D01*
X21556D01*
X21586Y55761D01*
Y55702D01*
X21556Y55673D01*
X21586Y55702D01*
X21645Y55702D01*
X21674Y55673D01*
Y55614D01*
X21615Y55555D01*
X21556D01*
X21762Y55702D02*
X21821Y55761D01*
X21792Y55732D01*
X21615Y55909D01*
Y55850D01*
X21311Y54582D02*
X21134Y54758D01*
X21223Y54847D01*
X21282D01*
X21340Y54788D01*
X21340Y54729D01*
X21252Y54641D01*
X21311Y54700D02*
X21429Y54700D01*
X21340Y54906D02*
Y54965D01*
X21399Y55024D01*
X21458D01*
X21488Y54994D01*
Y54935D01*
X21458Y54906D01*
X21488Y54935D01*
X21547Y54935D01*
X21576Y54906D01*
Y54847D01*
X21517Y54788D01*
X21458D01*
X21517Y55082D02*
Y55141D01*
X21576Y55200D01*
X21635D01*
X21664Y55171D01*
Y55112D01*
X21635Y55082D01*
X21664Y55112D01*
X21723Y55112D01*
X21753Y55082D01*
Y55024D01*
X21694Y54965D01*
X21635D01*
X21959Y55230D02*
X21841Y55112D01*
Y55348D01*
X21812Y55377D01*
X21753D01*
X21694Y55318D01*
Y55259D01*
X23791Y56629D02*
X23615Y56806D01*
X23703Y56894D01*
X23762D01*
X23821Y56835D01*
X23821Y56776D01*
X23732Y56688D01*
X23791Y56747D02*
X23909Y56747D01*
X23821Y56953D02*
Y57012D01*
X23880Y57071D01*
X23939D01*
X23968Y57041D01*
Y56982D01*
X23939Y56953D01*
X23968Y56982D01*
X24027Y56982D01*
X24056Y56953D01*
Y56894D01*
X23998Y56835D01*
X23939D01*
X23998Y57130D02*
Y57189D01*
X24056Y57248D01*
X24115D01*
X24145Y57218D01*
Y57159D01*
X24115Y57130D01*
X24145Y57159D01*
X24204Y57159D01*
X24233Y57130D01*
Y57071D01*
X24174Y57012D01*
X24115D01*
X24410Y57248D02*
X24233Y57424D01*
X24233Y57248D01*
X24351Y57365D01*
X24442Y56154D02*
X24619Y56331D01*
X24707Y56242D01*
Y56183D01*
X24648Y56125D01*
X24589Y56125D01*
X24501Y56213D01*
X24560Y56154D02*
X24560Y56036D01*
X24766Y56125D02*
X24825D01*
X24884Y56066D01*
Y56007D01*
X24854Y55977D01*
X24795D01*
X24766Y56007D01*
X24795Y55977D01*
X24795Y55918D01*
X24766Y55889D01*
X24707D01*
X24648Y55948D01*
Y56007D01*
X24943Y55948D02*
X25001D01*
X25060Y55889D01*
Y55830D01*
X25031Y55801D01*
X24972D01*
X24943Y55830D01*
X24972Y55801D01*
X24972Y55742D01*
X24943Y55712D01*
X24884D01*
X24825Y55771D01*
Y55830D01*
X25267Y55683D02*
X25149Y55801D01*
X25060Y55712D01*
X25149Y55683D01*
X25178Y55653D01*
Y55594D01*
X25119Y55535D01*
X25060D01*
X25001Y55594D01*
Y55653D01*
X22728Y56472D02*
X22552Y56648D01*
X22640Y56737D01*
X22699D01*
X22758Y56678D01*
X22758Y56619D01*
X22669Y56530D01*
X22728Y56589D02*
X22846Y56589D01*
X22758Y56796D02*
Y56854D01*
X22817Y56913D01*
X22876D01*
X22905Y56884D01*
Y56825D01*
X22876Y56796D01*
X22905Y56825D01*
X22964Y56825D01*
X22993Y56796D01*
Y56737D01*
X22935Y56678D01*
X22876D01*
X23170Y56913D02*
X22993Y57090D01*
Y56913D01*
X23111Y57031D01*
Y57149D02*
Y57208D01*
X23170Y57267D01*
X23229D01*
X23347Y57149D01*
Y57090D01*
X23288Y57031D01*
X23229D01*
X23111Y57149D01*
X23929Y54129D02*
X23781Y53981D01*
Y53922D01*
X23840Y53863D01*
X23899D01*
X24046Y54011D01*
X24076Y53922D02*
X24135D01*
X24194Y53863D01*
Y53805D01*
X24164Y53775D01*
X24105D01*
X24076Y53805D01*
X24105Y53775D01*
X24105Y53716D01*
X24076Y53687D01*
X24017D01*
X23958Y53746D01*
Y53805D01*
X24253Y53746D02*
X24312D01*
X24370Y53687D01*
Y53628D01*
X24253Y53510D01*
X24194D01*
X24135Y53569D01*
Y53628D01*
X24253Y53746D01*
X24577Y53481D02*
X24459Y53598D01*
X24370Y53510D01*
X24459Y53481D01*
X24488Y53451D01*
Y53392D01*
X24429Y53333D01*
X24370D01*
X24312Y53392D01*
Y53451D01*
X20425Y51766D02*
X20307Y51649D01*
Y51531D01*
X20425Y51531D01*
X20543Y51649D01*
X20572Y51560D02*
X20631D01*
X20690Y51501D01*
Y51442D01*
X20660Y51413D01*
X20601D01*
X20572Y51442D01*
X20601Y51413D01*
X20601Y51354D01*
X20572Y51325D01*
X20513D01*
X20454Y51383D01*
Y51442D01*
X20601Y51236D02*
X20660Y51177D01*
X20631Y51207D01*
X20808Y51383D01*
X20749D01*
X20896Y51236D02*
X20955D01*
X21014Y51177D01*
Y51118D01*
X20896Y51001D01*
X20837D01*
X20778Y51059D01*
Y51118D01*
X20896Y51236D01*
X20268Y58932D02*
X20386Y58814D01*
X20504D01*
X20504Y58932D01*
X20386Y59050D01*
X20474Y59079D02*
Y59138D01*
X20533Y59197D01*
X20592D01*
X20622Y59167D01*
Y59108D01*
X20592Y59079D01*
X20622Y59108D01*
X20681Y59108D01*
X20710Y59079D01*
Y59020D01*
X20651Y58961D01*
X20592D01*
X20798Y59108D02*
X20857Y59167D01*
X20828Y59138D01*
X20651Y59315D01*
Y59256D01*
X20946D02*
X21004Y59315D01*
X20975Y59285D01*
X20798Y59462D01*
Y59403D01*
X27118Y58459D02*
X27000Y58341D01*
Y58224D01*
X27118Y58224D01*
X27235Y58341D01*
X27265Y58253D02*
X27324D01*
X27383Y58194D01*
Y58135D01*
X27353Y58106D01*
X27294D01*
X27265Y58135D01*
X27294Y58106D01*
X27294Y58047D01*
X27265Y58017D01*
X27206D01*
X27147Y58076D01*
Y58135D01*
X27294Y57929D02*
X27353Y57870D01*
X27324Y57900D01*
X27501Y58076D01*
X27442D01*
X27559Y57664D02*
X27442Y57782D01*
X27677D01*
X27707Y57811D01*
Y57870D01*
X27648Y57929D01*
X27589D01*
X21370Y24444D02*
X21222Y24296D01*
Y24237D01*
X21281Y24178D01*
X21340D01*
X21487Y24326D01*
X21517Y24237D02*
X21576D01*
X21635Y24178D01*
Y24120D01*
X21605Y24090D01*
X21546D01*
X21517Y24120D01*
X21546Y24090D01*
X21546Y24031D01*
X21517Y24002D01*
X21458D01*
X21399Y24061D01*
Y24120D01*
X21694Y24061D02*
X21753D01*
X21811Y24002D01*
Y23943D01*
X21694Y23825D01*
X21635D01*
X21576Y23884D01*
Y23943D01*
X21694Y24061D01*
X21811Y23648D02*
X21988Y23825D01*
X21811Y23825D01*
X21929Y23707D01*
X26961Y20388D02*
X27079Y20271D01*
X27197D01*
X27197Y20388D01*
X27079Y20506D01*
X27167Y20536D02*
Y20595D01*
X27226Y20653D01*
X27285D01*
X27315Y20624D01*
Y20565D01*
X27285Y20536D01*
X27315Y20565D01*
X27373Y20565D01*
X27403Y20536D01*
Y20477D01*
X27344Y20418D01*
X27285D01*
X27344Y20712D02*
Y20771D01*
X27403Y20830D01*
X27462D01*
X27580Y20712D01*
Y20653D01*
X27521Y20595D01*
X27462D01*
X27344Y20712D01*
X27491Y20919D02*
X27609Y21036D01*
X27638Y21007D01*
Y20771D01*
X27668Y20742D01*
X19283Y21058D02*
X19165Y20940D01*
Y20822D01*
X19283Y20822D01*
X19401Y20940D01*
X19430Y20852D02*
X19489D01*
X19548Y20793D01*
Y20734D01*
X19519Y20704D01*
X19460D01*
X19430Y20734D01*
X19460Y20704D01*
X19460Y20645D01*
X19430Y20616D01*
X19371D01*
X19312Y20675D01*
Y20734D01*
X19607Y20675D02*
X19666D01*
X19725Y20616D01*
Y20557D01*
X19607Y20439D01*
X19548D01*
X19489Y20498D01*
Y20557D01*
X19607Y20675D01*
X19784Y20498D02*
X19843D01*
X19902Y20439D01*
Y20380D01*
X19872Y20351D01*
X19813D01*
Y20292D01*
X19784Y20262D01*
X19725D01*
X19666Y20321D01*
Y20380D01*
X19695Y20410D01*
X19754Y20410D01*
Y20469D01*
X19784Y20498D01*
X19754Y20410D02*
X19813Y20351D01*
X20347Y27160D02*
X20465Y27042D01*
X20583D01*
X20583Y27160D01*
X20465Y27278D01*
X20553Y27307D02*
Y27366D01*
X20612Y27425D01*
X20671D01*
X20700Y27396D01*
Y27337D01*
X20671Y27307D01*
X20700Y27337D01*
X20759Y27337D01*
X20789Y27307D01*
Y27248D01*
X20730Y27190D01*
X20671D01*
X20730Y27484D02*
Y27543D01*
X20789Y27602D01*
X20848D01*
X20965Y27484D01*
Y27425D01*
X20907Y27366D01*
X20848D01*
X20730Y27484D01*
X21024Y27543D02*
X21083D01*
X21142Y27602D01*
Y27661D01*
X21024Y27779D01*
X20965D01*
X20907Y27720D01*
Y27661D01*
X20936Y27631D01*
X20995D01*
X21083Y27720D01*
X24657Y22220D02*
X24481Y22396D01*
X24569Y22485D01*
X24628D01*
X24687Y22426D01*
X24687Y22367D01*
X24599Y22278D01*
X24657Y22337D02*
X24775Y22337D01*
X24687Y22544D02*
Y22602D01*
X24746Y22661D01*
X24805D01*
X24834Y22632D01*
Y22573D01*
X24805Y22544D01*
X24834Y22573D01*
X24893Y22573D01*
X24923Y22544D01*
Y22485D01*
X24864Y22426D01*
X24805D01*
X25011Y22573D02*
X25070Y22632D01*
X25040Y22602D01*
X24864Y22779D01*
Y22720D01*
X25129Y22750D02*
X25188D01*
X25247Y22809D01*
Y22868D01*
X25129Y22985D01*
X25070D01*
X25011Y22926D01*
Y22868D01*
X25040Y22838D01*
X25099D01*
X25188Y22926D01*
X24343Y22574D02*
X24166Y22751D01*
X24254Y22839D01*
X24313D01*
X24372Y22780D01*
X24372Y22721D01*
X24284Y22633D01*
X24343Y22692D02*
X24460Y22692D01*
X24372Y22898D02*
Y22957D01*
X24431Y23016D01*
X24490D01*
X24519Y22986D01*
Y22927D01*
X24490Y22898D01*
X24519Y22927D01*
X24578Y22927D01*
X24608Y22898D01*
Y22839D01*
X24549Y22780D01*
X24490D01*
X24814Y23045D02*
X24696Y22927D01*
Y23163D01*
X24667Y23192D01*
X24608D01*
X24549Y23133D01*
Y23075D01*
X24725Y23251D02*
Y23310D01*
X24784Y23369D01*
X24843D01*
X24961Y23251D01*
Y23192D01*
X24902Y23133D01*
X24843D01*
X24725Y23251D01*
X22807Y21668D02*
X22984Y21845D01*
X23072Y21757D01*
Y21698D01*
X23013Y21639D01*
X22954Y21639D01*
X22866Y21727D01*
X22925Y21668D02*
X22925Y21551D01*
X23131Y21639D02*
X23190D01*
X23249Y21580D01*
Y21521D01*
X23219Y21492D01*
X23161D01*
X23131Y21521D01*
X23161Y21492D01*
X23161Y21433D01*
X23131Y21403D01*
X23072D01*
X23013Y21462D01*
Y21521D01*
X23278Y21197D02*
X23161Y21315D01*
X23396D01*
X23426Y21344D01*
Y21403D01*
X23367Y21462D01*
X23308D01*
X23455Y21020D02*
X23337Y21138D01*
X23573D01*
X23602Y21168D01*
Y21227D01*
X23543Y21285D01*
X23485D01*
X23280Y21826D02*
X23456Y22003D01*
X23545Y21914D01*
Y21855D01*
X23486Y21796D01*
X23427Y21796D01*
X23338Y21885D01*
X23397Y21826D02*
X23397Y21708D01*
X23604Y21796D02*
X23662D01*
X23721Y21737D01*
Y21679D01*
X23692Y21649D01*
X23633D01*
X23604Y21679D01*
X23633Y21649D01*
X23633Y21590D01*
X23604Y21561D01*
X23545D01*
X23486Y21620D01*
Y21679D01*
X23751Y21355D02*
X23633Y21472D01*
X23869D01*
X23898Y21502D01*
Y21561D01*
X23839Y21620D01*
X23780D01*
X23957Y21443D02*
X24016D01*
X24075Y21384D01*
Y21325D01*
X24045Y21296D01*
X23986D01*
X23957Y21325D01*
X23986Y21296D01*
Y21237D01*
X23957Y21207D01*
X23898D01*
X23839Y21266D01*
Y21325D01*
X22492Y24503D02*
X22315Y24680D01*
X22404Y24768D01*
X22463D01*
X22522Y24709D01*
X22522Y24650D01*
X22433Y24562D01*
X22492Y24621D02*
X22610Y24621D01*
X22522Y24827D02*
Y24886D01*
X22580Y24945D01*
X22639D01*
X22669Y24915D01*
Y24856D01*
X22639Y24827D01*
X22669Y24856D01*
X22728Y24856D01*
X22757Y24827D01*
Y24768D01*
X22698Y24709D01*
X22639D01*
X22963Y24974D02*
X22846Y24856D01*
Y25092D01*
X22816Y25122D01*
X22757D01*
X22698Y25063D01*
Y25004D01*
X22963Y25328D02*
X22846Y25210D01*
X22934Y25122D01*
X22963Y25210D01*
X22993Y25239D01*
X23052D01*
X23111Y25180D01*
Y25122D01*
X23052Y25063D01*
X22993D01*
X23043Y24346D02*
X22867Y24522D01*
X22955Y24611D01*
X23014D01*
X23073Y24552D01*
X23073Y24493D01*
X22984Y24404D01*
X23043Y24463D02*
X23161Y24463D01*
X23073Y24670D02*
Y24728D01*
X23132Y24787D01*
X23191D01*
X23220Y24758D01*
Y24699D01*
X23191Y24670D01*
X23220Y24699D01*
X23279Y24699D01*
X23308Y24670D01*
Y24611D01*
X23249Y24552D01*
X23191D01*
X23515Y24817D02*
X23397Y24699D01*
Y24935D01*
X23367Y24964D01*
X23308D01*
X23249Y24905D01*
Y24846D01*
X23515Y25170D02*
X23485Y25082D01*
Y24964D01*
X23544Y24905D01*
X23603D01*
X23662Y24964D01*
Y25023D01*
X23632Y25052D01*
X23573D01*
X23485Y24964D01*
X21429Y23164D02*
X21606Y23341D01*
X21694Y23253D01*
Y23194D01*
X21635Y23135D01*
X21576Y23135D01*
X21488Y23223D01*
X21547Y23164D02*
X21547Y23047D01*
X21753Y23135D02*
X21812D01*
X21871Y23076D01*
Y23017D01*
X21841Y22988D01*
X21783D01*
X21753Y23017D01*
X21783Y22988D01*
X21783Y22929D01*
X21753Y22899D01*
X21694D01*
X21635Y22958D01*
Y23017D01*
X21930Y22958D02*
X21989D01*
X22048Y22899D01*
Y22840D01*
X22018Y22811D01*
X21959D01*
X21930Y22840D01*
X21959Y22811D01*
X21959Y22752D01*
X21930Y22723D01*
X21871D01*
X21812Y22782D01*
Y22840D01*
X21989Y22664D02*
Y22605D01*
X22048Y22546D01*
X22107D01*
X22224Y22664D01*
Y22723D01*
X22165Y22782D01*
X22107D01*
X22077Y22752D01*
Y22693D01*
X22165Y22605D01*
X56212Y22396D02*
X56065Y22249D01*
Y22190D01*
X56124Y22131D01*
X56183D01*
X56330Y22278D01*
X56359Y22190D02*
X56418D01*
X56477Y22131D01*
Y22072D01*
X56448Y22043D01*
X56389D01*
X56359Y22072D01*
X56389Y22043D01*
X56389Y21984D01*
X56359Y21954D01*
X56301D01*
X56242Y22013D01*
Y22072D01*
X56536Y22013D02*
X56595D01*
X56654Y21954D01*
Y21896D01*
X56536Y21778D01*
X56477D01*
X56418Y21837D01*
Y21896D01*
X56536Y22013D01*
X56713Y21837D02*
X56772D01*
X56831Y21778D01*
Y21719D01*
X56801Y21689D01*
X56742D01*
X56713Y21719D01*
X56742Y21689D01*
Y21630D01*
X56713Y21601D01*
X56654D01*
X56595Y21660D01*
Y21719D01*
X57826Y27751D02*
X57709Y27633D01*
Y27515D01*
X57826Y27515D01*
X57944Y27633D01*
X57974Y27544D02*
X58032D01*
X58091Y27486D01*
Y27427D01*
X58062Y27397D01*
X58003D01*
X57974Y27427D01*
X58003Y27397D01*
X58003Y27338D01*
X57974Y27309D01*
X57915D01*
X57856Y27368D01*
Y27427D01*
X58150Y27368D02*
X58209D01*
X58268Y27309D01*
Y27250D01*
X58150Y27132D01*
X58091D01*
X58032Y27191D01*
Y27250D01*
X58150Y27368D01*
X58268Y26955D02*
X58445Y27132D01*
X58268Y27132D01*
X58386Y27014D01*
X57670Y19325D02*
X57788Y19208D01*
X57905D01*
X57905Y19325D01*
X57788Y19443D01*
X57876Y19473D02*
Y19532D01*
X57935Y19590D01*
X57994D01*
X58023Y19561D01*
Y19502D01*
X57994Y19473D01*
X58023Y19502D01*
X58082Y19502D01*
X58112Y19473D01*
Y19414D01*
X58053Y19355D01*
X57994D01*
X58053Y19649D02*
Y19708D01*
X58112Y19767D01*
X58170D01*
X58288Y19649D01*
Y19590D01*
X58229Y19532D01*
X58170D01*
X58053Y19649D01*
X58318Y19973D02*
X58200Y19856D01*
X58288Y19767D01*
X58318Y19856D01*
X58347Y19885D01*
X58406D01*
X58465Y19826D01*
Y19767D01*
X58406Y19708D01*
X58347D01*
X51133Y21058D02*
X51016Y20940D01*
Y20822D01*
X51133Y20822D01*
X51251Y20940D01*
X51281Y20852D02*
X51340D01*
X51398Y20793D01*
Y20734D01*
X51369Y20704D01*
X51310D01*
X51281Y20734D01*
X51310Y20704D01*
X51310Y20645D01*
X51281Y20616D01*
X51222D01*
X51163Y20675D01*
Y20734D01*
X51457Y20675D02*
X51516D01*
X51575Y20616D01*
Y20557D01*
X51457Y20439D01*
X51398D01*
X51340Y20498D01*
Y20557D01*
X51457Y20675D01*
X51781Y20410D02*
X51693Y20439D01*
X51575D01*
X51516Y20380D01*
Y20321D01*
X51575Y20262D01*
X51634D01*
X51664Y20292D01*
Y20351D01*
X51575Y20439D01*
X55681Y25094D02*
X55858Y25270D01*
X55946Y25182D01*
Y25123D01*
X55887Y25064D01*
X55828Y25064D01*
X55740Y25152D01*
X55799Y25094D02*
X55799Y24976D01*
X56005Y25064D02*
X56064D01*
X56123Y25005D01*
Y24946D01*
X56093Y24917D01*
X56035D01*
X56005Y24946D01*
X56035Y24917D01*
X56035Y24858D01*
X56005Y24829D01*
X55946D01*
X55887Y24887D01*
Y24946D01*
X56035Y24740D02*
X56093Y24681D01*
X56064Y24711D01*
X56241Y24887D01*
X56182D01*
X56329Y24740D02*
X56388D01*
X56447Y24681D01*
Y24622D01*
X56329Y24505D01*
X56270D01*
X56211Y24563D01*
Y24622D01*
X56329Y24740D01*
X55406Y24700D02*
X55582Y24877D01*
X55671Y24788D01*
Y24729D01*
X55612Y24670D01*
X55553Y24670D01*
X55464Y24759D01*
X55523Y24700D02*
X55523Y24582D01*
X55729Y24670D02*
X55788D01*
X55847Y24612D01*
Y24553D01*
X55818Y24523D01*
X55759D01*
X55729Y24553D01*
X55759Y24523D01*
X55759Y24464D01*
X55729Y24435D01*
X55671D01*
X55612Y24494D01*
Y24553D01*
X55759Y24346D02*
X55818Y24288D01*
X55788Y24317D01*
X55965Y24494D01*
X55906D01*
Y24199D02*
X55965Y24140D01*
X55936Y24170D01*
X56112Y24346D01*
X56053D01*
X57020Y22771D02*
X56843Y22947D01*
X56931Y23036D01*
X56990D01*
X57049Y22977D01*
X57049Y22918D01*
X56961Y22830D01*
X57020Y22889D02*
X57137Y22889D01*
X57049Y23095D02*
Y23154D01*
X57108Y23213D01*
X57167D01*
X57196Y23183D01*
Y23124D01*
X57167Y23095D01*
X57196Y23124D01*
X57255Y23124D01*
X57285Y23095D01*
Y23036D01*
X57226Y22977D01*
X57167D01*
X57373Y23124D02*
X57432Y23183D01*
X57403Y23154D01*
X57226Y23330D01*
Y23271D01*
X57373Y23419D02*
Y23478D01*
X57432Y23537D01*
X57491D01*
X57520Y23507D01*
Y23448D01*
X57491Y23419D01*
X57520Y23448D01*
X57579D01*
X57609Y23419D01*
Y23360D01*
X57550Y23301D01*
X57491D01*
X56902Y23283D02*
X56725Y23459D01*
X56813Y23548D01*
X56872D01*
X56931Y23489D01*
X56931Y23430D01*
X56843Y23341D01*
X56902Y23400D02*
X57019Y23400D01*
X56931Y23607D02*
Y23665D01*
X56990Y23724D01*
X57049D01*
X57078Y23695D01*
Y23636D01*
X57049Y23607D01*
X57078Y23636D01*
X57137Y23636D01*
X57167Y23607D01*
Y23548D01*
X57108Y23489D01*
X57049D01*
X57255Y23636D02*
X57314Y23695D01*
X57284Y23665D01*
X57108Y23842D01*
Y23783D01*
X57491Y23872D02*
X57314Y24048D01*
X57314Y23872D01*
X57432Y23989D01*
X53398Y22928D02*
X53574Y23105D01*
X53663Y23017D01*
Y22958D01*
X53604Y22899D01*
X53545Y22899D01*
X53457Y22987D01*
X53515Y22928D02*
X53515Y22810D01*
X53722Y22899D02*
X53781D01*
X53839Y22840D01*
Y22781D01*
X53810Y22752D01*
X53751D01*
X53722Y22781D01*
X53751Y22752D01*
X53751Y22693D01*
X53722Y22663D01*
X53663D01*
X53604Y22722D01*
Y22781D01*
X53751Y22575D02*
X53810Y22516D01*
X53781Y22545D01*
X53957Y22722D01*
X53898D01*
X54193Y22486D02*
X54105Y22516D01*
X53987D01*
X53928Y22457D01*
Y22398D01*
X53987Y22339D01*
X54046D01*
X54075Y22369D01*
Y22428D01*
X53987Y22516D01*
X53555Y23401D02*
X53732Y23577D01*
X53820Y23489D01*
Y23430D01*
X53761Y23371D01*
X53702Y23371D01*
X53614Y23460D01*
X53673Y23401D02*
X53673Y23283D01*
X53879Y23371D02*
X53938D01*
X53997Y23312D01*
Y23253D01*
X53967Y23224D01*
X53909D01*
X53879Y23253D01*
X53909Y23224D01*
X53909Y23165D01*
X53879Y23136D01*
X53820D01*
X53761Y23194D01*
Y23253D01*
X53909Y23047D02*
X53967Y22988D01*
X53938Y23018D01*
X54115Y23194D01*
X54056D01*
X54233Y23077D02*
X54350Y22959D01*
X54321Y22929D01*
X54085D01*
X54056Y22900D01*
X54618Y21117D02*
X54441Y21294D01*
X54530Y21382D01*
X54589D01*
X54648Y21323D01*
X54648Y21264D01*
X54559Y21176D01*
X54618Y21235D02*
X54736Y21235D01*
X54648Y21441D02*
Y21500D01*
X54706Y21559D01*
X54765D01*
X54795Y21530D01*
Y21471D01*
X54765Y21441D01*
X54795Y21471D01*
X54854Y21471D01*
X54883Y21441D01*
Y21382D01*
X54824Y21323D01*
X54765D01*
X54824Y21618D02*
Y21677D01*
X54883Y21736D01*
X54942D01*
X54972Y21706D01*
Y21647D01*
X54942Y21618D01*
X54972Y21647D01*
X55030Y21647D01*
X55060Y21618D01*
Y21559D01*
X55001Y21500D01*
X54942D01*
X55001Y21795D02*
Y21854D01*
X55060Y21912D01*
X55119D01*
X55148Y21883D01*
Y21824D01*
X55207D01*
X55237Y21795D01*
Y21736D01*
X55178Y21677D01*
X55119D01*
X55089Y21706D01*
X55089Y21765D01*
X55030D01*
X55001Y21795D01*
X55089Y21765D02*
X55148Y21824D01*
X56783Y55094D02*
X56960Y55270D01*
X57049Y55182D01*
Y55123D01*
X56990Y55064D01*
X56931Y55064D01*
X56842Y55152D01*
X56901Y55094D02*
X56901Y54976D01*
X57107Y55064D02*
X57166D01*
X57225Y55005D01*
Y54946D01*
X57196Y54917D01*
X57137D01*
X57107Y54946D01*
X57137Y54917D01*
X57137Y54858D01*
X57107Y54829D01*
X57049D01*
X56990Y54887D01*
Y54946D01*
X57284Y54887D02*
X57343D01*
X57402Y54829D01*
Y54770D01*
X57373Y54740D01*
X57314D01*
X57284Y54770D01*
X57314Y54740D01*
X57314Y54681D01*
X57284Y54652D01*
X57225D01*
X57166Y54711D01*
Y54770D01*
X57490Y54740D02*
X57608Y54622D01*
X57579Y54593D01*
X57343D01*
X57314Y54563D01*
X55209Y53558D02*
X55032Y53735D01*
X55120Y53823D01*
X55179D01*
X55238Y53764D01*
X55238Y53705D01*
X55150Y53617D01*
X55209Y53676D02*
X55326Y53676D01*
X55238Y53882D02*
Y53941D01*
X55297Y54000D01*
X55356D01*
X55385Y53970D01*
Y53912D01*
X55356Y53882D01*
X55385Y53912D01*
X55444Y53912D01*
X55474Y53882D01*
Y53823D01*
X55415Y53764D01*
X55356D01*
X55415Y54059D02*
Y54118D01*
X55474Y54177D01*
X55533D01*
X55650Y54059D01*
Y54000D01*
X55592Y53941D01*
X55533D01*
X55415Y54059D01*
X55592Y54236D02*
Y54294D01*
X55650Y54353D01*
X55709D01*
X55739Y54324D01*
Y54265D01*
X55798D01*
X55827Y54236D01*
Y54177D01*
X55768Y54118D01*
X55709D01*
X55680Y54147D01*
X55680Y54206D01*
X55621D01*
X55592Y54236D01*
X55680Y54206D02*
X55739Y54265D01*
X55799Y53401D02*
X55622Y53577D01*
X55711Y53666D01*
X55770D01*
X55829Y53607D01*
X55829Y53548D01*
X55740Y53460D01*
X55799Y53518D02*
X55917Y53518D01*
X55829Y53725D02*
Y53784D01*
X55888Y53842D01*
X55946D01*
X55976Y53813D01*
Y53754D01*
X55946Y53725D01*
X55976Y53754D01*
X56035Y53754D01*
X56064Y53725D01*
Y53666D01*
X56005Y53607D01*
X55946D01*
X56005Y53901D02*
Y53960D01*
X56064Y54019D01*
X56123D01*
X56241Y53901D01*
Y53842D01*
X56182Y53784D01*
X56123D01*
X56005Y53901D01*
X56153Y54108D02*
X56270Y54225D01*
X56300Y54196D01*
Y53960D01*
X56329Y53931D01*
X55051Y57416D02*
X55228Y57593D01*
X55316Y57505D01*
Y57446D01*
X55257Y57387D01*
X55198Y57387D01*
X55110Y57475D01*
X55169Y57416D02*
X55169Y57299D01*
X55375Y57387D02*
X55434D01*
X55493Y57328D01*
Y57269D01*
X55464Y57240D01*
X55405D01*
X55375Y57269D01*
X55405Y57240D01*
X55405Y57181D01*
X55375Y57151D01*
X55316D01*
X55257Y57210D01*
Y57269D01*
X55552Y57210D02*
X55611D01*
X55670Y57151D01*
Y57092D01*
X55552Y56975D01*
X55493D01*
X55434Y57034D01*
Y57092D01*
X55552Y57210D01*
X55876Y56945D02*
X55758Y57063D01*
X55670Y56975D01*
X55758Y56945D01*
X55788Y56916D01*
Y56857D01*
X55729Y56798D01*
X55670D01*
X55611Y56857D01*
Y56916D01*
X56350Y56314D02*
X56527Y56491D01*
X56615Y56402D01*
Y56343D01*
X56557Y56285D01*
X56498Y56285D01*
X56409Y56373D01*
X56468Y56314D02*
X56468Y56196D01*
X56674Y56285D02*
X56733D01*
X56792Y56226D01*
Y56167D01*
X56763Y56137D01*
X56704D01*
X56674Y56167D01*
X56704Y56137D01*
X56704Y56078D01*
X56674Y56049D01*
X56615D01*
X56557Y56108D01*
Y56167D01*
X56851Y56108D02*
X56910D01*
X56969Y56049D01*
Y55990D01*
X56851Y55872D01*
X56792D01*
X56733Y55931D01*
Y55990D01*
X56851Y56108D01*
X56969Y55696D02*
X57146Y55872D01*
X56969Y55872D01*
X57087Y55754D01*
X53909Y55290D02*
X53733Y55467D01*
X53821Y55556D01*
X53880D01*
X53939Y55497D01*
X53939Y55438D01*
X53851Y55349D01*
X53909Y55408D02*
X54027Y55408D01*
X53939Y55614D02*
Y55673D01*
X53998Y55732D01*
X54057D01*
X54086Y55703D01*
Y55644D01*
X54057Y55614D01*
X54086Y55644D01*
X54145Y55644D01*
X54175Y55614D01*
Y55556D01*
X54116Y55497D01*
X54057D01*
X54116Y55791D02*
Y55850D01*
X54175Y55909D01*
X54233D01*
X54351Y55791D01*
Y55732D01*
X54292Y55673D01*
X54233D01*
X54116Y55791D01*
X54557Y55938D02*
X54440Y55821D01*
Y56056D01*
X54410Y56086D01*
X54351D01*
X54292Y56027D01*
Y55968D01*
X53634Y55724D02*
X53457Y55900D01*
X53545Y55989D01*
X53604D01*
X53663Y55930D01*
X53663Y55871D01*
X53575Y55782D01*
X53634Y55841D02*
X53752Y55841D01*
X53663Y56047D02*
Y56106D01*
X53722Y56165D01*
X53781D01*
X53811Y56136D01*
Y56077D01*
X53781Y56047D01*
X53811Y56077D01*
X53869Y56077D01*
X53899Y56047D01*
Y55989D01*
X53840Y55930D01*
X53781D01*
X53840Y56224D02*
Y56283D01*
X53899Y56342D01*
X53958D01*
X54076Y56224D01*
Y56165D01*
X54017Y56106D01*
X53958D01*
X53840Y56224D01*
X54164Y56254D02*
X54223Y56313D01*
X54193Y56283D01*
X54017Y56460D01*
Y56401D01*
X57630Y51176D02*
X57748Y51058D01*
X57866D01*
X57866Y51176D01*
X57748Y51294D01*
X57837Y51323D02*
Y51382D01*
X57895Y51441D01*
X57954D01*
X57984Y51411D01*
Y51353D01*
X57954Y51323D01*
X57984Y51353D01*
X58043Y51353D01*
X58072Y51323D01*
Y51264D01*
X58013Y51205D01*
X57954D01*
X58013Y51500D02*
Y51559D01*
X58072Y51618D01*
X58131D01*
X58249Y51500D01*
Y51441D01*
X58190Y51382D01*
X58131D01*
X58013Y51500D01*
X58190Y51677D02*
Y51735D01*
X58249Y51794D01*
X58308D01*
X58337Y51765D01*
Y51706D01*
X58308Y51677D01*
X58337Y51706D01*
X58396D01*
X58426Y51677D01*
Y51618D01*
X58367Y51559D01*
X58308D01*
X58929Y58499D02*
X58811Y58381D01*
Y58263D01*
X58929Y58263D01*
X59047Y58381D01*
X59076Y58292D02*
X59135D01*
X59194Y58234D01*
Y58175D01*
X59164Y58145D01*
X59105D01*
X59076Y58175D01*
X59105Y58145D01*
X59105Y58086D01*
X59076Y58057D01*
X59017D01*
X58958Y58116D01*
Y58175D01*
X59253Y58116D02*
X59312D01*
X59370Y58057D01*
Y57998D01*
X59253Y57880D01*
X59194D01*
X59135Y57939D01*
Y57998D01*
X59253Y58116D01*
X59400Y57674D02*
X59282Y57792D01*
X59518D01*
X59547Y57821D01*
Y57880D01*
X59488Y57939D01*
X59429D01*
X51016Y57908D02*
X51134Y57790D01*
X51252D01*
X51252Y57908D01*
X51134Y58026D01*
X51222Y58055D02*
Y58114D01*
X51281Y58173D01*
X51340D01*
X51370Y58144D01*
Y58085D01*
X51340Y58055D01*
X51370Y58085D01*
X51429Y58085D01*
X51458Y58055D01*
Y57996D01*
X51399Y57938D01*
X51340D01*
X51399Y58232D02*
Y58291D01*
X51458Y58350D01*
X51517D01*
X51635Y58232D01*
Y58173D01*
X51576Y58114D01*
X51517D01*
X51399Y58232D01*
X51723Y58262D02*
X51782Y58320D01*
X51753Y58291D01*
X51576Y58468D01*
Y58409D01*
X52985Y54483D02*
X53132Y54336D01*
X53191D01*
X53250Y54395D01*
Y54453D01*
X53103Y54601D01*
X53191Y54630D02*
Y54689D01*
X53250Y54748D01*
X53309D01*
X53338Y54719D01*
Y54660D01*
X53309Y54630D01*
X53338Y54660D01*
X53397Y54660D01*
X53426Y54630D01*
Y54571D01*
X53368Y54512D01*
X53309D01*
X53368Y54807D02*
Y54866D01*
X53426Y54925D01*
X53485D01*
X53603Y54807D01*
Y54748D01*
X53544Y54689D01*
X53485D01*
X53368Y54807D01*
X53809Y54954D02*
X53692Y54836D01*
Y55072D01*
X53662Y55101D01*
X53603D01*
X53544Y55043D01*
Y54984D01*
X37571Y40383D02*
Y40175D01*
X37613Y40133D01*
X37696D01*
X37737Y40175D01*
Y40383D01*
X37821Y40341D02*
X37862Y40383D01*
X37946D01*
X37987Y40341D01*
Y40300D01*
X37946Y40258D01*
X37904D01*
X37946D01*
X37987Y40216D01*
Y40175D01*
X37946Y40133D01*
X37862D01*
X37821Y40175D01*
X38071Y40341D02*
X38112Y40383D01*
X38196D01*
X38237Y40341D01*
Y40175D01*
X38196Y40133D01*
X38112D01*
X38071Y40175D01*
Y40341D01*
X38321Y40133D02*
X38404D01*
X38362D01*
Y40383D01*
X38321Y40341D01*
M02*
