G04*
G04 #@! TF.GenerationSoftware,Altium Limited,Altium Designer,25.0.2 (28)*
G04*
G04 Layer_Color=32768*
%FSLAX24Y24*%
%MOIN*%
G70*
G04*
G04 #@! TF.SameCoordinates,4B7BC283-7035-4C9F-97D5-5998C8FB6373*
G04*
G04*
G04 #@! TF.FilePolarity,Positive*
G04*
G01*
G75*
%ADD12C,0.0060*%
%ADD79C,0.0100*%
D12*
X64982Y78760D02*
Y79360D01*
X65282D01*
X65382Y79260D01*
Y79060D01*
X65282Y78960D01*
X64982D01*
X65182D02*
X65382Y78760D01*
X66182D02*
X66382D01*
X66282D01*
Y79360D01*
X66182Y79260D01*
X66682Y78760D02*
Y78860D01*
X66782D01*
Y78760D01*
X66682D01*
X67181Y79260D02*
X67281Y79360D01*
X67481D01*
X67581Y79260D01*
Y78860D01*
X67481Y78760D01*
X67281D01*
X67181Y78860D01*
Y79260D01*
X68181Y78760D02*
X67781D01*
X68181Y79160D01*
Y79260D01*
X68081Y79360D01*
X67881D01*
X67781Y79260D01*
X68381Y78760D02*
Y79160D01*
X68481D01*
X68581Y79060D01*
Y78760D01*
Y79060D01*
X68681Y79160D01*
X68781Y79060D01*
Y78760D01*
X68981D02*
Y79160D01*
X69081D01*
X69181Y79060D01*
Y78760D01*
Y79060D01*
X69281Y79160D01*
X69381Y79060D01*
Y78760D01*
X64614Y36548D02*
Y36148D01*
X64914D01*
X64814Y36348D01*
Y36448D01*
X64914Y36548D01*
X65114D01*
X65214Y36448D01*
Y36248D01*
X65114Y36148D01*
X64614Y36748D02*
Y37148D01*
X64714D01*
X65114Y36748D01*
X65214D01*
Y37348D02*
X65114D01*
Y37448D01*
X65214D01*
Y37348D01*
X64614Y38248D02*
X64714Y38048D01*
X64914Y37848D01*
X65114D01*
X65214Y37948D01*
Y38148D01*
X65114Y38248D01*
X65014D01*
X64914Y38148D01*
Y37848D01*
X65214Y38448D02*
Y38647D01*
Y38548D01*
X64614D01*
X64714Y38448D01*
X65214Y38947D02*
X64814D01*
Y39047D01*
X64914Y39147D01*
X65214D01*
X64914D01*
X64814Y39247D01*
X64914Y39347D01*
X65214D01*
Y39547D02*
X64814D01*
Y39647D01*
X64914Y39747D01*
X65214D01*
X64914D01*
X64814Y39847D01*
X64914Y39947D01*
X65214D01*
X63614Y36553D02*
Y36153D01*
X63914D01*
X63814Y36353D01*
Y36453D01*
X63914Y36553D01*
X64114D01*
X64214Y36453D01*
Y36253D01*
X64114Y36153D01*
X63614Y36753D02*
Y37153D01*
X63714D01*
X64114Y36753D01*
X64214D01*
Y37353D02*
X64114D01*
Y37453D01*
X64214D01*
Y37353D01*
X63714Y37853D02*
X63614Y37953D01*
Y38153D01*
X63714Y38253D01*
X63814D01*
X63914Y38153D01*
X64014Y38253D01*
X64114D01*
X64214Y38153D01*
Y37953D01*
X64114Y37853D01*
X64014D01*
X63914Y37953D01*
X63814Y37853D01*
X63714D01*
X63914Y37953D02*
Y38153D01*
X64114Y38453D02*
X64214Y38553D01*
Y38753D01*
X64114Y38853D01*
X63714D01*
X63614Y38753D01*
Y38553D01*
X63714Y38453D01*
X63814D01*
X63914Y38553D01*
Y38853D01*
X64214Y39053D02*
X63814D01*
Y39152D01*
X63914Y39252D01*
X64214D01*
X63914D01*
X63814Y39352D01*
X63914Y39452D01*
X64214D01*
Y39652D02*
X63814D01*
Y39752D01*
X63914Y39852D01*
X64214D01*
X63914D01*
X63814Y39952D01*
X63914Y40052D01*
X64214D01*
X63694Y26522D02*
Y26922D01*
X63794D01*
X64194Y26522D01*
X64294D01*
Y27122D02*
X64194D01*
Y27222D01*
X64294D01*
Y27122D01*
Y27922D02*
X63694D01*
X63994Y27622D01*
Y28022D01*
X64294Y28522D02*
X63694D01*
X63994Y28222D01*
Y28622D01*
X64294Y28821D02*
X63894D01*
Y28921D01*
X63994Y29021D01*
X64294D01*
X63994D01*
X63894Y29121D01*
X63994Y29221D01*
X64294D01*
Y29421D02*
X63894D01*
Y29521D01*
X63994Y29621D01*
X64294D01*
X63994D01*
X63894Y29721D01*
X63994Y29821D01*
X64294D01*
X65614Y37659D02*
X65714Y37459D01*
X65914Y37259D01*
X66114D01*
X66214Y37359D01*
Y37559D01*
X66114Y37659D01*
X66014D01*
X65914Y37559D01*
Y37259D01*
X65714Y37859D02*
X65614Y37959D01*
Y38158D01*
X65714Y38258D01*
X65814D01*
X65914Y38158D01*
Y38059D01*
Y38158D01*
X66014Y38258D01*
X66114D01*
X66214Y38158D01*
Y37959D01*
X66114Y37859D01*
X66214Y38458D02*
X66114D01*
Y38558D01*
X66214D01*
Y38458D01*
X65614Y39358D02*
Y38958D01*
X65914D01*
X65814Y39158D01*
Y39258D01*
X65914Y39358D01*
X66114D01*
X66214Y39258D01*
Y39058D01*
X66114Y38958D01*
X65714Y39558D02*
X65614Y39658D01*
Y39858D01*
X65714Y39958D01*
X66114D01*
X66214Y39858D01*
Y39658D01*
X66114Y39558D01*
X65714D01*
X66214Y40158D02*
X65814D01*
Y40258D01*
X65914Y40358D01*
X66214D01*
X65914D01*
X65814Y40458D01*
X65914Y40558D01*
X66214D01*
Y40758D02*
X65814D01*
Y40858D01*
X65914Y40958D01*
X66214D01*
X65914D01*
X65814Y41058D01*
X65914Y41157D01*
X66214D01*
X39411Y24005D02*
X39511Y24105D01*
X39711D01*
X39811Y24005D01*
Y23905D01*
X39711Y23805D01*
X39811Y23705D01*
Y23605D01*
X39711Y23505D01*
X39511D01*
X39411Y23605D01*
Y23705D01*
X39511Y23805D01*
X39411Y23905D01*
Y24005D01*
X39511Y23805D02*
X39711D01*
X40011Y24005D02*
X40111Y24105D01*
X40311D01*
X40411Y24005D01*
Y23905D01*
X40311Y23805D01*
X40411Y23705D01*
Y23605D01*
X40311Y23505D01*
X40111D01*
X40011Y23605D01*
Y23705D01*
X40111Y23805D01*
X40011Y23905D01*
Y24005D01*
X40111Y23805D02*
X40311D01*
X40611Y23505D02*
Y23605D01*
X40711D01*
Y23505D01*
X40611D01*
X41111Y24005D02*
X41211Y24105D01*
X41410D01*
X41510Y24005D01*
Y23905D01*
X41410Y23805D01*
X41310D01*
X41410D01*
X41510Y23705D01*
Y23605D01*
X41410Y23505D01*
X41211D01*
X41111Y23605D01*
X41710Y23505D02*
X41910D01*
X41810D01*
Y24105D01*
X41710Y24005D01*
X42210Y23505D02*
Y23905D01*
X42310D01*
X42410Y23805D01*
Y23505D01*
Y23805D01*
X42510Y23905D01*
X42610Y23805D01*
Y23505D01*
X42810D02*
Y23905D01*
X42910D01*
X43010Y23805D01*
Y23505D01*
Y23805D01*
X43110Y23905D01*
X43210Y23805D01*
Y23505D01*
X53872Y24505D02*
X54072D01*
X53972D01*
Y25105D01*
X53872Y25005D01*
X54671Y24505D02*
Y25105D01*
X54372Y24805D01*
X54771D01*
X54971Y24505D02*
Y24605D01*
X55071D01*
Y24505D01*
X54971D01*
X55471Y25005D02*
X55571Y25105D01*
X55771D01*
X55871Y25005D01*
Y24905D01*
X55771Y24805D01*
X55871Y24705D01*
Y24605D01*
X55771Y24505D01*
X55571D01*
X55471Y24605D01*
Y24705D01*
X55571Y24805D01*
X55471Y24905D01*
Y25005D01*
X55571Y24805D02*
X55771D01*
X56471Y25105D02*
X56071D01*
Y24805D01*
X56271Y24905D01*
X56371D01*
X56471Y24805D01*
Y24605D01*
X56371Y24505D01*
X56171D01*
X56071Y24605D01*
X56671Y24505D02*
Y24905D01*
X56771D01*
X56871Y24805D01*
Y24505D01*
Y24805D01*
X56971Y24905D01*
X57071Y24805D01*
Y24505D01*
X57271D02*
Y24905D01*
X57371D01*
X57471Y24805D01*
Y24505D01*
Y24805D01*
X57571Y24905D01*
X57670Y24805D01*
Y24505D01*
X54045Y25505D02*
X54245D01*
X54145D01*
Y26105D01*
X54045Y26005D01*
X54545D02*
X54645Y26105D01*
X54845D01*
X54945Y26005D01*
Y25905D01*
X54845Y25805D01*
X54745D01*
X54845D01*
X54945Y25705D01*
Y25605D01*
X54845Y25505D01*
X54645D01*
X54545Y25605D01*
X55145Y25505D02*
Y25605D01*
X55245D01*
Y25505D01*
X55145D01*
X55644Y25605D02*
X55744Y25505D01*
X55944D01*
X56044Y25605D01*
Y26005D01*
X55944Y26105D01*
X55744D01*
X55644Y26005D01*
Y25905D01*
X55744Y25805D01*
X56044D01*
X56244Y26105D02*
X56644D01*
Y26005D01*
X56244Y25605D01*
Y25505D01*
X56844D02*
Y25905D01*
X56944D01*
X57044Y25805D01*
Y25505D01*
Y25805D01*
X57144Y25905D01*
X57244Y25805D01*
Y25505D01*
X57444D02*
Y25905D01*
X57544D01*
X57644Y25805D01*
Y25505D01*
Y25805D01*
X57744Y25905D01*
X57844Y25805D01*
Y25505D01*
X36545Y20505D02*
X36745D01*
X36645D01*
Y21105D01*
X36545Y21005D01*
X37045D02*
X37145Y21105D01*
X37345D01*
X37445Y21005D01*
Y20605D01*
X37345Y20505D01*
X37145D01*
X37045Y20605D01*
Y21005D01*
X37645Y20505D02*
X37845D01*
X37745D01*
Y21105D01*
X37645Y21005D01*
X38145Y20505D02*
Y20605D01*
X38244D01*
Y20505D01*
X38145D01*
X39044Y21105D02*
X38844Y21005D01*
X38644Y20805D01*
Y20605D01*
X38744Y20505D01*
X38944D01*
X39044Y20605D01*
Y20705D01*
X38944Y20805D01*
X38644D01*
X39244Y21005D02*
X39344Y21105D01*
X39544D01*
X39644Y21005D01*
Y20605D01*
X39544Y20505D01*
X39344D01*
X39244Y20605D01*
Y21005D01*
X39844Y20505D02*
Y20905D01*
X39944D01*
X40044Y20805D01*
Y20505D01*
Y20805D01*
X40144Y20905D01*
X40244Y20805D01*
Y20505D01*
X40444D02*
Y20905D01*
X40544D01*
X40644Y20805D01*
Y20505D01*
Y20805D01*
X40744Y20905D01*
X40844Y20805D01*
Y20505D01*
X37245Y21605D02*
X37345Y21505D01*
X37545D01*
X37645Y21605D01*
Y22005D01*
X37545Y22105D01*
X37345D01*
X37245Y22005D01*
Y21905D01*
X37345Y21805D01*
X37645D01*
X37845Y21605D02*
X37945Y21505D01*
X38145D01*
X38245Y21605D01*
Y22005D01*
X38145Y22105D01*
X37945D01*
X37845Y22005D01*
Y21905D01*
X37945Y21805D01*
X38245D01*
X38445Y21505D02*
Y21605D01*
X38545D01*
Y21505D01*
X38445D01*
X38944Y22005D02*
X39044Y22105D01*
X39244D01*
X39344Y22005D01*
Y21605D01*
X39244Y21505D01*
X39044D01*
X38944Y21605D01*
Y22005D01*
X39944Y22105D02*
X39744Y22005D01*
X39544Y21805D01*
Y21605D01*
X39644Y21505D01*
X39844D01*
X39944Y21605D01*
Y21705D01*
X39844Y21805D01*
X39544D01*
X40144Y21505D02*
Y21905D01*
X40244D01*
X40344Y21805D01*
Y21505D01*
Y21805D01*
X40444Y21905D01*
X40544Y21805D01*
Y21505D01*
X40744D02*
Y21905D01*
X40844D01*
X40944Y21805D01*
Y21505D01*
Y21805D01*
X41044Y21905D01*
X41144Y21805D01*
Y21505D01*
D79*
X19406Y52034D02*
X19971Y51751D01*
X19689Y52317D02*
X19971Y51751D01*
X-7398Y79120D02*
X19971Y51751D01*
X-7398Y79120D02*
X64882D01*
X64654Y27468D02*
X64854Y26868D01*
X65054Y27468D01*
X64854Y49547D02*
X65054Y48947D01*
X64654D02*
X64854Y49547D01*
Y26868D02*
Y35988D01*
Y40107D02*
Y49547D01*
X58604Y26868D02*
X64954D01*
X53817Y49547D02*
X64954D01*
X63654Y27468D02*
X63854Y26868D01*
X64054Y27468D01*
X63854Y49657D02*
X64054Y49057D01*
X63654D02*
X63854Y49657D01*
Y26868D02*
Y35993D01*
Y40212D02*
Y49657D01*
X58604Y26868D02*
X63954D01*
X25037Y49657D02*
X63954D01*
X62654Y30395D02*
X62854Y29795D01*
X63054Y30395D01*
X62854Y26868D02*
X63054Y26268D01*
X62654D02*
X62854Y26868D01*
Y29795D02*
Y30795D01*
Y25868D02*
Y26868D01*
X58604D02*
X62954D01*
X24895Y29795D02*
X62954D01*
X65654Y27468D02*
X65854Y26868D01*
X66054Y27468D01*
X65854Y51868D02*
X66054Y51268D01*
X65654D02*
X65854Y51868D01*
Y26868D02*
Y37099D01*
Y41318D02*
Y51868D01*
X58604Y26868D02*
X65954D01*
X58604Y51868D02*
X65954D01*
X58254Y23665D02*
X58854Y23865D01*
X58254Y24065D02*
X58854Y23865D01*
X24087D02*
X24687Y24065D01*
X24087Y23865D02*
X24687Y23665D01*
X43370Y23865D02*
X58854D01*
X24087D02*
X39251D01*
X58854Y23765D02*
Y51328D01*
X24087Y23765D02*
Y28987D01*
X58254Y24665D02*
X58854Y24865D01*
X58254Y25065D02*
X58854Y24865D01*
X53008D02*
X53608Y25065D01*
X53008Y24865D02*
X53608Y24665D01*
X57830Y24865D02*
X58854D01*
X53008D02*
X53712D01*
X58854Y24765D02*
Y51328D01*
X53008Y24765D02*
Y48738D01*
X58254Y25665D02*
X58854Y25865D01*
X58254Y26065D02*
X58854Y25865D01*
X53354D02*
X53954Y26065D01*
X53354Y25865D02*
X53954Y25665D01*
X58004Y25865D02*
X58854D01*
X53354D02*
X53885D01*
X58854Y25765D02*
Y51328D01*
X53354Y25765D02*
Y29059D01*
X58254Y20665D02*
X58854Y20865D01*
X58254Y21065D02*
X58854Y20865D01*
X18854D02*
X19454Y21065D01*
X18854Y20865D02*
X19454Y20665D01*
X41004Y20865D02*
X58854D01*
X18854D02*
X36385D01*
X58854Y20765D02*
Y51328D01*
X18854Y20765D02*
Y30718D01*
X58254Y21665D02*
X58854Y21865D01*
X58254Y22065D02*
X58854Y21865D01*
X19854D02*
X20454Y22065D01*
X19854Y21865D02*
X20454Y21665D01*
X41304Y21865D02*
X58854D01*
X19854D02*
X37085D01*
X58854Y21765D02*
Y51328D01*
X19854Y21765D02*
Y29718D01*
M02*
