M48
;Layer_Color=9474304
;FILE_FORMAT=2:5
INCH,TZ
;TYPE=PLATED
T01F00S00C0.00787
T02F00S00C0.01181
T03F00S00C0.04331
T04F00S00C0.05906
T05F00S00C0.06693
;TYPE=NON_PLATED
T06F00S00C0.12600
T07F00S00C0.15748
%
T01
X556811Y197786
X583944Y198456
X583940Y202719
X580592Y205582
X590424Y201806
X588207Y198460
X529649Y200873
X532405Y204023
X521156Y203566
X516893Y203562
X516898Y199300
X520174Y197152
X526499Y197723
X497756Y197786
X450512
X387520
X324528
X270295Y198856
X270291Y203119
X266028Y203114
X266945Y196634
X259973Y197757
X256823Y200907
X254067Y204057
X235945Y197786
X211929Y200936
X214685Y204085
X208780Y197786
X201806Y196662
X198461Y198880
X198387Y203212
X202649Y203216
X205630Y206448
X209567Y209991
X212323Y213534
X215866Y217471
X219803Y221014
X222559Y224558
X226749Y226308
X231241Y231203
X234275Y234275
X237309Y237348
X237348Y231241
X234213Y223552
X234618Y219222
X238772Y219109
X230433Y218259
X227012Y216165
X227017Y211899
X224511Y209389
X220984Y209991
X217835Y206841
X218149Y235176
X217835Y239125
X221656Y236503
X223369Y234595
X231203Y237309
X234213Y245206
X238937Y244419
X238321Y249335
X225547Y244419
X222292Y247348
X222284Y251615
X219778Y254120
X215512Y254112
X213441Y257074
X209898Y259830
X206354Y263767
X203566Y265931
X203562Y270193
X199300Y270189
X197152Y266913
X197693Y260618
X200843Y257468
X203992Y254712
X207536Y251169
X210354Y246605
X214374Y305513
X296586Y303465
X297656Y293200
X289626Y296505
X290696Y286240
X282666Y289545
X281598Y276935
X275707Y282585
X274706Y269971
X268747Y275626
X266269Y261361
X254827Y261706
X257083Y252269
X256417Y243849
X253268Y239125
X252087Y236369
X247598Y233395
X244843Y233789
X245394Y237550
X243499Y239316
X242588Y249343
X247868Y254747
X249724Y230070
X251693Y227707
X254392Y224313
X258780Y220227
X257598Y215503
X255630Y213928
X259185Y209962
X263122Y206419
X250524Y207600
X248515Y209361
X244249Y209357
X241743Y211862
X241735Y216129
X242100Y227843
X304615Y300159
X303545Y310424
X311575Y307119
X314756Y316434
X306740Y319734
X312073Y328007
X320100Y324699
X319032Y334966
X327060Y331659
X325992Y341926
X334019Y338618
X332952Y348886
X340979Y345578
X339912Y355846
X354898Y359497
X354153Y333790
X354055Y330148
X361142Y333692
X366260
X373248Y333790
X373346Y330148
X363504Y322668
Y319125
X371287Y274073
X374134Y274952
X381221Y272589
X386339
X387405Y264748
X393425Y274952
X396181Y274164
X383583Y282038
X383583Y285581
X388342Y237413
X372360Y237462
X398935
X414917Y237413
X409481Y264657
X418543Y286762
X428543
Y310600
X418543
X432636Y326530
X441232Y329269
X439596Y319570
X448192Y322309
X446556Y312610
X451575Y306496
X456684Y314110
X466260Y311959
X469016Y320621
X475315Y324558
Y327314
X478051Y334007
X482008Y333219
X484764Y334007
X488110Y329597
X485551Y322983
X482008Y323770
X486732Y311959
X482991Y287510
X474395Y284771
X481354Y277812
X489950Y280551
X488314Y270852
X496910Y273591
X495710Y264357
X505551Y264251
X506663Y272266
X515394Y264244
X524478Y266495
X527677Y272983
X531438Y259535
X522354Y257285
X528291Y250881
X524921Y243876
X526072Y239912
X535945Y241341
X537542Y238355
X542668Y238937
X549739Y237309
X549777Y231203
X542700Y229935
X542668Y225547
X539738Y222292
X535472Y222284
X532966Y219778
X532975Y215511
X530043Y213471
X527287Y209928
X523350Y206385
X535948Y207566
X540276Y211172
X543819Y214322
X547362Y217471
X551911Y218149
X550584Y221656
X552492Y223369
X549724Y245424
X547771Y243499
X550906Y250542
X548150Y253692
X541926Y252117
X538788Y252989
X507992Y291881
X460236Y293937
X458543Y283219
X465472Y341881
X470984
X474134Y338731
X480827Y341881
X469803Y347786
X434272Y336228
X425677Y333489
X427313Y343188
X418717Y340449
X420353Y350148
X411757Y347409
X413393Y357108
X404798Y354368
X397838Y361328
X553268Y248180
X553580Y245411
X556811Y250148
X558779Y251723
X563110Y252904
X566653Y259991
X571378Y256448
X573603Y256407
X577146Y259163
X580689Y263100
X583972Y266028
X583968Y270291
X588230Y270295
X590452Y266945
X589351Y259950
X586201Y256801
X583051Y254045
X579508Y250501
X576496Y246999
X575224Y241743
X570958Y241735
X567978Y238772
X567865Y234618
X563534Y234212
X569410Y230857
X570921Y227012
X575188Y227016
X577698Y224511
X576890Y221014
X579411Y218180
X582954Y214637
X586103Y211881
X589253Y208731
X577048Y209519
X573505Y212275
X569568Y215818
X566653Y218652
X563504Y222196
X560778Y226749
X555884Y231241
X553268Y233819
X555845Y237348
X559243Y242099
X588307Y237156
X587787Y516898
X583524Y516893
X518768Y511556
X507382Y511505
X511808Y504596
X500423Y504546
X484543Y500600
X479543Y483667
X490929Y483717
X484543Y476763
X472584Y476707
X477010Y469798
X465624Y469747
X470050Y462838
X458664Y462787
X463090Y455878
X451705Y455828
X456130Y448918
X444745Y448868
X449171Y441959
X437785Y441908
X442211Y434999
X441609Y425175
X433594Y423160
Y433003
X438725Y415764
X427255Y415630
X431765Y408805
X428465Y397393
X417845Y394885
X406024Y395030
X406249Y399693
X403620Y399812
X401020Y400665
X401101Y403462
X398858Y404903
X397861Y393640
X401299Y385975
X403551Y382031
X407882Y386756
X410886Y387926
X413504Y403298
Y406841
X414685Y411172
X406613Y414715
X409567Y417865
X402087
X400504Y371923
X406434Y364067
X448150Y378101
X469803Y369440
X519134Y497323
X396567Y510076
X388551Y505946
Y515788
Y476418
Y466576
Y456733
Y446890
Y437048
Y427206
X396567Y431335
Y421493
X385945Y417471
X388701Y409203
X385945Y406448
X377145Y399212
X373668Y391151
X378968Y386769
X386218Y385927
X383299Y382045
X386332Y378998
X380369Y378172
X380821Y370157
X370979
X370526Y378172
X360791Y376725
X361858Y366457
X353831Y369765
X392489Y369590
X390290Y372842
X393488Y379676
X393571Y389294
X393543Y393612
X393571Y397885
X389225Y393585
X365586Y398933
X371001Y405153
X359748Y405070
X364041Y412112
X352788Y412030
X350048Y421483
X358063Y419931
Y429774
X350048Y431325
X354997Y439126
X343831Y438956
X348037Y446086
X336872Y445916
X341077Y453046
X329912Y452876
X334118Y460006
X322952Y459836
X327158Y466965
X315992Y466795
X320198Y473925
X309033Y473755
X313238Y480885
X302830Y479816
X294156Y488378
X292359Y501764
X281194Y501594
X285400Y508723
X274234Y508554
X278440Y515683
X267274Y515513
X396567Y470706
Y460863
Y451020
Y441178
X203119Y516796
X198856Y516792
X196634Y520142
X203114Y521058
X206632Y525014
X210569Y528558
X214781Y528515
X213504Y530857
X222165Y528101
X224134Y533219
X228071Y534794
X230433Y537156
X233395Y539488
X233789Y542244
X236732Y541881
X239316Y543588
X237348Y549777
X234275Y552811
X231203Y555845
X231241Y549739
X227843Y544987
X219109Y548315
X219222Y552469
X223552Y552874
X218228Y556841
X216165Y560074
X211899Y560070
X209389Y562575
X209385Y566842
X207420Y568589
X204270Y571739
X201514Y574889
X197971Y578432
X196662Y585280
X198880Y588626
X203142Y588630
X203147Y584368
X206632Y580794
X210569Y577251
X214291Y573770
X218622Y570227
X222165Y566684
X226308Y560337
X234595Y563718
X236503Y565430
X235176Y568937
X240276Y570621
X237309Y555884
X236339Y536763
X239094Y534007
X209361Y538571
X207420Y537219
X204270Y534069
X201514Y530920
X197971Y527377
X209357Y542838
X211862Y545343
X216129Y545352
X230039Y587550
X245000Y574952
X251120Y579503
X254664Y583046
X257420Y586196
X260569Y589345
X266913Y589935
X270189Y587787
X270193Y583524
X265931Y583520
X263719Y580684
X259782Y577140
X257026Y573597
X254112Y571575
X254120Y567308
X251615Y564803
X247348Y564794
X244419Y561540
X244386Y557152
X245206Y552874
X244419Y548150
X249304Y548953
X249308Y544687
X251299Y531251
X244213Y533613
X257561Y536562
X263504Y531251
X260315Y522473
X271480Y522643
X300905Y587550
X348150
X395394
X393000Y566016
X386614Y554957
X388701Y544636
X385945Y541881
X387520Y538731
Y531644
X385551Y528495
X388307Y524164
X396575Y522196
X396606Y549436
X397756Y540306
Y531644
X399678Y558786
X442638Y587550
X487913
X516722Y588161
X516726Y583898
X520989Y583903
X523756Y580920
X527693Y577377
X530449Y573833
X528465Y570621
X533976Y571014
X545352Y570958
X545343Y575224
X541472Y575919
X536735Y579720
X532706Y584408
X528073Y589315
X520211Y590522
X527283Y565503
X531220Y561959
X535157Y559203
X537913Y556448
X539488Y553692
X542244Y553298
X541493Y549431
X543588Y547771
X549777Y549739
X552811Y552811
X549739Y555845
X544987Y559243
X548315Y567978
X552469Y567865
X552874Y563534
X548150Y542668
X548919Y537572
X544652Y537564
X539647Y532435
X528262Y532384
X532687Y525475
X521302Y525425
X533976Y538731
Y541881
Y547393
X536732Y550148
X550906Y587550
X560070Y575188
X560074Y570921
X556811Y568652
X560337Y560778
X565079Y563928
X570197Y568652
X573347Y572589
X577221Y576705
X580764Y580642
X584368Y583940
X588630Y583944
X588626Y588207
X585211Y590494
X578402Y589304
X574858Y585760
X571709Y583004
X568559Y579855
X565472Y576526
X563718Y552492
X565430Y550584
X568937Y551911
X569410Y546999
X574134Y542274
X576496Y539125
X579315Y536154
X582858Y532611
X586008Y529855
X589157Y526705
X590074Y520313
X583520Y521156
X580496Y523556
X576953Y527493
X573409Y530248
X569803Y534007
X564803Y535472
X564794Y539738
X561540Y542668
X557152Y542700
X553223Y542045
X555884Y549777
X555845Y555884
X588307Y558022
T02
X688819Y69923
X491968Y69919
X295118Y69921
X98268
Y266772
X688819Y266768
Y463585
X98268Y463622
X98268Y660472
X295118Y660472
X491968
X688819
T03
X360314Y301693
X370157Y301693
X379999
X389842
X399685
X409528
T04
X392598Y558858
T05
X382598Y548858
Y568858
X402598
Y548858
T06
X240866Y297953
X533543Y298681
X530079Y495472
X242284Y496575
T07
X27402Y27402
X759685
Y759685
X27402
M30
