G04*
G04 #@! TF.GenerationSoftware,Altium Limited,Altium Designer,25.0.2 (28)*
G04*
G04 Layer_Physical_Order=1*
G04 Layer_Color=255*
%FSLAX24Y24*%
%MOIN*%
G70*
G04*
G04 #@! TF.SameCoordinates,4B7BC283-7035-4C9F-97D5-5998C8FB6373*
G04*
G04*
G04 #@! TF.FilePolarity,Positive*
G04*
G01*
G75*
%ADD10C,0.0059*%
%ADD14R,0.0236X0.0217*%
G04:AMPARAMS|DCode=15|XSize=21.7mil|YSize=23.6mil|CornerRadius=0mil|HoleSize=0mil|Usage=FLASHONLY|Rotation=315.000|XOffset=0mil|YOffset=0mil|HoleType=Round|Shape=Rectangle|*
%AMROTATEDRECTD15*
4,1,4,-0.0160,-0.0007,0.0007,0.0160,0.0160,0.0007,-0.0007,-0.0160,-0.0160,-0.0007,0.0*
%
%ADD15ROTATEDRECTD15*%

%ADD16R,0.0217X0.0236*%
G04:AMPARAMS|DCode=17|XSize=21.7mil|YSize=23.6mil|CornerRadius=0mil|HoleSize=0mil|Usage=FLASHONLY|Rotation=45.000|XOffset=0mil|YOffset=0mil|HoleType=Round|Shape=Rectangle|*
%AMROTATEDRECTD17*
4,1,4,0.0007,-0.0160,-0.0160,0.0007,-0.0007,0.0160,0.0160,-0.0007,0.0007,-0.0160,0.0*
%
%ADD17ROTATEDRECTD17*%

%ADD18R,0.0256X0.0197*%
G04:AMPARAMS|DCode=19|XSize=19.7mil|YSize=25.6mil|CornerRadius=0mil|HoleSize=0mil|Usage=FLASHONLY|Rotation=315.000|XOffset=0mil|YOffset=0mil|HoleType=Round|Shape=Rectangle|*
%AMROTATEDRECTD19*
4,1,4,-0.0160,-0.0021,0.0021,0.0160,0.0160,0.0021,-0.0021,-0.0160,-0.0160,-0.0021,0.0*
%
%ADD19ROTATEDRECTD19*%

G04:AMPARAMS|DCode=20|XSize=19.7mil|YSize=23.6mil|CornerRadius=0mil|HoleSize=0mil|Usage=FLASHONLY|Rotation=135.000|XOffset=0mil|YOffset=0mil|HoleType=Round|Shape=Rectangle|*
%AMROTATEDRECTD20*
4,1,4,0.0153,0.0014,-0.0014,-0.0153,-0.0153,-0.0014,0.0014,0.0153,0.0153,0.0014,0.0*
%
%ADD20ROTATEDRECTD20*%

G04:AMPARAMS|DCode=21|XSize=19.7mil|YSize=25.6mil|CornerRadius=0mil|HoleSize=0mil|Usage=FLASHONLY|Rotation=45.000|XOffset=0mil|YOffset=0mil|HoleType=Round|Shape=Rectangle|*
%AMROTATEDRECTD21*
4,1,4,0.0021,-0.0160,-0.0160,0.0021,-0.0021,0.0160,0.0160,-0.0021,0.0021,-0.0160,0.0*
%
%ADD21ROTATEDRECTD21*%

G04:AMPARAMS|DCode=22|XSize=19.7mil|YSize=23.6mil|CornerRadius=0mil|HoleSize=0mil|Usage=FLASHONLY|Rotation=45.000|XOffset=0mil|YOffset=0mil|HoleType=Round|Shape=Rectangle|*
%AMROTATEDRECTD22*
4,1,4,0.0014,-0.0153,-0.0153,0.0014,-0.0014,0.0153,0.0153,-0.0014,0.0014,-0.0153,0.0*
%
%ADD22ROTATEDRECTD22*%

G04:AMPARAMS|DCode=23|XSize=11.8mil|YSize=23.6mil|CornerRadius=3mil|HoleSize=0mil|Usage=FLASHONLY|Rotation=225.000|XOffset=0mil|YOffset=0mil|HoleType=Round|Shape=RoundedRectangle|*
%AMROUNDEDRECTD23*
21,1,0.0118,0.0177,0,0,225.0*
21,1,0.0059,0.0236,0,0,225.0*
1,1,0.0059,-0.0084,0.0042*
1,1,0.0059,-0.0042,0.0084*
1,1,0.0059,0.0084,-0.0042*
1,1,0.0059,0.0042,-0.0084*
%
%ADD23ROUNDEDRECTD23*%
G04:AMPARAMS|DCode=24|XSize=23.6mil|YSize=11.8mil|CornerRadius=3mil|HoleSize=0mil|Usage=FLASHONLY|Rotation=225.000|XOffset=0mil|YOffset=0mil|HoleType=Round|Shape=RoundedRectangle|*
%AMROUNDEDRECTD24*
21,1,0.0236,0.0059,0,0,225.0*
21,1,0.0177,0.0118,0,0,225.0*
1,1,0.0059,-0.0084,-0.0042*
1,1,0.0059,0.0042,0.0084*
1,1,0.0059,0.0084,0.0042*
1,1,0.0059,-0.0042,-0.0084*
%
%ADD24ROUNDEDRECTD24*%
%ADD25R,0.0300X0.0320*%
G04:AMPARAMS|DCode=26|XSize=11.8mil|YSize=23.6mil|CornerRadius=3mil|HoleSize=0mil|Usage=FLASHONLY|Rotation=0.000|XOffset=0mil|YOffset=0mil|HoleType=Round|Shape=RoundedRectangle|*
%AMROUNDEDRECTD26*
21,1,0.0118,0.0177,0,0,0.0*
21,1,0.0059,0.0236,0,0,0.0*
1,1,0.0059,0.0030,-0.0089*
1,1,0.0059,-0.0030,-0.0089*
1,1,0.0059,-0.0030,0.0089*
1,1,0.0059,0.0030,0.0089*
%
%ADD26ROUNDEDRECTD26*%
G04:AMPARAMS|DCode=27|XSize=23.6mil|YSize=11.8mil|CornerRadius=3mil|HoleSize=0mil|Usage=FLASHONLY|Rotation=0.000|XOffset=0mil|YOffset=0mil|HoleType=Round|Shape=RoundedRectangle|*
%AMROUNDEDRECTD27*
21,1,0.0236,0.0059,0,0,0.0*
21,1,0.0177,0.0118,0,0,0.0*
1,1,0.0059,0.0089,-0.0030*
1,1,0.0059,-0.0089,-0.0030*
1,1,0.0059,-0.0089,0.0030*
1,1,0.0059,0.0089,0.0030*
%
%ADD27ROUNDEDRECTD27*%
G04:AMPARAMS|DCode=28|XSize=11.8mil|YSize=23.6mil|CornerRadius=3mil|HoleSize=0mil|Usage=FLASHONLY|Rotation=135.000|XOffset=0mil|YOffset=0mil|HoleType=Round|Shape=RoundedRectangle|*
%AMROUNDEDRECTD28*
21,1,0.0118,0.0177,0,0,135.0*
21,1,0.0059,0.0236,0,0,135.0*
1,1,0.0059,0.0042,0.0084*
1,1,0.0059,0.0084,0.0042*
1,1,0.0059,-0.0042,-0.0084*
1,1,0.0059,-0.0084,-0.0042*
%
%ADD28ROUNDEDRECTD28*%
G04:AMPARAMS|DCode=29|XSize=23.6mil|YSize=11.8mil|CornerRadius=3mil|HoleSize=0mil|Usage=FLASHONLY|Rotation=135.000|XOffset=0mil|YOffset=0mil|HoleType=Round|Shape=RoundedRectangle|*
%AMROUNDEDRECTD29*
21,1,0.0236,0.0059,0,0,135.0*
21,1,0.0177,0.0118,0,0,135.0*
1,1,0.0059,-0.0042,0.0084*
1,1,0.0059,0.0084,-0.0042*
1,1,0.0059,0.0042,-0.0084*
1,1,0.0059,-0.0084,0.0042*
%
%ADD29ROUNDEDRECTD29*%
%ADD30R,0.0197X0.0236*%
%ADD60C,0.0394*%
G04:AMPARAMS|DCode=61|XSize=108.3mil|YSize=108.3mil|CornerRadius=5.4mil|HoleSize=0mil|Usage=FLASHONLY|Rotation=225.000|XOffset=0mil|YOffset=0mil|HoleType=Round|Shape=RoundedRectangle|*
%AMROUNDEDRECTD61*
21,1,0.1083,0.0974,0,0,225.0*
21,1,0.0974,0.1083,0,0,225.0*
1,1,0.0108,-0.0689,0.0000*
1,1,0.0108,0.0000,0.0689*
1,1,0.0108,0.0689,0.0000*
1,1,0.0108,0.0000,-0.0689*
%
%ADD61ROUNDEDRECTD61*%
G04:AMPARAMS|DCode=62|XSize=108.3mil|YSize=108.3mil|CornerRadius=5.4mil|HoleSize=0mil|Usage=FLASHONLY|Rotation=0.000|XOffset=0mil|YOffset=0mil|HoleType=Round|Shape=RoundedRectangle|*
%AMROUNDEDRECTD62*
21,1,0.1083,0.0974,0,0,0.0*
21,1,0.0974,0.1083,0,0,0.0*
1,1,0.0108,0.0487,-0.0487*
1,1,0.0108,-0.0487,-0.0487*
1,1,0.0108,-0.0487,0.0487*
1,1,0.0108,0.0487,0.0487*
%
%ADD62ROUNDEDRECTD62*%
G04:AMPARAMS|DCode=63|XSize=108.3mil|YSize=108.3mil|CornerRadius=5.4mil|HoleSize=0mil|Usage=FLASHONLY|Rotation=135.000|XOffset=0mil|YOffset=0mil|HoleType=Round|Shape=RoundedRectangle|*
%AMROUNDEDRECTD63*
21,1,0.1083,0.0974,0,0,135.0*
21,1,0.0974,0.1083,0,0,135.0*
1,1,0.0108,0.0000,0.0689*
1,1,0.0108,0.0689,0.0000*
1,1,0.0108,0.0000,-0.0689*
1,1,0.0108,-0.0689,0.0000*
%
%ADD63ROUNDEDRECTD63*%
%ADD64C,0.0197*%
%ADD65C,0.0098*%
%ADD66C,0.0124*%
%ADD67C,0.0157*%
%ADD68C,0.0118*%
%ADD69C,0.0140*%
%ADD70C,0.0630*%
%ADD71R,0.0600X0.0630*%
%ADD72C,0.0748*%
%ADD73C,0.0827*%
%ADD74C,0.0157*%
%ADD75C,0.1260*%
%ADD76C,0.0197*%
%ADD77C,0.0236*%
G36*
X15535Y72920D02*
Y63173D01*
X5788D01*
X4118Y64844D01*
Y74591D01*
X13865D01*
X15535Y72920D01*
D02*
G37*
G36*
X74591Y72920D02*
Y63173D01*
X64844D01*
X63173Y64844D01*
Y74591D01*
X72920D01*
X74591Y72920D01*
D02*
G37*
G36*
X54906D02*
Y63173D01*
X45159D01*
X43488Y64844D01*
Y74591D01*
X53235D01*
X54906Y72920D01*
D02*
G37*
G36*
X35220D02*
Y63173D01*
X25473D01*
X23803Y64844D01*
Y74591D01*
X33550D01*
X35220Y72920D01*
D02*
G37*
G36*
X59039Y52482D02*
X59003Y52467D01*
X58851Y52620D01*
X58833Y52602D01*
X58577Y52858D01*
X58299Y53137D01*
X58275Y53113D01*
X57369Y54019D01*
X57403Y54053D01*
X56986Y54471D01*
X56979Y54464D01*
X56682Y54760D01*
X56689Y54767D01*
X56366Y55091D01*
X56362Y55108D01*
X56334Y55151D01*
X56231Y55254D01*
X56212Y55281D01*
X56231Y55308D01*
X56287Y55365D01*
X56409Y55244D01*
X56478Y55314D01*
X56687Y55105D01*
X56979Y55397D01*
X56770Y55606D01*
X56840Y55675D01*
X56395Y56121D01*
X56228Y55954D01*
X56111D01*
X56011Y55934D01*
X55999Y55926D01*
X55971Y55945D01*
X55952Y55948D01*
X55945Y55969D01*
X55945Y55971D01*
X55944Y55972D01*
X55940Y55984D01*
X55969Y56013D01*
X56026Y56099D01*
X56029Y56112D01*
X56214Y56297D01*
X56207Y56304D01*
X56506Y56603D01*
X56513Y56596D01*
X56931Y57014D01*
X56895Y57050D01*
X57826Y57981D01*
X57855Y57951D01*
X58134Y58229D01*
X58365Y58461D01*
X58378Y58447D01*
X58448Y58517D01*
X58657Y58308D01*
X58949Y58600D01*
X58740Y58809D01*
X58810Y58879D01*
X58780Y58908D01*
X58796Y58935D01*
X58816Y59011D01*
Y59039D01*
X59039D01*
Y52482D01*
D02*
G37*
G36*
X51726Y59013D02*
X51746Y58938D01*
X51762Y58911D01*
X51725Y58875D01*
X51795Y58805D01*
X51586Y58596D01*
X51879Y58304D01*
X52087Y58513D01*
X52157Y58443D01*
X52179Y58465D01*
X52414Y58229D01*
X52692Y57951D01*
X52721Y57979D01*
X53648Y57052D01*
X53612Y57016D01*
X54029Y56599D01*
X54036Y56606D01*
X54335Y56306D01*
X54328Y56300D01*
X54391Y56237D01*
X54377Y56195D01*
X54317Y56161D01*
X54262Y56106D01*
X54224Y56038D01*
X54203Y55963D01*
Y55887D01*
X54155Y55877D01*
X54080Y55827D01*
X53918Y55664D01*
X53910D01*
X53835Y55644D01*
X53768Y55605D01*
X53713Y55550D01*
X53674Y55483D01*
X53654Y55408D01*
Y55330D01*
X53674Y55255D01*
X53713Y55188D01*
X53768Y55133D01*
X53835Y55094D01*
X53910Y55074D01*
X53988D01*
X54049Y55090D01*
X54110Y55055D01*
X54154Y55043D01*
X54164Y55000D01*
X54123Y54958D01*
X54084Y54891D01*
X54064Y54816D01*
Y54738D01*
X54084Y54663D01*
X54123Y54596D01*
X54177Y54541D01*
X54194Y54532D01*
X54199Y54492D01*
X53962Y54255D01*
X53977Y54240D01*
X53721Y53984D01*
X53457Y53720D01*
X53479Y53698D01*
X43574Y43792D01*
X43516Y43707D01*
X43496Y43606D01*
Y42140D01*
X40741Y39385D01*
X40550D01*
X40535Y39421D01*
X40783Y39670D01*
X40838Y39751D01*
X40841Y39768D01*
X40861Y39788D01*
X40900Y39855D01*
X40920Y39930D01*
Y40008D01*
X40900Y40083D01*
X40861Y40151D01*
X40806Y40206D01*
X40739Y40244D01*
X40664Y40265D01*
X40586D01*
X40511Y40244D01*
X40504Y40240D01*
X40476Y40256D01*
X40401Y40276D01*
X40323D01*
X40312Y40274D01*
X40283Y40303D01*
X40216Y40342D01*
X40186Y40350D01*
X40166Y40396D01*
X40181Y40451D01*
Y40529D01*
X40161Y40604D01*
X40122Y40672D01*
X40067Y40727D01*
X40000Y40765D01*
X39925Y40786D01*
X39847D01*
X39772Y40765D01*
X39704Y40727D01*
X39649Y40672D01*
X39618Y40617D01*
X39579Y40628D01*
Y40950D01*
X39569D01*
Y41442D01*
X39579D01*
Y42052D01*
X39518D01*
Y52554D01*
X39579D01*
Y53145D01*
X39559D01*
Y53401D01*
Y53883D01*
X39579D01*
Y54493D01*
X39524D01*
Y55379D01*
X39610Y55429D01*
X39717Y55535D01*
X39792Y55665D01*
X39831Y55811D01*
Y55961D01*
X39792Y56106D01*
X39717Y56236D01*
X39610Y56343D01*
X39480Y56418D01*
X39335Y56457D01*
X39185D01*
X39039Y56418D01*
X38909Y56343D01*
X38803Y56236D01*
X38728Y56106D01*
X38689Y55961D01*
Y55811D01*
X38728Y55665D01*
X38803Y55535D01*
X38909Y55429D01*
X38996Y55379D01*
Y54493D01*
X38949D01*
Y54395D01*
X38654D01*
Y53981D01*
X38949D01*
Y53883D01*
X38969D01*
Y53401D01*
Y53145D01*
X38929D01*
Y53046D01*
X38654D01*
Y52653D01*
X38929D01*
Y52554D01*
X38990D01*
Y42052D01*
X38949D01*
Y41954D01*
X38654D01*
Y41540D01*
X38949D01*
Y41442D01*
X38959D01*
Y40950D01*
X38949D01*
Y40851D01*
X38654D01*
Y40438D01*
X38949D01*
Y40357D01*
X38916Y40323D01*
X38892Y40328D01*
X38833D01*
X38783Y40318D01*
X38740Y40290D01*
X38712Y40248D01*
X38702Y40198D01*
Y40052D01*
X38696Y40020D01*
X38664Y40013D01*
X38518D01*
X38468Y40003D01*
X38425Y39975D01*
X38397Y39933D01*
X38387Y39883D01*
Y39824D01*
X38397Y39774D01*
X38410Y39755D01*
X38397Y39736D01*
X38387Y39686D01*
Y39627D01*
X38397Y39577D01*
X38410Y39558D01*
X38397Y39539D01*
X38387Y39489D01*
Y39430D01*
X38390Y39415D01*
X38365Y39385D01*
X38037D01*
X35669Y41752D01*
Y43440D01*
X35649Y43541D01*
X35592Y43627D01*
X25403Y53816D01*
X25425Y53838D01*
X24966Y54297D01*
X24865Y54398D01*
X24878Y54410D01*
X24808Y54480D01*
X25017Y54689D01*
X24725Y54981D01*
X24516Y54772D01*
X24447Y54842D01*
X24413Y54808D01*
X24365Y54856D01*
X24369Y54868D01*
X24369Y54869D01*
X24370Y54872D01*
X24377Y54892D01*
X24396Y54896D01*
X24438Y54924D01*
X24480Y54966D01*
X24509Y55008D01*
X24518Y55058D01*
X24509Y55108D01*
X24480Y55151D01*
X24377Y55254D01*
X24358Y55281D01*
X24377Y55308D01*
X24480Y55412D01*
X24509Y55454D01*
X24518Y55504D01*
X24509Y55554D01*
X24480Y55596D01*
X24438Y55638D01*
X24396Y55666D01*
X24374Y55671D01*
X24369Y55693D01*
X24341Y55735D01*
X24319Y55758D01*
X24526Y55965D01*
X24317Y56174D01*
X24387Y56244D01*
X24380Y56251D01*
X24676Y56547D01*
X24697Y56526D01*
X24767Y56596D01*
X24962Y56401D01*
X25240Y56679D01*
X25045Y56874D01*
X25115Y56944D01*
X25063Y56995D01*
X25969Y57901D01*
X25990Y57881D01*
X26268Y58159D01*
X26524Y58416D01*
X26535Y58405D01*
X26604Y58475D01*
X26813Y58266D01*
X27105Y58558D01*
X26896Y58767D01*
X26966Y58837D01*
X26951Y58852D01*
X26966Y58880D01*
X26987Y58955D01*
Y59032D01*
X26992Y59039D01*
X51726D01*
Y59013D01*
D02*
G37*
G36*
X58043Y59003D02*
X57933Y58893D01*
X57947Y58878D01*
X57716Y58647D01*
X57438Y58369D01*
X57452Y58354D01*
X56521Y57423D01*
X56471Y57473D01*
X56402Y57403D01*
X56207Y57598D01*
X55928Y57320D01*
X56123Y57125D01*
X56054Y57055D01*
X56075Y57034D01*
X55775Y56735D01*
X55768Y56742D01*
X55699Y56673D01*
X55490Y56881D01*
X55272Y56664D01*
X55052Y56884D01*
X54843Y56675D01*
X54774Y56745D01*
X54767Y56738D01*
X54468Y57037D01*
X54488Y57058D01*
X54419Y57128D01*
X54614Y57323D01*
X54335Y57601D01*
X54140Y57406D01*
X54071Y57476D01*
X54021Y57426D01*
X53094Y58353D01*
X53110Y58368D01*
X52596Y58882D01*
X52602Y58889D01*
X52488Y59003D01*
X52503Y59039D01*
X58028D01*
X58043Y59003D01*
D02*
G37*
G36*
X26241D02*
X26089Y58851D01*
X26107Y58833D01*
X25850Y58577D01*
X25572Y58299D01*
X25596Y58275D01*
X24690Y57369D01*
X24655Y57403D01*
X24238Y56986D01*
X24245Y56979D01*
X23948Y56682D01*
X23942Y56689D01*
X23618Y56366D01*
X23600Y56362D01*
X23558Y56334D01*
X23455Y56231D01*
X23428Y56212D01*
X23400Y56231D01*
X23344Y56287D01*
X23465Y56409D01*
X23395Y56478D01*
X23604Y56687D01*
X23312Y56979D01*
X23103Y56770D01*
X23033Y56840D01*
X22588Y56395D01*
X22755Y56228D01*
Y56111D01*
X22774Y56011D01*
X22782Y55999D01*
X22764Y55971D01*
X22760Y55949D01*
X22737Y55945D01*
X22724Y55936D01*
X22693Y55967D01*
X22609Y56023D01*
X22601Y56025D01*
X22412Y56214D01*
X22405Y56207D01*
X22106Y56506D01*
X22113Y56513D01*
X21695Y56931D01*
X21659Y56895D01*
X20728Y57826D01*
X20758Y57855D01*
X20248Y58365D01*
X20261Y58378D01*
X20192Y58448D01*
X20401Y58657D01*
X20108Y58949D01*
X19899Y58740D01*
X19830Y58810D01*
X19808Y58787D01*
X19780Y58803D01*
X19705Y58823D01*
X19669D01*
Y59039D01*
X26226D01*
X26241Y59003D01*
D02*
G37*
G36*
X19816Y57933D02*
X19830Y57947D01*
X20062Y57716D01*
X20340Y57438D01*
X20355Y57452D01*
X21286Y56521D01*
X21236Y56471D01*
X21305Y56402D01*
X21110Y56207D01*
X21389Y55928D01*
X21584Y56123D01*
X21653Y56054D01*
X21674Y56075D01*
X21973Y55775D01*
X21967Y55768D01*
X22036Y55699D01*
X21827Y55490D01*
X22045Y55272D01*
X21825Y55052D01*
X22033Y54843D01*
X21964Y54774D01*
X21971Y54767D01*
X21671Y54468D01*
X21651Y54488D01*
X21581Y54419D01*
X21386Y54614D01*
X21108Y54335D01*
X21303Y54140D01*
X21233Y54071D01*
X21287Y54017D01*
X20368Y53098D01*
X20350Y53117D01*
X19904Y52671D01*
X19828Y52595D01*
X19813Y52609D01*
X19706Y52502D01*
X19669Y52517D01*
Y58028D01*
X19706Y58043D01*
X19816Y57933D01*
D02*
G37*
G36*
X22514Y54377D02*
X22548Y54317D01*
X22603Y54262D01*
X22670Y54224D01*
X22745Y54203D01*
X22822D01*
X22832Y54155D01*
X22882Y54080D01*
X23044Y53918D01*
Y53910D01*
X23064Y53835D01*
X23103Y53768D01*
X23158Y53713D01*
X23226Y53674D01*
X23301Y53654D01*
X23378D01*
X23453Y53674D01*
X23521Y53713D01*
X23576Y53768D01*
X23615Y53835D01*
X23635Y53910D01*
Y53988D01*
X23618Y54049D01*
X23654Y54110D01*
X23666Y54154D01*
X23709Y54164D01*
X23750Y54123D01*
X23818Y54084D01*
X23893Y54064D01*
X23970D01*
X24046Y54084D01*
X24113Y54123D01*
X24166Y54176D01*
X24176Y54183D01*
X24210Y54188D01*
X24433Y53965D01*
X24448Y53980D01*
X24743Y53685D01*
X25007Y53421D01*
X25030Y53443D01*
X35142Y43331D01*
Y41643D01*
X35162Y41542D01*
X35219Y41456D01*
X37792Y38883D01*
X37878Y38826D01*
X37896Y38823D01*
Y38755D01*
X37994D01*
Y38460D01*
X38407D01*
Y38712D01*
X38447Y38733D01*
X38468Y38719D01*
X38518Y38709D01*
X38664D01*
X38696Y38703D01*
X38702Y38671D01*
Y38525D01*
X38712Y38475D01*
X38713Y38474D01*
Y38410D01*
X38417D01*
Y37997D01*
X38713D01*
Y37908D01*
X38485Y37680D01*
X36390D01*
X36289Y37660D01*
X36203Y37603D01*
X30888Y32288D01*
X30831Y32202D01*
X30811Y32101D01*
Y31305D01*
X24911Y25406D01*
X24889Y25428D01*
X24430Y24969D01*
X24330Y24869D01*
X24317Y24881D01*
X24248Y24811D01*
X24039Y25020D01*
X23747Y24728D01*
X23955Y24519D01*
X23886Y24450D01*
X23911Y24424D01*
X23852Y24365D01*
X23840Y24369D01*
X23839Y24369D01*
X23837Y24370D01*
X23816Y24377D01*
X23813Y24396D01*
X23784Y24438D01*
X23742Y24480D01*
X23700Y24509D01*
X23650Y24518D01*
X23600Y24509D01*
X23558Y24480D01*
X23455Y24377D01*
X23428Y24358D01*
X23400Y24377D01*
X23297Y24480D01*
X23255Y24509D01*
X23205Y24518D01*
X23155Y24509D01*
X23113Y24480D01*
X23071Y24438D01*
X23043Y24396D01*
X23038Y24374D01*
X23016Y24369D01*
X22973Y24341D01*
X22951Y24319D01*
X22743Y24526D01*
X22534Y24317D01*
X22465Y24387D01*
X22458Y24380D01*
X22162Y24676D01*
X22183Y24697D01*
X22113Y24767D01*
X22308Y24962D01*
X22029Y25240D01*
X21835Y25045D01*
X21765Y25115D01*
X21713Y25063D01*
X20807Y25969D01*
X20828Y25990D01*
X20382Y26435D01*
X20293Y26524D01*
X20303Y26535D01*
X20234Y26604D01*
X20443Y26813D01*
X20150Y27105D01*
X19941Y26896D01*
X19872Y26966D01*
X19856Y26951D01*
X19829Y26966D01*
X19754Y26987D01*
X19676D01*
X19669Y26992D01*
Y51719D01*
X19702D01*
X19777Y51739D01*
X19805Y51755D01*
X19827Y51732D01*
X19897Y51802D01*
X20105Y51593D01*
X20398Y51886D01*
X20189Y52094D01*
X20259Y52164D01*
X20245Y52177D01*
X20322Y52254D01*
X20767Y52699D01*
X20741Y52725D01*
X21660Y53644D01*
X21692Y53612D01*
X22110Y54029D01*
X22103Y54036D01*
X22402Y54335D01*
X22409Y54328D01*
X22472Y54391D01*
X22514Y54377D01*
D02*
G37*
G36*
X56244Y54322D02*
X56251Y54329D01*
X56547Y54032D01*
X56526Y54011D01*
X56596Y53942D01*
X56401Y53747D01*
X56679Y53469D01*
X56874Y53663D01*
X56944Y53594D01*
X56995Y53646D01*
X57901Y52740D01*
X57881Y52719D01*
X58159Y52441D01*
X58416Y52185D01*
X58405Y52174D01*
X58475Y52105D01*
X58266Y51896D01*
X58558Y51603D01*
X58767Y51812D01*
X58837Y51743D01*
X58866Y51772D01*
X58893Y51756D01*
X58969Y51736D01*
X59039D01*
Y26990D01*
X59006D01*
X58931Y26970D01*
X58904Y26954D01*
X58882Y26976D01*
X58812Y26907D01*
X58603Y27115D01*
X58311Y26823D01*
X58520Y26614D01*
X58450Y26545D01*
X58463Y26532D01*
X58220Y26288D01*
X57941Y26010D01*
X57967Y25984D01*
X57049Y25065D01*
X57016Y25097D01*
X56599Y24680D01*
X56606Y24673D01*
X56306Y24373D01*
X56300Y24380D01*
X56237Y24318D01*
X56195Y24332D01*
X56161Y24391D01*
X56106Y24446D01*
X56038Y24485D01*
X55963Y24505D01*
X55893D01*
X55877Y24588D01*
X55827Y24663D01*
X55618Y24872D01*
X55602Y24932D01*
X55563Y24999D01*
X55508Y25054D01*
X55441Y25093D01*
X55366Y25113D01*
X55288D01*
X55213Y25093D01*
X55145Y25054D01*
X55090Y24999D01*
X55052Y24932D01*
X55031Y24857D01*
Y24779D01*
X55052Y24704D01*
X55082Y24652D01*
X55063Y24580D01*
Y24522D01*
X55060Y24520D01*
X55020Y24520D01*
X55013Y24531D01*
X54958Y24586D01*
X54891Y24625D01*
X54816Y24645D01*
X54738D01*
X54663Y24625D01*
X54596Y24586D01*
X54541Y24531D01*
X54537Y24525D01*
X54498Y24520D01*
X54252Y24766D01*
X54237Y24750D01*
X54097Y24891D01*
X54117Y24926D01*
X54154Y24916D01*
X54231D01*
X54307Y24937D01*
X54374Y24975D01*
X54429Y25030D01*
X54468Y25098D01*
X54488Y25173D01*
Y25251D01*
X54468Y25326D01*
X54429Y25393D01*
X54374Y25448D01*
X54307Y25487D01*
X54231Y25507D01*
X54154D01*
X54079Y25487D01*
X54011Y25448D01*
X53956Y25393D01*
X53917Y25326D01*
X53897Y25251D01*
Y25173D01*
X53907Y25136D01*
X53872Y25116D01*
X53678Y25310D01*
X53655Y25288D01*
X51931Y27012D01*
X51845Y27070D01*
X51744Y27090D01*
X49767D01*
X39914Y36943D01*
Y37899D01*
X39972D01*
Y37997D01*
X40268D01*
Y38410D01*
X39996D01*
X39980Y38450D01*
X39997Y38475D01*
X40006Y38525D01*
Y38671D01*
X40013Y38703D01*
X40045Y38709D01*
X40191D01*
X40238Y38719D01*
X40247Y38718D01*
X40278Y38702D01*
Y38460D01*
X40691D01*
Y38755D01*
X40789D01*
Y38806D01*
X40799D01*
X40900Y38826D01*
X40986Y38883D01*
X43947Y41844D01*
X44004Y41930D01*
X44024Y42031D01*
Y43496D01*
X53852Y53325D01*
X53874Y53302D01*
X54139Y53567D01*
X54395Y53823D01*
X54407Y53810D01*
X54477Y53880D01*
X54686Y53671D01*
X54978Y53963D01*
X54769Y54172D01*
X54839Y54242D01*
X54796Y54284D01*
X54856Y54344D01*
X54868Y54340D01*
X54869Y54339D01*
X54872Y54339D01*
X54892Y54332D01*
X54896Y54313D01*
X54924Y54270D01*
X54966Y54228D01*
X55008Y54200D01*
X55058Y54190D01*
X55108Y54200D01*
X55151Y54228D01*
X55254Y54332D01*
X55281Y54350D01*
X55308Y54332D01*
X55412Y54228D01*
X55454Y54200D01*
X55504Y54190D01*
X55554Y54200D01*
X55596Y54228D01*
X55638Y54270D01*
X55666Y54313D01*
X55671Y54335D01*
X55693Y54339D01*
X55735Y54368D01*
X55758Y54390D01*
X55965Y54183D01*
X56174Y54391D01*
X56244Y54322D01*
D02*
G37*
G36*
X15535Y53235D02*
Y43488D01*
X5788D01*
X4118Y45159D01*
Y54906D01*
X13865D01*
X15535Y53235D01*
D02*
G37*
G36*
X74591Y53235D02*
Y43488D01*
X64844D01*
X63173Y45159D01*
Y54906D01*
X72920D01*
X74591Y53235D01*
D02*
G37*
G36*
X59039Y26192D02*
Y20681D01*
X59003Y20666D01*
X58893Y20776D01*
X58878Y20761D01*
X58647Y20993D01*
X58369Y21271D01*
X58350Y21253D01*
X57419Y22184D01*
X57473Y22237D01*
X57403Y22307D01*
X57598Y22502D01*
X57320Y22780D01*
X57125Y22585D01*
X57055Y22655D01*
X57034Y22634D01*
X56735Y22933D01*
X56742Y22940D01*
X56673Y23010D01*
X56881Y23219D01*
X56664Y23436D01*
X56884Y23656D01*
X56675Y23865D01*
X56745Y23935D01*
X56738Y23942D01*
X57037Y24241D01*
X57058Y24220D01*
X57128Y24290D01*
X57323Y24095D01*
X57601Y24373D01*
X57406Y24568D01*
X57476Y24638D01*
X57422Y24692D01*
X58340Y25610D01*
X58359Y25592D01*
X58637Y25870D01*
X58881Y26114D01*
X58895Y26099D01*
X59003Y26207D01*
X59039Y26192D01*
D02*
G37*
G36*
X39386Y36834D02*
X39406Y36733D01*
X39463Y36647D01*
X49471Y26639D01*
X49556Y26582D01*
X49657Y26562D01*
X51635D01*
X53282Y24915D01*
X53260Y24892D01*
X53524Y24628D01*
X53700Y24452D01*
X53680Y24417D01*
X53633Y24429D01*
X53556D01*
X53481Y24409D01*
X53413Y24370D01*
X53358Y24315D01*
X53319Y24248D01*
X53299Y24173D01*
Y24095D01*
X53319Y24020D01*
X53358Y23953D01*
X53413Y23898D01*
X53481Y23859D01*
X53556Y23839D01*
X53633D01*
X53708Y23859D01*
X53776Y23898D01*
X53794Y23916D01*
X53960Y23750D01*
X54169Y23958D01*
X54239Y23889D01*
X54273Y23923D01*
X54344Y23852D01*
X54340Y23840D01*
X54339Y23839D01*
X54339Y23837D01*
X54332Y23816D01*
X54313Y23813D01*
X54270Y23784D01*
X54228Y23742D01*
X54200Y23700D01*
X54190Y23650D01*
X54200Y23600D01*
X54228Y23558D01*
X54332Y23455D01*
X54350Y23428D01*
X54332Y23400D01*
X54228Y23297D01*
X54200Y23255D01*
X54190Y23205D01*
X54200Y23155D01*
X54228Y23113D01*
X54270Y23071D01*
X54313Y23043D01*
X54335Y23038D01*
X54339Y23016D01*
X54368Y22973D01*
X54390Y22951D01*
X54183Y22743D01*
X54391Y22534D01*
X54322Y22465D01*
X54329Y22458D01*
X54032Y22162D01*
X54011Y22182D01*
X53942Y22113D01*
X53747Y22308D01*
X53469Y22029D01*
X53663Y21834D01*
X53594Y21765D01*
X53646Y21713D01*
X52740Y20807D01*
X52719Y20828D01*
X52274Y20382D01*
X52184Y20293D01*
X52174Y20303D01*
X52105Y20234D01*
X51896Y20443D01*
X51603Y20150D01*
X51812Y19941D01*
X51743Y19872D01*
X51758Y19856D01*
X51742Y19829D01*
X51722Y19754D01*
Y19676D01*
X51717Y19669D01*
X26990D01*
Y19702D01*
X26970Y19777D01*
X26954Y19805D01*
X26976Y19827D01*
X26907Y19897D01*
X27115Y20105D01*
X26823Y20398D01*
X26614Y20189D01*
X26545Y20259D01*
X26532Y20245D01*
X26288Y20489D01*
X26010Y20767D01*
X25984Y20741D01*
X25065Y21660D01*
X25097Y21692D01*
X24680Y22110D01*
X24673Y22103D01*
X24373Y22402D01*
X24380Y22409D01*
X24318Y22472D01*
X24332Y22514D01*
X24391Y22548D01*
X24446Y22603D01*
X24485Y22670D01*
X24505Y22745D01*
Y22822D01*
X24554Y22832D01*
X24629Y22882D01*
X24791Y23044D01*
X24799D01*
X24874Y23064D01*
X24941Y23103D01*
X24996Y23158D01*
X25035Y23226D01*
X25055Y23301D01*
Y23378D01*
X25035Y23453D01*
X24996Y23521D01*
X24941Y23576D01*
X24874Y23615D01*
X24799Y23635D01*
X24721D01*
X24660Y23618D01*
X24598Y23654D01*
X24555Y23666D01*
X24545Y23709D01*
X24586Y23750D01*
X24625Y23818D01*
X24645Y23893D01*
Y23970D01*
X24625Y24046D01*
X24586Y24113D01*
X24531Y24168D01*
X24527Y24200D01*
X24763Y24436D01*
X24747Y24451D01*
X24848Y24551D01*
X25307Y25010D01*
X25285Y25033D01*
X31261Y31009D01*
X31319Y31095D01*
X31339Y31196D01*
Y31992D01*
X36499Y37152D01*
X38594D01*
X38695Y37173D01*
X38781Y37230D01*
X39214Y37663D01*
X39271Y37748D01*
X39291Y37849D01*
Y37899D01*
X39386D01*
Y36834D01*
D02*
G37*
G36*
X15535Y33550D02*
Y23803D01*
X5788D01*
X4118Y25473D01*
Y35220D01*
X13865D01*
X15535Y33550D01*
D02*
G37*
G36*
X74591Y33550D02*
Y23803D01*
X64844D01*
X63173Y25473D01*
Y35220D01*
X72920D01*
X74591Y33550D01*
D02*
G37*
G36*
X19858Y26089D02*
X19875Y26107D01*
X20132Y25850D01*
X20410Y25572D01*
X20434Y25596D01*
X21340Y24690D01*
X21306Y24655D01*
X21723Y24238D01*
X21730Y24245D01*
X22026Y23948D01*
X22019Y23942D01*
X22343Y23618D01*
X22347Y23600D01*
X22375Y23558D01*
X22478Y23455D01*
X22497Y23428D01*
X22478Y23400D01*
X22421Y23344D01*
X22300Y23465D01*
X22231Y23395D01*
X22022Y23604D01*
X21729Y23312D01*
X21938Y23103D01*
X21869Y23033D01*
X22314Y22588D01*
X22481Y22755D01*
X22598D01*
X22698Y22774D01*
X22710Y22782D01*
X22737Y22764D01*
X22757Y22760D01*
X22764Y22740D01*
X22764Y22737D01*
X22765Y22736D01*
X22769Y22724D01*
X22740Y22695D01*
X22683Y22610D01*
X22680Y22597D01*
X22495Y22412D01*
X22502Y22405D01*
X22203Y22106D01*
X22196Y22113D01*
X21778Y21695D01*
X21810Y21663D01*
X20879Y20732D01*
X20853Y20758D01*
X20344Y20248D01*
X20330Y20261D01*
X20261Y20192D01*
X20052Y20401D01*
X19760Y20108D01*
X19968Y19899D01*
X19899Y19830D01*
X19921Y19808D01*
X19905Y19780D01*
X19885Y19705D01*
Y19669D01*
X19669D01*
Y26226D01*
X19706Y26241D01*
X19858Y26089D01*
D02*
G37*
G36*
X56013Y22740D02*
X56099Y22683D01*
X56112Y22680D01*
X56297Y22495D01*
X56304Y22502D01*
X56603Y22203D01*
X56596Y22196D01*
X57014Y21778D01*
X57046Y21810D01*
X57977Y20879D01*
X57951Y20853D01*
X58229Y20575D01*
X58461Y20344D01*
X58447Y20330D01*
X58517Y20261D01*
X58308Y20052D01*
X58600Y19760D01*
X58809Y19968D01*
X58879Y19899D01*
X58901Y19921D01*
X58928Y19905D01*
X59004Y19885D01*
X59039D01*
Y19669D01*
X52482D01*
X52467Y19706D01*
X52620Y19858D01*
X52602Y19875D01*
X52691Y19965D01*
X53137Y20410D01*
X53113Y20434D01*
X54019Y21340D01*
X54053Y21306D01*
X54471Y21723D01*
X54464Y21730D01*
X54760Y22026D01*
X54767Y22019D01*
X55091Y22343D01*
X55108Y22347D01*
X55151Y22375D01*
X55254Y22478D01*
X55281Y22497D01*
X55308Y22478D01*
X55365Y22421D01*
X55244Y22300D01*
X55314Y22231D01*
X55105Y22022D01*
X55397Y21729D01*
X55606Y21938D01*
X55675Y21869D01*
X56121Y22314D01*
X55954Y22481D01*
Y22598D01*
X55934Y22698D01*
X55926Y22710D01*
X55945Y22737D01*
X55948Y22757D01*
X55969Y22764D01*
X55971Y22764D01*
X55972Y22765D01*
X55984Y22769D01*
X56013Y22740D01*
D02*
G37*
G36*
X23656Y21825D02*
X23865Y22033D01*
X23935Y21964D01*
X23942Y21971D01*
X24241Y21671D01*
X24220Y21651D01*
X24290Y21581D01*
X24095Y21386D01*
X24373Y21108D01*
X24568Y21303D01*
X24638Y21233D01*
X24692Y21287D01*
X25610Y20368D01*
X25592Y20350D01*
X25870Y20072D01*
X26114Y19828D01*
X26099Y19813D01*
X26207Y19706D01*
X26192Y19669D01*
X20681D01*
X20666Y19706D01*
X20776Y19816D01*
X20761Y19830D01*
X21271Y20340D01*
X21253Y20358D01*
X22184Y21289D01*
X22237Y21236D01*
X22307Y21305D01*
X22502Y21110D01*
X22780Y21389D01*
X22585Y21584D01*
X22655Y21653D01*
X22634Y21674D01*
X22933Y21973D01*
X22940Y21967D01*
X23010Y22036D01*
X23219Y21827D01*
X23436Y22045D01*
X23656Y21825D01*
D02*
G37*
G36*
X74591Y13865D02*
Y4118D01*
X64844D01*
X63173Y5789D01*
Y15536D01*
X72920D01*
X74591Y13865D01*
D02*
G37*
G36*
X54906Y13865D02*
Y4118D01*
X45159D01*
X43488Y5788D01*
Y15535D01*
X53235D01*
X54906Y13865D01*
D02*
G37*
G36*
X35220D02*
Y4118D01*
X25473D01*
X23803Y5788D01*
Y15535D01*
X33550D01*
X35220Y13865D01*
D02*
G37*
G36*
X15535D02*
Y4118D01*
X5788D01*
X4118Y5788D01*
Y15535D01*
X13865D01*
X15535Y13865D01*
D02*
G37*
%LPC*%
G36*
X38327Y57398D02*
X38309D01*
Y56935D01*
X38772D01*
Y56953D01*
X38737Y57083D01*
X38669Y57200D01*
X38574Y57295D01*
X38457Y57363D01*
X38327Y57398D01*
D02*
G37*
G36*
X40327D02*
X40309D01*
Y56935D01*
X40772D01*
Y56953D01*
X40737Y57083D01*
X40669Y57200D01*
X40574Y57295D01*
X40457Y57363D01*
X40327Y57398D01*
D02*
G37*
G36*
X38211D02*
X38192D01*
X38062Y57363D01*
X37946Y57295D01*
X37850Y57200D01*
X37783Y57083D01*
X37748Y56953D01*
Y56935D01*
X38211D01*
Y57398D01*
D02*
G37*
G36*
X40211D02*
X40192D01*
X40062Y57363D01*
X39946Y57295D01*
X39850Y57200D01*
X39783Y57083D01*
X39748Y56953D01*
Y56935D01*
X40211D01*
Y57398D01*
D02*
G37*
G36*
X40772Y56837D02*
X40309D01*
Y56374D01*
X40327D01*
X40457Y56409D01*
X40574Y56476D01*
X40669Y56572D01*
X40737Y56688D01*
X40772Y56818D01*
Y56837D01*
D02*
G37*
G36*
X40211D02*
X39748D01*
Y56818D01*
X39783Y56688D01*
X39850Y56572D01*
X39946Y56476D01*
X40062Y56409D01*
X40192Y56374D01*
X40211D01*
Y56837D01*
D02*
G37*
G36*
X38772D02*
X38309D01*
Y56374D01*
X38327D01*
X38457Y56409D01*
X38574Y56476D01*
X38669Y56572D01*
X38737Y56688D01*
X38772Y56818D01*
Y56837D01*
D02*
G37*
G36*
X38211D02*
X37748D01*
Y56818D01*
X37783Y56688D01*
X37850Y56572D01*
X37946Y56476D01*
X38062Y56409D01*
X38192Y56374D01*
X38211D01*
Y56837D01*
D02*
G37*
G36*
X53161Y56491D02*
X53083D01*
X53008Y56471D01*
X52941Y56432D01*
X52886Y56377D01*
X52847Y56310D01*
X52827Y56235D01*
Y56157D01*
X52847Y56082D01*
X52886Y56015D01*
X52941Y55960D01*
X53008Y55921D01*
X53083Y55901D01*
X53161D01*
X53236Y55921D01*
X53303Y55960D01*
X53358Y56015D01*
X53397Y56082D01*
X53417Y56157D01*
Y56235D01*
X53397Y56310D01*
X53358Y56377D01*
X53303Y56432D01*
X53236Y56471D01*
X53161Y56491D01*
D02*
G37*
G36*
X38327Y55398D02*
X38309D01*
Y54935D01*
X38772D01*
Y54953D01*
X38737Y55083D01*
X38669Y55200D01*
X38574Y55295D01*
X38457Y55363D01*
X38327Y55398D01*
D02*
G37*
G36*
X40327D02*
X40309D01*
Y54935D01*
X40772D01*
Y54953D01*
X40737Y55083D01*
X40669Y55200D01*
X40574Y55295D01*
X40457Y55363D01*
X40327Y55398D01*
D02*
G37*
G36*
X38211D02*
X38192D01*
X38062Y55363D01*
X37946Y55295D01*
X37850Y55200D01*
X37783Y55083D01*
X37748Y54953D01*
Y54935D01*
X38211D01*
Y55398D01*
D02*
G37*
G36*
X40211D02*
X40192D01*
X40062Y55363D01*
X39946Y55295D01*
X39850Y55200D01*
X39783Y55083D01*
X39748Y54953D01*
Y54935D01*
X40211D01*
Y55398D01*
D02*
G37*
G36*
X40772Y54837D02*
X40309D01*
Y54374D01*
X40327D01*
X40457Y54409D01*
X40574Y54476D01*
X40669Y54572D01*
X40737Y54688D01*
X40772Y54818D01*
Y54837D01*
D02*
G37*
G36*
X40211D02*
X39748D01*
Y54818D01*
X39783Y54688D01*
X39850Y54572D01*
X39946Y54476D01*
X40062Y54409D01*
X40192Y54374D01*
X40211D01*
Y54837D01*
D02*
G37*
G36*
X38772D02*
X38309D01*
Y54374D01*
X38327D01*
X38457Y54409D01*
X38574Y54476D01*
X38669Y54572D01*
X38737Y54688D01*
X38772Y54818D01*
Y54837D01*
D02*
G37*
G36*
X38211D02*
X37748D01*
Y54818D01*
X37783Y54688D01*
X37850Y54572D01*
X37946Y54476D01*
X38062Y54409D01*
X38192Y54374D01*
X38211D01*
Y54837D01*
D02*
G37*
G36*
X53437Y54483D02*
X53359D01*
X53284Y54463D01*
X53216Y54424D01*
X53161Y54369D01*
X53122Y54302D01*
X53102Y54227D01*
Y54149D01*
X53122Y54074D01*
X53161Y54007D01*
X53216Y53952D01*
X53284Y53913D01*
X53359Y53893D01*
X53437D01*
X53512Y53913D01*
X53579Y53952D01*
X53634Y54007D01*
X53673Y54074D01*
X53693Y54149D01*
Y54227D01*
X53673Y54302D01*
X53634Y54369D01*
X53579Y54424D01*
X53512Y54463D01*
X53437Y54483D01*
D02*
G37*
G36*
X40996Y42082D02*
X40918D01*
X40843Y42062D01*
X40775Y42023D01*
X40720Y41968D01*
X40682Y41900D01*
X40661Y41825D01*
Y41767D01*
X40622D01*
X40547Y41747D01*
X40542Y41743D01*
X40504Y41767D01*
Y41825D01*
X40484Y41900D01*
X40445Y41968D01*
X40390Y42023D01*
X40323Y42062D01*
X40248Y42082D01*
X40170D01*
X40095Y42062D01*
X40027Y42023D01*
X39972Y41968D01*
X39934Y41900D01*
X39913Y41825D01*
Y41748D01*
X39934Y41673D01*
X39972Y41605D01*
X40027Y41550D01*
X40095Y41511D01*
X40170Y41491D01*
X40248D01*
X40323Y41511D01*
X40328Y41515D01*
X40366Y41491D01*
Y41433D01*
X40386Y41358D01*
X40425Y41290D01*
X40480Y41235D01*
X40547Y41196D01*
X40622Y41176D01*
X40700D01*
X40775Y41196D01*
X40843Y41235D01*
X40898Y41290D01*
X40936Y41358D01*
X40957Y41433D01*
Y41491D01*
X40996D01*
X41071Y41511D01*
X41138Y41550D01*
X41193Y41605D01*
X41232Y41673D01*
X41252Y41748D01*
Y41825D01*
X41232Y41900D01*
X41193Y41968D01*
X41138Y42023D01*
X41071Y42062D01*
X40996Y42082D01*
D02*
G37*
G36*
X24460Y53657D02*
X24382D01*
X24307Y53636D01*
X24240Y53598D01*
X24185Y53543D01*
X24146Y53475D01*
X24126Y53400D01*
Y53322D01*
X24146Y53247D01*
X24185Y53180D01*
X24240Y53125D01*
X24307Y53086D01*
X24382Y53066D01*
X24460D01*
X24535Y53086D01*
X24603Y53125D01*
X24658Y53180D01*
X24696Y53247D01*
X24717Y53322D01*
Y53400D01*
X24696Y53475D01*
X24658Y53543D01*
X24603Y53598D01*
X24535Y53636D01*
X24460Y53657D01*
D02*
G37*
G36*
X22452Y53617D02*
X22375D01*
X22299Y53597D01*
X22232Y53558D01*
X22177Y53503D01*
X22138Y53436D01*
X22118Y53361D01*
Y53283D01*
X22138Y53208D01*
X22177Y53141D01*
X22232Y53086D01*
X22299Y53047D01*
X22375Y53027D01*
X22452D01*
X22527Y53047D01*
X22595Y53086D01*
X22650Y53141D01*
X22689Y53208D01*
X22709Y53283D01*
Y53361D01*
X22689Y53436D01*
X22650Y53503D01*
X22595Y53558D01*
X22527Y53597D01*
X22452Y53617D01*
D02*
G37*
G36*
X24310Y50484D02*
X24147D01*
X23987Y50453D01*
X23837Y50390D01*
X23701Y50300D01*
X23586Y50185D01*
X23496Y50049D01*
X23433Y49899D01*
X23402Y49739D01*
Y49576D01*
X23433Y49416D01*
X23496Y49266D01*
X23586Y49130D01*
X23701Y49015D01*
X23837Y48925D01*
X23987Y48862D01*
X24147Y48831D01*
X24310D01*
X24470Y48862D01*
X24620Y48925D01*
X24755Y49015D01*
X24871Y49130D01*
X24961Y49266D01*
X25023Y49416D01*
X25055Y49576D01*
Y49739D01*
X25023Y49899D01*
X24961Y50049D01*
X24871Y50185D01*
X24755Y50300D01*
X24620Y50390D01*
X24470Y50453D01*
X24310Y50484D01*
D02*
G37*
G36*
X24168Y30622D02*
X24005D01*
X23845Y30590D01*
X23695Y30528D01*
X23560Y30438D01*
X23444Y30322D01*
X23354Y30187D01*
X23292Y30036D01*
X23260Y29877D01*
Y29714D01*
X23292Y29554D01*
X23354Y29404D01*
X23444Y29268D01*
X23560Y29153D01*
X23695Y29063D01*
X23845Y29000D01*
X24005Y28968D01*
X24168D01*
X24328Y29000D01*
X24478Y29063D01*
X24614Y29153D01*
X24729Y29268D01*
X24819Y29404D01*
X24882Y29554D01*
X24913Y29714D01*
Y29877D01*
X24882Y30036D01*
X24819Y30187D01*
X24729Y30322D01*
X24614Y30438D01*
X24478Y30528D01*
X24328Y30590D01*
X24168Y30622D01*
D02*
G37*
G36*
X53089Y50374D02*
X52926D01*
X52767Y50342D01*
X52616Y50280D01*
X52481Y50189D01*
X52366Y50074D01*
X52275Y49939D01*
X52213Y49788D01*
X52181Y49629D01*
Y49466D01*
X52213Y49306D01*
X52275Y49156D01*
X52366Y49020D01*
X52481Y48905D01*
X52616Y48815D01*
X52767Y48752D01*
X52926Y48720D01*
X53089D01*
X53249Y48752D01*
X53400Y48815D01*
X53535Y48905D01*
X53650Y49020D01*
X53741Y49156D01*
X53803Y49306D01*
X53835Y49466D01*
Y49629D01*
X53803Y49788D01*
X53741Y49939D01*
X53650Y50074D01*
X53535Y50189D01*
X53400Y50280D01*
X53249Y50342D01*
X53089Y50374D01*
D02*
G37*
G36*
X47137Y34483D02*
X47060D01*
X46984Y34463D01*
X46917Y34424D01*
X46862Y34369D01*
X46823Y34302D01*
X46803Y34227D01*
Y34149D01*
X46823Y34074D01*
X46862Y34007D01*
X46917Y33952D01*
X46984Y33913D01*
X47060Y33893D01*
X47137D01*
X47212Y33913D01*
X47280Y33952D01*
X47335Y34007D01*
X47374Y34074D01*
X47394Y34149D01*
Y34227D01*
X47374Y34302D01*
X47335Y34369D01*
X47280Y34424D01*
X47212Y34463D01*
X47137Y34483D01*
D02*
G37*
G36*
X47544Y33794D02*
X47440D01*
X47340Y33768D01*
X47250Y33716D01*
X47177Y33642D01*
X47125Y33553D01*
X47098Y33452D01*
Y33349D01*
X47125Y33249D01*
X47177Y33159D01*
X47250Y33086D01*
X47340Y33034D01*
X47440Y33007D01*
X47544D01*
X47644Y33034D01*
X47734Y33086D01*
X47756Y33108D01*
X47766Y33105D01*
X47844D01*
X47919Y33126D01*
X47986Y33164D01*
X48041Y33219D01*
X48080Y33287D01*
X48100Y33362D01*
Y33440D01*
X48080Y33515D01*
X48041Y33582D01*
X47986Y33637D01*
X47919Y33676D01*
X47844Y33696D01*
X47766D01*
X47756Y33693D01*
X47734Y33716D01*
X47644Y33768D01*
X47544Y33794D01*
D02*
G37*
G36*
X48850Y33255D02*
X48772D01*
X48697Y33235D01*
X48630Y33196D01*
X48575Y33141D01*
X48536Y33074D01*
X48516Y32999D01*
Y32921D01*
X48536Y32846D01*
X48575Y32778D01*
X48630Y32723D01*
X48697Y32685D01*
X48772Y32664D01*
X48850D01*
X48925Y32685D01*
X48992Y32723D01*
X49047Y32778D01*
X49086Y32846D01*
X49106Y32921D01*
Y32999D01*
X49086Y33074D01*
X49047Y33141D01*
X48992Y33196D01*
X48925Y33235D01*
X48850Y33255D01*
D02*
G37*
G36*
X48594Y32594D02*
X48516D01*
X48441Y32573D01*
X48374Y32535D01*
X48319Y32480D01*
X48280Y32412D01*
X48260Y32337D01*
Y32259D01*
X48280Y32184D01*
X48319Y32117D01*
X48374Y32062D01*
X48441Y32023D01*
X48516Y32003D01*
X48594D01*
X48669Y32023D01*
X48736Y32062D01*
X48791Y32117D01*
X48830Y32184D01*
X48850Y32259D01*
Y32337D01*
X48830Y32412D01*
X48791Y32480D01*
X48736Y32535D01*
X48669Y32573D01*
X48594Y32594D01*
D02*
G37*
G36*
X46665Y31491D02*
X46587D01*
X46512Y31471D01*
X46445Y31432D01*
X46390Y31377D01*
X46351Y31310D01*
X46331Y31235D01*
Y31157D01*
X46351Y31082D01*
X46390Y31015D01*
X46445Y30960D01*
X46512Y30921D01*
X46587Y30901D01*
X46665D01*
X46740Y30921D01*
X46807Y30960D01*
X46862Y31015D01*
X46901Y31082D01*
X46921Y31157D01*
Y31235D01*
X46901Y31310D01*
X46862Y31377D01*
X46807Y31432D01*
X46740Y31471D01*
X46665Y31491D01*
D02*
G37*
G36*
X53436Y30695D02*
X53273D01*
X53113Y30663D01*
X52963Y30601D01*
X52827Y30510D01*
X52712Y30395D01*
X52622Y30260D01*
X52559Y30109D01*
X52527Y29950D01*
Y29787D01*
X52559Y29627D01*
X52622Y29476D01*
X52712Y29341D01*
X52827Y29226D01*
X52963Y29135D01*
X53113Y29073D01*
X53273Y29041D01*
X53436D01*
X53596Y29073D01*
X53746Y29135D01*
X53881Y29226D01*
X53997Y29341D01*
X54087Y29476D01*
X54149Y29627D01*
X54181Y29787D01*
Y29950D01*
X54149Y30109D01*
X54087Y30260D01*
X53997Y30395D01*
X53881Y30510D01*
X53746Y30601D01*
X53596Y30663D01*
X53436Y30695D01*
D02*
G37*
G36*
X56350Y25586D02*
X56272D01*
X56197Y25566D01*
X56130Y25527D01*
X56075Y25472D01*
X56036Y25404D01*
X56016Y25329D01*
Y25252D01*
X56036Y25176D01*
X56075Y25109D01*
X56130Y25054D01*
X56197Y25015D01*
X56272Y24995D01*
X56350D01*
X56425Y25015D01*
X56492Y25054D01*
X56547Y25109D01*
X56586Y25176D01*
X56606Y25252D01*
Y25329D01*
X56586Y25404D01*
X56547Y25472D01*
X56492Y25527D01*
X56425Y25566D01*
X56350Y25586D01*
D02*
G37*
G36*
X36665Y33664D02*
X36587D01*
X36512Y33644D01*
X36445Y33605D01*
X36394Y33554D01*
X36370Y33552D01*
X36347Y33554D01*
X36295Y33605D01*
X36228Y33644D01*
X36153Y33664D01*
X36075D01*
X36000Y33644D01*
X35933Y33605D01*
X35878Y33550D01*
X35839Y33483D01*
X35838Y33480D01*
X35765Y33460D01*
X35676Y33409D01*
X35602Y33335D01*
X35550Y33246D01*
X35524Y33145D01*
Y33042D01*
X35550Y32942D01*
X35602Y32852D01*
X35676Y32779D01*
X35765Y32727D01*
X35865Y32700D01*
X35969D01*
X36069Y32727D01*
X36159Y32779D01*
X36232Y32852D01*
X36284Y32942D01*
X36311Y33042D01*
Y33145D01*
X36310Y33148D01*
X36347Y33184D01*
X36370Y33186D01*
X36394Y33184D01*
X36430Y33148D01*
X36429Y33145D01*
Y33042D01*
X36456Y32942D01*
X36508Y32852D01*
X36581Y32779D01*
X36671Y32727D01*
X36771Y32700D01*
X36875D01*
X36975Y32727D01*
X37065Y32779D01*
X37138Y32852D01*
X37190Y32942D01*
X37217Y33042D01*
Y33145D01*
X37190Y33246D01*
X37138Y33335D01*
X37065Y33409D01*
X36975Y33460D01*
X36902Y33480D01*
X36901Y33483D01*
X36862Y33550D01*
X36807Y33605D01*
X36740Y33644D01*
X36665Y33664D01*
D02*
G37*
G36*
X39052Y30681D02*
X38917D01*
X38787Y30646D01*
X38670Y30579D01*
X38575Y30484D01*
X38514Y30378D01*
X38505Y30376D01*
X38479D01*
X38470Y30378D01*
X38410Y30484D01*
X38314Y30579D01*
X38198Y30646D01*
X38067Y30681D01*
X37933D01*
X37802Y30646D01*
X37686Y30579D01*
X37590Y30484D01*
X37530Y30378D01*
X37521Y30376D01*
X37494D01*
X37486Y30378D01*
X37425Y30484D01*
X37330Y30579D01*
X37213Y30646D01*
X37083Y30681D01*
X36948D01*
X36818Y30646D01*
X36702Y30579D01*
X36606Y30484D01*
X36568Y30417D01*
X36528Y30427D01*
Y30681D01*
X35535D01*
Y29657D01*
X36528D01*
Y29911D01*
X36568Y29922D01*
X36606Y29855D01*
X36702Y29760D01*
X36818Y29692D01*
X36948Y29657D01*
X37083D01*
X37213Y29692D01*
X37330Y29760D01*
X37425Y29855D01*
X37486Y29960D01*
X37494Y29963D01*
X37521D01*
X37530Y29960D01*
X37590Y29855D01*
X37686Y29760D01*
X37802Y29692D01*
X37933Y29657D01*
X38067D01*
X38198Y29692D01*
X38314Y29760D01*
X38410Y29855D01*
X38470Y29960D01*
X38479Y29963D01*
X38505D01*
X38514Y29960D01*
X38575Y29855D01*
X38670Y29760D01*
X38787Y29692D01*
X38917Y29657D01*
X39052D01*
X39182Y29692D01*
X39299Y29760D01*
X39394Y29855D01*
X39461Y29972D01*
X39496Y30102D01*
Y30237D01*
X39461Y30367D01*
X39394Y30484D01*
X39299Y30579D01*
X39182Y30646D01*
X39052Y30681D01*
D02*
G37*
G36*
X40023Y30583D02*
X40018D01*
Y30219D01*
X40382D01*
Y30224D01*
X40354Y30329D01*
X40299Y30423D01*
X40222Y30500D01*
X40128Y30555D01*
X40023Y30583D01*
D02*
G37*
G36*
X39919D02*
X39914D01*
X39809Y30555D01*
X39715Y30500D01*
X39638Y30423D01*
X39583Y30329D01*
X39555Y30224D01*
Y30219D01*
X39919D01*
Y30583D01*
D02*
G37*
G36*
X40382Y30120D02*
X40018D01*
Y29756D01*
X40023D01*
X40128Y29784D01*
X40222Y29839D01*
X40299Y29915D01*
X40354Y30010D01*
X40382Y30115D01*
Y30120D01*
D02*
G37*
G36*
X39919D02*
X39555D01*
Y30115D01*
X39583Y30010D01*
X39638Y29915D01*
X39715Y29839D01*
X39809Y29784D01*
X39914Y29756D01*
X39919D01*
Y30120D01*
D02*
G37*
G36*
X41020Y30681D02*
X40885D01*
X40755Y30646D01*
X40639Y30579D01*
X40543Y30484D01*
X40476Y30367D01*
X40441Y30237D01*
Y30102D01*
X40476Y29972D01*
X40543Y29855D01*
X40639Y29760D01*
X40755Y29692D01*
X40885Y29657D01*
X41020D01*
X41150Y29692D01*
X41267Y29760D01*
X41362Y29855D01*
X41430Y29972D01*
X41465Y30102D01*
Y30237D01*
X41430Y30367D01*
X41362Y30484D01*
X41267Y30579D01*
X41150Y30646D01*
X41020Y30681D01*
D02*
G37*
G36*
X41901Y28263D02*
X41823D01*
X41748Y28243D01*
X41681Y28204D01*
X41626Y28149D01*
X41587Y28082D01*
X41567Y28006D01*
Y27929D01*
X41587Y27854D01*
X41626Y27786D01*
X41681Y27731D01*
X41748Y27692D01*
X41823Y27672D01*
X41901D01*
X41976Y27692D01*
X42044Y27731D01*
X42098Y27786D01*
X42137Y27854D01*
X42157Y27929D01*
Y28006D01*
X42137Y28082D01*
X42098Y28149D01*
X42044Y28204D01*
X41976Y28243D01*
X41901Y28263D01*
D02*
G37*
G36*
X45854Y28620D02*
X45835Y28617D01*
X45815D01*
X45797Y28612D01*
X45777Y28610D01*
X45759Y28602D01*
X45740Y28597D01*
X45723Y28587D01*
X45705Y28580D01*
X45690Y28568D01*
X45673Y28558D01*
X45659Y28544D01*
X45644Y28533D01*
X45632Y28517D01*
X45618Y28503D01*
X45608Y28486D01*
X45596Y28471D01*
X45589Y28453D01*
X45579Y28436D01*
X45574Y28417D01*
X45567Y28399D01*
X45564Y28380D01*
X45559Y28361D01*
Y28341D01*
X45557Y28322D01*
Y28227D01*
X45539Y28209D01*
X45487Y28120D01*
X45461Y28019D01*
Y27916D01*
X45487Y27816D01*
X45539Y27726D01*
X45613Y27653D01*
X45702Y27601D01*
X45802Y27574D01*
X45906D01*
X46006Y27601D01*
X46096Y27653D01*
X46169Y27726D01*
X46221Y27816D01*
X46248Y27916D01*
Y28019D01*
X46221Y28120D01*
X46169Y28209D01*
X46152Y28227D01*
Y28322D01*
X46150Y28341D01*
Y28361D01*
X46145Y28380D01*
X46142Y28399D01*
X46135Y28417D01*
X46129Y28436D01*
X46120Y28453D01*
X46112Y28471D01*
X46100Y28486D01*
X46091Y28503D01*
X46077Y28517D01*
X46065Y28533D01*
X46049Y28544D01*
X46036Y28558D01*
X46019Y28568D01*
X46003Y28580D01*
X45985Y28587D01*
X45968Y28597D01*
X45949Y28602D01*
X45931Y28610D01*
X45912Y28612D01*
X45893Y28617D01*
X45874D01*
X45854Y28620D01*
D02*
G37*
G36*
X38883Y27968D02*
X38779D01*
X38679Y27941D01*
X38589Y27889D01*
X38516Y27816D01*
X38464Y27726D01*
X38437Y27626D01*
Y27522D01*
X38446Y27489D01*
X38402Y27444D01*
X38378Y27442D01*
X38354Y27444D01*
X38310Y27489D01*
X38319Y27522D01*
Y27626D01*
X38292Y27726D01*
X38240Y27816D01*
X38167Y27889D01*
X38077Y27941D01*
X37977Y27968D01*
X37873D01*
X37773Y27941D01*
X37683Y27889D01*
X37610Y27816D01*
X37558Y27726D01*
X37531Y27626D01*
Y27522D01*
X37558Y27422D01*
X37610Y27332D01*
X37683Y27259D01*
X37773Y27207D01*
X37835Y27191D01*
X37847Y27145D01*
X37886Y27078D01*
X37941Y27023D01*
X38008Y26984D01*
X38083Y26964D01*
X38161D01*
X38236Y26984D01*
X38303Y27023D01*
X38354Y27074D01*
X38378Y27076D01*
X38402Y27074D01*
X38453Y27023D01*
X38520Y26984D01*
X38595Y26964D01*
X38673D01*
X38748Y26984D01*
X38815Y27023D01*
X38870Y27078D01*
X38909Y27145D01*
X38921Y27191D01*
X38983Y27207D01*
X39072Y27259D01*
X39146Y27332D01*
X39198Y27422D01*
X39224Y27522D01*
Y27626D01*
X39198Y27726D01*
X39146Y27816D01*
X39072Y27889D01*
X38983Y27941D01*
X38883Y27968D01*
D02*
G37*
G36*
X40300Y27377D02*
X40196D01*
X40096Y27350D01*
X40006Y27298D01*
X39933Y27225D01*
X39881Y27135D01*
X39854Y27035D01*
Y26932D01*
X39873Y26863D01*
X39849Y26832D01*
X39342D01*
Y26733D01*
X38890D01*
Y26216D01*
X39342D01*
Y26118D01*
X40036D01*
Y26161D01*
X40949D01*
Y26170D01*
X40987D01*
X41062Y26191D01*
X41129Y26229D01*
X41184Y26284D01*
X41223Y26352D01*
X41243Y26427D01*
Y26505D01*
X41223Y26580D01*
X41184Y26647D01*
X41129Y26702D01*
X41062Y26741D01*
X40987Y26761D01*
X40949D01*
Y26771D01*
X40619D01*
X40600Y26805D01*
X40615Y26831D01*
X40642Y26932D01*
Y27035D01*
X40615Y27135D01*
X40563Y27225D01*
X40490Y27298D01*
X40400Y27350D01*
X40300Y27377D01*
D02*
G37*
G36*
X25681Y24680D02*
X25603D01*
X25528Y24660D01*
X25460Y24621D01*
X25405Y24566D01*
X25367Y24499D01*
X25346Y24424D01*
Y24346D01*
X25367Y24271D01*
X25405Y24204D01*
X25460Y24149D01*
X25528Y24110D01*
X25603Y24090D01*
X25681D01*
X25756Y24110D01*
X25823Y24149D01*
X25878Y24204D01*
X25917Y24271D01*
X25937Y24346D01*
Y24424D01*
X25917Y24499D01*
X25878Y24566D01*
X25823Y24621D01*
X25756Y24660D01*
X25681Y24680D01*
D02*
G37*
G36*
X52531Y24683D02*
X52453D01*
X52378Y24663D01*
X52311Y24624D01*
X52256Y24569D01*
X52217Y24502D01*
X52197Y24427D01*
Y24349D01*
X52217Y24274D01*
X52256Y24206D01*
X52311Y24151D01*
X52347Y24131D01*
X52332Y24105D01*
X52312Y24030D01*
Y23952D01*
X52332Y23877D01*
X52371Y23810D01*
X52426Y23755D01*
X52493Y23716D01*
X52568Y23696D01*
X52646D01*
X52721Y23716D01*
X52788Y23755D01*
X52843Y23810D01*
X52882Y23877D01*
X52902Y23952D01*
Y24030D01*
X52882Y24105D01*
X52843Y24173D01*
X52788Y24227D01*
X52753Y24248D01*
X52767Y24274D01*
X52787Y24349D01*
Y24427D01*
X52767Y24502D01*
X52728Y24569D01*
X52673Y24624D01*
X52606Y24663D01*
X52531Y24683D01*
D02*
G37*
G36*
X25478Y22727D02*
X25400D01*
X25325Y22706D01*
X25258Y22668D01*
X25203Y22613D01*
X25164Y22545D01*
X25144Y22470D01*
Y22392D01*
X25164Y22317D01*
X25203Y22250D01*
X25258Y22195D01*
X25325Y22156D01*
X25400Y22136D01*
X25478D01*
X25553Y22156D01*
X25620Y22195D01*
X25675Y22250D01*
X25714Y22317D01*
X25734Y22392D01*
Y22470D01*
X25714Y22545D01*
X25675Y22613D01*
X25620Y22668D01*
X25553Y22706D01*
X25478Y22727D01*
D02*
G37*
%LPD*%
D10*
X38122Y27259D02*
Y27296D01*
X37925Y27493D02*
X38122Y27296D01*
X37925Y27493D02*
Y27574D01*
X38634Y27259D02*
Y27296D01*
X38831Y27493D01*
Y27574D01*
X36626Y33369D02*
X36823Y33172D01*
Y33094D02*
Y33172D01*
X35917Y33094D02*
Y33172D01*
X36114Y33369D01*
X55664Y24465D02*
Y24500D01*
X55346Y24818D02*
X55664Y24500D01*
X55327Y24818D02*
X55346D01*
X55664Y24269D02*
Y24465D01*
X55358Y24456D02*
Y24541D01*
Y24456D02*
X55465Y24349D01*
X23045Y54243D02*
X23340Y53949D01*
X23045Y54439D02*
X23107Y54502D01*
Y54543D01*
X23045Y54243D02*
Y54439D01*
X24465Y23045D02*
X24760Y23340D01*
X24207Y23107D02*
X24269Y23045D01*
X24465D01*
X24165Y23107D02*
X24207D01*
X54502Y55601D02*
X54543D01*
X54439Y55664D02*
X54502Y55601D01*
X54243Y55664D02*
X54439D01*
X53949Y55369D02*
X54243Y55664D01*
X55601Y24207D02*
X55664Y24269D01*
X55601Y24165D02*
Y24207D01*
X54360Y55465D02*
X54401D01*
X54404Y55462D01*
X54224Y55330D02*
X54360Y55465D01*
X55465Y24307D02*
Y24349D01*
X55462Y24304D02*
X55465Y24307D01*
X40358Y39977D02*
X40362Y39981D01*
X40358Y39822D02*
Y39977D01*
X40192Y39657D02*
X40358Y39822D01*
X40102Y39657D02*
X40192D01*
X40102Y40067D02*
X40102Y40066D01*
Y39853D02*
Y40066D01*
X23244Y54360D02*
Y54401D01*
Y54360D02*
X23379Y54224D01*
X23244Y54401D02*
X23247Y54404D01*
X24349Y23244D02*
X24484Y23379D01*
X24304Y23247D02*
X24307Y23244D01*
X24349D01*
D14*
X38870Y40645D02*
D03*
X39264D02*
D03*
X38870Y41747D02*
D03*
X39264D02*
D03*
X38634Y38204D02*
D03*
X39028D02*
D03*
X40051D02*
D03*
X39657D02*
D03*
X38870Y54188D02*
D03*
X39264D02*
D03*
X40634Y26466D02*
D03*
X40240D02*
D03*
D15*
X24718Y54682D02*
D03*
X24440Y54403D02*
D03*
X53967Y24049D02*
D03*
X54246Y24327D02*
D03*
X23026Y56402D02*
D03*
X23305Y56680D02*
D03*
X55682Y22307D02*
D03*
X55404Y22029D02*
D03*
X22127Y55497D02*
D03*
X22405Y55775D02*
D03*
X22736Y24227D02*
D03*
X22458Y23948D02*
D03*
X23663Y22124D02*
D03*
X23942Y22402D02*
D03*
X56582Y23212D02*
D03*
X56304Y22933D02*
D03*
X55972Y54482D02*
D03*
X56251Y54760D02*
D03*
X55045Y56585D02*
D03*
X54767Y56306D02*
D03*
X20101Y58650D02*
D03*
X19823Y58371D02*
D03*
X20143Y26806D02*
D03*
X19865Y26528D02*
D03*
X26816Y20099D02*
D03*
X26538Y19820D02*
D03*
X58607Y20059D02*
D03*
X58886Y20337D02*
D03*
X58565Y51903D02*
D03*
X58844Y52181D02*
D03*
X51886Y58603D02*
D03*
X52164Y58882D02*
D03*
X55998Y56526D02*
D03*
X56276Y56805D02*
D03*
X54540Y22238D02*
D03*
X54262Y21960D02*
D03*
X56529Y24165D02*
D03*
X56808Y24443D02*
D03*
X22432Y21904D02*
D03*
X22711Y22182D02*
D03*
X24168Y56470D02*
D03*
X24447Y56749D02*
D03*
X22179Y54544D02*
D03*
X21901Y54266D02*
D03*
D16*
X38201Y38676D02*
D03*
Y39070D02*
D03*
X40484Y38676D02*
D03*
Y39070D02*
D03*
X39264Y40999D02*
D03*
Y41393D02*
D03*
D17*
X24046Y24721D02*
D03*
X24324Y24443D02*
D03*
X54679Y53970D02*
D03*
X54400Y54249D02*
D03*
X22307Y23026D02*
D03*
X22029Y23305D02*
D03*
X56402Y55682D02*
D03*
X56680Y55404D02*
D03*
X24227Y55972D02*
D03*
X23948Y56251D02*
D03*
X22124Y55045D02*
D03*
X22402Y54767D02*
D03*
X23212Y22127D02*
D03*
X22933Y22405D02*
D03*
X54482Y22736D02*
D03*
X54760Y22458D02*
D03*
X56585Y23663D02*
D03*
X56306Y23942D02*
D03*
X55497Y56582D02*
D03*
X55775Y56304D02*
D03*
X26806Y58565D02*
D03*
X26528Y58844D02*
D03*
X20099Y51892D02*
D03*
X19820Y52171D02*
D03*
X20059Y20101D02*
D03*
X20337Y19823D02*
D03*
X51903Y20143D02*
D03*
X52181Y19865D02*
D03*
X58610Y26816D02*
D03*
X58889Y26538D02*
D03*
X58650Y58607D02*
D03*
X58371Y58886D02*
D03*
X54544Y56529D02*
D03*
X54266Y56808D02*
D03*
X56470Y54540D02*
D03*
X56749Y54262D02*
D03*
X56526Y22711D02*
D03*
X56805Y22432D02*
D03*
X21960Y24447D02*
D03*
X22238Y24168D02*
D03*
X24443Y21901D02*
D03*
X24165Y22179D02*
D03*
X22182Y55998D02*
D03*
X21904Y56276D02*
D03*
D18*
X38880Y52849D02*
D03*
X39254D02*
D03*
D19*
X54050Y57037D02*
D03*
X54314Y57302D02*
D03*
X56965Y54032D02*
D03*
X56700Y53768D02*
D03*
X57034Y22216D02*
D03*
X57299Y22481D02*
D03*
X24659Y21671D02*
D03*
X24394Y21407D02*
D03*
X21744Y24676D02*
D03*
X22009Y24941D02*
D03*
X21674Y56492D02*
D03*
X21410Y56228D02*
D03*
X54160Y54005D02*
D03*
X53895Y53741D02*
D03*
X24868Y24990D02*
D03*
X24604Y24725D02*
D03*
D20*
X57869Y58383D02*
D03*
X58147Y58661D02*
D03*
X58373Y26024D02*
D03*
X58651Y26302D02*
D03*
X52705Y20396D02*
D03*
X52427Y20118D02*
D03*
X20840Y20326D02*
D03*
X20561Y20048D02*
D03*
X20336Y52685D02*
D03*
X20058Y52407D02*
D03*
X26003Y58313D02*
D03*
X26282Y58591D02*
D03*
D21*
X56492Y57034D02*
D03*
X56228Y57299D02*
D03*
X57037Y24659D02*
D03*
X57302Y24394D02*
D03*
X54032Y21744D02*
D03*
X53768Y22009D02*
D03*
X22216Y21674D02*
D03*
X22481Y21410D02*
D03*
X21671Y54050D02*
D03*
X21407Y54314D02*
D03*
X24676Y56965D02*
D03*
X24941Y56700D02*
D03*
X53963Y24607D02*
D03*
X53698Y24871D02*
D03*
X24987Y53859D02*
D03*
X24722Y54123D02*
D03*
D22*
X58313Y52705D02*
D03*
X58591Y52427D02*
D03*
X58383Y20840D02*
D03*
X58661Y20561D02*
D03*
X26024Y20336D02*
D03*
X26302Y20058D02*
D03*
X20396Y26003D02*
D03*
X20118Y26282D02*
D03*
X20326Y57869D02*
D03*
X20048Y58147D02*
D03*
X52678Y58382D02*
D03*
X52400Y58661D02*
D03*
D23*
X24304Y55100D02*
D03*
X24165Y54961D02*
D03*
X24026Y54822D02*
D03*
X23887Y54683D02*
D03*
X23748Y54543D02*
D03*
X23608Y54404D02*
D03*
X22551Y55462D02*
D03*
X22690Y55601D02*
D03*
X22829Y55740D02*
D03*
X22968Y55880D02*
D03*
X23107Y56019D02*
D03*
X23247Y56158D02*
D03*
X54404Y23608D02*
D03*
X54543Y23748D02*
D03*
X54683Y23887D02*
D03*
X54822Y24026D02*
D03*
X54961Y24165D02*
D03*
X55100Y24304D02*
D03*
X56158Y23247D02*
D03*
X56019Y23107D02*
D03*
X55880Y22968D02*
D03*
X55740Y22829D02*
D03*
X55601Y22690D02*
D03*
X55462Y22551D02*
D03*
D24*
X23247Y54404D02*
D03*
X23107Y54543D02*
D03*
X22968Y54683D02*
D03*
X22829Y54822D02*
D03*
X22690Y54961D02*
D03*
X22551Y55100D02*
D03*
X23608Y56158D02*
D03*
X23748Y56019D02*
D03*
X23887Y55880D02*
D03*
X24026Y55740D02*
D03*
X24165Y55601D02*
D03*
X24304Y55462D02*
D03*
X55462Y24304D02*
D03*
X55601Y24165D02*
D03*
X55740Y24026D02*
D03*
X55880Y23887D02*
D03*
X56019Y23748D02*
D03*
X56158Y23608D02*
D03*
X55100Y22551D02*
D03*
X54961Y22690D02*
D03*
X54822Y22829D02*
D03*
X54683Y22968D02*
D03*
X54543Y23107D02*
D03*
X54404Y23247D02*
D03*
D25*
X39689Y26475D02*
D03*
X39139D02*
D03*
D26*
X38862Y40109D02*
D03*
X39059D02*
D03*
X39256D02*
D03*
X39453D02*
D03*
X39650D02*
D03*
X39846D02*
D03*
Y38613D02*
D03*
X39650D02*
D03*
X39453D02*
D03*
X39256D02*
D03*
X39059D02*
D03*
X38862D02*
D03*
D27*
X40102Y39853D02*
D03*
Y39657D02*
D03*
Y39460D02*
D03*
Y39263D02*
D03*
Y39066D02*
D03*
Y38869D02*
D03*
X38606D02*
D03*
Y39066D02*
D03*
Y39263D02*
D03*
Y39460D02*
D03*
Y39657D02*
D03*
Y39853D02*
D03*
D28*
X55100Y54404D02*
D03*
X54961Y54543D02*
D03*
X54822Y54683D02*
D03*
X54683Y54822D02*
D03*
X54543Y54961D02*
D03*
X54404Y55100D02*
D03*
X55462Y56158D02*
D03*
X55601Y56019D02*
D03*
X55740Y55880D02*
D03*
X55880Y55740D02*
D03*
X56019Y55601D02*
D03*
X56158Y55462D02*
D03*
X22551Y23247D02*
D03*
X22690Y23107D02*
D03*
X22829Y22968D02*
D03*
X22968Y22829D02*
D03*
X23107Y22690D02*
D03*
X23247Y22551D02*
D03*
X24304Y23608D02*
D03*
X24165Y23748D02*
D03*
X24026Y23887D02*
D03*
X23887Y24026D02*
D03*
X23748Y24165D02*
D03*
X23608Y24304D02*
D03*
D29*
X54404Y55462D02*
D03*
X54543Y55601D02*
D03*
X54683Y55740D02*
D03*
X54822Y55880D02*
D03*
X54961Y56019D02*
D03*
X55100Y56158D02*
D03*
X56158Y55100D02*
D03*
X56019Y54961D02*
D03*
X55880Y54822D02*
D03*
X55740Y54683D02*
D03*
X55601Y54543D02*
D03*
X55462Y54404D02*
D03*
X23247Y24304D02*
D03*
X23107Y24165D02*
D03*
X22968Y24026D02*
D03*
X22829Y23887D02*
D03*
X22690Y23748D02*
D03*
X22551Y23608D02*
D03*
X23608Y22551D02*
D03*
X23748Y22690D02*
D03*
X23887Y22829D02*
D03*
X24026Y22968D02*
D03*
X24165Y23107D02*
D03*
X24304Y23247D02*
D03*
D30*
X39264Y53716D02*
D03*
Y53322D02*
D03*
D60*
X35917Y33094D02*
D03*
X49197Y66047D02*
D03*
X68882D02*
D03*
X68882Y46362D02*
D03*
Y26677D02*
D03*
X68882Y6992D02*
D03*
X49197Y6992D02*
D03*
X29512Y6992D02*
D03*
X9827D02*
D03*
Y26677D02*
D03*
X9827Y46362D02*
D03*
X9827Y66047D02*
D03*
X29512Y66047D02*
D03*
X38831Y27574D02*
D03*
X37925D02*
D03*
X36823Y33094D02*
D03*
X40248Y26983D02*
D03*
X47492Y33401D02*
D03*
X45854Y27968D02*
D03*
X41862Y27968D02*
D03*
D61*
X23428Y55281D02*
D03*
X55281Y23428D02*
D03*
D62*
X39354Y39361D02*
D03*
D63*
X55281Y55281D02*
D03*
X23428Y23428D02*
D03*
D64*
X45854Y27968D02*
Y28322D01*
D65*
X58397Y27029D02*
X58610Y26816D01*
X58397Y26603D02*
X58610Y26816D01*
X58823Y27029D01*
X55420Y23428D02*
X55880Y23887D01*
X55327Y23428D02*
Y23473D01*
Y23382D02*
Y23428D01*
X55235Y23382D02*
X55327D01*
Y23428D02*
X55420D01*
X55281D02*
X55327D01*
X56144Y23247D02*
X56158D01*
X55963Y23428D02*
X56144Y23247D01*
X55142Y23428D02*
X55281D01*
X54683Y22968D02*
X55142Y23428D01*
X54418Y23608D02*
X54599Y23428D01*
X54404Y23608D02*
X54418D01*
X55249Y22337D02*
Y22363D01*
X55088Y22525D02*
X55249Y22363D01*
X55088Y22525D02*
Y22538D01*
X55100Y22551D01*
X22829Y54822D02*
X23288Y55281D01*
X22565Y55462D02*
X22745Y55281D01*
X22551Y55462D02*
X22565D01*
X24304D02*
X24346D01*
X24521Y55287D01*
X22968Y24026D02*
X23428Y23567D01*
Y24110D02*
X23608Y24291D01*
Y24304D01*
X23428Y23288D02*
X23887Y22829D01*
X23247Y22551D02*
Y22565D01*
X23428Y22745D01*
X22340Y23462D02*
X22404D01*
X22337Y23459D02*
X22340Y23462D01*
X22404D02*
X22551Y23608D01*
X39256Y38613D02*
Y39263D01*
X38606D02*
X38923D01*
X39256D02*
X39354Y39361D01*
X38872Y38879D02*
X39256Y39263D01*
X38605Y38575D02*
Y38867D01*
X38616Y38879D02*
X38872D01*
X38606Y38869D02*
X38616Y38879D01*
X40110Y38605D02*
X40116Y38611D01*
Y38859D01*
X40106Y38869D02*
X40116Y38859D01*
X40102Y38869D02*
X40106D01*
X54822Y55880D02*
X55281Y55420D01*
Y55963D02*
X55462Y56144D01*
Y56158D01*
X55281Y55142D02*
Y55281D01*
Y54864D02*
Y55142D01*
Y54599D02*
Y54864D01*
Y55142D02*
X55740Y54683D01*
X55086Y54404D02*
X55281Y54599D01*
X55086Y54404D02*
X55100D01*
X56345Y55249D02*
Y55275D01*
X56158Y55462D02*
X56345Y55275D01*
X56158Y55462D02*
X56158D01*
X56345Y55249D02*
X56371D01*
X56184Y55088D02*
X56345Y55249D01*
X56170Y55088D02*
X56184D01*
X56158Y55100D02*
X56170Y55088D01*
X23567Y55281D02*
X24026Y55740D01*
X24291Y55100D02*
X24304D01*
X24110Y55281D02*
X24291Y55100D01*
X23459Y56345D02*
Y56371D01*
Y56345D02*
X23621Y56184D01*
Y56170D02*
Y56184D01*
X23608Y56158D02*
X23621Y56170D01*
X55420Y55281D02*
X55880Y55740D01*
X55420Y55281D02*
X55880Y54822D01*
X55281Y56343D02*
X55287D01*
X54683Y54822D02*
X55142Y55281D01*
X39453Y39263D02*
X40102D01*
X39453Y39460D02*
Y40109D01*
Y38613D02*
Y38929D01*
X54822Y24026D02*
X55281Y23567D01*
X56343Y23421D02*
Y23428D01*
X55281Y23288D02*
X55740Y22829D01*
X54822D02*
X55281Y23288D01*
X53754Y23836D02*
X53780D01*
X24718Y54682D02*
X24930Y54895D01*
X38606Y39460D02*
X39256D01*
X23428Y55420D02*
X23887Y55880D01*
X22968D02*
X23428Y55420D01*
X22366Y55281D02*
Y55287D01*
X23428Y55142D02*
X23887Y54683D01*
X23833Y24933D02*
X24045Y24721D01*
X23421Y24500D02*
X23428D01*
X23567Y23428D02*
X24026Y23887D01*
X22829D02*
X23288Y23428D01*
X23421Y22366D02*
X23428D01*
X22829Y22968D02*
X23288Y23428D01*
X20052Y20108D02*
X20265Y20321D01*
X21616Y56007D02*
X21617D01*
X21403Y56221D02*
X21616Y56007D01*
X21403Y56221D02*
X21403D01*
X21190Y56007D02*
Y56007D01*
X21403Y56220D01*
Y56221D01*
X51690Y20356D02*
X51903Y20143D01*
X51690Y19930D02*
X51903Y20143D01*
X52116Y20356D01*
X20101Y58650D02*
X20314Y58437D01*
X19888Y58863D02*
X20101Y58650D01*
X20314Y58863D01*
X19886Y51680D02*
X20099Y51892D01*
X20311Y52105D01*
X20099Y51892D02*
X20311Y51680D01*
X26806Y58565D02*
X27019Y58352D01*
X26593D02*
X26806Y58565D01*
X27019Y58778D01*
X20143Y26806D02*
X20356Y26593D01*
X20143Y26806D02*
X20356Y27019D01*
X19930D02*
X20143Y26806D01*
X19846Y19888D02*
X20059Y20101D01*
X19839Y20321D02*
X20052Y20108D01*
X26816Y20099D02*
X27029Y19886D01*
X26603Y20311D02*
X26816Y20099D01*
X27029Y20311D01*
X58394Y20272D02*
X58607Y20059D01*
X58820Y19846D01*
X58394D02*
X58607Y20059D01*
X58565Y51903D02*
X58778Y51690D01*
X58352Y52116D02*
X58565Y51903D01*
X58352Y51690D02*
X58565Y51903D01*
X51673Y58816D02*
X51886Y58603D01*
X52098Y58390D01*
X51673D02*
X51886Y58603D01*
X58437Y58394D02*
X58650Y58607D01*
X58863Y58820D01*
X58650Y58607D02*
X58863Y58394D01*
X56007Y57092D02*
Y57092D01*
X56221Y57306D01*
Y57306D01*
X56220D02*
X56221D01*
X56007Y57519D02*
X56220Y57306D01*
X54321Y57309D02*
X54322D01*
X54535Y57096D01*
X54534Y57522D02*
Y57522D01*
X54321Y57309D02*
X54534Y57522D01*
X54321Y57309D02*
Y57309D01*
X55934Y56059D02*
X56015D01*
X55754Y55880D02*
X55934Y56059D01*
X56015D02*
X56034Y56078D01*
X54683Y54809D02*
Y54822D01*
X55740Y55880D02*
X55754D01*
X55327Y23334D02*
Y23382D01*
X55375D01*
X55327D02*
X55585Y23124D01*
X55281Y23428D02*
X55327Y23382D01*
X54978Y23124D02*
X55235Y23382D01*
X39783Y39361D02*
X39786Y39364D01*
X39349Y37968D02*
Y38461D01*
Y37682D02*
Y37968D01*
Y38461D02*
X39360D01*
X39453Y38554D01*
Y38613D01*
X39256Y38554D02*
X39349Y38461D01*
X39256Y38554D02*
Y38613D01*
X39029Y37363D02*
X39349Y37682D01*
X39029Y37284D02*
Y37363D01*
X37979Y39657D02*
X38176Y39460D01*
X38606D01*
X37782Y39853D02*
X37979Y39657D01*
X37715Y39921D02*
X37782Y39853D01*
X38606D01*
X37979Y39657D02*
X38606D01*
X40606Y39847D02*
Y39951D01*
X40228Y39469D02*
X40606Y39847D01*
Y39951D02*
X40625Y39969D01*
X40102Y39263D02*
X40112Y39273D01*
X40254D01*
X40466Y39484D01*
X40584D01*
X40602Y39503D01*
X39846Y38613D02*
X39854Y38605D01*
X40110D01*
X40116Y38611D02*
X40130Y38598D01*
X40112Y39469D02*
X40228D01*
X39354Y38932D02*
X39357Y38929D01*
X39354Y38932D02*
Y39361D01*
X38923Y39358D02*
X38925Y39361D01*
X39354D01*
Y39786D02*
X39357Y39788D01*
X39354Y39361D02*
Y39786D01*
X38605Y38575D02*
X38622Y38593D01*
X38605Y38867D02*
X38606Y38869D01*
X41854Y28676D02*
X41858Y28672D01*
Y27972D02*
Y28672D01*
Y27972D02*
X41862Y27968D01*
X41865Y27410D02*
X41867Y27407D01*
X41865Y27410D02*
Y27965D01*
X41862Y27968D02*
X41865Y27965D01*
X38870Y40645D02*
Y40920D01*
X38594Y40645D02*
X38870D01*
X38594Y41747D02*
X38870D01*
X53780Y23836D02*
X54380Y23236D01*
X54394D01*
X54404Y23247D01*
X55322Y54205D02*
Y54231D01*
X55472Y54381D01*
Y54395D01*
X55462Y54404D02*
X55472Y54395D01*
X24304Y55100D02*
X24333D01*
X24521Y55287D01*
X23428Y24500D02*
X23609Y24319D01*
Y24305D02*
Y24319D01*
X23608Y24304D02*
X23609Y24305D01*
X54570Y24439D02*
X54664Y24533D01*
X54570Y24264D02*
Y24439D01*
Y24264D02*
X54809Y24026D01*
X23421Y24500D02*
Y24521D01*
X23243Y24322D02*
X23421Y24500D01*
X23243Y24308D02*
Y24322D01*
Y24308D02*
X23247Y24304D01*
X24439Y24138D02*
X24533Y24045D01*
X24264Y24138D02*
X24439D01*
X24026Y23900D02*
X24264Y24138D01*
X54346Y56094D02*
X54383Y56131D01*
X54584D01*
X54705Y56010D01*
Y56010D02*
Y56010D01*
Y56010D02*
X54822Y55894D01*
Y55880D02*
Y55894D01*
X54499Y55924D02*
X54683Y55740D01*
X39659Y40264D02*
X39886Y40490D01*
X39659Y40119D02*
Y40264D01*
X39062Y39653D02*
X39256Y39460D01*
X39837Y38623D02*
Y38879D01*
Y38623D02*
X39846Y38613D01*
X38872Y38623D02*
Y38879D01*
X38862Y38613D02*
X38872Y38623D01*
X38622Y38593D02*
X38852D01*
X38862Y38602D01*
Y38613D01*
X39059Y39657D02*
X39062Y39653D01*
X38609D02*
X39062D01*
X38606Y39657D02*
X38609Y39653D01*
X39453Y39263D02*
X39837Y38879D01*
X40093D01*
X40102Y38869D01*
X39453Y39460D02*
X39843Y39850D01*
Y39965D02*
X39848Y39969D01*
X39843Y39850D02*
Y39965D01*
X39848Y39969D02*
Y40108D01*
X39846Y40109D02*
X39848Y40108D01*
X38865Y39850D02*
X39059Y39657D01*
Y40109D01*
X38862D02*
X38865Y40106D01*
Y39850D02*
Y40106D01*
X38764Y39853D02*
X38767Y39850D01*
X38865D01*
X38606Y39853D02*
X38764D01*
X39354Y39361D02*
X39783D01*
X55100Y24304D02*
Y24318D01*
Y24291D02*
Y24304D01*
X54978Y23731D02*
X55281Y23428D01*
X55327Y23473D02*
Y23521D01*
X54972Y24542D02*
X54991Y24524D01*
Y24427D02*
Y24524D01*
Y24427D02*
X55100Y24318D01*
X55142Y23428D02*
X55188Y23382D01*
X55327Y23473D02*
X55585Y23731D01*
X55375Y23382D02*
X55420Y23428D01*
X55281Y23567D02*
X55327Y23521D01*
X55281Y23288D02*
X55327Y23334D01*
X38555Y52849D02*
X38880D01*
X55100Y56158D02*
Y56162D01*
Y56144D02*
Y56158D01*
X38870Y53991D02*
Y54188D01*
X38752Y53873D02*
X38870Y53991D01*
X24521Y23736D02*
X24539Y23755D01*
X24446Y23736D02*
X24521D01*
X24318Y23608D02*
X24446Y23736D01*
X24304Y23608D02*
X24318D01*
X23567Y23428D02*
X24110D01*
X24291Y23608D01*
X24304D01*
X23673Y54188D02*
Y54215D01*
X23650Y54238D02*
X23673Y54215D01*
X23650Y54238D02*
Y54362D01*
X23608Y54404D02*
X23650Y54362D01*
X23428Y54599D02*
Y55142D01*
Y54599D02*
X23608Y54418D01*
Y54404D02*
Y54418D01*
X55281Y23567D02*
Y24110D01*
X55100Y24291D02*
X55281Y24110D01*
X54599Y55281D02*
X55142D01*
X54418Y55100D02*
X54599Y55281D01*
X54404Y55100D02*
X54418D01*
X38870Y54188D02*
Y54464D01*
X38594Y54188D02*
X38870D01*
X40244Y26980D02*
X40248Y26983D01*
X40244Y26469D02*
Y26980D01*
X40240Y26466D02*
X40244Y26469D01*
X54096Y23913D02*
X54248D01*
X54267Y23894D01*
X53967Y24041D02*
X54096Y23913D01*
X53967Y24041D02*
Y24049D01*
X40355Y38203D02*
Y38230D01*
X40484Y38359D01*
Y38676D01*
X38330Y38204D02*
Y38231D01*
X38201Y38360D02*
X38330Y38231D01*
X38201Y38360D02*
Y38676D01*
X37899D02*
X38201D01*
X37898Y38677D02*
X37899Y38676D01*
X37897Y38677D02*
X37898D01*
X38332Y38204D02*
X38634D01*
X38331Y38204D02*
X38332Y38204D01*
X38330Y38204D02*
X38331D01*
X38634Y37902D02*
Y38204D01*
X38633Y37901D02*
X38634Y37902D01*
X38633Y37900D02*
Y37901D01*
X40484Y38676D02*
X40786D01*
X40787Y38676D01*
X40788D01*
X40354Y38203D02*
X40355D01*
X40353Y38204D02*
X40354Y38203D01*
X40051Y38204D02*
X40353D01*
X53754Y23836D02*
X53967Y24049D01*
X24046Y24721D02*
X24259Y24934D01*
X24718Y54682D02*
X24931Y54469D01*
X54465Y53757D02*
X54678Y53970D01*
X54679Y53970D02*
X54891Y53757D01*
X54834Y54402D02*
X54961Y54529D01*
X54834Y54286D02*
Y54402D01*
X40634Y26466D02*
X40948D01*
X38741Y26475D02*
X39139D01*
X39698Y26466D02*
X40240D01*
X39689Y26475D02*
X39698Y26466D01*
X40099Y40346D02*
X40110D01*
X40036Y40284D02*
X40099Y40346D01*
X39962Y40284D02*
X40036D01*
X39846Y40168D02*
X39962Y40284D01*
X39846Y40109D02*
Y40168D01*
X39650Y40109D02*
X39659Y40119D01*
X40102Y39460D02*
X40112Y39469D01*
X22784Y54499D02*
X22968Y54683D01*
X22969D01*
X23748Y54543D02*
Y54543D01*
Y54543D02*
X23932Y54359D01*
X23305Y56680D02*
X23518Y56893D01*
X22676Y54961D02*
X22690D01*
X22482Y54767D02*
X22676Y54961D01*
X22402Y54767D02*
X22482D01*
X24948Y56693D02*
X25161Y56480D01*
X24735Y56480D02*
X24948Y56693D01*
X21187Y54534D02*
X21400Y54321D01*
X21400Y54322D02*
X21613Y54535D01*
X23428Y55281D02*
X23731Y54978D01*
X23735D01*
X23120Y55585D02*
X23124D01*
X23428Y55281D01*
X23124Y54974D02*
Y54978D01*
X23428Y55281D01*
X23731Y55585D02*
Y55588D01*
X23428Y55281D02*
X23731Y55585D01*
X23247Y56158D02*
X23459Y56371D01*
X23887Y54683D02*
X23900D01*
X23845Y55281D02*
X24165Y55601D01*
X23428Y55281D02*
X23567D01*
X24291Y55462D02*
X24304D01*
X24110Y55281D02*
X24291Y55462D01*
X23845Y55281D02*
X24110D01*
X23567D02*
X23845D01*
X22954Y55880D02*
X22968D01*
X22631Y56034D02*
X22650Y56015D01*
X22829Y55740D02*
Y55754D01*
X21922Y55247D02*
X22124Y55045D01*
X22819Y56015D02*
X22954Y55880D01*
X22650Y56015D02*
X22819D01*
X22127Y55474D02*
Y55497D01*
X21922Y55270D02*
X22127Y55474D01*
X21922Y55247D02*
Y55270D01*
X22650Y55934D02*
Y56015D01*
Y55934D02*
X22829Y55754D01*
X22124Y55045D02*
Y55056D01*
X22355Y55287D01*
X22540Y55462D02*
X22551D01*
X22366Y55287D02*
X22540Y55462D01*
X22355Y55287D02*
X22366D01*
X22547Y55100D02*
X22551D01*
X22366Y55281D02*
X22547Y55100D01*
X22551D02*
X22565D01*
X22745Y55281D01*
X23288D02*
X23428D01*
X22745D02*
X23288D01*
X23428Y55142D02*
Y55281D01*
X23247Y56144D02*
Y56158D01*
Y56144D02*
X23428Y55963D01*
X23608Y56144D02*
Y56158D01*
X23428Y55963D02*
X23608Y56144D01*
X23428Y55281D02*
Y55420D01*
Y55963D01*
X24227Y55950D02*
X24439Y55738D01*
Y55715D02*
Y55738D01*
X21911Y54832D02*
X22124Y55045D01*
X24165Y54961D02*
X24179D01*
X24306Y54834D01*
X24423D01*
X24442Y54815D01*
X24304Y55086D02*
Y55100D01*
Y55086D02*
X24423Y54968D01*
Y54834D02*
Y54968D01*
X24227Y55950D02*
Y55972D01*
X24244D01*
X24425Y56154D01*
X24442D01*
X24026Y22968D02*
X24210Y22784D01*
X24026Y22968D02*
Y22969D01*
X24165Y23748D02*
X24166D01*
X24350Y23932D01*
X21815Y23518D02*
X22028Y23305D01*
X22015Y24948D02*
X22228Y25161D01*
X22016Y24948D02*
X22229Y24735D01*
X24174Y21187D02*
X24387Y21400D01*
X24174Y21613D02*
X24387Y21400D01*
X22488Y21403D02*
X22701Y21190D01*
X22488Y21403D02*
X22701Y21616D01*
X23428Y23428D02*
X23731Y23731D01*
Y23735D01*
X23124Y23120D02*
Y23124D01*
X23428Y23428D01*
X23731Y23124D02*
X23735D01*
X23428Y23428D02*
X23731Y23124D01*
X23120Y23731D02*
X23124D01*
X23428Y23428D01*
X22337Y23459D02*
X22550Y23247D01*
X24026Y23887D02*
Y23900D01*
X23107Y24165D02*
X23428Y23845D01*
Y23428D02*
Y23567D01*
X23247Y24291D02*
Y24304D01*
Y24291D02*
X23428Y24110D01*
Y23845D02*
Y24110D01*
Y23567D02*
Y23845D01*
X22829Y22954D02*
Y22968D01*
X22675Y22631D02*
X22694Y22650D01*
X22954Y22829D02*
X22968D01*
X23462Y21922D02*
X23663Y22124D01*
X22694Y22819D02*
X22829Y22954D01*
X22694Y22650D02*
Y22819D01*
X23212Y22127D02*
X23235D01*
X23439Y21922D01*
X23462D01*
X22694Y22650D02*
X22775D01*
X22954Y22829D01*
X23653Y22124D02*
X23663D01*
X23421Y22355D02*
X23653Y22124D01*
X23247Y22540D02*
Y22551D01*
Y22540D02*
X23421Y22366D01*
Y22355D02*
Y22366D01*
X23608Y22547D02*
Y22551D01*
X23428Y22366D02*
X23608Y22547D01*
Y22551D02*
Y22565D01*
X23428Y22745D02*
X23608Y22565D01*
X23428Y23288D02*
Y23428D01*
Y22745D02*
Y23288D01*
Y23428D02*
X23567D01*
X22551Y23247D02*
X22565D01*
X22745Y23428D01*
X22551Y23608D02*
X22565D01*
X22745Y23428D01*
X23288D02*
X23428D01*
X22745D02*
X23288D01*
X23664Y22124D02*
X23877Y21911D01*
X23748Y24165D02*
Y24179D01*
X23875Y24306D01*
Y24423D01*
X23894Y24442D01*
X23608Y24304D02*
X23622D01*
X23741Y24423D01*
X23875D01*
X22736Y24227D02*
X22759D01*
X22736D02*
Y24244D01*
X22555Y24425D02*
X22736Y24244D01*
X22555Y24425D02*
Y24442D01*
X55740Y24026D02*
X55924Y24210D01*
X55740Y24026D02*
X55740D01*
X54961Y24165D02*
Y24166D01*
X54777Y24350D02*
X54961Y24166D01*
X55191Y21815D02*
X55404Y22028D01*
X53548Y22228D02*
X53760Y22015D01*
X53761Y22016D02*
X53974Y22229D01*
X57309Y24387D02*
X57522Y24174D01*
X57096Y24174D02*
X57309Y24387D01*
X57306Y22488D02*
X57519Y22701D01*
X57093D02*
X57305Y22488D01*
X54974Y23731D02*
X54978D01*
X55585Y23124D02*
X55588D01*
X55585Y23731D02*
Y23735D01*
X54978Y23120D02*
Y23124D01*
X55249Y22337D02*
X55462Y22550D01*
X54809Y24026D02*
X54822D01*
X54543Y23107D02*
X54864Y23428D01*
X54404Y23247D02*
X54418D01*
X54599Y23428D01*
X54864D01*
X55142D01*
X55740Y22829D02*
X55754D01*
X56059Y22694D02*
X56078Y22675D01*
X55880Y22954D02*
Y22968D01*
X56585Y23663D02*
X56786Y23462D01*
X55754Y22829D02*
X55890Y22694D01*
X56059D01*
X56582Y23212D02*
Y23235D01*
X56786Y23439D01*
Y23462D01*
X56059Y22694D02*
Y22775D01*
X55880Y22954D02*
X56059Y22775D01*
X56585Y23653D02*
Y23663D01*
X56353Y23421D02*
X56585Y23653D01*
X56158Y23247D02*
X56168D01*
X56343Y23421D01*
X56353D01*
X56158Y23608D02*
X56162D01*
X56343Y23428D01*
X56144Y23608D02*
X56158D01*
X55963Y23428D02*
X56144Y23608D01*
X55420Y23428D02*
X55963D01*
X55462Y22551D02*
Y22565D01*
X55281Y22745D02*
X55462Y22565D01*
X55100Y22551D02*
Y22565D01*
X55281Y22745D01*
Y23288D01*
X54270Y22971D02*
X54482Y22759D01*
X54270Y22971D02*
Y22993D01*
X56585Y23664D02*
X56798Y23877D01*
X54529Y23748D02*
X54543D01*
X54402Y23875D02*
X54529Y23748D01*
X54286Y23875D02*
X54402D01*
X54267Y23894D02*
X54286Y23875D01*
X54404Y23608D02*
Y23622D01*
X54286Y23741D02*
X54404Y23622D01*
X54286Y23741D02*
Y23875D01*
X54482Y22736D02*
Y22759D01*
X54465Y22736D02*
X54482D01*
X54283Y22555D02*
X54465Y22736D01*
X54267Y22555D02*
X54283D01*
X56154Y54267D02*
Y54283D01*
X55972Y54465D02*
X56154Y54283D01*
X55972Y54465D02*
Y54482D01*
X55950D02*
X55972D01*
X54834Y54286D02*
X54968D01*
X55086Y54404D01*
X54815Y54267D02*
X54834Y54286D01*
X54961Y54529D02*
Y54543D01*
X54832Y56798D02*
X55045Y56585D01*
X55715Y54270D02*
X55738D01*
X55950Y54482D01*
X55420Y55281D02*
X55963D01*
X55281D02*
X55420D01*
X55963D02*
X56144Y55100D01*
X56158D01*
X55963Y55281D02*
X56144Y55462D01*
X56158D01*
X55142Y55281D02*
X55281D01*
Y55420D02*
Y55963D01*
Y55281D02*
Y55420D01*
X55100Y56144D02*
X55281Y55963D01*
X55100Y56162D02*
X55281Y56343D01*
X55287D02*
Y56353D01*
Y56343D02*
X55462Y56168D01*
Y56158D02*
Y56168D01*
X55056Y56585D02*
X55287Y56353D01*
X55045Y56585D02*
X55056D01*
X55247Y56786D02*
X55270D01*
X55474Y56582D01*
X55497D01*
X56015Y55890D02*
Y56059D01*
X55880Y55754D02*
X56015Y55890D01*
X55045Y56585D02*
X55247Y56786D01*
X55880Y55740D02*
Y55754D01*
X55281Y54599D02*
X55462Y54418D01*
Y54404D02*
Y54418D01*
X55281Y54864D02*
X55601Y54543D01*
X55281Y55281D02*
X55585Y54978D01*
X55588D01*
X54978Y55585D02*
X55281Y55281D01*
X54974Y55585D02*
X54978D01*
X55281Y55281D02*
X55585Y55585D01*
Y55588D01*
X54978Y54974D02*
Y54978D01*
X55281Y55281D01*
X56480Y53974D02*
X56693Y53761D01*
X56480Y53548D02*
X56693Y53761D01*
X56680Y55404D02*
X56893Y55191D01*
X54359Y54777D02*
X54543Y54961D01*
X54543D01*
D66*
X58653Y26302D02*
X58889Y26538D01*
X58651Y26302D02*
X58653D01*
X58889Y26538D02*
X59045Y26694D01*
X58889Y26538D02*
Y26538D01*
X56276Y56805D02*
X56276D01*
X56499Y57027D01*
X57854Y58383D01*
X57869D01*
X57027Y22202D02*
X58383Y20847D01*
X57027Y22202D02*
Y22210D01*
X58383Y20840D02*
Y20847D01*
X56805Y22432D02*
X57027Y22210D01*
X56805Y22432D02*
Y22432D01*
X20847Y20326D02*
X22202Y21681D01*
X22210D01*
X22432Y21904D01*
X52691Y58382D02*
X54043Y57030D01*
X54266Y56808D01*
X21678Y54043D02*
X21901Y54266D01*
X21678Y54035D02*
Y54043D01*
X20336Y52693D02*
X21678Y54035D01*
X20336Y52685D02*
Y52693D01*
X19820Y52171D02*
X19822D01*
X20058Y52407D01*
X19663Y52014D02*
X19820Y52171D01*
X21681Y56499D02*
X21904Y56276D01*
X21681Y56499D02*
Y56499D01*
X20326Y57854D02*
Y57869D01*
Y57854D02*
X21681Y56499D01*
X26684Y58994D02*
X26691D01*
X26535Y58844D02*
X26684Y58994D01*
X26528Y58844D02*
X26535D01*
X20111Y26282D02*
X20118D01*
X19865Y26528D02*
X20111Y26282D01*
X19715Y26684D02*
Y26691D01*
Y26684D02*
X19865Y26535D01*
Y26528D02*
Y26535D01*
X20337Y19823D02*
Y19824D01*
X20561Y20048D01*
X20181Y19666D02*
X20337Y19823D01*
X26302Y20056D02*
X26538Y19820D01*
X26302Y20056D02*
Y20058D01*
X26538Y19820D02*
X26695Y19663D01*
X52427Y20114D02*
Y20118D01*
X52181Y19868D02*
X52427Y20114D01*
X52181Y19865D02*
Y19868D01*
X52017Y19715D02*
X52024D01*
X52174Y19865D01*
X52181D01*
X58662Y20561D02*
X58886Y20337D01*
X58661Y20561D02*
X58662D01*
X58886Y20337D02*
X59042Y20181D01*
X52678Y58382D02*
X52691D01*
X52179Y58882D02*
X52400Y58661D01*
X52164Y58882D02*
X52179D01*
X52021Y59038D02*
Y59052D01*
Y59038D02*
X52164Y58895D01*
Y58882D02*
Y58895D01*
X58371Y58885D02*
Y58886D01*
X58147Y58661D02*
X58371Y58885D01*
X58147Y58661D02*
Y58661D01*
X58521Y59042D02*
Y59049D01*
X58371Y58893D02*
X58521Y59042D01*
X58371Y58886D02*
Y58893D01*
X59000Y52031D02*
X59007D01*
X58851Y52181D02*
X59000Y52031D01*
X58844Y52181D02*
X58851D01*
X58598Y52427D02*
X58844Y52181D01*
X58591Y52427D02*
X58598D01*
X19824Y58371D02*
X20048Y58147D01*
X19823Y58371D02*
X19824D01*
X19666Y58528D02*
X19823Y58371D01*
X26282Y58591D02*
Y58598D01*
X26528Y58844D01*
X26003Y58309D02*
Y58313D01*
X24669Y56975D02*
X26003Y58309D01*
X24669Y56972D02*
Y56975D01*
X21734Y24669D02*
X21737D01*
X20396Y26003D02*
X20400D01*
X21734Y24669D01*
X20840Y20326D02*
X20847D01*
X26016Y20336D02*
X26024D01*
X24673Y21678D02*
X26016Y20336D01*
X24666Y21678D02*
X24673D01*
X52705Y20396D02*
Y20400D01*
X54039Y21734D01*
Y21737D01*
X58373Y26016D02*
Y26024D01*
X57030Y24673D02*
X58373Y26016D01*
X57030Y24666D02*
Y24673D01*
X56975Y54039D02*
X58309Y52705D01*
X58313D01*
X56972Y54039D02*
X56975D01*
X23942Y22402D02*
Y22496D01*
X23748Y22690D02*
X23942Y22496D01*
X24443Y21901D02*
X24666Y21678D01*
X24303Y24443D02*
X24324D01*
X23887Y24026D02*
X24303Y24443D01*
X22711Y22182D02*
Y22182D01*
X22238Y24168D02*
X22238D01*
X56466Y54540D02*
X56470D01*
X56526Y22711D02*
X56526D01*
X56213Y23942D02*
X56306D01*
X56019Y23748D02*
X56213Y23942D01*
X56808Y24443D02*
X57030Y24666D01*
X54039Y21737D02*
X54262Y21960D01*
Y21960D01*
X24447Y56749D02*
Y56749D01*
X24669Y56972D01*
X21960Y24447D02*
Y24447D01*
X21737Y24669D02*
X21960Y24447D01*
X56749Y54262D02*
X56972Y54039D01*
X56749Y54262D02*
X56749D01*
X55775Y56304D02*
Y56304D01*
X55998Y56526D01*
X55782Y56200D02*
Y56297D01*
X55601Y56019D02*
X55782Y56200D01*
X55775Y56304D02*
X55782Y56297D01*
X56251Y54756D02*
X56466Y54540D01*
X56251Y54756D02*
Y54760D01*
X56220D02*
X56251D01*
X56019Y54961D02*
X56220Y54760D01*
X54767Y56213D02*
X54961Y56019D01*
X54767Y56213D02*
Y56306D01*
X39650Y36834D02*
Y38212D01*
Y36834D02*
X49657Y26826D01*
X39650Y38212D02*
X39657Y38204D01*
X39259Y53248D02*
X39264Y53253D01*
X39259Y52854D02*
Y53248D01*
X49657Y26826D02*
X51744D01*
X53698Y24871D01*
X39254Y41757D02*
Y52849D01*
Y41757D02*
X39264Y41747D01*
Y41393D02*
Y41747D01*
Y40645D02*
Y40999D01*
X39256Y40109D02*
Y40637D01*
X39264Y40645D01*
X39254Y52849D02*
X39259Y52854D01*
X39256Y55890D02*
X39260Y55886D01*
Y54192D02*
Y55886D01*
Y54192D02*
X39264Y54188D01*
X39264Y54188D01*
Y53716D02*
Y54188D01*
X37979Y39070D02*
X38201D01*
X35406Y41643D02*
X37979Y39070D01*
X35406Y41643D02*
Y43440D01*
X38594Y37416D02*
X39028Y37849D01*
X36390Y37416D02*
X38594D01*
X31075Y32101D02*
X36390Y37416D01*
X31075Y31196D02*
Y32101D01*
X24868Y24990D02*
X31075Y31196D01*
X39028Y37849D02*
Y38204D01*
X40799Y39070D02*
X43760Y42031D01*
X40484Y39070D02*
X40799D01*
X43760Y42031D02*
Y43606D01*
X24987Y53859D02*
X35406Y43440D01*
X43760Y43606D02*
X53895Y53741D01*
X24440Y54403D02*
Y54408D01*
X24026Y54822D02*
X24440Y54408D01*
Y54403D02*
X24441D01*
X24721Y54123D01*
X24722D01*
X54246Y24324D02*
Y24327D01*
Y24324D02*
X54683Y23887D01*
X53966Y24607D02*
X54246Y24327D01*
X53963Y24607D02*
X53966D01*
X24324Y24443D02*
X24604Y24722D01*
Y24725D01*
X39650Y38212D02*
Y38613D01*
X39059Y38235D02*
Y38613D01*
X39028Y38204D02*
X39059Y38235D01*
X40480Y39066D02*
X40484Y39070D01*
X40102Y39066D02*
X40480D01*
X38205D02*
X38606D01*
X54400Y54261D02*
X54657Y54518D01*
X54400Y54249D02*
Y54261D01*
X54657Y54518D02*
X54822Y54683D01*
X54160Y54005D02*
Y54008D01*
X54400Y54249D01*
X22458Y23948D02*
Y23948D01*
X22238Y24168D02*
X22458Y23948D01*
Y23948D02*
X22489D01*
X22690Y23748D01*
X54760Y22458D02*
Y22489D01*
X54961Y22690D01*
X54540Y22238D02*
X54760Y22458D01*
X54540Y22238D02*
X54540D01*
X23942Y22402D02*
X24165Y22179D01*
X22711Y22182D02*
X22933Y22405D01*
X22926Y22412D02*
X22933Y22405D01*
X22926Y22509D02*
X23107Y22690D01*
X22926Y22412D02*
Y22509D01*
X56306Y23942D02*
X56529Y24165D01*
X56304Y22933D02*
X56526Y22711D01*
X56297Y22926D02*
X56304Y22933D01*
X56019Y23107D02*
X56200Y22926D01*
X56297D01*
X54544Y56529D02*
X54767Y56306D01*
D67*
X47492Y33401D02*
X47805D01*
D68*
X23948Y56220D02*
Y56251D01*
X23748Y56019D02*
X23948Y56220D01*
X23748Y56019D02*
Y56019D01*
X23107D02*
Y56019D01*
X23026Y56332D02*
Y56402D01*
X23015Y56111D02*
X23107Y56019D01*
X23015Y56111D02*
Y56321D01*
X23026Y56332D01*
X22405Y55775D02*
X22412Y55782D01*
X22690Y55601D02*
X22690D01*
X22509Y55782D02*
X22690Y55601D01*
X22412Y55782D02*
X22509D01*
X22690Y23107D02*
X22690D01*
X22307Y23026D02*
X22377D01*
X22598Y23015D02*
X22690Y23107D01*
X22388Y23015D02*
X22598D01*
X22377Y23026D02*
X22388Y23015D01*
X55601Y22690D02*
Y22690D01*
X55682Y22307D02*
Y22377D01*
X55601Y22690D02*
X55693Y22598D01*
Y22388D02*
Y22598D01*
X55682Y22377D02*
X55693Y22388D01*
X56321Y55693D02*
X56332Y55682D01*
X56111Y55693D02*
X56321D01*
X56019Y55601D02*
X56111Y55693D01*
X56332Y55682D02*
X56402D01*
X56019Y55601D02*
X56019D01*
D69*
X23948Y56251D02*
X24168Y56470D01*
X24168D01*
X22179Y54544D02*
X22402Y54767D01*
X22182Y55998D02*
X22405Y55775D01*
D70*
X40953Y30169D02*
D03*
X38984D02*
D03*
X38000D02*
D03*
X37016D02*
D03*
X39969D02*
D03*
D71*
X36031D02*
D03*
D72*
X39260Y55886D02*
D03*
D73*
X40260Y56886D02*
D03*
X38260D02*
D03*
Y54886D02*
D03*
X40260D02*
D03*
D74*
X2740Y2740D02*
D03*
X75968D02*
D03*
Y75969D02*
D03*
X2740D02*
D03*
D75*
X24087Y29795D02*
D03*
X24228Y49657D02*
D03*
X53354Y29868D02*
D03*
X53008Y49547D02*
D03*
D76*
X51913Y49732D02*
D03*
X38834Y23741D02*
D03*
X39894Y23746D02*
D03*
X41492Y23741D02*
D03*
X37236Y23746D02*
D03*
X48454Y47676D02*
D03*
X45854Y28322D02*
D03*
X35806Y41993D02*
D03*
X34804Y44609D02*
D03*
X32991Y45288D02*
D03*
X35279Y41203D02*
D03*
X32020Y47392D02*
D03*
X27844Y51568D02*
D03*
X36404Y41211D02*
D03*
X35005Y43133D02*
D03*
X29416Y48838D02*
D03*
X30283Y47982D02*
D03*
X28119Y50159D02*
D03*
X34383Y43896D02*
D03*
X37715Y39921D02*
D03*
X34108Y45305D02*
D03*
X32716Y46697D02*
D03*
X35975Y40507D02*
D03*
X27423Y50855D02*
D03*
X32295Y45984D02*
D03*
X36559Y39893D02*
D03*
X25756Y53656D02*
D03*
X35005Y42148D02*
D03*
X26031Y52247D02*
D03*
X35500Y43913D02*
D03*
X33412Y46001D02*
D03*
X29236Y50176D02*
D03*
X28540Y50872D02*
D03*
X27148Y52264D02*
D03*
X33687Y44592D02*
D03*
X31599Y46680D02*
D03*
X35806Y42977D02*
D03*
X26727Y51551D02*
D03*
X31324Y48088D02*
D03*
X37367Y39115D02*
D03*
X30903Y47376D02*
D03*
X37100Y40515D02*
D03*
X24210Y22784D02*
D03*
X24972Y23007D02*
D03*
X22807Y53479D02*
D03*
X58823Y27029D02*
D03*
X58397Y27029D02*
D03*
X58397Y26603D02*
D03*
X59045Y26694D02*
D03*
X47413Y33873D02*
D03*
X42846Y39739D02*
D03*
X44815Y37810D02*
D03*
X46980Y36944D02*
D03*
X46547Y34188D02*
D03*
X46980Y34779D02*
D03*
X48083Y34188D02*
D03*
X47098D02*
D03*
X48555Y32298D02*
D03*
X46902Y32062D02*
D03*
X46626Y31196D02*
D03*
X47531Y32456D02*
D03*
Y32731D02*
D03*
X21437Y30551D02*
D03*
X27471Y26997D02*
D03*
X28160Y27693D02*
D03*
X26627Y26136D02*
D03*
X25708Y25227D02*
D03*
X54382Y21432D02*
D03*
X54028Y21117D02*
D03*
X53398Y57101D02*
D03*
X56547Y57653D02*
D03*
X56980Y53401D02*
D03*
X57650Y53912D02*
D03*
X51689Y20356D02*
D03*
X51690Y19930D02*
D03*
X52116Y20357D02*
D03*
X20315Y58437D02*
D03*
X19888Y58863D02*
D03*
X20314Y58863D02*
D03*
X19886Y51679D02*
D03*
X20311Y52106D02*
D03*
X20312Y51680D02*
D03*
X27019Y58352D02*
D03*
X26593Y58352D02*
D03*
X27019Y58779D02*
D03*
X20357Y26593D02*
D03*
X20356Y27019D02*
D03*
X19930Y27019D02*
D03*
X20265Y20322D02*
D03*
X19846Y19888D02*
D03*
X19839Y20321D02*
D03*
X27030Y19886D02*
D03*
X26603Y20311D02*
D03*
X27029Y20312D02*
D03*
X58394Y20272D02*
D03*
X58821Y19846D02*
D03*
X58394Y19846D02*
D03*
X58779Y51690D02*
D03*
X58352Y52116D02*
D03*
X58352Y51689D02*
D03*
X51672Y58816D02*
D03*
X52099Y58390D02*
D03*
X51673Y58390D02*
D03*
X58437Y58394D02*
D03*
X58863Y58821D02*
D03*
X58863Y58394D02*
D03*
X52021Y59052D02*
D03*
X26691Y58994D02*
D03*
X19663Y52014D02*
D03*
X19666Y58528D02*
D03*
X19715Y26691D02*
D03*
X20181Y19666D02*
D03*
X26695Y19663D02*
D03*
X52017Y19715D02*
D03*
X59042Y20181D02*
D03*
X59007Y52031D02*
D03*
X58521Y59049D02*
D03*
X54147Y57592D02*
D03*
X52807Y58931D02*
D03*
X39354Y39361D02*
D03*
X55327Y23382D02*
D03*
X39786Y39364D02*
D03*
X39349Y37968D02*
D03*
X40602Y39503D02*
D03*
X40130Y38598D02*
D03*
X38622Y38593D02*
D03*
X39357Y39788D02*
D03*
X25439Y22431D02*
D03*
X25563Y21393D02*
D03*
X21350Y53086D02*
D03*
X22413Y53322D02*
D03*
X38634Y27259D02*
D03*
X38122D02*
D03*
X36114Y33369D02*
D03*
X36626D02*
D03*
X24421Y53361D02*
D03*
X54193Y25212D02*
D03*
X57138Y25645D02*
D03*
X56311Y25290D02*
D03*
X53122Y56196D02*
D03*
X52846Y57062D02*
D03*
X53398Y54188D02*
D03*
Y54739D02*
D03*
X53673Y55015D02*
D03*
X53516Y55920D02*
D03*
X40957Y41786D02*
D03*
X40209D02*
D03*
X40661Y41472D02*
D03*
X23004Y58755D02*
D03*
X55091D02*
D03*
X58831Y55802D02*
D03*
Y23716D02*
D03*
X23594Y19779D02*
D03*
X55681D02*
D03*
X49776D02*
D03*
X45051D02*
D03*
X38752D02*
D03*
X32453D02*
D03*
X30091Y58755D02*
D03*
X34815D02*
D03*
X39539D02*
D03*
X44264D02*
D03*
X48791D02*
D03*
X52768Y27298D02*
D03*
X50799Y29188D02*
D03*
X56665Y25999D02*
D03*
X56941Y23086D02*
D03*
X54736Y21747D02*
D03*
X56665Y21865D02*
D03*
X56350Y22220D02*
D03*
X25878Y22023D02*
D03*
X21035Y24661D02*
D03*
X21783Y23912D02*
D03*
X22217Y52810D02*
D03*
X21823Y55684D02*
D03*
X22217Y56668D02*
D03*
X24028Y57062D02*
D03*
X24500Y57495D02*
D03*
X52728Y56550D02*
D03*
X57413Y54227D02*
D03*
X56941Y54700D02*
D03*
X55681Y56865D02*
D03*
X56508Y56393D02*
D03*
X53398Y53873D02*
D03*
X26350Y53125D02*
D03*
X25130D02*
D03*
X26372Y58068D02*
D03*
X25112Y57950D02*
D03*
X25742Y58620D02*
D03*
X25703Y57360D02*
D03*
X25466Y58305D02*
D03*
X25978Y57714D02*
D03*
X26057Y58935D02*
D03*
X21057Y52856D02*
D03*
X19797Y52738D02*
D03*
X20427Y53407D02*
D03*
X20151Y53092D02*
D03*
X20663Y52501D02*
D03*
X20742Y53722D02*
D03*
X21057Y57725D02*
D03*
X19797Y57843D02*
D03*
X20427Y57174D02*
D03*
X21862Y57023D02*
D03*
X20151Y57489D02*
D03*
X20663Y58079D02*
D03*
X21429Y57377D02*
D03*
X20742Y56859D02*
D03*
X58050Y52356D02*
D03*
X57931Y53615D02*
D03*
X58601Y52985D02*
D03*
X57341Y53025D02*
D03*
X58286Y53261D02*
D03*
X57695Y52749D02*
D03*
X58916Y52671D02*
D03*
X52376Y58092D02*
D03*
X53674Y57972D02*
D03*
X53045Y57383D02*
D03*
X53271Y58441D02*
D03*
X52769Y57738D02*
D03*
X57722Y57671D02*
D03*
X57840Y58930D02*
D03*
X57171Y58300D02*
D03*
X57020Y56865D02*
D03*
X57486Y58576D02*
D03*
X58076Y58064D02*
D03*
X57335Y57259D02*
D03*
X56856Y57985D02*
D03*
X58069Y26310D02*
D03*
X57951Y25050D02*
D03*
X58620Y25680D02*
D03*
X57360Y25641D02*
D03*
X58305Y25404D02*
D03*
X57715Y25916D02*
D03*
X58935Y25995D02*
D03*
X58059Y20558D02*
D03*
X57941Y21818D02*
D03*
X58610Y21188D02*
D03*
X57351Y21227D02*
D03*
X56957Y21582D02*
D03*
X58295Y21464D02*
D03*
X57705Y20952D02*
D03*
X58925Y20873D02*
D03*
X52335Y20638D02*
D03*
X53595Y20757D02*
D03*
X52965Y20087D02*
D03*
X53004Y21347D02*
D03*
X53240Y20402D02*
D03*
X52729Y20993D02*
D03*
X52650Y19772D02*
D03*
X20635Y26377D02*
D03*
X20754Y25117D02*
D03*
X20084Y25747D02*
D03*
X21344Y25707D02*
D03*
X20399Y25471D02*
D03*
X20990Y25983D02*
D03*
X19769Y26062D02*
D03*
X24852Y20936D02*
D03*
X26312Y20642D02*
D03*
X25052Y20760D02*
D03*
X25682Y20091D02*
D03*
X25407Y20406D02*
D03*
X25919Y20996D02*
D03*
X25997Y19776D02*
D03*
X20878Y19779D02*
D03*
X20957Y20999D02*
D03*
X21469Y20409D02*
D03*
X23043Y21826D02*
D03*
X22256Y22456D02*
D03*
X21980Y22101D02*
D03*
X21587Y21747D02*
D03*
X36350Y31912D02*
D03*
X37335Y33015D02*
D03*
X36350Y32267D02*
D03*
X35415Y33379D02*
D03*
X35406Y33015D02*
D03*
X37325Y33379D02*
D03*
X37413Y27495D02*
D03*
X37129Y27407D02*
D03*
X39343Y27495D02*
D03*
X38358Y28204D02*
D03*
X39618Y27416D02*
D03*
X38358Y28558D02*
D03*
X38870Y40920D02*
D03*
X38594Y40645D02*
D03*
Y41747D02*
D03*
X41469Y41117D02*
D03*
X41350Y40684D02*
D03*
X54499Y55924D02*
D03*
X38923Y39358D02*
D03*
X39357Y38929D02*
D03*
X23909Y53401D02*
D03*
X54815Y25369D02*
D03*
X25760Y21550D02*
D03*
X25209Y23637D02*
D03*
X25327Y23912D02*
D03*
X25642Y24385D02*
D03*
X55358Y24541D02*
D03*
X55327Y24818D02*
D03*
X55681Y25015D02*
D03*
X54972Y24542D02*
D03*
X52607Y23991D02*
D03*
X52492Y24388D02*
D03*
X38555Y52849D02*
D03*
X38831Y52416D02*
D03*
X39657Y52220D02*
D03*
X39776Y54031D02*
D03*
Y53164D02*
D03*
X38752D02*
D03*
Y53873D02*
D03*
X53791Y55645D02*
D03*
X24539Y23755D02*
D03*
X23673Y54188D02*
D03*
X54149Y54943D02*
D03*
X47805Y33401D02*
D03*
X48811Y32960D02*
D03*
X24931Y54469D02*
D03*
X21478Y52851D02*
D03*
X21232Y21353D02*
D03*
X21193Y20094D02*
D03*
X21783Y20684D02*
D03*
X20563Y20645D02*
D03*
X45668Y31411D02*
D03*
X48201Y32377D02*
D03*
X38037Y37817D02*
D03*
X37053D02*
D03*
X36079Y37672D02*
D03*
X35383Y36976D02*
D03*
X33991Y35585D02*
D03*
X33295Y34889D02*
D03*
X32599Y34193D02*
D03*
X31903Y33497D02*
D03*
X31207Y32801D02*
D03*
X30674Y31973D02*
D03*
X30355Y31042D02*
D03*
X29659Y30346D02*
D03*
X28963Y29650D02*
D03*
X28267Y28955D02*
D03*
X27571Y28259D02*
D03*
X26875Y27563D02*
D03*
X25483Y26171D02*
D03*
X24787Y25475D02*
D03*
X29070Y28624D02*
D03*
X29766Y29320D02*
D03*
X30462Y30016D02*
D03*
X31158Y30712D02*
D03*
X31476Y31643D02*
D03*
X32010Y32470D02*
D03*
X32706Y33166D02*
D03*
X33402Y33862D02*
D03*
X34098Y34558D02*
D03*
X35490Y35950D02*
D03*
X36186Y36646D02*
D03*
X37098Y37016D02*
D03*
X38082D02*
D03*
X39029Y37284D02*
D03*
X39249Y36959D02*
D03*
X39784Y36133D02*
D03*
X40480Y35437D02*
D03*
X41176Y34741D02*
D03*
X41872Y34045D02*
D03*
X42568Y33349D02*
D03*
X43264Y32653D02*
D03*
X43960Y31957D02*
D03*
X44656Y31261D02*
D03*
X46024Y29394D02*
D03*
X47439Y28477D02*
D03*
X48135Y27781D02*
D03*
X48831Y27085D02*
D03*
X49571Y26436D02*
D03*
X50555Y26425D02*
D03*
X51539Y26424D02*
D03*
X52235Y25728D02*
D03*
X52829Y25088D02*
D03*
X53879Y25299D02*
D03*
X53144Y25954D02*
D03*
X52448Y26649D02*
D03*
X50666Y27227D02*
D03*
X49691Y27359D02*
D03*
X48995Y28055D02*
D03*
X48299Y28751D02*
D03*
X45157Y30650D02*
D03*
X44819Y32231D02*
D03*
X44123Y32927D02*
D03*
X43427Y33623D02*
D03*
X42731Y34319D02*
D03*
X42035Y35015D02*
D03*
X41339Y35711D02*
D03*
X40643Y36407D02*
D03*
X40050Y37192D02*
D03*
X52826Y53238D02*
D03*
X52130Y52542D02*
D03*
X50738Y51151D02*
D03*
X50042Y50455D02*
D03*
X47954Y48367D02*
D03*
X47258Y47671D02*
D03*
X46562Y46975D02*
D03*
X45866Y46279D02*
D03*
X45170Y45583D02*
D03*
X44475Y44887D02*
D03*
X43779Y44191D02*
D03*
X43359Y43300D02*
D03*
Y42316D02*
D03*
X42726Y41563D02*
D03*
X41089Y38793D02*
D03*
X41785Y39489D02*
D03*
X43176Y40880D02*
D03*
X43872Y41576D02*
D03*
X44161Y42517D02*
D03*
X44221Y43500D02*
D03*
X44917Y44196D02*
D03*
X45613Y44892D02*
D03*
X46309Y45588D02*
D03*
X47005Y46284D02*
D03*
X47701Y46980D02*
D03*
X49093Y48372D02*
D03*
X51181Y50460D02*
D03*
X51877Y51156D02*
D03*
X53269Y52548D02*
D03*
X53965Y53243D02*
D03*
X38661Y55496D02*
D03*
X38855Y51579D02*
D03*
Y50595D02*
D03*
Y47642D02*
D03*
Y46658D02*
D03*
Y45673D02*
D03*
Y44689D02*
D03*
Y43705D02*
D03*
Y42721D02*
D03*
X39657Y42149D02*
D03*
Y43134D02*
D03*
Y44118D02*
D03*
Y45102D02*
D03*
Y46086D02*
D03*
Y47071D02*
D03*
Y51008D02*
D03*
X39661Y54944D02*
D03*
X39968Y55879D02*
D03*
X39300Y56602D02*
D03*
X53594Y24134D02*
D03*
X23340Y53949D02*
D03*
X24760Y23340D02*
D03*
X53949Y55369D02*
D03*
X54224Y55330D02*
D03*
X38870Y54464D02*
D03*
X38594Y54188D02*
D03*
X48673Y31196D02*
D03*
X48454Y50060D02*
D03*
X42854Y31060D02*
D03*
X41854D02*
D03*
Y28676D02*
D03*
X42854D02*
D03*
X40362Y39981D02*
D03*
X40102Y40067D02*
D03*
X23379Y54224D02*
D03*
X24484Y23379D02*
D03*
X37897Y38677D02*
D03*
X38330Y38204D02*
D03*
X38633Y37900D02*
D03*
X40788Y38676D02*
D03*
X40355Y38203D02*
D03*
X53754Y23836D02*
D03*
X23832Y24933D02*
D03*
X24259Y24934D02*
D03*
X24930Y54895D02*
D03*
X54465Y53756D02*
D03*
X54892Y53757D02*
D03*
X40948Y26466D02*
D03*
X38741Y26475D02*
D03*
X48476Y33401D02*
D03*
X48201Y33322D02*
D03*
X41350Y40330D02*
D03*
X40110Y40346D02*
D03*
X39886Y40490D02*
D03*
X40625Y39969D02*
D03*
X23428Y55281D02*
D03*
X23735Y54978D02*
D03*
X23120Y55585D02*
D03*
X23124Y54974D02*
D03*
X23731Y55588D02*
D03*
X22784Y54499D02*
D03*
X23459Y56372D02*
D03*
X23932Y54359D02*
D03*
X23518Y56894D02*
D03*
X24439Y55715D02*
D03*
X22631Y56034D02*
D03*
X21922Y55247D02*
D03*
X23650Y56543D02*
D03*
X22355Y55287D02*
D03*
X24442Y56154D02*
D03*
X25161Y56480D02*
D03*
X25412Y56731D02*
D03*
X25411Y57158D02*
D03*
X24735Y56479D02*
D03*
X20936Y54284D02*
D03*
X21186Y54534D02*
D03*
X21613Y54535D02*
D03*
X20936Y53857D02*
D03*
X21911Y54831D02*
D03*
X21190Y56007D02*
D03*
X21617Y56007D02*
D03*
X20938Y56684D02*
D03*
X20939Y56258D02*
D03*
X24521Y55287D02*
D03*
X24442Y54815D02*
D03*
X23043Y53716D02*
D03*
X23634Y53676D02*
D03*
X23428Y23428D02*
D03*
X23731Y23735D02*
D03*
X23124Y23120D02*
D03*
X23735Y23124D02*
D03*
X23120Y23731D02*
D03*
X22337Y23459D02*
D03*
X24350Y23932D02*
D03*
X21815Y23518D02*
D03*
X22675Y22631D02*
D03*
X23462Y21922D02*
D03*
X22166Y23650D02*
D03*
X23421Y22355D02*
D03*
X22555Y24442D02*
D03*
X22228Y25161D02*
D03*
X21978Y25412D02*
D03*
X21551Y25411D02*
D03*
X22229Y24735D02*
D03*
X24425Y20936D02*
D03*
X24174Y21186D02*
D03*
X24173Y21613D02*
D03*
X23877Y21911D02*
D03*
X22702Y21190D02*
D03*
X22701Y21617D02*
D03*
X22098Y20999D02*
D03*
X22451Y20939D02*
D03*
X23421Y24521D02*
D03*
X23894Y24442D02*
D03*
X25169Y22771D02*
D03*
X54974Y23731D02*
D03*
X55588Y23124D02*
D03*
X55585Y23735D02*
D03*
X54978Y23120D02*
D03*
X55924Y24210D02*
D03*
X55249Y22337D02*
D03*
X54777Y24350D02*
D03*
X55191Y21815D02*
D03*
X54270Y22993D02*
D03*
X56078Y22675D02*
D03*
X56786Y23462D02*
D03*
X55058Y22166D02*
D03*
X56353Y23421D02*
D03*
X54267Y22555D02*
D03*
X53547Y22228D02*
D03*
X53297Y21978D02*
D03*
X53297Y21551D02*
D03*
X53974Y22229D02*
D03*
X57522Y24174D02*
D03*
X57096Y24173D02*
D03*
X57650Y24700D02*
D03*
X56798Y23877D02*
D03*
X57519Y22702D02*
D03*
X57092Y22701D02*
D03*
X57689Y22101D02*
D03*
X57770Y22451D02*
D03*
X54267Y23894D02*
D03*
X55878Y25172D02*
D03*
X55091Y25054D02*
D03*
X54815Y54267D02*
D03*
X55322Y54205D02*
D03*
X56007Y57092D02*
D03*
X56007Y57519D02*
D03*
X54831Y56798D02*
D03*
X54535Y57096D02*
D03*
X54534Y57522D02*
D03*
X56479Y53974D02*
D03*
X56480Y53547D02*
D03*
X56154Y54267D02*
D03*
X55287Y56353D02*
D03*
X56543Y55058D02*
D03*
X55247Y56786D02*
D03*
X56034Y56078D02*
D03*
X55715Y54270D02*
D03*
X56894Y55191D02*
D03*
X54359Y54777D02*
D03*
X56372Y55249D02*
D03*
X55588Y54978D02*
D03*
X54974Y55585D02*
D03*
X55585Y55588D02*
D03*
X54978Y54974D02*
D03*
X55281Y55281D02*
D03*
D77*
X68882Y26677D02*
D03*
Y46358D02*
D03*
X68882Y66047D02*
D03*
X49197D02*
D03*
X29512D02*
D03*
X9827Y66047D02*
D03*
X9827Y46362D02*
D03*
X68882Y6992D02*
D03*
X49197Y6992D02*
D03*
X29512Y6992D02*
D03*
X9827Y26677D02*
D03*
Y6992D02*
D03*
M02*
