G04*
G04 #@! TF.GenerationSoftware,Altium Limited,Altium Designer,25.0.2 (28)*
G04*
G04 Layer_Color=128*
%FSLAX24Y24*%
%MOIN*%
G70*
G04*
G04 #@! TF.SameCoordinates,4B7BC283-7035-4C9F-97D5-5998C8FB6373*
G04*
G04*
G04 #@! TF.FilePolarity,Positive*
G04*
G01*
G75*
%ADD13C,0.0050*%
D13*
X40736Y30169D02*
X41169D01*
X40953Y29953D02*
Y30386D01*
X38768Y30169D02*
X39201D01*
X38984Y29953D02*
Y30386D01*
X37783Y30169D02*
X38216D01*
X38000Y29953D02*
Y30386D01*
X36799Y30169D02*
X37232D01*
X37016Y29953D02*
Y30386D01*
X35815Y30169D02*
X36248D01*
X36031Y29953D02*
Y30386D01*
X39752Y30169D02*
X40185D01*
X39968Y29953D02*
Y30386D01*
X38965Y55886D02*
X39555D01*
X39260Y55591D02*
Y56181D01*
X39925Y56886D02*
X40594D01*
X40260Y56551D02*
Y57220D01*
X37925Y56886D02*
X38594D01*
X38260Y56551D02*
Y57220D01*
X37925Y54886D02*
X38594D01*
X38260Y54551D02*
Y55220D01*
X39925Y54886D02*
X40594D01*
X40260Y54551D02*
Y55220D01*
X1953Y2740D02*
X3528D01*
X2740Y1953D02*
Y3528D01*
X75181Y2740D02*
X76756D01*
X75968Y1953D02*
Y3528D01*
X75181Y75969D02*
X76756D01*
X75968Y75181D02*
Y76756D01*
X1953Y75969D02*
X3528D01*
X2740Y75181D02*
Y76756D01*
X23457Y29795D02*
X24717D01*
X24087Y29165D02*
Y30425D01*
X23598Y49657D02*
X24858D01*
X24228Y49027D02*
Y50287D01*
X52724Y29868D02*
X53984D01*
X53354Y29238D02*
Y30498D01*
X52378Y49547D02*
X53638D01*
X53008Y48917D02*
Y50177D01*
X51874Y49732D02*
X51953D01*
X51913Y49693D02*
Y49772D01*
X38795Y23741D02*
X38874D01*
X38834Y23702D02*
Y23781D01*
X39854Y23746D02*
X39933D01*
X39894Y23707D02*
Y23786D01*
X41452Y23741D02*
X41531D01*
X41492Y23702D02*
Y23781D01*
X37197Y23746D02*
X37275D01*
X37236Y23707D02*
Y23786D01*
X48415Y47676D02*
X48494D01*
X48454Y47637D02*
Y47716D01*
X45815Y28322D02*
X45894D01*
X45854Y28283D02*
Y28361D01*
X35767Y41993D02*
X35846D01*
X35806Y41954D02*
Y42032D01*
X34764Y44609D02*
X34843D01*
X34804Y44569D02*
Y44648D01*
X32952Y45288D02*
X33031D01*
X32991Y45248D02*
Y45327D01*
X35239Y41203D02*
X35318D01*
X35279Y41164D02*
Y41242D01*
X31980Y47392D02*
X32059D01*
X32020Y47353D02*
Y47432D01*
X27805Y51568D02*
X27883D01*
X27844Y51529D02*
Y51608D01*
X36365Y41211D02*
X36443D01*
X36404Y41172D02*
Y41251D01*
X34965Y43133D02*
X35044D01*
X35005Y43093D02*
Y43172D01*
X29376Y48838D02*
X29455D01*
X29416Y48798D02*
Y48877D01*
X30244Y47982D02*
X30322D01*
X30283Y47942D02*
Y48021D01*
X28080Y50159D02*
X28159D01*
X28119Y50120D02*
Y50199D01*
X34344Y43896D02*
X34423D01*
X34383Y43856D02*
Y43935D01*
X37675Y39921D02*
X37754D01*
X37715Y39882D02*
Y39961D01*
X34068Y45305D02*
X34147D01*
X34108Y45265D02*
Y45344D01*
X32676Y46697D02*
X32755D01*
X32716Y46657D02*
Y46736D01*
X35935Y40507D02*
X36014D01*
X35975Y40468D02*
Y40546D01*
X27384Y50855D02*
X27463D01*
X27423Y50816D02*
Y50895D01*
X32256Y45984D02*
X32335D01*
X32295Y45944D02*
Y46023D01*
X36519Y39893D02*
X36598D01*
X36559Y39854D02*
Y39933D01*
X25717Y53656D02*
X25795D01*
X25756Y53617D02*
Y53696D01*
X34965Y42148D02*
X35044D01*
X35005Y42109D02*
Y42188D01*
X25992Y52247D02*
X26071D01*
X26031Y52208D02*
Y52287D01*
X35460Y43913D02*
X35539D01*
X35500Y43873D02*
Y43952D01*
X33372Y46001D02*
X33451D01*
X33412Y45961D02*
Y46040D01*
X29197Y50176D02*
X29275D01*
X29236Y50137D02*
Y50216D01*
X28501Y50872D02*
X28579D01*
X28540Y50833D02*
Y50912D01*
X27109Y52264D02*
X27187D01*
X27148Y52225D02*
Y52304D01*
X33648Y44592D02*
X33727D01*
X33687Y44552D02*
Y44631D01*
X31560Y46680D02*
X31639D01*
X31599Y46640D02*
Y46719D01*
X35767Y42977D02*
X35846D01*
X35806Y42938D02*
Y43017D01*
X26688Y51551D02*
X26767D01*
X26727Y51512D02*
Y51591D01*
X31284Y48088D02*
X31363D01*
X31324Y48049D02*
Y48128D01*
X37327Y39115D02*
X37406D01*
X37367Y39076D02*
Y39154D01*
X30864Y47376D02*
X30943D01*
X30903Y47336D02*
Y47415D01*
X37061Y40515D02*
X37139D01*
X37100Y40476D02*
Y40555D01*
X24171Y22784D02*
X24249D01*
X24210Y22745D02*
Y22824D01*
X24933Y23007D02*
X25012D01*
X24972Y22968D02*
Y23046D01*
X22768Y53479D02*
X22846D01*
X22807Y53440D02*
Y53519D01*
X58784Y27029D02*
X58862D01*
X58823Y26990D02*
Y27069D01*
X58357Y27029D02*
X58436D01*
X58397Y26990D02*
Y27068D01*
X58358Y26603D02*
X58437D01*
X58397Y26563D02*
Y26642D01*
X59006Y26694D02*
X59085D01*
X59045Y26655D02*
Y26734D01*
X47374Y33873D02*
X47453D01*
X47413Y33834D02*
Y33912D01*
X42807Y39739D02*
X42886D01*
X42846Y39700D02*
Y39779D01*
X44776Y37810D02*
X44854D01*
X44815Y37771D02*
Y37849D01*
X46941Y36944D02*
X47020D01*
X46980Y36905D02*
Y36983D01*
X46508Y34188D02*
X46587D01*
X46547Y34149D02*
Y34227D01*
X46941Y34779D02*
X47020D01*
X46980Y34739D02*
Y34818D01*
X48043Y34188D02*
X48122D01*
X48083Y34149D02*
Y34227D01*
X47059Y34188D02*
X47138D01*
X47098Y34149D02*
Y34227D01*
X48516Y32298D02*
X48594D01*
X48555Y32259D02*
Y32338D01*
X46862Y32062D02*
X46941D01*
X46902Y32023D02*
Y32101D01*
X46587Y31196D02*
X46665D01*
X46626Y31157D02*
Y31235D01*
X47492Y32456D02*
X47571D01*
X47531Y32416D02*
Y32495D01*
X47492Y32731D02*
X47571D01*
X47531Y32692D02*
Y32771D01*
X21398Y30551D02*
X21477D01*
X21437Y30512D02*
Y30591D01*
X68823Y26677D02*
X68941D01*
X68882Y26618D02*
Y26736D01*
X68823Y46358D02*
X68941D01*
X68882Y46299D02*
Y46418D01*
X68823Y66047D02*
X68941D01*
X68882Y65988D02*
Y66106D01*
X49138Y66047D02*
X49256D01*
X49197Y65988D02*
Y66106D01*
X29453Y66047D02*
X29571D01*
X29512Y65988D02*
Y66106D01*
X9768Y66047D02*
X9886D01*
X9827Y65988D02*
Y66106D01*
X9768Y46362D02*
X9886D01*
X9827Y46303D02*
Y46421D01*
X68823Y6992D02*
X68941D01*
X68882Y6933D02*
Y7051D01*
X49138Y6992D02*
X49256D01*
X49197Y6933D02*
Y7051D01*
X29453Y6992D02*
X29571D01*
X29512Y6933D02*
Y7051D01*
X9768Y26677D02*
X9886D01*
X9827Y26618D02*
Y26736D01*
X9768Y6992D02*
X9886D01*
X9827Y6933D02*
Y7051D01*
X27431Y26997D02*
X27510D01*
X27471Y26958D02*
Y27036D01*
X28120Y27693D02*
X28199D01*
X28160Y27654D02*
Y27733D01*
X26588Y26136D02*
X26666D01*
X26627Y26097D02*
Y26175D01*
X25669Y25227D02*
X25748D01*
X25708Y25187D02*
Y25266D01*
X54343Y21432D02*
X54421D01*
X54382Y21393D02*
Y21472D01*
X53988Y21117D02*
X54067D01*
X54028Y21078D02*
Y21157D01*
X53358Y57101D02*
X53437D01*
X53398Y57062D02*
Y57141D01*
X56508Y57653D02*
X56587D01*
X56547Y57613D02*
Y57692D01*
X56941Y53401D02*
X57020D01*
X56980Y53361D02*
Y53440D01*
X57610Y53912D02*
X57689D01*
X57650Y53873D02*
Y53952D01*
X51650Y20356D02*
X51729D01*
X51689Y20317D02*
Y20396D01*
X51650Y19930D02*
X51729D01*
X51690Y19891D02*
Y19969D01*
X52076Y20357D02*
X52155D01*
X52116Y20317D02*
Y20396D01*
X20275Y58437D02*
X20354D01*
X20315Y58397D02*
Y58476D01*
X19849Y58863D02*
X19927D01*
X19888Y58823D02*
Y58902D01*
X20275Y58863D02*
X20354D01*
X20314Y58824D02*
Y58902D01*
X19846Y51679D02*
X19925D01*
X19886Y51640D02*
Y51719D01*
X20272Y52106D02*
X20351D01*
X20311Y52066D02*
Y52145D01*
X20272Y51680D02*
X20351D01*
X20312Y51640D02*
Y51719D01*
X26980Y58352D02*
X27059D01*
X27019Y58313D02*
Y58392D01*
X26554Y58352D02*
X26632D01*
X26593Y58313D02*
Y58391D01*
X26980Y58779D02*
X27058D01*
X27019Y58739D02*
Y58818D01*
X20317Y26593D02*
X20396D01*
X20357Y26554D02*
Y26632D01*
X20317Y27019D02*
X20396D01*
X20356Y26980D02*
Y27059D01*
X19891Y27019D02*
X19969D01*
X19930Y26980D02*
Y27058D01*
X20226Y20322D02*
X20304D01*
X20265Y20282D02*
Y20361D01*
X19807Y19888D02*
X19885D01*
X19846Y19849D02*
Y19927D01*
X19799Y20321D02*
X19878D01*
X19839Y20282D02*
Y20361D01*
X26990Y19886D02*
X27069D01*
X27030Y19846D02*
Y19925D01*
X26563Y20311D02*
X26642D01*
X26603Y20272D02*
Y20351D01*
X26990Y20312D02*
X27068D01*
X27029Y20272D02*
Y20351D01*
X58355Y20272D02*
X58433D01*
X58394Y20233D02*
Y20311D01*
X58781Y19846D02*
X58860D01*
X58821Y19807D02*
Y19885D01*
X58355Y19846D02*
X58434D01*
X58394Y19806D02*
Y19885D01*
X58739Y51690D02*
X58818D01*
X58779Y51650D02*
Y51729D01*
X58313Y52116D02*
X58391D01*
X58352Y52076D02*
Y52155D01*
X58313Y51689D02*
X58392D01*
X58352Y51650D02*
Y51729D01*
X51633Y58816D02*
X51712D01*
X51672Y58777D02*
Y58855D01*
X52059Y58390D02*
X52138D01*
X52099Y58351D02*
Y58430D01*
X51633Y58390D02*
X51712D01*
X51673Y58350D02*
Y58429D01*
X58397Y58394D02*
X58476D01*
X58437Y58355D02*
Y58433D01*
X58823Y58821D02*
X58902D01*
X58863Y58781D02*
Y58860D01*
X58824Y58394D02*
X58902D01*
X58863Y58355D02*
Y58434D01*
X51982Y59052D02*
X52060D01*
X52021Y59013D02*
Y59092D01*
X26652Y58994D02*
X26731D01*
X26691Y58954D02*
Y59033D01*
X19624Y52014D02*
X19703D01*
X19663Y51975D02*
Y52054D01*
X19627Y58528D02*
X19706D01*
X19666Y58489D02*
Y58567D01*
X19676Y26691D02*
X19755D01*
X19715Y26652D02*
Y26731D01*
X20141Y19666D02*
X20220D01*
X20181Y19627D02*
Y19706D01*
X26655Y19663D02*
X26734D01*
X26695Y19624D02*
Y19703D01*
X51978Y19715D02*
X52057D01*
X52017Y19676D02*
Y19755D01*
X59003Y20181D02*
X59082D01*
X59042Y20141D02*
Y20220D01*
X58968Y52031D02*
X59047D01*
X59007Y51992D02*
Y52071D01*
X58482Y59049D02*
X58560D01*
X58521Y59010D02*
Y59089D01*
X54108Y57592D02*
X54187D01*
X54147Y57552D02*
Y57631D01*
X52768Y58931D02*
X52847D01*
X52807Y58892D02*
Y58971D01*
X39315Y39361D02*
X39394D01*
X39354Y39322D02*
Y39401D01*
X55287Y23382D02*
X55366D01*
X55327Y23342D02*
Y23421D01*
X39747Y39364D02*
X39825D01*
X39786Y39325D02*
Y39403D01*
X39309Y37968D02*
X39388D01*
X39349Y37928D02*
Y38007D01*
X40563Y39503D02*
X40642D01*
X40602Y39464D02*
Y39542D01*
X40091Y38598D02*
X40169D01*
X40130Y38558D02*
Y38637D01*
X38582Y38593D02*
X38661D01*
X38622Y38553D02*
Y38632D01*
X39318Y39788D02*
X39396D01*
X39357Y39749D02*
Y39828D01*
X25400Y22431D02*
X25479D01*
X25439Y22392D02*
Y22471D01*
X25524Y21393D02*
X25602D01*
X25563Y21353D02*
Y21432D01*
X21311Y53086D02*
X21390D01*
X21350Y53046D02*
Y53125D01*
X22374Y53322D02*
X22453D01*
X22413Y53283D02*
Y53361D01*
X38594Y27259D02*
X38673D01*
X38634Y27220D02*
Y27298D01*
X38083Y27259D02*
X38161D01*
X38122Y27220D02*
Y27298D01*
X36075Y33369D02*
X36154D01*
X36114Y33330D02*
Y33409D01*
X36587Y33369D02*
X36665D01*
X36626Y33330D02*
Y33409D01*
X24382Y53361D02*
X24461D01*
X24421Y53322D02*
Y53401D01*
X54153Y25212D02*
X54232D01*
X54193Y25172D02*
Y25251D01*
X57098Y25645D02*
X57177D01*
X57138Y25605D02*
Y25684D01*
X56272Y25290D02*
X56350D01*
X56311Y25251D02*
Y25330D01*
X53083Y56196D02*
X53161D01*
X53122Y56157D02*
Y56235D01*
X52807Y57062D02*
X52886D01*
X52846Y57023D02*
Y57101D01*
X53358Y54188D02*
X53437D01*
X53398Y54149D02*
Y54227D01*
X53358Y54739D02*
X53437D01*
X53398Y54700D02*
Y54779D01*
X53634Y55015D02*
X53713D01*
X53673Y54975D02*
Y55054D01*
X53476Y55920D02*
X53555D01*
X53516Y55881D02*
Y55960D01*
X40917Y41786D02*
X40996D01*
X40957Y41747D02*
Y41826D01*
X40169Y41786D02*
X40248D01*
X40209Y41747D02*
Y41826D01*
X40622Y41472D02*
X40701D01*
X40661Y41432D02*
Y41511D01*
X22965Y58755D02*
X23043D01*
X23004Y58716D02*
Y58794D01*
X55051Y58755D02*
X55130D01*
X55091Y58716D02*
Y58794D01*
X58791Y55802D02*
X58870D01*
X58831Y55763D02*
Y55842D01*
X58791Y23716D02*
X58870D01*
X58831Y23676D02*
Y23755D01*
X23555Y19779D02*
X23634D01*
X23594Y19739D02*
Y19818D01*
X55642Y19779D02*
X55720D01*
X55681Y19739D02*
Y19818D01*
X49736Y19779D02*
X49815D01*
X49776Y19739D02*
Y19818D01*
X45012Y19779D02*
X45091D01*
X45051Y19739D02*
Y19818D01*
X38713Y19779D02*
X38791D01*
X38752Y19739D02*
Y19818D01*
X32413Y19779D02*
X32492D01*
X32453Y19739D02*
Y19818D01*
X30051Y58755D02*
X30130D01*
X30091Y58716D02*
Y58794D01*
X34776Y58755D02*
X34854D01*
X34815Y58716D02*
Y58794D01*
X39500Y58755D02*
X39579D01*
X39539Y58716D02*
Y58794D01*
X44224Y58755D02*
X44303D01*
X44264Y58716D02*
Y58794D01*
X48752Y58755D02*
X48831D01*
X48791Y58716D02*
Y58794D01*
X52728Y27298D02*
X52807D01*
X52768Y27259D02*
Y27338D01*
X50760Y29188D02*
X50839D01*
X50799Y29149D02*
Y29227D01*
X56626Y25999D02*
X56705D01*
X56665Y25960D02*
Y26038D01*
X56902Y23086D02*
X56980D01*
X56941Y23046D02*
Y23125D01*
X54697Y21747D02*
X54776D01*
X54736Y21708D02*
Y21786D01*
X56626Y21865D02*
X56705D01*
X56665Y21826D02*
Y21905D01*
X56311Y22220D02*
X56390D01*
X56350Y22180D02*
Y22259D01*
X25839Y22023D02*
X25917D01*
X25878Y21983D02*
Y22062D01*
X20996Y24661D02*
X21075D01*
X21035Y24621D02*
Y24700D01*
X21744Y23912D02*
X21823D01*
X21783Y23873D02*
Y23952D01*
X22177Y52810D02*
X22256D01*
X22217Y52771D02*
Y52849D01*
X21783Y55684D02*
X21862D01*
X21823Y55645D02*
Y55724D01*
X22177Y56668D02*
X22256D01*
X22217Y56629D02*
Y56708D01*
X23988Y57062D02*
X24067D01*
X24028Y57023D02*
Y57101D01*
X24461Y57495D02*
X24539D01*
X24500Y57456D02*
Y57535D01*
X52689Y56550D02*
X52768D01*
X52728Y56511D02*
Y56590D01*
X57374Y54227D02*
X57453D01*
X57413Y54188D02*
Y54267D01*
X56902Y54700D02*
X56980D01*
X56941Y54661D02*
Y54739D01*
X55642Y56865D02*
X55720D01*
X55681Y56826D02*
Y56905D01*
X56469Y56393D02*
X56547D01*
X56508Y56353D02*
Y56432D01*
X53358Y53873D02*
X53437D01*
X53398Y53834D02*
Y53912D01*
X26311Y53125D02*
X26390D01*
X26350Y53086D02*
Y53164D01*
X25091Y53125D02*
X25169D01*
X25130Y53086D02*
Y53164D01*
X26333Y58068D02*
X26411D01*
X26372Y58029D02*
Y58108D01*
X25073Y57950D02*
X25151D01*
X25112Y57911D02*
Y57990D01*
X25703Y58620D02*
X25781D01*
X25742Y58580D02*
Y58659D01*
X25663Y57360D02*
X25742D01*
X25703Y57320D02*
Y57399D01*
X25427Y58305D02*
X25506D01*
X25466Y58265D02*
Y58344D01*
X25939Y57714D02*
X26018D01*
X25978Y57675D02*
Y57753D01*
X26018Y58935D02*
X26096D01*
X26057Y58895D02*
Y58974D01*
X21018Y52856D02*
X21096D01*
X21057Y52816D02*
Y52895D01*
X19758Y52738D02*
X19836D01*
X19797Y52698D02*
Y52777D01*
X20388Y53407D02*
X20466D01*
X20427Y53368D02*
Y53446D01*
X20112Y53092D02*
X20191D01*
X20151Y53053D02*
Y53131D01*
X20624Y52501D02*
X20703D01*
X20663Y52462D02*
Y52541D01*
X20703Y53722D02*
X20781D01*
X20742Y53683D02*
Y53761D01*
X21018Y57725D02*
X21096D01*
X21057Y57686D02*
Y57764D01*
X19758Y57843D02*
X19836D01*
X19797Y57804D02*
Y57883D01*
X20388Y57174D02*
X20466D01*
X20427Y57135D02*
Y57213D01*
X21823Y57023D02*
X21902D01*
X21862Y56983D02*
Y57062D01*
X20112Y57489D02*
X20191D01*
X20151Y57449D02*
Y57528D01*
X20624Y58079D02*
X20703D01*
X20663Y58040D02*
Y58119D01*
X21390Y57377D02*
X21469D01*
X21429Y57338D02*
Y57416D01*
X20703Y56859D02*
X20781D01*
X20742Y56820D02*
Y56898D01*
X58010Y52356D02*
X58089D01*
X58050Y52316D02*
Y52395D01*
X57892Y53615D02*
X57971D01*
X57931Y53576D02*
Y53655D01*
X58561Y52985D02*
X58640D01*
X58601Y52946D02*
Y53025D01*
X57302D02*
X57380D01*
X57341Y52985D02*
Y53064D01*
X58246Y53261D02*
X58325D01*
X58286Y53222D02*
Y53300D01*
X57656Y52749D02*
X57735D01*
X57695Y52710D02*
Y52789D01*
X58876Y52671D02*
X58955D01*
X58916Y52631D02*
Y52710D01*
X52336Y58092D02*
X52415D01*
X52376Y58053D02*
Y58131D01*
X53634Y57972D02*
X53713D01*
X53674Y57933D02*
Y58011D01*
X53006Y57383D02*
X53084D01*
X53045Y57344D02*
Y57423D01*
X53231Y58441D02*
X53310D01*
X53271Y58401D02*
Y58480D01*
X52730Y57738D02*
X52809D01*
X52769Y57698D02*
Y57777D01*
X57683Y57671D02*
X57761D01*
X57722Y57631D02*
Y57710D01*
X57801Y58930D02*
X57880D01*
X57840Y58891D02*
Y58970D01*
X57132Y58300D02*
X57210D01*
X57171Y58261D02*
Y58340D01*
X56980Y56865D02*
X57059D01*
X57020Y56826D02*
Y56905D01*
X57446Y58576D02*
X57525D01*
X57486Y58537D02*
Y58615D01*
X58037Y58064D02*
X58116D01*
X58076Y58025D02*
Y58104D01*
X57295Y57259D02*
X57374D01*
X57335Y57220D02*
Y57298D01*
X56817Y57985D02*
X56895D01*
X56856Y57946D02*
Y58025D01*
X58030Y26310D02*
X58108D01*
X58069Y26271D02*
Y26349D01*
X57911Y25050D02*
X57990D01*
X57951Y25011D02*
Y25090D01*
X58581Y25680D02*
X58659D01*
X58620Y25641D02*
Y25719D01*
X57321Y25641D02*
X57400D01*
X57360Y25601D02*
Y25680D01*
X58266Y25404D02*
X58345D01*
X58305Y25365D02*
Y25444D01*
X57675Y25916D02*
X57754D01*
X57715Y25877D02*
Y25956D01*
X58896Y25995D02*
X58974D01*
X58935Y25956D02*
Y26034D01*
X58020Y20558D02*
X58099D01*
X58059Y20519D02*
Y20598D01*
X57902Y21818D02*
X57980D01*
X57941Y21779D02*
Y21857D01*
X58571Y21188D02*
X58650D01*
X58610Y21149D02*
Y21227D01*
X57311D02*
X57390D01*
X57351Y21188D02*
Y21267D01*
X56917Y21582D02*
X56996D01*
X56957Y21542D02*
Y21621D01*
X58256Y21464D02*
X58335D01*
X58295Y21424D02*
Y21503D01*
X57665Y20952D02*
X57744D01*
X57705Y20912D02*
Y20991D01*
X58886Y20873D02*
X58965D01*
X58925Y20834D02*
Y20912D01*
X52296Y20638D02*
X52374D01*
X52335Y20599D02*
Y20678D01*
X53555Y20757D02*
X53634D01*
X53595Y20717D02*
Y20796D01*
X52926Y20087D02*
X53004D01*
X52965Y20048D02*
Y20127D01*
Y21347D02*
X53044D01*
X53004Y21308D02*
Y21386D01*
X53201Y20402D02*
X53280D01*
X53240Y20363D02*
Y20442D01*
X52689Y20993D02*
X52768D01*
X52729Y20953D02*
Y21032D01*
X52611Y19772D02*
X52689D01*
X52650Y19733D02*
Y19812D01*
X20596Y26377D02*
X20675D01*
X20635Y26337D02*
Y26416D01*
X20714Y25117D02*
X20793D01*
X20754Y25078D02*
Y25156D01*
X20045Y25747D02*
X20124D01*
X20084Y25707D02*
Y25786D01*
X21305Y25707D02*
X21383D01*
X21344Y25668D02*
Y25747D01*
X20360Y25471D02*
X20439D01*
X20399Y25432D02*
Y25511D01*
X20950Y25983D02*
X21029D01*
X20990Y25944D02*
Y26022D01*
X19730Y26062D02*
X19809D01*
X19769Y26022D02*
Y26101D01*
X24812Y20936D02*
X24891D01*
X24852Y20897D02*
Y20975D01*
X26273Y20642D02*
X26352D01*
X26312Y20603D02*
Y20681D01*
X25013Y20760D02*
X25092D01*
X25052Y20721D02*
Y20799D01*
X25643Y20091D02*
X25722D01*
X25682Y20051D02*
Y20130D01*
X25367Y20406D02*
X25446D01*
X25407Y20366D02*
Y20445D01*
X25879Y20996D02*
X25958D01*
X25919Y20957D02*
Y21036D01*
X25958Y19776D02*
X26037D01*
X25997Y19736D02*
Y19815D01*
X20839Y19779D02*
X20917D01*
X20878Y19739D02*
Y19818D01*
X20917Y20999D02*
X20996D01*
X20957Y20960D02*
Y21038D01*
X21429Y20409D02*
X21508D01*
X21469Y20369D02*
Y20448D01*
X23004Y21826D02*
X23083D01*
X23043Y21786D02*
Y21865D01*
X22217Y22456D02*
X22295D01*
X22256Y22416D02*
Y22495D01*
X21941Y22101D02*
X22020D01*
X21980Y22062D02*
Y22141D01*
X21547Y21747D02*
X21626D01*
X21587Y21708D02*
Y21786D01*
X36311Y31912D02*
X36390D01*
X36350Y31873D02*
Y31952D01*
X37295Y33015D02*
X37374D01*
X37335Y32975D02*
Y33054D01*
X36311Y32267D02*
X36390D01*
X36350Y32227D02*
Y32306D01*
X35376Y33379D02*
X35455D01*
X35415Y33340D02*
Y33418D01*
X35366Y33015D02*
X35445D01*
X35406Y32975D02*
Y33054D01*
X37285Y33379D02*
X37364D01*
X37325Y33340D02*
Y33418D01*
X37374Y27495D02*
X37453D01*
X37413Y27456D02*
Y27535D01*
X37089Y27407D02*
X37168D01*
X37129Y27368D02*
Y27447D01*
X39303Y27495D02*
X39382D01*
X39343Y27456D02*
Y27535D01*
X38319Y28204D02*
X38398D01*
X38358Y28164D02*
Y28243D01*
X39579Y27416D02*
X39657D01*
X39618Y27377D02*
Y27456D01*
X38319Y28558D02*
X38398D01*
X38358Y28519D02*
Y28598D01*
X38831Y40920D02*
X38909D01*
X38870Y40881D02*
Y40960D01*
X38555Y40645D02*
X38634D01*
X38594Y40605D02*
Y40684D01*
X38555Y41747D02*
X38634D01*
X38594Y41708D02*
Y41786D01*
X41429Y41117D02*
X41508D01*
X41469Y41078D02*
Y41157D01*
X41311Y40684D02*
X41390D01*
X41350Y40645D02*
Y40724D01*
X54459Y55924D02*
X54538D01*
X54499Y55885D02*
Y55964D01*
X38883Y39358D02*
X38962D01*
X38923Y39319D02*
Y39398D01*
X39318Y38929D02*
X39396D01*
X39357Y38890D02*
Y38969D01*
X23870Y53401D02*
X23949D01*
X23909Y53361D02*
Y53440D01*
X54776Y25369D02*
X54854D01*
X54815Y25330D02*
Y25409D01*
X25720Y21550D02*
X25799D01*
X25760Y21511D02*
Y21590D01*
X25169Y23637D02*
X25248D01*
X25209Y23598D02*
Y23676D01*
X25287Y23912D02*
X25366D01*
X25327Y23873D02*
Y23952D01*
X25602Y24385D02*
X25681D01*
X25642Y24346D02*
Y24424D01*
X55319Y24541D02*
X55397D01*
X55358Y24502D02*
Y24580D01*
X55287Y24818D02*
X55366D01*
X55327Y24779D02*
Y24857D01*
X55642Y25015D02*
X55720D01*
X55681Y24975D02*
Y25054D01*
X54933Y24542D02*
X55012D01*
X54972Y24503D02*
Y24582D01*
X52568Y23991D02*
X52647D01*
X52607Y23952D02*
Y24031D01*
X52453Y24388D02*
X52531D01*
X52492Y24348D02*
Y24427D01*
X38516Y52849D02*
X38594D01*
X38555Y52810D02*
Y52889D01*
X38791Y52416D02*
X38870D01*
X38831Y52377D02*
Y52456D01*
X39618Y52220D02*
X39697D01*
X39657Y52180D02*
Y52259D01*
X39736Y54031D02*
X39815D01*
X39776Y53991D02*
Y54070D01*
X39736Y53164D02*
X39815D01*
X39776Y53125D02*
Y53204D01*
X38713Y53164D02*
X38791D01*
X38752Y53125D02*
Y53204D01*
X38713Y53873D02*
X38791D01*
X38752Y53834D02*
Y53912D01*
X53752Y55645D02*
X53831D01*
X53791Y55605D02*
Y55684D01*
X24500Y23755D02*
X24579D01*
X24539Y23716D02*
Y23794D01*
X23634Y54188D02*
X23713D01*
X23673Y54149D02*
Y54227D01*
X54110Y54943D02*
X54189D01*
X54149Y54904D02*
Y54982D01*
X47766Y33401D02*
X47844D01*
X47805Y33361D02*
Y33440D01*
X48772Y32960D02*
X48850D01*
X48811Y32920D02*
Y32999D01*
X24891Y54469D02*
X24970D01*
X24931Y54429D02*
Y54508D01*
X21439Y52851D02*
X21517D01*
X21478Y52812D02*
Y52891D01*
X21193Y21353D02*
X21272D01*
X21232Y21314D02*
Y21393D01*
X21154Y20094D02*
X21232D01*
X21193Y20054D02*
Y20133D01*
X21744Y20684D02*
X21823D01*
X21783Y20645D02*
Y20724D01*
X20524Y20645D02*
X20602D01*
X20563Y20605D02*
Y20684D01*
X45629Y31411D02*
X45708D01*
X45668Y31372D02*
Y31450D01*
X48161Y32377D02*
X48240D01*
X48201Y32338D02*
Y32416D01*
X37998Y37817D02*
X38076D01*
X38037Y37778D02*
Y37857D01*
X37013Y37817D02*
X37092D01*
X37053Y37778D02*
Y37857D01*
X36040Y37672D02*
X36118D01*
X36079Y37633D02*
Y37712D01*
X35344Y36976D02*
X35422D01*
X35383Y36937D02*
Y37016D01*
X33952Y35585D02*
X34031D01*
X33991Y35545D02*
Y35624D01*
X33256Y34889D02*
X33335D01*
X33295Y34849D02*
Y34928D01*
X32560Y34193D02*
X32639D01*
X32599Y34153D02*
Y34232D01*
X31864Y33497D02*
X31943D01*
X31903Y33457D02*
Y33536D01*
X31168Y32801D02*
X31247D01*
X31207Y32761D02*
Y32840D01*
X30635Y31973D02*
X30713D01*
X30674Y31934D02*
Y32013D01*
X30315Y31042D02*
X30394D01*
X30355Y31003D02*
Y31082D01*
X29619Y30346D02*
X29698D01*
X29659Y30307D02*
Y30386D01*
X28923Y29650D02*
X29002D01*
X28963Y29611D02*
Y29690D01*
X28227Y28955D02*
X28306D01*
X28267Y28915D02*
Y28994D01*
X27531Y28259D02*
X27610D01*
X27571Y28219D02*
Y28298D01*
X26835Y27563D02*
X26914D01*
X26875Y27523D02*
Y27602D01*
X25443Y26171D02*
X25522D01*
X25483Y26131D02*
Y26210D01*
X24747Y25475D02*
X24826D01*
X24787Y25435D02*
Y25514D01*
X29030Y28624D02*
X29109D01*
X29070Y28585D02*
Y28663D01*
X29726Y29320D02*
X29805D01*
X29766Y29281D02*
Y29359D01*
X30422Y30016D02*
X30501D01*
X30462Y29977D02*
Y30055D01*
X31118Y30712D02*
X31197D01*
X31158Y30673D02*
Y30751D01*
X31436Y31643D02*
X31515D01*
X31476Y31604D02*
Y31683D01*
X31971Y32470D02*
X32049D01*
X32010Y32431D02*
Y32509D01*
X32667Y33166D02*
X32745D01*
X32706Y33126D02*
Y33205D01*
X33363Y33862D02*
X33441D01*
X33402Y33822D02*
Y33901D01*
X34059Y34558D02*
X34137D01*
X34098Y34518D02*
Y34597D01*
X35450Y35950D02*
X35529D01*
X35490Y35910D02*
Y35989D01*
X36146Y36646D02*
X36225D01*
X36186Y36606D02*
Y36685D01*
X37059Y37016D02*
X37137D01*
X37098Y36976D02*
Y37055D01*
X38043Y37016D02*
X38122D01*
X38082Y36976D02*
Y37055D01*
X38990Y37284D02*
X39068D01*
X39029Y37245D02*
Y37324D01*
X39209Y36959D02*
X39288D01*
X39249Y36920D02*
Y36998D01*
X39744Y36133D02*
X39823D01*
X39784Y36093D02*
Y36172D01*
X40440Y35437D02*
X40519D01*
X40480Y35397D02*
Y35476D01*
X41136Y34741D02*
X41215D01*
X41176Y34701D02*
Y34780D01*
X41832Y34045D02*
X41911D01*
X41872Y34006D02*
Y34084D01*
X42528Y33349D02*
X42607D01*
X42568Y33310D02*
Y33388D01*
X43224Y32653D02*
X43303D01*
X43264Y32614D02*
Y32692D01*
X43920Y31957D02*
X43999D01*
X43960Y31918D02*
Y31996D01*
X44616Y31261D02*
X44695D01*
X44656Y31222D02*
Y31300D01*
X45984Y29394D02*
X46063D01*
X46024Y29354D02*
Y29433D01*
X47400Y28477D02*
X47479D01*
X47439Y28438D02*
Y28516D01*
X48096Y27781D02*
X48175D01*
X48135Y27742D02*
Y27821D01*
X48792Y27085D02*
X48871D01*
X48831Y27046D02*
Y27125D01*
X49532Y26436D02*
X49610D01*
X49571Y26396D02*
Y26475D01*
X50516Y26425D02*
X50595D01*
X50555Y26386D02*
Y26464D01*
X51500Y26424D02*
X51579D01*
X51539Y26385D02*
Y26464D01*
X52196Y25728D02*
X52275D01*
X52235Y25689D02*
Y25768D01*
X52790Y25088D02*
X52868D01*
X52829Y25049D02*
Y25127D01*
X53839Y25299D02*
X53918D01*
X53879Y25260D02*
Y25338D01*
X53104Y25954D02*
X53183D01*
X53144Y25914D02*
Y25993D01*
X52408Y26649D02*
X52487D01*
X52448Y26610D02*
Y26689D01*
X50627Y27227D02*
X50706D01*
X50666Y27187D02*
Y27266D01*
X49652Y27359D02*
X49730D01*
X49691Y27320D02*
Y27398D01*
X48956Y28055D02*
X49034D01*
X48995Y28016D02*
Y28094D01*
X48260Y28751D02*
X48338D01*
X48299Y28712D02*
Y28790D01*
X45118Y30650D02*
X45197D01*
X45157Y30610D02*
Y30689D01*
X44780Y32231D02*
X44859D01*
X44819Y32192D02*
Y32270D01*
X44084Y32927D02*
X44163D01*
X44123Y32888D02*
Y32966D01*
X43388Y33623D02*
X43467D01*
X43427Y33583D02*
Y33662D01*
X42692Y34319D02*
X42771D01*
X42731Y34279D02*
Y34358D01*
X41996Y35015D02*
X42075D01*
X42035Y34975D02*
Y35054D01*
X41300Y35711D02*
X41379D01*
X41339Y35671D02*
Y35750D01*
X40604Y36407D02*
X40683D01*
X40643Y36367D02*
Y36446D01*
X40011Y37192D02*
X40090D01*
X40050Y37153D02*
Y37232D01*
X52787Y53238D02*
X52866D01*
X52826Y53199D02*
Y53278D01*
X52091Y52542D02*
X52170D01*
X52130Y52503D02*
Y52582D01*
X50699Y51151D02*
X50778D01*
X50738Y51111D02*
Y51190D01*
X50003Y50455D02*
X50082D01*
X50042Y50415D02*
Y50494D01*
X47915Y48367D02*
X47994D01*
X47954Y48327D02*
Y48406D01*
X47219Y47671D02*
X47298D01*
X47258Y47631D02*
Y47710D01*
X46523Y46975D02*
X46602D01*
X46562Y46935D02*
Y47014D01*
X45827Y46279D02*
X45906D01*
X45866Y46239D02*
Y46318D01*
X45131Y45583D02*
X45210D01*
X45170Y45543D02*
Y45622D01*
X44435Y44887D02*
X44514D01*
X44475Y44847D02*
Y44926D01*
X43739Y44191D02*
X43818D01*
X43779Y44151D02*
Y44230D01*
X43320Y43300D02*
X43399D01*
X43359Y43261D02*
Y43340D01*
X43320Y42316D02*
X43399D01*
X43359Y42277D02*
Y42355D01*
X42686Y41563D02*
X42765D01*
X42726Y41524D02*
Y41602D01*
X41049Y38793D02*
X41128D01*
X41089Y38753D02*
Y38832D01*
X41745Y39489D02*
X41824D01*
X41785Y39449D02*
Y39528D01*
X43137Y40880D02*
X43216D01*
X43176Y40841D02*
Y40920D01*
X43833Y41576D02*
X43912D01*
X43872Y41537D02*
Y41616D01*
X44122Y42517D02*
X44200D01*
X44161Y42478D02*
Y42557D01*
X44182Y43500D02*
X44260D01*
X44221Y43461D02*
Y43539D01*
X44878Y44196D02*
X44956D01*
X44917Y44156D02*
Y44235D01*
X45574Y44892D02*
X45652D01*
X45613Y44852D02*
Y44931D01*
X46270Y45588D02*
X46348D01*
X46309Y45548D02*
Y45627D01*
X46966Y46284D02*
X47044D01*
X47005Y46244D02*
Y46323D01*
X47662Y46980D02*
X47740D01*
X47701Y46940D02*
Y47019D01*
X49054Y48372D02*
X49132D01*
X49093Y48332D02*
Y48411D01*
X51141Y50460D02*
X51220D01*
X51181Y50420D02*
Y50499D01*
X51837Y51156D02*
X51916D01*
X51877Y51116D02*
Y51195D01*
X53229Y52548D02*
X53308D01*
X53269Y52508D02*
Y52587D01*
X53925Y53243D02*
X54004D01*
X53965Y53204D02*
Y53283D01*
X38622Y55496D02*
X38701D01*
X38661Y55456D02*
Y55535D01*
X38816Y51579D02*
X38895D01*
X38855Y51539D02*
Y51618D01*
X38816Y50595D02*
X38895D01*
X38855Y50555D02*
Y50634D01*
X38816Y47642D02*
X38895D01*
X38855Y47602D02*
Y47681D01*
X38816Y46658D02*
X38895D01*
X38855Y46618D02*
Y46697D01*
X38816Y45673D02*
X38895D01*
X38855Y45634D02*
Y45713D01*
X38816Y44689D02*
X38895D01*
X38855Y44650D02*
Y44728D01*
X38816Y43705D02*
X38895D01*
X38855Y43665D02*
Y43744D01*
X38816Y42721D02*
X38895D01*
X38855Y42681D02*
Y42760D01*
X39617Y42149D02*
X39696D01*
X39657Y42110D02*
Y42189D01*
X39617Y43134D02*
X39696D01*
X39657Y43094D02*
Y43173D01*
X39617Y44118D02*
X39696D01*
X39657Y44078D02*
Y44157D01*
X39617Y45102D02*
X39696D01*
X39657Y45063D02*
Y45141D01*
X39617Y46086D02*
X39696D01*
X39657Y46047D02*
Y46126D01*
X39617Y47071D02*
X39696D01*
X39657Y47031D02*
Y47110D01*
X39617Y51008D02*
X39696D01*
X39657Y50968D02*
Y51047D01*
X39621Y54944D02*
X39700D01*
X39661Y54904D02*
Y54983D01*
X39928Y55879D02*
X40007D01*
X39968Y55839D02*
Y55918D01*
X39261Y56602D02*
X39339D01*
X39300Y56562D02*
Y56641D01*
X53555Y24134D02*
X53634D01*
X53594Y24095D02*
Y24173D01*
X23300Y53949D02*
X23379D01*
X23340Y53909D02*
Y53988D01*
X24720Y23340D02*
X24799D01*
X24760Y23300D02*
Y23379D01*
X53909Y55369D02*
X53988D01*
X53949Y55330D02*
Y55409D01*
X54185Y55330D02*
X54264D01*
X54224Y55290D02*
Y55369D01*
X38831Y54464D02*
X38909D01*
X38870Y54424D02*
Y54503D01*
X38555Y54188D02*
X38634D01*
X38594Y54149D02*
Y54227D01*
X48634Y31196D02*
X48713D01*
X48673Y31157D02*
Y31235D01*
X48415Y50060D02*
X48494D01*
X48454Y50021D02*
Y50099D01*
X42815Y31060D02*
X42894D01*
X42854Y31021D02*
Y31099D01*
X41815Y31060D02*
X41894D01*
X41854Y31021D02*
Y31099D01*
X41815Y28676D02*
X41894D01*
X41854Y28637D02*
Y28716D01*
X42815Y28676D02*
X42894D01*
X42854Y28637D02*
Y28716D01*
X40323Y39981D02*
X40401D01*
X40362Y39942D02*
Y40021D01*
X40063Y40067D02*
X40141D01*
X40102Y40027D02*
Y40106D01*
X23340Y54224D02*
X23418D01*
X23379Y54185D02*
Y54264D01*
X24445Y23379D02*
X24524D01*
X24484Y23340D02*
Y23418D01*
X37857Y38677D02*
X37936D01*
X37897Y38638D02*
Y38716D01*
X38291Y38204D02*
X38369D01*
X38330Y38165D02*
Y38244D01*
X38594Y37900D02*
X38673D01*
X38633Y37860D02*
Y37939D01*
X40749Y38676D02*
X40828D01*
X40788Y38636D02*
Y38715D01*
X40316Y38203D02*
X40395D01*
X40355Y38164D02*
Y38243D01*
X53715Y23836D02*
X53794D01*
X53754Y23796D02*
Y23875D01*
X23793Y24933D02*
X23871D01*
X23832Y24894D02*
Y24973D01*
X24219Y24934D02*
X24298D01*
X24259Y24895D02*
Y24974D01*
X24891Y54895D02*
X24970D01*
X24930Y54856D02*
Y54935D01*
X54426Y53756D02*
X54505D01*
X54465Y53717D02*
Y53796D01*
X54853Y53757D02*
X54931D01*
X54892Y53718D02*
Y53797D01*
X40909Y26466D02*
X40987D01*
X40948Y26426D02*
Y26505D01*
X38701Y26475D02*
X38780D01*
X38741Y26435D02*
Y26514D01*
X48437Y33401D02*
X48516D01*
X48476Y33361D02*
Y33440D01*
X48161Y33322D02*
X48240D01*
X48201Y33283D02*
Y33361D01*
X41311Y40330D02*
X41390D01*
X41350Y40290D02*
Y40369D01*
X40071Y40346D02*
X40149D01*
X40110Y40307D02*
Y40386D01*
X39846Y40490D02*
X39925D01*
X39886Y40451D02*
Y40530D01*
X40586Y39969D02*
X40664D01*
X40625Y39930D02*
Y40009D01*
X23388Y55281D02*
X23467D01*
X23428Y55242D02*
Y55321D01*
X23695Y54978D02*
X23774D01*
X23735Y54938D02*
Y55017D01*
X23081Y55585D02*
X23160D01*
X23120Y55545D02*
Y55624D01*
X23085Y54974D02*
X23164D01*
X23124Y54935D02*
Y55013D01*
X23692Y55588D02*
X23770D01*
X23731Y55549D02*
Y55628D01*
X22745Y54499D02*
X22824D01*
X22784Y54459D02*
Y54538D01*
X23420Y56372D02*
X23499D01*
X23459Y56332D02*
Y56411D01*
X23892Y54359D02*
X23971D01*
X23932Y54319D02*
Y54398D01*
X23478Y56894D02*
X23557D01*
X23518Y56854D02*
Y56933D01*
X24399Y55715D02*
X24478D01*
X24439Y55676D02*
Y55755D01*
X22591Y56034D02*
X22670D01*
X22631Y55994D02*
Y56073D01*
X21883Y55247D02*
X21962D01*
X21922Y55208D02*
Y55286D01*
X23611Y56543D02*
X23690D01*
X23650Y56504D02*
Y56582D01*
X22316Y55287D02*
X22395D01*
X22355Y55248D02*
Y55327D01*
X24402Y56154D02*
X24481D01*
X24442Y56115D02*
Y56193D01*
X25122Y56480D02*
X25201D01*
X25161Y56441D02*
Y56520D01*
X25373Y56731D02*
X25451D01*
X25412Y56691D02*
Y56770D01*
X25372Y57158D02*
X25451D01*
X25411Y57118D02*
Y57197D01*
X24695Y56479D02*
X24774D01*
X24735Y56440D02*
Y56519D01*
X20896Y54284D02*
X20975D01*
X20936Y54244D02*
Y54323D01*
X21147Y54534D02*
X21226D01*
X21186Y54495D02*
Y54574D01*
X21574Y54535D02*
X21652D01*
X21613Y54496D02*
Y54575D01*
X20897Y53857D02*
X20975D01*
X20936Y53818D02*
Y53896D01*
X21872Y54831D02*
X21950D01*
X21911Y54792D02*
Y54871D01*
X21151Y56007D02*
X21229D01*
X21190Y55968D02*
Y56046D01*
X21577Y56007D02*
X21656D01*
X21617Y55968D02*
Y56047D01*
X20899Y56684D02*
X20978D01*
X20938Y56645D02*
Y56724D01*
X20900Y56258D02*
X20978D01*
X20939Y56218D02*
Y56297D01*
X24481Y55287D02*
X24560D01*
X24521Y55248D02*
Y55327D01*
X24402Y54815D02*
X24481D01*
X24442Y54776D02*
Y54854D01*
X23004Y53716D02*
X23083D01*
X23043Y53676D02*
Y53755D01*
X23594Y53676D02*
X23673D01*
X23634Y53637D02*
Y53716D01*
X23388Y23428D02*
X23467D01*
X23428Y23388D02*
Y23467D01*
X23692Y23735D02*
X23770D01*
X23731Y23695D02*
Y23774D01*
X23085Y23120D02*
X23164D01*
X23124Y23081D02*
Y23160D01*
X23695Y23124D02*
X23774D01*
X23735Y23085D02*
Y23164D01*
X23081Y23731D02*
X23160D01*
X23120Y23692D02*
Y23770D01*
X22297Y23459D02*
X22376D01*
X22337Y23420D02*
Y23499D01*
X24311Y23932D02*
X24389D01*
X24350Y23892D02*
Y23971D01*
X21776Y23518D02*
X21854D01*
X21815Y23478D02*
Y23557D01*
X22636Y22631D02*
X22714D01*
X22675Y22591D02*
Y22670D01*
X23422Y21922D02*
X23501D01*
X23462Y21883D02*
Y21962D01*
X22126Y23650D02*
X22205D01*
X22166Y23611D02*
Y23690D01*
X23382Y22355D02*
X23461D01*
X23421Y22316D02*
Y22395D01*
X22515Y24442D02*
X22594D01*
X22555Y24402D02*
Y24481D01*
X22189Y25161D02*
X22268D01*
X22228Y25122D02*
Y25201D01*
X21938Y25412D02*
X22017D01*
X21978Y25373D02*
Y25451D01*
X21512Y25411D02*
X21591D01*
X21551Y25372D02*
Y25451D01*
X22190Y24735D02*
X22269D01*
X22229Y24695D02*
Y24774D01*
X24385Y20936D02*
X24464D01*
X24425Y20896D02*
Y20975D01*
X24135Y21186D02*
X24214D01*
X24174Y21147D02*
Y21226D01*
X24134Y21613D02*
X24213D01*
X24173Y21574D02*
Y21652D01*
X23838Y21911D02*
X23917D01*
X23877Y21872D02*
Y21950D01*
X22662Y21190D02*
X22741D01*
X22702Y21151D02*
Y21229D01*
X22662Y21617D02*
X22741D01*
X22701Y21577D02*
Y21656D01*
X22059Y20999D02*
X22138D01*
X22098Y20960D02*
Y21038D01*
X22412Y20939D02*
X22490D01*
X22451Y20900D02*
Y20978D01*
X23382Y24521D02*
X23461D01*
X23421Y24481D02*
Y24560D01*
X23854Y24442D02*
X23933D01*
X23894Y24402D02*
Y24481D01*
X25130Y22771D02*
X25209D01*
X25169Y22731D02*
Y22810D01*
X54934Y23731D02*
X55013D01*
X54974Y23692D02*
Y23770D01*
X55549Y23124D02*
X55628D01*
X55588Y23085D02*
Y23163D01*
X55545Y23735D02*
X55624D01*
X55585Y23695D02*
Y23774D01*
X54938Y23120D02*
X55017D01*
X54978Y23081D02*
Y23160D01*
X55885Y24210D02*
X55964D01*
X55924Y24171D02*
Y24249D01*
X55210Y22337D02*
X55289D01*
X55249Y22297D02*
Y22376D01*
X54738Y24350D02*
X54816D01*
X54777Y24311D02*
Y24389D01*
X55152Y21815D02*
X55230D01*
X55191Y21776D02*
Y21854D01*
X54231Y22993D02*
X54309D01*
X54270Y22954D02*
Y23033D01*
X56038Y22675D02*
X56117D01*
X56078Y22636D02*
Y22714D01*
X56747Y23462D02*
X56826D01*
X56786Y23422D02*
Y23501D01*
X55019Y22166D02*
X55098D01*
X55058Y22126D02*
Y22205D01*
X56314Y23421D02*
X56393D01*
X56353Y23382D02*
Y23461D01*
X54227Y22555D02*
X54306D01*
X54267Y22515D02*
Y22594D01*
X53508Y22228D02*
X53587D01*
X53547Y22189D02*
Y22268D01*
X53257Y21978D02*
X53336D01*
X53297Y21938D02*
Y22017D01*
X53258Y21551D02*
X53337D01*
X53297Y21512D02*
Y21591D01*
X53934Y22229D02*
X54013D01*
X53974Y22190D02*
Y22269D01*
X57483Y24174D02*
X57562D01*
X57522Y24135D02*
Y24214D01*
X57056Y24173D02*
X57135D01*
X57096Y24134D02*
Y24213D01*
X57610Y24700D02*
X57689D01*
X57650Y24661D02*
Y24739D01*
X56758Y23877D02*
X56837D01*
X56798Y23838D02*
Y23917D01*
X57479Y22702D02*
X57558D01*
X57519Y22662D02*
Y22741D01*
X57053Y22701D02*
X57131D01*
X57092Y22662D02*
Y22741D01*
X57650Y22101D02*
X57728D01*
X57689Y22062D02*
Y22141D01*
X57730Y22451D02*
X57809D01*
X57770Y22412D02*
Y22490D01*
X54227Y23894D02*
X54306D01*
X54267Y23854D02*
Y23933D01*
X55839Y25172D02*
X55917D01*
X55878Y25133D02*
Y25212D01*
X55051Y25054D02*
X55130D01*
X55091Y25015D02*
Y25094D01*
X54776Y54267D02*
X54854D01*
X54815Y54227D02*
Y54306D01*
X55283Y54205D02*
X55362D01*
X55322Y54165D02*
Y54244D01*
X55968Y57092D02*
X56047D01*
X56007Y57053D02*
Y57131D01*
X55968Y57519D02*
X56046D01*
X56007Y57479D02*
Y57558D01*
X54792Y56798D02*
X54871D01*
X54831Y56758D02*
Y56837D01*
X54496Y57096D02*
X54575D01*
X54535Y57056D02*
Y57135D01*
X54495Y57522D02*
X54574D01*
X54534Y57483D02*
Y57562D01*
X56440Y53974D02*
X56519D01*
X56479Y53934D02*
Y54013D01*
X56441Y53547D02*
X56520D01*
X56480Y53508D02*
Y53587D01*
X56115Y54267D02*
X56193D01*
X56154Y54227D02*
Y54306D01*
X55248Y56353D02*
X55327D01*
X55287Y56314D02*
Y56393D01*
X56504Y55058D02*
X56582D01*
X56543Y55019D02*
Y55098D01*
X55208Y56786D02*
X55286D01*
X55247Y56747D02*
Y56826D01*
X55994Y56078D02*
X56073D01*
X56034Y56038D02*
Y56117D01*
X55676Y54270D02*
X55755D01*
X55715Y54231D02*
Y54309D01*
X56854Y55191D02*
X56933D01*
X56894Y55152D02*
Y55230D01*
X54319Y54777D02*
X54398D01*
X54359Y54738D02*
Y54816D01*
X56332Y55249D02*
X56411D01*
X56372Y55210D02*
Y55289D01*
X55549Y54978D02*
X55628D01*
X55588Y54938D02*
Y55017D01*
X54935Y55585D02*
X55013D01*
X54974Y55545D02*
Y55624D01*
X55545Y55588D02*
X55624D01*
X55585Y55549D02*
Y55628D01*
X54938Y54974D02*
X55017D01*
X54978Y54935D02*
Y55013D01*
X55242Y55281D02*
X55321D01*
X55281Y55242D02*
Y55321D01*
M02*
