G04*
G04 #@! TF.GenerationSoftware,Altium Limited,Altium Designer,25.0.2 (28)*
G04*
G04 Layer_Color=16711935*
%FSLAX24Y24*%
%MOIN*%
G70*
G04*
G04 #@! TF.SameCoordinates,4B7BC283-7035-4C9F-97D5-5998C8FB6373*
G04*
G04*
G04 #@! TF.FilePolarity,Negative*
G04*
G01*
G75*
%ADD33R,0.0276X0.0256*%
G04:AMPARAMS|DCode=39|XSize=23.6mil|YSize=27.6mil|CornerRadius=0mil|HoleSize=0mil|Usage=FLASHONLY|Rotation=135.000|XOffset=0mil|YOffset=0mil|HoleType=Round|Shape=Rectangle|*
%AMROTATEDRECTD39*
4,1,4,0.0181,0.0014,-0.0014,-0.0181,-0.0181,-0.0014,0.0014,0.0181,0.0181,0.0014,0.0*
%
%ADD39ROTATEDRECTD39*%

G04:AMPARAMS|DCode=41|XSize=23.6mil|YSize=27.6mil|CornerRadius=0mil|HoleSize=0mil|Usage=FLASHONLY|Rotation=45.000|XOffset=0mil|YOffset=0mil|HoleType=Round|Shape=Rectangle|*
%AMROTATEDRECTD41*
4,1,4,0.0014,-0.0181,-0.0181,0.0014,-0.0014,0.0181,0.0181,-0.0014,0.0014,-0.0181,0.0*
%
%ADD41ROTATEDRECTD41*%

%ADD53C,0.0669*%
%ADD54R,0.0639X0.0669*%
%ADD55C,0.0787*%
%ADD56C,0.0866*%
%ADD57C,0.1732*%
%ADD58C,0.1417*%
%ADD59C,0.0118*%
%ADD87R,0.0276X0.0236*%
G04:AMPARAMS|DCode=88|XSize=15.7mil|YSize=25.6mil|CornerRadius=4.9mil|HoleSize=0mil|Usage=FLASHONLY|Rotation=270.000|XOffset=0mil|YOffset=0mil|HoleType=Round|Shape=RoundedRectangle|*
%AMROUNDEDRECTD88*
21,1,0.0157,0.0157,0,0,270.0*
21,1,0.0059,0.0256,0,0,270.0*
1,1,0.0098,-0.0079,-0.0030*
1,1,0.0098,-0.0079,0.0030*
1,1,0.0098,0.0079,0.0030*
1,1,0.0098,0.0079,-0.0030*
%
%ADD88ROUNDEDRECTD88*%
G04:AMPARAMS|DCode=89|XSize=66.9mil|YSize=37.4mil|CornerRadius=10.3mil|HoleSize=0mil|Usage=FLASHONLY|Rotation=270.000|XOffset=0mil|YOffset=0mil|HoleType=Round|Shape=RoundedRectangle|*
%AMROUNDEDRECTD89*
21,1,0.0669,0.0167,0,0,270.0*
21,1,0.0463,0.0374,0,0,270.0*
1,1,0.0207,-0.0084,-0.0231*
1,1,0.0207,-0.0084,0.0231*
1,1,0.0207,0.0084,0.0231*
1,1,0.0207,0.0084,-0.0231*
%
%ADD89ROUNDEDRECTD89*%
%ADD90R,0.0335X0.0354*%
G04:AMPARAMS|DCode=91|XSize=35.4mil|YSize=33.5mil|CornerRadius=0mil|HoleSize=0mil|Usage=FLASHONLY|Rotation=225.000|XOffset=0mil|YOffset=0mil|HoleType=Round|Shape=Rectangle|*
%AMROTATEDRECTD91*
4,1,4,0.0007,0.0244,0.0244,0.0007,-0.0007,-0.0244,-0.0244,-0.0007,0.0007,0.0244,0.0*
%
%ADD91ROTATEDRECTD91*%

G04:AMPARAMS|DCode=92|XSize=35.4mil|YSize=33.5mil|CornerRadius=0mil|HoleSize=0mil|Usage=FLASHONLY|Rotation=135.000|XOffset=0mil|YOffset=0mil|HoleType=Round|Shape=Rectangle|*
%AMROTATEDRECTD92*
4,1,4,0.0244,-0.0007,0.0007,-0.0244,-0.0244,0.0007,-0.0007,0.0244,0.0244,-0.0007,0.0*
%
%ADD92ROTATEDRECTD92*%

%ADD93R,0.0354X0.0335*%
D33*
X36114Y31912D02*
D03*
X35720D02*
D03*
X36626Y31912D02*
D03*
X37020D02*
D03*
X38122Y28558D02*
D03*
X37728D02*
D03*
X38634D02*
D03*
X39028D02*
D03*
X47768Y34542D02*
D03*
X48161D02*
D03*
X48713Y34188D02*
D03*
X48319D02*
D03*
X47728Y31629D02*
D03*
X47335D02*
D03*
X47374Y34188D02*
D03*
X47768D02*
D03*
X48555Y32023D02*
D03*
X48161D02*
D03*
X39028Y28204D02*
D03*
X38634D02*
D03*
X37728D02*
D03*
X38122D02*
D03*
X37020Y32267D02*
D03*
X36626D02*
D03*
X35720Y32267D02*
D03*
X36114D02*
D03*
X39028Y27849D02*
D03*
X38634D02*
D03*
X37728D02*
D03*
X38122D02*
D03*
X37020Y32661D02*
D03*
X36626D02*
D03*
X35720D02*
D03*
X36114D02*
D03*
X47098Y31196D02*
D03*
X47492D02*
D03*
D39*
X23849Y53891D02*
D03*
X24127Y54170D02*
D03*
X24679Y22831D02*
D03*
X24400Y22553D02*
D03*
X54878Y24860D02*
D03*
X54600Y24581D02*
D03*
X54006Y55860D02*
D03*
X54285Y56138D02*
D03*
X54009Y56414D02*
D03*
X53731Y56135D02*
D03*
X54321Y24876D02*
D03*
X54600Y25154D02*
D03*
X24676Y22277D02*
D03*
X24954Y22556D02*
D03*
X24403Y53894D02*
D03*
X24125Y53616D02*
D03*
D41*
X22868Y54009D02*
D03*
X22589Y54288D02*
D03*
X24836Y23852D02*
D03*
X24558Y24130D02*
D03*
X55817Y24682D02*
D03*
X56096Y24403D02*
D03*
X53849Y54839D02*
D03*
X54127Y54561D02*
D03*
X53852Y54285D02*
D03*
X53573Y54563D02*
D03*
X24833Y24401D02*
D03*
X25112Y24122D02*
D03*
X22314Y53973D02*
D03*
X22592Y53695D02*
D03*
X56371Y24679D02*
D03*
X56093Y24957D02*
D03*
D53*
X40953Y30169D02*
D03*
X38984D02*
D03*
X38000D02*
D03*
X37016D02*
D03*
X39969D02*
D03*
D54*
X36031D02*
D03*
D55*
X39260Y55886D02*
D03*
D56*
X40260Y56886D02*
D03*
X38260D02*
D03*
Y54886D02*
D03*
X40260D02*
D03*
D57*
X2740Y2740D02*
D03*
X75968D02*
D03*
Y75969D02*
D03*
X2740D02*
D03*
D58*
X24087Y29795D02*
D03*
X24228Y49657D02*
D03*
X53354Y29868D02*
D03*
X53008Y49547D02*
D03*
D59*
X39354Y39361D02*
D03*
X55327Y23382D02*
D03*
X39786Y39364D02*
D03*
X39357Y39788D02*
D03*
X38923Y39358D02*
D03*
X39357Y38929D02*
D03*
X23428Y55281D02*
D03*
X23735Y54978D02*
D03*
X23120Y55585D02*
D03*
X23124Y54974D02*
D03*
X23731Y55588D02*
D03*
X23428Y23428D02*
D03*
X23731Y23735D02*
D03*
X23124Y23120D02*
D03*
X23735Y23124D02*
D03*
X23120Y23731D02*
D03*
X54974Y23731D02*
D03*
X55588Y23124D02*
D03*
X55585Y23735D02*
D03*
X54978Y23120D02*
D03*
X55588Y54978D02*
D03*
X54974Y55585D02*
D03*
X55585Y55588D02*
D03*
X54978Y54974D02*
D03*
X55281Y55281D02*
D03*
D87*
X40209Y40763D02*
D03*
X39815D02*
D03*
X41035Y40330D02*
D03*
X40642D02*
D03*
X38634Y27495D02*
D03*
X39028D02*
D03*
X40642Y40684D02*
D03*
X41035D02*
D03*
X39815Y41117D02*
D03*
X40209D02*
D03*
X36114Y33015D02*
D03*
X35720D02*
D03*
X36626D02*
D03*
X37020D02*
D03*
X38122Y27495D02*
D03*
X37728D02*
D03*
D88*
X47844Y32566D02*
D03*
Y32763D02*
D03*
Y32960D02*
D03*
Y33157D02*
D03*
X48549Y32566D02*
D03*
Y32763D02*
D03*
Y32960D02*
D03*
Y33157D02*
D03*
D89*
X48197Y32861D02*
D03*
D90*
X47856Y31196D02*
D03*
X48388D02*
D03*
X41183Y41117D02*
D03*
X40652D02*
D03*
X47226Y32062D02*
D03*
X47758D02*
D03*
X48337Y33755D02*
D03*
X47805D02*
D03*
D91*
X53052Y56817D02*
D03*
X53428Y56441D02*
D03*
X25139Y22171D02*
D03*
X25515Y21795D02*
D03*
D92*
X56596Y25024D02*
D03*
X56971Y25400D02*
D03*
X22168Y53556D02*
D03*
X21792Y53180D02*
D03*
D93*
X49165Y32918D02*
D03*
Y32387D02*
D03*
X47217Y32466D02*
D03*
Y32997D02*
D03*
M02*
