G04*
G04 #@! TF.GenerationSoftware,Altium Limited,Altium Designer,25.0.2 (28)*
G04*
G04 Layer_Color=32896*
%FSLAX24Y24*%
%MOIN*%
G70*
G04*
G04 #@! TF.SameCoordinates,4B7BC283-7035-4C9F-97D5-5998C8FB6373*
G04*
G04*
G04 #@! TF.FilePolarity,Positive*
G04*
G01*
G75*
%ADD11C,0.0039*%
%ADD79C,0.0100*%
%ADD100C,0.0020*%
%ADD110C,0.0030*%
%ADD111C,0.0020*%
%ADD112C,0.0030*%
D11*
X48043Y32574D02*
G03*
X48043Y32574I-39J0D01*
G01*
X21484Y29872D02*
G03*
X21484Y29872I-630J0D01*
G01*
X53484Y48872D02*
G03*
X53484Y48872I-630J0D01*
G01*
X53984Y29872D02*
G03*
X53984Y29872I-630J0D01*
G01*
X33484Y42872D02*
G03*
X33484Y42872I-630J0D01*
G01*
Y31872D02*
G03*
X33484Y31872I-630J0D01*
G01*
X40539Y54606D02*
Y57165D01*
X37980Y57165D02*
X40539D01*
X37980Y54606D02*
Y57165D01*
Y54606D02*
X40539D01*
X35711Y32021D02*
X36124D01*
X35711Y31804D02*
X36124D01*
Y32021D01*
X35711Y31804D02*
Y32021D01*
X36616Y31804D02*
X37030D01*
X36616Y32021D02*
X37030D01*
X36616Y31804D02*
Y32021D01*
X37030Y31804D02*
Y32021D01*
X37719Y28666D02*
X38132D01*
X37719Y28450D02*
X38132D01*
Y28666D01*
X37719Y28450D02*
Y28666D01*
X38624Y28450D02*
X39037D01*
X38624Y28666D02*
X39037D01*
X38624Y28450D02*
Y28666D01*
X39037Y28450D02*
Y28666D01*
X23765Y53961D02*
X23919Y53808D01*
X24058Y54253D02*
X24211Y54100D01*
X23919Y53808D02*
X24211Y54100D01*
X23765Y53961D02*
X24058Y54253D01*
X22798Y53926D02*
X22951Y54079D01*
X22506Y54218D02*
X22659Y54371D01*
X22951Y54079D01*
X22506Y54218D02*
X22798Y53926D01*
X24766Y23768D02*
X24920Y23922D01*
X24474Y24061D02*
X24627Y24214D01*
X24920Y23922D01*
X24474Y24061D02*
X24766Y23768D01*
X24609Y22915D02*
X24762Y22762D01*
X24317Y22622D02*
X24470Y22469D01*
X24317Y22622D02*
X24609Y22915D01*
X24470Y22469D02*
X24762Y22762D01*
X40219Y40655D02*
Y40871D01*
X39805Y40655D02*
Y40871D01*
X40219D01*
X39805Y40655D02*
X40219D01*
X41045Y40222D02*
Y40438D01*
X40632Y40222D02*
Y40438D01*
X41045D01*
X40632Y40222D02*
X41045D01*
X54809Y24943D02*
X54962Y24790D01*
X54517Y24651D02*
X54670Y24498D01*
X54517Y24651D02*
X54809Y24943D01*
X54670Y24498D02*
X54962Y24790D01*
X55734Y24612D02*
X55887Y24765D01*
X56026Y24320D02*
X56179Y24473D01*
X55734Y24612D02*
X56026Y24320D01*
X55887Y24765D02*
X56179Y24473D01*
X53765Y54769D02*
X53919Y54923D01*
X54058Y54477D02*
X54211Y54630D01*
X53765Y54769D02*
X54058Y54477D01*
X53919Y54923D02*
X54211Y54630D01*
X53923Y55929D02*
X54076Y55776D01*
X54215Y56222D02*
X54368Y56069D01*
X54076Y55776D02*
X54368Y56069D01*
X53923Y55929D02*
X54215Y56222D01*
X47787Y31019D02*
X48457D01*
X47787Y31373D02*
X48457D01*
X47787Y31019D02*
Y31373D01*
X48457Y31019D02*
Y31373D01*
X38624Y27387D02*
X39037D01*
X38624Y27603D02*
X39037D01*
X38624Y27387D02*
Y27603D01*
X39037Y27387D02*
Y27603D01*
X41252Y40940D02*
Y41294D01*
X40583Y40940D02*
Y41294D01*
X41252D01*
X40583Y40940D02*
X41252D01*
X40632Y40576D02*
X41045D01*
X40632Y40792D02*
X41045D01*
X40632Y40576D02*
Y40792D01*
X41045Y40576D02*
Y40792D01*
X39805Y41009D02*
X40219D01*
X39805Y41225D02*
X40219D01*
X39805Y41009D02*
Y41225D01*
X40219Y41009D02*
Y41225D01*
X52878Y56740D02*
X53129Y56991D01*
X53352Y56267D02*
X53602Y56518D01*
X52878Y56740D02*
X53352Y56267D01*
X53129Y56991D02*
X53602Y56518D01*
X53647Y56205D02*
X53940Y56497D01*
X53800Y56052D02*
X54093Y56344D01*
X53940Y56497D02*
X54093Y56344D01*
X53647Y56205D02*
X53800Y56052D01*
X53643Y54647D02*
X53935Y54355D01*
X53490Y54494D02*
X53782Y54202D01*
X53935Y54355D01*
X53490Y54494D02*
X53643Y54647D01*
X54391Y24792D02*
X54683Y25084D01*
X54238Y24945D02*
X54530Y25238D01*
X54238Y24945D02*
X54391Y24792D01*
X54530Y25238D02*
X54683Y25084D01*
X56672Y24850D02*
X57145Y25323D01*
X56422Y25100D02*
X56895Y25574D01*
X56422Y25100D02*
X56672Y24850D01*
X56895Y25574D02*
X57145Y25323D01*
X24750Y24331D02*
X25042Y24039D01*
X24903Y24484D02*
X25195Y24192D01*
X24750Y24331D02*
X24903Y24484D01*
X25042Y24039D02*
X25195Y24192D01*
X24745Y22194D02*
X25038Y22486D01*
X24592Y22347D02*
X24885Y22639D01*
X24592Y22347D02*
X24745Y22194D01*
X24885Y22639D02*
X25038Y22486D01*
X24965Y22095D02*
X25438Y21621D01*
X25215Y22345D02*
X25689Y21872D01*
X24965Y22095D02*
X25215Y22345D01*
X25438Y21621D02*
X25689Y21872D01*
X24041Y53685D02*
X24333Y53978D01*
X24194Y53532D02*
X24486Y53825D01*
X24333Y53978D02*
X24486Y53825D01*
X24041Y53685D02*
X24194Y53532D01*
X22230Y53903D02*
X22522Y53611D01*
X22383Y54056D02*
X22675Y53764D01*
X22230Y53903D02*
X22383Y54056D01*
X22522Y53611D02*
X22675Y53764D01*
X21618Y53257D02*
X22092Y53730D01*
X21869Y53006D02*
X22342Y53479D01*
X22092Y53730D02*
X22342Y53479D01*
X21618Y53257D02*
X21869Y53006D01*
X47157Y31885D02*
Y32239D01*
X47827Y31885D02*
Y32239D01*
X47157Y31885D02*
X47827D01*
X47157Y32239D02*
X47827D01*
X48988Y32987D02*
X49343D01*
X48988Y32318D02*
X49343D01*
X48988D02*
Y32987D01*
X49343Y32318D02*
Y32987D01*
X47039Y32397D02*
X47394D01*
X47039Y33066D02*
X47394D01*
Y32397D02*
Y33066D01*
X47039Y32397D02*
Y33066D01*
X48406Y33578D02*
Y33932D01*
X47736Y33578D02*
Y33932D01*
X48406D01*
X47736Y33578D02*
X48406D01*
X47758Y34434D02*
X48171D01*
X47758Y34651D02*
X48171D01*
X47758Y34434D02*
Y34651D01*
X48171Y34434D02*
Y34651D01*
X48309Y34296D02*
X48722D01*
X48309Y34080D02*
X48722D01*
Y34296D01*
X48309Y34080D02*
Y34296D01*
X47325Y31737D02*
X47738D01*
X47325Y31521D02*
X47738D01*
Y31737D01*
X47325Y31521D02*
Y31737D01*
X47364Y34080D02*
X47778D01*
X47364Y34296D02*
X47778D01*
X47364Y34080D02*
Y34296D01*
X47778Y34080D02*
Y34296D01*
X48152Y32131D02*
X48565D01*
X48152Y31914D02*
X48565D01*
Y32131D01*
X48152Y31914D02*
Y32131D01*
X38624Y28312D02*
X39037D01*
X38624Y28096D02*
X39037D01*
Y28312D01*
X38624Y28096D02*
Y28312D01*
X37719Y28096D02*
X38132D01*
X37719Y28312D02*
X38132D01*
X37719Y28096D02*
Y28312D01*
X38132Y28096D02*
Y28312D01*
X36616Y32375D02*
X37030D01*
X36616Y32159D02*
X37030D01*
Y32375D01*
X36616Y32159D02*
Y32375D01*
X35711Y32159D02*
X36124D01*
X35711Y32375D02*
X36124D01*
X35711Y32159D02*
Y32375D01*
X36124Y32159D02*
Y32375D01*
X56163Y25041D02*
X56455Y24748D01*
X56010Y24888D02*
X56302Y24595D01*
X56455Y24748D01*
X56010Y24888D02*
X56163Y25041D01*
X35711Y33123D02*
X36124D01*
X35711Y32907D02*
X36124D01*
Y33123D01*
X35711Y32907D02*
Y33123D01*
X36616Y32907D02*
X37030D01*
X36616Y33123D02*
X37030D01*
X36616Y32907D02*
Y33123D01*
X37030Y32907D02*
Y33123D01*
X37719Y27603D02*
X38132D01*
X37719Y27387D02*
X38132D01*
Y27603D01*
X37719Y27387D02*
Y27603D01*
X39037Y27741D02*
Y27958D01*
X38624Y27741D02*
Y27958D01*
X39037D01*
X38624Y27741D02*
X39037D01*
X37719Y27741D02*
Y27958D01*
X38132Y27741D02*
Y27958D01*
X37719Y27741D02*
X38132D01*
X37719Y27958D02*
X38132D01*
X37030Y32552D02*
Y32769D01*
X36616Y32552D02*
Y32769D01*
X37030D01*
X36616Y32552D02*
X37030D01*
X35711Y32552D02*
Y32769D01*
X36124Y32552D02*
Y32769D01*
X35711Y32552D02*
X36124D01*
X35711Y32769D02*
X36124D01*
X47089Y31088D02*
X47502D01*
X47089Y31304D02*
X47502D01*
X47089Y31088D02*
Y31304D01*
X47502Y31088D02*
Y31304D01*
X40079Y55933D02*
X40144D01*
X40111D01*
Y55769D01*
X40144Y55736D01*
X40177D01*
X40210Y55769D01*
X40013Y55736D02*
X39947D01*
X39980D01*
Y55933D01*
X40013Y55900D01*
X48516Y32968D02*
Y32804D01*
X48483Y32771D01*
X48417D01*
X48385Y32804D01*
Y32968D01*
X48221Y32771D02*
Y32968D01*
X48319Y32869D01*
X48188D01*
X48122Y32935D02*
X48089Y32968D01*
X48024D01*
X47991Y32935D01*
Y32804D01*
X48024Y32771D01*
X48089D01*
X48122Y32804D01*
Y32935D01*
X47925Y32771D02*
X47860D01*
X47893D01*
Y32968D01*
X47925Y32935D01*
D79*
X58854Y51478D02*
G03*
X58454Y51868I-395J-5D01*
G01*
X20254D02*
G03*
X19854Y51468I0J-400D01*
G01*
X58454Y26868D02*
G03*
X58854Y27268I0J400D01*
G01*
X19854D02*
G03*
X20244Y26868I395J-5D01*
G01*
Y26868D02*
X58454Y26868D01*
X18854Y30868D02*
Y43768D01*
X19854Y44768D01*
Y51468D01*
Y27268D02*
Y29868D01*
X58854Y27268D02*
X58854Y51478D01*
X20254Y51868D02*
X58454D01*
X18854Y30868D02*
X19854Y29868D01*
D100*
X39260Y54866D02*
G03*
X40280Y55886I0J1020D01*
G01*
X38240D02*
G03*
X39260Y54866I1020J0D01*
G01*
Y56906D02*
G03*
X38240Y55886I0J-1020D01*
G01*
X40280D02*
G03*
X39260Y56906I-1020J0D01*
G01*
X47783Y33275D02*
X48610D01*
Y32448D02*
Y33275D01*
X47783Y32448D02*
Y33275D01*
Y32448D02*
X48610D01*
D110*
X48258Y30888D02*
X48283Y30913D01*
X48333D01*
X48358Y30888D01*
Y30788D01*
X48333Y30763D01*
X48283D01*
X48258Y30788D01*
X48108Y30913D02*
X48208D01*
Y30838D01*
X48158Y30863D01*
X48133D01*
X48108Y30838D01*
Y30788D01*
X48133Y30763D01*
X48183D01*
X48208Y30788D01*
X48058Y30888D02*
X48033Y30913D01*
X47983D01*
X47958Y30888D01*
Y30788D01*
X47983Y30763D01*
X48033D01*
X48058Y30788D01*
Y30888D01*
X47908Y30763D02*
X47858D01*
X47883D01*
Y30913D01*
X47908Y30888D01*
X41762Y41163D02*
X41787Y41188D01*
X41837D01*
X41862Y41163D01*
Y41063D01*
X41837Y41038D01*
X41787D01*
X41762Y41063D01*
X41712Y41163D02*
X41687Y41188D01*
X41637D01*
X41612Y41163D01*
Y41138D01*
X41637Y41113D01*
X41662D01*
X41637D01*
X41612Y41088D01*
Y41063D01*
X41637Y41038D01*
X41687D01*
X41712Y41063D01*
X41562Y41163D02*
X41537Y41188D01*
X41487D01*
X41462Y41163D01*
Y41063D01*
X41487Y41038D01*
X41537D01*
X41562Y41063D01*
Y41163D01*
X41412Y41038D02*
X41362D01*
X41387D01*
Y41188D01*
X41412Y41163D01*
X53728Y56705D02*
X53763D01*
X53798Y56669D01*
Y56634D01*
X53728Y56563D01*
X53692D01*
X53657Y56599D01*
Y56634D01*
X53692Y56740D02*
Y56775D01*
X53657Y56811D01*
X53622D01*
X53604Y56793D01*
Y56758D01*
X53622Y56740D01*
X53604Y56758D01*
X53569D01*
X53551Y56740D01*
Y56705D01*
X53586Y56669D01*
X53622D01*
X53586Y56846D02*
Y56881D01*
X53551Y56917D01*
X53516D01*
X53445Y56846D01*
Y56811D01*
X53480Y56775D01*
X53516D01*
X53586Y56846D01*
X53339Y56917D02*
X53445Y57023D01*
Y56917D01*
X53374Y56987D01*
X57121Y25101D02*
Y25136D01*
X57156Y25171D01*
X57192D01*
X57263Y25101D01*
Y25065D01*
X57227Y25030D01*
X57192D01*
X57086Y25065D02*
X57050D01*
X57015Y25030D01*
Y24995D01*
X57033Y24977D01*
X57068D01*
X57086Y24995D01*
X57068Y24977D01*
Y24942D01*
X57086Y24924D01*
X57121D01*
X57156Y24959D01*
Y24995D01*
X56980Y24959D02*
X56944D01*
X56909Y24924D01*
Y24889D01*
X56980Y24818D01*
X57015D01*
X57050Y24853D01*
Y24889D01*
X56980Y24959D01*
X56856Y24871D02*
X56785Y24800D01*
X56803Y24783D01*
X56944D01*
X56962Y24765D01*
X25220Y21630D02*
X25255D01*
X25291Y21594D01*
Y21559D01*
X25220Y21488D01*
X25185D01*
X25149Y21524D01*
Y21559D01*
X25185Y21665D02*
Y21700D01*
X25149Y21736D01*
X25114D01*
X25096Y21718D01*
Y21683D01*
X25114Y21665D01*
X25096Y21683D01*
X25061D01*
X25043Y21665D01*
Y21630D01*
X25079Y21594D01*
X25114D01*
X24990Y21683D02*
X24955Y21718D01*
X24973Y21700D01*
X25079Y21806D01*
Y21771D01*
X24990Y21859D02*
Y21895D01*
X24955Y21930D01*
X24920D01*
X24849Y21859D01*
Y21824D01*
X24884Y21789D01*
X24920D01*
X24990Y21859D01*
X21784Y53788D02*
Y53823D01*
X21819Y53859D01*
X21855D01*
X21925Y53788D01*
Y53753D01*
X21890Y53717D01*
X21855D01*
X21749Y53753D02*
X21713D01*
X21678Y53717D01*
Y53682D01*
X21696Y53664D01*
X21731D01*
X21749Y53682D01*
X21731Y53664D01*
Y53629D01*
X21749Y53611D01*
X21784D01*
X21819Y53647D01*
Y53682D01*
X21731Y53558D02*
X21696Y53523D01*
X21713Y53541D01*
X21607Y53647D01*
X21643D01*
X21554Y53558D02*
X21519D01*
X21484Y53523D01*
Y53488D01*
X21501Y53470D01*
X21537D01*
X21554Y53488D01*
X21537Y53470D01*
Y53435D01*
X21554Y53417D01*
X21590D01*
X21625Y53452D01*
Y53488D01*
X46959Y31911D02*
X46984Y31936D01*
X47034D01*
X47059Y31911D01*
Y31811D01*
X47034Y31786D01*
X46984D01*
X46959Y31811D01*
X46834Y31786D02*
Y31936D01*
X46909Y31861D01*
X46809D01*
X46759Y31911D02*
X46734Y31936D01*
X46684D01*
X46659Y31911D01*
Y31811D01*
X46684Y31786D01*
X46734D01*
X46759Y31811D01*
Y31911D01*
X46609Y31786D02*
X46559D01*
X46584D01*
Y31936D01*
X46609Y31911D01*
X49470Y32848D02*
X49445Y32873D01*
Y32923D01*
X49470Y32948D01*
X49570D01*
X49594Y32923D01*
Y32873D01*
X49570Y32848D01*
X49594Y32723D02*
X49445D01*
X49520Y32798D01*
Y32698D01*
X49470Y32648D02*
X49445Y32623D01*
Y32573D01*
X49470Y32548D01*
X49570D01*
X49594Y32573D01*
Y32623D01*
X49570Y32648D01*
X49470D01*
X49594Y32398D02*
Y32498D01*
X49495Y32398D01*
X49470D01*
X49445Y32423D01*
Y32473D01*
X49470Y32498D01*
X47286Y33270D02*
X47311Y33245D01*
Y33195D01*
X47286Y33170D01*
X47186D01*
X47161Y33195D01*
Y33245D01*
X47186Y33270D01*
X47161Y33395D02*
X47311D01*
X47236Y33320D01*
Y33420D01*
X47286Y33470D02*
X47311Y33495D01*
Y33545D01*
X47286Y33570D01*
X47186D01*
X47161Y33545D01*
Y33495D01*
X47186Y33470D01*
X47286D01*
Y33620D02*
X47311Y33645D01*
Y33695D01*
X47286Y33720D01*
X47261D01*
X47236Y33695D01*
Y33670D01*
Y33695D01*
X47211Y33720D01*
X47186D01*
X47161Y33695D01*
Y33645D01*
X47186Y33620D01*
X49006Y33801D02*
X49031Y33826D01*
X49081D01*
X49106Y33801D01*
Y33701D01*
X49081Y33676D01*
X49031D01*
X49006Y33701D01*
X48881Y33676D02*
Y33826D01*
X48956Y33751D01*
X48856D01*
X48806Y33801D02*
X48781Y33826D01*
X48731D01*
X48706Y33801D01*
Y33701D01*
X48731Y33676D01*
X48781D01*
X48806Y33701D01*
Y33801D01*
X48581Y33676D02*
Y33826D01*
X48656Y33751D01*
X48556D01*
D111*
X35747Y31853D02*
Y31932D01*
X35787Y31972D01*
X35827Y31932D01*
Y31853D01*
X35947D02*
X35867D01*
Y31912D01*
X35907Y31892D01*
X35927D01*
X35947Y31912D01*
Y31952D01*
X35927Y31972D01*
X35887D01*
X35867Y31952D01*
X35987Y31873D02*
X36007Y31853D01*
X36047D01*
X36067Y31873D01*
Y31952D01*
X36047Y31972D01*
X36007D01*
X35987Y31952D01*
Y31873D01*
X36167Y31972D02*
Y31853D01*
X36107Y31912D01*
X36187D01*
X36993Y31972D02*
Y31892D01*
X36953Y31852D01*
X36913Y31892D01*
Y31972D01*
X36793D02*
X36873D01*
Y31912D01*
X36833Y31932D01*
X36813D01*
X36793Y31912D01*
Y31872D01*
X36813Y31852D01*
X36853D01*
X36873Y31872D01*
X36753Y31952D02*
X36733Y31972D01*
X36693D01*
X36673Y31952D01*
Y31872D01*
X36693Y31852D01*
X36733D01*
X36753Y31872D01*
Y31952D01*
X36633D02*
X36613Y31972D01*
X36573D01*
X36553Y31952D01*
Y31932D01*
X36573Y31912D01*
X36593D01*
X36573D01*
X36553Y31892D01*
Y31872D01*
X36573Y31852D01*
X36613D01*
X36633Y31872D01*
X37755Y28498D02*
Y28578D01*
X37795Y28618D01*
X37835Y28578D01*
Y28498D01*
X37955D02*
X37875D01*
Y28558D01*
X37915Y28538D01*
X37935D01*
X37955Y28558D01*
Y28598D01*
X37935Y28618D01*
X37895D01*
X37875Y28598D01*
X37995Y28518D02*
X38015Y28498D01*
X38055D01*
X38075Y28518D01*
Y28598D01*
X38055Y28618D01*
X38015D01*
X37995Y28598D01*
Y28518D01*
X38195Y28618D02*
X38115D01*
X38195Y28538D01*
Y28518D01*
X38175Y28498D01*
X38135D01*
X38115Y28518D01*
X39001Y28618D02*
Y28538D01*
X38961Y28498D01*
X38921Y28538D01*
Y28618D01*
X38801D02*
X38881D01*
Y28558D01*
X38841Y28578D01*
X38821D01*
X38801Y28558D01*
Y28518D01*
X38821Y28498D01*
X38861D01*
X38881Y28518D01*
X38761Y28598D02*
X38741Y28618D01*
X38701D01*
X38681Y28598D01*
Y28518D01*
X38701Y28498D01*
X38741D01*
X38761Y28518D01*
Y28598D01*
X38641Y28498D02*
X38601D01*
X38621D01*
Y28618D01*
X38641Y28598D01*
X23953Y53939D02*
Y53910D01*
X23925Y53882D01*
X23896Y53882D01*
X23840Y53939D01*
Y53967D01*
X23868Y53995D01*
X23896Y53995D01*
X23981Y53967D02*
X24009Y53967D01*
X24038Y53995D01*
Y54023D01*
X24023Y54038D01*
X23995D01*
X23981Y54023D01*
X23995Y54038D01*
X23995Y54066D01*
X23981Y54080D01*
X23953D01*
X23925Y54052D01*
Y54023D01*
X24052Y54179D02*
X23995Y54122D01*
X24108D01*
X24122Y54108D01*
Y54080D01*
X24094Y54052D01*
X24066Y54052D01*
X24221Y54179D02*
X24165Y54122D01*
X24122Y54165D01*
X24165Y54179D01*
X24179Y54193D01*
Y54221D01*
X24151Y54250D01*
X24122Y54250D01*
X24094Y54221D01*
Y54193D01*
X22820Y54113D02*
X22849D01*
X22877Y54085D01*
X22877Y54057D01*
X22820Y54000D01*
X22792D01*
X22764Y54028D01*
X22764Y54057D01*
X22792Y54142D02*
X22792Y54170D01*
X22764Y54198D01*
X22735D01*
X22721Y54184D01*
Y54156D01*
X22735Y54142D01*
X22721Y54156D01*
X22693Y54156D01*
X22679Y54142D01*
Y54113D01*
X22707Y54085D01*
X22735D01*
X22580Y54212D02*
X22636Y54156D01*
Y54269D01*
X22651Y54283D01*
X22679D01*
X22707Y54255D01*
X22707Y54226D01*
X22509Y54283D02*
X22594Y54368D01*
Y54283D01*
X22538Y54339D01*
X24789Y23956D02*
X24817D01*
X24845Y23928D01*
X24845Y23899D01*
X24789Y23843D01*
X24760D01*
X24732Y23871D01*
X24732Y23899D01*
X24760Y23984D02*
X24760Y24012D01*
X24732Y24041D01*
X24704D01*
X24690Y24027D01*
Y23998D01*
X24704Y23984D01*
X24690Y23998D01*
X24662Y23998D01*
X24647Y23984D01*
Y23956D01*
X24676Y23928D01*
X24704D01*
X24548Y24055D02*
X24605Y23998D01*
Y24111D01*
X24619Y24125D01*
X24647D01*
X24676Y24097D01*
X24676Y24069D01*
X24591Y24154D02*
Y24182D01*
X24563Y24210D01*
X24534D01*
X24520Y24196D01*
Y24168D01*
X24534Y24154D01*
X24520Y24168D01*
X24492Y24168D01*
X24478Y24154D01*
X24478Y24125D01*
X24506Y24097D01*
X24534D01*
X24575Y22784D02*
Y22812D01*
X24603Y22840D01*
X24631Y22840D01*
X24688Y22784D01*
Y22756D01*
X24660Y22727D01*
X24631Y22727D01*
X24546Y22756D02*
X24518Y22756D01*
X24490Y22727D01*
Y22699D01*
X24504Y22685D01*
X24532D01*
X24546Y22699D01*
X24532Y22685D01*
X24532Y22657D01*
X24546Y22643D01*
X24575D01*
X24603Y22671D01*
Y22699D01*
X24476Y22544D02*
X24532Y22600D01*
X24419D01*
X24405Y22614D01*
Y22643D01*
X24433Y22671D01*
X24462Y22671D01*
X24391Y22459D02*
X24448Y22515D01*
X24334D01*
X24320Y22529D01*
Y22558D01*
X24349Y22586D01*
X24377D01*
X40102Y40803D02*
X40122Y40823D01*
X40162D01*
X40182Y40803D01*
Y40723D01*
X40162Y40703D01*
X40122D01*
X40102Y40723D01*
X40062Y40803D02*
X40042Y40823D01*
X40002D01*
X39982Y40803D01*
Y40783D01*
X40002Y40763D01*
X40022D01*
X40002D01*
X39982Y40743D01*
Y40723D01*
X40002Y40703D01*
X40042D01*
X40062Y40723D01*
X39862Y40703D02*
X39942D01*
X39862Y40783D01*
Y40803D01*
X39882Y40823D01*
X39922D01*
X39942Y40803D01*
X39822Y40703D02*
X39782D01*
X39802D01*
Y40823D01*
X39822Y40803D01*
X40929Y40370D02*
X40949Y40390D01*
X40989D01*
X41009Y40370D01*
Y40290D01*
X40989Y40270D01*
X40949D01*
X40929Y40290D01*
X40889Y40370D02*
X40869Y40390D01*
X40829D01*
X40809Y40370D01*
Y40350D01*
X40829Y40330D01*
X40849D01*
X40829D01*
X40809Y40310D01*
Y40290D01*
X40829Y40270D01*
X40869D01*
X40889Y40290D01*
X40689Y40270D02*
X40769D01*
X40689Y40350D01*
Y40370D01*
X40709Y40390D01*
X40749D01*
X40769Y40370D01*
X40649D02*
X40629Y40390D01*
X40589D01*
X40569Y40370D01*
Y40290D01*
X40589Y40270D01*
X40629D01*
X40649Y40290D01*
Y40370D01*
X54775Y24812D02*
Y24841D01*
X54803Y24869D01*
X54831Y24869D01*
X54888Y24812D01*
Y24784D01*
X54859Y24756D01*
X54831Y24756D01*
X54746Y24784D02*
X54718Y24784D01*
X54690Y24756D01*
Y24728D01*
X54704Y24713D01*
X54732D01*
X54746Y24728D01*
X54732Y24713D01*
X54732Y24685D01*
X54746Y24671D01*
X54775D01*
X54803Y24699D01*
Y24728D01*
X54732Y24629D02*
X54704Y24600D01*
X54718Y24614D01*
X54633Y24699D01*
X54662Y24699D01*
X54647Y24572D02*
Y24544D01*
X54619Y24515D01*
X54591D01*
X54534Y24572D01*
Y24600D01*
X54563Y24629D01*
X54591Y24629D01*
X54605Y24614D01*
Y24586D01*
X54563Y24544D01*
X55865Y24578D02*
X55837D01*
X55808Y24606D01*
X55808Y24634D01*
X55865Y24691D01*
X55893D01*
X55921Y24663D01*
X55921Y24634D01*
X55893Y24550D02*
X55893Y24521D01*
X55921Y24493D01*
X55950D01*
X55964Y24507D01*
Y24535D01*
X55950Y24550D01*
X55964Y24535D01*
X55992Y24535D01*
X56006Y24550D01*
Y24578D01*
X55978Y24606D01*
X55950D01*
X56049Y24535D02*
X56077Y24507D01*
X56063Y24521D01*
X55978Y24436D01*
X55978Y24465D01*
X56049Y24394D02*
X56049Y24366D01*
X56077Y24337D01*
X56105D01*
X56119Y24352D01*
Y24380D01*
X56148D01*
X56162Y24394D01*
Y24422D01*
X56133Y24451D01*
X56105D01*
X56091Y24436D01*
Y24408D01*
X56063D01*
X56049Y24394D01*
X56091Y24408D02*
X56119Y24380D01*
X53896Y54735D02*
X53868D01*
X53840Y54764D01*
X53840Y54792D01*
X53896Y54848D01*
X53925D01*
X53953Y54820D01*
X53953Y54792D01*
X53925Y54707D02*
X53925Y54679D01*
X53953Y54650D01*
X53981D01*
X53995Y54665D01*
Y54693D01*
X53981Y54707D01*
X53995Y54693D01*
X54024Y54693D01*
X54038Y54707D01*
Y54735D01*
X54009Y54764D01*
X53981D01*
X54080Y54693D02*
X54108Y54665D01*
X54094Y54679D01*
X54009Y54594D01*
X54009Y54622D01*
X54066Y54537D02*
X54122Y54481D01*
X54137Y54495D01*
Y54608D01*
X54151Y54622D01*
X54110Y55907D02*
Y55879D01*
X54082Y55851D01*
X54054Y55851D01*
X53997Y55907D01*
Y55935D01*
X54025Y55964D01*
X54054Y55964D01*
X54139Y55935D02*
X54167Y55935D01*
X54195Y55964D01*
Y55992D01*
X54181Y56006D01*
X54153D01*
X54139Y55992D01*
X54153Y56006D01*
X54153Y56034D01*
X54139Y56049D01*
X54110D01*
X54082Y56020D01*
Y55992D01*
X54153Y56091D02*
X54181Y56119D01*
X54167Y56105D01*
X54252Y56020D01*
X54223Y56020D01*
X54365Y56133D02*
X54322Y56119D01*
X54266D01*
X54238Y56148D01*
Y56176D01*
X54266Y56204D01*
X54294D01*
X54308Y56190D01*
Y56162D01*
X54266Y56119D01*
X39459Y27516D02*
X39479Y27536D01*
X39519D01*
X39539Y27516D01*
Y27436D01*
X39519Y27416D01*
X39479D01*
X39459Y27436D01*
X39419Y27516D02*
X39399Y27536D01*
X39359D01*
X39339Y27516D01*
Y27496D01*
X39359Y27476D01*
X39379D01*
X39359D01*
X39339Y27456D01*
Y27436D01*
X39359Y27416D01*
X39399D01*
X39419Y27436D01*
X39219Y27416D02*
X39299D01*
X39219Y27496D01*
Y27516D01*
X39239Y27536D01*
X39279D01*
X39299Y27516D01*
X39179Y27436D02*
X39159Y27416D01*
X39120D01*
X39100Y27436D01*
Y27516D01*
X39120Y27536D01*
X39159D01*
X39179Y27516D01*
Y27496D01*
X39159Y27476D01*
X39100D01*
X41546Y40745D02*
X41566Y40765D01*
X41606D01*
X41626Y40745D01*
Y40665D01*
X41606Y40645D01*
X41566D01*
X41546Y40665D01*
X41506Y40745D02*
X41486Y40765D01*
X41446D01*
X41426Y40745D01*
Y40725D01*
X41446Y40705D01*
X41466D01*
X41446D01*
X41426Y40685D01*
Y40665D01*
X41446Y40645D01*
X41486D01*
X41506Y40665D01*
X41386Y40745D02*
X41366Y40765D01*
X41326D01*
X41306Y40745D01*
Y40665D01*
X41326Y40645D01*
X41366D01*
X41386Y40665D01*
Y40745D01*
X41186Y40645D02*
X41266D01*
X41186Y40725D01*
Y40745D01*
X41206Y40765D01*
X41246D01*
X41266Y40745D01*
X39617Y41138D02*
X39637Y41158D01*
X39677D01*
X39697Y41138D01*
Y41058D01*
X39677Y41038D01*
X39637D01*
X39617Y41058D01*
X39577Y41138D02*
X39557Y41158D01*
X39517D01*
X39497Y41138D01*
Y41118D01*
X39517Y41098D01*
X39537D01*
X39517D01*
X39497Y41078D01*
Y41058D01*
X39517Y41038D01*
X39557D01*
X39577Y41058D01*
X39457Y41138D02*
X39437Y41158D01*
X39397D01*
X39377Y41138D01*
Y41058D01*
X39397Y41038D01*
X39437D01*
X39457Y41058D01*
Y41138D01*
X39337D02*
X39317Y41158D01*
X39277D01*
X39257Y41138D01*
Y41118D01*
X39277Y41098D01*
X39297D01*
X39277D01*
X39257Y41078D01*
Y41058D01*
X39277Y41038D01*
X39317D01*
X39337Y41058D01*
X54315Y56789D02*
Y56817D01*
X54344Y56845D01*
X54372Y56845D01*
X54429Y56789D01*
Y56761D01*
X54400Y56732D01*
X54372Y56732D01*
X54287Y56761D02*
X54259Y56761D01*
X54231Y56732D01*
Y56704D01*
X54245Y56690D01*
X54273D01*
X54287Y56704D01*
X54273Y56690D01*
X54273Y56662D01*
X54287Y56647D01*
X54315D01*
X54344Y56676D01*
Y56704D01*
X54202Y56676D02*
X54174Y56676D01*
X54146Y56647D01*
Y56619D01*
X54202Y56563D01*
X54231D01*
X54259Y56591D01*
Y56619D01*
X54202Y56676D01*
X54047Y56549D02*
X54103Y56605D01*
X54146Y56563D01*
X54103Y56549D01*
X54089Y56534D01*
Y56506D01*
X54117Y56478D01*
X54146Y56478D01*
X54174Y56506D01*
Y56534D01*
X54208Y53979D02*
X54236D01*
X54265Y53951D01*
X54265Y53922D01*
X54208Y53866D01*
X54180D01*
X54151Y53894D01*
X54151Y53922D01*
X54180Y54007D02*
X54180Y54036D01*
X54151Y54064D01*
X54123D01*
X54109Y54050D01*
Y54021D01*
X54123Y54007D01*
X54109Y54021D01*
X54081Y54021D01*
X54067Y54007D01*
Y53979D01*
X54095Y53951D01*
X54123D01*
X54095Y54092D02*
X54095Y54120D01*
X54067Y54149D01*
X54038D01*
X53982Y54092D01*
Y54064D01*
X54010Y54036D01*
X54038D01*
X54095Y54092D01*
X53968Y54248D02*
X53982Y54205D01*
Y54149D01*
X53954Y54120D01*
X53925D01*
X53897Y54149D01*
X53897Y54177D01*
X53911Y54191D01*
X53939Y54191D01*
X53982Y54149D01*
X54122Y24729D02*
Y24757D01*
X54150Y24786D01*
X54178Y24786D01*
X54235Y24729D01*
Y24701D01*
X54207Y24673D01*
X54178Y24673D01*
X54094Y24701D02*
X54065Y24701D01*
X54037Y24673D01*
Y24644D01*
X54051Y24630D01*
X54079D01*
X54094Y24644D01*
X54079Y24630D01*
X54079Y24602D01*
X54094Y24588D01*
X54122D01*
X54150Y24616D01*
Y24644D01*
X54009Y24616D02*
X53980Y24616D01*
X53952Y24588D01*
Y24560D01*
X54009Y24503D01*
X54037D01*
X54065Y24531D01*
Y24560D01*
X54009Y24616D01*
X53980Y24475D02*
Y24446D01*
X53952Y24418D01*
X53924Y24418D01*
X53867Y24475D01*
Y24503D01*
X53896Y24531D01*
X53924D01*
X53938Y24517D01*
X53938Y24489D01*
X53896Y24446D01*
X24713Y24586D02*
X24742D01*
X24770Y24557D01*
X24770Y24529D01*
X24713Y24472D01*
X24685D01*
X24657Y24501D01*
X24657Y24529D01*
X24685Y24614D02*
X24685Y24642D01*
X24657Y24670D01*
X24629D01*
X24614Y24656D01*
Y24628D01*
X24629Y24614D01*
X24614Y24628D01*
X24586Y24628D01*
X24572Y24614D01*
Y24586D01*
X24600Y24557D01*
X24629D01*
X24530Y24628D02*
X24501Y24656D01*
X24515Y24642D01*
X24600Y24727D01*
X24600Y24699D01*
X24402Y24755D02*
X24459Y24699D01*
Y24812D01*
X24473Y24826D01*
X24501D01*
X24530Y24798D01*
X24530Y24769D01*
X24487Y22154D02*
Y22182D01*
X24515Y22210D01*
X24543Y22210D01*
X24600Y22154D01*
Y22125D01*
X24571Y22097D01*
X24543Y22097D01*
X24458Y22125D02*
X24430Y22125D01*
X24402Y22097D01*
Y22069D01*
X24416Y22055D01*
X24444D01*
X24458Y22069D01*
X24444Y22055D01*
X24444Y22026D01*
X24458Y22012D01*
X24487D01*
X24515Y22041D01*
Y22069D01*
X24444Y21970D02*
X24416Y21942D01*
X24430Y21956D01*
X24345Y22041D01*
X24373Y22041D01*
Y21899D02*
X24345Y21871D01*
X24359Y21885D01*
X24274Y21970D01*
X24303Y21970D01*
X24701Y54243D02*
Y54271D01*
X24729Y54299D01*
X24758Y54299D01*
X24814Y54243D01*
Y54215D01*
X24786Y54186D01*
X24758Y54186D01*
X24673Y54215D02*
X24644Y54215D01*
X24616Y54186D01*
Y54158D01*
X24630Y54144D01*
X24659D01*
X24673Y54158D01*
X24659Y54144D01*
X24659Y54116D01*
X24673Y54102D01*
X24701D01*
X24729Y54130D01*
Y54158D01*
X24659Y54059D02*
X24630Y54031D01*
X24644Y54045D01*
X24560Y54130D01*
X24588Y54130D01*
X24447Y54017D02*
X24503Y54073D01*
X24545Y54031D01*
X24503Y54017D01*
X24489Y54003D01*
Y53974D01*
X24517Y53946D01*
X24545D01*
X24574Y53974D01*
Y54003D01*
X22209Y54155D02*
X22237D01*
X22265Y54126D01*
X22265Y54098D01*
X22209Y54042D01*
X22181D01*
X22152Y54070D01*
X22152Y54098D01*
X22181Y54183D02*
X22181Y54211D01*
X22152Y54240D01*
X22124D01*
X22110Y54225D01*
Y54197D01*
X22124Y54183D01*
X22110Y54197D01*
X22082Y54197D01*
X22067Y54183D01*
Y54155D01*
X22096Y54126D01*
X22124D01*
X22025Y54197D02*
X21997Y54225D01*
X22011Y54211D01*
X22096Y54296D01*
X22096Y54268D01*
X21912Y54310D02*
X21997Y54395D01*
Y54310D01*
X21940Y54367D01*
X48280Y31550D02*
Y31670D01*
X48220D01*
X48200Y31650D01*
Y31610D01*
X48220Y31590D01*
X48280D01*
X48240D02*
X48200Y31550D01*
X48100D02*
Y31670D01*
X48160Y31610D01*
X48080D01*
X48040Y31650D02*
X48020Y31670D01*
X47980D01*
X47960Y31650D01*
Y31570D01*
X47980Y31550D01*
X48020D01*
X48040Y31570D01*
Y31650D01*
X47920Y31550D02*
X47880D01*
X47900D01*
Y31670D01*
X47920Y31650D01*
X49146Y31944D02*
Y32064D01*
X49086D01*
X49066Y32044D01*
Y32004D01*
X49086Y31984D01*
X49146D01*
X49106D02*
X49066Y31944D01*
X48966D02*
Y32064D01*
X49026Y32004D01*
X48946D01*
X48906Y32044D02*
X48886Y32064D01*
X48846D01*
X48826Y32044D01*
Y31964D01*
X48846Y31944D01*
X48886D01*
X48906Y31964D01*
Y32044D01*
X48706Y32064D02*
X48746Y32044D01*
X48786Y32004D01*
Y31964D01*
X48766Y31944D01*
X48726D01*
X48706Y31964D01*
Y31984D01*
X48726Y32004D01*
X48786D01*
X39539Y28164D02*
Y28284D01*
X39479D01*
X39459Y28264D01*
Y28224D01*
X39479Y28204D01*
X39539D01*
X39499D02*
X39459Y28164D01*
X39339Y28284D02*
X39419D01*
Y28224D01*
X39379Y28244D01*
X39359D01*
X39339Y28224D01*
Y28184D01*
X39359Y28164D01*
X39399D01*
X39419Y28184D01*
X39299Y28264D02*
X39279Y28284D01*
X39239D01*
X39219Y28264D01*
Y28184D01*
X39239Y28164D01*
X39279D01*
X39299Y28184D01*
Y28264D01*
X39179Y28164D02*
X39139D01*
X39159D01*
Y28284D01*
X39179Y28264D01*
X37610Y28164D02*
Y28284D01*
X37550D01*
X37530Y28264D01*
Y28224D01*
X37550Y28204D01*
X37610D01*
X37570D02*
X37530Y28164D01*
X37410Y28284D02*
X37490D01*
Y28224D01*
X37450Y28244D01*
X37430D01*
X37410Y28224D01*
Y28184D01*
X37430Y28164D01*
X37470D01*
X37490Y28184D01*
X37370Y28264D02*
X37350Y28284D01*
X37310D01*
X37290Y28264D01*
Y28184D01*
X37310Y28164D01*
X37350D01*
X37370Y28184D01*
Y28264D01*
X37170Y28164D02*
X37250D01*
X37170Y28244D01*
Y28264D01*
X37190Y28284D01*
X37230D01*
X37250Y28264D01*
X37610Y32227D02*
Y32347D01*
X37550D01*
X37530Y32327D01*
Y32287D01*
X37550Y32267D01*
X37610D01*
X37570D02*
X37530Y32227D01*
X37410Y32347D02*
X37490D01*
Y32287D01*
X37450Y32307D01*
X37430D01*
X37410Y32287D01*
Y32247D01*
X37430Y32227D01*
X37470D01*
X37490Y32247D01*
X37370Y32327D02*
X37350Y32347D01*
X37310D01*
X37290Y32327D01*
Y32247D01*
X37310Y32227D01*
X37350D01*
X37370Y32247D01*
Y32327D01*
X37250D02*
X37230Y32347D01*
X37190D01*
X37170Y32327D01*
Y32307D01*
X37190Y32287D01*
X37210D01*
X37190D01*
X37170Y32267D01*
Y32247D01*
X37190Y32227D01*
X37230D01*
X37250Y32247D01*
X35602Y32188D02*
Y32308D01*
X35542D01*
X35522Y32288D01*
Y32248D01*
X35542Y32228D01*
X35602D01*
X35562D02*
X35522Y32188D01*
X35402Y32308D02*
X35482D01*
Y32248D01*
X35442Y32268D01*
X35422D01*
X35402Y32248D01*
Y32208D01*
X35422Y32188D01*
X35462D01*
X35482Y32208D01*
X35362Y32288D02*
X35342Y32308D01*
X35302D01*
X35282Y32288D01*
Y32208D01*
X35302Y32188D01*
X35342D01*
X35362Y32208D01*
Y32288D01*
X35182Y32188D02*
Y32308D01*
X35242Y32248D01*
X35163D01*
X56742Y24353D02*
X56770D01*
X56799Y24325D01*
X56799Y24297D01*
X56742Y24240D01*
X56714D01*
X56686Y24269D01*
X56686Y24297D01*
X56714Y24382D02*
X56714Y24410D01*
X56686Y24438D01*
X56657D01*
X56643Y24424D01*
Y24396D01*
X56657Y24382D01*
X56643Y24396D01*
X56615Y24396D01*
X56601Y24382D01*
Y24353D01*
X56629Y24325D01*
X56657D01*
X56629Y24466D02*
X56629Y24495D01*
X56601Y24523D01*
X56572D01*
X56516Y24466D01*
Y24438D01*
X56544Y24410D01*
X56572D01*
X56629Y24466D01*
X56544Y24551D02*
Y24580D01*
X56516Y24608D01*
X56488D01*
X56474Y24594D01*
Y24565D01*
X56445Y24565D01*
X56431Y24551D01*
X56431Y24523D01*
X56459Y24495D01*
X56488D01*
X56502Y24509D01*
Y24537D01*
X56530Y24537D01*
X56544Y24551D01*
X56502Y24537D02*
X56474Y24565D01*
X35483Y33036D02*
X35503Y33056D01*
X35543D01*
X35563Y33036D01*
Y32956D01*
X35543Y32936D01*
X35503D01*
X35483Y32956D01*
X35443Y33036D02*
X35423Y33056D01*
X35383D01*
X35363Y33036D01*
Y33016D01*
X35383Y32996D01*
X35403D01*
X35383D01*
X35363Y32976D01*
Y32956D01*
X35383Y32936D01*
X35423D01*
X35443Y32956D01*
X35243Y32936D02*
X35323D01*
X35243Y33016D01*
Y33036D01*
X35263Y33056D01*
X35303D01*
X35323Y33036D01*
X35123Y33056D02*
X35163Y33036D01*
X35203Y32996D01*
Y32956D01*
X35183Y32936D01*
X35143D01*
X35123Y32956D01*
Y32976D01*
X35143Y32996D01*
X35203D01*
X37530Y33075D02*
X37550Y33095D01*
X37590D01*
X37610Y33075D01*
Y32995D01*
X37590Y32975D01*
X37550D01*
X37530Y32995D01*
X37490Y33075D02*
X37470Y33095D01*
X37430D01*
X37410Y33075D01*
Y33055D01*
X37430Y33035D01*
X37450D01*
X37430D01*
X37410Y33015D01*
Y32995D01*
X37430Y32975D01*
X37470D01*
X37490Y32995D01*
X37290Y32975D02*
X37370D01*
X37290Y33055D01*
Y33075D01*
X37310Y33095D01*
X37350D01*
X37370Y33075D01*
X37250Y33095D02*
X37170D01*
Y33075D01*
X37250Y32995D01*
Y32975D01*
X37530Y27556D02*
X37550Y27576D01*
X37590D01*
X37610Y27556D01*
Y27476D01*
X37590Y27456D01*
X37550D01*
X37530Y27476D01*
X37490Y27556D02*
X37470Y27576D01*
X37430D01*
X37410Y27556D01*
Y27536D01*
X37430Y27516D01*
X37450D01*
X37430D01*
X37410Y27496D01*
Y27476D01*
X37430Y27456D01*
X37470D01*
X37490Y27476D01*
X37290Y27456D02*
X37370D01*
X37290Y27536D01*
Y27556D01*
X37310Y27576D01*
X37350D01*
X37370Y27556D01*
X37250D02*
X37230Y27576D01*
X37190D01*
X37170Y27556D01*
Y27536D01*
X37190Y27516D01*
X37170Y27496D01*
Y27476D01*
X37190Y27456D01*
X37230D01*
X37250Y27476D01*
Y27496D01*
X37230Y27516D01*
X37250Y27536D01*
Y27556D01*
X37230Y27516D02*
X37190D01*
X39539Y27771D02*
Y27891D01*
X39479D01*
X39459Y27871D01*
Y27831D01*
X39479Y27811D01*
X39539D01*
X39499D02*
X39459Y27771D01*
X39419Y27871D02*
X39399Y27891D01*
X39359D01*
X39339Y27871D01*
Y27851D01*
X39359Y27831D01*
X39379D01*
X39359D01*
X39339Y27811D01*
Y27791D01*
X39359Y27771D01*
X39399D01*
X39419Y27791D01*
X39239Y27771D02*
Y27891D01*
X39299Y27831D01*
X39219D01*
X39179Y27791D02*
X39159Y27771D01*
X39120D01*
X39100Y27791D01*
Y27871D01*
X39120Y27891D01*
X39159D01*
X39179Y27871D01*
Y27851D01*
X39159Y27831D01*
X39100D01*
X37610Y27810D02*
Y27930D01*
X37550D01*
X37530Y27910D01*
Y27870D01*
X37550Y27850D01*
X37610D01*
X37570D02*
X37530Y27810D01*
X37490Y27910D02*
X37470Y27930D01*
X37430D01*
X37410Y27910D01*
Y27890D01*
X37430Y27870D01*
X37450D01*
X37430D01*
X37410Y27850D01*
Y27830D01*
X37430Y27810D01*
X37470D01*
X37490Y27830D01*
X37290Y27930D02*
X37370D01*
Y27870D01*
X37330Y27890D01*
X37310D01*
X37290Y27870D01*
Y27830D01*
X37310Y27810D01*
X37350D01*
X37370Y27830D01*
X37250Y27910D02*
X37230Y27930D01*
X37190D01*
X37170Y27910D01*
Y27830D01*
X37190Y27810D01*
X37230D01*
X37250Y27830D01*
Y27910D01*
X37610Y32621D02*
Y32741D01*
X37550D01*
X37530Y32721D01*
Y32681D01*
X37550Y32661D01*
X37610D01*
X37570D02*
X37530Y32621D01*
X37490Y32721D02*
X37470Y32741D01*
X37430D01*
X37410Y32721D01*
Y32701D01*
X37430Y32681D01*
X37450D01*
X37430D01*
X37410Y32661D01*
Y32641D01*
X37430Y32621D01*
X37470D01*
X37490Y32641D01*
X37290Y32741D02*
X37370D01*
Y32681D01*
X37330Y32701D01*
X37310D01*
X37290Y32681D01*
Y32641D01*
X37310Y32621D01*
X37350D01*
X37370Y32641D01*
X37250Y32621D02*
X37210D01*
X37230D01*
Y32741D01*
X37250Y32721D01*
X35602Y32621D02*
Y32741D01*
X35542D01*
X35522Y32721D01*
Y32681D01*
X35542Y32661D01*
X35602D01*
X35562D02*
X35522Y32621D01*
X35482Y32721D02*
X35462Y32741D01*
X35422D01*
X35402Y32721D01*
Y32701D01*
X35422Y32681D01*
X35442D01*
X35422D01*
X35402Y32661D01*
Y32641D01*
X35422Y32621D01*
X35462D01*
X35482Y32641D01*
X35282Y32741D02*
X35362D01*
Y32681D01*
X35322Y32701D01*
X35302D01*
X35282Y32681D01*
Y32641D01*
X35302Y32621D01*
X35342D01*
X35362Y32641D01*
X35163Y32621D02*
X35242D01*
X35163Y32701D01*
Y32721D01*
X35182Y32741D01*
X35222D01*
X35242Y32721D01*
X46980Y31275D02*
Y31395D01*
X46920D01*
X46900Y31375D01*
Y31335D01*
X46920Y31315D01*
X46980D01*
X46940D02*
X46900Y31275D01*
X46780Y31395D02*
X46860D01*
Y31335D01*
X46820Y31355D01*
X46800D01*
X46780Y31335D01*
Y31295D01*
X46800Y31275D01*
X46840D01*
X46860Y31295D01*
X46740Y31375D02*
X46720Y31395D01*
X46680D01*
X46660Y31375D01*
Y31295D01*
X46680Y31275D01*
X46720D01*
X46740Y31295D01*
Y31375D01*
X46620D02*
X46600Y31395D01*
X46560D01*
X46540Y31375D01*
Y31355D01*
X46560Y31335D01*
X46540Y31315D01*
Y31295D01*
X46560Y31275D01*
X46600D01*
X46620Y31295D01*
Y31315D01*
X46600Y31335D01*
X46620Y31355D01*
Y31375D01*
X46600Y31335D02*
X46560D01*
D112*
X48213Y34719D02*
Y34839D01*
X48153D01*
X48133Y34819D01*
Y34779D01*
X48153Y34759D01*
X48213D01*
X48173D02*
X48133Y34719D01*
X48033D02*
Y34839D01*
X48093Y34779D01*
X48013D01*
X47973Y34819D02*
X47953Y34839D01*
X47913D01*
X47893Y34819D01*
Y34739D01*
X47913Y34719D01*
X47953D01*
X47973Y34739D01*
Y34819D01*
X47853D02*
X47833Y34839D01*
X47793D01*
X47773Y34819D01*
Y34799D01*
X47793Y34779D01*
X47813D01*
X47793D01*
X47773Y34759D01*
Y34739D01*
X47793Y34719D01*
X47833D01*
X47853Y34739D01*
X49382Y34109D02*
Y34229D01*
X49322D01*
X49302Y34209D01*
Y34169D01*
X49322Y34149D01*
X49382D01*
X49342D02*
X49302Y34109D01*
X49202D02*
Y34229D01*
X49262Y34169D01*
X49182D01*
X49142Y34209D02*
X49122Y34229D01*
X49082D01*
X49062Y34209D01*
Y34129D01*
X49082Y34109D01*
X49122D01*
X49142Y34129D01*
Y34209D01*
X48962Y34109D02*
Y34229D01*
X49022Y34169D01*
X48942D01*
X47374Y34385D02*
Y34505D01*
X47314D01*
X47294Y34485D01*
Y34445D01*
X47314Y34425D01*
X47374D01*
X47334D02*
X47294Y34385D01*
X47194D02*
Y34505D01*
X47254Y34445D01*
X47174D01*
X47134Y34485D02*
X47114Y34505D01*
X47074D01*
X47054Y34485D01*
Y34405D01*
X47074Y34385D01*
X47114D01*
X47134Y34405D01*
Y34485D01*
X46934Y34505D02*
X47014D01*
Y34445D01*
X46974Y34465D01*
X46954D01*
X46934Y34445D01*
Y34405D01*
X46954Y34385D01*
X46994D01*
X47014Y34405D01*
M02*
