G04*
G04 #@! TF.GenerationSoftware,Altium Limited,Altium Designer,25.0.2 (28)*
G04*
G04 Layer_Color=255*
%FSLAX24Y24*%
%MOIN*%
G70*
G04*
G04 #@! TF.SameCoordinates,4B7BC283-7035-4C9F-97D5-5998C8FB6373*
G04*
G04*
G04 #@! TF.FilePolarity,Positive*
G04*
G01*
G75*
%ADD14R,0.0236X0.0217*%
G04:AMPARAMS|DCode=20|XSize=19.7mil|YSize=23.6mil|CornerRadius=0mil|HoleSize=0mil|Usage=FLASHONLY|Rotation=135.000|XOffset=0mil|YOffset=0mil|HoleType=Round|Shape=Rectangle|*
%AMROTATEDRECTD20*
4,1,4,0.0153,0.0014,-0.0014,-0.0153,-0.0153,-0.0014,0.0014,0.0153,0.0153,0.0014,0.0*
%
%ADD20ROTATEDRECTD20*%

G04:AMPARAMS|DCode=22|XSize=19.7mil|YSize=23.6mil|CornerRadius=0mil|HoleSize=0mil|Usage=FLASHONLY|Rotation=45.000|XOffset=0mil|YOffset=0mil|HoleType=Round|Shape=Rectangle|*
%AMROTATEDRECTD22*
4,1,4,0.0014,-0.0153,-0.0153,0.0014,-0.0014,0.0153,0.0153,-0.0014,0.0014,-0.0153,0.0*
%
%ADD22ROTATEDRECTD22*%

%ADD70C,0.0630*%
%ADD71R,0.0600X0.0630*%
%ADD72C,0.0748*%
%ADD73C,0.0827*%
%ADD74C,0.0157*%
%ADD75C,0.1260*%
%ADD80R,0.0236X0.0197*%
G04:AMPARAMS|DCode=81|XSize=11.8mil|YSize=21.7mil|CornerRadius=3mil|HoleSize=0mil|Usage=FLASHONLY|Rotation=270.000|XOffset=0mil|YOffset=0mil|HoleType=Round|Shape=RoundedRectangle|*
%AMROUNDEDRECTD81*
21,1,0.0118,0.0157,0,0,270.0*
21,1,0.0059,0.0217,0,0,270.0*
1,1,0.0059,-0.0079,-0.0030*
1,1,0.0059,-0.0079,0.0030*
1,1,0.0059,0.0079,0.0030*
1,1,0.0059,0.0079,-0.0030*
%
%ADD81ROUNDEDRECTD81*%
G04:AMPARAMS|DCode=82|XSize=63mil|YSize=33.5mil|CornerRadius=8.4mil|HoleSize=0mil|Usage=FLASHONLY|Rotation=270.000|XOffset=0mil|YOffset=0mil|HoleType=Round|Shape=RoundedRectangle|*
%AMROUNDEDRECTD82*
21,1,0.0630,0.0167,0,0,270.0*
21,1,0.0463,0.0335,0,0,270.0*
1,1,0.0167,-0.0084,-0.0231*
1,1,0.0167,-0.0084,0.0231*
1,1,0.0167,0.0084,0.0231*
1,1,0.0167,0.0084,-0.0231*
%
%ADD82ROUNDEDRECTD82*%
%ADD83R,0.0295X0.0315*%
G04:AMPARAMS|DCode=84|XSize=31.5mil|YSize=29.5mil|CornerRadius=0mil|HoleSize=0mil|Usage=FLASHONLY|Rotation=225.000|XOffset=0mil|YOffset=0mil|HoleType=Round|Shape=Rectangle|*
%AMROTATEDRECTD84*
4,1,4,0.0007,0.0216,0.0216,0.0007,-0.0007,-0.0216,-0.0216,-0.0007,0.0007,0.0216,0.0*
%
%ADD84ROTATEDRECTD84*%

G04:AMPARAMS|DCode=85|XSize=31.5mil|YSize=29.5mil|CornerRadius=0mil|HoleSize=0mil|Usage=FLASHONLY|Rotation=135.000|XOffset=0mil|YOffset=0mil|HoleType=Round|Shape=Rectangle|*
%AMROTATEDRECTD85*
4,1,4,0.0216,-0.0007,0.0007,-0.0216,-0.0216,0.0007,-0.0007,0.0216,0.0216,-0.0007,0.0*
%
%ADD85ROTATEDRECTD85*%

%ADD86R,0.0315X0.0295*%
D14*
X36114Y31912D02*
D03*
X35720D02*
D03*
X36626Y31912D02*
D03*
X37020D02*
D03*
X38122Y28558D02*
D03*
X37728D02*
D03*
X38634D02*
D03*
X39028D02*
D03*
X47768Y34542D02*
D03*
X48161D02*
D03*
X48713Y34188D02*
D03*
X48319D02*
D03*
X47728Y31629D02*
D03*
X47335D02*
D03*
X47374Y34188D02*
D03*
X47768D02*
D03*
X48555Y32023D02*
D03*
X48161D02*
D03*
X39028Y28204D02*
D03*
X38634D02*
D03*
X37728D02*
D03*
X38122D02*
D03*
X37020Y32267D02*
D03*
X36626D02*
D03*
X35720Y32267D02*
D03*
X36114D02*
D03*
X39028Y27849D02*
D03*
X38634D02*
D03*
X37728D02*
D03*
X38122D02*
D03*
X37020Y32661D02*
D03*
X36626D02*
D03*
X35720D02*
D03*
X36114D02*
D03*
X47098Y31196D02*
D03*
X47492D02*
D03*
D20*
X23849Y53891D02*
D03*
X24127Y54170D02*
D03*
X24679Y22831D02*
D03*
X24400Y22553D02*
D03*
X54878Y24860D02*
D03*
X54600Y24581D02*
D03*
X54006Y55860D02*
D03*
X54285Y56138D02*
D03*
X54009Y56414D02*
D03*
X53731Y56135D02*
D03*
X54321Y24876D02*
D03*
X54600Y25154D02*
D03*
X24676Y22277D02*
D03*
X24954Y22556D02*
D03*
X24403Y53894D02*
D03*
X24125Y53616D02*
D03*
D22*
X22868Y54009D02*
D03*
X22589Y54288D02*
D03*
X24836Y23852D02*
D03*
X24558Y24130D02*
D03*
X55817Y24682D02*
D03*
X56096Y24403D02*
D03*
X53849Y54839D02*
D03*
X54127Y54561D02*
D03*
X53852Y54285D02*
D03*
X53573Y54563D02*
D03*
X24833Y24401D02*
D03*
X25112Y24122D02*
D03*
X22314Y53973D02*
D03*
X22592Y53695D02*
D03*
X56371Y24679D02*
D03*
X56093Y24957D02*
D03*
D70*
X40953Y30169D02*
D03*
X38984D02*
D03*
X38000D02*
D03*
X37016D02*
D03*
X39969D02*
D03*
D71*
X36031D02*
D03*
D72*
X39260Y55886D02*
D03*
D73*
X40260Y56886D02*
D03*
X38260D02*
D03*
Y54886D02*
D03*
X40260D02*
D03*
D74*
X2740Y2740D02*
D03*
X75968D02*
D03*
Y75969D02*
D03*
X2740D02*
D03*
D75*
X24087Y29795D02*
D03*
X24228Y49657D02*
D03*
X53354Y29868D02*
D03*
X53008Y49547D02*
D03*
D80*
X40209Y40763D02*
D03*
X39815D02*
D03*
X41035Y40330D02*
D03*
X40642D02*
D03*
X38634Y27495D02*
D03*
X39028D02*
D03*
X40642Y40684D02*
D03*
X41035D02*
D03*
X39815Y41117D02*
D03*
X40209D02*
D03*
X36114Y33015D02*
D03*
X35720D02*
D03*
X36626D02*
D03*
X37020D02*
D03*
X38122Y27495D02*
D03*
X37728D02*
D03*
D81*
X47844Y32566D02*
D03*
Y32763D02*
D03*
Y32960D02*
D03*
Y33157D02*
D03*
X48549Y32566D02*
D03*
Y32763D02*
D03*
Y32960D02*
D03*
Y33157D02*
D03*
D82*
X48197Y32861D02*
D03*
D83*
X47856Y31196D02*
D03*
X48388D02*
D03*
X41183Y41117D02*
D03*
X40652D02*
D03*
X47226Y32062D02*
D03*
X47758D02*
D03*
X48337Y33755D02*
D03*
X47805D02*
D03*
D84*
X53052Y56817D02*
D03*
X53428Y56441D02*
D03*
X25139Y22171D02*
D03*
X25515Y21795D02*
D03*
D85*
X56596Y25024D02*
D03*
X56971Y25400D02*
D03*
X22168Y53556D02*
D03*
X21792Y53180D02*
D03*
D86*
X49165Y32918D02*
D03*
Y32387D02*
D03*
X47217Y32466D02*
D03*
Y32997D02*
D03*
M02*
