G04*
G04 #@! TF.GenerationSoftware,Altium Limited,Altium Designer,25.0.2 (28)*
G04*
G04 Layer_Color=32768*
%FSLAX24Y24*%
%MOIN*%
G70*
G04*
G04 #@! TF.SameCoordinates,4B7BC283-7035-4C9F-97D5-5998C8FB6373*
G04*
G04*
G04 #@! TF.FilePolarity,Positive*
G04*
G01*
G75*
%ADD11C,0.0039*%
%ADD100C,0.0020*%
%ADD110C,0.0030*%
%ADD111C,0.0020*%
%ADD112C,0.0030*%
D11*
X36193Y33094D02*
G03*
X36193Y33094I-276J0D01*
G01*
X36114D02*
G03*
X36114Y33094I-197J0D01*
G01*
X24260Y55379D02*
G03*
X24260Y55379I-39J0D01*
G01*
X38764Y39853D02*
G03*
X38764Y39853I-39J0D01*
G01*
X55418Y54488D02*
G03*
X55418Y54488I-39J0D01*
G01*
X54527Y23330D02*
G03*
X54527Y23330I-39J0D01*
G01*
X23369Y24221D02*
G03*
X23369Y24221I-39J0D01*
G01*
X49472Y66047D02*
G03*
X49472Y66047I-276J0D01*
G01*
X49394D02*
G03*
X49394Y66047I-197J0D01*
G01*
X69157D02*
G03*
X69157Y66047I-276J0D01*
G01*
X69079D02*
G03*
X69079Y66047I-197J0D01*
G01*
X69157Y46362D02*
G03*
X69157Y46362I-276J0D01*
G01*
X69079D02*
G03*
X69079Y46362I-197J0D01*
G01*
X69157Y26677D02*
G03*
X69157Y26677I-276J0D01*
G01*
X69079D02*
G03*
X69079Y26677I-197J0D01*
G01*
X69157Y6992D02*
G03*
X69157Y6992I-276J0D01*
G01*
X69079D02*
G03*
X69079Y6992I-197J0D01*
G01*
X49472Y6992D02*
G03*
X49472Y6992I-276J0D01*
G01*
X49394D02*
G03*
X49394Y6992I-197J0D01*
G01*
X29787Y6992D02*
G03*
X29787Y6992I-276J0D01*
G01*
X29709D02*
G03*
X29709Y6992I-197J0D01*
G01*
X10102D02*
G03*
X10102Y6992I-276J0D01*
G01*
X10024D02*
G03*
X10024Y6992I-197J0D01*
G01*
X10102Y26677D02*
G03*
X10102Y26677I-276J0D01*
G01*
X10024D02*
G03*
X10024Y26677I-197J0D01*
G01*
X10102Y46362D02*
G03*
X10102Y46362I-276J0D01*
G01*
X10024D02*
G03*
X10024Y46362I-197J0D01*
G01*
X10102Y66047D02*
G03*
X10102Y66047I-276J0D01*
G01*
X10024D02*
G03*
X10024Y66047I-197J0D01*
G01*
X29787Y66047D02*
G03*
X29787Y66047I-276J0D01*
G01*
X29709D02*
G03*
X29709Y66047I-197J0D01*
G01*
X39106Y27574D02*
G03*
X39106Y27574I-276J0D01*
G01*
X39028D02*
G03*
X39028Y27574I-197J0D01*
G01*
X38122D02*
G03*
X38122Y27574I-197J0D01*
G01*
X38201D02*
G03*
X38201Y27574I-276J0D01*
G01*
X37098Y33094D02*
G03*
X37098Y33094I-276J0D01*
G01*
X37020D02*
G03*
X37020Y33094I-197J0D01*
G01*
X40524Y26983D02*
G03*
X40524Y26983I-276J0D01*
G01*
X40445D02*
G03*
X40445Y26983I-197J0D01*
G01*
X47689Y33401D02*
G03*
X47689Y33401I-197J0D01*
G01*
X47768D02*
G03*
X47768Y33401I-276J0D01*
G01*
X46130Y27968D02*
G03*
X46130Y27968I-276J0D01*
G01*
X46051D02*
G03*
X46051Y27968I-197J0D01*
G01*
X42138Y27968D02*
G03*
X42138Y27968I-276J0D01*
G01*
X42059D02*
G03*
X42059Y27968I-197J0D01*
G01*
X38860Y40536D02*
Y40753D01*
X39274Y40536D02*
Y40753D01*
X38860D02*
X39274D01*
X38860Y40536D02*
X39274D01*
X38860Y41639D02*
Y41855D01*
X39274Y41639D02*
Y41855D01*
X38860D02*
X39274D01*
X38860Y41639D02*
X39274D01*
X24648Y54765D02*
X24801Y54612D01*
X24356Y54473D02*
X24509Y54320D01*
X24801Y54612D01*
X24356Y54473D02*
X24648Y54765D01*
X38093Y38666D02*
X38309D01*
X38093Y39080D02*
X38309D01*
X38093Y38666D02*
Y39080D01*
X38309Y38666D02*
Y39080D01*
X23962Y24651D02*
X24115Y24804D01*
X24255Y24359D02*
X24408Y24512D01*
X24115Y24804D02*
X24408Y24512D01*
X23962Y24651D02*
X24255Y24359D01*
X38624Y38096D02*
Y38312D01*
X39037Y38096D02*
Y38312D01*
X38624D02*
X39037D01*
X38624Y38096D02*
X39037D01*
X53884Y24118D02*
X54037Y23965D01*
X54176Y24411D02*
X54329Y24258D01*
X53884Y24118D02*
X54176Y24411D01*
X54037Y23965D02*
X54329Y24258D01*
X40061Y38096D02*
Y38312D01*
X39648Y38096D02*
Y38312D01*
Y38096D02*
X40061D01*
X39648Y38312D02*
X40061D01*
X54609Y53887D02*
X54762Y54040D01*
X54317Y54179D02*
X54470Y54332D01*
X54317Y54179D02*
X54609Y53887D01*
X54470Y54332D02*
X54762Y54040D01*
X40376Y38666D02*
X40593D01*
X40376Y39080D02*
X40593D01*
X40376Y38666D02*
Y39080D01*
X40593Y38666D02*
Y39080D01*
X22943Y56471D02*
X23096Y56318D01*
X23235Y56763D02*
X23388Y56610D01*
X22943Y56471D02*
X23235Y56763D01*
X23096Y56318D02*
X23388Y56610D01*
X22237Y22943D02*
X22391Y23096D01*
X21945Y23235D02*
X22098Y23388D01*
X21945Y23235D02*
X22237Y22943D01*
X22098Y23388D02*
X22391Y23096D01*
X55613Y22391D02*
X55766Y22237D01*
X55320Y22098D02*
X55474Y21945D01*
X55766Y22237D01*
X55320Y22098D02*
X55613Y22391D01*
X56318Y55613D02*
X56471Y55766D01*
X56610Y55320D02*
X56763Y55474D01*
X56471Y55766D02*
X56763Y55474D01*
X56318Y55613D02*
X56610Y55320D01*
X24157Y55889D02*
X24310Y56042D01*
X23865Y56181D02*
X24018Y56334D01*
X23865Y56181D02*
X24157Y55889D01*
X24018Y56334D02*
X24310Y56042D01*
X22043Y55567D02*
X22196Y55413D01*
X22335Y55859D02*
X22489Y55706D01*
X22043Y55567D02*
X22335Y55859D01*
X22196Y55413D02*
X22489Y55706D01*
X22040Y54976D02*
X22193Y55129D01*
X22333Y54683D02*
X22486Y54836D01*
X22193Y55129D02*
X22486Y54836D01*
X22040Y54976D02*
X22333Y54683D01*
X22667Y24310D02*
X22820Y24157D01*
X22374Y24018D02*
X22528Y23865D01*
X22820Y24157D01*
X22374Y24018D02*
X22667Y24310D01*
X23142Y22043D02*
X23295Y22196D01*
X22850Y22335D02*
X23003Y22489D01*
X22850Y22335D02*
X23142Y22043D01*
X23003Y22489D02*
X23295Y22196D01*
X23580Y22193D02*
X23733Y22040D01*
X23872Y22486D02*
X24025Y22333D01*
X23580Y22193D02*
X23872Y22486D01*
X23733Y22040D02*
X24025Y22333D01*
X54398Y22667D02*
X54551Y22820D01*
X54691Y22374D02*
X54844Y22528D01*
X54551Y22820D02*
X54844Y22528D01*
X54398Y22667D02*
X54691Y22374D01*
X56512Y23295D02*
X56666Y23142D01*
X56220Y23003D02*
X56373Y22850D01*
X56666Y23142D01*
X56220Y23003D02*
X56512Y23295D01*
X56515Y23580D02*
X56668Y23733D01*
X56223Y23872D02*
X56376Y24025D01*
X56223Y23872D02*
X56515Y23580D01*
X56376Y24025D02*
X56668Y23733D01*
X55889Y54551D02*
X56042Y54398D01*
X56181Y54844D02*
X56334Y54691D01*
X55889Y54551D02*
X56181Y54844D01*
X56042Y54398D02*
X56334Y54691D01*
X55413Y56512D02*
X55567Y56666D01*
X55706Y56220D02*
X55859Y56373D01*
X55567Y56666D02*
X55859Y56373D01*
X55413Y56512D02*
X55706Y56220D01*
X54976Y56668D02*
X55129Y56515D01*
X54683Y56376D02*
X54836Y56223D01*
X55129Y56515D01*
X54683Y56376D02*
X54976Y56668D01*
X38860Y52741D02*
Y52958D01*
X39274Y52741D02*
Y52958D01*
X38860D02*
X39274D01*
X38860Y52741D02*
X39274D01*
X38860Y54296D02*
X39274D01*
X38860Y54080D02*
X39274D01*
X38860D02*
Y54296D01*
X39274Y54080D02*
Y54296D01*
X26444Y58774D02*
X26736Y58482D01*
X26597Y58927D02*
X26889Y58635D01*
X26736Y58482D02*
X26889Y58635D01*
X26444Y58774D02*
X26597Y58927D01*
X19893Y58288D02*
X20185Y58580D01*
X19739Y58441D02*
X20032Y58733D01*
X20185Y58580D01*
X19739Y58441D02*
X19893Y58288D01*
X19737Y52101D02*
X20029Y51809D01*
X19890Y52254D02*
X20182Y51962D01*
X20029Y51809D02*
X20182Y51962D01*
X19737Y52101D02*
X19890Y52254D01*
X19935Y26444D02*
X20227Y26736D01*
X19781Y26597D02*
X20074Y26889D01*
X20227Y26736D01*
X19781Y26597D02*
X19935Y26444D01*
X20129Y20185D02*
X20421Y19893D01*
X19975Y20032D02*
X20268Y19739D01*
X19975Y20032D02*
X20129Y20185D01*
X20268Y19739D02*
X20421Y19893D01*
X26607Y19737D02*
X26900Y20029D01*
X26454Y19890D02*
X26747Y20182D01*
X26900Y20029D01*
X26454Y19890D02*
X26607Y19737D01*
X51972Y20227D02*
X52265Y19935D01*
X51819Y20074D02*
X52111Y19781D01*
X51819Y20074D02*
X51972Y20227D01*
X52111Y19781D02*
X52265Y19935D01*
X58524Y20129D02*
X58816Y20421D01*
X58677Y19975D02*
X58969Y20268D01*
X58524Y20129D02*
X58677Y19975D01*
X58816Y20421D02*
X58969Y20268D01*
X58680Y26900D02*
X58972Y26607D01*
X58527Y26747D02*
X58819Y26454D01*
X58527Y26747D02*
X58680Y26900D01*
X58819Y26454D02*
X58972Y26607D01*
X58482Y51972D02*
X58774Y52265D01*
X58635Y51819D02*
X58927Y52111D01*
X58482Y51972D02*
X58635Y51819D01*
X58774Y52265D02*
X58927Y52111D01*
X58288Y58816D02*
X58580Y58524D01*
X58441Y58969D02*
X58733Y58677D01*
X58580Y58524D02*
X58733Y58677D01*
X58288Y58816D02*
X58441Y58969D01*
X51802Y58673D02*
X52094Y58965D01*
X51955Y58520D02*
X52247Y58812D01*
X51802Y58673D02*
X51955Y58520D01*
X52094Y58965D02*
X52247Y58812D01*
X53960Y57100D02*
X54252Y57392D01*
X54113Y56947D02*
X54405Y57239D01*
X53960Y57100D02*
X54113Y56947D01*
X54252Y57392D02*
X54405Y57239D01*
X57786Y58452D02*
X57939Y58299D01*
X58078Y58744D02*
X58231Y58591D01*
X57786Y58452D02*
X58078Y58744D01*
X57939Y58299D02*
X58231Y58591D01*
X56137Y57236D02*
X56430Y56944D01*
X56290Y57389D02*
X56583Y57097D01*
X56430Y56944D02*
X56583Y57097D01*
X56137Y57236D02*
X56290Y57389D01*
X56763Y53677D02*
X57055Y53970D01*
X56610Y53831D02*
X56902Y54123D01*
X57055Y53970D01*
X56610Y53831D02*
X56763Y53677D01*
X58229Y52636D02*
X58382Y52789D01*
X58521Y52343D02*
X58674Y52496D01*
X58382Y52789D02*
X58674Y52496D01*
X58229Y52636D02*
X58521Y52343D01*
X58289Y26093D02*
X58442Y25940D01*
X58581Y26385D02*
X58735Y26232D01*
X58289Y26093D02*
X58581Y26385D01*
X58442Y25940D02*
X58735Y26232D01*
X57100Y24749D02*
X57392Y24457D01*
X56947Y24596D02*
X57239Y24304D01*
X56947Y24596D02*
X57100Y24749D01*
X57239Y24304D02*
X57392Y24457D01*
X56944Y22279D02*
X57236Y22571D01*
X57097Y22126D02*
X57389Y22418D01*
X56944Y22279D02*
X57097Y22126D01*
X57236Y22571D02*
X57389Y22418D01*
X58299Y20770D02*
X58452Y20923D01*
X58591Y20478D02*
X58744Y20631D01*
X58452Y20923D02*
X58744Y20631D01*
X58299Y20770D02*
X58591Y20478D01*
X53677Y21946D02*
X53970Y21654D01*
X53831Y22099D02*
X54123Y21807D01*
X53970Y21654D02*
X54123Y21807D01*
X53677Y21946D02*
X53831Y22099D01*
X52636Y20480D02*
X52789Y20327D01*
X52343Y20187D02*
X52496Y20034D01*
X52789Y20327D01*
X52343Y20187D02*
X52636Y20480D01*
X24457Y21316D02*
X24749Y21609D01*
X24304Y21470D02*
X24596Y21762D01*
X24749Y21609D01*
X24304Y21470D02*
X24457Y21316D01*
X25940Y20266D02*
X26093Y20419D01*
X26232Y19974D02*
X26385Y20127D01*
X26093Y20419D02*
X26385Y20127D01*
X25940Y20266D02*
X26232Y19974D01*
X20770Y20410D02*
X20923Y20257D01*
X20478Y20117D02*
X20631Y19964D01*
X20923Y20257D01*
X20478Y20117D02*
X20770Y20410D01*
X22279Y21765D02*
X22571Y21472D01*
X22126Y21612D02*
X22418Y21319D01*
X22126Y21612D02*
X22279Y21765D01*
X22418Y21319D02*
X22571Y21472D01*
X21654Y24739D02*
X21946Y25031D01*
X21807Y24586D02*
X22099Y24878D01*
X21654Y24739D02*
X21807Y24586D01*
X21946Y25031D02*
X22099Y24878D01*
X20327Y25920D02*
X20480Y26073D01*
X20034Y26212D02*
X20187Y26365D01*
X20034Y26212D02*
X20327Y25920D01*
X20187Y26365D02*
X20480Y26073D01*
X20266Y52769D02*
X20419Y52616D01*
X19974Y52476D02*
X20127Y52323D01*
X20419Y52616D01*
X19974Y52476D02*
X20266Y52769D01*
X21316Y54252D02*
X21609Y53960D01*
X21470Y54405D02*
X21762Y54113D01*
X21609Y53960D02*
X21762Y54113D01*
X21316Y54252D02*
X21470Y54405D01*
X20257Y57786D02*
X20410Y57939D01*
X19964Y58078D02*
X20117Y58231D01*
X19964Y58078D02*
X20257Y57786D01*
X20117Y58231D02*
X20410Y57939D01*
X21472Y56137D02*
X21765Y56430D01*
X21319Y56290D02*
X21612Y56583D01*
X21765Y56430D01*
X21319Y56290D02*
X21472Y56137D01*
X24739Y57055D02*
X25031Y56763D01*
X24586Y56902D02*
X24878Y56610D01*
X24586Y56902D02*
X24739Y57055D01*
X24878Y56610D02*
X25031Y56763D01*
X25920Y58382D02*
X26073Y58229D01*
X26212Y58674D02*
X26365Y58521D01*
X25920Y58382D02*
X26212Y58674D01*
X26073Y58229D02*
X26365Y58521D01*
X52609Y58299D02*
X52762Y58452D01*
X52317Y58591D02*
X52470Y58744D01*
X52317Y58591D02*
X52609Y58299D01*
X52470Y58744D02*
X52762Y58452D01*
X39020Y26302D02*
X39808D01*
Y26647D01*
X39020D02*
X39808D01*
X39020Y26302D02*
Y26647D01*
X39138Y26302D02*
Y26647D01*
X39178Y26302D02*
Y26647D01*
X39689Y26302D02*
Y26647D01*
X39650Y26302D02*
Y26647D01*
X54475Y56446D02*
X54628Y56599D01*
X54182Y56738D02*
X54335Y56891D01*
X54182Y56738D02*
X54475Y56446D01*
X54335Y56891D02*
X54628Y56599D01*
X55915Y56596D02*
X56068Y56443D01*
X56207Y56888D02*
X56360Y56735D01*
X55915Y56596D02*
X56207Y56888D01*
X56068Y56443D02*
X56360Y56735D01*
X56387Y54471D02*
X56540Y54624D01*
X56679Y54179D02*
X56832Y54332D01*
X56540Y54624D02*
X56832Y54332D01*
X56387Y54471D02*
X56679Y54179D01*
X54471Y22322D02*
X54624Y22169D01*
X54179Y22029D02*
X54332Y21876D01*
X54624Y22169D01*
X54179Y22029D02*
X54471Y22322D01*
X56443Y22641D02*
X56596Y22794D01*
X56735Y22349D02*
X56888Y22502D01*
X56596Y22794D02*
X56888Y22502D01*
X56443Y22641D02*
X56735Y22349D01*
X56446Y24234D02*
X56599Y24081D01*
X56738Y24526D02*
X56891Y24373D01*
X56446Y24234D02*
X56738Y24526D01*
X56599Y24081D02*
X56891Y24373D01*
X22029Y24530D02*
X22322Y24238D01*
X21876Y24377D02*
X22169Y24085D01*
X21876Y24377D02*
X22029Y24530D01*
X22169Y24085D02*
X22322Y24238D01*
X22349Y21973D02*
X22641Y22266D01*
X22502Y21820D02*
X22794Y22113D01*
X22349Y21973D02*
X22502Y21820D01*
X22641Y22266D02*
X22794Y22113D01*
X24081Y22110D02*
X24373Y21818D01*
X24234Y22263D02*
X24526Y21971D01*
X24373Y21818D02*
X24526Y21971D01*
X24081Y22110D02*
X24234Y22263D01*
X24085Y56540D02*
X24238Y56387D01*
X24377Y56832D02*
X24530Y56679D01*
X24085Y56540D02*
X24377Y56832D01*
X24238Y56387D02*
X24530Y56679D01*
X22113Y55915D02*
X22266Y56068D01*
X21820Y56207D02*
X21973Y56360D01*
X21820Y56207D02*
X22113Y55915D01*
X21973Y56360D02*
X22266Y56068D01*
X22110Y54628D02*
X22263Y54475D01*
X21818Y54335D02*
X21971Y54182D01*
X22263Y54475D01*
X21818Y54335D02*
X22110Y54628D01*
X40231Y26357D02*
X40644D01*
X40231Y26574D02*
X40644D01*
Y26357D02*
Y26574D01*
X40231Y26357D02*
Y26574D01*
X53958Y53650D02*
X54250Y53943D01*
X53805Y53804D02*
X54097Y54096D01*
X54250Y53943D01*
X53805Y53804D02*
X53958Y53650D01*
X53608Y24809D02*
X53900Y24517D01*
X53761Y24962D02*
X54053Y24670D01*
X53900Y24517D02*
X54053Y24670D01*
X53608Y24809D02*
X53761Y24962D01*
X24806Y25080D02*
X24959Y24927D01*
X24514Y24788D02*
X24667Y24635D01*
X24959Y24927D01*
X24514Y24788D02*
X24806Y25080D01*
X24924Y53769D02*
X25077Y53922D01*
X24632Y54061D02*
X24785Y54214D01*
X24632Y54061D02*
X24924Y53769D01*
X24785Y54214D02*
X25077Y53922D01*
X39372Y53312D02*
Y53725D01*
X39156Y53312D02*
Y53725D01*
X39372D01*
X39156Y53312D02*
X39372D01*
X39156Y40989D02*
Y41403D01*
X39372Y40989D02*
Y41403D01*
X39156Y40989D02*
X39372D01*
X39156Y41403D02*
X39372D01*
X23122Y55095D02*
X23238Y54979D01*
X23284D01*
X23331Y55026D01*
Y55072D01*
X23215Y55188D01*
X23284Y55211D02*
X23284Y55258D01*
X23331Y55304D01*
X23377D01*
X23400Y55281D01*
Y55234D01*
X23377Y55211D01*
X23400Y55234D01*
X23447D01*
X23470Y55211D01*
Y55165D01*
X23423Y55119D01*
X23377D01*
X23423Y55350D02*
Y55397D01*
X23470Y55443D01*
X23516D01*
X23609Y55350D01*
Y55304D01*
X23563Y55258D01*
X23516D01*
X23423Y55350D01*
X23632Y55606D02*
X23539Y55513D01*
X23609Y55443D01*
X23632Y55513D01*
X23655Y55536D01*
X23702D01*
X23748Y55490D01*
Y55443D01*
X23702Y55397D01*
X23655D01*
X39090Y39458D02*
Y39294D01*
X39123Y39261D01*
X39188D01*
X39221Y39294D01*
Y39458D01*
X39287Y39425D02*
X39320Y39458D01*
X39385D01*
X39418Y39425D01*
Y39392D01*
X39385Y39360D01*
X39352D01*
X39385D01*
X39418Y39327D01*
Y39294D01*
X39385Y39261D01*
X39320D01*
X39287Y39294D01*
X39484Y39425D02*
X39516Y39458D01*
X39582D01*
X39615Y39425D01*
Y39294D01*
X39582Y39261D01*
X39516D01*
X39484Y39294D01*
Y39425D01*
X39680Y39261D02*
X39746D01*
X39713D01*
Y39458D01*
X39680Y39425D01*
X54985Y55053D02*
X55101Y54937D01*
X55147D01*
X55193Y54983D01*
Y55030D01*
X55077Y55146D01*
X55147Y55169D02*
X55147Y55215D01*
X55193Y55262D01*
X55240D01*
X55263Y55239D01*
Y55192D01*
X55240Y55169D01*
X55263Y55192D01*
X55309D01*
X55332Y55169D01*
Y55123D01*
X55286Y55076D01*
X55240D01*
X55286Y55308D02*
Y55355D01*
X55332Y55401D01*
X55379D01*
X55472Y55308D01*
Y55262D01*
X55425Y55215D01*
X55379D01*
X55286Y55308D01*
X55634Y55424D02*
X55541Y55331D01*
Y55517D01*
X55518Y55540D01*
X55472Y55540D01*
X55425Y55494D01*
X55425Y55447D01*
X54986Y23241D02*
X55102Y23125D01*
X55148D01*
X55195Y23172D01*
Y23218D01*
X55079Y23334D01*
X55148Y23357D02*
X55148Y23404D01*
X55195Y23450D01*
X55241D01*
X55264Y23427D01*
Y23381D01*
X55241Y23357D01*
X55264Y23381D01*
X55311D01*
X55334Y23357D01*
Y23311D01*
X55288Y23265D01*
X55241D01*
X55288Y23496D02*
Y23543D01*
X55334Y23589D01*
X55380D01*
X55473Y23496D01*
Y23450D01*
X55427Y23404D01*
X55380D01*
X55288Y23496D01*
X55427Y23636D02*
X55427Y23682D01*
X55473Y23728D01*
X55519Y23728D01*
X55543Y23705D01*
Y23659D01*
X55519Y23636D01*
X55543Y23659D01*
X55589D01*
X55612Y23636D01*
Y23589D01*
X55566Y23543D01*
X55519D01*
X23031Y23122D02*
X23147Y23006D01*
X23193D01*
X23240Y23053D01*
Y23099D01*
X23124Y23215D01*
X23193Y23238D02*
X23193Y23284D01*
X23240Y23331D01*
X23286D01*
X23309Y23308D01*
Y23261D01*
X23286Y23238D01*
X23309Y23261D01*
X23356D01*
X23379Y23238D01*
Y23192D01*
X23332Y23145D01*
X23286D01*
X23332Y23377D02*
Y23424D01*
X23379Y23470D01*
X23425D01*
X23518Y23377D01*
Y23331D01*
X23472Y23284D01*
X23425D01*
X23332Y23377D01*
X23657Y23470D02*
X23518Y23609D01*
Y23470D01*
X23611Y23563D01*
D100*
X23428Y56395D02*
X24541Y55281D01*
X22314D02*
X23428Y54168D01*
X24541Y55281D01*
X22314D02*
X23428Y56395D01*
X38567Y38574D02*
Y40149D01*
X40142Y38574D02*
Y40149D01*
X38567D02*
X40142D01*
X38567Y38574D02*
X40142D01*
X55281Y54168D02*
X56395Y55281D01*
X54168D02*
X55281Y56395D01*
X54168Y55281D02*
X55281Y54168D01*
Y56395D02*
X56395Y55281D01*
X54168Y23428D02*
X55281Y22314D01*
Y24541D02*
X56395Y23428D01*
X54168D02*
X55281Y24541D01*
Y22314D02*
X56395Y23428D01*
X22314Y23428D02*
X23428Y22314D01*
Y24541D02*
X24541Y23428D01*
X23428Y22314D02*
X24541Y23428D01*
X22314D02*
X23428Y24541D01*
D110*
X35524Y32692D02*
X35624D01*
X35574D01*
Y32542D01*
X35674D02*
Y32692D01*
X35749D01*
X35774Y32667D01*
Y32617D01*
X35749Y32592D01*
X35674D01*
X35824Y32667D02*
X35849Y32692D01*
X35898D01*
X35923Y32667D01*
Y32642D01*
X35898Y32617D01*
X35874D01*
X35898D01*
X35923Y32592D01*
Y32567D01*
X35898Y32542D01*
X35849D01*
X35824Y32567D01*
X35973Y32667D02*
X35998Y32692D01*
X36048D01*
X36073Y32667D01*
Y32567D01*
X36048Y32542D01*
X35998D01*
X35973Y32567D01*
Y32667D01*
X36198Y32542D02*
Y32692D01*
X36123Y32617D01*
X36223D01*
X38489Y27166D02*
X38589D01*
X38539D01*
Y27016D01*
X38639D02*
Y27166D01*
X38714D01*
X38739Y27141D01*
Y27091D01*
X38714Y27066D01*
X38639D01*
X38789Y27141D02*
X38814Y27166D01*
X38864D01*
X38889Y27141D01*
Y27116D01*
X38864Y27091D01*
X38839D01*
X38864D01*
X38889Y27066D01*
Y27041D01*
X38864Y27016D01*
X38814D01*
X38789Y27041D01*
X38939Y27141D02*
X38964Y27166D01*
X39014D01*
X39039Y27141D01*
Y27041D01*
X39014Y27016D01*
X38964D01*
X38939Y27041D01*
Y27141D01*
X39089Y27016D02*
X39139D01*
X39114D01*
Y27166D01*
X39089Y27141D01*
X37584Y27166D02*
X37684D01*
X37634D01*
Y27016D01*
X37734D02*
Y27166D01*
X37809D01*
X37834Y27141D01*
Y27091D01*
X37809Y27066D01*
X37734D01*
X37884Y27141D02*
X37909Y27166D01*
X37959D01*
X37984Y27141D01*
Y27116D01*
X37959Y27091D01*
X37934D01*
X37959D01*
X37984Y27066D01*
Y27041D01*
X37959Y27016D01*
X37909D01*
X37884Y27041D01*
X38034Y27141D02*
X38059Y27166D01*
X38109D01*
X38134Y27141D01*
Y27041D01*
X38109Y27016D01*
X38059D01*
X38034Y27041D01*
Y27141D01*
X38284Y27016D02*
X38184D01*
X38284Y27116D01*
Y27141D01*
X38259Y27166D01*
X38209D01*
X38184Y27141D01*
X36482Y32685D02*
X36582D01*
X36532D01*
Y32535D01*
X36632D02*
Y32685D01*
X36707D01*
X36731Y32660D01*
Y32610D01*
X36707Y32585D01*
X36632D01*
X36781Y32660D02*
X36806Y32685D01*
X36856D01*
X36881Y32660D01*
Y32635D01*
X36856Y32610D01*
X36831D01*
X36856D01*
X36881Y32585D01*
Y32560D01*
X36856Y32535D01*
X36806D01*
X36781Y32560D01*
X36931Y32660D02*
X36956Y32685D01*
X37006D01*
X37031Y32660D01*
Y32560D01*
X37006Y32535D01*
X36956D01*
X36931Y32560D01*
Y32660D01*
X37081D02*
X37106Y32685D01*
X37156D01*
X37181Y32660D01*
Y32635D01*
X37156Y32610D01*
X37131D01*
X37156D01*
X37181Y32585D01*
Y32560D01*
X37156Y32535D01*
X37106D01*
X37081Y32560D01*
X39972Y27684D02*
X40072D01*
X40022D01*
Y27535D01*
X40122D02*
Y27684D01*
X40197D01*
X40222Y27659D01*
Y27610D01*
X40197Y27585D01*
X40122D01*
X40347Y27535D02*
Y27684D01*
X40272Y27610D01*
X40372D01*
X40422Y27659D02*
X40447Y27684D01*
X40497D01*
X40522Y27659D01*
Y27560D01*
X40497Y27535D01*
X40447D01*
X40422Y27560D01*
Y27659D01*
X40572Y27535D02*
X40622D01*
X40597D01*
Y27684D01*
X40572Y27659D01*
X46981Y33151D02*
Y33251D01*
Y33201D01*
X47131D01*
Y33301D02*
X46981D01*
Y33376D01*
X47006Y33401D01*
X47056D01*
X47081Y33376D01*
Y33301D01*
X47131Y33526D02*
X46981D01*
X47056Y33451D01*
Y33551D01*
X47006Y33601D02*
X46981Y33626D01*
Y33676D01*
X47006Y33701D01*
X47106D01*
X47131Y33676D01*
Y33626D01*
X47106Y33601D01*
X47006D01*
X47131Y33851D02*
Y33751D01*
X47031Y33851D01*
X47006D01*
X46981Y33826D01*
Y33776D01*
X47006Y33751D01*
X44683Y28024D02*
X44783D01*
X44733D01*
Y27874D01*
X44833D02*
Y28024D01*
X44908D01*
X44933Y27999D01*
Y27949D01*
X44908Y27924D01*
X44833D01*
X45083Y28024D02*
X44983D01*
Y27949D01*
X45033Y27974D01*
X45058D01*
X45083Y27949D01*
Y27899D01*
X45058Y27874D01*
X45008D01*
X44983Y27899D01*
X45133Y27999D02*
X45158Y28024D01*
X45208D01*
X45233Y27999D01*
Y27899D01*
X45208Y27874D01*
X45158D01*
X45133Y27899D01*
Y27999D01*
X45283Y27874D02*
X45333D01*
X45308D01*
Y28024D01*
X45283Y27999D01*
X41500Y27591D02*
X41600D01*
X41550D01*
Y27441D01*
X41650D02*
Y27591D01*
X41725D01*
X41750Y27566D01*
Y27516D01*
X41725Y27491D01*
X41650D01*
X41900Y27591D02*
X41800D01*
Y27516D01*
X41850Y27541D01*
X41875D01*
X41900Y27516D01*
Y27466D01*
X41875Y27441D01*
X41825D01*
X41800Y27466D01*
X41950Y27566D02*
X41975Y27591D01*
X42025D01*
X42050Y27566D01*
Y27466D01*
X42025Y27441D01*
X41975D01*
X41950Y27466D01*
Y27566D01*
X42200Y27441D02*
X42100D01*
X42200Y27541D01*
Y27566D01*
X42175Y27591D01*
X42125D01*
X42100Y27566D01*
D111*
X38897Y40585D02*
Y40705D01*
X38957D01*
X38977Y40685D01*
Y40645D01*
X38957Y40625D01*
X38897D01*
X38937D02*
X38977Y40585D01*
X39097Y40705D02*
X39017D01*
Y40645D01*
X39057Y40665D01*
X39077D01*
X39097Y40645D01*
Y40605D01*
X39077Y40585D01*
X39037D01*
X39017Y40605D01*
X39137Y40685D02*
X39157Y40705D01*
X39197D01*
X39217Y40685D01*
Y40605D01*
X39197Y40585D01*
X39157D01*
X39137Y40605D01*
Y40685D01*
X39257Y40705D02*
X39337D01*
Y40685D01*
X39257Y40605D01*
Y40585D01*
X38897Y41687D02*
Y41807D01*
X38957D01*
X38977Y41787D01*
Y41747D01*
X38957Y41727D01*
X38897D01*
X38937D02*
X38977Y41687D01*
X39097Y41807D02*
X39017D01*
Y41747D01*
X39057Y41767D01*
X39077D01*
X39097Y41747D01*
Y41707D01*
X39077Y41687D01*
X39037D01*
X39017Y41707D01*
X39137Y41787D02*
X39157Y41807D01*
X39197D01*
X39217Y41787D01*
Y41707D01*
X39197Y41687D01*
X39157D01*
X39137Y41707D01*
Y41787D01*
X39337Y41807D02*
X39297Y41787D01*
X39257Y41747D01*
Y41707D01*
X39277Y41687D01*
X39317D01*
X39337Y41707D01*
Y41727D01*
X39317Y41747D01*
X39257D01*
X24657Y54705D02*
X24741Y54620D01*
X24699Y54578D01*
X24671D01*
X24642Y54606D01*
X24642Y54634D01*
X24685Y54677D01*
X24657Y54648D02*
X24600D01*
X24642Y54550D02*
X24642Y54521D01*
X24614Y54493D01*
X24586D01*
X24572Y54507D01*
Y54535D01*
X24586Y54550D01*
X24572Y54535D01*
X24543Y54535D01*
X24529Y54550D01*
Y54578D01*
X24558Y54606D01*
X24586D01*
X24444Y54493D02*
X24529Y54408D01*
Y54493D01*
X24473Y54436D01*
Y54380D02*
Y54352D01*
X24444Y54323D01*
X24416D01*
X24402Y54337D01*
Y54366D01*
X24374Y54366D01*
X24360Y54380D01*
X24360Y54408D01*
X24388Y54436D01*
X24416D01*
X24430Y54422D01*
Y54394D01*
X24459Y54394D01*
X24473Y54380D01*
X24430Y54394D02*
X24402Y54366D01*
X38261Y38703D02*
X38141D01*
Y38763D01*
X38161Y38783D01*
X38201D01*
X38221Y38763D01*
Y38703D01*
Y38743D02*
X38261Y38783D01*
X38161Y38823D02*
X38141Y38843D01*
Y38883D01*
X38161Y38903D01*
X38181D01*
X38201Y38883D01*
Y38863D01*
Y38883D01*
X38221Y38903D01*
X38241D01*
X38261Y38883D01*
Y38843D01*
X38241Y38823D01*
X38261Y39003D02*
X38141D01*
X38201Y38943D01*
Y39023D01*
X38141Y39063D02*
Y39143D01*
X38161D01*
X38241Y39063D01*
X38261D01*
X24022Y24660D02*
X24107Y24744D01*
X24150Y24702D01*
Y24674D01*
X24121Y24645D01*
X24093Y24645D01*
X24051Y24688D01*
X24079Y24660D02*
Y24603D01*
X24178Y24645D02*
X24206Y24645D01*
X24234Y24617D01*
Y24589D01*
X24220Y24575D01*
X24192D01*
X24178Y24589D01*
X24192Y24575D01*
X24192Y24546D01*
X24178Y24532D01*
X24150D01*
X24121Y24561D01*
Y24589D01*
X24234Y24447D02*
X24319Y24532D01*
X24234D01*
X24291Y24476D01*
X24418Y24433D02*
X24376Y24447D01*
X24319D01*
X24291Y24419D01*
Y24391D01*
X24319Y24363D01*
X24348Y24363D01*
X24362Y24377D01*
X24362Y24405D01*
X24319Y24447D01*
X38661Y38144D02*
Y38264D01*
X38721D01*
X38741Y38244D01*
Y38204D01*
X38721Y38184D01*
X38661D01*
X38701D02*
X38741Y38144D01*
X38781Y38244D02*
X38801Y38264D01*
X38841D01*
X38861Y38244D01*
Y38224D01*
X38841Y38204D01*
X38821D01*
X38841D01*
X38861Y38184D01*
Y38164D01*
X38841Y38144D01*
X38801D01*
X38781Y38164D01*
X38961Y38144D02*
Y38264D01*
X38901Y38204D01*
X38981D01*
X39101Y38264D02*
X39021D01*
Y38204D01*
X39061Y38224D01*
X39081D01*
X39101Y38204D01*
Y38164D01*
X39081Y38144D01*
X39041D01*
X39021Y38164D01*
X54029Y24025D02*
X53944Y24110D01*
X53986Y24153D01*
X54014D01*
X54043Y24124D01*
X54043Y24096D01*
X54000Y24054D01*
X54029Y24082D02*
X54085D01*
X54043Y24181D02*
X54043Y24209D01*
X54071Y24237D01*
X54099D01*
X54113Y24223D01*
Y24195D01*
X54099Y24181D01*
X54113Y24195D01*
X54142Y24195D01*
X54156Y24181D01*
Y24153D01*
X54127Y24124D01*
X54099D01*
X54241Y24237D02*
X54156Y24322D01*
Y24237D01*
X54212Y24294D01*
X54325Y24322D02*
X54241Y24407D01*
Y24322D01*
X54297Y24379D01*
X40024Y38264D02*
Y38144D01*
X39964D01*
X39944Y38164D01*
Y38204D01*
X39964Y38224D01*
X40024D01*
X39984D02*
X39944Y38264D01*
X39904Y38164D02*
X39884Y38144D01*
X39844D01*
X39824Y38164D01*
Y38184D01*
X39844Y38204D01*
X39864D01*
X39844D01*
X39824Y38224D01*
Y38244D01*
X39844Y38264D01*
X39884D01*
X39904Y38244D01*
X39724Y38264D02*
Y38144D01*
X39784Y38204D01*
X39704D01*
X39664Y38164D02*
X39644Y38144D01*
X39604D01*
X39584Y38164D01*
Y38184D01*
X39604Y38204D01*
X39624D01*
X39604D01*
X39584Y38224D01*
Y38244D01*
X39604Y38264D01*
X39644D01*
X39664Y38244D01*
X54702Y54032D02*
X54617Y53947D01*
X54575Y53989D01*
Y54017D01*
X54603Y54046D01*
X54631Y54046D01*
X54674Y54003D01*
X54645Y54032D02*
Y54088D01*
X54546Y54046D02*
X54518Y54046D01*
X54490Y54074D01*
Y54102D01*
X54504Y54116D01*
X54532D01*
X54546Y54102D01*
X54532Y54116D01*
X54532Y54145D01*
X54546Y54159D01*
X54575D01*
X54603Y54131D01*
Y54102D01*
X54490Y54244D02*
X54405Y54159D01*
X54490D01*
X54433Y54215D01*
X54391Y54343D02*
X54448Y54286D01*
X54334D01*
X54320Y54272D01*
Y54244D01*
X54349Y54215D01*
X54377D01*
X40544Y38703D02*
X40424D01*
Y38763D01*
X40444Y38783D01*
X40484D01*
X40504Y38763D01*
Y38703D01*
Y38743D02*
X40544Y38783D01*
X40444Y38823D02*
X40424Y38843D01*
Y38883D01*
X40444Y38903D01*
X40464D01*
X40484Y38883D01*
Y38863D01*
Y38883D01*
X40504Y38903D01*
X40524D01*
X40544Y38883D01*
Y38843D01*
X40524Y38823D01*
X40544Y39003D02*
X40424D01*
X40484Y38943D01*
Y39023D01*
X40544Y39063D02*
Y39103D01*
Y39083D01*
X40424D01*
X40444Y39063D01*
X23088Y56378D02*
X23003Y56463D01*
X23045Y56505D01*
X23074D01*
X23102Y56477D01*
X23102Y56449D01*
X23059Y56406D01*
X23088Y56435D02*
X23144D01*
X23102Y56534D02*
X23102Y56562D01*
X23130Y56590D01*
X23158D01*
X23173Y56576D01*
Y56548D01*
X23158Y56534D01*
X23173Y56548D01*
X23201Y56548D01*
X23215Y56534D01*
Y56505D01*
X23187Y56477D01*
X23158D01*
X23300Y56590D02*
X23215Y56675D01*
Y56590D01*
X23271Y56647D01*
Y56703D02*
Y56732D01*
X23300Y56760D01*
X23328D01*
X23385Y56703D01*
X23385Y56675D01*
X23356Y56647D01*
X23328D01*
X23271Y56703D01*
X22331Y23088D02*
X22246Y23003D01*
X22203Y23045D01*
Y23074D01*
X22232Y23102D01*
X22260Y23102D01*
X22302Y23059D01*
X22274Y23088D02*
Y23144D01*
X22175Y23102D02*
X22147Y23102D01*
X22118Y23130D01*
Y23158D01*
X22133Y23173D01*
X22161D01*
X22175Y23158D01*
X22161Y23173D01*
X22161Y23201D01*
X22175Y23215D01*
X22203D01*
X22232Y23187D01*
Y23158D01*
X22090Y23187D02*
X22062Y23187D01*
X22034Y23215D01*
Y23243D01*
X22048Y23257D01*
X22076D01*
X22090Y23243D01*
X22076Y23257D01*
Y23286D01*
X22090Y23300D01*
X22118D01*
X22147Y23271D01*
Y23243D01*
X22062Y23328D02*
Y23356D01*
X22034Y23385D01*
X22005Y23385D01*
X21949Y23328D01*
Y23300D01*
X21977Y23271D01*
X22005D01*
X22020Y23286D01*
X22020Y23314D01*
X21977Y23356D01*
X55621Y22331D02*
X55706Y22246D01*
X55663Y22203D01*
X55635D01*
X55607Y22232D01*
X55607Y22260D01*
X55649Y22302D01*
X55621Y22274D02*
X55564D01*
X55607Y22175D02*
X55607Y22147D01*
X55579Y22118D01*
X55550D01*
X55536Y22133D01*
Y22161D01*
X55550Y22175D01*
X55536Y22161D01*
X55508Y22161D01*
X55494Y22175D01*
Y22203D01*
X55522Y22232D01*
X55550D01*
X55522Y22090D02*
X55522Y22062D01*
X55494Y22034D01*
X55465D01*
X55451Y22048D01*
Y22076D01*
X55465Y22090D01*
X55451Y22076D01*
X55423D01*
X55409Y22090D01*
Y22118D01*
X55437Y22147D01*
X55465D01*
X55437Y22005D02*
Y21977D01*
X55409Y21949D01*
X55381D01*
X55367Y21963D01*
Y21991D01*
X55338Y21991D01*
X55324Y22005D01*
X55324Y22034D01*
X55352Y22062D01*
X55381D01*
X55395Y22048D01*
Y22019D01*
X55423Y22019D01*
X55437Y22005D01*
X55395Y22019D02*
X55367Y21991D01*
X56378Y55621D02*
X56463Y55706D01*
X56505Y55663D01*
Y55635D01*
X56477Y55607D01*
X56449Y55607D01*
X56406Y55649D01*
X56435Y55621D02*
Y55564D01*
X56534Y55607D02*
X56562Y55607D01*
X56590Y55579D01*
Y55550D01*
X56576Y55536D01*
X56548D01*
X56534Y55550D01*
X56548Y55536D01*
X56548Y55508D01*
X56534Y55494D01*
X56505D01*
X56477Y55522D01*
Y55550D01*
X56618Y55522D02*
X56647Y55522D01*
X56675Y55494D01*
Y55465D01*
X56661Y55451D01*
X56633D01*
X56618Y55465D01*
X56633Y55451D01*
Y55423D01*
X56618Y55409D01*
X56590D01*
X56562Y55437D01*
Y55465D01*
X56717Y55451D02*
X56774Y55395D01*
X56760Y55381D01*
X56647D01*
X56633Y55367D01*
X24250Y56034D02*
X24165Y55949D01*
X24123Y55991D01*
Y56020D01*
X24151Y56048D01*
X24180Y56048D01*
X24222Y56005D01*
X24194Y56034D02*
Y56090D01*
X24095Y56048D02*
X24067Y56048D01*
X24038Y56076D01*
Y56104D01*
X24052Y56119D01*
X24081D01*
X24095Y56104D01*
X24081Y56119D01*
X24081Y56147D01*
X24095Y56161D01*
X24123D01*
X24151Y56133D01*
Y56104D01*
X24010Y56133D02*
X23982Y56133D01*
X23953Y56161D01*
Y56189D01*
X23968Y56203D01*
X23996D01*
X24010Y56189D01*
X23996Y56203D01*
Y56232D01*
X24010Y56246D01*
X24038D01*
X24067Y56218D01*
Y56189D01*
X23854Y56260D02*
X23911Y56203D01*
X23953Y56246D01*
X23911Y56260D01*
X23897Y56274D01*
Y56302D01*
X23925Y56331D01*
X23953Y56331D01*
X23982Y56302D01*
Y56274D01*
X22188Y55473D02*
X22103Y55558D01*
X22146Y55601D01*
X22174D01*
X22202Y55572D01*
X22202Y55544D01*
X22160Y55502D01*
X22188Y55530D02*
X22245D01*
X22202Y55629D02*
X22202Y55657D01*
X22230Y55686D01*
X22259D01*
X22273Y55671D01*
Y55643D01*
X22259Y55629D01*
X22273Y55643D01*
X22301Y55643D01*
X22315Y55629D01*
Y55601D01*
X22287Y55572D01*
X22259D01*
X22287Y55714D02*
X22287Y55742D01*
X22315Y55770D01*
X22344D01*
X22358Y55756D01*
Y55728D01*
X22344Y55714D01*
X22358Y55728D01*
X22386D01*
X22400Y55714D01*
Y55686D01*
X22372Y55657D01*
X22344D01*
X22499Y55785D02*
X22442Y55728D01*
Y55841D01*
X22428Y55855D01*
X22400D01*
X22372Y55827D01*
Y55799D01*
X22100Y54984D02*
X22185Y55069D01*
X22228Y55026D01*
Y54998D01*
X22199Y54970D01*
X22171Y54970D01*
X22129Y55012D01*
X22157Y54984D02*
Y54927D01*
X22256Y54970D02*
X22284Y54970D01*
X22312Y54941D01*
Y54913D01*
X22298Y54899D01*
X22270D01*
X22256Y54913D01*
X22270Y54899D01*
X22270Y54871D01*
X22256Y54857D01*
X22228D01*
X22199Y54885D01*
Y54913D01*
X22327Y54758D02*
X22270Y54814D01*
X22383D01*
X22397Y54828D01*
Y54857D01*
X22369Y54885D01*
X22341Y54885D01*
X22369Y54743D02*
Y54715D01*
X22397Y54687D01*
X22426Y54687D01*
X22482Y54743D01*
Y54772D01*
X22454Y54800D01*
X22426D01*
X22411Y54786D01*
X22411Y54758D01*
X22454Y54715D01*
X22675Y24250D02*
X22760Y24165D01*
X22717Y24123D01*
X22689D01*
X22661Y24151D01*
X22661Y24180D01*
X22703Y24222D01*
X22675Y24194D02*
X22618D01*
X22661Y24095D02*
X22661Y24067D01*
X22633Y24038D01*
X22604D01*
X22590Y24052D01*
Y24081D01*
X22604Y24095D01*
X22590Y24081D01*
X22562Y24081D01*
X22548Y24095D01*
Y24123D01*
X22576Y24151D01*
X22604D01*
X22449Y24024D02*
X22505Y24081D01*
Y23968D01*
X22519Y23953D01*
X22548D01*
X22576Y23982D01*
X22576Y24010D01*
X22449Y23854D02*
X22463Y23897D01*
Y23953D01*
X22435Y23982D01*
X22406D01*
X22378Y23953D01*
X22378Y23925D01*
X22392Y23911D01*
X22420Y23911D01*
X22463Y23953D01*
X23235Y22188D02*
X23150Y22103D01*
X23108Y22146D01*
Y22174D01*
X23136Y22202D01*
X23164Y22202D01*
X23207Y22160D01*
X23179Y22188D02*
Y22245D01*
X23080Y22202D02*
X23051Y22202D01*
X23023Y22230D01*
Y22259D01*
X23037Y22273D01*
X23066D01*
X23080Y22259D01*
X23066Y22273D01*
X23066Y22301D01*
X23080Y22315D01*
X23108D01*
X23136Y22287D01*
Y22259D01*
X23009Y22414D02*
X23066Y22358D01*
X22952D01*
X22938Y22344D01*
Y22315D01*
X22967Y22287D01*
X22995Y22287D01*
X22910Y22372D02*
X22882D01*
X22853Y22400D01*
Y22428D01*
X22868Y22442D01*
X22896D01*
X22910Y22428D01*
X22896Y22442D01*
X22896Y22471D01*
X22910Y22485D01*
X22938Y22485D01*
X22967Y22457D01*
Y22428D01*
X23725Y22100D02*
X23640Y22185D01*
X23682Y22228D01*
X23711D01*
X23739Y22199D01*
X23739Y22171D01*
X23697Y22129D01*
X23725Y22157D02*
X23781D01*
X23739Y22256D02*
X23739Y22284D01*
X23767Y22312D01*
X23796D01*
X23810Y22298D01*
Y22270D01*
X23796Y22256D01*
X23810Y22270D01*
X23838Y22270D01*
X23852Y22256D01*
Y22228D01*
X23824Y22199D01*
X23796D01*
X23951Y22327D02*
X23894Y22270D01*
Y22383D01*
X23880Y22397D01*
X23852D01*
X23824Y22369D01*
X23824Y22341D01*
X23909Y22426D02*
Y22454D01*
X23937Y22482D01*
X23965D01*
X24022Y22426D01*
X24022Y22397D01*
X23993Y22369D01*
X23965D01*
X23909Y22426D01*
X54458Y22675D02*
X54543Y22760D01*
X54586Y22717D01*
Y22689D01*
X54557Y22661D01*
X54529Y22661D01*
X54487Y22703D01*
X54515Y22675D02*
Y22618D01*
X54614Y22661D02*
X54642Y22661D01*
X54670Y22633D01*
Y22604D01*
X54656Y22590D01*
X54628D01*
X54614Y22604D01*
X54628Y22590D01*
X54628Y22562D01*
X54614Y22548D01*
X54586D01*
X54557Y22576D01*
Y22604D01*
X54628Y22505D02*
X54656Y22477D01*
X54642Y22491D01*
X54727Y22576D01*
X54699Y22576D01*
X54784Y22519D02*
X54840Y22463D01*
X54826Y22449D01*
X54713D01*
X54699Y22435D01*
X56521Y23235D02*
X56605Y23150D01*
X56563Y23108D01*
X56535D01*
X56507Y23136D01*
X56507Y23164D01*
X56549Y23207D01*
X56521Y23179D02*
X56464D01*
X56507Y23080D02*
X56507Y23051D01*
X56478Y23023D01*
X56450D01*
X56436Y23037D01*
Y23066D01*
X56450Y23080D01*
X56436Y23066D01*
X56408Y23066D01*
X56393Y23080D01*
Y23108D01*
X56422Y23136D01*
X56450D01*
X56351Y23066D02*
X56323Y23037D01*
X56337Y23051D01*
X56422Y22967D01*
X56422Y22995D01*
X56238Y22952D02*
X56323Y22868D01*
Y22952D01*
X56266Y22896D01*
X56608Y23725D02*
X56523Y23640D01*
X56481Y23682D01*
Y23711D01*
X56509Y23739D01*
X56538Y23739D01*
X56580Y23697D01*
X56552Y23725D02*
Y23781D01*
X56453Y23739D02*
X56425Y23739D01*
X56396Y23767D01*
Y23795D01*
X56410Y23810D01*
X56439D01*
X56453Y23795D01*
X56439Y23810D01*
X56439Y23838D01*
X56453Y23852D01*
X56481D01*
X56509Y23824D01*
Y23795D01*
X56439Y23894D02*
X56410Y23923D01*
X56425Y23909D01*
X56340Y23824D01*
X56368Y23824D01*
Y23965D02*
X56340Y23993D01*
X56354Y23979D01*
X56269Y23894D01*
X56297Y23894D01*
X56034Y54458D02*
X55949Y54543D01*
X55991Y54586D01*
X56020D01*
X56048Y54557D01*
X56048Y54529D01*
X56005Y54487D01*
X56034Y54515D02*
X56090D01*
X56048Y54614D02*
X56048Y54642D01*
X56076Y54670D01*
X56104D01*
X56119Y54656D01*
Y54628D01*
X56104Y54614D01*
X56119Y54628D01*
X56147Y54628D01*
X56161Y54614D01*
Y54586D01*
X56133Y54557D01*
X56104D01*
X56133Y54699D02*
X56133Y54727D01*
X56161Y54755D01*
X56189D01*
X56246Y54699D01*
Y54670D01*
X56218Y54642D01*
X56189D01*
X56133Y54699D01*
X56218Y54784D02*
Y54812D01*
X56246Y54840D01*
X56274D01*
X56288Y54826D01*
Y54798D01*
X56316Y54798D01*
X56331Y54784D01*
X56331Y54755D01*
X56302Y54727D01*
X56274D01*
X56260Y54741D01*
Y54769D01*
X56232Y54769D01*
X56218Y54784D01*
X56260Y54769D02*
X56288Y54798D01*
X55473Y56521D02*
X55558Y56605D01*
X55601Y56563D01*
Y56535D01*
X55572Y56507D01*
X55544Y56507D01*
X55502Y56549D01*
X55530Y56521D02*
Y56464D01*
X55629Y56507D02*
X55657Y56507D01*
X55686Y56478D01*
Y56450D01*
X55671Y56436D01*
X55643D01*
X55629Y56450D01*
X55643Y56436D01*
X55643Y56408D01*
X55629Y56393D01*
X55601D01*
X55572Y56422D01*
Y56450D01*
X55714Y56422D02*
X55742Y56422D01*
X55770Y56393D01*
Y56365D01*
X55714Y56309D01*
X55686D01*
X55657Y56337D01*
Y56365D01*
X55714Y56422D01*
X55869Y56294D02*
X55813Y56351D01*
X55770Y56309D01*
X55813Y56294D01*
X55827Y56280D01*
Y56252D01*
X55799Y56224D01*
X55770Y56224D01*
X55742Y56252D01*
Y56280D01*
X54984Y56608D02*
X55069Y56523D01*
X55026Y56481D01*
X54998D01*
X54970Y56509D01*
X54970Y56538D01*
X55012Y56580D01*
X54984Y56552D02*
X54927D01*
X54970Y56453D02*
X54970Y56425D01*
X54941Y56396D01*
X54913D01*
X54899Y56410D01*
Y56439D01*
X54913Y56453D01*
X54899Y56439D01*
X54871Y56439D01*
X54857Y56453D01*
Y56481D01*
X54885Y56509D01*
X54913D01*
X54885Y56368D02*
X54885Y56340D01*
X54857Y56311D01*
X54828D01*
X54772Y56368D01*
Y56396D01*
X54800Y56425D01*
X54828D01*
X54885Y56368D01*
X54673Y56297D02*
X54729Y56354D01*
Y56241D01*
X54743Y56227D01*
X54772D01*
X54800Y56255D01*
Y56283D01*
X38897Y52909D02*
Y52789D01*
X38977D01*
X39097Y52909D02*
X39017D01*
Y52849D01*
X39057Y52869D01*
X39077D01*
X39097Y52849D01*
Y52809D01*
X39077Y52789D01*
X39037D01*
X39017Y52809D01*
X39137Y52889D02*
X39157Y52909D01*
X39197D01*
X39217Y52889D01*
Y52809D01*
X39197Y52789D01*
X39157D01*
X39137Y52809D01*
Y52889D01*
X39257Y52789D02*
X39297D01*
X39277D01*
Y52909D01*
X39257Y52889D01*
X39237Y54128D02*
Y54208D01*
X39197Y54248D01*
X39157Y54208D01*
Y54128D01*
X39037D02*
X39117D01*
Y54188D01*
X39077Y54168D01*
X39057D01*
X39037Y54188D01*
Y54228D01*
X39057Y54248D01*
X39097D01*
X39117Y54228D01*
X38997Y54148D02*
X38977Y54128D01*
X38937D01*
X38917Y54148D01*
Y54228D01*
X38937Y54248D01*
X38977D01*
X38997Y54228D01*
Y54148D01*
X38797Y54128D02*
X38877D01*
Y54188D01*
X38837Y54168D01*
X38817D01*
X38797Y54188D01*
Y54228D01*
X38817Y54248D01*
X38857D01*
X38877Y54228D01*
X26589Y58867D02*
X26532Y58811D01*
Y58754D01*
X26589D01*
X26646Y58811D01*
X26660Y58768D02*
X26688Y58768D01*
X26716Y58740D01*
Y58712D01*
X26702Y58698D01*
X26674D01*
X26660Y58712D01*
X26674Y58698D01*
X26674Y58669D01*
X26660Y58655D01*
X26631D01*
X26603Y58683D01*
Y58712D01*
X26674Y58613D02*
X26702Y58584D01*
X26688Y58599D01*
X26773Y58683D01*
X26744Y58683D01*
X26801Y58485D02*
X26744Y58542D01*
X26858D01*
X26872Y58556D01*
Y58584D01*
X26843Y58613D01*
X26815Y58613D01*
X19800Y58433D02*
X19856Y58376D01*
X19913D01*
Y58433D01*
X19856Y58489D01*
X19898Y58503D02*
X19898Y58532D01*
X19927Y58560D01*
X19955D01*
X19969Y58546D01*
Y58518D01*
X19955Y58503D01*
X19969Y58518D01*
X19997Y58518D01*
X20012Y58503D01*
Y58475D01*
X19983Y58447D01*
X19955D01*
X20054Y58518D02*
X20082Y58546D01*
X20068Y58532D01*
X19983Y58616D01*
X19983Y58588D01*
X20125D02*
X20153Y58616D01*
X20139Y58602D01*
X20054Y58687D01*
X20054Y58659D01*
X19882Y52194D02*
X19825Y52138D01*
Y52081D01*
X19882D01*
X19938Y52138D01*
X19952Y52095D02*
X19980Y52095D01*
X20009Y52067D01*
Y52039D01*
X19995Y52025D01*
X19966D01*
X19952Y52039D01*
X19966Y52025D01*
X19966Y51996D01*
X19952Y51982D01*
X19924D01*
X19896Y52011D01*
Y52039D01*
X19966Y51940D02*
X19995Y51912D01*
X19980Y51926D01*
X20065Y52011D01*
X20037Y52011D01*
X20108Y51940D02*
X20136Y51940D01*
X20164Y51912D01*
Y51883D01*
X20108Y51827D01*
X20079D01*
X20051Y51855D01*
Y51883D01*
X20108Y51940D01*
X19842Y26589D02*
X19898Y26532D01*
X19955D01*
Y26589D01*
X19898Y26646D01*
X19940Y26660D02*
X19940Y26688D01*
X19969Y26716D01*
X19997D01*
X20011Y26702D01*
Y26674D01*
X19997Y26660D01*
X20011Y26674D01*
X20039Y26674D01*
X20054Y26660D01*
Y26631D01*
X20025Y26603D01*
X19997D01*
X20025Y26744D02*
X20025Y26773D01*
X20054Y26801D01*
X20082D01*
X20138Y26744D01*
Y26716D01*
X20110Y26688D01*
X20082D01*
X20025Y26744D01*
X20167Y26773D02*
X20195D01*
X20223Y26801D01*
X20223Y26829D01*
X20167Y26886D01*
X20138D01*
X20110Y26858D01*
Y26829D01*
X20124Y26815D01*
X20153Y26815D01*
X20195Y26858D01*
X20276Y19800D02*
X20333Y19856D01*
Y19913D01*
X20276D01*
X20219Y19856D01*
X20205Y19898D02*
X20177Y19898D01*
X20149Y19927D01*
Y19955D01*
X20163Y19969D01*
X20191D01*
X20205Y19955D01*
X20191Y19969D01*
X20191Y19997D01*
X20205Y20012D01*
X20234D01*
X20262Y19983D01*
Y19955D01*
X20120Y19983D02*
X20092Y19983D01*
X20064Y20012D01*
Y20040D01*
X20120Y20096D01*
X20149D01*
X20177Y20068D01*
Y20040D01*
X20120Y19983D01*
X20036Y20068D02*
X20007D01*
X19979Y20096D01*
Y20125D01*
X19993Y20139D01*
X20022D01*
X20022Y20167D01*
X20036Y20181D01*
X20064Y20181D01*
X20092Y20153D01*
Y20125D01*
X20078Y20111D01*
X20050D01*
X20050Y20082D01*
X20036Y20068D01*
X20050Y20111D02*
X20022Y20139D01*
X26514Y19882D02*
X26571Y19825D01*
X26627D01*
Y19882D01*
X26571Y19938D01*
X26613Y19952D02*
X26613Y19980D01*
X26642Y20009D01*
X26670D01*
X26684Y19995D01*
Y19966D01*
X26670Y19952D01*
X26684Y19966D01*
X26712Y19966D01*
X26726Y19952D01*
Y19924D01*
X26698Y19896D01*
X26670D01*
X26698Y20037D02*
X26698Y20065D01*
X26726Y20094D01*
X26755D01*
X26811Y20037D01*
Y20009D01*
X26783Y19980D01*
X26755D01*
X26698Y20037D01*
X26769Y20136D02*
X26825Y20193D01*
X26840Y20178D01*
Y20065D01*
X26854Y20051D01*
X52120Y19841D02*
X52176Y19898D01*
Y19955D01*
X52120D01*
X52063Y19898D01*
X52049Y19940D02*
X52021Y19940D01*
X51992Y19969D01*
Y19997D01*
X52007Y20011D01*
X52035D01*
X52049Y19997D01*
X52035Y20011D01*
X52035Y20039D01*
X52049Y20054D01*
X52077D01*
X52106Y20025D01*
Y19997D01*
X51964Y20025D02*
X51936Y20025D01*
X51908Y20054D01*
Y20082D01*
X51964Y20138D01*
X51992D01*
X52021Y20110D01*
Y20082D01*
X51964Y20025D01*
X51809Y20153D02*
X51851Y20138D01*
X51908D01*
X51936Y20167D01*
Y20195D01*
X51908Y20223D01*
X51879Y20223D01*
X51865Y20209D01*
X51865Y20181D01*
X51908Y20138D01*
X58909Y20276D02*
X58853Y20333D01*
X58796D01*
Y20276D01*
X58853Y20219D01*
X58810Y20205D02*
X58810Y20177D01*
X58782Y20149D01*
X58754D01*
X58739Y20163D01*
Y20191D01*
X58754Y20205D01*
X58739Y20191D01*
X58711Y20191D01*
X58697Y20205D01*
Y20234D01*
X58725Y20262D01*
X58754D01*
X58725Y20120D02*
X58725Y20092D01*
X58697Y20064D01*
X58669D01*
X58612Y20120D01*
Y20149D01*
X58641Y20177D01*
X58669D01*
X58725Y20120D01*
X58598Y19965D02*
X58655Y20021D01*
X58612Y20064D01*
X58598Y20021D01*
X58584Y20007D01*
X58556D01*
X58527Y20036D01*
X58527Y20064D01*
X58556Y20092D01*
X58584D01*
X58827Y26514D02*
X58884Y26571D01*
Y26627D01*
X58827D01*
X58771Y26571D01*
X58756Y26613D02*
X58728Y26613D01*
X58700Y26642D01*
Y26670D01*
X58714Y26684D01*
X58742D01*
X58756Y26670D01*
X58742Y26684D01*
X58742Y26712D01*
X58756Y26726D01*
X58785D01*
X58813Y26698D01*
Y26670D01*
X58672Y26698D02*
X58643Y26698D01*
X58615Y26726D01*
Y26755D01*
X58672Y26811D01*
X58700D01*
X58728Y26783D01*
Y26755D01*
X58672Y26698D01*
X58615Y26896D02*
X58530Y26811D01*
X58615D01*
X58559Y26868D01*
X58867Y52120D02*
X58811Y52176D01*
X58754D01*
Y52120D01*
X58811Y52063D01*
X58768Y52049D02*
X58768Y52021D01*
X58740Y51992D01*
X58712D01*
X58698Y52007D01*
Y52035D01*
X58712Y52049D01*
X58698Y52035D01*
X58669Y52035D01*
X58655Y52049D01*
Y52077D01*
X58683Y52106D01*
X58712D01*
X58683Y51964D02*
X58683Y51936D01*
X58655Y51908D01*
X58627D01*
X58570Y51964D01*
Y51992D01*
X58599Y52021D01*
X58627D01*
X58683Y51964D01*
X58599Y51879D02*
Y51851D01*
X58570Y51823D01*
X58542D01*
X58528Y51837D01*
Y51865D01*
X58542Y51879D01*
X58528Y51865D01*
X58500Y51865D01*
X58485Y51879D01*
X58485Y51908D01*
X58514Y51936D01*
X58542D01*
X58433Y58909D02*
X58376Y58853D01*
Y58796D01*
X58433D01*
X58489Y58853D01*
X58503Y58810D02*
X58532Y58810D01*
X58560Y58782D01*
Y58754D01*
X58546Y58739D01*
X58518D01*
X58503Y58754D01*
X58518Y58739D01*
X58518Y58711D01*
X58503Y58697D01*
X58475D01*
X58447Y58725D01*
Y58754D01*
X58588Y58725D02*
X58616Y58725D01*
X58645Y58697D01*
Y58669D01*
X58588Y58612D01*
X58560D01*
X58532Y58641D01*
Y58669D01*
X58588Y58725D01*
X58659Y58513D02*
X58602Y58570D01*
X58715D01*
X58730Y58584D01*
Y58612D01*
X58701Y58641D01*
X58673D01*
X52187Y58820D02*
X52131Y58877D01*
X52074D01*
Y58820D01*
X52131Y58764D01*
X52088Y58749D02*
X52088Y58721D01*
X52060Y58693D01*
X52032D01*
X52018Y58707D01*
Y58735D01*
X52032Y58749D01*
X52018Y58735D01*
X51989Y58735D01*
X51975Y58749D01*
Y58778D01*
X52004Y58806D01*
X52032D01*
X52004Y58665D02*
X52004Y58636D01*
X51975Y58608D01*
X51947D01*
X51890Y58665D01*
Y58693D01*
X51919Y58721D01*
X51947D01*
X52004Y58665D01*
X51848Y58651D02*
X51820Y58622D01*
X51834Y58636D01*
X51919Y58552D01*
Y58580D01*
X53588Y56635D02*
X53673Y56550D01*
X53730Y56607D01*
X53687Y56706D02*
X53687Y56734D01*
X53716Y56762D01*
X53744D01*
X53758Y56748D01*
Y56720D01*
X53744Y56706D01*
X53758Y56720D01*
X53786Y56720D01*
X53800Y56706D01*
Y56678D01*
X53772Y56649D01*
X53744D01*
X53772Y56791D02*
X53772Y56819D01*
X53800Y56847D01*
X53829D01*
X53885Y56791D01*
Y56762D01*
X53857Y56734D01*
X53829D01*
X53772Y56791D01*
X53899Y56946D02*
X53843Y56890D01*
X53885Y56847D01*
X53899Y56890D01*
X53914Y56904D01*
X53942D01*
X53970Y56875D01*
X53970Y56847D01*
X53942Y56819D01*
X53914D01*
X58108Y58292D02*
X58080D01*
X58051Y58263D01*
X58051Y58235D01*
X58108Y58179D01*
X58136D01*
X58164Y58207D01*
X58164Y58235D01*
X58136Y58320D02*
X58136Y58348D01*
X58164Y58377D01*
X58193D01*
X58207Y58362D01*
Y58334D01*
X58193Y58320D01*
X58207Y58334D01*
X58235Y58334D01*
X58249Y58320D01*
Y58292D01*
X58221Y58263D01*
X58193D01*
X58221Y58405D02*
X58221Y58433D01*
X58249Y58461D01*
X58278D01*
X58292Y58447D01*
Y58419D01*
X58278Y58405D01*
X58292Y58419D01*
X58320D01*
X58334Y58405D01*
Y58377D01*
X58306Y58348D01*
X58278D01*
X58377Y58419D02*
X58405Y58447D01*
X58391Y58433D01*
X58306Y58518D01*
Y58490D01*
X56632Y56950D02*
X56547Y56865D01*
X56604Y56809D01*
X56703Y56851D02*
X56731Y56851D01*
X56759Y56823D01*
Y56795D01*
X56745Y56780D01*
X56717D01*
X56703Y56795D01*
X56717Y56780D01*
X56717Y56752D01*
X56703Y56738D01*
X56674D01*
X56646Y56766D01*
Y56795D01*
X56788Y56766D02*
X56816Y56766D01*
X56844Y56738D01*
Y56710D01*
X56788Y56653D01*
X56759D01*
X56731Y56681D01*
Y56710D01*
X56788Y56766D01*
X56943Y56639D02*
X56901Y56653D01*
X56844D01*
X56816Y56625D01*
Y56597D01*
X56844Y56568D01*
X56872Y56568D01*
X56887Y56582D01*
X56887Y56611D01*
X56844Y56653D01*
X57014Y54194D02*
X57098Y54109D01*
X57155Y54166D01*
X57113Y54265D02*
X57113Y54293D01*
X57141Y54321D01*
X57169D01*
X57183Y54307D01*
Y54279D01*
X57169Y54265D01*
X57183Y54279D01*
X57212Y54279D01*
X57226Y54265D01*
Y54237D01*
X57197Y54208D01*
X57169D01*
X57197Y54350D02*
X57197Y54378D01*
X57226Y54406D01*
X57254D01*
X57310Y54350D01*
Y54321D01*
X57282Y54293D01*
X57254D01*
X57197Y54350D01*
X57268Y54449D02*
X57325Y54505D01*
X57339Y54491D01*
Y54378D01*
X57353Y54364D01*
X58210Y52470D02*
Y52498D01*
X58182Y52526D01*
X58153Y52526D01*
X58097Y52470D01*
Y52442D01*
X58125Y52413D01*
X58153Y52413D01*
X58238Y52442D02*
X58266Y52442D01*
X58295Y52413D01*
Y52385D01*
X58281Y52371D01*
X58252D01*
X58238Y52385D01*
X58252Y52371D01*
X58252Y52343D01*
X58238Y52329D01*
X58210D01*
X58182Y52357D01*
Y52385D01*
X58323Y52357D02*
X58351Y52357D01*
X58380Y52329D01*
Y52300D01*
X58365Y52286D01*
X58337D01*
X58323Y52300D01*
X58337Y52286D01*
Y52258D01*
X58323Y52244D01*
X58295D01*
X58266Y52272D01*
Y52300D01*
X58394Y52145D02*
X58337Y52201D01*
X58450D01*
X58464Y52215D01*
Y52244D01*
X58436Y52272D01*
X58408D01*
X58580Y25929D02*
X58552D01*
X58524Y25901D01*
X58524Y25873D01*
X58580Y25816D01*
X58609D01*
X58637Y25845D01*
X58637Y25873D01*
X58609Y25958D02*
X58609Y25986D01*
X58637Y26014D01*
X58665D01*
X58679Y26000D01*
Y25972D01*
X58665Y25958D01*
X58679Y25972D01*
X58708Y25972D01*
X58722Y25958D01*
Y25929D01*
X58693Y25901D01*
X58665D01*
X58693Y26043D02*
X58693Y26071D01*
X58722Y26099D01*
X58750D01*
X58764Y26085D01*
Y26057D01*
X58750Y26043D01*
X58764Y26057D01*
X58792D01*
X58807Y26043D01*
Y26014D01*
X58778Y25986D01*
X58750D01*
X58778Y26127D02*
Y26156D01*
X58807Y26184D01*
X58835D01*
X58849Y26170D01*
Y26142D01*
X58835Y26127D01*
X58849Y26142D01*
X58877Y26142D01*
X58891Y26127D01*
X58891Y26099D01*
X58863Y26071D01*
X58835D01*
X56671Y25100D02*
X56587Y25015D01*
X56643Y24958D01*
X56742Y25001D02*
X56770Y25001D01*
X56799Y24972D01*
Y24944D01*
X56785Y24930D01*
X56756D01*
X56742Y24944D01*
X56756Y24930D01*
X56756Y24902D01*
X56742Y24888D01*
X56714D01*
X56686Y24916D01*
Y24944D01*
X56827Y24916D02*
X56855Y24916D01*
X56884Y24888D01*
Y24859D01*
X56827Y24803D01*
X56799D01*
X56770Y24831D01*
Y24859D01*
X56827Y24916D01*
X56912Y24831D02*
X56940D01*
X56968Y24803D01*
Y24774D01*
X56954Y24760D01*
X56926D01*
X56926Y24732D01*
X56912Y24718D01*
X56884Y24718D01*
X56855Y24746D01*
Y24774D01*
X56869Y24789D01*
X56898D01*
X56898Y24817D01*
X56912Y24831D01*
X56898Y24789D02*
X56926Y24760D01*
X57368Y22659D02*
X57453Y22574D01*
X57509Y22630D01*
X57467Y22729D02*
X57467Y22758D01*
X57495Y22786D01*
X57523D01*
X57538Y22772D01*
Y22744D01*
X57523Y22729D01*
X57538Y22744D01*
X57566Y22744D01*
X57580Y22729D01*
Y22701D01*
X57552Y22673D01*
X57523D01*
X57552Y22814D02*
X57552Y22843D01*
X57580Y22871D01*
X57608D01*
X57665Y22814D01*
Y22786D01*
X57637Y22758D01*
X57608D01*
X57552Y22814D01*
X57693Y22843D02*
X57721D01*
X57750Y22871D01*
X57750Y22899D01*
X57693Y22956D01*
X57665D01*
X57637Y22927D01*
Y22899D01*
X57651Y22885D01*
X57679Y22885D01*
X57721Y22927D01*
X58328Y20620D02*
Y20648D01*
X58300Y20676D01*
X58271Y20676D01*
X58215Y20620D01*
Y20591D01*
X58243Y20563D01*
X58271Y20563D01*
X58356Y20591D02*
X58385Y20591D01*
X58413Y20563D01*
Y20535D01*
X58399Y20521D01*
X58370D01*
X58356Y20535D01*
X58370Y20521D01*
X58370Y20492D01*
X58356Y20478D01*
X58328D01*
X58300Y20506D01*
Y20535D01*
X58441Y20506D02*
X58469Y20506D01*
X58498Y20478D01*
Y20450D01*
X58484Y20436D01*
X58455D01*
X58441Y20450D01*
X58455Y20436D01*
Y20407D01*
X58441Y20393D01*
X58413D01*
X58385Y20422D01*
Y20450D01*
X58498Y20308D02*
X58583Y20393D01*
X58498D01*
X58554Y20337D01*
X54191Y21674D02*
X54106Y21590D01*
X54163Y21533D01*
X54262Y21576D02*
X54290Y21576D01*
X54318Y21547D01*
Y21519D01*
X54304Y21505D01*
X54276D01*
X54262Y21519D01*
X54276Y21505D01*
X54276Y21477D01*
X54262Y21462D01*
X54234D01*
X54205Y21491D01*
Y21519D01*
X54276Y21420D02*
X54304Y21392D01*
X54290Y21406D01*
X54375Y21491D01*
X54347Y21491D01*
X54417Y21420D02*
X54446Y21420D01*
X54474Y21392D01*
Y21363D01*
X54417Y21307D01*
X54389D01*
X54361Y21335D01*
Y21363D01*
X54417Y21420D01*
X52635Y20063D02*
X52607D01*
X52579Y20035D01*
X52579Y20007D01*
X52635Y19950D01*
X52664D01*
X52692Y19979D01*
X52692Y20007D01*
X52664Y20092D02*
X52664Y20120D01*
X52692Y20148D01*
X52720D01*
X52734Y20134D01*
Y20106D01*
X52720Y20092D01*
X52734Y20106D01*
X52763Y20106D01*
X52777Y20092D01*
Y20063D01*
X52749Y20035D01*
X52720D01*
X52749Y20176D02*
X52749Y20205D01*
X52777Y20233D01*
X52805D01*
X52819Y20219D01*
Y20191D01*
X52805Y20176D01*
X52819Y20191D01*
X52848D01*
X52862Y20176D01*
Y20148D01*
X52833Y20120D01*
X52805D01*
X52876Y20332D02*
X52819Y20275D01*
X52862Y20233D01*
X52876Y20275D01*
X52890Y20290D01*
X52918D01*
X52947Y20261D01*
X52947Y20233D01*
X52918Y20205D01*
X52890D01*
X24691Y21832D02*
X24776Y21747D01*
X24832Y21804D01*
X24790Y21903D02*
X24790Y21931D01*
X24818Y21959D01*
X24846D01*
X24860Y21945D01*
Y21917D01*
X24846Y21903D01*
X24860Y21917D01*
X24889Y21917D01*
X24903Y21903D01*
Y21874D01*
X24875Y21846D01*
X24846D01*
X24945Y21917D02*
X24974Y21945D01*
X24959Y21931D01*
X24875Y22016D01*
X24875Y21987D01*
X25016D02*
X25044Y22016D01*
X25030Y22002D01*
X24945Y22086D01*
X24945Y22058D01*
X25926Y20108D02*
Y20136D01*
X25898Y20164D01*
X25870Y20164D01*
X25813Y20108D01*
Y20079D01*
X25842Y20051D01*
X25870Y20051D01*
X25955Y20079D02*
X25983Y20079D01*
X26011Y20051D01*
Y20023D01*
X25997Y20009D01*
X25969D01*
X25955Y20023D01*
X25969Y20009D01*
X25969Y19980D01*
X25955Y19966D01*
X25926D01*
X25898Y19995D01*
Y20023D01*
X26040Y19995D02*
X26068Y19995D01*
X26096Y19966D01*
Y19938D01*
X26082Y19924D01*
X26054D01*
X26040Y19938D01*
X26054Y19924D01*
Y19896D01*
X26040Y19882D01*
X26011D01*
X25983Y19910D01*
Y19938D01*
X26195Y19867D02*
X26153Y19882D01*
X26096D01*
X26068Y19853D01*
Y19825D01*
X26096Y19797D01*
X26124Y19797D01*
X26139Y19811D01*
X26139Y19839D01*
X26096Y19882D01*
X20746Y19945D02*
X20717D01*
X20689Y19917D01*
X20689Y19889D01*
X20746Y19832D01*
X20774D01*
X20802Y19860D01*
X20802Y19889D01*
X20774Y19973D02*
X20774Y20002D01*
X20802Y20030D01*
X20831D01*
X20845Y20016D01*
Y19988D01*
X20831Y19973D01*
X20845Y19988D01*
X20873Y19988D01*
X20887Y19973D01*
Y19945D01*
X20859Y19917D01*
X20831D01*
X20859Y20058D02*
X20859Y20087D01*
X20887Y20115D01*
X20915D01*
X20929Y20101D01*
Y20072D01*
X20915Y20058D01*
X20929Y20072D01*
X20958D01*
X20972Y20058D01*
Y20030D01*
X20944Y20002D01*
X20915D01*
X20929Y20157D02*
X20986Y20214D01*
X21000Y20200D01*
Y20087D01*
X21014Y20072D01*
X21868Y22108D02*
X21783Y22023D01*
X21840Y21966D01*
X21939Y22009D02*
X21967Y22009D01*
X21996Y21980D01*
Y21952D01*
X21981Y21938D01*
X21953D01*
X21939Y21952D01*
X21953Y21938D01*
X21953Y21910D01*
X21939Y21895D01*
X21911D01*
X21882Y21924D01*
Y21952D01*
X21953Y21853D02*
X21981Y21825D01*
X21967Y21839D01*
X22052Y21924D01*
X22024Y21924D01*
X22080Y21726D02*
X22024Y21782D01*
X22137D01*
X22151Y21797D01*
Y21825D01*
X22123Y21853D01*
X22094Y21853D01*
X21305Y24312D02*
X21390Y24227D01*
X21446Y24284D01*
X21404Y24383D02*
X21404Y24411D01*
X21432Y24439D01*
X21460D01*
X21475Y24425D01*
Y24397D01*
X21460Y24383D01*
X21475Y24397D01*
X21503Y24397D01*
X21517Y24383D01*
Y24355D01*
X21489Y24326D01*
X21460D01*
X21559Y24397D02*
X21588Y24425D01*
X21574Y24411D01*
X21489Y24496D01*
X21489Y24468D01*
X21559Y24538D02*
X21559Y24567D01*
X21588Y24595D01*
X21616D01*
X21630Y24581D01*
Y24553D01*
X21616Y24538D01*
X21630Y24553D01*
X21658D01*
X21673Y24538D01*
Y24510D01*
X21644Y24482D01*
X21616D01*
X20021Y26053D02*
Y26081D01*
X19993Y26109D01*
X19964Y26109D01*
X19908Y26053D01*
Y26024D01*
X19936Y25996D01*
X19964Y25996D01*
X20049Y26024D02*
X20077Y26024D01*
X20106Y25996D01*
Y25968D01*
X20092Y25954D01*
X20063D01*
X20049Y25968D01*
X20063Y25954D01*
X20063Y25925D01*
X20049Y25911D01*
X20021D01*
X19993Y25940D01*
Y25968D01*
X20134Y25940D02*
X20162Y25940D01*
X20191Y25911D01*
Y25883D01*
X20176Y25869D01*
X20148D01*
X20134Y25883D01*
X20148Y25869D01*
Y25841D01*
X20134Y25826D01*
X20106D01*
X20077Y25855D01*
Y25883D01*
X20219Y25855D02*
X20247D01*
X20275Y25826D01*
Y25798D01*
X20261Y25784D01*
X20233D01*
X20233Y25756D01*
X20219Y25742D01*
X20191Y25742D01*
X20162Y25770D01*
Y25798D01*
X20176Y25812D01*
X20205D01*
X20205Y25841D01*
X20219Y25855D01*
X20205Y25812D02*
X20233Y25784D01*
X19880Y52701D02*
X19851D01*
X19823Y52673D01*
X19823Y52645D01*
X19880Y52588D01*
X19908D01*
X19936Y52616D01*
X19936Y52645D01*
X19908Y52729D02*
X19908Y52758D01*
X19936Y52786D01*
X19964D01*
X19979Y52772D01*
Y52744D01*
X19964Y52729D01*
X19979Y52744D01*
X20007Y52744D01*
X20021Y52729D01*
Y52701D01*
X19993Y52673D01*
X19964D01*
X19993Y52814D02*
X19993Y52843D01*
X20021Y52871D01*
X20049D01*
X20063Y52857D01*
Y52828D01*
X20049Y52814D01*
X20063Y52828D01*
X20092D01*
X20106Y52814D01*
Y52786D01*
X20077Y52758D01*
X20049D01*
X20134Y52843D02*
X20162D01*
X20191Y52871D01*
X20191Y52899D01*
X20134Y52956D01*
X20106D01*
X20077Y52927D01*
Y52899D01*
X20092Y52885D01*
X20120Y52885D01*
X20162Y52927D01*
X21908Y53879D02*
X21823Y53794D01*
X21879Y53738D01*
X21978Y53780D02*
X22007Y53780D01*
X22035Y53752D01*
Y53724D01*
X22021Y53710D01*
X21992D01*
X21978Y53724D01*
X21992Y53710D01*
X21992Y53681D01*
X21978Y53667D01*
X21950D01*
X21922Y53695D01*
Y53724D01*
X21992Y53625D02*
X22021Y53596D01*
X22007Y53611D01*
X22091Y53695D01*
X22063Y53695D01*
X22106Y53512D02*
X22190Y53596D01*
X22106D01*
X22162Y53540D01*
X19942Y57903D02*
Y57931D01*
X19914Y57960D01*
X19886Y57960D01*
X19829Y57903D01*
Y57875D01*
X19857Y57846D01*
X19886Y57846D01*
X19970Y57875D02*
X19999Y57875D01*
X20027Y57846D01*
Y57818D01*
X20013Y57804D01*
X19985D01*
X19970Y57818D01*
X19985Y57804D01*
X19985Y57776D01*
X19970Y57762D01*
X19942D01*
X19914Y57790D01*
Y57818D01*
X20027Y57677D02*
X20112Y57762D01*
X20027D01*
X20084Y57705D01*
X20140D02*
X20168D01*
X20197Y57677D01*
Y57649D01*
X20140Y57592D01*
X20112Y57592D01*
X20084Y57620D01*
Y57649D01*
X20140Y57705D01*
X20872Y55769D02*
X20957Y55684D01*
X21013Y55741D01*
X20971Y55840D02*
X20971Y55868D01*
X20999Y55896D01*
X21027D01*
X21042Y55882D01*
Y55854D01*
X21027Y55840D01*
X21042Y55854D01*
X21070Y55854D01*
X21084Y55840D01*
Y55811D01*
X21056Y55783D01*
X21027D01*
X21126Y55854D02*
X21155Y55882D01*
X21140Y55868D01*
X21056Y55953D01*
X21056Y55924D01*
X21169Y56066D02*
X21112Y56009D01*
X21155Y55967D01*
X21169Y56009D01*
X21183Y56023D01*
X21211D01*
X21239Y55995D01*
Y55967D01*
X21211Y55939D01*
X21183D01*
X25175Y56517D02*
X25091Y56432D01*
X25147Y56376D01*
X25246Y56418D02*
X25274Y56418D01*
X25303Y56390D01*
Y56361D01*
X25288Y56347D01*
X25260D01*
X25246Y56361D01*
X25260Y56347D01*
X25260Y56319D01*
X25246Y56305D01*
X25218D01*
X25190Y56333D01*
Y56361D01*
X25260Y56263D02*
X25288Y56234D01*
X25274Y56248D01*
X25359Y56333D01*
X25331Y56333D01*
X25472Y56220D02*
X25430Y56234D01*
X25373D01*
X25345Y56206D01*
Y56178D01*
X25373Y56149D01*
X25402D01*
X25416Y56164D01*
Y56192D01*
X25373Y56234D01*
X26179Y58213D02*
X26151D01*
X26122Y58185D01*
X26122Y58156D01*
X26179Y58100D01*
X26207D01*
X26235Y58128D01*
X26235Y58156D01*
X26207Y58241D02*
X26207Y58269D01*
X26235Y58298D01*
X26264D01*
X26278Y58284D01*
Y58255D01*
X26264Y58241D01*
X26278Y58255D01*
X26306Y58255D01*
X26320Y58241D01*
Y58213D01*
X26292Y58185D01*
X26264D01*
X26405Y58298D02*
X26320Y58383D01*
Y58298D01*
X26377Y58354D01*
X26447Y58340D02*
X26476Y58368D01*
X26462Y58354D01*
X26377Y58439D01*
Y58411D01*
X52304Y58454D02*
Y58482D01*
X52276Y58511D01*
X52248Y58511D01*
X52191Y58454D01*
Y58426D01*
X52220Y58398D01*
X52248Y58398D01*
X52333Y58426D02*
X52361Y58426D01*
X52389Y58398D01*
Y58369D01*
X52375Y58355D01*
X52347D01*
X52333Y58369D01*
X52347Y58355D01*
X52347Y58327D01*
X52333Y58313D01*
X52304D01*
X52276Y58341D01*
Y58369D01*
X52418Y58341D02*
X52446Y58341D01*
X52474Y58313D01*
Y58285D01*
X52460Y58270D01*
X52432D01*
X52418Y58285D01*
X52432Y58270D01*
Y58242D01*
X52418Y58228D01*
X52389D01*
X52361Y58256D01*
Y58285D01*
X52502Y58256D02*
X52531D01*
X52559Y58228D01*
Y58200D01*
X52502Y58143D01*
X52474Y58143D01*
X52446Y58171D01*
Y58200D01*
X52502Y58256D01*
X39146Y26906D02*
Y26786D01*
X39226D01*
X39346Y26906D02*
X39266D01*
Y26786D01*
X39346D01*
X39266Y26846D02*
X39306D01*
X39386Y26906D02*
Y26786D01*
X39446D01*
X39466Y26806D01*
Y26886D01*
X39446Y26906D01*
X39386D01*
X39566Y26786D02*
Y26906D01*
X39506Y26846D01*
X39586D01*
X39626Y26886D02*
X39646Y26906D01*
X39685D01*
X39705Y26886D01*
Y26806D01*
X39685Y26786D01*
X39646D01*
X39626Y26806D01*
Y26886D01*
X39745Y26786D02*
X39785D01*
X39765D01*
Y26906D01*
X39745Y26886D01*
X54027Y56558D02*
X54112Y56642D01*
X54154Y56600D01*
Y56572D01*
X54126Y56543D01*
X54097Y56543D01*
X54055Y56586D01*
X54083Y56558D02*
Y56501D01*
X54182Y56543D02*
X54211Y56543D01*
X54239Y56515D01*
Y56487D01*
X54225Y56473D01*
X54196D01*
X54182Y56487D01*
X54196Y56473D01*
X54196Y56445D01*
X54182Y56430D01*
X54154D01*
X54126Y56459D01*
Y56487D01*
X54267Y56459D02*
X54295Y56459D01*
X54324Y56430D01*
Y56402D01*
X54267Y56346D01*
X54239D01*
X54211Y56374D01*
Y56402D01*
X54267Y56459D01*
X54281Y56303D02*
X54309Y56275D01*
X54295Y56289D01*
X54380Y56374D01*
X54352D01*
X56277Y56313D02*
X56192Y56398D01*
X56234Y56440D01*
X56263D01*
X56291Y56412D01*
X56291Y56383D01*
X56248Y56341D01*
X56277Y56369D02*
X56333D01*
X56291Y56468D02*
X56291Y56496D01*
X56319Y56525D01*
X56347D01*
X56362Y56511D01*
Y56482D01*
X56347Y56468D01*
X56362Y56482D01*
X56390Y56482D01*
X56404Y56468D01*
Y56440D01*
X56376Y56412D01*
X56347D01*
X56376Y56553D02*
X56376Y56581D01*
X56404Y56610D01*
X56432D01*
X56489Y56553D01*
Y56525D01*
X56461Y56496D01*
X56432D01*
X56376Y56553D01*
X56574Y56610D02*
X56489Y56694D01*
Y56610D01*
X56545Y56666D01*
X56628Y54643D02*
X56713Y54727D01*
X56755Y54685D01*
Y54657D01*
X56727Y54628D01*
X56698Y54628D01*
X56656Y54671D01*
X56684Y54643D02*
Y54586D01*
X56783Y54628D02*
X56812Y54628D01*
X56840Y54600D01*
Y54572D01*
X56826Y54558D01*
X56797D01*
X56783Y54572D01*
X56797Y54558D01*
X56797Y54529D01*
X56783Y54515D01*
X56755D01*
X56727Y54544D01*
Y54572D01*
X56868Y54544D02*
X56896Y54544D01*
X56925Y54515D01*
Y54487D01*
X56868Y54430D01*
X56840D01*
X56812Y54459D01*
Y54487D01*
X56868Y54544D01*
X56967Y54473D02*
X57024Y54416D01*
X57010Y54402D01*
X56896D01*
X56882Y54388D01*
X54492Y21723D02*
X54407Y21808D01*
X54450Y21850D01*
X54478D01*
X54506Y21822D01*
X54506Y21794D01*
X54464Y21751D01*
X54492Y21780D02*
X54549D01*
X54506Y21879D02*
X54506Y21907D01*
X54534Y21935D01*
X54563D01*
X54577Y21921D01*
Y21893D01*
X54563Y21879D01*
X54577Y21893D01*
X54605Y21893D01*
X54619Y21879D01*
Y21850D01*
X54591Y21822D01*
X54563D01*
X54662Y21893D02*
X54690Y21921D01*
X54676Y21907D01*
X54591Y21992D01*
X54591Y21964D01*
X54704Y22105D02*
X54690Y22063D01*
Y22006D01*
X54718Y21978D01*
X54746D01*
X54775Y22006D01*
Y22034D01*
X54761Y22048D01*
X54732D01*
X54690Y22006D01*
X56657Y22860D02*
X56742Y22945D01*
X56784Y22903D01*
Y22875D01*
X56756Y22846D01*
X56728Y22846D01*
X56685Y22889D01*
X56713Y22860D02*
Y22804D01*
X56812Y22846D02*
X56841Y22846D01*
X56869Y22818D01*
Y22790D01*
X56855Y22776D01*
X56827D01*
X56812Y22790D01*
X56827Y22776D01*
X56827Y22747D01*
X56812Y22733D01*
X56784D01*
X56756Y22761D01*
Y22790D01*
X56827Y22691D02*
X56855Y22663D01*
X56841Y22677D01*
X56925Y22761D01*
X56897Y22761D01*
X56968Y22691D02*
X56996Y22691D01*
X57024Y22663D01*
Y22634D01*
X57010Y22620D01*
X56982D01*
X56968Y22634D01*
X56982Y22620D01*
Y22592D01*
X56968Y22578D01*
X56940D01*
X56911Y22606D01*
Y22634D01*
X56362Y24326D02*
X56277Y24411D01*
X56320Y24453D01*
X56348D01*
X56376Y24425D01*
X56376Y24397D01*
X56334Y24354D01*
X56362Y24383D02*
X56419D01*
X56376Y24482D02*
X56376Y24510D01*
X56404Y24538D01*
X56433D01*
X56447Y24524D01*
Y24496D01*
X56433Y24482D01*
X56447Y24496D01*
X56475Y24496D01*
X56489Y24482D01*
Y24453D01*
X56461Y24425D01*
X56433D01*
X56532Y24496D02*
X56560Y24524D01*
X56546Y24510D01*
X56461Y24595D01*
X56461Y24567D01*
X56532Y24637D02*
X56532Y24665D01*
X56560Y24694D01*
X56588D01*
X56645Y24637D01*
Y24609D01*
X56617Y24581D01*
X56588D01*
X56532Y24637D01*
X21656Y24236D02*
X21741Y24321D01*
X21783Y24279D01*
Y24251D01*
X21755Y24222D01*
X21727Y24222D01*
X21684Y24265D01*
X21712Y24236D02*
Y24180D01*
X21811Y24222D02*
X21840Y24222D01*
X21868Y24194D01*
Y24166D01*
X21854Y24152D01*
X21825D01*
X21811Y24166D01*
X21825Y24152D01*
X21825Y24123D01*
X21811Y24109D01*
X21783D01*
X21755Y24137D01*
Y24166D01*
X21882Y24010D02*
X21825Y24067D01*
X21939D01*
X21953Y24081D01*
Y24109D01*
X21924Y24137D01*
X21896Y24137D01*
X22052Y24010D02*
X21995Y24067D01*
X21953Y24024D01*
X21995Y24010D01*
X22009Y23996D01*
Y23968D01*
X21981Y23940D01*
X21953Y23940D01*
X21924Y23968D01*
Y23996D01*
X22243Y22020D02*
X22159Y22104D01*
X22201Y22147D01*
X22229D01*
X22258Y22119D01*
X22258Y22090D01*
X22215Y22048D01*
X22243Y22076D02*
X22300D01*
X22258Y22175D02*
X22258Y22203D01*
X22286Y22232D01*
X22314D01*
X22328Y22218D01*
Y22189D01*
X22314Y22175D01*
X22328Y22189D01*
X22357Y22189D01*
X22371Y22175D01*
Y22147D01*
X22342Y22119D01*
X22314D01*
X22470Y22246D02*
X22413Y22189D01*
Y22302D01*
X22399Y22316D01*
X22371D01*
X22342Y22288D01*
X22342Y22260D01*
X22554Y22331D02*
X22498Y22274D01*
Y22387D01*
X22484Y22401D01*
X22455D01*
X22427Y22373D01*
Y22345D01*
X24309Y22322D02*
X24394Y22407D01*
X24436Y22365D01*
Y22336D01*
X24408Y22308D01*
X24380Y22308D01*
X24337Y22351D01*
X24365Y22322D02*
Y22266D01*
X24464Y22308D02*
X24493Y22308D01*
X24521Y22280D01*
Y22252D01*
X24507Y22237D01*
X24479D01*
X24464Y22252D01*
X24479Y22237D01*
X24479Y22209D01*
X24464Y22195D01*
X24436D01*
X24408Y22223D01*
Y22252D01*
X24479Y22153D02*
X24507Y22124D01*
X24493Y22138D01*
X24578Y22223D01*
X24549Y22223D01*
X24563Y22096D02*
Y22068D01*
X24592Y22040D01*
X24620D01*
X24677Y22096D01*
Y22124D01*
X24648Y22153D01*
X24620Y22153D01*
X24606Y22138D01*
Y22110D01*
X24648Y22068D01*
X23995Y56654D02*
X23910Y56739D01*
X23952Y56782D01*
X23981D01*
X24009Y56753D01*
X24009Y56725D01*
X23967Y56683D01*
X23995Y56711D02*
X24051D01*
X24009Y56810D02*
X24009Y56838D01*
X24037Y56866D01*
X24065D01*
X24080Y56852D01*
Y56824D01*
X24065Y56810D01*
X24080Y56824D01*
X24108Y56824D01*
X24122Y56810D01*
Y56782D01*
X24094Y56753D01*
X24065D01*
X24094Y56895D02*
X24094Y56923D01*
X24122Y56951D01*
X24150D01*
X24164Y56937D01*
Y56909D01*
X24150Y56895D01*
X24164Y56909D01*
X24193D01*
X24207Y56895D01*
Y56866D01*
X24179Y56838D01*
X24150D01*
X24292Y56951D02*
X24207Y57036D01*
Y56951D01*
X24263Y57008D01*
X22055Y56448D02*
X22140Y56533D01*
X22182Y56491D01*
Y56463D01*
X22154Y56434D01*
X22126Y56434D01*
X22083Y56477D01*
X22112Y56448D02*
Y56392D01*
X22211Y56434D02*
X22239Y56434D01*
X22267Y56406D01*
Y56378D01*
X22253Y56364D01*
X22225D01*
X22211Y56378D01*
X22225Y56364D01*
X22225Y56335D01*
X22211Y56321D01*
X22182D01*
X22154Y56350D01*
Y56378D01*
X22295Y56350D02*
X22324Y56350D01*
X22352Y56321D01*
Y56293D01*
X22338Y56279D01*
X22309D01*
X22295Y56293D01*
X22309Y56279D01*
Y56251D01*
X22295Y56236D01*
X22267D01*
X22239Y56265D01*
Y56293D01*
X22309Y56194D02*
X22338Y56166D01*
X22324Y56180D01*
X22408Y56265D01*
X22380D01*
X22174Y54057D02*
X22089Y54142D01*
X22131Y54185D01*
X22160D01*
X22188Y54156D01*
X22188Y54128D01*
X22145Y54086D01*
X22174Y54114D02*
X22230D01*
X22188Y54213D02*
X22188Y54241D01*
X22216Y54269D01*
X22244D01*
X22259Y54255D01*
Y54227D01*
X22244Y54213D01*
X22259Y54227D01*
X22287Y54227D01*
X22301Y54213D01*
Y54185D01*
X22273Y54156D01*
X22244D01*
X22400Y54284D02*
X22343Y54227D01*
Y54340D01*
X22329Y54354D01*
X22301D01*
X22273Y54326D01*
X22273Y54298D01*
X22358Y54383D02*
Y54411D01*
X22386Y54439D01*
X22414D01*
X22428Y54425D01*
Y54397D01*
X22457Y54397D01*
X22471Y54383D01*
X22471Y54354D01*
X22442Y54326D01*
X22414D01*
X22400Y54340D01*
Y54368D01*
X22372Y54368D01*
X22358Y54383D01*
X22400Y54368D02*
X22428Y54397D01*
X40248Y26117D02*
Y26237D01*
X40308D01*
X40328Y26217D01*
Y26177D01*
X40308Y26157D01*
X40248D01*
X40288D02*
X40328Y26117D01*
X40428D02*
Y26237D01*
X40368Y26177D01*
X40448D01*
X40488Y26217D02*
X40508Y26237D01*
X40548D01*
X40568Y26217D01*
Y26137D01*
X40548Y26117D01*
X40508D01*
X40488Y26137D01*
Y26217D01*
X40688Y26117D02*
X40608D01*
X40688Y26197D01*
Y26217D01*
X40668Y26237D01*
X40628D01*
X40608Y26217D01*
X54021Y53643D02*
X54106Y53558D01*
X54163Y53615D01*
X54120Y53714D02*
X54120Y53742D01*
X54149Y53770D01*
X54177D01*
X54191Y53756D01*
Y53728D01*
X54177Y53714D01*
X54191Y53728D01*
X54219Y53728D01*
X54234Y53714D01*
Y53685D01*
X54205Y53657D01*
X54177D01*
X54205Y53798D02*
X54205Y53827D01*
X54234Y53855D01*
X54262D01*
X54318Y53798D01*
Y53770D01*
X54290Y53742D01*
X54262D01*
X54205Y53798D01*
X54361Y53813D02*
X54389Y53841D01*
X54375Y53827D01*
X54290Y53912D01*
Y53883D01*
X53522Y24706D02*
X53437Y24621D01*
X53494Y24565D01*
X53593Y24607D02*
X53621Y24607D01*
X53649Y24579D01*
Y24550D01*
X53635Y24536D01*
X53607D01*
X53593Y24550D01*
X53607Y24536D01*
X53607Y24508D01*
X53593Y24494D01*
X53564D01*
X53536Y24522D01*
Y24550D01*
X53677Y24522D02*
X53706Y24522D01*
X53734Y24494D01*
Y24466D01*
X53677Y24409D01*
X53649D01*
X53621Y24437D01*
Y24466D01*
X53677Y24522D01*
X53748Y24310D02*
X53691Y24367D01*
X53805D01*
X53819Y24381D01*
Y24409D01*
X53790Y24437D01*
X53762D01*
X24336Y24942D02*
X24421Y24857D01*
X24478Y24914D01*
X24435Y25013D02*
X24435Y25041D01*
X24464Y25069D01*
X24492D01*
X24506Y25055D01*
Y25027D01*
X24492Y25013D01*
X24506Y25027D01*
X24534Y25027D01*
X24548Y25013D01*
Y24985D01*
X24520Y24956D01*
X24492D01*
X24520Y25098D02*
X24520Y25126D01*
X24548Y25154D01*
X24577D01*
X24633Y25098D01*
Y25069D01*
X24605Y25041D01*
X24577D01*
X24520Y25098D01*
X24605Y25183D02*
Y25211D01*
X24633Y25239D01*
X24662D01*
X24676Y25225D01*
Y25197D01*
X24662Y25183D01*
X24676Y25197D01*
X24704Y25197D01*
X24718Y25183D01*
X24718Y25154D01*
X24690Y25126D01*
X24662D01*
X24900Y54352D02*
X24815Y54267D01*
X24872Y54210D01*
X24970Y54253D02*
X24999Y54253D01*
X25027Y54224D01*
Y54196D01*
X25013Y54182D01*
X24985D01*
X24970Y54196D01*
X24985Y54182D01*
X24985Y54154D01*
X24970Y54140D01*
X24942D01*
X24914Y54168D01*
Y54196D01*
X25055Y54168D02*
X25084Y54168D01*
X25112Y54140D01*
Y54111D01*
X25055Y54055D01*
X25027D01*
X24999Y54083D01*
Y54111D01*
X25055Y54168D01*
X25112Y53970D02*
X25197Y54055D01*
X25112D01*
X25168Y53998D01*
X39479Y53441D02*
X39459Y53421D01*
Y53381D01*
X39479Y53361D01*
X39559D01*
X39579Y53381D01*
Y53421D01*
X39559Y53441D01*
X39459Y53561D02*
Y53481D01*
X39519D01*
X39499Y53521D01*
Y53541D01*
X39519Y53561D01*
X39559D01*
X39579Y53541D01*
Y53501D01*
X39559Y53481D01*
X39479Y53601D02*
X39459Y53621D01*
Y53661D01*
X39479Y53681D01*
X39559D01*
X39579Y53661D01*
Y53621D01*
X39559Y53601D01*
X39479D01*
X39579Y53801D02*
Y53721D01*
X39499Y53801D01*
X39479D01*
X39459Y53781D01*
Y53741D01*
X39479Y53721D01*
X39461Y41393D02*
X39581D01*
Y41333D01*
X39561Y41313D01*
X39521D01*
X39501Y41333D01*
Y41393D01*
Y41353D02*
X39461Y41313D01*
X39581Y41193D02*
Y41273D01*
X39521D01*
X39541Y41233D01*
Y41213D01*
X39521Y41193D01*
X39481D01*
X39461Y41213D01*
Y41253D01*
X39481Y41273D01*
X39561Y41153D02*
X39581Y41133D01*
Y41093D01*
X39561Y41073D01*
X39481D01*
X39461Y41093D01*
Y41133D01*
X39481Y41153D01*
X39561D01*
X39581Y40953D02*
Y41033D01*
X39521D01*
X39541Y40993D01*
Y40973D01*
X39521Y40953D01*
X39481D01*
X39461Y40973D01*
Y41013D01*
X39481Y41033D01*
D112*
X48594Y66826D02*
Y67036D01*
X48699Y67141D01*
X48804Y67036D01*
Y66826D01*
Y66983D01*
X48594D01*
X48909Y66826D02*
Y67141D01*
X49119Y66826D01*
Y67141D01*
X49224D02*
X49434D01*
X49329D01*
Y66826D01*
X49539Y66773D02*
X49749D01*
X49854Y66826D02*
X49959D01*
X49906D01*
Y67141D01*
X49854Y67088D01*
X68083Y66826D02*
Y67036D01*
X68188Y67141D01*
X68293Y67036D01*
Y66826D01*
Y66983D01*
X68083D01*
X68398Y66826D02*
Y67141D01*
X68607Y66826D01*
Y67141D01*
X68712D02*
X68922D01*
X68817D01*
Y66826D01*
X69027Y66773D02*
X69237D01*
X69552Y66826D02*
X69342D01*
X69552Y67036D01*
Y67088D01*
X69500Y67141D01*
X69395D01*
X69342Y67088D01*
X68476Y47141D02*
Y47351D01*
X68581Y47456D01*
X68686Y47351D01*
Y47141D01*
Y47298D01*
X68476D01*
X68791Y47141D02*
Y47456D01*
X69001Y47141D01*
Y47456D01*
X69106D02*
X69316D01*
X69211D01*
Y47141D01*
X69421Y47088D02*
X69631D01*
X69736Y47403D02*
X69788Y47456D01*
X69893D01*
X69946Y47403D01*
Y47351D01*
X69893Y47298D01*
X69841D01*
X69893D01*
X69946Y47246D01*
Y47193D01*
X69893Y47141D01*
X69788D01*
X69736Y47193D01*
X68280Y27456D02*
Y27666D01*
X68384Y27771D01*
X68489Y27666D01*
Y27456D01*
Y27613D01*
X68280D01*
X68594Y27456D02*
Y27771D01*
X68804Y27456D01*
Y27771D01*
X68909D02*
X69119D01*
X69014D01*
Y27456D01*
X69224Y27403D02*
X69434D01*
X69696Y27456D02*
Y27771D01*
X69539Y27613D01*
X69749D01*
X68476Y7771D02*
Y7981D01*
X68581Y8086D01*
X68686Y7981D01*
Y7771D01*
Y7928D01*
X68476D01*
X68791Y7771D02*
Y8086D01*
X69001Y7771D01*
Y8086D01*
X69106D02*
X69316D01*
X69211D01*
Y7771D01*
X69421Y7718D02*
X69631D01*
X69946Y8086D02*
X69736D01*
Y7928D01*
X69841Y7981D01*
X69893D01*
X69946Y7928D01*
Y7823D01*
X69893Y7771D01*
X69788D01*
X69736Y7823D01*
X48791Y7771D02*
Y7981D01*
X48896Y8086D01*
X49001Y7981D01*
Y7771D01*
Y7928D01*
X48791D01*
X49106Y7771D02*
Y8086D01*
X49316Y7771D01*
Y8086D01*
X49421D02*
X49631D01*
X49526D01*
Y7771D01*
X49736Y7718D02*
X49946D01*
X50261Y8086D02*
X50156Y8033D01*
X50051Y7928D01*
Y7823D01*
X50103Y7771D01*
X50208D01*
X50261Y7823D01*
Y7876D01*
X50208Y7928D01*
X50051D01*
X28909Y7771D02*
Y7981D01*
X29014Y8086D01*
X29119Y7981D01*
Y7771D01*
Y7928D01*
X28909D01*
X29224Y7771D02*
Y8086D01*
X29434Y7771D01*
Y8086D01*
X29539D02*
X29749D01*
X29644D01*
Y7771D01*
X29854Y7718D02*
X30064D01*
X30169Y8086D02*
X30379D01*
Y8033D01*
X30169Y7823D01*
Y7771D01*
X9421D02*
Y7981D01*
X9526Y8086D01*
X9631Y7981D01*
Y7771D01*
Y7928D01*
X9421D01*
X9736Y7771D02*
Y8086D01*
X9946Y7771D01*
Y8086D01*
X10051D02*
X10261D01*
X10156D01*
Y7771D01*
X10366Y7718D02*
X10576D01*
X10681Y8033D02*
X10733Y8086D01*
X10838D01*
X10891Y8033D01*
Y7981D01*
X10838Y7928D01*
X10891Y7876D01*
Y7823D01*
X10838Y7771D01*
X10733D01*
X10681Y7823D01*
Y7876D01*
X10733Y7928D01*
X10681Y7981D01*
Y8033D01*
X10733Y7928D02*
X10838D01*
X9224Y27456D02*
Y27666D01*
X9329Y27771D01*
X9434Y27666D01*
Y27456D01*
Y27613D01*
X9224D01*
X9539Y27456D02*
Y27771D01*
X9749Y27456D01*
Y27771D01*
X9854D02*
X10064D01*
X9959D01*
Y27456D01*
X10169Y27403D02*
X10379D01*
X10484Y27508D02*
X10536Y27456D01*
X10641D01*
X10694Y27508D01*
Y27718D01*
X10641Y27771D01*
X10536D01*
X10484Y27718D01*
Y27666D01*
X10536Y27613D01*
X10694D01*
X9224Y46944D02*
Y47154D01*
X9329Y47259D01*
X9434Y47154D01*
Y46944D01*
Y47101D01*
X9224D01*
X9539Y46944D02*
Y47259D01*
X9749Y46944D01*
Y47259D01*
X9854D02*
X10064D01*
X9959D01*
Y46944D01*
X10169Y46891D02*
X10379D01*
X10484Y46944D02*
X10589D01*
X10536D01*
Y47259D01*
X10484Y47206D01*
X10746D02*
X10799Y47259D01*
X10904D01*
X10956Y47206D01*
Y46996D01*
X10904Y46944D01*
X10799D01*
X10746Y46996D01*
Y47206D01*
X9421Y66826D02*
Y67036D01*
X9526Y67141D01*
X9631Y67036D01*
Y66826D01*
Y66983D01*
X9421D01*
X9736Y66826D02*
Y67141D01*
X9946Y66826D01*
Y67141D01*
X10051D02*
X10261D01*
X10156D01*
Y66826D01*
X10366Y66773D02*
X10576D01*
X10681Y66826D02*
X10786D01*
X10733D01*
Y67141D01*
X10681Y67088D01*
X10943Y66826D02*
X11048D01*
X10996D01*
Y67141D01*
X10943Y67088D01*
X28713Y67023D02*
Y67233D01*
X28818Y67338D01*
X28923Y67233D01*
Y67023D01*
Y67180D01*
X28713D01*
X29027Y67023D02*
Y67338D01*
X29237Y67023D01*
Y67338D01*
X29342D02*
X29552D01*
X29447D01*
Y67023D01*
X29657Y66970D02*
X29867D01*
X29972Y67023D02*
X30077D01*
X30025D01*
Y67338D01*
X29972Y67285D01*
X30444Y67023D02*
X30234D01*
X30444Y67233D01*
Y67285D01*
X30392Y67338D01*
X30287D01*
X30234Y67285D01*
M02*
