M48
;Layer_Color=9474304
;FILE_FORMAT=2:4
INCH,TZ
;TYPE=PLATED
T2F00S00C0.0120
T3F00S00C0.0276
%
T02
X-1020Y-3590
X-1043Y-2864
X-1516
X148Y-2559
X1211Y-2550
X1208Y-3590
X260
X2472
Y-2590
X4176
Y-3590
X3490
X-1970
X-2500
X-2503Y-2559
X-1912
X-3790Y-2470
Y-3590
Y-1330
Y-60
X-3062Y-157
X-2619Y394
X-2835Y1033
X-2913Y1467
X-2175Y1811
X-2559Y2362
Y3590
X-3790
Y2362
Y984
X-2002Y-1330
X-2337Y-1683
X-709Y-709
X-236
X236
X709
Y-236
X236
X-236
X-709
Y236
X-236
X236
X709
Y709
X236
X-236
X-709
X-709Y1457
X-1191Y1619
X-740Y2710
X-719Y3590
X-1575
X757
X1570
X1589Y2917
X758Y2254
X404Y2263
X404Y1634
X2160Y1804
X2539Y1427
X2539Y1073
X2913Y1053
X2600Y717
X2204Y738
X1506Y758
X2569Y-39
X2825Y-797
X3490Y-590
X3566Y-79
X4176
Y-590
Y-1590
X3490
X3496Y-1855
X2786Y-1855
X2472Y-1590
X1545Y-1821
X1496Y-2234
X1417Y-1378
X404Y-1821
X404Y-2244
X3566Y679
X4176
Y1590
X3570
Y2590
X4176
Y3590
X3570
X2570
T03
X2906Y-3122
X3406
M30
