G04*
G04 #@! TF.GenerationSoftware,Altium Limited,Altium Designer,19.0.15 (446)*
G04*
G04 Layer_Color=65535*
%FSLAX24Y24*%
%MOIN*%
G70*
G01*
G75*
%ADD10C,0.0098*%
%ADD11C,0.0060*%
%ADD12C,0.0079*%
G36*
X-1181Y1378D02*
X-1378Y1181D01*
Y1378D01*
X-1181Y1378D01*
D02*
G37*
D10*
X-1699Y1083D02*
G03*
X-1699Y1083I-49J0D01*
G01*
D11*
X1654Y935D02*
Y1211D01*
X2362Y935D02*
Y1211D01*
X2106Y935D02*
X2362D01*
X1654D02*
X1909D01*
X2106Y1211D02*
X2362D01*
X1654D02*
X1909D01*
X3834Y164D02*
Y440D01*
X3126Y164D02*
Y440D01*
X3382D01*
X3578D02*
X3834D01*
X3126Y164D02*
X3382D01*
X3578D02*
X3834D01*
X2778Y166D02*
X2778Y422D01*
X2778Y874D02*
X2778Y618D01*
X3054Y166D02*
Y422D01*
X3054Y618D02*
X3054Y874D01*
X2778D02*
X3054D01*
X2778Y166D02*
X3054D01*
X2706Y164D02*
Y440D01*
X1998Y164D02*
Y440D01*
X2254Y440D01*
X2450Y440D02*
X2706D01*
X1998Y164D02*
X2254D01*
X2450D02*
X2706D01*
X1654Y148D02*
Y404D01*
Y601D02*
Y856D01*
X1930Y148D02*
Y404D01*
Y601D02*
Y856D01*
X1654D02*
X1930D01*
X1654Y148D02*
X1930D01*
X207Y1762D02*
Y2037D01*
X915Y1762D02*
Y2037D01*
X659Y1762D02*
X915D01*
X207D02*
X463D01*
X659Y2037D02*
X915D01*
X207D02*
X463D01*
X1053Y-2372D02*
X1329D01*
X1053Y-1663D02*
X1329D01*
Y-1919D02*
Y-1663D01*
Y-2372D02*
Y-2116D01*
X1053Y-1919D02*
Y-1663D01*
Y-2372D02*
Y-2116D01*
X-39Y-2372D02*
X236D01*
X-39Y-1663D02*
X236D01*
Y-1919D02*
Y-1663D01*
Y-2372D02*
Y-2116D01*
X-39Y-1919D02*
Y-1663D01*
Y-2372D02*
Y-2116D01*
X-2156Y-2411D02*
X-1762D01*
X-2156Y-1486D02*
X-1762D01*
Y-1850D02*
Y-1486D01*
Y-2411D02*
Y-2047D01*
X-2156Y-1850D02*
Y-1486D01*
Y-2411D02*
Y-2047D01*
X-2687Y-2411D02*
X-2293D01*
X-2687Y-1486D02*
X-2293D01*
Y-1850D02*
Y-1486D01*
Y-2411D02*
Y-2047D01*
X-2687Y-1850D02*
Y-1486D01*
Y-2411D02*
Y-2047D01*
X2677Y-925D02*
Y-650D01*
X1968Y-925D02*
Y-650D01*
X2224D01*
X2421D02*
X2677D01*
X1968Y-925D02*
X2224D01*
X2421D02*
X2677D01*
X2362Y1289D02*
Y1565D01*
X1654Y1289D02*
Y1565D01*
X1909D01*
X2106D02*
X2362D01*
X1654Y1289D02*
X1909D01*
X2106D02*
X2362D01*
X2437Y2006D02*
X2712D01*
X2437Y2715D02*
X2712D01*
Y2459D02*
Y2715D01*
Y2006D02*
Y2262D01*
X2437Y2459D02*
Y2715D01*
Y2006D02*
Y2262D01*
X1812Y2707D02*
X1937D01*
X1449Y2337D02*
Y2384D01*
X1812Y2014D02*
X1937D01*
X2300Y2337D02*
Y2384D01*
X1037Y2715D02*
X1312D01*
X1037Y2006D02*
X1312D01*
X1037D02*
Y2262D01*
Y2459D02*
Y2715D01*
X1312Y2006D02*
Y2262D01*
Y2459D02*
Y2715D01*
X-2746Y1270D02*
Y1663D01*
X-1821Y1270D02*
Y1663D01*
X-2185Y1270D02*
X-1821D01*
X-2746D02*
X-2382D01*
X-2185Y1663D02*
X-1821D01*
X-2746D02*
X-2382D01*
X-2648Y896D02*
Y1171D01*
X-1939Y896D02*
Y1171D01*
X-2195Y896D02*
X-1939D01*
X-2648D02*
X-2392D01*
X-2195Y1171D02*
X-1939D01*
X-2648D02*
X-2392D01*
X-2865Y-305D02*
Y-30D01*
X-2156Y-305D02*
Y-30D01*
X-2412Y-305D02*
X-2156D01*
X-2865D02*
X-2609D01*
X-2412Y-30D02*
X-2156D01*
X-2865D02*
X-2609D01*
X-3652Y768D02*
X-3377D01*
X-3652Y59D02*
X-3377D01*
X-3652D02*
Y315D01*
Y512D02*
Y768D01*
X-3377Y59D02*
Y315D01*
Y512D02*
Y768D01*
X-1870Y2687D02*
X-1476D01*
X-1870Y1762D02*
X-1476D01*
Y2323D02*
Y2687D01*
Y1762D02*
Y2126D01*
X-1870Y2323D02*
Y2687D01*
Y1762D02*
Y2126D01*
X-1841Y3041D02*
X-1585D01*
X-1388D02*
X-1132D01*
X-1841Y2766D02*
X-1585D01*
X-1388D02*
X-1132D01*
Y3041D01*
X-1841Y2766D02*
Y3041D01*
X-1693Y-2697D02*
X-1299D01*
X-1693Y-1772D02*
X-1299D01*
Y-2136D02*
Y-1772D01*
Y-2697D02*
Y-2333D01*
X-1693Y-2136D02*
Y-1772D01*
Y-2697D02*
Y-2333D01*
X-1230Y-2697D02*
X-837D01*
X-1230Y-1772D02*
X-837D01*
Y-2136D02*
Y-1772D01*
Y-2697D02*
Y-2333D01*
X-1230Y-2136D02*
Y-1772D01*
Y-2697D02*
Y-2333D01*
X-1388Y2112D02*
Y2506D01*
X-463Y2112D02*
Y2506D01*
X-827Y2112D02*
X-463D01*
X-1388D02*
X-1024D01*
X-827Y2506D02*
X-463D01*
X-1388D02*
X-1024D01*
X-576Y1762D02*
Y2038D01*
X-1284Y1762D02*
Y2038D01*
X-1028D01*
X-832D02*
X-576D01*
X-1284Y1762D02*
X-1028D01*
X-832D02*
X-576D01*
X2827Y1167D02*
X2782Y1212D01*
X2692D01*
X2647Y1167D01*
Y987D01*
X2692Y942D01*
X2782D01*
X2827Y987D01*
X2917Y942D02*
X3007D01*
X2962D01*
Y1212D01*
X2917Y1167D01*
X3142D02*
X3187Y1212D01*
X3277D01*
X3322Y1167D01*
Y987D01*
X3277Y942D01*
X3187D01*
X3142Y987D01*
Y1167D01*
X3257Y20D02*
Y-250D01*
X3437D01*
X3707D02*
X3527D01*
X3707Y-70D01*
Y-25D01*
X3662Y20D01*
X3572D01*
X3527Y-25D01*
X2822Y-250D02*
X2778Y-295D01*
Y-385D01*
X2822Y-430D01*
X3002D01*
X3047Y-385D01*
Y-295D01*
X3002Y-250D01*
X3047Y-25D02*
X2778D01*
X2912Y-160D01*
Y20D01*
X2167D02*
Y-250D01*
X2347D01*
X2437D02*
X2527D01*
X2482D01*
Y20D01*
X2437Y-25D01*
X1702Y-250D02*
X1658Y-295D01*
Y-385D01*
X1702Y-430D01*
X1882D01*
X1927Y-385D01*
Y-295D01*
X1882Y-250D01*
X1702Y-160D02*
X1658Y-115D01*
Y-25D01*
X1702Y20D01*
X1747D01*
X1792Y-25D01*
Y-70D01*
Y-25D01*
X1837Y20D01*
X1882D01*
X1927Y-25D01*
Y-115D01*
X1882Y-160D01*
X389Y2348D02*
X344Y2393D01*
X254D01*
X209Y2348D01*
Y2168D01*
X254Y2123D01*
X344D01*
X389Y2168D01*
X479Y2123D02*
X569D01*
X524D01*
Y2393D01*
X479Y2348D01*
X883Y2123D02*
X703D01*
X883Y2303D01*
Y2348D01*
X838Y2393D01*
X748D01*
X703Y2348D01*
X-1587Y-3370D02*
X-1632Y-3415D01*
Y-3505D01*
X-1587Y-3550D01*
X-1408D01*
X-1363Y-3505D01*
Y-3415D01*
X-1408Y-3370D01*
X-1363Y-3280D02*
Y-3190D01*
Y-3235D01*
X-1632D01*
X-1587Y-3280D01*
X-1408Y-3055D02*
X-1363Y-3010D01*
Y-2920D01*
X-1408Y-2875D01*
X-1587D01*
X-1632Y-2920D01*
Y-3010D01*
X-1587Y-3055D01*
X-1543D01*
X-1498Y-3010D01*
Y-2875D01*
X-2032Y-3150D02*
X-2077Y-3195D01*
Y-3285D01*
X-2032Y-3330D01*
X-1852D01*
X-1807Y-3285D01*
Y-3195D01*
X-1852Y-3150D01*
X-1807Y-3060D02*
Y-2970D01*
Y-3015D01*
X-2077D01*
X-2032Y-3060D01*
Y-2835D02*
X-2077Y-2790D01*
Y-2700D01*
X-2032Y-2655D01*
X-1987D01*
X-1942Y-2700D01*
X-1897Y-2655D01*
X-1852D01*
X-1807Y-2700D01*
Y-2790D01*
X-1852Y-2835D01*
X-1897D01*
X-1942Y-2790D01*
X-1987Y-2835D01*
X-2032D01*
X-1942Y-2790D02*
Y-2700D01*
X-2670Y-465D02*
X-2715Y-420D01*
X-2805D01*
X-2850Y-465D01*
Y-645D01*
X-2805Y-690D01*
X-2715D01*
X-2670Y-645D01*
X-2580Y-690D02*
X-2490D01*
X-2535D01*
Y-420D01*
X-2580Y-465D01*
X-2355Y-420D02*
X-2175D01*
Y-465D01*
X-2355Y-645D01*
Y-690D01*
X-3605Y-550D02*
X-3650Y-595D01*
Y-685D01*
X-3605Y-730D01*
X-3425D01*
X-3380Y-685D01*
Y-595D01*
X-3425Y-550D01*
X-3380Y-460D02*
Y-370D01*
Y-415D01*
X-3650D01*
X-3605Y-460D01*
X-3650Y-55D02*
X-3605Y-145D01*
X-3515Y-235D01*
X-3425D01*
X-3380Y-190D01*
Y-100D01*
X-3425Y-55D01*
X-3470D01*
X-3515Y-100D01*
Y-235D01*
X2827Y1517D02*
X2782Y1562D01*
X2692D01*
X2647Y1517D01*
Y1337D01*
X2692Y1292D01*
X2782D01*
X2827Y1337D01*
X2917Y1292D02*
X3007D01*
X2962D01*
Y1562D01*
X2917Y1517D01*
X3142Y1292D02*
X3232D01*
X3187D01*
Y1562D01*
X3142Y1517D01*
X-3150Y1125D02*
X-3195Y1170D01*
X-3285D01*
X-3330Y1125D01*
Y945D01*
X-3285Y900D01*
X-3195D01*
X-3150Y945D01*
X-2880Y1170D02*
X-3060D01*
Y1035D01*
X-2970Y1080D01*
X-2925D01*
X-2880Y1035D01*
Y945D01*
X-2925Y900D01*
X-3015D01*
X-3060Y945D01*
X-2582Y-2920D02*
X-2627Y-2965D01*
Y-3055D01*
X-2582Y-3100D01*
X-2402D01*
X-2357Y-3055D01*
Y-2965D01*
X-2402Y-2920D01*
X-2627Y-2650D02*
X-2582Y-2740D01*
X-2492Y-2830D01*
X-2402D01*
X-2357Y-2785D01*
Y-2695D01*
X-2402Y-2650D01*
X-2447D01*
X-2492Y-2695D01*
Y-2830D01*
X1095Y-2870D02*
X1050Y-2915D01*
Y-3005D01*
X1095Y-3050D01*
X1275D01*
X1320Y-3005D01*
Y-2915D01*
X1275Y-2870D01*
X1095Y-2780D02*
X1050Y-2735D01*
Y-2645D01*
X1095Y-2600D01*
X1140D01*
X1185Y-2645D01*
X1230Y-2600D01*
X1275D01*
X1320Y-2645D01*
Y-2735D01*
X1275Y-2780D01*
X1230D01*
X1185Y-2735D01*
X1140Y-2780D01*
X1095D01*
X1185Y-2735D02*
Y-2645D01*
X2492Y3011D02*
X2447Y2966D01*
Y2876D01*
X2492Y2831D01*
X2672D01*
X2717Y2876D01*
Y2966D01*
X2672Y3011D01*
X2717Y3101D02*
Y3191D01*
Y3146D01*
X2447D01*
X2492Y3101D01*
X1687Y3121D02*
X1867Y2851D01*
Y3121D02*
X1687Y2851D01*
X1957D02*
X2047D01*
X2002D01*
Y3121D01*
X1957Y3076D01*
X2290Y-1075D02*
X2245Y-1030D01*
X2155D01*
X2110Y-1075D01*
Y-1255D01*
X2155Y-1300D01*
X2245D01*
X2290Y-1255D01*
X2380D02*
X2425Y-1300D01*
X2515D01*
X2560Y-1255D01*
Y-1075D01*
X2515Y-1030D01*
X2425D01*
X2380Y-1075D01*
Y-1120D01*
X2425Y-1165D01*
X2560D01*
X5Y-2870D02*
X-40Y-2915D01*
Y-3005D01*
X5Y-3050D01*
X185D01*
X230Y-3005D01*
Y-2915D01*
X185Y-2870D01*
X-40Y-2780D02*
Y-2600D01*
X5D01*
X185Y-2780D01*
X230D01*
X1082Y3011D02*
X1037Y2966D01*
Y2876D01*
X1082Y2831D01*
X1262D01*
X1307Y2876D01*
Y2966D01*
X1262Y3011D01*
X1307Y3280D02*
Y3101D01*
X1127Y3280D01*
X1082D01*
X1037Y3235D01*
Y3146D01*
X1082Y3101D01*
X-1819Y-660D02*
X-1594D01*
X-1549Y-615D01*
Y-525D01*
X-1594Y-480D01*
X-1819D01*
X-1549Y-390D02*
Y-300D01*
Y-345D01*
X-1819D01*
X-1774Y-390D01*
X-1800Y170D02*
X-1530Y350D01*
X-1800D02*
X-1530Y170D01*
Y620D02*
Y440D01*
X-1710Y620D01*
X-1755D01*
X-1800Y575D01*
Y485D01*
X-1755Y440D01*
X-840Y3195D02*
X-885Y3240D01*
X-975D01*
X-1020Y3195D01*
Y3015D01*
X-975Y2970D01*
X-885D01*
X-840Y3015D01*
X-750Y2970D02*
X-660D01*
X-705D01*
Y3240D01*
X-750Y3195D01*
X-390Y2970D02*
Y3240D01*
X-525Y3105D01*
X-345D01*
X-3500Y1555D02*
X-3545Y1600D01*
X-3635D01*
X-3680Y1555D01*
Y1375D01*
X-3635Y1330D01*
X-3545D01*
X-3500Y1375D01*
X-3410Y1330D02*
X-3320D01*
X-3365D01*
Y1600D01*
X-3410Y1555D01*
X-3185D02*
X-3140Y1600D01*
X-3050D01*
X-3005Y1555D01*
Y1510D01*
X-3050Y1465D01*
X-3095D01*
X-3050D01*
X-3005Y1420D01*
Y1375D01*
X-3050Y1330D01*
X-3140D01*
X-3185Y1375D01*
X-1700Y3440D02*
Y3170D01*
X-1520D01*
X-1295D02*
Y3440D01*
X-1430Y3305D01*
X-1250D01*
X-2256Y2000D02*
X-1986D01*
Y2180D01*
X-2211Y2270D02*
X-2256Y2315D01*
Y2405D01*
X-2211Y2450D01*
X-2166D01*
X-2121Y2405D01*
Y2360D01*
Y2405D01*
X-2076Y2450D01*
X-2031D01*
X-1986Y2405D01*
Y2315D01*
X-2031Y2270D01*
X-1128Y-3420D02*
X-1172Y-3465D01*
Y-3555D01*
X-1128Y-3600D01*
X-948D01*
X-903Y-3555D01*
Y-3465D01*
X-948Y-3420D01*
X-903Y-3150D02*
Y-3330D01*
X-1083Y-3150D01*
X-1128D01*
X-1172Y-3195D01*
Y-3285D01*
X-1128Y-3330D01*
Y-3060D02*
X-1172Y-3015D01*
Y-2925D01*
X-1128Y-2880D01*
X-948D01*
X-903Y-2925D01*
Y-3015D01*
X-948Y-3060D01*
X-1128D01*
X-830Y2835D02*
X-875Y2880D01*
X-965D01*
X-1010Y2835D01*
Y2655D01*
X-965Y2610D01*
X-875D01*
X-830Y2655D01*
X-740Y2610D02*
X-650D01*
X-695D01*
Y2880D01*
X-740Y2835D01*
X-335Y2880D02*
X-515D01*
Y2745D01*
X-425Y2790D01*
X-380D01*
X-335Y2745D01*
Y2655D01*
X-380Y2610D01*
X-470D01*
X-515Y2655D01*
D12*
X-1841Y-1988D02*
Y-1909D01*
X-2077Y-1988D02*
Y-1909D01*
X-2372Y-1988D02*
Y-1909D01*
X-2608Y-1988D02*
Y-1909D01*
X-2323Y1348D02*
X-2244D01*
X-2323Y1585D02*
X-2244D01*
X-1555Y2185D02*
Y2264D01*
X-1791Y2185D02*
Y2264D01*
X-1378Y-2274D02*
Y-2195D01*
X-1614Y-2274D02*
Y-2195D01*
X-915Y-2274D02*
Y-2195D01*
X-1152Y-2274D02*
Y-2195D01*
X-965Y2191D02*
X-886D01*
X-965Y2427D02*
X-886D01*
X-1417Y-1417D02*
Y1417D01*
X1417Y-1417D02*
Y1417D01*
X-1417D02*
X1417D01*
X-1417Y-1417D02*
X1417D01*
X-2806Y108D02*
X-2334D01*
X-2806Y699D02*
X-2334D01*
M02*
