G04*
G04 #@! TF.GenerationSoftware,Altium Limited,Altium Designer,19.0.15 (446)*
G04*
G04 Layer_Color=8421504*
%FSLAX24Y24*%
%MOIN*%
G70*
G01*
G75*
%ADD13R,0.0197X0.0236*%
%ADD14R,0.0374X0.0335*%
%ADD15R,0.0236X0.0197*%
%ADD16R,0.0256X0.0197*%
%ADD17R,0.0300X0.0300*%
%ADD18R,0.0394X0.0709*%
%ADD19R,0.1909X0.1909*%
%ADD20C,0.0118*%
%ADD21R,0.0295X0.0315*%
%ADD22R,0.0315X0.0295*%
D13*
X1174Y2557D02*
D03*
Y2164D02*
D03*
X2574Y2164D02*
D03*
Y2557D02*
D03*
X1792Y699D02*
D03*
Y305D02*
D03*
X2916Y717D02*
D03*
Y323D02*
D03*
X-3515Y610D02*
D03*
Y217D02*
D03*
X98Y-2215D02*
D03*
Y-1821D02*
D03*
X1191Y-2215D02*
D03*
Y-1821D02*
D03*
D14*
X2160Y2134D02*
D03*
Y2587D02*
D03*
X1589D02*
D03*
Y2134D02*
D03*
D15*
X2205Y1427D02*
D03*
X1811D02*
D03*
X364Y1900D02*
D03*
X758D02*
D03*
X2205Y1073D02*
D03*
X1811D02*
D03*
X2520Y-787D02*
D03*
X2126D02*
D03*
X-2708Y-167D02*
D03*
X-2314D02*
D03*
X-2490Y1033D02*
D03*
X-2096D02*
D03*
D16*
X2539Y302D02*
D03*
X2165Y302D02*
D03*
X3667Y302D02*
D03*
X3293D02*
D03*
D17*
X4156Y300D02*
D03*
D18*
X-3062Y404D02*
D03*
X-2078D02*
D03*
D19*
X0Y0D02*
D03*
D20*
X1083Y-1280D02*
D03*
X886D02*
D03*
X689D02*
D03*
X492D02*
D03*
X295D02*
D03*
X98D02*
D03*
X-98D02*
D03*
X-295D02*
D03*
X-492D02*
D03*
X-689D02*
D03*
X-886D02*
D03*
X-1083D02*
D03*
X1280Y-1083D02*
D03*
X787D02*
D03*
X591D02*
D03*
X394D02*
D03*
X197D02*
D03*
X0D02*
D03*
X-197D02*
D03*
X-394D02*
D03*
X-787D02*
D03*
X-1083Y-984D02*
D03*
X1280Y-886D02*
D03*
X1083Y-787D02*
D03*
X-1083D02*
D03*
X1280Y-689D02*
D03*
X-1280D02*
D03*
X1083Y-591D02*
D03*
X1280Y-492D02*
D03*
X-1280D02*
D03*
X1083Y-394D02*
D03*
X-1083D02*
D03*
X1280Y-295D02*
D03*
X-1280D02*
D03*
X1083Y-197D02*
D03*
X-1083D02*
D03*
X1280Y-98D02*
D03*
X-1280D02*
D03*
X-1083Y0D02*
D03*
X1280Y98D02*
D03*
X-1280D02*
D03*
X-1083Y197D02*
D03*
X1280Y295D02*
D03*
X-1280D02*
D03*
X1083Y394D02*
D03*
X-1083D02*
D03*
X-1280Y492D02*
D03*
X1083Y591D02*
D03*
X-1083D02*
D03*
X1280Y689D02*
D03*
X-1083Y787D02*
D03*
X-1280Y886D02*
D03*
X1083Y787D02*
D03*
X1280Y1083D02*
D03*
X591D02*
D03*
X394D02*
D03*
X197D02*
D03*
X0D02*
D03*
X-197D02*
D03*
X-394D02*
D03*
X-591D02*
D03*
X-787D02*
D03*
X-984D02*
D03*
X-1280D02*
D03*
X1083Y1280D02*
D03*
X689D02*
D03*
X492D02*
D03*
X295D02*
D03*
X98D02*
D03*
X-98D02*
D03*
X-295D02*
D03*
X-492D02*
D03*
X886D02*
D03*
D21*
X-659Y1959D02*
D03*
X-1191D02*
D03*
X-2018Y1467D02*
D03*
X-2549D02*
D03*
D22*
X-1033Y-1969D02*
D03*
Y-2500D02*
D03*
X-1496Y-1969D02*
D03*
Y-2500D02*
D03*
X-1963Y-1683D02*
D03*
Y-2215D02*
D03*
M02*
