G04*
G04 #@! TF.GenerationSoftware,Altium Limited,Altium Designer,19.0.15 (446)*
G04*
G04 Layer_Physical_Order=2*
G04 Layer_Color=36540*
%FSLAX24Y24*%
%MOIN*%
G70*
G01*
G75*
%ADD10C,0.0059*%
%ADD12C,0.0060*%
%ADD40C,0.0240*%
%ADD41C,0.0138*%
G36*
X4299Y1093D02*
X1872D01*
X1872Y-482D01*
X4299D01*
Y-3708D01*
X2251D01*
X2244Y-3701D01*
Y-1203D01*
X2243Y-1182D01*
X2238Y-1162D01*
X2230Y-1144D01*
X2219Y-1126D01*
X2206Y-1111D01*
X1245Y-150D01*
X1239Y-132D01*
X1229Y-112D01*
X1217Y-94D01*
X1202Y-77D01*
X1186Y-63D01*
X1167Y-50D01*
X1147Y-40D01*
X1126Y-33D01*
X1105Y-29D01*
X1083Y-28D01*
X1061Y-29D01*
X1039Y-33D01*
X1018Y-40D01*
X998Y-50D01*
X980Y-63D01*
X963Y-77D01*
X948Y-94D01*
X936Y-112D01*
X926Y-132D01*
X919Y-153D01*
X915Y-175D01*
X913Y-197D01*
X915Y-219D01*
X919Y-241D01*
X926Y-262D01*
X936Y-281D01*
X948Y-300D01*
X963Y-317D01*
X980Y-331D01*
X998Y-343D01*
X1018Y-353D01*
X1039Y-360D01*
X1061Y-365D01*
X1083Y-366D01*
X1093Y-365D01*
X1984Y-1256D01*
Y-3701D01*
X1978Y-3708D01*
X1897D01*
X1890Y-3701D01*
Y-1426D01*
X1888Y-1405D01*
X1884Y-1385D01*
X1876Y-1367D01*
X1865Y-1349D01*
X1852Y-1334D01*
X1237Y-719D01*
X1229Y-703D01*
X1217Y-684D01*
X1202Y-668D01*
X1186Y-653D01*
X1167Y-641D01*
X1147Y-631D01*
X1126Y-624D01*
X1105Y-620D01*
X1083Y-618D01*
X1061Y-620D01*
X1039Y-624D01*
X1018Y-631D01*
X998Y-641D01*
X980Y-653D01*
X963Y-668D01*
X948Y-684D01*
X936Y-703D01*
X926Y-723D01*
X919Y-744D01*
X915Y-765D01*
X913Y-787D01*
X915Y-809D01*
X919Y-831D01*
X926Y-852D01*
X936Y-872D01*
X948Y-890D01*
X963Y-907D01*
X980Y-922D01*
X998Y-934D01*
X1018Y-944D01*
X1039Y-951D01*
X1061Y-955D01*
X1083Y-957D01*
X1105Y-955D01*
X1106Y-955D01*
X1630Y-1479D01*
Y-1565D01*
X1623Y-1575D01*
X1580Y-1603D01*
X1574Y-1602D01*
X1545Y-1600D01*
X1516Y-1602D01*
X1488Y-1608D01*
X1461Y-1617D01*
X1435Y-1630D01*
X1411Y-1646D01*
X1389Y-1665D01*
X1370Y-1687D01*
X1354Y-1711D01*
X1342Y-1736D01*
X1332Y-1764D01*
X1327Y-1792D01*
X1325Y-1821D01*
X1327Y-1850D01*
X1332Y-1878D01*
X1342Y-1905D01*
X1354Y-1931D01*
X1370Y-1955D01*
X1389Y-1977D01*
X1411Y-1996D01*
X1435Y-2012D01*
X1461Y-2025D01*
X1488Y-2034D01*
X1516Y-2039D01*
X1545Y-2041D01*
X1574Y-2039D01*
X1580Y-2038D01*
X1623Y-2066D01*
X1630Y-2077D01*
Y-3701D01*
X1623Y-3708D01*
X-207D01*
Y-1986D01*
X486Y-1294D01*
X499Y-1278D01*
X509Y-1261D01*
X517Y-1242D01*
X522Y-1222D01*
X524Y-1202D01*
Y-1191D01*
X528Y-1186D01*
X540Y-1167D01*
X550Y-1147D01*
X557Y-1126D01*
X562Y-1105D01*
X563Y-1083D01*
X562Y-1061D01*
X557Y-1039D01*
X550Y-1018D01*
X540Y-998D01*
X528Y-980D01*
X513Y-963D01*
X497Y-948D01*
X478Y-936D01*
X458Y-926D01*
X438Y-919D01*
X416Y-915D01*
X394Y-913D01*
X372Y-915D01*
X350Y-919D01*
X329Y-926D01*
X309Y-936D01*
X291Y-948D01*
X274Y-963D01*
X259Y-980D01*
X247Y-998D01*
X237Y-1018D01*
X230Y-1039D01*
X226Y-1061D01*
X224Y-1083D01*
X226Y-1105D01*
X230Y-1126D01*
X237Y-1147D01*
X246Y-1165D01*
X208Y-1204D01*
X152Y-1189D01*
X147Y-1169D01*
X148Y-1164D01*
X156Y-1147D01*
X163Y-1126D01*
X168Y-1105D01*
X169Y-1083D01*
X168Y-1061D01*
X163Y-1039D01*
X156Y-1018D01*
X147Y-998D01*
X134Y-980D01*
X120Y-963D01*
X103Y-948D01*
X85Y-936D01*
X65Y-926D01*
X44Y-919D01*
X22Y-915D01*
X0Y-913D01*
X-22Y-915D01*
X-44Y-919D01*
X-65Y-926D01*
X-85Y-936D01*
X-98Y-945D01*
X-112Y-936D01*
X-132Y-926D01*
X-153Y-919D01*
X-175Y-915D01*
X-197Y-913D01*
X-219Y-915D01*
X-241Y-919D01*
X-262Y-926D01*
X-281Y-936D01*
X-295Y-945D01*
X-309Y-936D01*
X-329Y-926D01*
X-350Y-919D01*
X-372Y-915D01*
X-394Y-913D01*
X-416Y-915D01*
X-438Y-919D01*
X-458Y-926D01*
X-478Y-936D01*
X-497Y-948D01*
X-513Y-963D01*
X-528Y-980D01*
X-540Y-998D01*
X-550Y-1018D01*
X-557Y-1039D01*
X-562Y-1061D01*
X-563Y-1083D01*
X-562Y-1105D01*
X-557Y-1126D01*
X-550Y-1147D01*
X-540Y-1167D01*
X-528Y-1186D01*
X-524Y-1191D01*
Y-1266D01*
X-902Y-1644D01*
X-915Y-1659D01*
X-926Y-1677D01*
X-933Y-1696D01*
X-938Y-1716D01*
X-940Y-1736D01*
Y-3708D01*
X-3905D01*
Y-992D01*
X-1551D01*
X-1531Y-991D01*
X-1511Y-986D01*
X-1492Y-978D01*
X-1475Y-968D01*
X-1460Y-954D01*
X-1067Y-562D01*
X-1061Y-562D01*
X-1039Y-557D01*
X-1018Y-550D01*
X-998Y-540D01*
X-980Y-528D01*
X-963Y-513D01*
X-948Y-497D01*
X-936Y-478D01*
X-926Y-458D01*
X-919Y-438D01*
X-915Y-416D01*
X-913Y-394D01*
X-915Y-372D01*
X-919Y-350D01*
X-926Y-329D01*
X-936Y-309D01*
X-945Y-295D01*
X-936Y-281D01*
X-926Y-262D01*
X-919Y-241D01*
X-915Y-219D01*
X-913Y-197D01*
X-915Y-175D01*
X-919Y-153D01*
X-926Y-132D01*
X-936Y-112D01*
X-945Y-98D01*
X-936Y-85D01*
X-926Y-65D01*
X-919Y-44D01*
X-915Y-22D01*
X-913Y0D01*
X-915Y22D01*
X-919Y44D01*
X-926Y65D01*
X-936Y85D01*
X-945Y98D01*
X-936Y112D01*
X-926Y132D01*
X-919Y153D01*
X-915Y175D01*
X-913Y197D01*
X-915Y219D01*
X-919Y241D01*
X-926Y262D01*
X-936Y281D01*
X-945Y295D01*
X-936Y309D01*
X-926Y329D01*
X-919Y350D01*
X-915Y372D01*
X-913Y394D01*
X-915Y416D01*
X-919Y438D01*
X-926Y458D01*
X-936Y478D01*
X-948Y497D01*
X-963Y513D01*
X-980Y528D01*
X-998Y540D01*
X-1018Y550D01*
X-1039Y557D01*
X-1061Y562D01*
X-1083Y563D01*
X-1105Y562D01*
X-1126Y557D01*
X-1147Y550D01*
X-1167Y540D01*
X-1186Y528D01*
X-1202Y513D01*
X-1217Y497D01*
X-1229Y478D01*
X-1239Y458D01*
X-1245Y441D01*
X-1946Y-260D01*
X-3905D01*
Y3708D01*
X-634D01*
Y1499D01*
X-632Y1478D01*
X-627Y1459D01*
X-620Y1440D01*
X-609Y1422D01*
X-596Y1407D01*
X-524Y1335D01*
Y1191D01*
X-528Y1186D01*
X-540Y1167D01*
X-550Y1147D01*
X-557Y1126D01*
X-562Y1105D01*
X-563Y1083D01*
X-562Y1061D01*
X-557Y1039D01*
X-550Y1018D01*
X-540Y998D01*
X-528Y980D01*
X-513Y963D01*
X-497Y948D01*
X-478Y936D01*
X-458Y926D01*
X-438Y919D01*
X-416Y915D01*
X-394Y913D01*
X-372Y915D01*
X-350Y919D01*
X-329Y926D01*
X-309Y936D01*
X-295Y945D01*
X-281Y936D01*
X-262Y926D01*
X-241Y919D01*
X-219Y915D01*
X-197Y913D01*
X-175Y915D01*
X-153Y919D01*
X-132Y926D01*
X-112Y936D01*
X-98Y945D01*
X-85Y936D01*
X-65Y926D01*
X-44Y919D01*
X-22Y915D01*
X0Y913D01*
X22Y915D01*
X44Y919D01*
X65Y926D01*
X85Y936D01*
X98Y945D01*
X112Y936D01*
X132Y926D01*
X153Y919D01*
X175Y915D01*
X197Y913D01*
X219Y915D01*
X241Y919D01*
X262Y926D01*
X281Y936D01*
X295Y945D01*
X309Y936D01*
X329Y926D01*
X350Y919D01*
X372Y915D01*
X394Y913D01*
X416Y915D01*
X438Y919D01*
X458Y926D01*
X478Y936D01*
X497Y948D01*
X513Y963D01*
X528Y980D01*
X540Y998D01*
X550Y1018D01*
X557Y1039D01*
X562Y1061D01*
X563Y1083D01*
X562Y1105D01*
X557Y1126D01*
X550Y1147D01*
X540Y1167D01*
X528Y1186D01*
X524Y1191D01*
Y1269D01*
X522Y1290D01*
X517Y1309D01*
X509Y1328D01*
X499Y1346D01*
X486Y1361D01*
X99Y1748D01*
Y3708D01*
X4299D01*
Y1093D01*
D02*
G37*
%LPC*%
G36*
X758Y2474D02*
X729Y2473D01*
X701Y2467D01*
X674Y2458D01*
X648Y2445D01*
X624Y2429D01*
X602Y2410D01*
X583Y2388D01*
X567Y2364D01*
X554Y2338D01*
X545Y2311D01*
X539Y2283D01*
X537Y2254D01*
X539Y2225D01*
X545Y2197D01*
X554Y2170D01*
X567Y2144D01*
X583Y2120D01*
X602Y2098D01*
X624Y2079D01*
X648Y2063D01*
X674Y2050D01*
X701Y2041D01*
X729Y2035D01*
X758Y2033D01*
X787Y2035D01*
X815Y2041D01*
X842Y2050D01*
X868Y2063D01*
X892Y2079D01*
X914Y2098D01*
X933Y2120D01*
X949Y2144D01*
X962Y2170D01*
X971Y2197D01*
X976Y2225D01*
X978Y2254D01*
X976Y2283D01*
X971Y2311D01*
X962Y2338D01*
X949Y2364D01*
X933Y2388D01*
X914Y2410D01*
X892Y2429D01*
X868Y2445D01*
X842Y2458D01*
X815Y2467D01*
X787Y2473D01*
X758Y2474D01*
D02*
G37*
G36*
X-2175Y2032D02*
X-2204Y2030D01*
X-2232Y2024D01*
X-2260Y2015D01*
X-2285Y2002D01*
X-2309Y1986D01*
X-2331Y1967D01*
X-2350Y1945D01*
X-2366Y1921D01*
X-2379Y1895D01*
X-2388Y1868D01*
X-2394Y1840D01*
X-2396Y1811D01*
X-2394Y1782D01*
X-2388Y1754D01*
X-2379Y1727D01*
X-2366Y1701D01*
X-2350Y1677D01*
X-2331Y1655D01*
X-2309Y1636D01*
X-2285Y1620D01*
X-2260Y1607D01*
X-2232Y1598D01*
X-2204Y1592D01*
X-2175Y1591D01*
X-2146Y1592D01*
X-2118Y1598D01*
X-2091Y1607D01*
X-2065Y1620D01*
X-2041Y1636D01*
X-2019Y1655D01*
X-2000Y1677D01*
X-1984Y1701D01*
X-1972Y1727D01*
X-1962Y1754D01*
X-1957Y1782D01*
X-1955Y1811D01*
X-1957Y1840D01*
X-1962Y1868D01*
X-1972Y1895D01*
X-1984Y1921D01*
X-2000Y1945D01*
X-2019Y1967D01*
X-2041Y1986D01*
X-2065Y2002D01*
X-2091Y2015D01*
X-2118Y2024D01*
X-2146Y2030D01*
X-2175Y2032D01*
D02*
G37*
G36*
X-1191Y1839D02*
X-1220Y1838D01*
X-1248Y1832D01*
X-1275Y1823D01*
X-1301Y1810D01*
X-1325Y1794D01*
X-1347Y1775D01*
X-1366Y1753D01*
X-1382Y1729D01*
X-1395Y1703D01*
X-1404Y1676D01*
X-1410Y1648D01*
X-1411Y1619D01*
X-1410Y1590D01*
X-1404Y1562D01*
X-1395Y1535D01*
X-1382Y1509D01*
X-1366Y1485D01*
X-1347Y1463D01*
X-1325Y1444D01*
X-1301Y1428D01*
X-1275Y1415D01*
X-1248Y1406D01*
X-1220Y1400D01*
X-1191Y1398D01*
X-1162Y1400D01*
X-1134Y1406D01*
X-1107Y1415D01*
X-1081Y1428D01*
X-1057Y1444D01*
X-1035Y1463D01*
X-1016Y1485D01*
X-1000Y1509D01*
X-987Y1535D01*
X-978Y1562D01*
X-972Y1590D01*
X-970Y1619D01*
X-972Y1648D01*
X-978Y1676D01*
X-987Y1703D01*
X-1000Y1729D01*
X-1016Y1753D01*
X-1035Y1775D01*
X-1057Y1794D01*
X-1081Y1810D01*
X-1107Y1823D01*
X-1134Y1832D01*
X-1162Y1838D01*
X-1191Y1839D01*
D02*
G37*
G36*
X1506Y978D02*
X1477Y976D01*
X1449Y971D01*
X1422Y962D01*
X1396Y949D01*
X1372Y933D01*
X1350Y914D01*
X1331Y892D01*
X1315Y868D01*
X1302Y842D01*
X1293Y815D01*
X1287Y787D01*
X1285Y758D01*
X1287Y729D01*
X1293Y701D01*
X1302Y674D01*
X1315Y648D01*
X1331Y624D01*
X1350Y602D01*
X1372Y583D01*
X1396Y567D01*
X1422Y554D01*
X1449Y545D01*
X1477Y539D01*
X1506Y537D01*
X1535Y539D01*
X1563Y545D01*
X1590Y554D01*
X1616Y567D01*
X1640Y583D01*
X1662Y602D01*
X1681Y624D01*
X1697Y648D01*
X1710Y674D01*
X1719Y701D01*
X1724Y729D01*
X1726Y758D01*
X1724Y787D01*
X1719Y815D01*
X1710Y842D01*
X1697Y868D01*
X1681Y892D01*
X1662Y914D01*
X1640Y933D01*
X1616Y949D01*
X1590Y962D01*
X1563Y971D01*
X1535Y976D01*
X1506Y978D01*
D02*
G37*
G36*
X-2337Y-1463D02*
X-2366Y-1464D01*
X-2394Y-1470D01*
X-2421Y-1479D01*
X-2447Y-1492D01*
X-2471Y-1508D01*
X-2493Y-1527D01*
X-2512Y-1549D01*
X-2528Y-1573D01*
X-2540Y-1599D01*
X-2550Y-1626D01*
X-2555Y-1654D01*
X-2557Y-1683D01*
X-2555Y-1712D01*
X-2550Y-1740D01*
X-2540Y-1767D01*
X-2528Y-1793D01*
X-2512Y-1817D01*
X-2493Y-1839D01*
X-2471Y-1858D01*
X-2447Y-1874D01*
X-2421Y-1887D01*
X-2394Y-1896D01*
X-2366Y-1902D01*
X-2337Y-1904D01*
X-2308Y-1902D01*
X-2280Y-1896D01*
X-2252Y-1887D01*
X-2227Y-1874D01*
X-2203Y-1858D01*
X-2181Y-1839D01*
X-2162Y-1817D01*
X-2146Y-1793D01*
X-2133Y-1767D01*
X-2124Y-1740D01*
X-2118Y-1712D01*
X-2116Y-1683D01*
X-2118Y-1654D01*
X-2124Y-1626D01*
X-2133Y-1599D01*
X-2146Y-1573D01*
X-2162Y-1549D01*
X-2181Y-1527D01*
X-2203Y-1508D01*
X-2227Y-1492D01*
X-2252Y-1479D01*
X-2280Y-1470D01*
X-2308Y-1464D01*
X-2337Y-1463D01*
D02*
G37*
G36*
X404Y-1600D02*
X375Y-1602D01*
X346Y-1608D01*
X319Y-1617D01*
X293Y-1630D01*
X269Y-1646D01*
X248Y-1665D01*
X229Y-1687D01*
X213Y-1711D01*
X200Y-1736D01*
X191Y-1764D01*
X185Y-1792D01*
X183Y-1821D01*
X185Y-1850D01*
X191Y-1878D01*
X200Y-1905D01*
X213Y-1931D01*
X229Y-1955D01*
X248Y-1977D01*
X269Y-1996D01*
X293Y-2012D01*
X319Y-2025D01*
X346Y-2034D01*
X375Y-2039D01*
X404Y-2041D01*
X432Y-2039D01*
X461Y-2034D01*
X488Y-2025D01*
X514Y-2012D01*
X538Y-1996D01*
X559Y-1977D01*
X578Y-1955D01*
X594Y-1931D01*
X607Y-1905D01*
X617Y-1878D01*
X622Y-1850D01*
X624Y-1821D01*
X622Y-1792D01*
X617Y-1764D01*
X607Y-1736D01*
X594Y-1711D01*
X578Y-1687D01*
X559Y-1665D01*
X538Y-1646D01*
X514Y-1630D01*
X488Y-1617D01*
X461Y-1608D01*
X432Y-1602D01*
X404Y-1600D01*
D02*
G37*
G36*
X3406Y-2824D02*
X3372Y-2826D01*
X3339Y-2832D01*
X3307Y-2841D01*
X3277Y-2854D01*
X3247Y-2870D01*
X3220Y-2889D01*
X3195Y-2911D01*
X3188Y-2920D01*
X3172Y-2925D01*
X3139D01*
X3123Y-2920D01*
X3116Y-2911D01*
X3091Y-2889D01*
X3064Y-2870D01*
X3035Y-2854D01*
X3004Y-2841D01*
X2972Y-2832D01*
X2939Y-2826D01*
X2906Y-2824D01*
X2872Y-2826D01*
X2839Y-2832D01*
X2807Y-2841D01*
X2777Y-2854D01*
X2747Y-2870D01*
X2720Y-2889D01*
X2695Y-2911D01*
X2673Y-2936D01*
X2654Y-2963D01*
X2638Y-2993D01*
X2625Y-3023D01*
X2616Y-3055D01*
X2610Y-3088D01*
X2608Y-3122D01*
X2610Y-3155D01*
X2616Y-3188D01*
X2625Y-3220D01*
X2638Y-3251D01*
X2654Y-3280D01*
X2673Y-3307D01*
X2695Y-3332D01*
X2720Y-3354D01*
X2747Y-3373D01*
X2777Y-3389D01*
X2807Y-3402D01*
X2839Y-3411D01*
X2872Y-3417D01*
X2906Y-3419D01*
X2939Y-3417D01*
X2972Y-3411D01*
X3004Y-3402D01*
X3035Y-3389D01*
X3064Y-3373D01*
X3091Y-3354D01*
X3116Y-3332D01*
X3123Y-3323D01*
X3139Y-3318D01*
X3172D01*
X3188Y-3323D01*
X3195Y-3332D01*
X3220Y-3354D01*
X3247Y-3373D01*
X3277Y-3389D01*
X3307Y-3402D01*
X3339Y-3411D01*
X3372Y-3417D01*
X3406Y-3419D01*
X3439Y-3417D01*
X3472Y-3411D01*
X3504Y-3402D01*
X3535Y-3389D01*
X3564Y-3373D01*
X3591Y-3354D01*
X3616Y-3332D01*
X3638Y-3307D01*
X3657Y-3280D01*
X3673Y-3251D01*
X3686Y-3220D01*
X3695Y-3188D01*
X3701Y-3155D01*
X3703Y-3122D01*
X3701Y-3088D01*
X3695Y-3055D01*
X3686Y-3023D01*
X3673Y-2993D01*
X3657Y-2963D01*
X3638Y-2936D01*
X3616Y-2911D01*
X3591Y-2889D01*
X3564Y-2870D01*
X3535Y-2854D01*
X3504Y-2841D01*
X3472Y-2832D01*
X3439Y-2826D01*
X3406Y-2824D01*
D02*
G37*
%LPD*%
D10*
X1122Y-787D02*
X1760Y-1426D01*
Y-3701D02*
Y-1426D01*
X2114Y-3701D02*
Y-1203D01*
X1109Y-197D02*
X2114Y-1203D01*
X-1092Y-394D02*
X-1083D01*
X-1109Y-197D02*
X-1083D01*
X-1109Y0D02*
X-1083D01*
X-1109Y197D02*
X-1083D01*
X-1109Y394D02*
X-1083D01*
X-1892Y-390D02*
X-1109Y394D01*
X-3916Y-390D02*
X-1892D01*
X-1813Y-508D02*
X-1109Y197D01*
X-3916Y-508D02*
X-1813D01*
X-3916Y-744D02*
X-1656D01*
X-1109Y-197D01*
X-3916Y-626D02*
X-1735D01*
X-1109Y0D01*
X-3916Y-862D02*
X-1551D01*
X-1083Y-394D01*
X-337Y-1932D02*
X394Y-1202D01*
X-337Y-3710D02*
Y-1932D01*
X394Y-1202D02*
Y-1083D01*
X-692Y-1785D02*
X-197Y-1290D01*
X-692Y-3710D02*
Y-1785D01*
X-197Y-1290D02*
Y-1083D01*
X-810Y-1736D02*
X-394Y-1320D01*
X-810Y-3710D02*
Y-1736D01*
X-394Y-1320D02*
Y-1083D01*
X394Y1083D02*
Y1269D01*
X197Y1083D02*
Y1299D01*
X0Y1083D02*
Y1329D01*
X-197Y1083D02*
Y1359D01*
X-31Y1694D02*
Y3720D01*
Y1694D02*
X394Y1269D01*
X-150Y1645D02*
Y3720D01*
Y1645D02*
X197Y1299D01*
X-268Y1597D02*
Y3720D01*
Y1597D02*
X0Y1329D01*
X-386Y1548D02*
Y3720D01*
Y1548D02*
X-197Y1359D01*
X-504Y1499D02*
X-394Y1389D01*
X-504Y1499D02*
Y3720D01*
X-394Y1083D02*
Y1389D01*
X1083Y-787D02*
X1122D01*
X1083Y-197D02*
X1109D01*
D12*
X-573Y-1834D02*
X0Y-1261D01*
X-573Y-3710D02*
Y-1834D01*
X0Y-1261D02*
Y-1083D01*
D40*
X404Y2263D02*
D03*
X2913Y1053D02*
D03*
X2160Y1804D02*
D03*
X1589Y2917D02*
D03*
X404Y1634D02*
D03*
X2539Y1073D02*
D03*
X2539Y1427D02*
D03*
X2786Y-1855D02*
D03*
X3496Y-1855D02*
D03*
X3490Y-3590D02*
D03*
X2472Y-2590D02*
D03*
Y-3590D02*
D03*
X2825Y-797D02*
D03*
X3570Y3590D02*
D03*
X757D02*
D03*
X4176Y-3590D02*
D03*
Y-2590D02*
D03*
Y-1590D02*
D03*
X2472D02*
D03*
X3490D02*
D03*
Y-590D02*
D03*
X4176D02*
D03*
X2570Y3590D02*
D03*
X4176D02*
D03*
X1570D02*
D03*
X4176Y2590D02*
D03*
X3570D02*
D03*
X4176Y1590D02*
D03*
X3570D02*
D03*
X709Y-709D02*
D03*
X236D02*
D03*
X-236D02*
D03*
X-709D02*
D03*
X709Y-236D02*
D03*
X236D02*
D03*
X-236D02*
D03*
X-709D02*
D03*
X709Y236D02*
D03*
X236D02*
D03*
X-236D02*
D03*
X-709D02*
D03*
X709Y709D02*
D03*
X236D02*
D03*
X-236D02*
D03*
X-709D02*
D03*
X-2002Y-1330D02*
D03*
X-3790D02*
D03*
X1417Y-1378D02*
D03*
X1211Y-2550D02*
D03*
X404Y-2244D02*
D03*
X-709Y1457D02*
D03*
X-3062Y-157D02*
D03*
X-3790Y-3590D02*
D03*
Y-2470D02*
D03*
Y984D02*
D03*
Y2362D02*
D03*
Y3590D02*
D03*
X-2559D02*
D03*
X-1575D02*
D03*
X-719D02*
D03*
X-2559Y2362D02*
D03*
X-2913Y1467D02*
D03*
X-2835Y1033D02*
D03*
X-2619Y394D02*
D03*
X-3790Y-60D02*
D03*
X-2500Y-3590D02*
D03*
X-2503Y-2559D02*
D03*
X-1912D02*
D03*
X-1970Y-3590D02*
D03*
X-1020D02*
D03*
X-1516Y-2864D02*
D03*
X-1043D02*
D03*
X148Y-2559D02*
D03*
X260Y-3590D02*
D03*
X1208D02*
D03*
X1496Y-2234D02*
D03*
X-740Y2710D02*
D03*
D41*
X394Y1083D02*
D03*
X197D02*
D03*
X0D02*
D03*
X-197D02*
D03*
X-394D02*
D03*
X0Y-1083D02*
D03*
X-197Y-1083D02*
D03*
X-394D02*
D03*
X1083Y-787D02*
D03*
X1083Y-197D02*
D03*
X394Y-1083D02*
D03*
X-1083Y197D02*
D03*
Y0D02*
D03*
Y-197D02*
D03*
Y-394D02*
D03*
Y394D02*
D03*
M02*
