M48
;Layer_Color=9474304
;FILE_FORMAT=2:4
INCH,TZ
;TYPE=PLATED
T2F00S00C0.0098
%
T02
X-974Y-2421
X-364
X394Y-2411
X1004Y-2421
X2067Y-2421
X-2234Y-2421
X-1949Y-1181
X-1969Y54
X-2244Y-98
Y778
X-1969Y517
X-2244Y1368
Y1890
X-1783Y1890
X-1112Y1890
X-650
X10Y1228
X10Y984
X846
Y1228
X1575Y1299
X2067
X2067Y797
X2067Y249
X1722
X1427Y453
X1148Y190
X924Y-303
X1440Y-380
X1722Y-389
X2047
X2067Y-1093
X1752Y-1419
X1535Y-709
X1171Y-905
X974Y-1870
X394Y-1624
X157Y-2096
X-167Y-1388
X-955Y-1565
X-974Y-2057
X-1348Y-127
X-817Y600
X-1585Y1083
X157Y20
X-20Y-157
X1220Y1890
X2067Y1890
M30
