G04*
G04 #@! TF.GenerationSoftware,Altium Limited,Altium Designer,19.0.15 (446)*
G04*
G04 Layer_Color=8388736*
%FSLAX24Y24*%
%MOIN*%
G70*
G01*
G75*
%ADD19R,0.0355X0.0375*%
%ADD20R,0.0166X0.0178*%
%ADD21R,0.0277X0.0316*%
%ADD22C,0.0110*%
%ADD23R,0.0355X0.0611*%
%ADD24R,0.0178X0.0166*%
%ADD25C,0.0158*%
D19*
X-1644Y276D02*
D03*
X-1112D02*
D03*
X-1083Y-1083D02*
D03*
X-1614D02*
D03*
X-443Y-1083D02*
D03*
X89D02*
D03*
D20*
X1500Y-1112D02*
D03*
X1276D02*
D03*
X1257Y-2165D02*
D03*
X1482D02*
D03*
X1089Y-721D02*
D03*
X1313D02*
D03*
X1275Y-69D02*
D03*
X1500D02*
D03*
X845Y-69D02*
D03*
X1070D02*
D03*
X-1444Y-2061D02*
D03*
X-1219D02*
D03*
X-1662Y-2061D02*
D03*
X-1887Y-2061D02*
D03*
X1185Y418D02*
D03*
X960D02*
D03*
X-1185Y-738D02*
D03*
X-961D02*
D03*
D21*
X1535Y-1870D02*
D03*
X1201Y-1870D02*
D03*
Y-1417D02*
D03*
X1535Y-1417D02*
D03*
D22*
X344Y344D02*
D03*
X620Y-344D02*
D03*
X482D02*
D03*
X620Y-620D02*
D03*
X-482Y482D02*
D03*
X-344D02*
D03*
X-207D02*
D03*
X-69D02*
D03*
X69D02*
D03*
X207D02*
D03*
X344D02*
D03*
X482D02*
D03*
X620D02*
D03*
X-482Y344D02*
D03*
X-344D02*
D03*
X-207D02*
D03*
X-69D02*
D03*
X69D02*
D03*
X207D02*
D03*
X482D02*
D03*
X620D02*
D03*
X-482Y207D02*
D03*
X-344D02*
D03*
X-69D02*
D03*
X69D02*
D03*
X207D02*
D03*
X344D02*
D03*
X482D02*
D03*
X620D02*
D03*
X-482Y69D02*
D03*
X-344D02*
D03*
X-207D02*
D03*
X-69D02*
D03*
X69D02*
D03*
X207D02*
D03*
X344D02*
D03*
X482D02*
D03*
X620D02*
D03*
X-482Y-69D02*
D03*
X-344D02*
D03*
X-207D02*
D03*
X-69D02*
D03*
X69D02*
D03*
X207D02*
D03*
X344D02*
D03*
X482D02*
D03*
X620D02*
D03*
X-482Y-207D02*
D03*
X-344D02*
D03*
X-207D02*
D03*
X-69D02*
D03*
X69D02*
D03*
X207D02*
D03*
X344D02*
D03*
X-482Y-344D02*
D03*
X-344D02*
D03*
X-207D02*
D03*
X-69D02*
D03*
X69D02*
D03*
X207D02*
D03*
X-482Y-482D02*
D03*
X-344D02*
D03*
X-207D02*
D03*
X-69D02*
D03*
X69D02*
D03*
X207D02*
D03*
X344D02*
D03*
X-482Y-620D02*
D03*
X-344D02*
D03*
X-207D02*
D03*
X-69D02*
D03*
X69D02*
D03*
X207D02*
D03*
X344D02*
D03*
X482D02*
D03*
D23*
X-1834Y-1638D02*
D03*
X-1263D02*
D03*
D24*
X600Y1214D02*
D03*
Y990D02*
D03*
X227Y1214D02*
D03*
Y990D02*
D03*
X1173Y-287D02*
D03*
Y-511D02*
D03*
D25*
X-1476Y-1644D02*
D03*
M02*
