G04*
G04 #@! TF.GenerationSoftware,Altium Limited,Altium Designer,19.0.15 (446)*
G04*
G04 Layer_Physical_Order=5*
G04 Layer_Color=16737945*
%FSLAX24Y24*%
%MOIN*%
G70*
G01*
G75*
%ADD35C,0.0197*%
G36*
X2184Y-2538D02*
X-2361D01*
Y2007D01*
X2184D01*
Y-2538D01*
D02*
G37*
%LPC*%
G36*
X846Y1142D02*
X822Y1140D01*
X798Y1134D01*
X775Y1125D01*
X754Y1112D01*
X735Y1096D01*
X719Y1077D01*
X706Y1056D01*
X696Y1033D01*
X690Y1009D01*
X688Y984D01*
X690Y960D01*
X696Y935D01*
X706Y913D01*
X719Y891D01*
X735Y873D01*
X754Y856D01*
X775Y843D01*
X798Y834D01*
X822Y828D01*
X846Y826D01*
X871Y828D01*
X895Y834D01*
X918Y843D01*
X939Y856D01*
X958Y873D01*
X974Y891D01*
X987Y913D01*
X997Y935D01*
X1002Y960D01*
X1004Y984D01*
X1002Y1009D01*
X997Y1033D01*
X987Y1056D01*
X974Y1077D01*
X958Y1096D01*
X939Y1112D01*
X918Y1125D01*
X895Y1134D01*
X871Y1140D01*
X846Y1142D01*
D02*
G37*
G36*
X10D02*
X-15Y1140D01*
X-39Y1134D01*
X-62Y1125D01*
X-83Y1112D01*
X-102Y1096D01*
X-118Y1077D01*
X-131Y1056D01*
X-140Y1033D01*
X-146Y1009D01*
X-148Y984D01*
X-146Y960D01*
X-140Y935D01*
X-131Y913D01*
X-118Y891D01*
X-102Y873D01*
X-83Y856D01*
X-62Y843D01*
X-39Y834D01*
X-15Y828D01*
X10Y826D01*
X35Y828D01*
X59Y834D01*
X82Y843D01*
X103Y856D01*
X122Y873D01*
X138Y891D01*
X151Y913D01*
X160Y935D01*
X166Y960D01*
X168Y984D01*
X166Y1009D01*
X160Y1033D01*
X151Y1056D01*
X138Y1077D01*
X122Y1096D01*
X103Y1112D01*
X82Y1125D01*
X59Y1134D01*
X35Y1140D01*
X10Y1142D01*
D02*
G37*
G36*
X-1348Y31D02*
X-1373Y29D01*
X-1397Y23D01*
X-1420Y14D01*
X-1441Y1D01*
X-1460Y-15D01*
X-1476Y-34D01*
X-1489Y-55D01*
X-1498Y-78D01*
X-1504Y-102D01*
X-1506Y-127D01*
X-1504Y-152D01*
X-1498Y-176D01*
X-1489Y-199D01*
X-1476Y-220D01*
X-1460Y-239D01*
X-1441Y-255D01*
X-1420Y-268D01*
X-1397Y-277D01*
X-1373Y-283D01*
X-1348Y-285D01*
X-1323Y-283D01*
X-1299Y-277D01*
X-1276Y-268D01*
X-1255Y-255D01*
X-1236Y-239D01*
X-1220Y-220D01*
X-1207Y-199D01*
X-1198Y-176D01*
X-1192Y-152D01*
X-1190Y-127D01*
X-1192Y-102D01*
X-1198Y-78D01*
X-1207Y-55D01*
X-1220Y-34D01*
X-1236Y-15D01*
X-1255Y1D01*
X-1276Y14D01*
X-1299Y23D01*
X-1323Y29D01*
X-1348Y31D01*
D02*
G37*
G36*
X1171Y-747D02*
X1146Y-749D01*
X1122Y-755D01*
X1099Y-765D01*
X1078Y-778D01*
X1059Y-794D01*
X1043Y-812D01*
X1030Y-834D01*
X1021Y-857D01*
X1015Y-881D01*
X1013Y-905D01*
X1015Y-930D01*
X1021Y-954D01*
X1030Y-977D01*
X1043Y-998D01*
X1059Y-1017D01*
X1078Y-1033D01*
X1099Y-1046D01*
X1122Y-1056D01*
X1146Y-1061D01*
X1171Y-1063D01*
X1196Y-1061D01*
X1220Y-1056D01*
X1243Y-1046D01*
X1264Y-1033D01*
X1283Y-1017D01*
X1299Y-998D01*
X1312Y-977D01*
X1321Y-954D01*
X1327Y-930D01*
X1329Y-905D01*
X1327Y-881D01*
X1321Y-857D01*
X1312Y-834D01*
X1299Y-812D01*
X1283Y-794D01*
X1264Y-778D01*
X1243Y-765D01*
X1220Y-755D01*
X1196Y-749D01*
X1171Y-747D01*
D02*
G37*
G36*
X-955Y-1407D02*
X-979Y-1409D01*
X-1004Y-1415D01*
X-1026Y-1424D01*
X-1048Y-1437D01*
X-1066Y-1453D01*
X-1083Y-1472D01*
X-1095Y-1493D01*
X-1105Y-1516D01*
X-1111Y-1540D01*
X-1113Y-1565D01*
X-1111Y-1590D01*
X-1105Y-1614D01*
X-1095Y-1637D01*
X-1083Y-1658D01*
X-1066Y-1677D01*
X-1048Y-1693D01*
X-1026Y-1706D01*
X-1004Y-1715D01*
X-979Y-1721D01*
X-955Y-1723D01*
X-930Y-1721D01*
X-906Y-1715D01*
X-883Y-1706D01*
X-862Y-1693D01*
X-843Y-1677D01*
X-827Y-1658D01*
X-814Y-1637D01*
X-804Y-1614D01*
X-799Y-1590D01*
X-797Y-1565D01*
X-799Y-1540D01*
X-804Y-1516D01*
X-814Y-1493D01*
X-827Y-1472D01*
X-843Y-1453D01*
X-862Y-1437D01*
X-883Y-1424D01*
X-906Y-1415D01*
X-930Y-1409D01*
X-955Y-1407D01*
D02*
G37*
%LPD*%
D35*
X-1969Y54D02*
D03*
Y517D02*
D03*
X1752Y-1419D02*
D03*
X974Y-1870D02*
D03*
X1004Y-2421D02*
D03*
X2067Y-1093D02*
D03*
X394Y-1624D02*
D03*
X-974Y-2057D02*
D03*
X-364Y-2421D02*
D03*
X157Y20D02*
D03*
X-167Y-1319D02*
D03*
X-20Y-157D02*
D03*
X157Y-2096D02*
D03*
X-974Y-2421D02*
D03*
X1535Y-709D02*
D03*
X2067Y797D02*
D03*
X1427Y453D02*
D03*
X1575Y1299D02*
D03*
X2067Y1890D02*
D03*
X1220Y1890D02*
D03*
X394Y-2411D02*
D03*
X-817Y600D02*
D03*
X1722Y-389D02*
D03*
X2067Y249D02*
D03*
X2047Y-389D02*
D03*
X1722Y249D02*
D03*
X1148Y190D02*
D03*
X924Y-303D02*
D03*
X1440Y-380D02*
D03*
X10Y1228D02*
D03*
X846D02*
D03*
X-2244Y-98D02*
D03*
Y778D02*
D03*
X-1949Y-1181D02*
D03*
X-1112Y1890D02*
D03*
X-650D02*
D03*
X2067Y1299D02*
D03*
X-1783Y1890D02*
D03*
X-1585Y1083D02*
D03*
X-2244Y1368D02*
D03*
Y1890D02*
D03*
X-2234Y-2421D02*
D03*
X2067D02*
D03*
M02*
