G04*
G04 #@! TF.GenerationSoftware,Altium Limited,Altium Designer,19.0.15 (446)*
G04*
G04 Layer_Physical_Order=1*
G04 Layer_Color=255*
%FSLAX24Y24*%
%MOIN*%
G70*
G01*
G75*
%ADD11C,0.0079*%
%ADD13C,0.0049*%
%ADD14R,0.0295X0.0315*%
%ADD15R,0.0315X0.0295*%
%ADD16R,0.0256X0.0197*%
%ADD17R,0.0118X0.0106*%
%ADD18R,0.0106X0.0118*%
%ADD19R,0.0217X0.0256*%
%ADD20C,0.0079*%
%ADD21R,0.0295X0.0551*%
%ADD33C,0.0300*%
%ADD34C,0.0090*%
%ADD35C,0.0080*%
%ADD36R,0.0315X0.0300*%
%ADD37R,0.0354X0.0354*%
%ADD38C,0.0394*%
%ADD39C,0.0197*%
%ADD40C,0.0098*%
G36*
X2184Y131D02*
X2037D01*
X2037Y131D01*
X1588D01*
X1562Y129D01*
X1536Y124D01*
X1511Y116D01*
X1488Y104D01*
X1466Y90D01*
X1446Y72D01*
X1434Y58D01*
X1388Y49D01*
X1388Y49D01*
X1163D01*
Y49D01*
X853D01*
X834Y95D01*
X1008Y269D01*
X1053Y281D01*
X1053Y281D01*
X1135D01*
Y418D01*
X1185D01*
Y468D01*
X1317D01*
Y526D01*
X1318Y527D01*
X1334Y533D01*
X1346Y541D01*
X1399D01*
X1399Y541D01*
X1418Y543D01*
X1437Y548D01*
X1454Y558D01*
X1469Y570D01*
X1709Y810D01*
X1756Y817D01*
X1756Y817D01*
X1838D01*
Y955D01*
X1888D01*
Y1005D01*
X2020D01*
Y1131D01*
X1888D01*
Y1181D01*
X1838D01*
Y1319D01*
X1762D01*
Y1511D01*
X1778Y1532D01*
X1812Y1555D01*
X1825Y1555D01*
X1854Y1556D01*
X1882Y1561D01*
X1909Y1569D01*
X1936Y1580D01*
X1961Y1594D01*
X1985Y1611D01*
X2006Y1630D01*
X2025Y1651D01*
X2042Y1675D01*
X2056Y1700D01*
X2067Y1726D01*
X2075Y1754D01*
X2079Y1782D01*
X2081Y1811D01*
X2079Y1840D01*
X2075Y1868D01*
X2067Y1896D01*
X2056Y1922D01*
X2042Y1947D01*
X2035Y1957D01*
X2051Y1997D01*
X2060Y2007D01*
X2184D01*
Y131D01*
D02*
G37*
G36*
X-473Y1978D02*
Y1870D01*
X-600D01*
Y1644D01*
Y1417D01*
X-473D01*
Y1319D01*
X-866D01*
X-866Y1319D01*
X-896D01*
Y1319D01*
X-916Y1319D01*
X-1179D01*
X-1231Y1371D01*
X-1212Y1417D01*
X-1162D01*
Y1644D01*
Y1870D01*
X-1338D01*
Y1978D01*
X-1293Y2007D01*
X-518D01*
X-473Y1978D01*
D02*
G37*
G36*
X1099Y1997D02*
X1115Y1957D01*
X1108Y1947D01*
X1094Y1922D01*
X1083Y1896D01*
X1075Y1868D01*
X1070Y1840D01*
X1068Y1811D01*
X1070Y1782D01*
X1075Y1754D01*
X1083Y1726D01*
X1094Y1700D01*
X1108Y1675D01*
X1124Y1651D01*
X1144Y1630D01*
X1165Y1611D01*
X1188Y1594D01*
X1214Y1580D01*
X1240Y1569D01*
X1268Y1561D01*
X1296Y1556D01*
X1325Y1555D01*
X1327Y1555D01*
X1377Y1517D01*
Y1319D01*
X1302D01*
Y1181D01*
X1202D01*
Y1340D01*
X1201Y1340D01*
X1200Y1357D01*
X1195Y1373D01*
X1187Y1387D01*
X1177Y1400D01*
X1177Y1400D01*
X745Y1832D01*
Y1988D01*
X793Y2007D01*
X1090D01*
X1099Y1997D01*
D02*
G37*
G36*
X280Y1587D02*
Y1346D01*
X277D01*
Y1214D01*
X227D01*
Y1164D01*
X81D01*
X80Y1164D01*
X40Y1139D01*
X35Y1140D01*
X10Y1142D01*
X-15Y1140D01*
X-28Y1137D01*
X-57Y1152D01*
X-78Y1172D01*
Y1294D01*
X234Y1606D01*
X280Y1587D01*
D02*
G37*
G36*
X935Y1265D02*
Y1172D01*
X914Y1152D01*
X885Y1137D01*
X871Y1140D01*
X846Y1142D01*
X822Y1140D01*
X798Y1134D01*
X788Y1131D01*
X752Y1147D01*
X738Y1161D01*
Y1164D01*
X600D01*
Y1214D01*
X550D01*
Y1346D01*
X547D01*
Y1588D01*
X593Y1607D01*
X935Y1265D01*
D02*
G37*
G36*
X-889Y749D02*
X-884Y738D01*
X-875Y724D01*
X-864Y711D01*
X-851Y700D01*
X-837Y691D01*
X-821Y684D01*
X-804Y680D01*
X-787Y679D01*
X-770Y680D01*
X-754Y684D01*
X-738Y691D01*
X-724Y700D01*
X-711Y711D01*
X-700Y724D01*
X-697Y728D01*
X-661Y739D01*
X-638Y739D01*
X-638Y739D01*
X-539Y641D01*
X-538Y620D01*
X-540Y613D01*
X-442Y515D01*
Y482D01*
X-461Y463D01*
X-621D01*
X-637Y447D01*
X-646Y443D01*
X-906D01*
Y492D01*
X-974D01*
X-1013Y517D01*
X-1015Y536D01*
X-1021Y555D01*
X-1030Y572D01*
X-1042Y587D01*
X-1259Y804D01*
Y906D01*
X-1045D01*
X-889Y749D01*
D02*
G37*
G36*
X-1664Y1978D02*
Y1384D01*
X-1664Y1384D01*
X-1662Y1365D01*
X-1656Y1346D01*
X-1647Y1329D01*
X-1635Y1314D01*
X-1457Y1136D01*
Y763D01*
X-1457Y763D01*
X-1455Y743D01*
X-1450Y725D01*
X-1441Y708D01*
X-1428Y693D01*
X-1274Y538D01*
X-1293Y492D01*
X-1319D01*
Y209D01*
X-1371Y157D01*
X-1417Y176D01*
Y226D01*
X-1594D01*
Y39D01*
X-1494D01*
X-1467Y34D01*
X-1458Y-14D01*
X-1460Y-15D01*
X-1476Y-34D01*
X-1489Y-55D01*
X-1498Y-78D01*
X-1504Y-102D01*
X-1506Y-127D01*
X-1504Y-152D01*
X-1499Y-171D01*
X-1500Y-179D01*
X-1531Y-221D01*
X-1532Y-221D01*
X-2343D01*
X-2361Y-173D01*
Y2007D01*
X-1709D01*
X-1664Y1978D01*
D02*
G37*
G36*
X565Y-151D02*
X582Y-160D01*
X601Y-166D01*
X620Y-168D01*
X620Y-168D01*
X733D01*
Y-187D01*
X1055D01*
Y-379D01*
X1035D01*
Y-461D01*
X1173D01*
X1310D01*
Y-379D01*
X1291D01*
Y-187D01*
X1388D01*
Y-187D01*
X1434Y-196D01*
X1446Y-210D01*
X1466Y-227D01*
X1488Y-242D01*
X1511Y-253D01*
X1536Y-262D01*
X1562Y-267D01*
X1588Y-268D01*
X2037D01*
X2037Y-268D01*
X2184D01*
Y-2538D01*
X930D01*
X881Y-2520D01*
Y-1794D01*
X885Y-1788D01*
X931Y-1768D01*
X937Y-1773D01*
X935Y-2303D01*
X1919D01*
Y-965D01*
X1370D01*
X1351Y-950D01*
X1328Y-915D01*
X1329Y-905D01*
X1368Y-859D01*
X1445D01*
Y-771D01*
X1313D01*
Y-671D01*
X1445D01*
Y-584D01*
X1310D01*
Y-561D01*
X1173D01*
X1035D01*
Y-603D01*
X977D01*
Y-622D01*
X922D01*
X861Y-561D01*
X857Y-551D01*
X848Y-536D01*
X837Y-523D01*
X824Y-512D01*
X809Y-503D01*
X794Y-497D01*
X777Y-493D01*
X760Y-491D01*
X743Y-493D01*
X726Y-497D01*
X711Y-503D01*
X696Y-512D01*
X683Y-523D01*
X672Y-536D01*
X672Y-536D01*
X658Y-529D01*
X639Y-523D01*
X620Y-521D01*
X601Y-523D01*
X582Y-529D01*
X565Y-538D01*
X551Y-549D01*
X537Y-538D01*
X520Y-529D01*
X503Y-523D01*
X488Y-497D01*
X486Y-487D01*
X510Y-451D01*
X516Y-449D01*
X532Y-443D01*
X544Y-435D01*
X550Y-440D01*
X566Y-450D01*
X570Y-452D01*
Y-410D01*
X570Y-410D01*
X579Y-395D01*
X586Y-379D01*
X590Y-363D01*
X591Y-346D01*
X591Y-344D01*
X590Y-329D01*
X586Y-312D01*
X579Y-297D01*
X570Y-282D01*
X570Y-282D01*
Y-237D01*
X566Y-239D01*
X550Y-249D01*
X549Y-250D01*
X510Y-238D01*
X503Y-221D01*
X499Y-207D01*
X502Y-196D01*
X513Y-173D01*
X516Y-172D01*
X532Y-166D01*
X546Y-157D01*
X559Y-146D01*
X565Y-151D01*
D02*
G37*
G36*
X168Y-1048D02*
X149Y-1094D01*
X79D01*
Y-1025D01*
X125Y-1006D01*
X168Y-1048D01*
D02*
G37*
G36*
X-1317Y-688D02*
X-1185D01*
Y-788D01*
X-1317D01*
Y-876D01*
X-1289D01*
Y-1299D01*
X-1338Y-1303D01*
X-1388D01*
Y-1133D01*
X-1614D01*
X-1841D01*
Y-1303D01*
X-2040D01*
Y-1972D01*
X-1999D01*
Y-2179D01*
X-1794D01*
Y-2199D01*
X-1712D01*
Y-2061D01*
X-1612D01*
Y-2199D01*
X-1576D01*
Y-2199D01*
X-1494D01*
Y-2061D01*
X-1394D01*
Y-2199D01*
X-1312D01*
Y-2179D01*
X-1107D01*
Y-1972D01*
X-1056D01*
Y-1746D01*
X-1050Y-1738D01*
X-1006Y-1714D01*
X-1004Y-1715D01*
X-979Y-1721D01*
X-955Y-1723D01*
X-930Y-1721D01*
X-906Y-1715D01*
X-883Y-1706D01*
X-837Y-1736D01*
Y-1821D01*
X-774D01*
X-738Y-1854D01*
Y-2169D01*
X10D01*
Y-1854D01*
X46Y-1821D01*
X59D01*
Y-1713D01*
X59Y-1713D01*
X78Y-1711D01*
X97Y-1706D01*
X114Y-1696D01*
X129Y-1684D01*
X250Y-1563D01*
X305D01*
Y-1508D01*
X373Y-1440D01*
X384Y-1435D01*
X398Y-1426D01*
X411Y-1415D01*
X423Y-1402D01*
X431Y-1388D01*
X438Y-1372D01*
X442Y-1356D01*
X443Y-1339D01*
X442Y-1322D01*
X438Y-1305D01*
X434Y-1294D01*
Y-1198D01*
X480Y-1179D01*
X516Y-1216D01*
Y-2520D01*
X468Y-2538D01*
X-2361D01*
Y-733D01*
X-2343Y-684D01*
X-1317D01*
Y-688D01*
D02*
G37*
G36*
X-152Y-726D02*
X-151Y-727D01*
X-139Y-742D01*
X-71Y-810D01*
X-90Y-856D01*
X-107D01*
Y-1083D01*
Y-1309D01*
X47D01*
X49Y-1357D01*
X49Y-1358D01*
X45Y-1407D01*
X-229D01*
Y-1309D01*
X-207D01*
Y-1083D01*
Y-854D01*
X-218Y-847D01*
X-246Y-808D01*
X-246Y-808D01*
Y-784D01*
X-242Y-774D01*
X-207Y-739D01*
X-188Y-737D01*
X-170Y-733D01*
X-153Y-726D01*
X-152Y-726D01*
D02*
G37*
G36*
X-1573Y-1693D02*
X-1564Y-1708D01*
X-1553Y-1720D01*
X-1540Y-1732D01*
X-1526Y-1740D01*
X-1510Y-1747D01*
X-1493Y-1751D01*
X-1476Y-1752D01*
X-1469Y-1759D01*
Y-1923D01*
X-1530D01*
Y-1923D01*
X-1627D01*
Y-1691D01*
X-1580Y-1677D01*
X-1573Y-1693D01*
D02*
G37*
%LPC*%
G36*
X2020Y1319D02*
X1938D01*
Y1231D01*
X2020D01*
Y1319D01*
D02*
G37*
G36*
Y905D02*
X1938D01*
Y817D01*
X2020D01*
Y905D01*
D02*
G37*
G36*
X1317Y368D02*
X1235D01*
Y281D01*
X1317D01*
Y368D01*
D02*
G37*
G36*
X-700Y1870D02*
X-1062D01*
Y1644D01*
Y1417D01*
X-700D01*
Y1644D01*
Y1870D01*
D02*
G37*
G36*
X177Y1346D02*
X90D01*
Y1264D01*
X177D01*
Y1346D01*
D02*
G37*
G36*
X738D02*
X650D01*
Y1264D01*
X738D01*
Y1346D01*
D02*
G37*
G36*
X-1417Y512D02*
X-1594D01*
Y326D01*
X-1417D01*
Y512D01*
D02*
G37*
G36*
X-1694D02*
X-1870D01*
Y326D01*
X-1694D01*
Y512D01*
D02*
G37*
G36*
Y226D02*
X-1870D01*
Y39D01*
X-1694D01*
Y226D01*
D02*
G37*
G36*
X727Y-394D02*
X670D01*
Y-452D01*
X674Y-450D01*
X690Y-440D01*
X704Y-428D01*
X716Y-414D01*
X726Y-398D01*
X727Y-394D01*
D02*
G37*
G36*
X-1388Y-846D02*
X-1564D01*
Y-1033D01*
X-1388D01*
Y-846D01*
D02*
G37*
G36*
X-1664D02*
X-1841D01*
Y-1033D01*
X-1664D01*
Y-846D01*
D02*
G37*
%LPD*%
D11*
X1663Y904D02*
Y955D01*
X1300Y640D02*
X1399D01*
X1134Y674D02*
X1227Y768D01*
X1345D01*
X1399Y640D02*
X1663Y904D01*
X1476Y899D02*
Y955D01*
X1345Y768D02*
X1476Y899D01*
X1290Y630D02*
X1300Y640D01*
X1284Y630D02*
X1290D01*
X-1112Y1112D02*
X-787Y787D01*
X-1437Y1437D02*
Y1978D01*
Y1437D02*
X-1112Y1112D01*
X-1112Y207D02*
X-482D01*
X-1112Y344D02*
Y517D01*
Y276D02*
Y344D01*
X-482D01*
X-1358Y763D02*
X-1112Y517D01*
X-1358Y763D02*
Y1177D01*
X-1565Y1384D02*
X-1358Y1177D01*
X-1565Y1384D02*
Y1978D01*
X-1112Y276D02*
X-1112Y276D01*
X-728Y-1184D02*
Y-1150D01*
X-602Y-1066D02*
X-344Y-808D01*
X-612Y-1066D02*
X-602D01*
X-344Y-808D02*
Y-620D01*
X-612Y-1597D02*
X-610Y-1599D01*
Y-1953D02*
Y-1599D01*
Y-1953D02*
X-551Y-2012D01*
X-177D02*
X-161Y-1996D01*
X-157Y-1614D02*
X59D01*
X-161Y-1996D02*
Y-1594D01*
X-69Y-672D02*
Y-620D01*
X59Y-1614D02*
X335Y-1339D01*
X-69Y-672D02*
X335Y-1075D01*
Y-1339D02*
Y-1075D01*
X-207Y-758D02*
Y-620D01*
Y-758D02*
X-148Y-817D01*
X-157Y-1083D02*
X-138Y-1063D01*
X118D01*
X187Y-1132D01*
Y-1226D02*
Y-1132D01*
X174Y-1226D02*
X187D01*
X52Y-1348D02*
X174Y-1226D01*
X-10Y-1348D02*
X52D01*
X1201Y-1870D02*
X1257D01*
X974D02*
X1201D01*
X974Y-1870D02*
X974Y-1870D01*
X1257Y-2165D02*
Y-1870D01*
X1535Y-1417D02*
X1762D01*
X1500Y-1382D02*
X1535Y-1417D01*
X1500Y-1382D02*
Y-1112D01*
X1761Y-1419D02*
X1762Y-1417D01*
X1752Y-1419D02*
X1761D01*
X1252Y955D02*
Y1201D01*
X-207Y482D02*
Y658D01*
X-374Y825D02*
X-207Y658D01*
Y1604D02*
Y1978D01*
X-374Y825D02*
Y1978D01*
X-1348Y39D02*
X-1112Y276D01*
X-1348Y30D02*
Y39D01*
Y30D02*
X-1348Y29D01*
Y-127D02*
Y29D01*
X-1112Y207D02*
Y276D01*
X1663Y955D02*
Y1201D01*
X1476Y955D02*
Y1201D01*
X1663D02*
Y1650D01*
X1825Y1811D01*
X1476Y1201D02*
Y1659D01*
X1325Y1811D02*
X1476Y1659D01*
X-1388Y-807D02*
Y-768D01*
X-1358Y-738D01*
X-1185D01*
X-955Y-1565D02*
Y-1211D01*
X-1083Y-1083D02*
X-955Y-1211D01*
X667Y69D02*
X960Y362D01*
Y418D01*
X-640Y-482D02*
X-482D01*
X-896Y-738D02*
X-640Y-482D01*
X-961Y-738D02*
X-896D01*
X-588Y-620D02*
X-482D01*
X-1050Y-1083D02*
X-588Y-620D01*
X-1083Y-1083D02*
X-1050D01*
X881Y-721D02*
X1089D01*
X760Y-600D02*
X881Y-721D01*
X620Y69D02*
X667D01*
X207Y970D02*
X226Y990D01*
X16D02*
X226D01*
X-482Y207D02*
X-482D01*
X344Y-207D02*
X517D01*
X1089Y-823D02*
Y-721D01*
Y-823D02*
X1171Y-905D01*
X700Y1382D02*
X817Y1265D01*
X-1549Y-1901D02*
X-1548Y-1901D01*
X-1662Y-2015D02*
X-1549Y-1901D01*
X-1662Y-2061D02*
Y-2015D01*
X-1548Y-1901D02*
X-1444Y-2005D01*
Y-2061D02*
Y-2005D01*
X518Y-208D02*
X539D01*
X620Y-289D01*
Y-344D02*
Y-289D01*
Y-69D02*
X845D01*
X1132Y-511D02*
X1173D01*
X924Y-303D02*
X1132Y-511D01*
X207Y-207D02*
X344D01*
X517D02*
X518Y-208D01*
X811Y990D02*
X817Y984D01*
X600Y990D02*
X811D01*
X600D02*
X620Y970D01*
Y482D02*
Y970D01*
X207Y482D02*
Y970D01*
X10Y984D02*
X16Y990D01*
X-344Y482D02*
Y586D01*
X-650Y891D02*
X-344Y586D01*
X-650Y891D02*
Y1112D01*
X11Y1228D02*
X214D01*
X227Y1214D01*
X614Y1228D02*
X817D01*
X600Y1214D02*
X614Y1228D01*
X11D02*
Y1265D01*
X128Y1382D01*
D13*
X1117Y831D02*
Y1340D01*
X832Y546D02*
X1117Y831D01*
X1019Y872D02*
Y1300D01*
X733Y587D02*
X1019Y872D01*
X620Y-644D02*
Y-620D01*
X1317Y-1645D02*
X1482Y-1811D01*
X966Y-1645D02*
X1317D01*
X896Y-1575D02*
X966Y-1645D01*
X896Y-1575D02*
Y-1059D01*
X482Y-645D02*
Y-620D01*
Y-645D02*
X896Y-1059D01*
X1201Y-1417D02*
Y-1398D01*
X1482Y-2165D02*
Y-1811D01*
X1201Y-1398D02*
X1276Y-1323D01*
Y-1101D01*
X620Y-644D02*
X1024Y-1048D01*
Y-1220D02*
Y-1048D01*
Y-1220D02*
X1201Y-1398D01*
Y-1417D02*
Y-1398D01*
X660Y1797D02*
Y1988D01*
X562Y1756D02*
Y1988D01*
X463Y566D02*
Y1988D01*
X364Y566D02*
Y1988D01*
X167Y1798D02*
Y1988D01*
X266Y1757D02*
Y1988D01*
X660Y1797D02*
X1117Y1340D01*
X832Y393D02*
Y546D01*
X645Y207D02*
X832Y393D01*
X620Y207D02*
X645D01*
X644Y344D02*
X733Y434D01*
Y587D01*
X562Y1756D02*
X1019Y1300D01*
X620Y344D02*
X644D01*
X463Y566D02*
X482Y546D01*
Y482D02*
Y546D01*
X344Y482D02*
Y546D01*
X364Y566D01*
X-69Y482D02*
Y680D01*
X-261Y1370D02*
X167Y1798D01*
X-261Y872D02*
Y1370D01*
Y872D02*
X-69Y680D01*
X69Y482D02*
Y682D01*
X-162Y1329D02*
X266Y1757D01*
X-162Y913D02*
Y1329D01*
Y913D02*
X69Y682D01*
X-2343Y-305D02*
X-1044D01*
X-2343Y-404D02*
X-1003D01*
X-2343Y-600D02*
X-922D01*
X-2343Y-502D02*
X-962D01*
X-670Y69D02*
X-482D01*
X-1044Y-305D02*
X-670Y69D01*
X-669Y-69D02*
X-482D01*
X-1003Y-404D02*
X-669Y-69D01*
X-666Y-344D02*
X-482D01*
X-922Y-600D02*
X-666Y-344D01*
X-667Y-207D02*
X-482D01*
X-962Y-502D02*
X-667Y-207D01*
X797Y-2520D02*
Y-1100D01*
X600Y-2520D02*
Y-1181D01*
X699Y-2520D02*
Y-1140D01*
X344Y-647D02*
X797Y-1100D01*
X344Y-647D02*
Y-620D01*
X69Y-650D02*
Y-620D01*
Y-650D02*
X600Y-1181D01*
X207Y-648D02*
X699Y-1140D01*
X207Y-648D02*
Y-620D01*
X-1476Y-1644D02*
X-1269D01*
X-1263Y-1638D01*
X-1593Y-1535D02*
X-1568Y-1510D01*
X-1731Y-1535D02*
X-1593D01*
X-1824Y-1628D02*
X-1731Y-1535D01*
X-1887Y-1691D02*
X-1834Y-1638D01*
X-1887Y-2061D02*
Y-1691D01*
X-1263Y-1638D02*
X-1219Y-1681D01*
Y-2061D02*
Y-1681D01*
D14*
X-1644Y276D02*
D03*
X-1112D02*
D03*
X-1083Y-1083D02*
D03*
X-1614D02*
D03*
D15*
X-1112Y1644D02*
D03*
Y1112D02*
D03*
X-620Y-1614D02*
D03*
Y-1083D02*
D03*
X-157Y-1614D02*
D03*
Y-1083D02*
D03*
X-650Y1112D02*
D03*
Y1644D02*
D03*
D16*
X-551Y-2012D02*
D03*
X-177D02*
D03*
D17*
X187Y-1451D02*
D03*
Y-1226D02*
D03*
X600Y1214D02*
D03*
Y990D02*
D03*
X227Y1214D02*
D03*
Y990D02*
D03*
X1173Y-287D02*
D03*
Y-511D02*
D03*
D18*
X1500Y-1112D02*
D03*
X1276D02*
D03*
X1257Y-2165D02*
D03*
X1482D02*
D03*
X1252Y1181D02*
D03*
X1476D02*
D03*
X1663D02*
D03*
X1888D02*
D03*
X1252Y955D02*
D03*
X1476D02*
D03*
X1663D02*
D03*
X1888D02*
D03*
X1089Y-721D02*
D03*
X1313D02*
D03*
X1275Y-69D02*
D03*
X1500D02*
D03*
X845Y-69D02*
D03*
X1070D02*
D03*
X-1444Y-2061D02*
D03*
X-1219D02*
D03*
X-1662Y-2061D02*
D03*
X-1887Y-2061D02*
D03*
X1185Y418D02*
D03*
X960D02*
D03*
X-1185Y-738D02*
D03*
X-961D02*
D03*
D19*
X1535Y-1870D02*
D03*
X1201Y-1870D02*
D03*
Y-1417D02*
D03*
X1535Y-1417D02*
D03*
D20*
X344Y344D02*
D03*
X620Y-344D02*
D03*
X482D02*
D03*
X620Y-620D02*
D03*
X-482Y482D02*
D03*
X-344D02*
D03*
X-207D02*
D03*
X-69D02*
D03*
X69D02*
D03*
X207D02*
D03*
X344D02*
D03*
X482D02*
D03*
X620D02*
D03*
X-482Y344D02*
D03*
X-344D02*
D03*
X-207D02*
D03*
X-69D02*
D03*
X69D02*
D03*
X207D02*
D03*
X482D02*
D03*
X620D02*
D03*
X-482Y207D02*
D03*
X-344D02*
D03*
X-69D02*
D03*
X69D02*
D03*
X207D02*
D03*
X344D02*
D03*
X482D02*
D03*
X620D02*
D03*
X-482Y69D02*
D03*
X-344D02*
D03*
X-207D02*
D03*
X-69D02*
D03*
X69D02*
D03*
X207D02*
D03*
X344D02*
D03*
X482D02*
D03*
X620D02*
D03*
X-482Y-69D02*
D03*
X-344D02*
D03*
X-207D02*
D03*
X-69D02*
D03*
X69D02*
D03*
X207D02*
D03*
X344D02*
D03*
X482D02*
D03*
X620D02*
D03*
X-482Y-207D02*
D03*
X-344D02*
D03*
X-207D02*
D03*
X-69D02*
D03*
X69D02*
D03*
X207D02*
D03*
X344D02*
D03*
X-482Y-344D02*
D03*
X-344D02*
D03*
X-207D02*
D03*
X-69D02*
D03*
X69D02*
D03*
X207D02*
D03*
X-482Y-482D02*
D03*
X-344D02*
D03*
X-207D02*
D03*
X-69D02*
D03*
X69D02*
D03*
X207D02*
D03*
X344D02*
D03*
X-482Y-620D02*
D03*
X-344D02*
D03*
X-207D02*
D03*
X-69D02*
D03*
X69D02*
D03*
X207D02*
D03*
X344D02*
D03*
X482D02*
D03*
D21*
X-1834Y-1638D02*
D03*
X-1263D02*
D03*
D33*
X1588Y-69D02*
X2037D01*
D34*
X1072Y-69D02*
X1178D01*
X1275D01*
X1280D01*
D35*
X1173Y-74D02*
X1178Y-69D01*
X1173Y-287D02*
Y-74D01*
D36*
X2030Y-69D02*
D03*
D37*
X69Y-69D02*
D03*
D38*
X1825Y1811D02*
D03*
X1325D02*
D03*
D39*
X-1585Y1083D02*
D03*
X-1969Y285D02*
D03*
X-1112Y1890D02*
D03*
X-974Y-2057D02*
D03*
X394Y-2411D02*
D03*
X157Y-2096D02*
D03*
X-167Y-1319D02*
D03*
X-364Y-2421D02*
D03*
X394Y-1624D02*
D03*
X915Y1890D02*
D03*
X-1783Y1890D02*
D03*
X-2234Y-2421D02*
D03*
X-2244Y1890D02*
D03*
Y1368D02*
D03*
X-2244Y778D02*
D03*
Y-98D02*
D03*
X-974Y-2421D02*
D03*
X2067Y-2421D02*
D03*
X2067Y-1093D02*
D03*
X1004Y-2421D02*
D03*
X974Y-1870D02*
D03*
X1752Y-1419D02*
D03*
X1427Y453D02*
D03*
X-955Y-1565D02*
D03*
X157Y20D02*
D03*
X-20Y-157D02*
D03*
X1535Y-709D02*
D03*
X1171Y-905D02*
D03*
X2067Y797D02*
D03*
X-817Y600D02*
D03*
X1722Y-389D02*
D03*
X2067Y249D02*
D03*
X2047Y-389D02*
D03*
X1722Y249D02*
D03*
X1148Y190D02*
D03*
X924Y-303D02*
D03*
X1440Y-380D02*
D03*
X-1348Y-127D02*
D03*
X846Y984D02*
D03*
X10D02*
D03*
X10Y1228D02*
D03*
X846D02*
D03*
X-1949Y-1181D02*
D03*
X-650Y1890D02*
D03*
D40*
X-787Y787D02*
D03*
X-344Y344D02*
D03*
X118Y-1063D02*
D03*
X335Y-1339D02*
D03*
X-207Y1604D02*
D03*
X-207Y344D02*
D03*
X482Y207D02*
D03*
Y344D02*
D03*
X344D02*
D03*
X-69D02*
D03*
X69D02*
D03*
X207D02*
D03*
Y-482D02*
D03*
X-69D02*
D03*
X69D02*
D03*
X-344Y207D02*
D03*
Y69D02*
D03*
X-344Y-344D02*
D03*
X-344Y-207D02*
D03*
Y-69D02*
D03*
X344Y-69D02*
D03*
Y69D02*
D03*
Y207D02*
D03*
X207Y207D02*
D03*
X69Y207D02*
D03*
X1134Y674D02*
D03*
X1284Y630D02*
D03*
X-1368Y-827D02*
D03*
X-69Y-344D02*
D03*
X69D02*
D03*
X-207D02*
D03*
X207Y-344D02*
D03*
X-207Y-207D02*
D03*
Y-69D02*
D03*
Y69D02*
D03*
X-69Y207D02*
D03*
X-1548Y-1770D02*
D03*
X-1476Y-1644D02*
D03*
X-482Y482D02*
D03*
X760Y-600D02*
D03*
X482Y-346D02*
D03*
X344Y-482D02*
D03*
X-344D02*
D03*
X-207D02*
D03*
X482Y-69D02*
D03*
Y69D02*
D03*
X-1568Y-1510D02*
D03*
M02*
