G04*
G04 #@! TF.GenerationSoftware,Altium Limited,Altium Designer,19.0.15 (446)*
G04*
G04 Layer_Color=8388736*
%FSLAX24Y24*%
%MOIN*%
G70*
G01*
G75*
%ADD22R,0.0355X0.0375*%
%ADD23R,0.0375X0.0355*%
%ADD24R,0.0316X0.0257*%
%ADD25R,0.0178X0.0166*%
%ADD26R,0.0166X0.0178*%
%ADD27R,0.0277X0.0316*%
%ADD28R,0.0146X0.0157*%
%ADD29C,0.0110*%
%ADD30R,0.0355X0.0611*%
%ADD31C,0.0454*%
%ADD32C,0.0158*%
D22*
X-1644Y276D02*
D03*
X-1112D02*
D03*
X-1083Y-1083D02*
D03*
X-1614D02*
D03*
D23*
X-1112Y1644D02*
D03*
Y1112D02*
D03*
X-620Y-1614D02*
D03*
Y-1083D02*
D03*
X-157Y-1614D02*
D03*
Y-1083D02*
D03*
X-650Y1112D02*
D03*
Y1644D02*
D03*
D24*
X-551Y-2012D02*
D03*
X-177D02*
D03*
D25*
X187Y-1451D02*
D03*
Y-1226D02*
D03*
X600Y1214D02*
D03*
Y990D02*
D03*
X227Y1214D02*
D03*
Y990D02*
D03*
X1173Y-287D02*
D03*
Y-511D02*
D03*
D26*
X1500Y-1112D02*
D03*
X1276D02*
D03*
X1257Y-2165D02*
D03*
X1482D02*
D03*
X1089Y-721D02*
D03*
X1313D02*
D03*
X1275Y-69D02*
D03*
X1500D02*
D03*
X845Y-69D02*
D03*
X1070D02*
D03*
X-1444Y-2061D02*
D03*
X-1219D02*
D03*
X-1662Y-2061D02*
D03*
X-1887Y-2061D02*
D03*
X1185Y418D02*
D03*
X960D02*
D03*
X-1185Y-738D02*
D03*
X-961D02*
D03*
D27*
X1535Y-1870D02*
D03*
X1201Y-1870D02*
D03*
Y-1417D02*
D03*
X1535Y-1417D02*
D03*
D28*
X1252Y1181D02*
D03*
X1476D02*
D03*
X1663D02*
D03*
X1888D02*
D03*
X1252Y955D02*
D03*
X1476D02*
D03*
X1663D02*
D03*
X1888D02*
D03*
D29*
X344Y344D02*
D03*
X620Y-344D02*
D03*
X482D02*
D03*
X620Y-620D02*
D03*
X-482Y482D02*
D03*
X-344D02*
D03*
X-207D02*
D03*
X-69D02*
D03*
X69D02*
D03*
X207D02*
D03*
X344D02*
D03*
X482D02*
D03*
X620D02*
D03*
X-482Y344D02*
D03*
X-344D02*
D03*
X-207D02*
D03*
X-69D02*
D03*
X69D02*
D03*
X207D02*
D03*
X482D02*
D03*
X620D02*
D03*
X-482Y207D02*
D03*
X-344D02*
D03*
X-69D02*
D03*
X69D02*
D03*
X207D02*
D03*
X344D02*
D03*
X482D02*
D03*
X620D02*
D03*
X-482Y69D02*
D03*
X-344D02*
D03*
X-207D02*
D03*
X-69D02*
D03*
X69D02*
D03*
X207D02*
D03*
X344D02*
D03*
X482D02*
D03*
X620D02*
D03*
X-482Y-69D02*
D03*
X-344D02*
D03*
X-207D02*
D03*
X-69D02*
D03*
X69D02*
D03*
X207D02*
D03*
X344D02*
D03*
X482D02*
D03*
X620D02*
D03*
X-482Y-207D02*
D03*
X-344D02*
D03*
X-207D02*
D03*
X-69D02*
D03*
X69D02*
D03*
X207D02*
D03*
X344D02*
D03*
X-482Y-344D02*
D03*
X-344D02*
D03*
X-207D02*
D03*
X-69D02*
D03*
X69D02*
D03*
X207D02*
D03*
X-482Y-482D02*
D03*
X-344D02*
D03*
X-207D02*
D03*
X-69D02*
D03*
X69D02*
D03*
X207D02*
D03*
X344D02*
D03*
X-482Y-620D02*
D03*
X-344D02*
D03*
X-207D02*
D03*
X-69D02*
D03*
X69D02*
D03*
X207D02*
D03*
X344D02*
D03*
X482D02*
D03*
D30*
X-1834Y-1638D02*
D03*
X-1263D02*
D03*
D31*
X1825Y1811D02*
D03*
X1325D02*
D03*
D32*
X118Y-1063D02*
D03*
X-1476Y-1644D02*
D03*
M02*
