M48
;Layer_Color=9474304
;FILE_FORMAT=2:4
INCH,TZ
;TYPE=PLATED
T1F00S00C0.0039
%
T01
X-1548Y-1770
X-1476Y-1644
X-1568Y-1510
X-1368Y-827
X-344Y-482
X-207
Y-344
X-207Y-207
Y-69
Y69
X-344
Y-69
Y-207
X-344Y-344
X-69
X69
X207Y-344
X207Y-482
X344
X482Y-346
X482Y-69
Y69
X344
Y-69
Y207
Y344
X207
X69
X-69
X-207
X-69Y207
X69Y207
X207Y207
X482Y207
Y344
X-344Y207
X-482Y482
X-69Y-482
X69
X760Y-600
X354Y-1112
X1134Y674
X1284Y630
X-207Y1604
M30
