M48
;Layer_Color=9474304
;FILE_FORMAT=2:4
INCH,TZ
;TYPE=PLATED
T1F00S00C0.0039
%
T01
X-1548Y-1770
X-1476Y-1644
X-1568Y-1510
X-1368Y-827
X-344Y-482
X-207
X-69
X69
X207
X344
X482Y-346
X207Y-344
X69Y-344
X-69
X-207
X-344
X-344Y-207
Y-69
Y69
X-207
Y-69
Y-207
X-344Y207
X-344Y344
X-207
X-69
X69
X207
X344
Y207
X482
Y344
Y69
Y-69
X344
Y69
X207Y207
X69Y207
X-69Y207
X-482Y482
X-787Y787
X-207Y1604
X1134Y674
X1284Y630
X760Y-600
X118Y-1063
X335Y-1339
M30
